DBRep_DrawableShape

CASCADE Topology V1, (c) Matra-Datavision
Locations 78
1
              1               0               0              -0 
              0               1               0              30 
              0               0               1             -28 
1
1.11022302462516e-16               0               1               0 
              0               1               0               0 
             -1               0 1.11022302462516e-16               0 
1
              1               0               0               0 
              0               1               0               0 
              0               0               1               0 
1
              1               0               0               0 
              0 1.11022302462516e-16               1               0 
              0              -1 1.11022302462516e-16               0 
1
              1               0               0               0 
              0               1               0               0 
              0               0               1               0 
1
              1               0               0               0 
              0               1               0             -30 
              0               0               1              16 
2  2 1 3 1 4 1 5 1 6 1 0
2  6 -1 5 -1 4 -1 3 -1 2 -1 0
1
             -1 -1.22464679914735e-16               0               0 
1.22464679914735e-16              -1               0               0 
              0               0               1               0 
1
              1               0               0               0 
              0               1               0               0 
              0               0               1               0 
1
              1               0               0               0 
              0 1.11022302462516e-16              -1               0 
              0               1 1.11022302462516e-16               0 
1
              1               0               0               0 
              0               1               0               0 
              0               0               1               0 
1
              1               0               0               0 
              0               1               0             -30 
              0               0               1              40 
2  9 1 10 1 11 1 12 1 13 1 0
1
1.11022302462516e-16               0               1               0 
              0               1               0               0 
             -1               0 1.11022302462516e-16               0 
1
              1               0               0               0 
              0               1               0               0 
              0               0               1               0 
1
              1               0               0               0 
              0 1.11022302462516e-16               1               0 
              0              -1 1.11022302462516e-16               0 
1
              1               0               0               0 
              0               1               0               0 
              0               0               1               0 
1
              1               0               0               0 
              0               1               0             -30 
              0               0               1              16 
2  15 1 16 1 17 1 18 1 19 1 0
1
1.11022302462516e-16               0               1               0 
              0               1               0               0 
             -1               0 1.11022302462516e-16               0 
1
              1               0               0               0 
              0               1               0               0 
              0               0               1               0 
1
              1               0               0               0 
              0 1.11022302462516e-16               1               0 
              0              -1 1.11022302462516e-16               0 
1
              1               0               0               0 
              0               1               0               0 
              0               0               1               0 
1
              1               0               0               0 
              0               1               0             -30 
              0               0               1              16 
2  21 1 22 1 23 1 24 1 25 1 0
1
1.11022302462516e-16               0               1               0 
              0               1               0               0 
             -1               0 1.11022302462516e-16               0 
1
              1               0               0               0 
              0               1               0               0 
              0               0               1               0 
1
              1               0               0               0 
              0 1.11022302462516e-16               1               0 
              0              -1 1.11022302462516e-16               0 
1
              1               0               0               0 
              0               1               0               0 
              0               0               1               0 
1
              1               0               0               0 
              0               1               0             -30 
              0               0               1              16 
2  27 1 28 1 29 1 30 1 31 1 0
1
1.11022302462516e-16               0               1               0 
              0               1               0               0 
             -1               0 1.11022302462516e-16               0 
1
              1               0               0               0 
              0               1               0               0 
              0               0               1               0 
1
              1               0               0               0 
              0 1.11022302462516e-16               1               0 
              0              -1 1.11022302462516e-16               0 
1
              1               0               0               0 
              0               1               0               0 
              0               0               1               0 
1
              1               0               0               0 
              0               1               0             -30 
              0               0               1              16 
2  33 1 34 1 35 1 36 1 37 1 0
1
1.11022302462516e-16               0               1               0 
              0               1               0               0 
             -1               0 1.11022302462516e-16               0 
1
              1               0               0               0 
              0               1               0               0 
              0               0               1               0 
1
              1               0               0               0 
              0 1.11022302462516e-16               1               0 
              0              -1 1.11022302462516e-16               0 
1
              1               0               0               0 
              0               1               0               0 
              0               0               1               0 
1
              1               0               0               0 
              0               1               0             -30 
              0               0               1              16 
2  39 1 40 1 41 1 42 1 43 1 0
2  13 -1 12 -1 11 -1 10 -1 9 -1 0
1
             -1 -1.22464679914735e-16               0               0 
1.22464679914735e-16              -1               0               0 
              0               0               1               0 
1
              1               0               0               0 
              0               1               0               0 
              0               0               1               0 
1
              1               0               0               0 
              0 1.11022302462516e-16              -1               0 
              0               1 1.11022302462516e-16               0 
1
              1               0               0               0 
              0               1               0               0 
              0               0               1               0 
1
              1               0               0               0 
              0               1               0             -30 
              0               0               1              40 
2  46 1 47 1 48 1 49 1 50 1 0
1
             -1 -1.22464679914735e-16               0               0 
1.22464679914735e-16              -1               0               0 
              0               0               1               0 
1
              1               0               0               0 
              0               1               0               0 
              0               0               1               0 
1
              1               0               0               0 
              0 1.11022302462516e-16              -1               0 
              0               1 1.11022302462516e-16               0 
1
              1               0               0               0 
              0               1               0               0 
              0               0               1               0 
1
              1               0               0               0 
              0               1               0             -30 
              0               0               1              40 
2  52 1 53 1 54 1 55 1 56 1 0
1
             -1 -1.22464679914735e-16               0               0 
1.22464679914735e-16              -1               0               0 
              0               0               1               0 
1
              1               0               0               0 
              0               1               0               0 
              0               0               1               0 
1
              1               0               0               0 
              0 1.11022302462516e-16              -1               0 
              0               1 1.11022302462516e-16               0 
1
              1               0               0               0 
              0               1               0               0 
              0               0               1               0 
1
              1               0               0               0 
              0               1               0             -30 
              0               0               1              40 
2  58 1 59 1 60 1 61 1 62 1 0
2  19 -1 18 -1 17 -1 16 -1 15 -1 0
2  25 -1 24 -1 23 -1 22 -1 21 -1 0
2  31 -1 30 -1 29 -1 28 -1 27 -1 0
2  37 -1 36 -1 35 -1 34 -1 33 -1 0
2  43 -1 42 -1 41 -1 40 -1 39 -1 0
2  50 -1 49 -1 48 -1 47 -1 46 -1 0
2  56 -1 55 -1 54 -1 53 -1 52 -1 0
2  62 -1 61 -1 60 -1 59 -1 58 -1 0
1
             -1 -1.22464679914735e-16               0               0 
1.22464679914735e-16              -1               0               0 
              0               0               1               0 
1
              1               0               0               0 
              0               1               0               0 
              0               0               1               0 
1
              1               0               0               0 
              0 1.11022302462516e-16              -1               0 
              0               1 1.11022302462516e-16               0 
1
              1               0               0               0 
              0               1               0               0 
              0               0               1               0 
1
              1               0               0               0 
              0               1               0             -30 
              0               0               1              40 
2  72 1 73 1 74 1 75 1 76 1 0
2  76 -1 75 -1 74 -1 73 -1 72 -1 0
Curve2ds 254
8 -5.999999999062311e-07 3.0000005999999999
1 0.04539735158303565 0 0 1 
1 -1.2952238447257658 1.0255191767873153e-29 0 1 
1 -4.7123889803846897 3 1 0 
2 6.9310558650567451 -2.4818185754309106 1 0 0 -1 6.7199999999999989
1 1.5707963267948966 0 0 1 
1 0 6.7199999999999989 1 0 
1 -4.7123889803846897 0 1 0 
2 -6.9303071877553784 -2.596181350742647 -1 0 -0 -1 6.7199999999999989
1 0 0 1 2.5425794725760847e-16 
2 3.3496928122446228 1.1238186492573519 1.1102230246251565e-16 1 1 -1.1102230246251565e-16 11
1 3.4932179280132214 8.8817841970012642e-16 0 1 
8 -5.999999999062311e-07 3.000000599999999
1 0.45138314119093942 -8.8817841970012523e-16 0 1 
7 0 0  3 25 23  3.3392406225290294 1.2222917922820145  3.3415452371726921 1.2119620060347875  3.346154197236709 1.1913676150267694  3.3530681474954047 1.1606729731359415  3.3599839406524676 1.1301765268532624  3.3669028572826765 1.0998800492779817  3.3738261438279054 1.069785666954157  3.3807550078259681 1.0398959162385251  3.3876906192476284 1.0102137393416053  3.3946341101940973 0.98074249650644318  3.4015865750289187 0.95148597383961553  3.4085490703866377 0.92244839228786746  3.4155226152054663 0.89363441629371831  3.4225081907425157 0.86504916253029196  3.4295067405806812 0.83669820861322908  3.4365191706218763 0.80858760183609524  3.4435463490685443 0.78072386788863679  3.4505891063804732 0.75311401972310521  3.4576482352457258 0.72576556600227549  3.4647244904124239 0.69868652128911812  3.4718185889436306 0.67188540996966206  3.4789312087875857 0.6453712938533136  3.4860629935192513 0.61915371175791645  3.4908306871225001 0.6018798692443702  3.4932179275143582 0.59329576292645125 
 1.3475531428547214e-07 4 0.016748364480913415 1 0.033496594206512541 1 0.050244823932111674 1 0.066993053657710799 1 0.083741283383309925 1 0.10048951310890906 1 0.11723774283450819 1 0.13398597256010733 1 0.15073420228570644 1 0.16748243201130558 1 0.18423066173690469 1 0.20097889146250383 1 0.21772712118810297 1 0.23447535091370209 1 0.25122358063930122 1 0.26797181036490036 1 0.2847200400904995 1 0.30146826981609859 1 0.31821649954169773 1 0.33496472926729687 1 0.35171295899289601 1 0.36846118871849515 4
7 0 0  8 16 3  1.1217306288559605 2.1599994000000002  1.0116161331330333 2.6755989713486032  0.90032289653562447 3.1850603422750288  0.78578422852833663 3.6940956919829944  0.66621499805416318 4.2057156108916649  0.54005487593986434 4.7199404647508558  0.40557192592070179 5.233976068249043  0.26093805997065606 5.7420774550059548  0.090491140740779671 6.2743305324753127  0.07785419556020097 6.3134354103984682  0.065123748628246061 6.3524656508497479  0.052297843395609674 6.3914167482057005  0.039374508785210954 6.4302838431384757  0.026351759192193552 6.4690617226158187  0.013227594483925669 6.5077448199010792  0 6.5463272145532097 
 0 9 0.9263971123243937 7 1 9
7 0 0  3 25 23  3.2784928081814861 2.1600000000000019  3.2784928539232094 2.143160159188402  3.2785756269663615 2.1095011134494288  3.2789478176442977 2.059137427076096  3.2795678384524951 2.0089590904988754  3.2804361443676573 1.9590353458538812  3.2815534803442006 1.9094410048462704  3.2829208547571316 1.8602571666062935  3.2845394385299063 1.8115709059295773  3.2864104961693563 1.7634753323482799  3.2885353376040598 1.71606937072456  3.290915229065817 1.6694584601538833  3.2935515212153206 1.6237520333367008  3.2964449539855902 1.5790742579104546  3.2995960015825769 1.535554841189912  3.3030046728170301 1.4933316578681726  3.3066702379372792 1.452552363909978  3.3105911850373033 1.4133728203461868  3.3147648585764742 1.3759589904509293  3.3191869891369254 1.340487693034345  3.3238515583977968 1.3071440117834929  3.3287504747945977 1.2761192542858337  3.3338736801246664 1.2476085999882578  3.3374296258779506 1.2304079380360939  3.339240622529033 1.2222917922820438 
 0 4 0.045454545454545456 1 0.090909090909090912 1 0.13636363636363635 1 0.18181818181818182 1 0.22727272727272729 1 0.27272727272727271 1 0.31818181818181818 1 0.36363636363636365 1 0.40909090909090912 1 0.45454545454545459 1 0.5 1 0.54545454545454541 1 0.59090909090909094 1 0.63636363636363635 1 0.68181818181818188 1 0.72727272727272729 1 0.77272727272727271 1 0.81818181818181823 1 0.86363636363636365 1 0.90909090909090917 1 0.95454545454545459 1 1 4
7 0 0  6 17 4  1.5707963267948966 -0.309937331241457  1.5267351585986313 -0.309937331241457  1.4828023790992042 -0.30485143412457405  1.4394292740765944 -0.29473220042250586  1.3971755856611634 -0.27955953126287886  1.356563244154505 -0.25938761938188581  1.3018518380607207 -0.22372103224621812  1.286032012841247 -0.21229427566165493  1.2706184743279489 -0.20000166698157118  1.2556456633870126 -0.18685107400291082  1.2411476477411825 -0.17285324802248017  1.2064083788859374 -0.13602560679521369  1.1867767680731927 -0.11219631870753397  1.1683735398849413 -0.086581627535198352  1.1513167913798901 -0.059258805795227631  1.1357264760052097 -0.030340131533601378  1.121730500716426 0 
 0 7 0.48928618871855473 5 0.69495680107880076 5 1 7
1 3.2784928081814826 8.8817841970012523e-16 0 1 
8 2.1599994000000011 3.000000599999999
1 0.30993733124146744 -8.8817841970012523e-16 0 1 
1 0 3 1 0 
2 -3.348944134943256 1.2381814245690883 -1.1102230246251565e-16 1 -1 -1.1102230246251565e-16 11
1 -6.2831853071795862 3 1 0 
2 -3.348944134943256 1.2381814245690883 -1.1102230246251565e-16 1 -1 -1.1102230246251565e-16 11
1 -6.2831853071795862 0 1 0 
2 3.3496928122446228 1.1238186492573519 1.1102230246251565e-16 1 1 -1.1102230246251565e-16 11
1 13.651055865056744 4.2381814245690883 0 -1 
1 3 0 0 1 
2 -1.1889441349432559 -7.6018185754309116 1 0 0 -1 2.1600000000000001
1 -1.5707963267948966 3 1 0 
2 6.9310558650567451 -3.0418185754309128 1 0 -0 1 6.7199999999999989
1 -4.7123889803846897 3 1 0 
1 -3.348944134943256 -9.7618185754309117 1 0 
1 -20.887239193083573 11.96462247838617 1 0 
1 -3.348944134943256 -5.2618185754309117 1 0 
1 23.53594657974751 13.715376001023319 -1 0 
1 9.651055865056744 -7.5118185754309117 -1.1102230246251565e-16 -1 
1 2.25 2.6999999999999975 -1 0 
2 -3.348944134943256 -5.2618185754309117 -1.1102230246251565e-16 1 -1 -1.1102230246251565e-16 1.1499999999999999
1 0 5.9999999999999973 1 0 
2 -9.848944134943256 1.2381814245690883 -1.1102230246251565e-16 1 -1 -1.1102230246251565e-16 1.1499999999999999
1 0 5.9999999999999964 1 0 
2 -3.348944134943256 1.2381814245690883 -1.1102230246251565e-16 1 -1 -1.1102230246251565e-16 3.2000000000000002
1 0 5.9999999999999964 1 0 
2 3.151055865056744 1.2381814245690883 -1.1102230246251565e-16 1 -1 -1.1102230246251565e-16 1.1499999999999999
1 0 5.9999999999999964 1 0 
2 -3.348944134943256 7.7381814245690883 -1.1102230246251565e-16 1 -1 -1.1102230246251565e-16 1.1499999999999999
1 0 5.9999999999999956 1 0 
1 -13.650307187755377 4.1238186492573519 0 -1 
1 0 0 0 1 
2 -3.3703071877553761 -3.1561813507426493 -1 0 -0 -1 6.7199999999999989
1 -1.5707963267948966 0 1 0 
2 -6.9303071877553784 -3.1561813507426493 -1 0 0 1 6.7199999999999989
1 -4.7123889803846897 0 1 0 
1 3.3496928122446228 -9.8761813507426481 -1 0 
1 -20.887239193083573 8.9646224783861701 1 0 
1 -14.150307187755377 -5.3761813507426446 1 1.1102230246251565e-16 
1 6.0359465797475096 10.715376001023319 1 0 
2 -6.9303071877553784 -3.1561813507426493 -1 0 0 1 6.7199999999999989
1 -4.7123889803846897 0 1 0 
1 -9.6503071877553772 -2.8761813507426481 1.1102230246251565e-16 -1 
1 7 5.6999999999999975 -1 0 
2 3.3496928122446228 -5.3761813507426481 1.1102230246251565e-16 1 1 -1.1102230246251565e-16 1.1499999999999999
1 0 3.0000000000000009 1 0 
2 -3.1503071877553772 1.1238186492573519 1.1102230246251565e-16 1 1 -1.1102230246251565e-16 1.1499999999999999
1 0 3 1 0 
2 3.3496928122446228 1.1238186492573519 1.1102230246251565e-16 1 1 -1.1102230246251565e-16 3.2000000000000002
1 0 3 1 0 
2 9.8496928122446228 1.1238186492573519 1.1102230246251565e-16 1 1 -1.1102230246251565e-16 1.1499999999999999
1 0 3 1 0 
2 3.3496928122446228 7.6238186492573519 1.1102230246251565e-16 1 1 -1.1102230246251565e-16 1.1499999999999999
1 0 2.9999999999999991 1 0 
1 0 0 0 1 
1 -14.167239193083574 8.9646224783861701 0 1 
7 0 0  8 16 3  0.74581613812210823 0.032990177508337215  0.72604889137354944 0.04892734560107273  0.70648331192822944 0.068814254304969236  0.68712847484347839 0.092236927340880945  0.66798853598707142 0.11882955788937802  0.64906336028289069 0.14827055813749287  0.63034899212793882 0.18027925219975116  0.611837967980704 0.21461321241348769  0.51149914645881156 0.4142831830138386  0.43231365628337842 0.62202045601975442  0.35607800143613033 0.85580976318348401  0.2824568933248226 1.1046061726004444  0.21092785480830489 1.3617201479307113  0.14073120239970205 1.6238335976496956  0.070873202184620732 1.8899809626489457  0 2.1599999999999997 
 0 9 0.18256639436243402 7 1 9
7 0 0  8 16 3  0.17499867457086893 2.1599994000000002  0.21737678494940244 2.2575719286417661  0.258649130881976 2.3561853668046351  0.29889078127970814 2.4556640239031662  0.33817074187195184 2.5558558119382515  0.37655407717870265 2.6566340546090697  0.41410354824873147 2.7578987520557665  0.45088076616344031 2.8595773012328443  0.64843133547250642 3.4185376237872642  0.79767842962634672 3.8885549763391651  0.93774414966300568 4.3628508381712603  1.0706195301039072 4.8360269992160596  1.1982548070646084 5.3062138685065952  1.3225680103500215 5.7742849445927931  1.4457880795876517 6.2437323441298229  1.5707963267948966 6.7199999999999989 
 0 9 0.18256639436243402 7 1 9
1 1.5707963267948966 0 0 1 
1 -20.887239193083573 11.12462247838617 1 0 
1 0 2.1600000000000001 1 0 
1 0 0 1 0 
8 4.7123889803846897 6.2831853071795862
1 1.5707963267948966 -6.2831853071795862 0 1 
8 4.7123889803846897 6.2831853071795862
1 6.2831853071795862 2.1600000000000001 -1 -0 
1 0 0 0 1 
1 -18.727239193083573 8.9646224783861701 0 1 
1 1.2341143896692004 0 0 1 
1 6.9132342261877184 10.715376001023319 0 1 
1 1.5707963267948966 0 0 1 
1 0 7.2800000000000011 1 0 
1 -7.8872391930835768 14.664622478386168 1.2246467991473532e-16 -1 
1 0 0 0 1 
1 14.112760806916427 14.664622478386171 -1 -1.2246467991473532e-16 
1 0 0 0 -1 
1 14.112760806916427 14.664622478386171 1.2246467991473532e-16 -1 
1 0 0 0 1 
1 14.112760806916427 -19.735377521613831 -1 -1.2246467991473532e-16 
1 0 0 0 -1 
1 -10.607239193083572 8.9646224783861701 0 1 
1 0 0 0 1 
1 -7.8872391930835768 14.664622478386168 1.2246467991473532e-16 -1 
1 0 0 0 1 
1 -20.887239193083573 11.12462247838617 1 0 
1 1.5707963267948966 0 0 1 
2 3.1127608069164268 -16.535377521613832 1.2246467991473532e-16 -1 -1 -1.2246467991473532e-16 1.1499999999999999
1 6.679274664138223e-65 8.0000000000000107 1 0 
8 -4.8823112391930845 19.717688760806915
1 -3.8872391930835732 4.8823112391930845 1.2246467991473532e-16 -1 
8 -4.8823112391930845 19.717688760806915
1 12.500000000000011 4.8823112391930845 1.3596310734468911e-32 1 
8 -8.9436195965417848 5.0563804034582152
1 5.0563804034582134 -14.835377521613834 1 1.2246467991473532e-16 
8 -8.9436195965417848 5.0563804034582152
1 12.500000000000011 -5.0563804034582152 1.1102230246251565e-16 1 
8 -4.8823112391930845 19.717688760806915
1 10.112760806916427 4.8823112391930863 1.2246467991473532e-16 -1 
8 -4.8823112391930845 19.717688760806915
1 12.500000000000011 4.8823112391930845 1.3596310734468911e-32 1 
8 -8.9436195965417848 5.0563804034582152
1 5.0563804034582134 9.764622478386169 1 1.2246467991473532e-16 
8 -8.9436195965417848 5.0563804034582152
1 12.500000000000011 -5.0563804034582152 1.1102230246251565e-16 1 
2 3.1127608069164268 11.46462247838617 1.2246467991473532e-16 -1 -1 -1.2246467991473532e-16 1.1499999999999999
1 6.679274664138223e-65 8.0000000000000107 1 0 
1 10.53594657974751 16.415376001023315 -1.2246467991473532e-16 -1 
1 4.5 0 0 1 
1 -11.46405342025249 16.415376001023319 1 -1.2246467991473532e-16 
1 4.5 0 0 -1 
1 -11.46405342025249 16.415376001023319 -1.2246467991473532e-16 -1 
1 4.5 0 0 1 
1 -11.46405342025249 -17.98462399897668 1 -1.2246467991473532e-16 
1 4.5 0 0 -1 
1 10.53594657974751 16.415376001023315 -1.2246467991473532e-16 -1 
1 4.5 0 0 1 
2 -0.46405342025249041 -14.784623998976681 -1.2246467991473532e-16 -1 1 -1.2246467991473532e-16 1.1499999999999999
1 6.679274664138223e-65 12.5 1 0 
8 -18.842311999488341 5.7576880005116591
1 -7.4640534202524904 5.75768800051166 1.2246467991473532e-16 1 
8 -18.842311999488341 5.7576880005116591
1 17 5.7576880005116591 -1.3596310734468911e-32 -1 
8 -3.7320267101262505 10.267973289873749
1 -3.7320267101262417 -13.084623998976685 1 -1.2246467991473532e-16 
8 -3.7320267101262505 10.267973289873749
1 17 -3.7320267101262505 -1.1102230246251565e-16 -1 
8 -18.842311999488341 5.7576880005116591
1 6.5359465797475096 5.7576880005116582 1.2246467991473532e-16 1 
8 -18.842311999488341 5.7576880005116591
1 17 5.7576880005116591 -1.3596310734468911e-32 -1 
8 -3.7320267101262505 10.267973289873749
1 -3.7320267101262417 11.51537600102332 1 -1.2246467991473532e-16 
8 -3.7320267101262505 10.267973289873749
1 17 -3.7320267101262505 -1.1102230246251565e-16 -1 
2 -0.46405342025249041 13.215376001023319 -1.2246467991473532e-16 -1 1 -1.2246467991473532e-16 1.1499999999999999
1 6.679274664138223e-65 12.5 1 0 
1 0 0 1 0 
1 0 -22 1 0 
1 6.2831853071795862 -0 0 1 
1 0 -0 0 1 
1 6.2831853071795862 -0 0 1 
1 0 -0 0 1 
1 6.2831853071795862 -0 0 1 
1 0 -0 0 1 
1 6.2831853071795862 -0 0 1 
1 0 -0 0 1 
1 6.2831853071795862 -0 0 1 
1 0 -0 0 1 
7 0 0  7 20 4  0.82498031022695439 0  0.80096975481127941 -5.0473668905157307e-17  0.77715297972342934 0.0075867805301489608  0.75357829269485277 0.021833406721989045  0.73027883052262133 0.041926695292068474  0.70727631412789871 0.067152801928924491  0.6845834842034868 0.096886832588738828  0.61870405884904434 0.19609528983594823  0.57625083577002079 0.27680089429322458  0.53486501825267296 0.36893951471224562  0.49448498171330796 0.46982555415257238  0.45499357676447338 0.57757980428368616  0.41622153457335648 0.6910072444562263  0.32150576600937397 0.98417710834872763  0.26625145189705135 1.1695171610472621  0.2120014001655178 1.3617432101219973  0.15853209155959908 1.5583850947916957  0.1055816913374895 1.7577461384010771  0.052853665706962746 1.9586337975418615  0 2.1599999999999997 
 0 8 0.17210217546795301 6 0.50665194705198491 6 1 8
7 0 0  7 20 4  0 15.216071312288751  0.054869358231218968 15.106583179593274  0.10787602313368803 14.994658682136487  0.15916870311570558 14.88071790783089  0.20887182059726114 14.765147036513213  0.25709530985612911 14.648289170241766  0.3039405142353187 14.530439121735666  0.43806960343376766 14.181301285853309  0.52207361643345018 13.947191963026905  0.60221614736892448 13.711121749209596  0.6790676557325539 13.474148743449977  0.75317353143249355 13.236742202547735  0.8250765544089822 12.998820701239762  0.9989892922557998 12.407251614369812  1.0988971960338989 12.052931759751594  1.1959682673559509 11.698200474766129  1.2909472258936765 11.343715655511925  1.3845678393623144 10.989508770905244  1.4775712010208657 10.635176669026299  1.5707963267948966 10.280000000000001 
 0 8 0.17210217546795301 6 0.50665194705198491 6 1 8
8 -5.999999999062311e-07 3.0000005999999999
1 0.41671843778823603 0 0 1 
8 -5.999999999062311e-07 3.0000005999999999
1 0.57508340170511119 5.6999999999999975 0 -1 
1 0 34.399999999999999 1 0 
1 0 -22 1 0 
2 2.1600000000000001 3.5399999999999974 0 1 1 -0 2.1600000000000001
1 6.2831853071795862 13 -1 0 
1 0 0 1 0 
1 0 0 1 0 
1 0 34.399999999999999 1 0 
1 0 0 1 0 
1 6.2831853071795862 -0 0 1 
1 0 -0 0 1 
1 0 24.600000000000001 1 0 
1 0 -14 1 0 
1 0 0 1 0 
1 0 -14 1 0 
1 0 0 1 0 
1 0 24.600000000000001 1 0 
1 0 0 1 0 
1 0 0 1 0 
1 6.2831853071795862 -0 0 1 
1 0 -0 0 1 
1 0 0 1 0 
1 12.277322404371587 -11.5 -1 0 
8 -12.4 0
1 16 0 0 1 
8 -12.4 0
1 4.6999999999999993 0 0 -1 
1 0 -12.4 1 0 
1 -12.277322404371578 -11.500000000000002 1 0 
1 0 0 0 -1 
1 0 0 0 1 
1 0 12.4 1 0 
1 3.7226775956284222 -16.200000000000003 0 1 
1 0 0 1 0 
1 -3.7226775956284133 -16.199999999999999 0 1 
1 0 0 0 1 
1 0 0 0 -1 
1 0 12.4 1 0 
1 -12.277322404371578 -11.500000000000002 0 1 
1 23 0 0 1 
1 0 0 0 -1 
1 0 0 1 0 
1 12.277322404371587 -11.5 0 1 
1 0 0 1 0 
1 12.277322404371587 11.5 -1 0 
8 -12.4 0
1 16 0 0 1 
8 -12.4 0
1 27.699999999999999 0 0 -1 
1 0 -12.4 1 0 
1 -12.277322404371578 11.499999999999998 1 0 
1 0 0 1 0 
1 -3.7226775956284133 -16.199999999999999 -1 0 
1 2.5 0 0 -1 
1 0 0 0 1 
1 0 -12.4 1 0 
1 3.7226775956284222 -16.200000000000003 1 0 
1 0 12.4 1 0 
1 3.7226775956284222 -16.200000000000003 0 1 
1 32.399999999999999 0 0 1 
1 0 0 0 -1 
1 0 0 1 0 
1 -3.7226775956284133 -16.199999999999999 0 1 
1 0 12.4 1 0 
1 6.2226775956284222 -16.200000000000003 0 1 
8 -12.4 0
1 4.6999999999999993 0 0 -1 
8 -12.4 0
1 18.5 0 0 1 
1 0 0 1 0 
1 -6.2226775956284133 -16.199999999999999 0 1 
1 0 0 1 0 
1 -3.7226775956284133 16.199999999999999 -1 0 
1 2.5 0 0 -1 
1 32.399999999999999 0 0 1 
1 0 -12.4 1 0 
1 3.7226775956284222 16.199999999999996 1 0 
1 0 12.4 1 0 
1 6.2226775956284222 -16.200000000000003 0 1 
1 0 0 1 0 
1 -6.2226775956284133 -16.199999999999999 0 1 
8 -12.4 0
1 27.699999999999999 0 0 -1 
8 -12.4 0
1 18.5 0 0 1 
1 0 0 1 0 
1 12.277322404371587 11.5 -1 0 
1 22.5 0 0 -1 
1 23 0 0 1 
1 0 -12.4 1 0 
1 -12.277322404371578 11.499999999999998 1 0 
1 0 0 0 1 
1 22.5 0 0 -1 
1 0 12.4 1 0 
1 10.222677595628422 -11.500000000000002 0 1 
1 0 0 1 0 
1 -10.222677595628413 -11.5 0 1 
2 6 6.2000000000000002 1 0 -0 1 5.9000000000000004
1 0 0 1 0 
1 0 0 1 0 
1 12.277322404371587 -11.5 -1 0 
1 0 -12.4 1 0 
1 -12.277322404371578 -11.500000000000002 1 0 
1 0 4 1 0 
2 0 0 1 0 -0 1 5.9000000000000004
1 6.2831853071795862 -0 0 1 
1 0 -0 0 1 
2 0 0 1 0 -0 1 9
1 0 0 1 0 
1 0 2 1 0 
2 0 0 1 0 -0 1 9
1 6.2831853071795862 -0 0 1 
1 0 -0 0 1 
Curves 127
1 6 -32.993076499563976 26.584965425912259 1 1.1102230246251565e-16 1.2325951644078309e-32 
8 4.7123889803846897 6.2831853071795862
2 9 -26.280000000000001 26.280000000000001 -1 -0 0 0 0 1 -0 1 0 6.7199999999999998
1 6 -26.280000000000001 33 1 0 -0 
8 4.7123889803846897 6.2831853071795862
2 6 -26.280000000000001 26.280000000000001 -1 -0 0 0 0 1 -0 1 0 6.7199999999999998
2 0 0 6 0 0 1 1 0 -0 -0 1 0 11
1 5.9999999999999991 -19.673044136905503 19.788665015767194 1 1.1102230246251565e-16 1.2325951644078309e-32 
7 0 0  8 16 3  7.2222920416214116 -19.214157307284719 18.1599994  7.0080265547569258 -19.317412546256953 18.675598971348602  6.8044639932529369 -19.448736147418014 19.185060342275175  6.6120099030742949 -19.609177448534489 19.694095691982479  6.4331001934866334 -19.801464107335903 20.205715610892465  6.2728859007771431 -20.02888137101905 20.719940464750227  6.1398886325446158 -20.294157995001779 21.233976068249255  6.0465359498626592 -20.598576255624298 21.742077455005955  6.0086685580340902 -20.964789011123244 22.274330532475311  6.0062475257851986 -20.99197997502008 22.313435410398466  6.0042027213150604 -21.019406381714365 22.352465650849748  6.0025445982917542 -21.047066627994198 22.391416748205703  6.0012839534111162 -21.074958712226803 22.430283843138479  6.0004319263967458 -21.103080234358504 22.46906172261582  6 -21.131428395914721 22.507744819901074  6 -21.16 22.546327214553205 
 0 9 0.9263971123243937 7 1 9
7 0 0  6 17 4  8.1600000000000001 -19.102918198970841 17.501202258751114  8.0693625727713787 -19.102918198970841 17.501202258751114  7.978988104548745 -19.104359340696153 17.511664395191602  7.8894224120283294 -19.107227538539121 17.532480520077119  7.8014617944276896 -19.111620268881424 17.563819075163892  7.7161109270706696 -19.117712195703998 17.605820770029698  7.6003424985534629 -19.129141602474068 17.68075606713699  7.566764802043596 -19.132869094612378 17.704830666132352  7.5339640058853128 -19.136960154000402 17.730807728865258  7.5020456340526964 -19.141435273543301 17.75868604467205  7.4711259620427066 -19.146315923227434 17.788454905623368  7.3971389095676381 -19.159495783313513 17.867011480803043  7.3554202774316222 -19.168307290609654 17.918038844579581  7.3165876384690538 -19.178127753129854 17.973092494478212  7.2811183202869936 -19.189021009056837 18.032000925257361  7.2495257568434246 -19.201033286538884 18.094465315887422  7.222291792282042 -19.214157427442196 18.16 
 0 7 0.48928618871855473 5 0.69495680107880076 5 1 7
1 5.9999999999999991 -19.102918198970851 17.501202258751075 1 1.1102230246251565e-16 1.2325951644078309e-32 
2 0 0 9 0 0 1 1 0 -0 -0 1 0 11
2 0 0 9 0 0 1 1 0 -0 -0 1 0 11
2 0 0 6 0 0 1 1 0 -0 -0 1 0 11
1 9 -33 33 -0 1 0 
8 1.5707963267948966 3.1415926535897931
2 9 -21.16 18.16 -1 -0 0 0 0 1 -0 1 0 2.1600000000000001
8 4.7123889803846897 6.2831853071795862
2 9 -25.719999999999999 26.280000000000001 1 0 -0 0 0 1 0 -1 0 6.7199999999999998
1 9 -19 16 0 0 1 
1 9 -23.5 16 0 0 1 
1 9 -21.25 29 -0 1 -1.1102230246251565e-16 
2 8.9999999999999964 -23.5 16 1 1.1102230246251565e-16 1.2325951644078309e-32 1.1102230246251565e-16 -1 -1.1102230246251565e-16 0 1.1102230246251565e-16 -1 1.1499999999999999
2 8.9999999999999964 -30 9.5 1 1.1102230246251565e-16 1.2325951644078309e-32 1.1102230246251565e-16 -1 -1.1102230246251565e-16 0 1.1102230246251565e-16 -1 1.1499999999999999
2 8.9999999999999964 -30 16 1 1.1102230246251565e-16 1.2325951644078309e-32 1.1102230246251565e-16 -1 -1.1102230246251565e-16 0 1.1102230246251565e-16 -1 3.2000000000000002
2 8.9999999999999964 -30 22.5 1 1.1102230246251565e-16 1.2325951644078309e-32 1.1102230246251565e-16 -1 -1.1102230246251565e-16 0 1.1102230246251565e-16 -1 1.1499999999999999
2 8.9999999999999964 -36.5 16 1 1.1102230246251565e-16 1.2325951644078309e-32 1.1102230246251565e-16 -1 -1.1102230246251565e-16 0 1.1102230246251565e-16 -1 1.1499999999999999
1 6 -33 33 -0 1 0 
8 1.5707963267948966 3.1415926535897931
2 6 -25.719999999999999 22.719999999999999 -1 -0 0 0 0 1 -0 1 0 6.7199999999999998
8 4.7123889803846897 6.2831853071795862
2 6 -25.719999999999999 26.280000000000001 1 0 -0 0 0 1 0 -1 0 6.7199999999999998
1 6 -19 16 0 0 1 
1 6 -23.500000000000004 33.5 0 -1.1102230246251565e-16 -1 
8 4.7123889803846897 6.2831853071795862
2 6 -25.719999999999999 26.280000000000001 1 0 -0 0 0 1 0 -1 0 6.7199999999999998
1 6 -26 29 -0 1 -1.1102230246251565e-16 
2 6 -23.5 16 1 1.1102230246251565e-16 1.2325951644078309e-32 1.1102230246251565e-16 -1 -1.1102230246251565e-16 0 1.1102230246251565e-16 -1 1.1499999999999999
2 6 -30 22.5 1 1.1102230246251565e-16 1.2325951644078309e-32 1.1102230246251565e-16 -1 -1.1102230246251565e-16 0 1.1102230246251565e-16 -1 1.1499999999999999
2 6 -30 16 1 1.1102230246251565e-16 1.2325951644078309e-32 1.1102230246251565e-16 -1 -1.1102230246251565e-16 0 1.1102230246251565e-16 -1 3.2000000000000002
2 6 -30 9.5 1 1.1102230246251565e-16 1.2325951644078309e-32 1.1102230246251565e-16 -1 -1.1102230246251565e-16 0 1.1102230246251565e-16 -1 1.1499999999999999
2 6 -36.5 16 1 1.1102230246251565e-16 1.2325951644078309e-32 1.1102230246251565e-16 -1 -1.1102230246251565e-16 0 1.1102230246251565e-16 -1 1.1499999999999999
1 6 -19 22.719999999999999 1 0 -0 
7 0 0  8 16 3  6.0329901775083377 -20.783929241998283 18.1599994  6.0489273456010748 -20.693790584964507 18.257571928641767  6.0688142543049715 -20.6067758094289 18.356185366804638  6.0922369273408821 -20.522901242154063 18.455664023903172  6.1188295578893763 -20.442149840209435 18.555855811938255  6.1482705581374919 -20.364478992093442 18.656634054609071  6.1802792521997505 -20.289827163516176 18.757898752055766  6.2146132124134859 -20.218119387842723 18.859577301232843  6.414283183013838 -19.841008436585547 19.418537623787262  6.6220204560198086 -19.586229900866421 19.888554976338913  6.8558097631832551 -19.383344229287502 20.362850838172225  7.1046061726009073 -19.227463481176294 20.836026999214418  7.3617201479301819 -19.113801675629517 21.306213868508138  7.6238335976500364 -19.038574981914561 21.774284944591979  7.889980962648842 -19.000000300411955 22.243732344130031  8.1600000000000001 -19 22.719999999999999 
 0 9 0.18256639436243402 7 1 9
1 8.1600000000000001 -19 16 0 0 1 
2 8.1600000000000001 -21.16 18.16 -0 -0 -1 -1 0 0 0 1 -0 2.1600000000000001
2 8.1600000000000001 -21.16 18.16 1 6.123233995736766e-17 -0 -6.123233995736766e-17 1 0 0 0 1 2.1600000000000001
1 6 -19 18.16 1 0 -0 
1 6 -23.500000000000004 32.622712353559791 1 0 -0 
1 6 -25.719999999999999 33 1 0 -0 
1 -11.699999999999999 11 -11 1 0 -0 
1 -11.699999999999999 -11 -11 -0 1 0 
1 -11.699999999999999 -11 -11 1 0 -0 
1 22.699999999999999 -11 -11 -0 1 0 
1 6 -19 26.280000000000001 1 0 -0 
1 -11.699999999999999 11 -11 1 0 -0 
1 8.1600000000000001 -19 16 0 0 1 
2 -19.5 -19.000000000000011 40 0 -1 1.1102230246251565e-16 -1 1.3596310734468911e-32 1.2246467991473532e-16 -1.2246467991473532e-16 -1.1102230246251565e-16 -1 1.1499999999999999
1 1.9176887608069144 -19.000000000000011 33 -1 0 1.2246467991473532e-16 
1 -17.800000000000004 -19.000000000000011 41.943619596541787 1.2246467991473532e-16 -0 1 
1 1.9176887608069162 -19.000000000000011 47 -1 0 1.2246467991473532e-16 
1 6.7999999999999998 -19.000000000000011 41.943619596541787 1.2246467991473532e-16 -0 1 
2 8.5 -19.000000000000011 40 0 -1 1.1102230246251565e-16 -1 1.3596310734468911e-32 1.2246467991473532e-16 -1.2246467991473532e-16 -1.1102230246251565e-16 -1 1.1499999999999999
1 -11.699999999999999 11 -6.5 1 0 -0 
1 -11.699999999999999 -11 -6.5 -0 1 0 
1 -11.699999999999999 -11 -6.5 1 0 -0 
1 22.699999999999999 -11 -6.5 -0 1 0 
1 -11.699999999999999 11 -6.5 1 0 -0 
2 -19.5 -23.5 40 0 -1 1.1102230246251565e-16 -1 1.3596310734468911e-32 1.2246467991473532e-16 -1.2246467991473532e-16 -1.1102230246251565e-16 -1 1.1499999999999999
1 1.0423119994883416 -23.5 47 1 0 -1.2246467991473532e-16 
1 -17.800000000000004 -23.5 43.267973289873751 -1.2246467991473532e-16 0 -1 
1 1.0423119994883399 -23.5 33 1 0 -1.2246467991473532e-16 
1 6.8000000000000007 -23.5 43.267973289873751 -1.2246467991473532e-16 0 -1 
2 8.5 -23.5 40 0 -1 1.1102230246251565e-16 -1 1.3596310734468911e-32 1.2246467991473532e-16 -1.2246467991473532e-16 -1.1102230246251565e-16 -1 1.1499999999999999
1 -11.699999999999999 11 -11 0 0 1 
1 -5.3499999999999996 -2.8166876380389116e-16 3 0 0 1 
1 1.1499999999999999 6.5 3 0 0 1 
1 3.2000000000000002 -7.8377395145430609e-16 3 0 0 1 
1 1.1499999999999999 -6.5 3 0 0 1 
1 7.6500000000000004 -2.8166876380389135e-16 3 0 0 1 
7 0 0  7 20 4  6 -21.16 31.216071312288758  6 -21.04148218622057 31.106583179593276  6.0075867805301479 -20.926987905337885 30.994658682136482  6.0218334067219894 -20.816778082130355 30.880717907830896  6.0419266952920694 -20.710990406102194 30.765147036513213  6.0671528019289243 -20.609673897048488 30.648289170241757  6.0968868325887389 -20.512814387398805 30.530439121735665  6.1960952898359478 -20.240611000179772 30.181301285853309  6.276800894293201 -20.076901236717795 29.947191963026906  6.3689395147123093 -19.928843002320558 29.711121749209596  6.4698255541525027 -19.79555279157891 29.474148743449977  6.5775798042837161 -19.676001720664154 29.236742202547735  6.6910072444562259 -19.56918158017427 28.998820701239762  6.9841771083487272 -19.334308229861254 28.407251614369812  7.1695171610472226 -19.220502965101989 28.052931759751583  7.3617432101221052 -19.131371854120061 27.69820047476615  7.5583850947915803 -19.065516513587152 27.3437156555119  7.7577461384011341 -19.021900911570494 26.989508770905267  7.9586337975418511 -19.000000038506585 26.63517666902629  8.1600000000000001 -19 26.280000000000001 
 0 8 0.17210217546795301 6 0.50665194705198491 6 1 8
1 6 -19.575083401705111 29 1 0 -0 
1 22.699999999999999 11 -11 0 0 1 
2 8.1600000000000001 -21.16 29 0 0 1 -1 -0 0 0 -1 0 2.1600000000000001
1 -11.699999999999999 -11 -11 0 0 1 
1 22.699999999999999 -11 -11 0 0 1 
1 20.649999999999999 -2.8166876380389037e-16 -19 0 0 1 
1 17.800000000000001 7 -23.5 0 0 1 
1 -6.7999999999999998 7 -23.5 0 0 1 
1 17.800000000000001 -7 -23.5 0 0 1 
1 -6.7999999999999998 -7 -23.5 0 0 1 
1 -7.3499999999999996 -2.8166876380389116e-16 -19 0 0 1 
1 -6 -6.2000000000000002 -22.5 0 0 1 
1 -6 -6.2000000000000002 -6.5 0 -1 0 
1 -6 6.2000000000000002 -22.5 0 0 1 
1 -6 -6.2000000000000002 -22.5 -0 1 0 
1 -10.699999999999999 6.2000000000000002 -6.5 1 0 -0 
1 -10.699999999999999 -6.2000000000000002 -6.5 1 0 -0 
1 -10.699999999999999 -6.2000000000000002 -6.5 -0 1 0 
1 -6 6.2000000000000002 -22.5 1 0 -0 
1 17 -6.2000000000000002 -22.5 -0 1 0 
1 -6 -6.2000000000000002 -22.5 1 0 -0 
1 17 -6.2000000000000002 -22.5 0 0 1 
1 17 -6.2000000000000002 -6.5 0 -1 0 
1 17 6.2000000000000002 -22.5 0 0 1 
1 -10.699999999999999 -6.2000000000000002 -6.5 0 0 1 
1 -10.699999999999999 -6.2000000000000002 -4 -0 1 0 
1 -10.699999999999999 6.2000000000000002 -6.5 0 0 1 
1 -10.699999999999999 6.2000000000000002 -6.5 1 0 -0 
1 21.699999999999999 -6.2000000000000002 -6.5 -0 1 0 
1 -10.699999999999999 -6.2000000000000002 -6.5 1 0 -0 
1 -10.699999999999999 6.2000000000000002 -4 1 0 -0 
1 -6 -6.2000000000000002 -4 0 -1 0 
1 -10.699999999999999 -6.2000000000000002 -4 1 0 -0 
1 21.699999999999999 -6.2000000000000002 -6.5 0 0 1 
1 21.699999999999999 -6.2000000000000002 -4 -0 1 0 
1 21.699999999999999 6.2000000000000002 -6.5 0 0 1 
1 -10.699999999999999 6.2000000000000002 -4 1 0 -0 
1 -10.699999999999999 -6.2000000000000002 -4 1 0 -0 
1 17 -6.2000000000000002 -4 0 -1 0 
1 17 -6.2000000000000002 -22.5 0 0 1 
1 17 -6.2000000000000002 0 -0 1 0 
1 17 6.2000000000000002 -22.5 0 0 1 
1 -6 -6.2000000000000002 0 -0 1 0 
1 -6 6.2000000000000002 0 1 0 -0 
1 -6 -6.2000000000000002 0 1 0 -0 
2 0 0 0 0 0 1 1 0 -0 -0 1 0 5.9000000000000004
1 -6 -6.2000000000000002 -22.5 0 0 1 
1 -6 6.2000000000000002 -22.5 0 0 1 
2 0 0 4 0 0 1 1 0 -0 -0 1 0 5.9000000000000004
1 5.9000000000000004 -1.4450832229938768e-15 0 0 0 1 
2 0 0 4 0 0 1 1 0 -0 -0 1 0 9
2 0 0 6 0 0 1 1 0 -0 -0 1 0 9
1 9 -2.2043642384652358e-15 4 0 0 1 
Polygon3D 0
PolygonOnTriangulations 0
Surfaces 48
2 6 -26.280000000000001 26.280000000000001 1 0 -0 0 -1 0 -0 0 1 6.7199999999999998
2 6 -30 16 1 1.1102230246251565e-16 1.2325951644078309e-32 1.1102230246251565e-16 -1 -1.1102230246251565e-16 0 1.1102230246251565e-16 -1 11
1 8.9999999999999964 -28.761818575430912 19.348944134943256 1 0 0 -0 0 1 0 -1 0 
1 6 -33 33 0 0 1 1 0 -0 -0 1 0 
1 6 -28.876181350742648 19.349692812244623 -1 -0 -0 0 0 -1 0 -1 0 
2 6 -25.719999999999999 22.719999999999999 1 0 -0 0 1 0 -0 0 -1 6.7199999999999998
2 8.1600000000000001 -21.16 16 0 0 1 -1 -0 0 -0 1 -0 2.1600000000000001
4 8.1600000000000001 -21.16 18.16 0 0 1 -1 0 0 -0 1 -0 2.1600000000000001
2 6 -21.16 18.16 1 0 -0 0 1 0 -0 0 -1 2.1600000000000001
2 6 -25.719999999999999 26.280000000000001 1 0 -0 0 1 0 0 -0 1 6.7199999999999998
1 -2.9646224783861697 -19.000000000000011 36.887239193083573 0 1 0 0 -0 1 1 0 -0 
1 -4.7153760010233183 -23.5 39.53594657974751 -0 -1 -0 0 0 -1 1 -0 0 
1 -11.699999999999999 11 -11 -0 1 0 0 0 1 1 0 -0 
2 -6.5 0 3 0 0 1 1 0 -0 -0 1 0 1.1499999999999999
2 0 6.5 3 0 0 1 1 0 -0 -0 1 0 1.1499999999999999
2 0 0 3 0 0 1 1 0 -0 -0 1 0 3.2000000000000002
2 0 -6.5 3 0 0 1 1 0 -0 -0 1 0 1.1499999999999999
2 6.5 0 3 0 0 1 1 0 -0 -0 1 0 1.1499999999999999
2 6 -25.719999999999999 26.280000000000001 1 0 -0 0 1 0 0 -0 1 6.7199999999999998
1 -11.699999999999999 11 -11 -0 1 0 0 0 1 1 0 -0 
1 -11.699999999999999 -11 -11 1 0 -0 0 0 1 0 -1 0 
1 -11.699999999999999 -11 -11 -0 1 0 0 0 1 1 0 -0 
1 22.699999999999999 -11 -11 1 0 -0 0 0 1 0 -1 0 
2 8.1600000000000001 -21.16 16 0 0 1 -1 -0 0 -0 1 -0 2.1600000000000001
2 19.5 0 -19 0 0 1 1 0 -0 -0 1 0 1.1499999999999999
1 -6.7999999999999998 7 -23.5 -0 1 0 0 0 1 1 0 -0 
1 17.800000000000001 -7 -23.5 1 0 -0 0 0 1 0 -1 0 
1 -6.7999999999999998 -7 -23.5 -0 1 0 0 0 1 1 0 -0 
1 -6.7999999999999998 -7 -23.5 1 0 -0 0 0 1 0 -1 0 
2 -8.5 0 -19 0 0 1 1 0 -0 -0 1 0 1.1499999999999999
1 -6 -6.2000000000000002 -22.5 1 0 -0 0 0 1 0 -1 0 
1 5.5 -6.1999999999999993 -10.222677595628413 -0 -1 -0 0 0 -1 1 -0 0 
1 -10.699999999999999 -6.2000000000000002 -6.5 0 0 1 1 0 -0 -0 1 0 
1 5.5000000000000018 6.2000000000000028 -10.222677595628422 0 1 0 0 -0 1 1 0 -0 
1 -6 -6.2000000000000002 -22.5 0 0 1 1 0 -0 -0 1 0 
1 -10.699999999999999 -6.2000000000000002 -6.5 1 0 -0 0 0 1 0 -1 0 
1 17 -6.2000000000000002 -22.5 1 0 -0 0 0 1 0 -1 0 
1 -10.699999999999999 -6.2000000000000002 -6.5 0 0 1 1 0 -0 -0 1 0 
1 -10.699999999999999 -6.2000000000000002 -4 0 0 1 1 0 -0 -0 1 0 
1 21.699999999999999 -6.2000000000000002 -6.5 1 0 -0 0 0 1 0 -1 0 
1 -6 -6.2000000000000002 -22.5 1 0 -0 0 0 1 0 -1 0 
1 -10.699999999999999 -6.2000000000000002 -4 0 0 1 1 0 -0 -0 1 0 
1 17 -6.2000000000000002 -22.5 1 0 -0 0 0 1 0 -1 0 
1 -6 -6.2000000000000002 0 0 0 1 1 0 -0 -0 1 0 
2 0 0 0 0 0 1 1 0 -0 -0 1 0 5.9000000000000004
1 0 0 4 0 0 1 1 0 -0 -0 1 0 
2 0 0 4 0 0 1 1 0 -0 -0 1 0 9
1 0 0 6 0 0 1 1 0 -0 -0 1 0 
Triangulations 0

TShapes 331
Ve
2.12132034355964e-07
6 -32.9930764995641 26.5849654259122
0 0

0101101
*
Ve
2.12132034355964e-07
9 -32.9930764995641 26.5849654259122
0 0

0101101
*
Ed
 1e-07 1 1 0
1  1 0 -1.02551917678732e-29 3
2  1 1 0 -1.02551917678732e-29 3
2  2 2 0 -1.02551917678732e-29 3
0

0101000
+331 0 -330 0 *
Ve
2.12132034355964e-07
9 -26.28 33
0 0

0101101
*
Ed
 2.12132034355964e-07 1 1 0
1  2 0 4.75778633196772 6.28318530717959
2  3 1 0 4.75778633196772 6.28318530717959
2  4 3 0 4.75778633196772 6.28318530717959
0

0101000
+330 0 -328 0 *
Ve
2.12132034355964e-07
6 -26.28 33
0 0

0101101
*
Ed
 1e-07 1 1 0
1  3 0 0 3
2  5 1 0 0 3
2  6 4 0 0 3
0

0101000
+326 0 -328 0 *
Ed
 2.12132034355964e-07 1 1 0
1  4 0 4.75778633196772 6.28318530717959
2  7 1 0 4.75778633196772 6.28318530717959
2  8 5 0 4.75778633196772 6.28318530717959
0

0101000
+331 0 -326 0 *
Wi

0101000
-329 0 -327 0 +325 0 +324 0 *
Fa
0  1e-07 1 0

0101000
+323 0 *
Ve
2.12132034355964e-07
6 -41 16
0 0

0101101
*
Ve
2.12132034355964e-07
6 -19.6730441369055 19.7886650157675
0 0

0101101
*
Ed
 2.12132034355964e-07 1 1 0
1  5 0 0 3.49321792801325
2  9 2 8 0 3.49321792801325
2  10 5 8 0 3.49321792801325
0

0101000
+321 8 -320 8 *
Ve
1.4916750238665e-07
6.59329576316507 -19.6730441264799 19.78866501383
0 0

0101101
*
Ed
 1e-07 1 1 0
1  6 0 8.88178419700124e-16 0.593295763165072
2  11 2 0 8.88178419700124e-16 0.593295763165072
2  12 6 0 8.88178419700124e-16 0.593295763165072
0

0101000
+320 0 -318 0 *
Ve
1.43827581589038e-07
7.22229179228204 -19.2141574274422 18.16
0 0

0101101
*
Ed
 1.43827541237968e-07 1 1 0
1  7 0 1.34755314285472e-07 0.368461188718495
2  13 2 0 1.34755314285472e-07 0.368461188718495
2  14 7 0 1.34755314285472e-07 0.368461188718495
0

0101000
+316 0 -318 0 *
Ve
1.28097382157684e-07
8.16 -19.1029181989708 17.5012022587511
0 0

0101101
*
Ed
 1.28097382157684e-07 1 1 0
1  8 0 0 1
2  15 2 0 0 1
2  16 8 0 0 1
0

0101000
+314 0 -316 0 *
Ve
2.12132034355964e-07
9 -19.1029181989708 17.5012022587511
0 0

0101101
*
Ed
 1e-07 1 1 0
1  9 0 2.16 3
2  17 2 0 2.16 3
2  18 9 0 2.16 3
0

0101000
+314 0 -312 0 *
Ve
2.12132034355964e-07
9 -41 16
0 0

0101101
*
Ed
 2.12132034355964e-07 1 1 0
1  10 0 0 3.27849280818149
2  19 2 8 0 3.27849280818149
2  20 3 8 0 3.27849280818149
0

0101000
+310 8 -312 8 *
Ed
 2.12132034355964e-07 1 1 0
1  11 0 4.98796146245383 6.28318530717959
2  21 2 8 4.98796146245383 6.28318530717959
2  22 3 8 4.98796146245383 6.28318530717959
0

0101000
+330 8 -310 8 *
Ed
 2.12132034355964e-07 1 1 0
1  12 0 4.98796146245383 6.28318530717959
2  23 2 8 4.98796146245383 6.28318530717959
2  24 5 8 4.98796146245383 6.28318530717959
0

0101000
+331 8 -321 8 *
Wi

0101100
+319 7 +317 0 -315 0 -313 0 +311 0 -309 7 -308 7 -329 0 +307 7 *
Fa
0  1e-07 2 0

0111000
+306 0 *
Ve
2.12132034355964e-07
9 -25.72 33
0 0

0101101
*
Ed
 2.12132034355964e-07 1 1 0
1  13 0 6.72 7.28
2  25 3 0 6.72 7.28
2  26 4 0 6.72 7.28
0

0101000
+328 0 -304 0 *
Ve
2.12132034355964e-07
9 -19 18.16
0 0

0101101
*
Ed
 2.12132034355964e-07 1 1 0
1  14 0 1.5707963267949 1.88073365803634
2  27 3 0 1.5707963267949 1.88073365803634
2  28 9 0 1.5707963267949 1.88073365803634
0

0101000
+302 0 -312 0 *
Ve
2.12132034355964e-07
9 -23.5 32.6227123535598
0 0

0101101
*
Ed
 2.12132034355964e-07 1 1 0
1  15 0 5.94650337005389 6.28318530717959
2  29 3 0 5.94650337005389 6.28318530717959
2  30 10 0 5.94650337005389 6.28318530717959
0

0101000
+300 0 -304 0 *
Ve
2.12133034355964e-07
9 -19 29
0 0

0101101
*
Ed
 1e-07 1 1 0
1  16 0 2.16 13
2  31 3 0 2.16 13
2  32 11 0 2.16 13
0

0101000
+302 0 -298 0 *
Ve
2.12133034355964e-07
9 -23.5 29
0 0

0101101
*
Ed
 2.12132034355964e-07 1 1 0
1  17 0 13 16.6227123535598
2  33 3 0 13 16.6227123535598
2  34 12 0 13 16.6227123535598
0

0101000
+296 0 -300 0 *
Ed
 1e-07 1 1 0
1  18 0 -2.25 2.25
2  35 3 0 -2.25 2.25
2  36 13 14 -2.25 2.25
0

0101000
+296 0 -298 0 *
Wi

0101100
+308 7 -327 0 +309 7 -303 0 -301 0 +299 0 +297 0 +295 0 -294 0 *
Ve
2.12132034355964e-07
9 -24.65 16
0 0

0101101
*
Ed
 2.12132034355964e-07 1 1 0
1  19 0 0 6.28318530717959
2  37 3 0 0 6.28318530717959
2  38 14 20 0 6.28318530717959
0

0101100
+292 0 -292 0 *
Wi

0101100
-291 0 *
Ve
2.12132034355964e-07
9 -31.15 9.5
0 0

0101101
*
Ed
 2.12132034355964e-07 1 1 0
1  20 0 0 6.28318530717959
2  39 3 0 0 6.28318530717959
2  40 15 26 0 6.28318530717959
0

0101100
+289 0 -289 0 *
Wi

0101100
-288 0 *
Ve
2.12132034355964e-07
9 -33.2 16
0 0

0101101
*
Ed
 2.12132034355964e-07 1 1 0
1  21 0 0 6.28318530717959
2  41 3 0 0 6.28318530717959
2  42 16 32 0 6.28318530717959
0

0101100
+286 0 -286 0 *
Wi

0101100
-285 0 *
Ve
2.12132034355964e-07
9 -31.15 22.5
0 0

0101101
*
Ed
 2.12132034355964e-07 1 1 0
1  22 0 0 6.28318530717959
2  43 3 0 0 6.28318530717959
2  44 17 38 0 6.28318530717959
0

0101100
+283 0 -283 0 *
Wi

0101100
-282 0 *
Ve
2.12132034355964e-07
9 -37.65 16
0 0

0101101
*
Ed
 2.12132034355964e-07 1 1 0
1  23 0 0 6.28318530717959
2  45 3 0 0 6.28318530717959
2  46 18 44 0 6.28318530717959
0

0101100
+280 0 -280 0 *
Wi

0101100
-279 0 *
Fa
0  2.12132034355964e-07 3 0

0101000
+293 0 +290 0 +287 0 +284 0 +281 0 +278 0 *
Ve
2.12132034355964e-07
6 -25.72 33
0 0

0101101
*
Ed
 2.12132034355964e-07 1 1 0
1  24 0 6.72 7.28
2  47 5 0 6.72 7.28
2  48 4 0 6.72 7.28
0

0101000
+326 0 -276 0 *
Ve
2.12132034355964e-07
6 -19 22.72
0 0

0101101
*
Ed
 2.12132034355964e-07 1 1 0
1  25 0 1.5707963267949 2.02217946798579
2  49 5 0 1.5707963267949 2.02217946798579
2  50 6 0 1.5707963267949 2.02217946798579
0

0101000
+274 0 -320 0 *
Ve
2.12132034355964e-07
6 -23.5 32.6227123535598
0 0

0101101
*
Ed
 2.12132034355964e-07 1 1 0
1  26 0 5.94650337005389 6.28318530717959
2  51 5 0 5.94650337005389 6.28318530717959
2  52 10 0 5.94650337005389 6.28318530717959
0

0101000
+272 0 -276 0 *
Ve
2.12132034355964e-07
6 -19 26.28
0 0

0101101
*
Ed
 2.12132034355964e-07 1 1 0
1  27 0 6.72 10.28
2  53 5 0 6.72 10.28
2  54 11 0 6.72 10.28
0

0101000
+274 0 -270 0 *
Ve
2.12132034355964e-07
6 -23.5 29
0 0

0101101
*
Ed
 2.12132034355964e-07 1 1 0
1  28 0 0.877287646440209 4.5
2  55 5 0 0.877287646440209 4.5
2  56 12 0 0.877287646440209 4.5
0

0101000
+272 0 -268 0 *
Ve
2.12132034355964e-07
6 -19.5750834017051 29
0 0

0101101
*
Ed
 2.12132034355964e-07 1 1 0
1  29 0 4.71238898038469 5.12910741817293
2  57 5 0 4.71238898038469 5.12910741817293
2  58 19 0 4.71238898038469 5.12910741817293
0

0101000
+270 0 -266 0 *
Ed
 1e-07 1 1 0
1  30 0 2.5 6.42491659829489
2  59 5 0 2.5 6.42491659829489
2  60 20 14 2.5 6.42491659829489
0

0101000
+268 0 -266 0 *
Wi

0101100
-307 7 +324 0 -319 7 +275 0 +273 0 -271 0 -269 0 +267 0 -265 0 +264 0 
*
Ve
2.12132034355964e-07
6 -24.65 16
0 0

0101101
*
Ed
 2.12132034355964e-07 1 1 0
1  31 0 0 6.28318530717959
2  61 5 0 0 6.28318530717959
2  62 14 20 0 6.28318530717959
0

0101100
+262 0 -262 0 *
Wi

0101100
+261 0 *
Ve
2.12132034355964e-07
6 -31.15 22.5
0 0

0101101
*
Ed
 2.12132034355964e-07 1 1 0
1  32 0 0 6.28318530717959
2  63 5 0 0 6.28318530717959
2  64 17 38 0 6.28318530717959
0

0101100
+259 0 -259 0 *
Wi

0101100
+258 0 *
Ve
2.12132034355964e-07
6 -33.2 16
0 0

0101101
*
Ed
 2.12132034355964e-07 1 1 0
1  33 0 0 6.28318530717959
2  65 5 0 0 6.28318530717959
2  66 16 32 0 6.28318530717959
0

0101100
+256 0 -256 0 *
Wi

0101100
+255 0 *
Ve
2.12132034355964e-07
6 -31.15 9.5
0 0

0101101
*
Ed
 2.12132034355964e-07 1 1 0
1  34 0 0 6.28318530717959
2  67 5 0 0 6.28318530717959
2  68 15 26 0 6.28318530717959
0

0101100
+253 0 -253 0 *
Wi

0101100
+252 0 *
Ve
2.12132034355964e-07
6 -37.65 16
0 0

0101101
*
Ed
 2.12132034355964e-07 1 1 0
1  35 0 0 6.28318530717959
2  69 5 0 0 6.28318530717959
2  70 18 44 0 6.28318530717959
0

0101100
+250 0 -250 0 *
Wi

0101100
+249 0 *
Fa
0  2.12132034355964e-07 5 0

0101000
+263 0 +260 0 +257 0 +254 0 +251 0 +248 0 *
Ve
2.12132034355964e-07
8.16 -19 22.72
0 0

0101101
*
Ed
 2.12132034355964e-07 1 1 0
1  36 0 0 2.16
2  71 6 0 0 2.16
2  72 11 0 0 2.16
0

0101000
+274 0 -246 0 *
Ed
 1.23204667631176e-07 1 1 0
1  37 0 0.364538106948535 1
2  73 6 0 0.364538106948535 1
2  74 7 0 0.364538106948535 1
0

0101000
+318 0 -246 0 *
Wi

0101100
-245 0 +244 0 +317 0 +273 0 *
Fa
0  1e-07 6 0

0101000
+243 0 *
Ve
2.12132034355964e-07
8.16 -19 18.16
0 0

0101101
*
Ed
 2.12132034355964e-07 1 1 0
1  38 0 2.16 6.72
2  75 7 0 2.16 6.72
2  76 11 0 2.16 6.72
0

0101000
+241 0 -246 0 *
Ed
 1e-07 1 1 0
1  39 0 1.12173050071643 1.5707963267949
2  77 7 0 1.12173050071643 1.5707963267949
2  78 8 0 1.12173050071643 1.5707963267949
4 G1 7 0 8 0
0

0101000
+316 0 -241 0 *
Wi

0101100
-244 0 +240 0 +239 0 -315 0 *
Fa
0  1e-07 7 0

0101000
+238 0 *
Ed
 1e-07 1 1 0
1  40 0 5.97324797593814 6.28318530717959
2  79 8 0 5.97324797593814 6.28318530717959
2  80 9 0 5.97324797593814 6.28318530717959
4 G1 8 0 9 0
0

0101000
+314 0 -241 0 *
Wi

0101100
-313 0 -239 0 +236 0 *
Fa
0  1e-07 8 0

0101000
+235 0 *
Ed
 2.12132034355964e-07 1 1 0
1  41 0 2.16 3
2  81 9 0 2.16 3
2  82 11 0 2.16 3
0

0101000
+241 0 -302 0 *
Wi

0101100
-236 0 -233 0 -301 0 +311 0 *
Fa
0  1e-07 9 0

0101000
+232 0 *
Ed
 1e-07 1 1 0
1  42 0 0 3
2  83 10 0 0 3
2  84 12 0 0 3
0

0101000
+272 0 -300 0 *
Ed
 1e-07 1 1 0
1  43 0 0 3
2  85 10 0 0 3
2  86 4 0 0 3
0

0101000
+276 0 -304 0 *
Wi

0101000
-230 0 -299 0 +229 0 +271 0 *
Fa
0  1e-07 10 0

0101000
+228 0 *
Ve
2.12132034355964e-07
11.7 -19 29
0 0

0101101
*
Ed
 2.12132034355964e-07 1 1 0
1  44 0 0 2.7
2  87 11 45 0 2.7
2  88 13 0 0 2.7
0

0101000
+226 45 -298 45 *
Ve
2.12132034355964e-07
11.7 -19 51
0 0

0101101
*
Ed
 2.12132034355964e-07 1 1 0
1  45 0 0 22
2  89 11 45 0 22
2  90 21 0 0 22
0

0101000
-226 45 +224 45 *
Ve
2.12132034355964e-07
-22.7 -19 51
0 0

0101101
*
Ed
 2.12132034355964e-07 1 1 0
1  46 0 0 34.4
2  91 11 45 0 34.4
2  92 22 0 0 34.4
0

0101000
-222 45 +224 45 *
Ve
2.12132034355964e-07
-22.7 -19 29
0 0

0101101
*
Ed
 2.12132034355964e-07 1 1 0
1  47 0 0 22
2  93 11 45 0 22
2  94 23 0 0 22
0

0101000
-220 45 +222 45 *
Ve
2.12132034355964e-07
8.16 -19 26.28
0 0

0101101
*
Ed
 2.12132034355964e-07 1 1 0
1  48 0 0 2.16
2  95 11 0 0 2.16
2  96 19 0 0 2.16
0

0101000
+270 0 -218 0 *
Ve
2.12132034355964e-07
8.16 -19 29
0 0

0101101
*
Ed
 2.12132034355964e-07 1 1 0
1  49 0 3.54 34.4
2  97 11 45 3.54 34.4
2  98 20 0 3.54 34.4
0

0101000
+216 45 -220 45 *
Ed
 2.12132034355964e-07 1 1 0
1  50 0 10.28 13
2  99 11 0 10.28 13
2  100 24 0 10.28 13
0

0101000
+218 0 -216 0 *
Wi

0101100
-297 0 -233 0 +225 14 +240 0 +223 14 -245 0 -221 14 +269 0 -219 14 +217 0 
+215 14 +214 0 *
Ve
2.12132034355964e-07
-20.65 -19 40
0 0

0101101
*
Ed
 2.12132034355964e-07 1 1 0
1  51 0 0 6.28318530717959
2  101 11 0 0 6.28318530717959
2  102 25 51 0 6.28318530717959
0

0101100
+212 0 -212 0 *
Wi

0101100
+211 0 *
Ve
2.62132034355964e-07
6.8 -19 33
0 0

0101101
*
Ve
2.62132037908678e-07
-17.8 -19 33
0 0

0101101
*
Ed
 2.62132034355964e-07 1 1 0
1  52 0 -4.88231123919308 19.7176887608069
2  103 11 0 -4.88231123919308 19.7176887608069
2  104 26 57 -4.88231123919308 19.7176887608069
0

0101000
+209 0 -208 0 *
Ve
2.62132037908678e-07
-17.8 -19 47
0 0

0101101
*
Ed
 2.62132034355964e-07 1 1 0
1  53 0 -8.94361959654178 5.05638040345822
2  105 11 0 -8.94361959654178 5.05638040345822
2  106 27 57 -8.94361959654178 5.05638040345822
0

0101000
+208 0 -206 0 *
Ve
2.62132034355964e-07
6.8 -19 47
0 0

0101101
*
Ed
 2.62132034355964e-07 1 1 0
1  54 0 -4.88231123919308 19.7176887608069
2  107 11 0 -4.88231123919308 19.7176887608069
2  108 28 57 -4.88231123919308 19.7176887608069
0

0101000
+204 0 -206 0 *
Ed
 2.62132034355964e-07 1 1 0
1  55 0 -8.94361959654178 5.05638040345822
2  109 11 0 -8.94361959654178 5.05638040345822
2  110 29 57 -8.94361959654178 5.05638040345822
0

0101000
+209 0 -204 0 *
Wi

0101100
-207 0 -205 0 +203 0 +202 0 *
Ve
2.12132034355964e-07
7.35 -19 40
0 0

0101101
*
Ed
 2.12132034355964e-07 1 1 0
1  56 0 0 6.28318530717959
2  111 11 0 0 6.28318530717959
2  112 30 63 0 6.28318530717959
0

0101100
+200 0 -200 0 *
Wi

0101100
+199 0 *
Fa
0  2.12132034355964e-07 11 0

0101000
+213 0 +210 0 +201 0 +198 0 *
Ve
2.12132034355964e-07
11.7 -23.5 29
0 0

0101101
*
Ed
 2.12132034355964e-07 1 1 0
1  57 0 0 2.7
2  113 12 45 0 2.7
2  114 13 0 0 2.7
0

0101000
+196 45 -296 45 *
Ve
2.12132034355964e-07
11.7 -23.5 51
0 0

0101101
*
Ed
 2.12132034355964e-07 1 1 0
1  58 0 0 22
2  115 12 45 0 22
2  116 21 0 0 22
0

0101000
-196 45 +194 45 *
Ve
2.12132034355964e-07
-22.7 -23.5 51
0 0

0101101
*
Ed
 2.12132034355964e-07 1 1 0
1  59 0 0 34.4
2  117 12 45 0 34.4
2  118 22 0 0 34.4
0

0101000
-192 45 +194 45 *
Ve
2.12132034355964e-07
-22.7 -23.5 29
0 0

0101101
*
Ed
 2.12132034355964e-07 1 1 0
1  60 0 0 22
2  119 12 45 0 22
2  120 23 0 0 22
0

0101000
-190 45 +192 45 *
Ed
 2.12132034355964e-07 1 1 0
1  61 0 5.7 34.4
2  121 12 45 5.7 34.4
2  122 20 0 5.7 34.4
0

0101000
+268 45 -190 45 *
Wi

0101100
-195 14 -193 14 -295 0 +191 14 +230 0 +189 14 -267 0 -188 14 *
Ve
2.12132034355964e-07
-20.65 -23.5 40
0 0

0101101
*
Ed
 2.12132034355964e-07 1 1 0
1  62 0 0 6.28318530717959
2  123 12 0 0 6.28318530717959
2  124 25 51 0 6.28318530717959
0

0101100
+186 0 -186 0 *
Wi

0101100
-185 0 *
Ve
2.62132037908678e-07
-17.8 -23.5 47
0 0

0101101
*
Ve
2.62132035244143e-07
6.8 -23.5 47
0 0

0101101
*
Ed
 2.62132034355964e-07 1 1 0
1  63 0 -18.8423119994883 5.75768800051166
2  125 12 0 -18.8423119994883 5.75768800051166
2  126 28 57 -18.8423119994883 5.75768800051166
0

0101000
+183 0 -182 0 *
Ve
2.62132037908678e-07
-17.8 -23.5 33
0 0

0101101
*
Ed
 2.62132034355964e-07 1 1 0
1  64 0 -3.73202671012625 10.2679732898737
2  127 12 0 -3.73202671012625 10.2679732898737
2  128 27 57 -3.73202671012625 10.2679732898737
0

0101000
+183 0 -180 0 *
Ve
2.62132035244143e-07
6.8 -23.5 33
0 0

0101101
*
Ed
 2.62132034355964e-07 1 1 0
1  65 0 -18.8423119994883 5.75768800051166
2  129 12 0 -18.8423119994883 5.75768800051166
2  130 26 57 -18.8423119994883 5.75768800051166
0

0101000
+180 0 -178 0 *
Ed
 2.62132034355964e-07 1 1 0
1  66 0 -3.73202671012625 10.2679732898737
2  131 12 0 -3.73202671012625 10.2679732898737
2  132 29 57 -3.73202671012625 10.2679732898737
0

0101000
+182 0 -178 0 *
Wi

0101100
+181 0 -179 0 -177 0 +176 0 *
Ve
2.12132034355964e-07
7.35 -23.5 40
0 0

0101101
*
Ed
 2.12132034355964e-07 1 1 0
1  67 0 0 6.28318530717959
2  133 12 0 0 6.28318530717959
2  134 30 63 0 6.28318530717959
0

0101100
+174 0 -174 0 *
Wi

0101100
-173 0 *
Fa
0  2.12132034355964e-07 12 0

0101000
+187 0 +184 0 +175 0 +172 0 *
Ed
 1e-07 1 1 0
1  68 0 0 4.5
2  135 13 0 0 4.5
2  136 21 0 0 4.5
0

0101000
-196 45 +226 45 *
Wi

0101000
-225 14 +294 0 +195 14 +170 14 *
Fa
0  1e-07 13 14

0101000
+169 0 *
Ed
 1e-07 1 1 0
1  69 0 3 6
3  137 138CN 14 0 3 6
0

0101000
+262 64 -292 64 *
Wi

0101100
-291 0 +167 20 +261 0 -167 20 *
Fa
0  1e-07 14 20

0101000
+166 0 *
Ed
 1e-07 1 1 0
1  70 0 3 6
3  139 140CN 15 0 3 6
0

0101000
+253 65 -289 65 *
Wi

0101100
-288 0 +164 26 +252 0 -164 26 *
Fa
0  1e-07 15 26

0101000
+163 0 *
Ed
 1e-07 1 1 0
1  71 0 3 6
3  141 142CN 16 0 3 6
0

0101000
+256 66 -286 66 *
Wi

0101100
-285 0 +161 32 +255 0 -161 32 *
Fa
0  1e-07 16 32

0101000
+160 0 *
Ed
 1e-07 1 1 0
1  72 0 3 6
3  143 144CN 17 0 3 6
0

0101000
+259 67 -283 67 *
Wi

0101100
-282 0 +158 38 +258 0 -158 38 *
Fa
0  1e-07 17 38

0101000
+157 0 *
Ed
 1e-07 1 1 0
1  73 0 3 6
3  145 146CN 18 0 3 6
0

0101000
+250 68 -280 68 *
Wi

0101100
-279 0 +155 44 +249 0 -155 44 *
Fa
0  1e-07 18 44

0101000
+154 0 *
Ve
1.01569718137322e-07
6.69247167519641 -19.5750834027606 28.9999999998883
0 0

0101101
*
Ed
 1e-07 1 1 0
1  74 0 0.458536491172667 1
2  147 19 0 0.458536491172667 1
2  148 24 0 0.458536491172667 1
0

0101000
+152 0 -218 0 *
Ed
 1e-07 1 1 0
1  75 0 0 0.692471675196415
2  149 19 0 0 0.692471675196415
2  150 20 14 0 0.692471675196415
0

0101000
+266 0 -152 0 *
Wi

0101100
+265 0 -217 0 +151 0 +150 0 *
Fa
0  1e-07 19 0

0101000
+149 0 *
Ed
 1e-07 1 1 0
1  76 0 0 4.5
2  151 20 0 0 4.5
2  152 23 0 0 4.5
0

0101000
-190 45 +220 45 *
Ed
 1e-07 1 1 0
1  77 0 4.71238898038469 5.45934895530227
2  153 20 14 4.71238898038469 5.45934895530227
2  154 24 0 4.71238898038469 5.45934895530227
0

0101000
+216 0 -152 0 *
Wi

0101000
-215 14 -147 14 +188 14 -264 0 -150 0 +146 0 *
Fa
0  1e-07 20 14

0101000
+145 0 *
Ed
 1e-07 1 1 0
1  78 0 0 4.5
2  155 21 0 0 4.5
2  156 22 0 0 4.5
0

0101000
-194 45 +224 45 *
Wi

0101100
-143 0 -193 0 +170 0 +223 0 *
Fa
0  1e-07 21 0

0111000
+142 0 *
Ed
 1e-07 1 1 0
1  79 0 0 4.5
2  157 22 0 0 4.5
2  158 23 0 0 4.5
0

0101000
-192 45 +222 45 *
Wi

0101100
-221 0 -140 0 +191 0 +143 0 *
Fa
0  1e-07 22 0

0111000
+139 0 *
Wi

0101100
-140 0 -189 0 +147 0 +219 0 *
Fa
0  1e-07 23 0

0111000
+137 0 *
Wi

0101100
+146 0 +214 0 +151 0 *
Fa
0  1e-07 24 0

0101000
+135 0 *
Ed
 1e-07 1 1 0
1  80 0 8.00000000000001 12.5
3  159 160CN 25 0 8.00000000000001 12.5
0

0101000
+212 69 -186 69 *
Wi

0101100
-185 0 +133 51 +211 0 -133 51 *
Fa
0  1e-07 25 51

0101000
+132 0 *
Ed
 1e-07 1 1 0
1  81 0 12.5 17
2  161 26 0 12.5 17
2  162 27 0 12.5 17
0

0101000
+208 70 -180 70 *
Ed
 1e-07 1 1 0
1  82 0 12.5 17
2  163 26 0 12.5 17
2  164 29 0 12.5 17
0

0101000
+209 70 -178 70 *
Wi

0101100
-130 57 -177 0 +129 57 -207 0 *
Fa
0  1e-07 26 57

0101000
+128 0 *
Ed
 1e-07 1 1 0
1  83 0 12.5 17
2  165 27 0 12.5 17
2  166 28 0 12.5 17
0

0101000
+206 70 -183 70 *
Wi

0101100
-126 57 -179 0 +130 57 -205 0 *
Fa
0  1e-07 27 57

0101000
+125 0 *
Ed
 1e-07 1 1 0
1  84 0 12.5 17
2  167 28 0 12.5 17
2  168 29 0 12.5 17
0

0101000
+204 70 -182 70 *
Wi

0101100
-126 57 -181 0 +123 57 -203 0 *
Fa
0  1e-07 28 57

0101000
+122 0 *
Wi

0101100
-123 57 -176 0 +129 57 -202 0 *
Fa
0  1e-07 29 57

0101000
+120 0 *
Ed
 1e-07 1 1 0
1  85 0 8.00000000000001 12.5
3  169 170CN 30 0 8.00000000000001 12.5
0

0101000
+200 71 -174 71 *
Wi

0101100
-173 0 +118 63 +199 0 -118 63 *
Fa
0  1e-07 30 63

0101000
+117 0 *
Wi

0101000
-275 0 +325 0 +303 0 -229 0 *
Fa
0  2.12132034355964e-07 4 0

0111000
+115 0 *
Sh

0101000
-322 0 +305 0 +277 0 +247 0 -242 0 -237 0 -234 0 -231 0 +227 0 +197 0 
+171 0 +168 0 -165 0 -162 0 -159 0 -156 0 -153 0 +148 0 +144 0 -141 14 
-138 14 +136 14 -134 0 -131 0 -127 0 -124 0 +121 0 +119 0 -116 0 +114 0 
*
So

0100000
+113 0 *
Ve
1e-07
6 -7.5 46.2
0 0

0101101
*
Ve
1.5e-07
6 -23.5 46.2
0 0

0101101
*
Ed
 1e-07 1 1 0
1  86 0 0 16
2  171 31 0 0 16
2  172 32 0 0 16
0

0101000
+111 78 -110 78 *
Ve
1.5e-07
6 -23.5 33.8
0 0

0101101
*
Ed
 1.5e-07 1 1 0
1  87 0 -12.4 0
2  173 31 0 -12.4 0
2  174 33 0 -12.4 0
0

0101000
+108 78 -110 78 *
Ve
1e-07
6 -7.5 33.8
0 0

0101101
*
Ed
 1e-07 1 1 0
1  88 0 0 16
2  175 31 0 0 16
2  176 34 0 0 16
0

0101000
+106 78 -108 78 *
Ed
 1e-07 1 1 0
1  89 0 0 12.4
2  177 31 0 0 12.4
2  178 35 0 0 12.4
0

0101000
-106 78 +111 78 *
Wi

0101100
-109 0 +107 0 +105 0 +104 0 *
Fa
0  1e-07 31 0

0101000
+103 0 *
Ve
1e-07
10.7 -23.5 33.8
0 0

0101101
*
Ed
 1e-07 1 1 0
1  90 0 0 4.7
2  179 33 0 0 4.7
2  180 34 0 0 4.7
0

0101000
+101 78 -108 78 *
Ve
1e-07
10.7 -23.5 46.2
0 0

0101101
*
Ed
 1e-07 1 1 0
1  91 0 0 4.7
2  181 33 0 0 4.7
2  182 32 0 0 4.7
0

0101000
+99 78 -110 78 *
Ed
 1e-07 1 1 0
1  92 0 0 12.4
2  183 33 0 0 12.4
2  184 36 0 0 12.4
0

0101000
-101 78 +99 78 *
Wi

0101100
-100 0 -107 0 +98 0 -97 0 *
Fa
0  1e-07 33 0

0101000
+96 0 *
Ve
1e-07
-17 -7.5 33.8
0 0

0101101
*
Ed
 1e-07 1 1 0
1  93 0 0 23
2  185 35 0 0 23
2  186 34 0 0 23
0

0101000
-94 78 +106 78 *
Ve
1e-07
-17 -7.5 46.2
0 0

0101101
*
Ed
 1e-07 1 1 0
1  94 0 0 12.4
2  187 35 0 0 12.4
2  188 37 0 0 12.4
0

0101000
-94 78 +92 78 *
Ed
 1e-07 1 1 0
1  95 0 0 23
2  189 35 0 0 23
2  190 32 0 0 23
0

0101000
-92 78 +111 78 *
Wi

0101100
-104 0 -93 0 +91 0 +90 0 *
Fa
0  1e-07 35 0

0111000
+89 0 *
Ve
1.5e-07
-17 -23.5 46.2
0 0

0101101
*
Ed
 1e-07 1 1 0
1  96 0 0 16
2  191 37 0 0 16
2  192 32 0 0 16
0

0101000
+92 78 -87 78 *
Ve
1.5e-07
-17 -23.5 33.8
0 0

0101101
*
Ed
 1.5e-07 1 1 0
1  97 0 -12.4 0
2  193 37 0 -12.4 0
2  194 38 0 -12.4 0
0

0101000
+85 78 -87 78 *
Ed
 1e-07 1 1 0
1  98 0 0 16
2  195 37 0 0 16
2  196 34 0 0 16
0

0101000
+94 78 -85 78 *
Wi

0101100
-86 0 +84 0 +83 0 +91 0 *
Fa
0  1e-07 37 0

0101000
+82 0 *
Ve
1e-07
10.7 -26 46.2
0 0

0101101
*
Ed
 1e-07 1 1 0
1  99 0 0 2.5
2  197 36 0 0 2.5
2  198 32 0 0 2.5
0

0101000
-80 78 +99 78 *
Ve
1e-07
10.7 -26 33.8
0 0

0101101
*
Ed
 1e-07 1 1 0
1  100 0 0 12.4
2  199 36 0 0 12.4
2  200 39 0 0 12.4
0

0101000
-78 78 +80 78 *
Ed
 1e-07 1 1 0
1  101 0 0 2.5
2  201 36 0 0 2.5
2  202 34 0 0 2.5
0

0101000
-78 78 +101 78 *
Wi

0101100
-79 0 -77 0 +76 0 +97 0 *
Fa
0  1e-07 36 0

0111000
+75 0 *
Ve
1e-07
-21.7 -23.5 33.8
0 0

0101101
*
Ed
 1e-07 1 1 0
1  102 0 27.7 32.4
2  203 38 0 27.7 32.4
2  204 34 0 27.7 32.4
0

0101000
+85 78 -73 78 *
Ve
1e-07
-21.7 -23.5 46.2
0 0

0101101
*
Ed
 1e-07 1 1 0
1  103 0 0 12.4
2  205 38 0 0 12.4
2  206 40 0 0 12.4
0

0101000
-73 78 +71 78 *
Ed
 1e-07 1 1 0
1  104 0 27.7 32.4
2  207 38 0 27.7 32.4
2  208 32 0 27.7 32.4
0

0101000
+87 78 -71 78 *
Wi

0101100
-72 0 +70 0 +69 0 +84 0 *
Fa
0  1e-07 38 0

0101000
+68 0 *
Ve
1.5e-07
6 -26 33.8
0 0

0101101
*
Ed
 1e-07 1 1 0
1  105 0 0 4.7
2  209 39 0 0 4.7
2  210 34 0 0 4.7
0

0101000
+78 78 -66 78 *
Ve
1.5e-07
6 -26 46.2
0 0

0101101
*
Ed
 1.5e-07 1 1 0
1  106 0 -12.4 0
2  211 39 0 -12.4 0
2  212 41 0 -12.4 0
0

0101000
+66 78 -64 78 *
Ed
 1e-07 1 1 0
1  107 0 0 4.7
2  213 39 0 0 4.7
2  214 32 0 0 4.7
0

0101000
+80 78 -64 78 *
Wi

0101100
-65 0 -63 0 +62 0 -77 0 *
Fa
0  1e-07 39 0

0101000
+61 0 *
Ve
1e-07
-21.7 -26 46.2
0 0

0101101
*
Ed
 1e-07 1 1 0
1  108 0 0 2.5
2  215 40 0 0 2.5
2  216 32 0 0 2.5
0

0101000
-59 78 +71 78 *
Ve
1e-07
-21.7 -26 33.8
0 0

0101101
*
Ed
 1e-07 1 1 0
1  109 0 0 12.4
2  217 40 0 0 12.4
2  218 42 0 0 12.4
0

0101000
-57 78 +59 78 *
Ed
 1e-07 1 1 0
1  110 0 0 2.5
2  219 40 0 0 2.5
2  220 34 0 0 2.5
0

0101000
-57 78 +73 78 *
Wi

0101100
-58 0 -56 0 +55 0 +70 0 *
Fa
0  1e-07 40 0

0111000
+54 0 *
Ve
1.5e-07
-17 -26 33.8
0 0

0101101
*
Ed
 1e-07 1 1 0
1  111 0 27.7 32.4
2  221 42 0 27.7 32.4
2  222 34 0 27.7 32.4
0

0101000
+52 78 -57 78 *
Ve
1.5e-07
-17 -26 46.2
0 0

0101101
*
Ed
 1e-07 1 1 0
1  112 0 27.7 32.4
2  223 42 0 27.7 32.4
2  224 32 0 27.7 32.4
0

0101000
+50 78 -59 78 *
Ed
 1.5e-07 1 1 0
1  113 0 -12.4 0
2  225 42 0 -12.4 0
2  226 43 0 -12.4 0
0

0101000
+52 78 -50 78 *
Wi

0101100
-51 0 +56 0 +49 0 +48 0 *
Fa
0  1e-07 42 0

0101000
+47 0 *
Ve
1e-07
-17 -30 46.2
0 0

0101101
*
Ed
 1e-07 1 1 0
1  114 0 18.5 22.5
2  227 43 0 18.5 22.5
2  228 32 0 18.5 22.5
0

0101000
+50 78 -45 78 *
Ve
1e-07
-17 -30 33.8
0 0

0101101
*
Ed
 1e-07 1 1 0
1  115 0 0 12.4
2  229 43 0 0 12.4
2  230 44 0 0 12.4
0

0101000
-43 78 +45 78 *
Ed
 1e-07 1 1 0
1  116 0 18.5 22.5
2  231 43 0 18.5 22.5
2  232 34 0 18.5 22.5
0

0101000
+52 78 -43 78 *
Wi

0101100
-44 0 -42 0 +41 0 -48 0 *
Fa
0  1e-07 43 0

0101000
+40 0 *
Ve
1e-07
6 -30 33.8
0 0

0101101
*
Ve
1e-07
6 -30 46.2
0 0

0101101
*
Ed
 1e-07 1 1 0
1  117 0 0 12.4
2  233 44 0 0 12.4
2  234 41 0 0 12.4
0

0101000
-38 78 +37 78 *
Ed
 1e-07 1 1 0
1  118 0 0 23
2  235 44 0 0 23
2  236 34 0 0 23
0

0101000
-43 78 +38 78 *
Ed
 1e-07 1 1 0
1  119 0 0 23
2  237 44 0 0 23
2  238 32 0 0 23
0

0101000
-45 78 +37 78 *
Wi

0101100
-36 0 -35 0 +34 0 +42 0 *
Ve
1e-07
-5.9 -30 40
0 0

0101101
*
Ed
 1e-07 1 1 0
1  120 0 0 6.28318530717959
2  239 44 0 0 6.28318530717959
2  240 45 0 0 6.28318530717959
0

0101000
+32 78 -32 78 *
Wi

0101100
-31 0 *
Fa
0  1e-07 44 0

0101000
+33 0 +30 0 *
Ed
 1e-07 1 1 0
1  121 0 18.5 22.5
2  241 41 0 18.5 22.5
2  242 32 0 18.5 22.5
0

0101000
+64 78 -37 78 *
Ed
 1e-07 1 1 0
1  122 0 18.5 22.5
2  243 41 0 18.5 22.5
2  244 34 0 18.5 22.5
0

0101000
+66 78 -38 78 *
Wi

0101100
-28 0 -36 0 +27 0 -63 0 *
Fa
0  1e-07 41 0

0101000
+26 0 *
Ve
1e-07
-5.9 -34 40
0 0

0101101
*
Ed
 1e-07 1 1 0
1  123 0 0 6.28318530717959
2  245 45 0 0 6.28318530717959
2  246 46 0 0 6.28318530717959
0

0101000
+24 78 -24 78 *
Ed
 1e-07 1 1 0
1  124 0 0 4
3  247 248CN 45 0 0 4
0

0101000
+32 78 -24 78 *
Wi

0101100
-23 0 +22 0 +31 0 -22 0 *
Fa
0  1e-07 45 0

0101000
+21 0 *
Ve
1e-07
-9 -34 40
0 0

0101101
*
Ed
 1e-07 1 1 0
1  125 0 0 6.28318530717959
2  249 46 0 0 6.28318530717959
2  250 47 0 0 6.28318530717959
0

0101000
+19 78 -19 78 *
Wi

0101100
+18 0 *
Wi

0101100
-23 0 *
Fa
0  1e-07 46 0

0101000
+17 0 +16 0 *
Ve
1e-07
-9 -36 40
0 0

0101101
*
Ed
 1e-07 1 1 0
1  126 0 0 6.28318530717959
2  251 47 0 0 6.28318530717959
2  252 48 0 0 6.28318530717959
0

0101000
+14 78 -14 78 *
Ed
 1e-07 1 1 0
1  127 0 0 2
3  253 254CN 47 0 0 2
0

0101000
-14 78 +19 78 *
Wi

0101100
-13 0 +12 0 +18 0 -12 0 *
Fa
0  1e-07 47 0

0111000
+11 0 *
Wi

0101100
+13 0 *
Fa
0  1e-07 48 0

0111000
+9 0 *
Wi

0101100
+86 0 +69 0 +58 0 -49 0 +44 0 -34 0 -28 0 -62 0 -79 0 +98 0 
-109 0 +90 0 *
Fa
0  1e-07 32 0

0101000
+7 0 *
Wi

0101100
-83 0 -93 0 +105 0 -100 0 +76 0 +65 0 +27 0 +35 0 -41 0 +51 0 
-55 0 -72 0 *
Fa
0  1e-07 34 0

0101000
+5 0 *
Sh

0101100
-102 0 -95 0 -88 0 +81 0 -74 0 -67 0 +60 0 +53 0 +46 0 +39 0 
+29 0 -25 0 +20 0 -15 0 +10 0 +8 0 +6 0 +4 0 *
So

0100000
+3 0 *
Co

1100000
+112 0 +2 77 *

+1 1 