DBRep_DrawableShape

CASCADE Topology V1, (c) Matra-Datavision
Locations 78
1
              1               0               0              -0 
              0               1               0              30 
              0               0               1             -71 
1
             -1 -1.22464679914735e-16               0               0 
1.22464679914735e-16              -1               0               0 
              0               0               1               0 
1
              1               0               0               0 
              0               1               0               0 
              0               0               1               0 
1
              1               0               0               0 
              0 1.11022302462516e-16               1               0 
              0              -1 1.11022302462516e-16               0 
1
              1               0               0               0 
              0               1               0               0 
              0               0               1               0 
1
              1               0               0               0 
              0               1               0             -30 
              0               0               1             102 
2  2 1 3 1 4 1 5 1 6 1 0
2  6 -1 5 -1 4 -1 3 -1 2 -1 0
1
             -1 -1.22464679914735e-16               0               0 
1.22464679914735e-16              -1               0               0 
              0               0               1               0 
1
              1               0               0               0 
              0               1               0               0 
              0               0               1               0 
1
              1               0               0               0 
              0 1.11022302462516e-16               1               0 
              0              -1 1.11022302462516e-16               0 
1
              1               0               0               0 
              0               1               0               0 
              0               0               1               0 
1
              1               0               0               0 
              0               1               0             -30 
              0               0               1             102 
2  9 1 10 1 11 1 12 1 13 1 0
1
             -1 -1.22464679914735e-16               0               0 
1.22464679914735e-16              -1               0               0 
              0               0               1               0 
1
              1               0               0               0 
              0               1               0               0 
              0               0               1               0 
1
              1               0               0               0 
              0 1.11022302462516e-16               1               0 
              0              -1 1.11022302462516e-16               0 
1
              1               0               0               0 
              0               1               0               0 
              0               0               1               0 
1
              1               0               0               0 
              0               1               0             -30 
              0               0               1             102 
2  15 1 16 1 17 1 18 1 19 1 0
1
             -1 -1.22464679914735e-16               0               0 
1.22464679914735e-16              -1               0               0 
              0               0               1               0 
1
              1               0               0               0 
              0               1               0               0 
              0               0               1               0 
1
              1               0               0               0 
              0 1.11022302462516e-16              -1               0 
              0               1 1.11022302462516e-16               0 
1
              1               0               0               0 
              0               1               0               0 
              0               0               1               0 
1
              1               0               0               0 
              0               1               0             -30 
              0               0               1              40 
2  21 1 22 1 23 1 24 1 25 1 0
1
             -1 -1.22464679914735e-16               0               0 
1.22464679914735e-16              -1               0               0 
              0               0               1               0 
1
              1               0               0               0 
              0               1               0               0 
              0               0               1               0 
1
              1               0               0               0 
              0 1.11022302462516e-16               1               0 
              0              -1 1.11022302462516e-16               0 
1
              1               0               0               0 
              0               1               0               0 
              0               0               1               0 
1
              1               0               0               0 
              0               1               0             -30 
              0               0               1             102 
2  27 1 28 1 29 1 30 1 31 1 0
1
             -1 -1.22464679914735e-16               0               0 
1.22464679914735e-16              -1               0               0 
              0               0               1               0 
1
              1               0               0               0 
              0               1               0               0 
              0               0               1               0 
1
              1               0               0               0 
              0 1.11022302462516e-16              -1               0 
              0               1 1.11022302462516e-16               0 
1
              1               0               0               0 
              0               1               0               0 
              0               0               1               0 
1
              1               0               0               0 
              0               1               0             -30 
              0               0               1              40 
2  33 1 34 1 35 1 36 1 37 1 0
1
             -1 -1.22464679914735e-16               0               0 
1.22464679914735e-16              -1               0               0 
              0               0               1               0 
1
              1               0               0               0 
              0               1               0               0 
              0               0               1               0 
1
              1               0               0               0 
              0 1.11022302462516e-16              -1               0 
              0               1 1.11022302462516e-16               0 
1
              1               0               0               0 
              0               1               0               0 
              0               0               1               0 
1
              1               0               0               0 
              0               1               0             -30 
              0               0               1              40 
2  39 1 40 1 41 1 42 1 43 1 0
1
             -1 -1.22464679914735e-16               0               0 
1.22464679914735e-16              -1               0               0 
              0               0               1               0 
1
              1               0               0               0 
              0               1               0               0 
              0               0               1               0 
1
              1               0               0               0 
              0 1.11022302462516e-16              -1               0 
              0               1 1.11022302462516e-16               0 
1
              1               0               0               0 
              0               1               0               0 
              0               0               1               0 
1
              1               0               0               0 
              0               1               0             -30 
              0               0               1              40 
2  45 1 46 1 47 1 48 1 49 1 0
1
             -1 -1.22464679914735e-16               0               0 
1.22464679914735e-16              -1               0               0 
              0               0               1               0 
1
              1               0               0               0 
              0               1               0               0 
              0               0               1               0 
1
              1               0               0               0 
              0 1.11022302462516e-16              -1               0 
              0               1 1.11022302462516e-16               0 
1
              1               0               0               0 
              0               1               0               0 
              0               0               1               0 
1
              1               0               0               0 
              0               1               0             -30 
              0               0               1              40 
2  51 1 52 1 53 1 54 1 55 1 0
1
             -1 -1.22464679914735e-16               0               0 
1.22464679914735e-16              -1               0               0 
              0               0               1               0 
1
              1               0               0               0 
              0               1               0               0 
              0               0               1               0 
1
              1               0               0               0 
              0 1.11022302462516e-16              -1               0 
              0               1 1.11022302462516e-16               0 
1
              1               0               0               0 
              0               1               0               0 
              0               0               1               0 
1
              1               0               0               0 
              0               1               0             -30 
              0               0               1              40 
2  57 1 58 1 59 1 60 1 61 1 0
2  13 -1 12 -1 11 -1 10 -1 9 -1 0
2  19 -1 18 -1 17 -1 16 -1 15 -1 0
2  25 -1 24 -1 23 -1 22 -1 21 -1 0
2  31 -1 30 -1 29 -1 28 -1 27 -1 0
2  37 -1 36 -1 35 -1 34 -1 33 -1 0
2  43 -1 42 -1 41 -1 40 -1 39 -1 0
2  49 -1 48 -1 47 -1 46 -1 45 -1 0
2  55 -1 54 -1 53 -1 52 -1 51 -1 0
2  61 -1 60 -1 59 -1 58 -1 57 -1 0
1
             -1 -1.22464679914735e-16               0               0 
1.22464679914735e-16              -1               0               0 
              0               0               1               0 
1
              1               0               0               0 
              0               1               0               0 
              0               0               1               0 
1
              1               0               0               0 
              0 1.11022302462516e-16               1               0 
              0              -1 1.11022302462516e-16               0 
1
              1               0               0               0 
              0               1               0               0 
              0               0               1               0 
1
              1               0               0               0 
              0               1               0             -30 
              0               0               1             102 
2  72 1 73 1 74 1 75 1 76 1 0
2  76 -1 75 -1 74 -1 73 -1 72 -1 0
Curve2ds 317
1 0 4.5 1 0 
1 -46.835304819711752 -8.864612360194295 0 1 
1 10.999999999999998 0 0 1 
1 1.5707963267948966 0 0 1 
1 0 4.5 1 0 
1 -46.835304819711752 -8.864612360194295 0 1 
1 0 0 1 0 
1 47.027043251921853 -8.7665282224879952 0 1 
1 12.000000000000002 0 0 1 
1 1.5707963267948966 0 0 1 
8 0.049999999999997158 3.0000005999999999
1 11.5 5 0 -1 
2 -35.835304819711752 3.1353876398057059 1 0 -0 1 11
1 -1.5707963267948966 4.5 1 0 
1 -46.835304819711752 14.135387639805705 1 0 
1 0 -4.5 1 0 
1 15.164695180288248 14.335387639805706 -1.2246467991473532e-16 -1 
1 4.5 0 0 1 
1 15.164695180288248 14.335387639805706 1 -1.2246467991473532e-16 
1 4.5 0 0 -1 
1 37.164695180288248 14.335387639805703 -1.2246467991473532e-16 -1 
1 17.199999999999996 2.2500000000000071 -1 1.3596310734468911e-32 
1 15.164695180288248 -20.064612360194296 1 -1.2246467991473532e-16 
1 4.5 0 0 -1 
1 15.164695180288248 14.335387639805706 -1.2246467991473532e-16 -1 
1 4.5 0 0 1 
1 -46.835304819711752 -8.864612360194295 1 0 
1 43.979448755603073 8.4121324936213853 -1 0 
1 4.2528163635279981 -8.864612360194295 0 1 
8 -5.999999999062311e-07 4.5000005999999999
1 0.95958043906539281 0 0 1 
1 -31.335304819711752 -4.364612360194295 -1 0 
8 -37.5 -15.5
1 -15.5 -4.5 -1 -0 
1 -13.923426002951494 -8.864612360194295 0 1 
8 -5.999999999062311e-07 4.5000005999999999
1 0.95958043906539248 0 0 1 
1 -46.835304819711752 -8.864612360194295 1 0 
1 43.979448755603073 8.4121324936213853 -1 0 
2 -35.835304819711752 2.1353876398057032 1 0 0 -1 11
1 -1.5707963267948966 4.5 1 0 
2 26.164695180288248 -16.864612360194297 -1.2246467991473532e-16 -1 1 -1.2246467991473532e-16 1.1499999999999999
1 6.679274664138223e-65 12.499999999999993 1 0 
8 -19.882306180097146 4.7176938199028537
1 19.164695180288248 4.717693819902852 1.2246467991473532e-16 1 
8 -19.882306180097146 4.7176938199028537
1 16.999999999999993 4.7176938199028537 1.3596310734468911e-32 -1 
8 9.582347590144126 23.582347590144124
1 9.5823475901441242 -15.164612360194292 1 -1.2246467991473532e-16 
8 9.582347590144126 23.582347590144124
1 16.999999999999993 9.582347590144126 1.1102230246251565e-16 -1 
8 -19.882306180097146 4.7176938199028537
1 33.164695180288248 4.7176938199028502 1.2246467991473532e-16 1 
8 -19.882306180097146 4.7176938199028537
1 16.999999999999993 4.7176938199028537 1.3596310734468911e-32 -1 
8 9.582347590144126 23.582347590144124
1 9.5823475901441242 9.4353876398057057 1 -1.2246467991473532e-16 
8 9.582347590144126 23.582347590144124
1 16.999999999999993 9.582347590144126 1.1102230246251565e-16 -1 
2 -35.835304819711752 2.6353876398057046 1.2246467991473532e-16 -1 -1 -1.2246467991473532e-16 11
1 6.679274664138223e-65 0.5 1 0 
2 -35.835304819711752 2.6353876398057046 1.2246467991473532e-16 -1 -1 -1.2246467991473532e-16 11
1 6.679274664138223e-65 0.5 1 0 
2 26.164695180288248 11.135387639805705 -1.2246467991473532e-16 -1 1 -1.2246467991473532e-16 1.1499999999999999
1 6.679274664138223e-65 12.499999999999993 1 0 
1 -1.5707963267948966 0 1 0 
2 36.027043251921853 2.2334717775120039 -1 0 -0 -1 11
1 0 0 0 1 
1 32.979448755603073 12.912132493621385 0 -1 
2 36.027043251921853 3.2334717775120065 -1 0 0 1 11
1 -1.5707963267948966 0 1 0 
1 47.027043251921853 -8.7665282224879952 -1 0 
1 43.979448755603073 12.912132493621385 -1 0 
1 47.027043251921853 14.233471777512005 -1 0 
1 0 0 1 0 
1 -14.972956748078147 14.433471777512006 1.2246467991473532e-16 -1 
1 0 0 0 1 
1 -14.972956748078147 14.433471777512006 1.2246467991473532e-16 -1 
1 0 0 0 1 
1 -14.972956748078147 -19.966528222487995 -1 -1.2246467991473532e-16 
1 0 0 0 -1 
1 -14.972956748078147 14.433471777512006 -1 -1.2246467991473532e-16 
1 0 0 0 -1 
1 -36.972956748078147 14.433471777512002 1.2246467991473532e-16 -1 
1 17.199999999999996 -2.2499999999999929 -1 1.3596310734468911e-32 
2 -25.972956748078147 -16.766528222487995 1.2246467991473532e-16 -1 -1 -1.2246467991473532e-16 1.1499999999999999
1 6.679274664138223e-65 8 1 0 
8 -4.7667358887560045 19.833264111243999
1 -32.972956748078147 4.7667358887560001 1.2246467991473532e-16 -1 
8 -4.7667358887560045 19.833264111243999
1 12.5 4.7667358887560045 -1.3596310734468911e-32 1 
8 -23.486478374039081 -9.4864783740390823
1 -9.4864783740390664 -15.066528222487996 1 1.2246467991473532e-16 
8 -23.486478374039081 -9.4864783740390823
1 12.499999999999998 9.4864783740390823 -1.1102230246251565e-16 1 
8 -4.7667358887560045 19.833264111243999
1 -18.972956748078147 4.7667358887560018 1.2246467991473532e-16 -1 
8 -4.7667358887560045 19.833264111243999
1 12.5 4.7667358887560045 -1.3596310734468911e-32 1 
8 -23.486478374039081 -9.4864783740390823
1 -9.4864783740390664 9.5334717775120073 1 1.2246467991473532e-16 
8 -23.486478374039081 -9.4864783740390823
1 12.499999999999998 9.4864783740390823 -1.1102230246251565e-16 1 
2 36.027043251921853 -3.7665282224879948 -1.2246467991473532e-16 -1 1 -1.2246467991473532e-16 1.1499999999999999
1 6.679274664138223e-65 8 1 0 
2 -25.972956748078147 11.233471777512005 1.2246467991473532e-16 -1 -1 -1.2246467991473532e-16 1.1499999999999999
1 6.679274664138223e-65 8 1 0 
2 29.527043251921853 2.7334717775120061 -1.2246467991473532e-16 -1 1 -1.2246467991473532e-16 1.1499999999999999
1 6.679274664138223e-65 8 1 0 
2 36.027043251921853 2.7334717775120052 -1.2246467991473532e-16 -1 1 -1.2246467991473532e-16 3.2000000000000002
1 6.679274664138223e-65 8 1 0 
2 42.527043251921853 2.7334717775120043 -1.2246467991473532e-16 -1 1 -1.2246467991473532e-16 1.1499999999999999
1 6.679274664138223e-65 8 1 0 
2 36.027043251921853 9.2334717775120048 -1.2246467991473532e-16 -1 1 -1.2246467991473532e-16 1.1499999999999999
1 6.679274664138223e-65 8 1 0 
1 0 0 0 1 
1 11 0 0 -1 
8 -4.5 0
1 62 0 -1.1102230246251565e-16 1 
8 -4.5 0
1 0 0.20000000000000107 -1 0 
1 0 0 1 0 
1 0 0 1 0 
1 0 -22 1 0 
1 17.199999999999996 -2.2499999999999929 0 1 
1 -17.199999999999999 -2.2499999999999929 0 1 
1 0 -22 1 0 
1 0 0 1 0 
1 0 34.399999999999999 1 0 
8 -4.5 0
1 0 23.200000000000003 -1 0 
1 -18.020551244396927 12.912132493621385 1.1102230246251565e-16 1 
2 1.5394487556030754 2.3521324936213901 -1 0 -0 -1 10.560000000000002
1 -4.7123889803846897 0 1 0 
1 -9.0205512443969269 12.912132493621385 0 -1 
1 0 0 0 1 
2 1.5394487556030754 -5.5278675063786196 -1 0 0 1 10.560000000000002
1 -4.7123889803846897 0 1 0 
1 12.979448755603073 -11.587867506378615 -1 0 
1 0 0 1 0 
1 -29.020551244396927 -11.587867506378615 0 -1 
1 0 0 0 1 
1 12.979448755603073 -16.087867506378615 -1 0 
1 -26.495659664459083 -11.496438584407668 1 0 
2 2.4194487556030708 -5.5278675063786196 -1 0 -0 -1 10.560000000000002
1 -1.5707963267948966 0 1 0 
1 12.979448755603073 12.912132493621385 0 -1 
1 0 0 0 1 
2 2.4194487556030708 2.3521324936213901 -1 0 0 1 10.560000000000002
1 -1.5707963267948966 0 1 0 
1 -4.7123889803846897 4.5 1 0 
2 11.439999999999998 -10.559999999999995 1 0 0 -1 10.559999999999999
1 1.5707963267948966 0 0 1 
1 0 10.559999999999995 1 0 
1 22 0 0 -1 
1 4.5 0 0 1 
2 11.439999999999998 -18.440000000000005 1 0 -0 1 10.559999999999999
1 -4.7123889803846897 4.5 1 0 
8 -22 0
1 0 -24.5 -1 -0 
8 -22 0
1 0 4.5 -1 0 
8 -5.999999999062311e-07 4.5000005999999999
1 2.1258803253505718 -24.5 0 -1 
8 -5.999999999062311e-07 4.5000005999999999
1 0.9386110781141519 0 0 1 
2 10.560000000000002 -18.440000000000005 1 0 0 -1 10.559999999999999
1 -1.5707963267948966 4.5 1 0 
1 0 0 0 -1 
1 4.5 0 0 1 
2 10.560000000000002 -10.559999999999995 1 0 -0 1 10.559999999999999
1 -1.5707963267948966 4.5 1 0 
1 1.5707963267948966 0 0 1 
1 0 10.559999999999995 1 0 
1 6.2831853071795862 -0 0 1 
1 0 -0 0 1 
1 0 24.600000000000001 1 0 
1 0 0 1 0 
1 0 0 1 0 
1 0 0 1 0 
1 0 -14 1 0 
1 0 24.600000000000001 1 0 
1 0 0 1 0 
1 0 -14 1 0 
1 6.2831853071795862 -0 0 1 
1 0 -0 0 1 
1 0 0 1 0 
2 0 0 1 0 -0 1 11
1 6.2831853071795862 -0 0 1 
1 0 -0 0 1 
1 6.2831853071795862 -0 0 1 
1 0 -0 0 1 
1 6.679274664138223e-65 3 1 0 
2 6.5 7.9602041944577955e-16 1 0 -0 1 1.1499999999999999
1 6.2831853071795862 -0 0 1 
1 0 -0 0 1 
1 6.679274664138223e-65 3 1 0 
2 3.6977854932234928e-32 -6.5 1 0 -0 1 1.1499999999999999
1 6.2831853071795862 -0 0 1 
1 0 -0 0 1 
1 6.679274664138223e-65 3 1 0 
2 0 -0 1 0 -0 1 3.2000000000000002
1 6.2831853071795862 -0 0 1 
1 0 -0 0 1 
1 6.679274664138223e-65 3 1 0 
2 -3.6977854932234928e-32 6.5 1 0 -0 1 1.1499999999999999
1 6.2831853071795862 -0 0 1 
1 0 -0 0 1 
1 6.679274664138223e-65 3 1 0 
2 -6.5 -7.9602041944577955e-16 1 0 -0 1 1.1499999999999999
1 0 18.440000000000005 1 0 
1 1.5707963267948966 0 0 1 
8 -5.999999999062311e-07 4.5000005999999999
1 0.95958043906539281 0 0 1 
8 -5.999999999062311e-07 4.5000005999999999
1 20.08812118323975 0 0 1 
1 0 0 0 1 
1 0 0 1 0 
2 11 12.000000000000002 1 0 -0 1 11
1 -1.5707963267948966 0 1 0 
1 0 23 1 0 
1 0 0 1 0 
2 42 12.000000000000002 1 0 0 -1 11
1 -4.7123889803846897 0 1 0 
1 53 0 0 1 
1 0 0 1 0 
2 42 10.999999999999998 1 0 -0 1 11
1 -4.7123889803846897 0 1 0 
2 11 10.999999999999998 1 0 0 -1 11
1 -1.5707963267948966 0 1 0 
1 1.5707963267948966 0 0 1 
1 10.999999999999998 0 0 1 
1 -4.7123889803846897 4.5 1 0 
2 15.504340335540917 -0.49643858440766914 1 0 -0 1 11
1 26.504340335540917 -11.496438584407668 0 1 
1 0 4.5 1 0 
2 15.504340335540917 0.50356141559233347 1 0 0 -1 11
1 -4.7123889803846897 4.5 1 0 
1 -26.495659664459083 11.503561415592332 1 0 
1 0 -4.5 1 0 
2 -15.495659664459083 0.50356141559233347 1 0 -0 1 11
1 -1.5707963267948966 4.5 1 0 
1 -26.495659664459083 -11.496438584407668 0 1 
1 0 4.5 1 0 
2 -15.495659664459083 -0.49643858440766914 1 0 0 -1 11
1 -1.5707963267948966 4.5 1 0 
1 -15.935659664459081 -11.496438584407668 0 1 
1 0 0 0 1 
7 0 0  7 20 4  0 0.0088035228188179104  0.032352905216294831 0.022480335812660773  0.064545613875769389 0.048498887471203393  0.096481407087176035 0.086638370329756867  0.12806238027450229 0.13641681133950942  0.15918630773871886 0.19709130288639815  0.18974350721952765 0.26765823380998105  0.24143188314553127 0.40470037362000316  0.2629138911018189 0.46723115883624677  0.28406044559868354 0.53410767218965938  0.304871456249246 0.60499456996891676  0.32534602500703652 0.67955936863275002  0.34548244616599461 0.75747244480994602  0.46277809023230204 1.2370334632014894  0.55257234614614925 1.7112359104638708  0.63584878571072112 2.2302366151067643  0.71359904988416456 2.774827407164755  0.78688351338963225 3.3348920983843366  0.85691911161240686 3.9084347861046811  0.92510776766242131 4.5000005999999999 
 0 8 0.18768668648546175 6 0.32477924167039668 6 1 8
7 0 0  7 20 4  0.040010674353988529 4.5000000000000036  0.071094340249086119 4.5000000000000036  0.10206922541707446 4.4871044276179415  0.13283772506447611 4.4615435978894444  0.16330102151610618 4.4238092904625557  0.19335609848943522 4.3746529042776219  0.22289275536895184 4.3150836122472036  0.27289857739797491 4.1961732790335562  0.29369507938124556 4.1410298038711222  0.3141793556868136 4.081290332900223  0.33434998439647728 4.0173045522709323  0.35420489341735628 3.9494175918318635  0.3737413604818921 3.8779700251301628  0.48759377321180319 3.4355157564992203  0.57496630997101794 2.9874122171665656  0.65611653915958557 2.491326025247917  0.73196742383016433 1.9672053959340283  0.80352095183169114 1.4257956423365312  0.87194923375243483 0.86957572259444582  0.93861114572649207 0.29446440704755261 
 0 8 0.18768668648546175 6 0.32477924167039668 6 1 8
1 1.5707963267948966 0 0 1 
1 0 18.440000000000005 1 0 
1 1.5707963267948966 0 0 1 
1 10.999999999999998 0 0 1 
1 12.000000000000002 0 0 1 
1 1.5707963267948966 0 0 1 
1 0 0 0 1 
1 11 0 0 -1 
1 42 0 0 -1 
1 0 0 0 1 
1 1.5707963267948966 0 0 1 
1 12.000000000000002 0 0 1 
1 0 0 1 0 
1 12.277322404371587 -11.5 -1 0 
8 -12.4 0
1 16 0 0 1 
8 -12.4 0
1 4.6999999999999993 0 0 -1 
1 0 -12.4 1 0 
1 -12.277322404371578 -11.500000000000002 1 0 
1 0 0 0 -1 
1 0 0 0 1 
1 0 12.4 1 0 
1 3.7226775956284222 -16.200000000000003 0 1 
1 0 0 1 0 
1 -3.7226775956284133 -16.199999999999999 0 1 
1 0 0 0 1 
1 0 0 0 -1 
1 0 12.4 1 0 
1 -12.277322404371578 -11.500000000000002 0 1 
1 23 0 0 1 
1 0 0 0 -1 
1 0 0 1 0 
1 12.277322404371587 -11.5 0 1 
1 0 0 1 0 
1 12.277322404371587 11.5 -1 0 
8 -12.4 0
1 16 0 0 1 
8 -12.4 0
1 27.699999999999999 0 0 -1 
1 0 -12.4 1 0 
1 -12.277322404371578 11.499999999999998 1 0 
1 0 0 1 0 
1 -3.7226775956284133 -16.199999999999999 -1 0 
1 2.5 0 0 -1 
1 0 0 0 1 
1 0 -12.4 1 0 
1 3.7226775956284222 -16.200000000000003 1 0 
1 0 12.4 1 0 
1 3.7226775956284222 -16.200000000000003 0 1 
1 32.399999999999999 0 0 1 
1 0 0 0 -1 
1 0 0 1 0 
1 -3.7226775956284133 -16.199999999999999 0 1 
1 0 12.4 1 0 
1 6.2226775956284222 -16.200000000000003 0 1 
8 -12.4 0
1 4.6999999999999993 0 0 -1 
8 -12.4 0
1 18.5 0 0 1 
1 0 0 1 0 
1 -6.2226775956284133 -16.199999999999999 0 1 
1 0 0 1 0 
1 -3.7226775956284133 16.199999999999999 -1 0 
1 2.5 0 0 -1 
1 32.399999999999999 0 0 1 
1 0 -12.4 1 0 
1 3.7226775956284222 16.199999999999996 1 0 
1 0 12.4 1 0 
1 6.2226775956284222 -16.200000000000003 0 1 
1 0 0 1 0 
1 -6.2226775956284133 -16.199999999999999 0 1 
8 -12.4 0
1 27.699999999999999 0 0 -1 
8 -12.4 0
1 18.5 0 0 1 
1 0 0 1 0 
1 12.277322404371587 11.5 -1 0 
1 22.5 0 0 -1 
1 23 0 0 1 
1 0 -12.4 1 0 
1 -12.277322404371578 11.499999999999998 1 0 
1 0 0 0 1 
1 22.5 0 0 -1 
1 0 12.4 1 0 
1 10.222677595628422 -11.500000000000002 0 1 
1 0 0 1 0 
1 -10.222677595628413 -11.5 0 1 
2 6 6.2000000000000002 1 0 -0 1 5.9000000000000004
1 0 0 1 0 
1 0 0 1 0 
1 12.277322404371587 -11.5 -1 0 
1 0 -12.4 1 0 
1 -12.277322404371578 -11.500000000000002 1 0 
1 0 4 1 0 
2 0 0 1 0 -0 1 5.9000000000000004
1 6.2831853071795862 -0 0 1 
1 0 -0 0 1 
2 0 0 1 0 -0 1 9
1 0 0 1 0 
1 0 2 1 0 
2 0 0 1 0 -0 1 9
1 6.2831853071795862 -0 0 1 
1 0 -0 0 1 
Curves 159
1 -11.5 -36.5 29 1 0 -0 
1 -0.500000000000002 -41 29 -0 1 0 
1 -11.5 -36.5 29 1 0 -0 
1 -11.5 -41 29 1 0 -0 
1 0.500000000000002 -41 29 -0 1 0 
1 0 -36 29 0 -1 1.1102230246251565e-16 
8 1.5707963267948966 3.1415926535897931
2 0.50000000000000133 -36.5 40 -0 1 0 0 0 1 1 0 -0 11
1 11.5 -36.5 29 0 0 1 
1 -11.699999999999999 -11 -6.5 1 0 -0 
1 -11.699999999999999 -11 -6.5 -0 1 0 
1 11.699999999999998 -36.5 113 -1 1.3596310734468911e-32 -1.2246467991473532e-16 
1 22.699999999999999 -11 -6.5 -0 1 0 
1 -11.699999999999999 -11 -6.5 1 0 -0 
1 -11.5 -36.5 29 0 0 1 
1 -11.5 -36.5 80.08812118323975 1 0 -0 
1 -7 -36.5 44.5 -0 0 -1 
1 -11.5 -36.5 61.911878816760257 1 0 -0 
1 -11.5 -36.5 29 0 0 1 
8 1.5707963267948966 3.1415926535897931
2 -0.50000000000000133 -36.5 40 0 -1 -0 0 0 1 -1 -0 0 11
2 -19.5 -36.500000000000007 102 0 1 1.1102230246251565e-16 -1 1.3596310734468911e-32 -1.2246467991473532e-16 -1.2246467991473532e-16 -1.1102230246251565e-16 1 1.1499999999999999
1 2.082306180097147 -36.500000000000007 95 1 -0 1.2246467991473532e-16 
1 -17.799999999999997 -36.500000000000007 85.417652409855876 -1.2246467991473532e-16 0 1 
1 2.0823061800971452 -36.500000000000007 109 1 -0 1.2246467991473532e-16 
1 6.8000000000000016 -36.500000000000007 85.417652409855876 -1.2246467991473532e-16 0 1 
2 0 -36.5 40 0 -1 1.1102230246251565e-16 -1 1.3596310734468911e-32 1.2246467991473532e-16 -1.2246467991473532e-16 -1.1102230246251565e-16 -1 11
2 0 -36.5 40 0 -1 1.1102230246251565e-16 -1 1.3596310734468911e-32 1.2246467991473532e-16 -1.2246467991473532e-16 -1.1102230246251565e-16 -1 11
2 8.5 -36.500000000000007 102 0 1 1.1102230246251565e-16 -1 1.3596310734468911e-32 -1.2246467991473532e-16 -1.2246467991473532e-16 -1.1102230246251565e-16 1 1.1499999999999999
8 1.5707963267948966 3.1415926535897931
2 -0.50000000000000133 -41 40 0 -1 -0 0 0 1 -1 -0 0 11
1 -11.500000000000002 -41 40 -0 1 0 
8 1.5707963267948966 3.1415926535897931
2 0.50000000000000133 -41 40 -0 1 0 0 0 1 1 0 -0 11
1 -11.5 -41 29 0 0 1 
1 11.5 -41 29 0 0 1 
1 -11.699999999999999 -11 -11 1 0 -0 
1 -11.699999999999999 -11 -11 1 0 -0 
1 22.699999999999999 -11 -11 -0 1 0 
1 -11.699999999999999 -11 -11 -0 1 0 
1 11.699999999999998 -41 113 -1 1.3596310734468911e-32 -1.2246467991473532e-16 
2 -19.5 -41 102 0 1 1.1102230246251565e-16 -1 1.3596310734468911e-32 -1.2246467991473532e-16 -1.2246467991473532e-16 -1.1102230246251565e-16 1 1.1499999999999999
1 2.0332641112439949 -41 109 -1 0 -1.2246467991473532e-16 
1 -17.800000000000001 -41 85.513521625960919 1.2246467991473532e-16 0 -1 
1 2.0332641112439966 -41 95 -1 0 -1.2246467991473532e-16 
1 6.8000000000000025 -41 85.513521625960919 1.2246467991473532e-16 0 -1 
2 -6.5 -41 40 0 -1 1.1102230246251565e-16 -1 1.3596310734468911e-32 1.2246467991473532e-16 -1.2246467991473532e-16 -1.1102230246251565e-16 -1 1.1499999999999999
2 8.5 -41 102 0 1 1.1102230246251565e-16 -1 1.3596310734468911e-32 -1.2246467991473532e-16 -1.2246467991473532e-16 -1.1102230246251565e-16 1 1.1499999999999999
2 7.9602041944577955e-16 -41 46.5 0 -1 1.1102230246251565e-16 -1 1.3596310734468911e-32 1.2246467991473532e-16 -1.2246467991473532e-16 -1.1102230246251565e-16 -1 1.1499999999999999
2 0 -41 40 0 -1 1.1102230246251565e-16 -1 1.3596310734468911e-32 1.2246467991473532e-16 -1.2246467991473532e-16 -1.1102230246251565e-16 -1 3.2000000000000002
2 -7.9602041944577955e-16 -41 33.5 0 -1 1.1102230246251565e-16 -1 1.3596310734468911e-32 1.2246467991473532e-16 -1.2246467991473532e-16 -1.1102230246251565e-16 -1 1.1499999999999999
2 6.5 -41 40 0 -1 1.1102230246251565e-16 -1 1.3596310734468911e-32 1.2246467991473532e-16 -1.2246467991473532e-16 -1.1102230246251565e-16 -1 1.1499999999999999
1 11.500000000000002 -41 40 -0 1 0 
1 11.5 -41 91 0 -1 -1.1102230246251565e-16 
1 -11.699999999999999 -11 -11 0 0 1 
1 -11.699999999999999 11 -11 0 0 1 
1 22.699999999999999 11 -11 0 0 1 
1 22.699999999999999 -11 -11 0 0 1 
1 -11.5 -41 91 0 -1 -1.1102230246251565e-16 
8 4.7123889803846897 6.2831853071795862
2 -11.5 -30.440000000000005 71.439999999999998 -1 -0 0 0 0 1 -0 1 0 10.559999999999999
1 -11.5 -41 82 -0 1 0 
8 4.7123889803846897 6.2831853071795862
2 -11.5 -22.559999999999995 71.439999999999998 1 0 -0 0 0 1 0 -1 0 10.559999999999999
1 -11.5 -16.5 60 0 0 1 
1 -11.500000000000002 -16.5 102 -0 1 0 
1 -11.5 -12 60 0 0 1 
8 1.5707963267948966 3.1415926535897931
2 -11.5 -22.559999999999995 70.560000000000002 -1 -0 0 0 0 1 -0 1 0 10.559999999999999
1 -11.5 -41 60 -0 1 0 
8 1.5707963267948966 3.1415926535897931
2 -11.5 -30.440000000000005 70.560000000000002 1 0 -0 0 0 1 0 -1 0 10.559999999999999
8 4.7123889803846897 6.2831853071795862
2 -7 -30.440000000000005 71.439999999999998 -1 -0 0 0 0 1 -0 1 0 10.559999999999999
1 -11.5 -30.440000000000005 82 1 0 -0 
1 -7 -41 82 -0 1 0 
8 4.7123889803846897 6.2831853071795862
2 -7 -22.559999999999995 71.439999999999998 1 0 -0 0 0 1 0 -1 0 10.559999999999999
1 -7 -16.5 60 -0 0 -1 
1 -7 -16.5 62.125880325350572 -0 1 0 
8 1.5707963267948966 3.1415926535897931
2 -7 -22.559999999999995 70.560000000000002 -1 -0 0 0 0 1 -0 1 0 10.559999999999999
1 -7 -41 60 -0 1 0 
8 1.5707963267948966 3.1415926535897931
2 -7 -30.440000000000005 70.560000000000002 1 0 -0 0 0 1 0 -1 0 10.559999999999999
1 -11.5 -30.440000000000005 60 1 0 -0 
1 20.649999999999999 -2.8166876380389037e-16 -19 0 0 1 
1 17.800000000000001 -7 -23.5 0 0 1 
1 -6.7999999999999998 -7 -23.5 0 0 1 
1 17.800000000000001 7 -23.5 0 0 1 
1 -6.7999999999999998 7 -23.5 0 0 1 
1 11 -2.6942229581241772e-15 6 0 0 1 
2 0 0 6 0 0 1 1 0 -0 -0 1 0 11
1 -7.3499999999999996 -2.8166876380389116e-16 -19 0 0 1 
1 7.6500000000000004 -2.8166876380389135e-16 3 0 0 1 
2 -6.5 -36 40 0 -1 1.1102230246251565e-16 -1 1.3596310734468911e-32 1.2246467991473532e-16 -1.2246467991473532e-16 -1.1102230246251565e-16 -1 1.1499999999999999
1 1.1499999999999999 -6.5 3 0 0 1 
2 7.9602041944577955e-16 -36 46.5 0 -1 1.1102230246251565e-16 -1 1.3596310734468911e-32 1.2246467991473532e-16 -1.2246467991473532e-16 -1.1102230246251565e-16 -1 1.1499999999999999
1 3.2000000000000002 -7.8377395145430609e-16 3 0 0 1 
2 0 -36 40 0 -1 1.1102230246251565e-16 -1 1.3596310734468911e-32 1.2246467991473532e-16 -1.2246467991473532e-16 -1.1102230246251565e-16 -1 3.2000000000000002
1 1.1499999999999999 6.5 3 0 0 1 
2 -7.9602041944577955e-16 -36 33.5 0 -1 1.1102230246251565e-16 -1 1.3596310734468911e-32 1.2246467991473532e-16 -1.2246467991473532e-16 -1.1102230246251565e-16 -1 1.1499999999999999
1 -5.3499999999999996 -2.8166876380389116e-16 3 0 0 1 
2 6.5 -36 40 0 -1 1.1102230246251565e-16 -1 1.3596310734468911e-32 1.2246467991473532e-16 -1.2246467991473532e-16 -1.1102230246251565e-16 -1 1.1499999999999999
1 -11.5 -22.559999999999995 82 1 0 -0 
1 -11.5 -16.5 80.08812118323975 1 0 -0 
1 -11.5 -16.5 60 1 0 -0 
8 1.5707963267948966 3.1415926535897931
2 0.50000000000000133 -16.5 71 -0 1 0 0 0 1 1 0 -0 11
1 11.5 -16.5 60 0 0 1 
8 4.7123889803846897 6.2831853071795862
2 0.50000000000000133 -16.5 102 0 -1 -0 0 0 1 -1 -0 0 11
1 -11.5 -16.5 113 1 0 -0 
8 4.7123889803846897 6.2831853071795862
2 -0.50000000000000133 -16.5 102 -0 1 0 0 0 1 1 0 -0 11
8 1.5707963267948966 3.1415926535897931
2 -0.50000000000000133 -16.5 71 0 -1 -0 0 0 1 -1 -0 0 11
1 -0.500000000000002 -16.5 113 -0 1 0 
8 4.7123889803846897 6.2831853071795862
2 -0.50000000000000133 -12 102 -0 1 0 0 0 1 1 0 -0 11
1 -11.5 -12 113 1 0 -0 
8 4.7123889803846897 6.2831853071795862
2 0.50000000000000133 -12 102 0 -1 -0 0 0 1 -1 -0 0 11
1 11.5 -12 60 0 0 1 
8 1.5707963267948966 3.1415926535897931
2 0.50000000000000133 -12 71 -0 1 0 0 0 1 1 0 -0 11
1 -11.5 -12 60 1 0 -0 
8 1.5707963267948966 3.1415926535897931
2 -0.50000000000000133 -12 71 0 -1 -0 0 0 1 -1 -0 0 11
1 -11.5 -11.999999999999996 70.560000000000002 1 0 -0 
7 0 0  7 20 4  -11.49119647718118 -11.999999999999998 70.560000000000002  -11.477519664187339 -11.999999999999998 70.218353320915952  -11.451501112528799 -12.01289557238206 69.878398034937248  -11.413361629670245 -12.038456402110555 69.541740638911833  -11.363583188660488 -12.076190709537443 69.209971870648772  -11.302908697113603 -12.125347095722375 68.884657565443391  -11.232341766190018 -12.184916387752795 68.56732951260237  -11.095299626379996 -12.303826720966443 68.034610165695469  -11.032768841163755 -12.358970196128876 67.81448703381156  -10.965892327810339 -12.418709667099778 67.599201849564565  -10.895005430031082 -12.482695447729069 67.38883617529595  -10.82044063136725 -12.550582408168136 67.183458202440661  -10.742527555190053 -12.622029974869836 66.983122751527205  -10.26296653679851 -13.064484243500779 65.826200875316758  -9.7887640895362225 -13.512587782833481 64.982371381461149  -9.269763384892979 -14.008673974751963 64.247672982131704  -8.7251725928355111 -14.53279460406609 63.608325228719259  -8.1651079016155688 -15.074204357663422 63.049974616655362  -7.5915652138953114 -15.630424277405554 62.559182273704607  -6.999999399999993 -16.205535592952447 62.125879885870383 
 0 8 0.18768668648546175 6 0.32477924167039668 6 1 8
1 -11.5 -22.559999999999995 60 1 0 -0 
1 -0.500000000000002 -16.5 60 -0 1 0 
1 0.500000000000002 -16.5 60 -0 1 0 
1 11.500000000000002 -16.5 71 -0 1 0 
1 11.500000000000002 -16.5 102 -0 1 0 
1 0.500000000000002 -16.5 113 -0 1 0 
1 -6 -6.2000000000000002 -22.5 0 0 1 
1 -6 -6.2000000000000002 -6.5 0 -1 0 
1 -6 6.2000000000000002 -22.5 0 0 1 
1 -6 -6.2000000000000002 -22.5 -0 1 0 
1 -10.699999999999999 6.2000000000000002 -6.5 1 0 -0 
1 -10.699999999999999 -6.2000000000000002 -6.5 1 0 -0 
1 -10.699999999999999 -6.2000000000000002 -6.5 -0 1 0 
1 -6 6.2000000000000002 -22.5 1 0 -0 
1 17 -6.2000000000000002 -22.5 -0 1 0 
1 -6 -6.2000000000000002 -22.5 1 0 -0 
1 17 -6.2000000000000002 -22.5 0 0 1 
1 17 -6.2000000000000002 -6.5 0 -1 0 
1 17 6.2000000000000002 -22.5 0 0 1 
1 -10.699999999999999 -6.2000000000000002 -6.5 0 0 1 
1 -10.699999999999999 -6.2000000000000002 -4 -0 1 0 
1 -10.699999999999999 6.2000000000000002 -6.5 0 0 1 
1 -10.699999999999999 6.2000000000000002 -6.5 1 0 -0 
1 21.699999999999999 -6.2000000000000002 -6.5 -0 1 0 
1 -10.699999999999999 -6.2000000000000002 -6.5 1 0 -0 
1 -10.699999999999999 6.2000000000000002 -4 1 0 -0 
1 -6 -6.2000000000000002 -4 0 -1 0 
1 -10.699999999999999 -6.2000000000000002 -4 1 0 -0 
1 21.699999999999999 -6.2000000000000002 -6.5 0 0 1 
1 21.699999999999999 -6.2000000000000002 -4 -0 1 0 
1 21.699999999999999 6.2000000000000002 -6.5 0 0 1 
1 -10.699999999999999 6.2000000000000002 -4 1 0 -0 
1 -10.699999999999999 -6.2000000000000002 -4 1 0 -0 
1 17 -6.2000000000000002 -4 0 -1 0 
1 17 -6.2000000000000002 -22.5 0 0 1 
1 17 -6.2000000000000002 0 -0 1 0 
1 17 6.2000000000000002 -22.5 0 0 1 
1 -6 -6.2000000000000002 0 -0 1 0 
1 -6 6.2000000000000002 0 1 0 -0 
1 -6 -6.2000000000000002 0 1 0 -0 
2 0 0 0 0 0 1 1 0 -0 -0 1 0 5.9000000000000004
1 -6 -6.2000000000000002 -22.5 0 0 1 
1 -6 6.2000000000000002 -22.5 0 0 1 
2 0 0 4 0 0 1 1 0 -0 -0 1 0 5.9000000000000004
1 5.9000000000000004 -1.4450832229938768e-15 0 0 0 1 
2 0 0 4 0 0 1 1 0 -0 -0 1 0 9
2 0 0 6 0 0 1 1 0 -0 -0 1 0 9
1 9 -2.2043642384652358e-15 4 0 0 1 
Polygon3D 0
PolygonOnTriangulations 0
Surfaces 59
1 -11.5 -41 29 0 0 1 1 0 -0 -0 1 0 
1 -2.6353876398057046 -36.500000000000007 75.835304819711752 0 1 0 0 -0 1 1 0 -0 
2 -0.50000000000000133 -41 40 -0 1 0 -1 -0 0 -0 -0 -1 11
1 -2.7334717775120052 -41 76.027043251921853 -0 -1 -0 0 0 -1 1 -0 0 
2 0.50000000000000133 -41 40 -0 1 0 1 0 -0 -0 0 -1 11
1 11.5 -41 29 1 0 -0 0 0 1 0 -1 0 
1 -11.699999999999999 -11 -11 -0 1 0 0 0 1 1 0 -0 
1 -11.699999999999999 -11 -11 1 0 -0 0 0 1 0 -1 0 
1 -5.4999999999999991 -38.750000000000007 113 0 0 1 1 0 -0 -0 1 0 
1 22.699999999999999 -11 -11 1 0 -0 0 0 1 0 -1 0 
1 -11.699999999999999 -11 -11 -0 1 0 0 0 1 1 0 -0 
1 -11.500000000000004 -28.087867506378615 72.979448755603073 -1 -0 -0 0 0 -1 0 -1 0 
2 -11.5 -30.440000000000005 71.439999999999998 1 0 -0 0 -1 0 -0 0 1 10.559999999999999
1 -7 -41 60 1 0 -0 0 0 1 0 -1 0 
2 -11.5 -30.440000000000005 70.560000000000002 1 0 -0 0 -1 0 0 -0 -1 10.559999999999999
2 19.5 0 -19 0 0 1 1 0 -0 -0 1 0 1.1499999999999999
1 -6.7999999999999998 -7 -23.5 -0 1 0 0 0 1 1 0 -0 
1 17.800000000000001 -7 -23.5 1 0 -0 0 0 1 0 -1 0 
1 -6.7999999999999998 7 -23.5 -0 1 0 0 0 1 1 0 -0 
1 -6.7999999999999998 -7 -23.5 1 0 -0 0 0 1 0 -1 0 
2 0 0 6 0 0 1 1 0 -0 -0 1 0 11
2 -8.5 0 -19 0 0 1 1 0 -0 -0 1 0 1.1499999999999999
2 6.5 0 3 0 0 1 1 0 -0 -0 1 0 1.1499999999999999
2 0 -6.5 3 0 0 1 1 0 -0 -0 1 0 1.1499999999999999
2 0 0 3 0 0 1 1 0 -0 -0 1 0 3.2000000000000002
2 0 6.5 3 0 0 1 1 0 -0 -0 1 0 1.1499999999999999
2 -6.5 0 3 0 0 1 1 0 -0 -0 1 0 1.1499999999999999
1 -11.5 -41 82 0 0 1 1 0 -0 -0 1 0 
2 -11.5 -22.559999999999995 71.439999999999998 1 0 -0 0 1 0 0 -0 1 10.559999999999999
1 -11.5 -16.5 60 -0 1 0 0 0 1 1 0 -0 
2 -0.50000000000000133 -16.5 102 -0 1 0 -1 -0 0 0 0 1 11
1 -0.0035614155923321808 -12 86.495659664459083 0 1 0 0 -0 1 1 0 -0 
2 -11.5 -22.559999999999995 70.560000000000002 1 0 -0 0 1 0 -0 0 -1 10.559999999999999
1 -11.5 -41 60 0 0 1 1 0 -0 -0 1 0 
2 -0.50000000000000133 -16.5 71 -0 1 0 -1 -0 0 -0 -0 -1 11
1 0 0 6 0 0 1 1 0 -0 -0 1 0 
1 -11.5 -16.5 60 0 0 1 1 0 -0 -0 1 0 
2 0.50000000000000133 -16.5 71 -0 1 0 1 0 -0 -0 0 -1 11
1 11.5 -16.5 60 1 0 -0 0 0 1 0 -1 0 
2 0.50000000000000133 -16.5 102 -0 1 0 1 0 -0 0 -0 1 11
1 -11.5 -16.5 113 0 0 1 1 0 -0 -0 1 0 
1 -6 -6.2000000000000002 -22.5 1 0 -0 0 0 1 0 -1 0 
1 5.5 -6.1999999999999993 -10.222677595628413 -0 -1 -0 0 0 -1 1 -0 0 
1 -10.699999999999999 -6.2000000000000002 -6.5 0 0 1 1 0 -0 -0 1 0 
1 5.5000000000000018 6.2000000000000028 -10.222677595628422 0 1 0 0 -0 1 1 0 -0 
1 -6 -6.2000000000000002 -22.5 0 0 1 1 0 -0 -0 1 0 
1 -10.699999999999999 -6.2000000000000002 -6.5 1 0 -0 0 0 1 0 -1 0 
1 17 -6.2000000000000002 -22.5 1 0 -0 0 0 1 0 -1 0 
1 -10.699999999999999 -6.2000000000000002 -6.5 0 0 1 1 0 -0 -0 1 0 
1 -10.699999999999999 -6.2000000000000002 -4 0 0 1 1 0 -0 -0 1 0 
1 21.699999999999999 -6.2000000000000002 -6.5 1 0 -0 0 0 1 0 -1 0 
1 -6 -6.2000000000000002 -22.5 1 0 -0 0 0 1 0 -1 0 
1 -10.699999999999999 -6.2000000000000002 -4 0 0 1 1 0 -0 -0 1 0 
1 17 -6.2000000000000002 -22.5 1 0 -0 0 0 1 0 -1 0 
1 -6 -6.2000000000000002 0 0 0 1 1 0 -0 -0 1 0 
2 0 0 0 0 0 1 1 0 -0 -0 1 0 5.9000000000000004
1 0 0 4 0 0 1 1 0 -0 -0 1 0 
2 0 0 4 0 0 1 1 0 -0 -0 1 0 9
1 0 0 6 0 0 1 1 0 -0 -0 1 0 
Triangulations 0

TShapes 408
Ve
1.5e-07
-0.500000000000002 -36.5 29
0 0

0101101
*
Ve
1.5e-07
0 -36.5 29
0 0

0101101
*
Ed
 1.5e-07 1 1 0
1  1 0 11 11.5
2  1 1 0 11 11.5
2  2 2 0 11 11.5
0

0101000
+408 0 -407 0 *
Ve
1.5e-07
-0.500000000000002 -41 29
0 0

0101101
*
Ed
 1e-07 1 1 0
1  2 0 0 4.5
2  3 1 0 0 4.5
2  4 3 0 0 4.5
4 G1 1 0 3 0
0

0101000
+405 0 -408 0 *
Ve
1.5e-07
0.500000000000002 -36.5 29
0 0

0101101
*
Ed
 1.5e-07 1 1 0
1  3 0 11.5 12
2  5 1 0 11.5 12
2  6 2 0 11.5 12
0

0101000
+407 0 -403 0 *
Ve
1.5e-07
0.500000000000002 -41 29
0 0

0101101
*
Ed
 1.5e-07 1 1 0
1  4 0 11 12
2  7 1 0 11 12
2  8 4 0 11 12
0

0101000
+405 0 -401 0 *
Ed
 1e-07 1 1 0
1  5 0 0 4.5
2  9 1 0 0 4.5
2  10 5 0 0 4.5
4 G1 1 0 5 0
0

0101000
+401 0 -403 0 *
Wi

0101100
-406 0 -404 0 -402 0 +400 0 +399 0 *
Ve
1.00000002020667e-07
-2.02066721859313e-15 -39 29
0 0

0101101
*
Ed
 1e-07 1 1 0
1  6 0 0.5 3
2  11 1 0 0.5 3
0

0101000
+407 0 -397 0 *
Wi

0101000
i396 0 *
Fa
0  1e-07 1 0

0101000
+398 0 +395 0 *
Ve
1.5e-07
11.5 -36.5 40
0 0

0101101
*
Ed
 1.5e-07 1 1 0
1  7 0 1.5707963267949 3.14159265358979
2  12 2 0 1.5707963267949 3.14159265358979
2  13 5 0 1.5707963267949 3.14159265358979
0

0101000
+393 0 -403 0 *
Ve
1.5e-07
11.5 -36.5 91
0 0

0101101
*
Ed
 1.5e-07 1 1 0
1  8 0 11 62
2  14 2 0 11 62
2  15 6 0 11 62
0

0101000
+393 0 -391 0 *
Ve
1.5e-07
11.7 -36.5 91
0 0

0101101
*
Ed
 1.5e-07 1 1 0
1  9 0 0 0.200000000000001
2  16 2 8 0 0.200000000000001
2  17 7 0 0 0.200000000000001
0

0101000
+389 8 -391 8 *
Ve
1.5e-07
11.7 -36.5 113
0 0

0101101
*
Ed
 1.5e-07 1 1 0
1  10 0 0 22
2  18 2 8 0 22
2  19 8 0 0 22
0

0101000
-387 8 +389 8 *
Ve
1.5e-07
-22.7 -36.5 113
0 0

0101101
*
Ed
 1e-07 1 1 0
1  11 0 0 34.4
2  20 2 0 0 34.4
2  21 9 0 0 34.4
0

0101000
+387 0 -385 0 *
Ve
1.5e-07
-22.7 -36.5 91
0 0

0101101
*
Ed
 1.5e-07 1 1 0
1  12 0 0 22
2  22 2 8 0 22
2  23 10 0 0 22
0

0101000
-385 8 +383 8 *
Ve
1.5e-07
-11.5 -36.5 91
0 0

0101101
*
Ed
 1.5e-07 1 1 0
1  13 0 23.2 34.4
2  24 2 8 23.2 34.4
2  25 11 0 23.2 34.4
0

0101000
+381 8 -383 8 *
Ve
1.5e-07
-11.5 -36.5000000000001 80.0881211832396
0 0

0101101
*
Ed
 1.5e-07 1 1 0
1  14 0 51.0881211832396 62
2  26 2 0 51.0881211832396 62
2  27 12 0 51.0881211832396 62
0

0101000
+379 0 -381 0 *
Ve
1.5e-07
-7 -36.5 80.0881211832397
0 0

0101101
*
Ed
 1.5e-07 1 1 0
1  15 0 0 4.5
2  28 2 0 0 4.5
2  29 13 0 0 4.5
0

0101000
+379 0 -377 0 *
Ve
1.5e-07
-7 -36.5 61.9118788167603
0 0

0101101
*
Ed
 1.5e-07 1 1 0
1  16 0 -35.5881211832397 -17.4118788167603
2  30 2 0 -35.5881211832397 -17.4118788167603
2  31 14 0 -35.5881211832397 -17.4118788167603
0

0101000
+377 0 -375 0 *
Ve
1.5e-07
-11.5 -36.5000000000001 61.9118788167604
0 0

0101101
*
Ed
 1.5e-07 1 1 0
1  17 0 0 4.5
2  32 2 0 0 4.5
2  33 15 0 0 4.5
0

0101000
+373 0 -375 0 *
Ve
1.5e-07
-11.5 -36.5 40
0 0

0101101
*
Ed
 1.5e-07 1 1 0
1  18 0 11 32.9118788167604
2  34 2 0 11 32.9118788167604
2  35 12 0 11 32.9118788167604
0

0101000
+371 0 -373 0 *
Ed
 1.5e-07 1 1 0
1  19 0 1.5707963267949 3.14159265358979
2  36 2 0 1.5707963267949 3.14159265358979
2  37 3 0 1.5707963267949 3.14159265358979
0

0101000
+371 0 -408 0 *
Wi

0101100
-406 0 -402 0 +392 0 -390 0 +388 7 -386 7 -384 0 +382 7 +380 7 +378 0 
-376 0 -374 0 +372 0 +370 0 -369 0 *
Ve
1.5e-07
-20.65 -36.5 102
0 0

0101101
*
Ed
 1.5e-07 1 1 0
1  20 0 0 6.28318530717959
2  38 2 0 0 6.28318530717959
2  39 16 14 0 6.28318530717959
0

0101100
+367 0 -367 0 *
Wi

0101100
-366 0 *
Ve
2.00000003552714e-07
-17.8 -36.5 95
0 0

0101101
*
Ve
2e-07
6.8 -36.5 95
0 0

0101101
*
Ed
 2e-07 1 1 0
1  21 0 -19.8823061800971 4.71769381990285
2  40 2 0 -19.8823061800971 4.71769381990285
2  41 17 20 -19.8823061800971 4.71769381990285
0

0101000
+364 0 -363 0 *
Ve
2e-07
-17.8 -36.5 109
0 0

0101101
*
Ed
 2e-07 1 1 0
1  22 0 9.58234759014413 23.5823475901441
2  42 2 0 9.58234759014413 23.5823475901441
2  43 18 20 9.58234759014413 23.5823475901441
0

0101000
+364 0 -361 0 *
Ve
2e-07
6.8 -36.5 109
0 0

0101101
*
Ed
 2e-07 1 1 0
1  23 0 -19.8823061800971 4.71769381990285
2  44 2 0 -19.8823061800971 4.71769381990285
2  45 19 20 -19.8823061800971 4.71769381990285
0

0101000
+361 0 -359 0 *
Ed
 2e-07 1 1 0
1  24 0 9.58234759014413 23.5823475901441
2  46 2 0 9.58234759014413 23.5823475901441
2  47 20 20 9.58234759014413 23.5823475901441
0

0101000
+363 0 -359 0 *
Wi

0101100
+362 0 -360 0 -358 0 +357 0 *
Ve
1.00000007105427e-07
-11 -36.5 40
0 0

0101101
*
Ed
 1e-07 1 1 0
1  25 0 1.22464679914735e-16 1.5707963267949
2  48 2 0 1.22464679914735e-16 1.5707963267949
2  49 21 26 1.22464679914735e-16 1.5707963267949
0

0101000
+355 0 -407 0 *
Ed
 1e-07 1 1 0
1  26 0 1.5707963267949 6.28318530717959
2  50 2 0 1.5707963267949 6.28318530717959
2  51 21 26 1.5707963267949 6.28318530717959
0

0101000
+407 0 -355 0 *
Wi

0101100
+354 0 +353 0 *
Ve
1.5e-07
7.35 -36.5 102
0 0

0101101
*
Ed
 1.5e-07 1 1 0
1  27 0 0 6.28318530717959
2  52 2 0 0 6.28318530717959
2  53 22 32 0 6.28318530717959
0

0101100
+351 0 -351 0 *
Wi

0101100
-350 0 *
Fa
0  1.5e-07 2 0

0101000
+368 0 +365 0 +356 0 +352 0 +349 0 *
Ve
1.5e-07
-11.5 -41 40
0 0

0101101
*
Ed
 1.5e-07 1 1 0
1  28 0 1.5707963267949 3.14159265358979
2  54 3 0 1.5707963267949 3.14159265358979
2  55 4 0 1.5707963267949 3.14159265358979
0

0101000
+347 0 -405 0 *
Ed
 1.5e-07 1 1 0
1  29 0 -0 4.5
2  56 3 0 -0 4.5
2  57 12 0 -0 4.5
0

0101000
+347 0 -371 0 *
Wi

0101100
+346 0 -345 0 +404 0 -369 0 *
Fa
0  1e-07 3 0

0101000
+344 0 *
Ve
1.5e-07
11.5 -41 40
0 0

0101101
*
Ed
 1.5e-07 1 1 0
1  30 0 1.5707963267949 3.14159265358979
2  58 4 0 1.5707963267949 3.14159265358979
2  59 5 0 1.5707963267949 3.14159265358979
0

0101000
+342 0 -401 0 *
Ve
1.5e-07
-11.5 -41 91
0 0

0101101
*
Ed
 1e-07 1 1 0
1  31 0 11 62
2  60 4 0 11 62
2  61 12 0 11 62
0

0101000
+347 0 -340 0 *
Ve
1.5e-07
11.5 -41 91
0 0

0101101
*
Ed
 1.5e-07 1 1 0
1  32 0 11 62
2  62 4 0 11 62
2  63 6 0 11 62
0

0101000
+342 0 -338 0 *
Ve
1.5e-07
-22.7 -41 91
0 0

0101101
*
Ed
 1.5e-07 1 1 0
1  33 0 23.2 34.4
2  64 4 8 23.2 34.4
2  65 11 0 23.2 34.4
0

0101000
+340 8 -336 8 *
Ve
1.5e-07
11.7 -41 91
0 0

0101101
*
Ed
 1.5e-07 1 1 0
1  34 0 0 0.200000000000001
2  66 4 8 0 0.200000000000001
2  67 7 0 0 0.200000000000001
0

0101000
+334 8 -338 8 *
Ve
1.5e-07
-22.7 -41 113
0 0

0101101
*
Ed
 1.5e-07 1 1 0
1  35 0 0 22
2  68 4 8 0 22
2  69 10 0 0 22
0

0101000
-332 8 +336 8 *
Ve
1.5e-07
11.7 -41 113
0 0

0101101
*
Ed
 1.5e-07 1 1 0
1  36 0 0 22
2  70 4 8 0 22
2  71 8 0 0 22
0

0101000
-330 8 +334 8 *
Ed
 1e-07 1 1 0
1  37 0 0 34.4
2  72 4 0 0 34.4
2  73 9 0 0 34.4
0

0101000
+330 0 -332 0 *
Wi

0101100
+400 0 +346 0 -341 0 -339 0 +337 0 -335 7 -333 7 -331 7 +329 7 +328 0 
*
Ve
1.5e-07
-20.65 -41 102
0 0

0101101
*
Ed
 1.5e-07 1 1 0
1  38 0 0 6.28318530717959
2  74 4 0 0 6.28318530717959
2  75 16 14 0 6.28318530717959
0

0101100
+326 0 -326 0 *
Wi

0101100
+325 0 *
Ve
2.00000000888178e-07
6.8 -41 109
0 0

0101101
*
Ve
2.00000003552714e-07
-17.8 -41 109
0 0

0101101
*
Ed
 2e-07 1 1 0
1  39 0 -4.766735888756 19.833264111244
2  76 4 0 -4.766735888756 19.833264111244
2  77 19 20 -4.766735888756 19.833264111244
0

0101000
+323 0 -322 0 *
Ve
2e-07
-17.8 -41 95
0 0

0101101
*
Ed
 2e-07 1 1 0
1  40 0 -23.4864783740391 -9.48647837403908
2  78 4 0 -23.4864783740391 -9.48647837403908
2  79 18 20 -23.4864783740391 -9.48647837403908
0

0101000
+322 0 -320 0 *
Ve
2.00000000888178e-07
6.8 -41 95
0 0

0101101
*
Ed
 2e-07 1 1 0
1  41 0 -4.766735888756 19.833264111244
2  80 4 0 -4.766735888756 19.833264111244
2  81 17 20 -4.766735888756 19.833264111244
0

0101000
+318 0 -320 0 *
Ed
 2e-07 1 1 0
1  42 0 -23.4864783740391 -9.48647837403908
2  82 4 0 -23.4864783740391 -9.48647837403908
2  83 20 20 -23.4864783740391 -9.48647837403908
0

0101000
+323 0 -318 0 *
Wi

0101100
-321 0 -319 0 +317 0 +316 0 *
Ve
1.5e-07
-7.65 -41 40
0 0

0101101
*
Ed
 1.5e-07 1 1 0
1  43 0 0 6.28318530717959
2  84 4 0 0 6.28318530717959
2  85 23 38 0 6.28318530717959
0

0101100
+314 0 -314 0 *
Wi

0101100
-313 0 *
Ve
1.5e-07
7.35 -41 102
0 0

0101101
*
Ed
 1.5e-07 1 1 0
1  44 0 0 6.28318530717959
2  86 4 0 0 6.28318530717959
2  87 22 32 0 6.28318530717959
0

0101100
+311 0 -311 0 *
Wi

0101100
+310 0 *
Ve
1.5e-07
-1.15 -41 46.5
0 0

0101101
*
Ed
 1.5e-07 1 1 0
1  45 0 0 6.28318530717959
2  88 4 0 0 6.28318530717959
2  89 24 44 0 6.28318530717959
0

0101100
+308 0 -308 0 *
Wi

0101100
-307 0 *
Ve
1.5e-07
-3.2 -41 40
0 0

0101101
*
Ed
 1.5e-07 1 1 0
1  46 0 0 6.28318530717959
2  90 4 0 0 6.28318530717959
2  91 25 50 0 6.28318530717959
0

0101100
+305 0 -305 0 *
Wi

0101100
-304 0 *
Ve
1.5e-07
-1.15 -41 33.5
0 0

0101101
*
Ed
 1.5e-07 1 1 0
1  47 0 0 6.28318530717959
2  92 4 0 0 6.28318530717959
2  93 26 56 0 6.28318530717959
0

0101100
+302 0 -302 0 *
Wi

0101100
-301 0 *
Ve
1.5e-07
5.35 -41 40
0 0

0101101
*
Ed
 1.5e-07 1 1 0
1  48 0 0 6.28318530717959
2  94 4 0 0 6.28318530717959
2  95 27 62 0 6.28318530717959
0

0101100
+299 0 -299 0 *
Wi

0101100
-298 0 *
Fa
0  1.5e-07 4 0

0101000
+327 0 +324 0 +315 0 +312 0 +309 0 +306 0 +303 0 +300 0 +297 0 *
Ed
 1e-07 1 1 0
1  49 0 -0 4.5
2  96 5 0 -0 4.5
2  97 6 0 -0 4.5
4 G1 5 0 6 0
0

0101000
+342 0 -393 0 *
Wi

0101100
+341 0 -295 0 +399 0 -392 0 *
Fa
0  1e-07 5 0

0101000
+294 0 *
Ed
 1.5e-07 1 1 0
1  50 0 -4.5 0
2  98 6 0 -4.5 0
2  99 7 7 -4.5 0
0

0101000
+391 0 -338 0 *
Wi

0101100
-337 0 +292 0 +390 0 +295 0 *
Fa
0  1e-07 6 0

0101000
+291 0 *
Ed
 1e-07 1 1 0
1  51 0 0 4.5
2  100 7 0 0 4.5
2  101 8 0 0 4.5
0

0101000
-389 8 +334 8 *
Wi

0101100
-333 7 +292 0 +388 7 +289 7 *
Fa
0  1e-07 7 7

0101000
+288 0 *
Ed
 1.5e-07 1 1 0
1  52 0 0 4.5
2  102 8 0 0 4.5
2  103 9 8 0 4.5
0

0101000
-387 8 +330 8 *
Wi

0101100
-289 0 -386 0 +286 0 +329 0 *
Fa
0  1e-07 8 0

0111000
+285 0 *
Ed
 1.5e-07 1 1 0
1  53 0 0 4.5
2  104 9 8 0 4.5
2  105 10 0 0 4.5
0

0101000
-385 8 +332 8 *
Wi

0101000
+384 0 -283 7 -328 0 +286 7 *
Fa
0  1.5e-07 9 0

0111000
+282 0 *
Ed
 1e-07 1 1 0
1  54 0 0 4.5
2  106 10 0 0 4.5
2  107 11 0 0 4.5
0

0101000
-383 8 +336 8 *
Wi

0101100
-280 0 -382 0 +283 0 +331 0 *
Fa
0  1e-07 10 0

0111000
+279 0 *
Ed
 1.5e-07 1 1 0
1  55 0 -4.5 0
2  108 11 7 -4.5 0
2  109 12 0 -4.5 0
0

0101000
+381 0 -340 0 *
Wi

0101100
-335 7 -280 7 +380 7 -277 0 *
Fa
0  1e-07 11 7

0101000
+276 0 *
Ve
1.5e-07
-11.5 -30.44 82
0 0

0101101
*
Ed
 1.5e-07 1 1 0
1  56 0 5.67196941945006 6.28318530717959
2  110 12 0 5.67196941945006 6.28318530717959
2  111 13 0 5.67196941945006 6.28318530717959
0

0101000
+379 0 -274 0 *
Ve
1.5e-07
-11.5 -22.56 82
0 0

0101101
*
Ed
 1.5e-07 1 1 0
1  57 0 10.56 18.44
2  112 12 0 10.56 18.44
2  113 28 0 10.56 18.44
0

0101000
+274 0 -272 0 *
Ve
1.5e-07
-11.5 -16.4999999999999 80.0881211832396
0 0

0101101
*
Ed
 1.5e-07 1 1 0
1  58 0 5.67196941945006 6.28318530717959
2  114 12 0 5.67196941945006 6.28318530717959
2  115 29 0 5.67196941945006 6.28318530717959
0

0101000
+270 0 -272 0 *
Ve
1.5e-07
-11.5 -16.5 102
0 0

0101101
*
Ed
 1.5e-07 1 1 0
1  59 0 20.0881211832396 42
2  116 12 0 20.0881211832396 42
2  117 30 0 20.0881211832396 42
0

0101000
+270 0 -268 0 *
Ve
1.5e-07
-11.5 -12 102
0 0

0101101
*
Ed
 1.5e-07 1 1 0
1  60 0 -0 4.5
2  118 12 0 -0 4.5
2  119 31 0 -0 4.5
0

0101000
+268 0 -266 0 *
Ve
1.5e-07
-11.5 -12 70.56
0 0

0101101
*
Ed
 1e-07 1 1 0
1  61 0 10.56 42
2  120 12 0 10.56 42
2  121 32 0 10.56 42
0

0101000
+264 0 -266 0 *
Ve
1.5e-07
-11.5 -22.56 60
0 0

0101101
*
Ed
 1.5e-07 1 1 0
1  62 0 1.5707963267949 3.14159265358979
2  122 12 0 1.5707963267949 3.14159265358979
2  123 33 0 1.5707963267949 3.14159265358979
0

0101000
+264 0 -262 0 *
Ve
1.5e-07
-11.5 -30.44 60
0 0

0101101
*
Ed
 1.5e-07 1 1 0
1  63 0 10.56 18.44
2  124 12 0 10.56 18.44
2  125 34 0 10.56 18.44
0

0101000
+260 0 -262 0 *
Ed
 1.5e-07 1 1 0
1  64 0 2.53037676586027 3.14159265358979
2  126 12 0 2.53037676586027 3.14159265358979
2  127 15 0 2.53037676586027 3.14159265358979
0

0101000
+373 0 -260 0 *
Wi

0101000
-277 0 -378 0 +273 0 +271 0 -269 0 +267 0 +265 0 -263 0 +261 0 -259 0 
-258 0 -370 0 -345 0 +339 0 *
Fa
0  1.5e-07 12 0

0111000
+257 0 *
Ve
1e-07
-7 -30.44 82
0 0

0101101
*
Ed
 1e-07 1 1 0
1  65 0 5.67196941945008 6.28318530717959
2  128 13 0 5.67196941945008 6.28318530717959
2  129 14 0 5.67196941945008 6.28318530717959
0

0101000
+377 0 -255 0 *
Ed
 1e-07 1 1 0
1  66 0 0 4.5
2  130 13 0 0 4.5
2  131 28 0 0 4.5
4 G1 13 0 28 0
0

0101000
+274 0 -255 0 *
Wi

0101100
-376 0 -254 0 +253 0 +273 0 *
Fa
0  1e-07 13 0

0101000
+252 0 *
Ve
1e-07
-7 -22.56 82
0 0

0101101
*
Ed
 1e-07 1 1 0
1  67 0 10.56 18.44
2  132 14 0 10.56 18.44
2  133 28 0 10.56 18.44
0

0101000
+255 0 -250 0 *
Ve
1.5e-07
-7 -16.5 80.0881211832397
0 0

0101101
*
Ed
 1e-07 1 1 0
1  68 0 5.67196941945008 6.28318530717959
2  134 14 0 5.67196941945008 6.28318530717959
2  135 29 0 5.67196941945008 6.28318530717959
0

0101000
+248 0 -250 0 *
Ve
1.50000001776357e-07
-7 -16.5 62.1258803253506
0 0

0101101
*
Ed
 1.5e-07 1 1 0
1  69 0 -20.0881211832397 -2.12588032535058
2  136 14 0 -20.0881211832397 -2.12588032535058
2  137 30 0 -20.0881211832397 -2.12588032535058
0

0101000
+248 0 -246 0 *
Ve
2.62065743060928e-07
-7 -16.2055350096416 62.1258803253505
0 0

0101101
*
Ed
 1e-07 1 1 0
1  70 0 0 0.294464990358371
2  138 14 0 0 0.294464990358371
2  139 35 0 0 0.294464990358371
0

0101000
+246 0 -244 0 *
Ve
1e-07
-7 -22.56 60
0 0

0101101
*
Ed
 1e-07 1 1 0
1  71 0 2.49590402529648 3.14159265358979
2  140 14 0 2.49590402529648 3.14159265358979
2  141 33 0 2.49590402529648 3.14159265358979
0

0101000
+244 0 -242 0 *
Ve
1e-07
-7 -30.44 60
0 0

0101101
*
Ed
 1e-07 1 1 0
1  72 0 10.56 18.44
2  142 14 0 10.56 18.44
2  143 34 0 10.56 18.44
0

0101000
+240 0 -242 0 *
Ed
 1e-07 1 1 0
1  73 0 2.53037676586029 3.14159265358979
2  144 14 0 2.53037676586029 3.14159265358979
2  145 15 0 2.53037676586029 3.14159265358979
0

0101000
+375 0 -240 0 *
Wi

0101100
+374 0 -254 0 -249 0 +247 0 -245 0 -243 0 -241 0 +239 0 +238 0 *
Fa
0  1e-07 14 0

0101000
+237 0 *
Ed
 1e-07 1 1 0
1  74 0 0 4.5
2  146 15 0 0 4.5
2  147 34 0 0 4.5
4 G1 15 0 34 0
0

0101000
+260 0 -240 0 *
Wi

0101100
-372 0 -238 0 +235 0 +258 0 *
Fa
0  1e-07 15 0

0101000
+234 0 *
Ed
 1e-07 1 1 0
1  75 0 8 12.5
3  148 149CN 16 0 8 12.5
0

0101000
+326 63 -367 63 *
Wi

0101100
-366 0 +232 14 +325 0 -232 14 *
Fa
0  1e-07 16 14

0101000
+231 0 *
Ed
 1e-07 1 1 0
1  76 0 12.5 17
2  150 17 0 12.5 17
2  151 18 0 12.5 17
0

0101000
+320 64 -364 64 *
Ed
 1e-07 1 1 0
1  77 0 12.5 17
2  152 17 0 12.5 17
2  153 20 0 12.5 17
0

0101000
+318 64 -363 64 *
Wi

0101100
-229 20 -362 0 +228 20 -317 0 *
Fa
0  1e-07 17 20

0101000
+227 0 *
Ed
 1e-07 1 1 0
1  78 0 12.5 17
2  154 18 0 12.5 17
2  155 19 0 12.5 17
0

0101000
+322 64 -361 64 *
Wi

0101100
-229 20 -360 0 +225 20 -319 0 *
Fa
0  1e-07 18 20

0101000
+224 0 *
Ed
 1e-07 1 1 0
1  79 0 12.5 17
2  156 19 0 12.5 17
2  157 20 0 12.5 17
0

0101000
+323 64 -359 64 *
Wi

0101100
-225 20 -358 0 +222 20 -321 0 *
Fa
0  1e-07 19 20

0101000
+221 0 *
Wi

0101100
-228 20 -357 0 +222 20 -316 0 *
Fa
0  1e-07 20 20

0101000
+219 0 *
Ve
1e-07
-11 -36 40
0 0

0101101
*
Ed
 1e-07 1 1 0
1  80 0 0 0.5
3  158 159CN 21 0 0 0.5
0

0101000
+217 65 -355 65 *
Ed
 1e-07 1 1 0
1  81 0 0 6.28318530717959
2  160 21 0 0 6.28318530717959
2  161 36 0 0 6.28318530717959
0

0101000
+217 65 -217 65 *
Wi

0101100
-354 0 -353 0 +216 26 +215 26 -216 26 *
Fa
0  1e-07 21 26

0101000
+214 0 *
Ed
 1e-07 1 1 0
1  82 0 8 12.5
3  162 163CN 22 0 8 12.5
0

0101000
+311 66 -351 66 *
Wi

0101100
-350 0 +212 32 +310 0 -212 32 *
Fa
0  1e-07 22 32

0101000
+211 0 *
Ve
1e-07
-7.65 -36 40
0 0

0101101
*
Ed
 1e-07 1 1 0
1  83 0 3 8
3  164 165CN 23 0 3 8
0

0101000
+209 67 -314 67 *
Ed
 1e-07 1 1 0
1  84 0 0 6.28318530717959
2  166 23 38 0 6.28318530717959
2  167 36 26 0 6.28318530717959
0

0101100
+209 0 -209 0 *
Wi

0101100
-313 0 +208 38 +207 0 -208 38 *
Fa
0  1e-07 23 38

0101000
+206 0 *
Ve
1e-07
-1.15 -36 46.5
0 0

0101101
*
Ed
 1e-07 1 1 0
1  85 0 3 8
3  168 169CN 24 0 3 8
0

0101000
+204 68 -308 68 *
Ed
 1e-07 1 1 0
1  86 0 0 6.28318530717959
2  170 24 44 0 6.28318530717959
2  171 36 26 0 6.28318530717959
0

0101100
+204 0 -204 0 *
Wi

0101100
-307 0 +203 44 +202 0 -203 44 *
Fa
0  1e-07 24 44

0101000
+201 0 *
Ve
1e-07
-3.2 -36 40
0 0

0101101
*
Ed
 1e-07 1 1 0
1  87 0 3 8
3  172 173CN 25 0 3 8
0

0101000
+199 69 -305 69 *
Ed
 1e-07 1 1 0
1  88 0 0 6.28318530717959
2  174 25 50 0 6.28318530717959
2  175 36 26 0 6.28318530717959
0

0101100
+199 0 -199 0 *
Wi

0101100
-304 0 +198 50 +197 0 -198 50 *
Fa
0  1e-07 25 50

0101000
+196 0 *
Ve
1e-07
-1.15 -36 33.5
0 0

0101101
*
Ed
 1e-07 1 1 0
1  89 0 3 8
3  176 177CN 26 0 3 8
0

0101000
+194 70 -302 70 *
Ed
 1e-07 1 1 0
1  90 0 0 6.28318530717959
2  178 26 56 0 6.28318530717959
2  179 36 26 0 6.28318530717959
0

0101100
+194 0 -194 0 *
Wi

0101100
-301 0 +193 56 +192 0 -193 56 *
Fa
0  1e-07 26 56

0101000
+191 0 *
Ve
1e-07
5.35 -36 40
0 0

0101101
*
Ed
 1e-07 1 1 0
1  91 0 3 8
3  180 181CN 27 0 3 8
0

0101000
+189 71 -299 71 *
Ed
 1e-07 1 1 0
1  92 0 0 6.28318530717959
2  182 27 62 0 6.28318530717959
2  183 36 26 0 6.28318530717959
0

0101100
+189 0 -189 0 *
Wi

0101100
-298 0 +188 62 +187 0 -188 62 *
Fa
0  1e-07 27 62

0101000
+186 0 *
Ed
 1e-07 1 1 0
1  93 0 0 4.5
2  184 28 0 0 4.5
2  185 29 0 0 4.5
4 G1 28 0 29 0
0

0101000
+272 0 -250 0 *
Wi

0101100
-271 0 +253 0 -184 0 +249 0 *
Fa
0  1e-07 28 0

0101000
+183 0 *
Ed
 1e-07 1 1 0
1  94 0 0 4.5
2  186 29 0 0 4.5
2  187 30 0 0 4.5
0

0101000
+270 0 -248 0 *
Wi

0101100
-181 0 -247 0 +184 0 +269 0 *
Fa
0  1e-07 29 0

0101000
+180 0 *
Ve
1e-07
-0.500000000000002 -16.5 60
0 0

0101101
*
Ve
1e-07
0.500000000000002 -16.5 60
0 0

0101101
*
Ed
 1e-07 1 1 0
1  95 0 11 12
2  188 30 0 11 12
2  189 37 0 11 12
0

0101000
+178 0 -177 0 *
Ve
1e-07
11.5 -16.5 71
0 0

0101101
*
Ed
 1e-07 1 1 0
1  96 0 1.5707963267949 3.14159265358979
2  190 30 0 1.5707963267949 3.14159265358979
2  191 38 0 1.5707963267949 3.14159265358979
0

0101000
+175 0 -177 0 *
Ve
1e-07
11.5 -16.5 102
0 0

0101101
*
Ed
 1e-07 1 1 0
1  97 0 11 42
2  192 30 0 11 42
2  193 39 0 11 42
0

0101000
+175 0 -173 0 *
Ve
1e-07
0.500000000000002 -16.5 113
0 0

0101101
*
Ed
 1e-07 1 1 0
1  98 0 4.71238898038469 6.28318530717959
2  194 30 0 4.71238898038469 6.28318530717959
2  195 40 0 4.71238898038469 6.28318530717959
0

0101000
+173 0 -171 0 *
Ve
1e-07
-0.500000000000002 -16.5 113
0 0

0101101
*
Ed
 1e-07 1 1 0
1  99 0 11 12
2  196 30 0 11 12
2  197 41 0 11 12
0

0101000
+169 0 -171 0 *
Ed
 1e-07 1 1 0
1  100 0 4.71238898038469 6.28318530717959
2  198 30 0 4.71238898038469 6.28318530717959
2  199 31 0 4.71238898038469 6.28318530717959
0

0101000
+268 0 -169 0 *
Ed
 1e-07 1 1 0
1  101 0 2.50940740490905 3.14159265358979
2  200 30 0 2.50940740490905 3.14159265358979
2  201 35 0 2.50940740490905 3.14159265358979
0

0101000
+246 0 -178 0 *
Wi

0101100
-176 0 +174 0 -172 0 -170 0 +168 0 +167 0 +267 0 -181 0 -245 0 -166 0 
*
Fa
0  1e-07 30 0

0101000
+165 0 *
Ve
1.5e-07
-0.500000000000002 -12 113
0 0

0101101
*
Ed
 1e-07 1 1 0
1  102 0 0 4.5
2  202 31 0 0 4.5
2  203 41 0 0 4.5
4 G1 31 0 41 0
0

0101000
+169 0 -163 0 *
Ed
 1.5e-07 1 1 0
1  103 0 4.71238898038469 6.28318530717959
2  204 31 0 4.71238898038469 6.28318530717959
2  205 32 0 4.71238898038469 6.28318530717959
0

0101000
+266 0 -163 0 *
Wi

0101100
+167 0 -265 0 +162 0 -161 0 *
Fa
0  1e-07 31 0

0101000
+160 0 *
Ve
1.5e-07
0.500000000000002 -12 113
0 0

0101101
*
Ed
 1.5e-07 1 1 0
1  104 0 11 12
2  206 32 0 11 12
2  207 41 0 11 12
0

0101000
+163 0 -158 0 *
Ve
1.5e-07
11.5 -12 102
0 0

0101101
*
Ed
 1.5e-07 1 1 0
1  105 0 4.71238898038469 6.28318530717959
2  208 32 0 4.71238898038469 6.28318530717959
2  209 40 0 4.71238898038469 6.28318530717959
0

0101000
+156 0 -158 0 *
Ve
1.5e-07
11.5 -12 71
0 0

0101101
*
Ed
 1.5e-07 1 1 0
1  106 0 11 42
2  210 32 0 11 42
2  211 39 0 11 42
0

0101000
+154 0 -156 0 *
Ve
1.5e-07
0.500000000000002 -12 60
0 0

0101101
*
Ed
 1.5e-07 1 1 0
1  107 0 1.5707963267949 3.14159265358979
2  212 32 0 1.5707963267949 3.14159265358979
2  213 38 0 1.5707963267949 3.14159265358979
0

0101000
+154 0 -152 0 *
Ve
1.5e-07
-0.500000000000002 -12 60
0 0

0101101
*
Ed
 1.5e-07 1 1 0
1  108 0 11 12
2  214 32 0 11 12
2  215 37 0 11 12
0

0101000
+150 0 -152 0 *
Ve
1.14190334522316e-06
-11.4911964771812 -12 70.5600000000003
0 0

0101101
*
Ed
 1.5e-07 1 1 0
1  109 0 1.61080700114886 3.14159265358979
2  216 32 0 1.61080700114886 3.14159265358979
2  217 35 0 1.61080700114886 3.14159265358979
0

0101000
+148 0 -150 0 *
Ed
 1.5e-07 1 1 0
1  110 0 0 0.00880352281879659
2  218 32 0 0 0.00880352281879659
2  219 33 0 0 0.00880352281879659
0

0101000
+264 0 -148 0 *
Wi

0101000
+263 0 +161 0 +157 0 -155 0 -153 0 +151 0 -149 0 -147 0 -146 0 *
Fa
0  1.5e-07 32 0

0111000
+145 0 *
Ed
 2.62065671189785e-07 1 1 0
1  111 0 0 0.999999902164629
2  220 33 0 0 0.999999902164629
2  221 35 0 0 0.999999902164629
0

0101000
+148 0 -244 0 *
Ed
 1e-07 1 1 0
1  112 0 0 4.5
2  222 33 0 0 4.5
2  223 34 0 0 4.5
4 G1 33 0 34 0
0

0101000
+262 0 -242 0 *
Wi

0101100
-146 0 -143 0 -241 0 +142 0 +261 0 *
Fa
0  1e-07 33 0

0101000
+141 0 *
Wi

0101100
-259 0 +235 0 -142 0 +239 0 *
Fa
0  1e-07 34 0

0101000
+139 0 *
Ed
 1e-07 1 1 0
1  113 0 0 4.5
2  224 35 0 0 4.5
2  225 37 0 0 4.5
4 G1 35 0 37 0
0

0101000
+178 0 -150 0 *
Wi

0101100
-243 0 +143 0 -147 0 +137 0 +166 0 *
Fa
0  1e-07 35 0

0101000
+136 0 *
Wi

0101100
+215 26 *
Wi

0101100
-202 0 *
Wi

0101100
-187 0 *
Wi

0101100
-197 0 *
Wi

0101100
-207 0 *
Wi

0101100
-192 0 *
Fa
0  1e-07 36 26

0101000
+134 0 +133 0 +132 0 +131 0 +130 0 +129 0 *
Ed
 1e-07 1 1 0
1  114 0 0 4.5
2  226 37 0 0 4.5
2  227 38 0 0 4.5
4 G1 37 0 38 0
0

0101000
+177 0 -152 0 *
Wi

0101100
-149 0 -137 0 +127 0 +176 0 *
Fa
0  1e-07 37 0

0101000
+126 0 *
Ed
 1e-07 1 1 0
1  115 0 -0 4.5
2  228 38 0 -0 4.5
2  229 39 0 -0 4.5
4 G1 38 0 39 0
0

0101000
+175 0 -154 0 *
Wi

0101100
+174 0 -124 0 +127 0 -151 0 *
Fa
0  1e-07 38 0

0101000
+123 0 *
Ed
 1e-07 1 1 0
1  116 0 -0 4.5
2  230 39 0 -0 4.5
2  231 40 0 -0 4.5
4 G1 39 0 40 0
0

0101000
+173 0 -156 0 *
Wi

0101100
-172 0 +124 0 -121 0 +153 0 *
Fa
0  1e-07 39 0

0101000
+120 0 *
Ed
 1e-07 1 1 0
1  117 0 0 4.5
2  232 40 0 0 4.5
2  233 41 0 0 4.5
4 G1 40 0 41 0
0

0101000
+171 0 -158 0 *
Wi

0101100
+170 0 -121 0 +118 0 -155 0 *
Fa
0  1e-07 40 0

0101000
+117 0 *
Wi

0101100
-157 0 -162 0 +118 0 +168 0 *
Fa
0  1e-07 41 0

0101000
+115 0 *
Sh

0101100
-394 0 +348 0 -343 0 +296 0 +293 0 +290 0 -287 0 -284 7 +281 0 +278 7 
-275 0 +256 0 -251 0 +236 0 +233 0 -230 0 +226 0 -223 0 -220 0 +218 0 
+213 0 -210 0 -205 0 -200 0 -195 0 -190 0 -185 0 +182 0 +179 0 -164 0 
+159 0 +144 0 -140 0 -138 0 -135 0 -128 0 -125 0 +122 0 +119 0 -116 0 
+114 0 *
So

0100000
+113 0 *
Ve
1e-07
6 -52.5 95.8
0 0

0101101
*
Ve
1.5e-07
6 -36.5 95.8
0 0

0101101
*
Ed
 1e-07 1 1 0
1  118 0 0 16
2  234 42 0 0 16
2  235 43 0 0 16
0

0101000
+111 78 -110 78 *
Ve
1.5e-07
6 -36.5 108.2
0 0

0101101
*
Ed
 1.5e-07 1 1 0
1  119 0 -12.4 0
2  236 42 0 -12.4 0
2  237 44 0 -12.4 0
0

0101000
+108 78 -110 78 *
Ve
1e-07
6 -52.5 108.2
0 0

0101101
*
Ed
 1e-07 1 1 0
1  120 0 0 16
2  238 42 0 0 16
2  239 45 0 0 16
0

0101000
+106 78 -108 78 *
Ed
 1e-07 1 1 0
1  121 0 0 12.4
2  240 42 0 0 12.4
2  241 46 0 0 12.4
0

0101000
-106 78 +111 78 *
Wi

0101100
-109 0 +107 0 +105 0 +104 0 *
Fa
0  1e-07 42 0

0101000
+103 0 *
Ve
1e-07
10.7 -36.5 108.2
0 0

0101101
*
Ed
 1e-07 1 1 0
1  122 0 0 4.7
2  242 44 0 0 4.7
2  243 45 0 0 4.7
0

0101000
+101 78 -108 78 *
Ve
1e-07
10.7 -36.5 95.8
0 0

0101101
*
Ed
 1e-07 1 1 0
1  123 0 0 4.7
2  244 44 0 0 4.7
2  245 43 0 0 4.7
0

0101000
+99 78 -110 78 *
Ed
 1e-07 1 1 0
1  124 0 0 12.4
2  246 44 0 0 12.4
2  247 47 0 0 12.4
0

0101000
-101 78 +99 78 *
Wi

0101100
-100 0 -107 0 +98 0 -97 0 *
Fa
0  1e-07 44 0

0101000
+96 0 *
Ve
1e-07
-17 -52.5 108.2
0 0

0101101
*
Ed
 1e-07 1 1 0
1  125 0 0 23
2  248 46 0 0 23
2  249 45 0 0 23
0

0101000
-94 78 +106 78 *
Ve
1e-07
-17 -52.5 95.8
0 0

0101101
*
Ed
 1e-07 1 1 0
1  126 0 0 12.4
2  250 46 0 0 12.4
2  251 48 0 0 12.4
0

0101000
-94 78 +92 78 *
Ed
 1e-07 1 1 0
1  127 0 0 23
2  252 46 0 0 23
2  253 43 0 0 23
0

0101000
-92 78 +111 78 *
Wi

0101100
-104 0 -93 0 +91 0 +90 0 *
Fa
0  1e-07 46 0

0111000
+89 0 *
Ve
1.5e-07
-17 -36.5 95.8
0 0

0101101
*
Ed
 1e-07 1 1 0
1  128 0 0 16
2  254 48 0 0 16
2  255 43 0 0 16
0

0101000
+92 78 -87 78 *
Ve
1.5e-07
-17 -36.5 108.2
0 0

0101101
*
Ed
 1.5e-07 1 1 0
1  129 0 -12.4 0
2  256 48 0 -12.4 0
2  257 49 0 -12.4 0
0

0101000
+85 78 -87 78 *
Ed
 1e-07 1 1 0
1  130 0 0 16
2  258 48 0 0 16
2  259 45 0 0 16
0

0101000
+94 78 -85 78 *
Wi

0101100
-86 0 +84 0 +83 0 +91 0 *
Fa
0  1e-07 48 0

0101000
+82 0 *
Ve
1e-07
10.7 -34 95.8
0 0

0101101
*
Ed
 1e-07 1 1 0
1  131 0 0 2.5
2  260 47 0 0 2.5
2  261 43 0 0 2.5
0

0101000
-80 78 +99 78 *
Ve
1e-07
10.7 -34 108.2
0 0

0101101
*
Ed
 1e-07 1 1 0
1  132 0 0 12.4
2  262 47 0 0 12.4
2  263 50 0 0 12.4
0

0101000
-78 78 +80 78 *
Ed
 1e-07 1 1 0
1  133 0 0 2.5
2  264 47 0 0 2.5
2  265 45 0 0 2.5
0

0101000
-78 78 +101 78 *
Wi

0101100
-79 0 -77 0 +76 0 +97 0 *
Fa
0  1e-07 47 0

0111000
+75 0 *
Ve
1e-07
-21.7 -36.5 108.2
0 0

0101101
*
Ed
 1e-07 1 1 0
1  134 0 27.7 32.4
2  266 49 0 27.7 32.4
2  267 45 0 27.7 32.4
0

0101000
+85 78 -73 78 *
Ve
1e-07
-21.7 -36.5 95.8
0 0

0101101
*
Ed
 1e-07 1 1 0
1  135 0 0 12.4
2  268 49 0 0 12.4
2  269 51 0 0 12.4
0

0101000
-73 78 +71 78 *
Ed
 1e-07 1 1 0
1  136 0 27.7 32.4
2  270 49 0 27.7 32.4
2  271 43 0 27.7 32.4
0

0101000
+87 78 -71 78 *
Wi

0101100
-72 0 +70 0 +69 0 +84 0 *
Fa
0  1e-07 49 0

0101000
+68 0 *
Ve
1.5e-07
6 -34 108.2
0 0

0101101
*
Ed
 1e-07 1 1 0
1  137 0 0 4.7
2  272 50 0 0 4.7
2  273 45 0 0 4.7
0

0101000
+78 78 -66 78 *
Ve
1.5e-07
6 -34 95.8
0 0

0101101
*
Ed
 1.5e-07 1 1 0
1  138 0 -12.4 0
2  274 50 0 -12.4 0
2  275 52 0 -12.4 0
0

0101000
+66 78 -64 78 *
Ed
 1e-07 1 1 0
1  139 0 0 4.7
2  276 50 0 0 4.7
2  277 43 0 0 4.7
0

0101000
+80 78 -64 78 *
Wi

0101100
-65 0 -63 0 +62 0 -77 0 *
Fa
0  1e-07 50 0

0101000
+61 0 *
Ve
1e-07
-21.7 -34 95.8
0 0

0101101
*
Ed
 1e-07 1 1 0
1  140 0 0 2.5
2  278 51 0 0 2.5
2  279 43 0 0 2.5
0

0101000
-59 78 +71 78 *
Ve
1e-07
-21.7 -34 108.2
0 0

0101101
*
Ed
 1e-07 1 1 0
1  141 0 0 12.4
2  280 51 0 0 12.4
2  281 53 0 0 12.4
0

0101000
-57 78 +59 78 *
Ed
 1e-07 1 1 0
1  142 0 0 2.5
2  282 51 0 0 2.5
2  283 45 0 0 2.5
0

0101000
-57 78 +73 78 *
Wi

0101100
-58 0 -56 0 +55 0 +70 0 *
Fa
0  1e-07 51 0

0111000
+54 0 *
Ve
1.5e-07
-17 -34 108.2
0 0

0101101
*
Ed
 1e-07 1 1 0
1  143 0 27.7 32.4
2  284 53 0 27.7 32.4
2  285 45 0 27.7 32.4
0

0101000
+52 78 -57 78 *
Ve
1.5e-07
-17 -34 95.8
0 0

0101101
*
Ed
 1e-07 1 1 0
1  144 0 27.7 32.4
2  286 53 0 27.7 32.4
2  287 43 0 27.7 32.4
0

0101000
+50 78 -59 78 *
Ed
 1.5e-07 1 1 0
1  145 0 -12.4 0
2  288 53 0 -12.4 0
2  289 54 0 -12.4 0
0

0101000
+52 78 -50 78 *
Wi

0101100
-51 0 +56 0 +49 0 +48 0 *
Fa
0  1e-07 53 0

0101000
+47 0 *
Ve
1e-07
-17 -30 95.8
0 0

0101101
*
Ed
 1e-07 1 1 0
1  146 0 18.5 22.5
2  290 54 0 18.5 22.5
2  291 43 0 18.5 22.5
0

0101000
+50 78 -45 78 *
Ve
1e-07
-17 -30 108.2
0 0

0101101
*
Ed
 1e-07 1 1 0
1  147 0 0 12.4
2  292 54 0 0 12.4
2  293 55 0 0 12.4
0

0101000
-43 78 +45 78 *
Ed
 1e-07 1 1 0
1  148 0 18.5 22.5
2  294 54 0 18.5 22.5
2  295 45 0 18.5 22.5
0

0101000
+52 78 -43 78 *
Wi

0101100
-44 0 -42 0 +41 0 -48 0 *
Fa
0  1e-07 54 0

0101000
+40 0 *
Ve
1e-07
6 -30 108.2
0 0

0101101
*
Ve
1e-07
6 -30 95.8
0 0

0101101
*
Ed
 1e-07 1 1 0
1  149 0 0 12.4
2  296 55 0 0 12.4
2  297 52 0 0 12.4
0

0101000
-38 78 +37 78 *
Ed
 1e-07 1 1 0
1  150 0 0 23
2  298 55 0 0 23
2  299 45 0 0 23
0

0101000
-43 78 +38 78 *
Ed
 1e-07 1 1 0
1  151 0 0 23
2  300 55 0 0 23
2  301 43 0 0 23
0

0101000
-45 78 +37 78 *
Wi

0101100
-36 0 -35 0 +34 0 +42 0 *
Ve
1e-07
-5.9 -30 102
0 0

0101101
*
Ed
 1e-07 1 1 0
1  152 0 0 6.28318530717959
2  302 55 0 0 6.28318530717959
2  303 56 0 0 6.28318530717959
0

0101000
+32 78 -32 78 *
Wi

0101100
-31 0 *
Fa
0  1e-07 55 0

0101000
+33 0 +30 0 *
Ed
 1e-07 1 1 0
1  153 0 18.5 22.5
2  304 52 0 18.5 22.5
2  305 43 0 18.5 22.5
0

0101000
+64 78 -37 78 *
Ed
 1e-07 1 1 0
1  154 0 18.5 22.5
2  306 52 0 18.5 22.5
2  307 45 0 18.5 22.5
0

0101000
+66 78 -38 78 *
Wi

0101100
-28 0 -36 0 +27 0 -63 0 *
Fa
0  1e-07 52 0

0101000
+26 0 *
Ve
1e-07
-5.9 -26 102
0 0

0101101
*
Ed
 1e-07 1 1 0
1  155 0 0 6.28318530717959
2  308 56 0 0 6.28318530717959
2  309 57 0 0 6.28318530717959
0

0101000
+24 78 -24 78 *
Ed
 1e-07 1 1 0
1  156 0 0 4
3  310 311CN 56 0 0 4
0

0101000
+32 78 -24 78 *
Wi

0101100
-23 0 +22 0 +31 0 -22 0 *
Fa
0  1e-07 56 0

0101000
+21 0 *
Ve
1e-07
-9 -26 102
0 0

0101101
*
Ed
 1e-07 1 1 0
1  157 0 0 6.28318530717959
2  312 57 0 0 6.28318530717959
2  313 58 0 0 6.28318530717959
0

0101000
+19 78 -19 78 *
Wi

0101100
+18 0 *
Wi

0101100
-23 0 *
Fa
0  1e-07 57 0

0101000
+17 0 +16 0 *
Ve
1e-07
-9 -24 102
0 0

0101101
*
Ed
 1e-07 1 1 0
1  158 0 0 6.28318530717959
2  314 58 0 0 6.28318530717959
2  315 59 0 0 6.28318530717959
0

0101000
+14 78 -14 78 *
Ed
 1e-07 1 1 0
1  159 0 0 2
3  316 317CN 58 0 0 2
0

0101000
-14 78 +19 78 *
Wi

0101100
-13 0 +12 0 +18 0 -12 0 *
Fa
0  1e-07 58 0

0111000
+11 0 *
Wi

0101100
+13 0 *
Fa
0  1e-07 59 0

0111000
+9 0 *
Wi

0101100
+86 0 +69 0 +58 0 -49 0 +44 0 -34 0 -28 0 -62 0 -79 0 +98 0 
-109 0 +90 0 *
Fa
0  1e-07 43 0

0101000
+7 0 *
Wi

0101100
-83 0 -93 0 +105 0 -100 0 +76 0 +65 0 +27 0 +35 0 -41 0 +51 0 
-55 0 -72 0 *
Fa
0  1e-07 45 0

0101000
+5 0 *
Sh

0101100
-102 0 -95 0 -88 0 +81 0 -74 0 -67 0 +60 0 +53 0 +46 0 +39 0 
+29 0 -25 0 +20 0 -15 0 +10 0 +8 0 +6 0 +4 0 *
So

0100000
+3 0 *
Co

1100000
+112 0 +2 77 *

+1 1 