DBRep_DrawableShape

CASCADE Topology V1, (c) Matra-Datavision
Locations 78
1
              1               0               0              -0 
              0               1               0             -30 
              0               0               1             -71 
1
             -1 -1.22464679914735e-16               0               0 
1.22464679914735e-16              -1               0               0 
              0               0               1               0 
1
              1               0               0               0 
              0               1               0               0 
              0               0               1               0 
1
              1               0               0               0 
              0 1.11022302462516e-16              -1               0 
              0               1 1.11022302462516e-16               0 
1
              1               0               0               0 
              0               1               0               0 
              0               0               1               0 
1
              1               0               0               0 
              0               1               0              30 
              0               0               1             102 
2  2 1 3 1 4 1 5 1 6 1 0
2  6 -1 5 -1 4 -1 3 -1 2 -1 0
1
             -1 -1.22464679914735e-16               0               0 
1.22464679914735e-16              -1               0               0 
              0               0               1               0 
1
              1               0               0               0 
              0               1               0               0 
              0               0               1               0 
1
              1               0               0               0 
              0 1.11022302462516e-16               1               0 
              0              -1 1.11022302462516e-16               0 
1
              1               0               0               0 
              0               1               0               0 
              0               0               1               0 
1
              1               0               0               0 
              0               1               0              30 
              0               0               1              40 
2  9 1 10 1 11 1 12 1 13 1 0
1
             -1 -1.22464679914735e-16               0               0 
1.22464679914735e-16              -1               0               0 
              0               0               1               0 
1
              1               0               0               0 
              0               1               0               0 
              0               0               1               0 
1
              1               0               0               0 
              0 1.11022302462516e-16              -1               0 
              0               1 1.11022302462516e-16               0 
1
              1               0               0               0 
              0               1               0               0 
              0               0               1               0 
1
              1               0               0               0 
              0               1               0              30 
              0               0               1             102 
2  15 1 16 1 17 1 18 1 19 1 0
1
             -1 -1.22464679914735e-16               0               0 
1.22464679914735e-16              -1               0               0 
              0               0               1               0 
1
              1               0               0               0 
              0               1               0               0 
              0               0               1               0 
1
              1               0               0               0 
              0 1.11022302462516e-16              -1               0 
              0               1 1.11022302462516e-16               0 
1
              1               0               0               0 
              0               1               0               0 
              0               0               1               0 
1
              1               0               0               0 
              0               1               0              30 
              0               0               1             102 
2  21 1 22 1 23 1 24 1 25 1 0
1
             -1 -1.22464679914735e-16               0               0 
1.22464679914735e-16              -1               0               0 
              0               0               1               0 
1
              1               0               0               0 
              0               1               0               0 
              0               0               1               0 
1
              1               0               0               0 
              0 1.11022302462516e-16               1               0 
              0              -1 1.11022302462516e-16               0 
1
              1               0               0               0 
              0               1               0               0 
              0               0               1               0 
1
              1               0               0               0 
              0               1               0              30 
              0               0               1              40 
2  27 1 28 1 29 1 30 1 31 1 0
1
             -1 -1.22464679914735e-16               0               0 
1.22464679914735e-16              -1               0               0 
              0               0               1               0 
1
              1               0               0               0 
              0               1               0               0 
              0               0               1               0 
1
              1               0               0               0 
              0 1.11022302462516e-16               1               0 
              0              -1 1.11022302462516e-16               0 
1
              1               0               0               0 
              0               1               0               0 
              0               0               1               0 
1
              1               0               0               0 
              0               1               0              30 
              0               0               1              40 
2  33 1 34 1 35 1 36 1 37 1 0
1
             -1 -1.22464679914735e-16               0               0 
1.22464679914735e-16              -1               0               0 
              0               0               1               0 
1
              1               0               0               0 
              0               1               0               0 
              0               0               1               0 
1
              1               0               0               0 
              0 1.11022302462516e-16               1               0 
              0              -1 1.11022302462516e-16               0 
1
              1               0               0               0 
              0               1               0               0 
              0               0               1               0 
1
              1               0               0               0 
              0               1               0              30 
              0               0               1              40 
2  39 1 40 1 41 1 42 1 43 1 0
1
             -1 -1.22464679914735e-16               0               0 
1.22464679914735e-16              -1               0               0 
              0               0               1               0 
1
              1               0               0               0 
              0               1               0               0 
              0               0               1               0 
1
              1               0               0               0 
              0 1.11022302462516e-16               1               0 
              0              -1 1.11022302462516e-16               0 
1
              1               0               0               0 
              0               1               0               0 
              0               0               1               0 
1
              1               0               0               0 
              0               1               0              30 
              0               0               1              40 
2  45 1 46 1 47 1 48 1 49 1 0
1
             -1 -1.22464679914735e-16               0               0 
1.22464679914735e-16              -1               0               0 
              0               0               1               0 
1
              1               0               0               0 
              0               1               0               0 
              0               0               1               0 
1
              1               0               0               0 
              0 1.11022302462516e-16              -1               0 
              0               1 1.11022302462516e-16               0 
1
              1               0               0               0 
              0               1               0               0 
              0               0               1               0 
1
              1               0               0               0 
              0               1               0              30 
              0               0               1             102 
2  51 1 52 1 53 1 54 1 55 1 0
1
             -1 -1.22464679914735e-16               0               0 
1.22464679914735e-16              -1               0               0 
              0               0               1               0 
1
              1               0               0               0 
              0               1               0               0 
              0               0               1               0 
1
              1               0               0               0 
              0 1.11022302462516e-16               1               0 
              0              -1 1.11022302462516e-16               0 
1
              1               0               0               0 
              0               1               0               0 
              0               0               1               0 
1
              1               0               0               0 
              0               1               0              30 
              0               0               1              40 
2  57 1 58 1 59 1 60 1 61 1 0
2  13 -1 12 -1 11 -1 10 -1 9 -1 0
2  19 -1 18 -1 17 -1 16 -1 15 -1 0
2  25 -1 24 -1 23 -1 22 -1 21 -1 0
2  31 -1 30 -1 29 -1 28 -1 27 -1 0
2  37 -1 36 -1 35 -1 34 -1 33 -1 0
2  43 -1 42 -1 41 -1 40 -1 39 -1 0
2  49 -1 48 -1 47 -1 46 -1 45 -1 0
2  55 -1 54 -1 53 -1 52 -1 51 -1 0
2  61 -1 60 -1 59 -1 58 -1 57 -1 0
1
             -1 -1.22464679914735e-16               0               0 
1.22464679914735e-16              -1               0               0 
              0               0               1               0 
1
              1               0               0               0 
              0               1               0               0 
              0               0               1               0 
1
              1               0               0               0 
              0 1.11022302462516e-16              -1               0 
              0               1 1.11022302462516e-16               0 
1
              1               0               0               0 
              0               1               0               0 
              0               0               1               0 
1
              1               0               0               0 
              0               1               0              30 
              0               0               1             102 
2  72 1 73 1 74 1 75 1 76 1 0
2  76 -1 75 -1 74 -1 73 -1 72 -1 0
Curve2ds 317
1 0 4.5 1 0 
1 -47.027043251921853 -8.766528222487997 0 1 
1 10.999999999999998 0 0 1 
1 1.5707963267948966 0 0 1 
1 12.000000000000002 0 0 1 
1 1.5707963267948966 0 0 1 
1 0 0 1 0 
1 46.835304819711766 -8.8646123601942932 0 1 
1 0 0 1 0 
1 46.835304819711766 -8.8646123601942932 0 1 
8 0.049999999999997158 3.0000005999999999
1 11.5 -0.5 0 1 
2 -36.027043251921853 2.2334717775120017 1 0 0 -1 11
1 -1.5707963267948966 4.5 1 0 
2 -36.027043251921853 3.2334717775120043 1 0 -0 1 11
1 -1.5707963267948966 4.5 1 0 
1 -47.027043251921853 -8.766528222487997 1 0 
1 43.979448755603045 -12.912132493621382 -1 0 
1 -47.027043251921853 14.233471777512003 1 0 
1 0 -4.5 1 0 
1 14.972956748078147 14.433471777512001 1.2246467991473532e-16 -1 
1 0 0 0 1 
1 14.972956748078147 14.433471777512001 1.2246467991473532e-16 -1 
1 0 0 0 1 
1 36.972956748078147 -19.966528222487995 -1 -1.2246467991473532e-16 
1 0 0 0 -1 
1 36.972956748078147 14.433471777512004 -1 -1.2246467991473532e-16 
1 0 0 0 -1 
1 36.972956748078147 14.433471777512004 1.2246467991473532e-16 -1 
1 17.200000000000003 2.25 -1 1.3596310734468911e-32 
2 -36.027043251921853 -3.766528222487997 -1.2246467991473532e-16 -1 1 -1.2246467991473532e-16 1.1499999999999999
1 6.679274664138223e-65 8.0000000000000071 1 0 
2 25.972956748078147 -16.766528222487999 1.2246467991473532e-16 -1 -1 -1.2246467991473532e-16 1.1499999999999999
1 6.679274664138223e-65 7.9999999999999929 1 0 
8 -4.7667358887560001 19.833264111244002
1 18.972956748078147 4.7667358887560018 1.2246467991473532e-16 -1 
8 -4.7667358887560001 19.833264111244002
1 12.499999999999993 4.7667358887560001 1.3596310734468911e-32 1 
8 2.4864783740390806 16.486478374039081
1 16.486478374039066 -15.066528222488001 1 1.2246467991473532e-16 
8 2.4864783740390806 16.486478374039081
1 12.499999999999991 -16.486478374039081 1.1102230246251565e-16 1 
8 -4.7667358887560001 19.833264111244002
1 32.972956748078147 4.7667358887560036 1.2246467991473532e-16 -1 
8 -4.7667358887560001 19.833264111244002
1 12.499999999999993 4.7667358887560001 1.3596310734468911e-32 1 
8 2.4864783740390806 16.486478374039081
1 16.486478374039066 9.5334717775120019 1 1.2246467991473532e-16 
8 2.4864783740390806 16.486478374039081
1 12.499999999999991 -16.486478374039081 1.1102230246251565e-16 1 
2 -42.527043251921853 2.7334717775120039 -1.2246467991473532e-16 -1 1 -1.2246467991473532e-16 1.1499999999999999
1 6.679274664138223e-65 8.0000000000000071 1 0 
2 -36.027043251921853 2.733471777512003 -1.2246467991473532e-16 -1 1 -1.2246467991473532e-16 3.2000000000000002
1 6.679274664138223e-65 8.0000000000000071 1 0 
2 -29.527043251921853 2.7334717775120021 -1.2246467991473532e-16 -1 1 -1.2246467991473532e-16 1.1499999999999999
1 6.679274664138223e-65 8.0000000000000071 1 0 
2 -36.027043251921853 9.233471777512003 -1.2246467991473532e-16 -1 1 -1.2246467991473532e-16 1.1499999999999999
1 6.679274664138223e-65 8.0000000000000071 1 0 
2 25.972956748078147 11.233471777512003 1.2246467991473532e-16 -1 -1 -1.2246467991473532e-16 1.1499999999999999
1 6.679274664138223e-65 7.9999999999999929 1 0 
1 -1.5707963267948966 0 1 0 
2 35.835304819711766 2.1353876398057055 -1 0 -0 -1 11
1 0 0 0 1 
1 32.979448755603045 -8.4121324936213817 0 -1 
1 -1.5707963267948966 0 1 0 
2 35.835304819711766 3.1353876398057081 -1 0 0 1 11
1 0 0 0 1 
1 11 0 0 -1 
1 46.835304819711766 -8.8646123601942932 -1 0 
1 43.979448755603045 -8.4121324936213817 -1 0 
1 13.923426002951508 -8.8646123601942932 0 1 
8 -5.999999999062311e-07 4.5000005999999999
1 0.95958043906539248 0 0 1 
1 31.335304819711766 -4.3646123601942932 1 0 
8 -37.5 -15.5
1 -15.5 -24.5 -1 -0 
1 -4.2528163635279839 -8.8646123601942932 0 1 
8 -5.999999999062311e-07 4.5000005999999999
1 0.95958043906539281 0 0 1 
1 46.835304819711766 -8.8646123601942932 -1 0 
1 43.979448755603045 -8.4121324936213817 -1 0 
1 -15.164695180288234 14.335387639805704 -1.2246467991473532e-16 -1 
1 4.5 0 0 1 
1 -37.164695180288234 -20.064612360194293 1 -1.2246467991473532e-16 
1 4.5 0 0 -1 
1 -37.164695180288234 14.335387639805708 -1.2246467991473532e-16 -1 
1 17.200000000000003 -2.25 -1 1.3596310734468911e-32 
1 -37.164695180288234 14.335387639805708 1 -1.2246467991473532e-16 
1 4.5 0 0 -1 
1 -15.164695180288234 14.335387639805704 -1.2246467991473532e-16 -1 
1 4.5 0 0 1 
1 46.835304819711766 14.135387639805707 -1 0 
1 0 0 1 0 
2 -26.164695180288234 -16.864612360194293 -1.2246467991473532e-16 -1 1 -1.2246467991473532e-16 1.1499999999999999
1 6.679274664138223e-65 12.499999999999993 1 0 
8 -19.882306180097149 4.717693819902852
1 -33.164695180288234 4.7176938199028555 1.2246467991473532e-16 1 
8 -19.882306180097149 4.717693819902852
1 16.999999999999993 4.717693819902852 -1.3596310734468911e-32 -1 
8 -16.582347590144114 -2.5823475901441135
1 -16.582347590144124 -15.164612360194297 1 -1.2246467991473532e-16 
8 -16.582347590144114 -2.5823475901441135
1 16.999999999999989 -16.582347590144114 -1.1102230246251565e-16 -1 
8 -19.882306180097149 4.717693819902852
1 -19.164695180288234 4.7176938199028537 1.2246467991473532e-16 1 
8 -19.882306180097149 4.717693819902852
1 16.999999999999993 4.717693819902852 -1.3596310734468911e-32 -1 
8 -16.582347590144114 -2.5823475901441135
1 -16.582347590144124 9.4353876398057057 1 -1.2246467991473532e-16 
8 -16.582347590144114 -2.5823475901441135
1 16.999999999999989 -16.582347590144114 -1.1102230246251565e-16 -1 
2 -26.164695180288234 11.135387639805707 -1.2246467991473532e-16 -1 1 -1.2246467991473532e-16 1.1499999999999999
1 6.679274664138223e-65 12.499999999999993 1 0 
2 35.835304819711766 2.6353876398057068 1.2246467991473532e-16 -1 -1 -1.2246467991473532e-16 11
1 6.679274664138223e-65 0.5 1 0 
2 35.835304819711766 2.6353876398057068 1.2246467991473532e-16 -1 -1 -1.2246467991473532e-16 11
1 6.679274664138223e-65 0.5 1 0 
1 -18.020551244396955 -10.662132493621382 1.1102230246251565e-16 -1 
8 -2.25 2.25
1 2.25 23.199999999999996 -1 0 
2 2.4194487556030424 -2.3521324936213865 -1 0 -0 -1 10.560000000000002
1 -1.5707963267948966 0 1 0 
1 12.979448755603045 16.087867506378618 0 -1 
1 0 0 0 1 
2 2.4194487556030424 5.5278675063786231 -1 0 0 1 10.560000000000002
1 -1.5707963267948966 0 1 0 
1 12.979448755603045 16.087867506378618 -1 0 
1 26.495659664459097 -11.496438584407668 -1 0 
1 -29.020551244396955 16.087867506378618 0 -1 
1 0 0 0 1 
1 12.979448755603045 11.587867506378618 -1 0 
1 0 0 1 0 
2 1.5394487556030469 5.5278675063786231 -1 0 -0 -1 10.560000000000002
1 -4.7123889803846897 0 1 0 
1 -9.0205512443969553 16.087867506378618 0 -1 
1 0 0 0 1 
2 1.5394487556030469 -2.3521324936213865 -1 0 0 1 10.560000000000002
1 -4.7123889803846897 0 1 0 
8 -2.25 2.25
1 62 -2.25 -1.1102230246251565e-16 -1 
8 -2.25 2.25
1 2.25 0.19999999999999751 -1 0 
1 0 34.399999999999999 1 0 
1 0 -22 1 0 
1 0 0 1 0 
1 0 -22 1 0 
1 0 0 1 0 
1 -17.199999999999999 2.25 0 -1 
1 0 0 1 0 
1 17.200000000000003 2.25 0 -1 
1 6.2831853071795862 -0 0 1 
1 0 -0 0 1 
1 6.679274664138223e-65 3 1 0 
2 6.5 7.9602041944577955e-16 1 0 -0 1 1.1499999999999999
1 6.2831853071795862 -0 0 1 
1 0 -0 0 1 
1 0 24.600000000000001 1 0 
1 0 -14 1 0 
1 0 0 1 0 
1 0 -14 1 0 
1 0 0 1 0 
1 0 24.600000000000001 1 0 
1 0 0 1 0 
1 0 0 1 0 
1 6.2831853071795862 -0 0 1 
1 0 -0 0 1 
1 6.679274664138223e-65 3 1 0 
2 3.6977854932234928e-32 -6.5 1 0 -0 1 1.1499999999999999
1 6.2831853071795862 -0 0 1 
1 0 -0 0 1 
1 6.679274664138223e-65 3 1 0 
2 0 0 1 0 -0 1 3.2000000000000002
1 6.2831853071795862 -0 0 1 
1 0 -0 0 1 
1 6.679274664138223e-65 3 1 0 
2 -3.6977854932234928e-32 6.5 1 0 -0 1 1.1499999999999999
1 6.2831853071795862 -0 0 1 
1 0 -0 0 1 
1 6.679274664138223e-65 3 1 0 
2 -6.5 -7.9602041944577955e-16 1 0 -0 1 1.1499999999999999
1 6.2831853071795862 -0 0 1 
1 0 -0 0 1 
1 -1.5707963267948966 4.5 1 0 
2 10.560000000000002 -18.440000000000005 1 0 0 -1 10.559999999999999
1 1.5707963267948966 0 0 1 
1 0 18.440000000000005 1 0 
8 -5.999999999062311e-07 4.5000005999999999
1 2.1258803253505718 0 0 -1 
8 -5.999999999062311e-07 4.5000005999999999
1 0.9386110781141519 0 0 1 
8 -22 0
1 0 -4.5 -1 -0 
8 -22 0
1 0 4.5 -1 0 
2 11.439999999999998 -10.559999999999995 1 0 0 -1 10.559999999999999
1 -4.7123889803846897 4.5 1 0 
1 22 0 0 -1 
1 4.5 0 0 1 
2 11.439999999999998 -18.440000000000005 1 0 -0 1 10.559999999999999
1 -4.7123889803846897 4.5 1 0 
1 0 0 0 -1 
1 4.5 0 0 1 
2 10.560000000000002 -10.559999999999995 1 0 -0 1 10.559999999999999
1 -1.5707963267948966 4.5 1 0 
1 1.5707963267948966 0 0 1 
1 0 18.440000000000005 1 0 
1 6.2831853071795862 -0 0 1 
1 0 -0 0 1 
1 0 0 1 0 
2 0 0 1 0 -0 1 11
1 0 10.559999999999995 1 0 
1 1.5707963267948966 0 0 1 
1 0 0 0 1 
1 15.935659664459095 -11.496438584407668 0 1 
7 0 0  7 20 4  0 0.0088035228188179104  0.032352905215852511 0.022480335812473797  0.064545613880150871 0.048498887480632656  0.096481407087598808 0.086638370329235617  0.12806238026856639 0.13641681132521297  0.15918630773508166 0.19709130287937823  0.18974350722682271 0.26765823382932263  0.24143189523657188 0.40470040567715426  0.26291389321233838 0.46723115780280045  0.28406043690992133 0.53410764012594958  0.30487144676717043 0.60499454161249633  0.32534602513427263 0.67955937686752699  0.3454824562737519 0.75747248613532037  0.46277809023105282 1.237033463196382  0.55257234614888506 1.7112359104728663  0.63584878570955494 2.2302366151125224  0.71359904988187661 2.7748274071366286  0.78688351339266316 3.3348920984124062  0.8569191116111996 3.9084347860942077  0.92510776766242131 4.5000005999999999 
 0 8 0.18768653725193049 6 0.32477905943813667 6 1 8
7 0 0  7 20 4  0.040010674353988529 -3.5527136788005009e-15  0.071094340248661153 -3.6171393492831396e-15  0.10206922542130688 0.01289557238988156  0.1328377250648802 0.038456402109831762  0.16330102151036757 0.076190709525274472  0.19335609848592397 0.12534709571671707  0.22289275537600942 0.18491638776957922  0.2728985890954293 0.30382674878216787  0.2936950814082348 0.35897019419532805  0.31417934726065744 0.41870963786607324  0.33434997521575643 0.48269542262017823  0.35420489355793372 0.55058241654662421  0.37374137029293475 0.62203001299759919  0.48759377321059066 1.0644842434960675  0.57496630997373765 1.5125877828415026  0.65611653915830304 2.0086739747583788  0.73196742382808022 2.5327946040383296  0.80352095183459149 3.0742043576907947  0.87194923375125466 3.6304242773953725  0.93861114572649207 4.2055355929524474 
 0 8 0.18768653725193049 6 0.32477905943813667 6 1 8
2 15.495659664459097 -0.49643858440766914 -1 0 -0 -1 11
1 -1.5707963267948966 0 1 0 
1 26.495659664459097 -11.496438584407668 0 1 
1 0 0 1 0 
2 15.495659664459097 0.50356141559233358 -1 0 0 1 11
1 -1.5707963267948966 0 1 0 
1 26.495659664459097 11.503561415592332 -1 0 
1 0 0 1 0 
2 -15.504340335540903 0.50356141559233358 -1 0 -0 -1 11
1 -4.7123889803846897 0 1 0 
1 -26.504340335540903 -11.496438584407668 0 1 
1 0 0 1 0 
2 -15.504340335540903 -0.49643858440766914 -1 0 0 1 11
1 -4.7123889803846897 0 1 0 
1 1.5707963267948966 0 0 1 
1 10.999999999999998 0 0 1 
1 -4.7123889803846897 4.5 1 0 
2 42 10.999999999999998 1 0 -0 1 11
1 0 0 0 1 
1 0 4.5 1 0 
2 11 12.000000000000002 1 0 -0 1 11
1 -1.5707963267948966 4.5 1 0 
1 0 23 1 0 
1 0 -4.5 1 0 
2 42 12.000000000000002 1 0 0 -1 11
1 -4.7123889803846897 4.5 1 0 
1 53 0 0 1 
1 0 4.5 1 0 
8 -5.999999999062311e-07 4.5000005999999999
1 20.08812118323975 0 0 1 
8 -5.999999999062311e-07 4.5000005999999999
1 0.95958043906539281 0 0 1 
2 11 10.999999999999998 1 0 0 -1 11
1 -1.5707963267948966 4.5 1 0 
1 1.5707963267948966 0 0 1 
1 0 10.559999999999995 1 0 
1 1.5707963267948966 0 0 1 
1 10.999999999999998 0 0 1 
1 12.000000000000002 0 0 1 
1 1.5707963267948966 0 0 1 
1 0 0 0 1 
1 11 0 0 -1 
1 42 0 0 -1 
1 0 0 0 1 
1 1.5707963267948966 0 0 1 
1 12.000000000000002 0 0 1 
1 0 0 1 0 
1 12.277322404371587 -11.5 -1 0 
8 -12.4 0
1 16 0 0 1 
8 -12.4 0
1 4.6999999999999993 0 0 -1 
1 0 -12.4 1 0 
1 -12.277322404371578 -11.500000000000002 1 0 
1 0 0 0 -1 
1 0 0 0 1 
1 0 12.4 1 0 
1 3.7226775956284222 -16.200000000000003 0 1 
1 0 0 1 0 
1 -3.7226775956284133 -16.199999999999999 0 1 
1 0 0 0 1 
1 0 0 0 -1 
1 0 12.4 1 0 
1 -12.277322404371578 -11.500000000000002 0 1 
1 23 0 0 1 
1 0 0 0 -1 
1 0 0 1 0 
1 12.277322404371587 -11.5 0 1 
1 0 0 1 0 
1 12.277322404371587 11.5 -1 0 
8 -12.4 0
1 16 0 0 1 
8 -12.4 0
1 27.699999999999999 0 0 -1 
1 0 -12.4 1 0 
1 -12.277322404371578 11.499999999999998 1 0 
1 0 0 1 0 
1 -3.7226775956284133 -16.199999999999999 -1 0 
1 2.5 0 0 -1 
1 0 0 0 1 
1 0 -12.4 1 0 
1 3.7226775956284222 -16.200000000000003 1 0 
1 0 12.4 1 0 
1 3.7226775956284222 -16.200000000000003 0 1 
1 32.399999999999999 0 0 1 
1 0 0 0 -1 
1 0 0 1 0 
1 -3.7226775956284133 -16.199999999999999 0 1 
1 0 12.4 1 0 
1 6.2226775956284222 -16.200000000000003 0 1 
8 -12.4 0
1 4.6999999999999993 0 0 -1 
8 -12.4 0
1 18.5 0 0 1 
1 0 0 1 0 
1 -6.2226775956284133 -16.199999999999999 0 1 
1 0 0 1 0 
1 -3.7226775956284133 16.199999999999999 -1 0 
1 2.5 0 0 -1 
1 32.399999999999999 0 0 1 
1 0 -12.4 1 0 
1 3.7226775956284222 16.199999999999996 1 0 
1 0 12.4 1 0 
1 6.2226775956284222 -16.200000000000003 0 1 
1 0 0 1 0 
1 -6.2226775956284133 -16.199999999999999 0 1 
8 -12.4 0
1 27.699999999999999 0 0 -1 
8 -12.4 0
1 18.5 0 0 1 
1 0 0 1 0 
1 12.277322404371587 11.5 -1 0 
1 22.5 0 0 -1 
1 23 0 0 1 
1 0 -12.4 1 0 
1 -12.277322404371578 11.499999999999998 1 0 
1 0 0 0 1 
1 22.5 0 0 -1 
1 0 12.4 1 0 
1 10.222677595628422 -11.500000000000002 0 1 
1 0 0 1 0 
1 -10.222677595628413 -11.5 0 1 
2 6 6.2000000000000002 1 0 -0 1 5.9000000000000004
1 0 0 1 0 
1 0 0 1 0 
1 12.277322404371587 -11.5 -1 0 
1 0 -12.4 1 0 
1 -12.277322404371578 -11.500000000000002 1 0 
1 0 4 1 0 
2 0 0 1 0 -0 1 5.9000000000000004
1 6.2831853071795862 -0 0 1 
1 0 -0 0 1 
2 0 0 1 0 -0 1 9
1 0 0 1 0 
1 0 2 1 0 
2 0 0 1 0 -0 1 9
1 6.2831853071795862 -0 0 1 
1 0 -0 0 1 
Curves 159
1 -11.5 41 29 1 0 -0 
1 -0.500000000000002 36.5 29 -0 1 0 
1 0.500000000000002 36.5 29 -0 1 0 
1 -11.5 36.5 29 1 0 -0 
1 -11.5 36.5 29 1 0 -0 
1 0 36 29 0 1 1.1102230246251565e-16 
8 1.5707963267948966 3.1415926535897931
2 -0.50000000000000133 41 40 0 -1 -0 0 0 1 -1 -0 0 11
8 1.5707963267948966 3.1415926535897931
2 0.50000000000000133 41 40 -0 1 0 0 0 1 1 0 -0 11
1 -11.5 41 29 0 0 1 
1 11.5 41 29 0 0 1 
1 -11.699999999999999 11 -11 1 0 -0 
1 -11.699999999999999 11 -11 1 0 -0 
1 22.699999999999999 -11 -11 -0 1 0 
1 -11.699999999999999 -11 -11 -0 1 0 
1 11.700000000000001 41 113 -1 1.3596310734468911e-32 1.2246467991473532e-16 
2 -6.5 41.000000000000007 40 0 1 1.1102230246251565e-16 -1 1.3596310734468911e-32 -1.2246467991473532e-16 -1.2246467991473532e-16 -1.1102230246251565e-16 1 1.1499999999999999
2 -19.5 41.000000000000007 102 0 -1 1.1102230246251565e-16 -1 1.3596310734468911e-32 1.2246467991473532e-16 -1.2246467991473532e-16 -1.1102230246251565e-16 -1 1.1499999999999999
1 2.0332641112439989 41.000000000000007 95 -1 0 1.2246467991473532e-16 
1 -17.800000000000004 41.000000000000007 92.513521625960919 1.2246467991473532e-16 -0 1 
1 2.0332641112440006 41.000000000000007 109 -1 0 1.2246467991473532e-16 
1 6.7999999999999989 41.000000000000007 92.513521625960919 1.2246467991473532e-16 -0 1 
2 7.9602041944577955e-16 41.000000000000007 33.5 0 1 1.1102230246251565e-16 -1 1.3596310734468911e-32 -1.2246467991473532e-16 -1.2246467991473532e-16 -1.1102230246251565e-16 1 1.1499999999999999
2 0 41.000000000000007 40 0 1 1.1102230246251565e-16 -1 1.3596310734468911e-32 -1.2246467991473532e-16 -1.2246467991473532e-16 -1.1102230246251565e-16 1 3.2000000000000002
2 -7.9602041944577955e-16 41.000000000000007 46.5 0 1 1.1102230246251565e-16 -1 1.3596310734468911e-32 -1.2246467991473532e-16 -1.2246467991473532e-16 -1.1102230246251565e-16 1 1.1499999999999999
2 6.5 41.000000000000007 40 0 1 1.1102230246251565e-16 -1 1.3596310734468911e-32 -1.2246467991473532e-16 -1.2246467991473532e-16 -1.1102230246251565e-16 1 1.1499999999999999
2 8.5 41.000000000000007 102 0 -1 1.1102230246251565e-16 -1 1.3596310734468911e-32 1.2246467991473532e-16 -1.2246467991473532e-16 -1.1102230246251565e-16 -1 1.1499999999999999
8 1.5707963267948966 3.1415926535897931
2 -0.50000000000000133 36.5 40 0 -1 -0 0 0 1 -1 -0 0 11
1 -11.500000000000002 36.5 40 -0 1 0 
8 1.5707963267948966 3.1415926535897931
2 0.50000000000000133 36.5 40 -0 1 0 0 0 1 1 0 -0 11
1 11.500000000000002 36.5 40 -0 1 0 
1 -11.5 36.5 29 0 0 1 
1 -11.5 36.5 61.911878816760257 1 0 -0 
1 -7 36.5 44.5 -0 0 -1 
1 -11.5 36.5 80.08812118323975 1 0 -0 
1 -11.5 36.5 29 0 0 1 
1 -11.699999999999999 11 -6.5 1 0 -0 
1 22.699999999999999 -11 -6.5 -0 1 0 
1 11.700000000000001 36.5 113 -1 1.3596310734468911e-32 1.2246467991473532e-16 
1 -11.699999999999999 -11 -6.5 -0 1 0 
1 -11.699999999999999 11 -6.5 1 0 -0 
1 11.5 36.5 29 0 0 1 
2 -19.5 36.500000000000007 102 0 -1 1.1102230246251565e-16 -1 1.3596310734468911e-32 1.2246467991473532e-16 -1.2246467991473532e-16 -1.1102230246251565e-16 -1 1.1499999999999999
1 2.0823061800971487 36.500000000000007 109 1 0 -1.2246467991473532e-16 
1 -17.800000000000004 36.500000000000007 92.41765240985589 -1.2246467991473532e-16 0 -1 
1 2.082306180097147 36.500000000000007 95 1 0 -1.2246467991473532e-16 
1 6.7999999999999989 36.500000000000007 92.41765240985589 -1.2246467991473532e-16 0 -1 
2 8.5 36.500000000000007 102 0 -1 1.1102230246251565e-16 -1 1.3596310734468911e-32 1.2246467991473532e-16 -1.2246467991473532e-16 -1.1102230246251565e-16 -1 1.1499999999999999
2 0 36.5 40 0 1 1.1102230246251565e-16 -1 1.3596310734468911e-32 -1.2246467991473532e-16 -1.2246467991473532e-16 -1.1102230246251565e-16 1 11
2 0 36.5 40 0 1 1.1102230246251565e-16 -1 1.3596310734468911e-32 -1.2246467991473532e-16 -1.2246467991473532e-16 -1.1102230246251565e-16 1 11
1 -11.5 38.75 91 -0 1 -1.1102230246251565e-16 
8 1.5707963267948966 3.1415926535897931
2 -11.5 30.440000000000005 70.560000000000002 -1 -0 0 0 0 1 -0 1 0 10.559999999999999
1 -11.5 12 60 -0 1 0 
8 1.5707963267948966 3.1415926535897931
2 -11.5 22.559999999999995 70.560000000000002 1 0 -0 0 0 1 0 -1 0 10.559999999999999
1 -11.5 12 60 0 0 1 
1 -11.500000000000002 12 102 -0 1 0 
1 -11.5 16.5 60 0 0 1 
8 4.7123889803846897 6.2831853071795862
2 -11.5 22.559999999999995 71.439999999999998 -1 -0 0 0 0 1 -0 1 0 10.559999999999999
1 -11.5 12 82 -0 1 0 
8 4.7123889803846897 6.2831853071795862
2 -11.5 30.440000000000005 71.439999999999998 1 0 -0 0 0 1 0 -1 0 10.559999999999999
1 11.5 38.75 91 -0 1 -1.1102230246251565e-16 
1 22.699999999999999 11 -11 0 0 1 
1 -11.699999999999999 11 -11 0 0 1 
1 22.699999999999999 -11 -11 0 0 1 
1 -11.699999999999999 -11 -11 0 0 1 
1 7.6500000000000004 -2.8166876380389135e-16 3 0 0 1 
2 -6.5 36 40 0 1 1.1102230246251565e-16 -1 1.3596310734468911e-32 -1.2246467991473532e-16 -1.2246467991473532e-16 -1.1102230246251565e-16 1 1.1499999999999999
1 20.649999999999999 -2.8166876380389037e-16 -19 0 0 1 
1 17.800000000000001 7 -23.5 0 0 1 
1 -6.7999999999999998 7 -23.5 0 0 1 
1 17.800000000000001 -7 -23.5 0 0 1 
1 -6.7999999999999998 -7 -23.5 0 0 1 
1 1.1499999999999999 -6.5 3 0 0 1 
2 7.9602041944577955e-16 36 33.5 0 1 1.1102230246251565e-16 -1 1.3596310734468911e-32 -1.2246467991473532e-16 -1.2246467991473532e-16 -1.1102230246251565e-16 1 1.1499999999999999
1 3.2000000000000002 -7.8377395145430609e-16 3 0 0 1 
2 0 36 40 0 1 1.1102230246251565e-16 -1 1.3596310734468911e-32 -1.2246467991473532e-16 -1.2246467991473532e-16 -1.1102230246251565e-16 1 3.2000000000000002
1 1.1499999999999999 6.5 3 0 0 1 
2 -7.9602041944577955e-16 36 46.5 0 1 1.1102230246251565e-16 -1 1.3596310734468911e-32 -1.2246467991473532e-16 -1.2246467991473532e-16 -1.1102230246251565e-16 1 1.1499999999999999
1 -5.3499999999999996 -2.8166876380389116e-16 3 0 0 1 
2 6.5 36 40 0 1 1.1102230246251565e-16 -1 1.3596310734468911e-32 -1.2246467991473532e-16 -1.2246467991473532e-16 -1.1102230246251565e-16 1 1.1499999999999999
1 -7.3499999999999996 -2.8166876380389116e-16 -19 0 0 1 
8 1.5707963267948966 3.1415926535897931
2 -7 30.440000000000005 70.560000000000002 -1 -0 0 0 0 1 -0 1 0 10.559999999999999
1 -11.5 30.440000000000005 60 1 0 -0 
1 -7 12 62.125880325350572 -0 1 0 
1 -7 16.5 60 -0 0 -1 
8 4.7123889803846897 6.2831853071795862
2 -7 22.559999999999995 71.439999999999998 -1 -0 0 0 0 1 -0 1 0 10.559999999999999
1 -7 12 82 -0 1 0 
8 4.7123889803846897 6.2831853071795862
2 -7 30.440000000000005 71.439999999999998 1 0 -0 0 0 1 0 -1 0 10.559999999999999
1 -7 12 60 -0 1 0 
8 1.5707963267948966 3.1415926535897931
2 -7 22.559999999999995 70.560000000000002 1 0 -0 0 0 1 0 -1 0 10.559999999999999
1 -11.5 30.440000000000005 82 1 0 -0 
1 11 -2.6942229581241772e-15 6 0 0 1 
2 0 0 6 0 0 1 1 0 -0 -0 1 0 11
1 -11.5 22.559999999999995 60 1 0 -0 
1 -11.5 11.999999999999996 70.560000000000002 1 0 -0 
7 0 0  7 20 4  -11.49119647718118 11.999999999999998 70.560000000000002  -11.477519664187525 11.999999999999998 70.218353320920585  -11.451501112519368 12.012895572389883 69.878398034891831  -11.413361629670764 12.038456402109832 69.541740638907299  -11.363583188674784 12.076190709525275 69.209971870710163  -11.302908697120619 12.125347095716716 68.884657565481248  -11.232341766170677 12.184916387769579 68.567329512527181  -11.095299594322844 12.30382674878217 68.034610041080796  -11.0327688421972 12.358970194195328 67.814487010044743  -10.965892359874053 12.418709637866073 67.599201936382755  -10.895005458387503 12.482695422620177 67.388836272081676  -10.820440623132475 12.550582416546622 67.183458203592693  -10.742527513864681 12.6220300129976 66.98312265183138  -10.262966536803617 13.064484243496068 65.826200875329079  -9.7887640895269818 13.512587782841504 64.982371381432571  -9.2697633848879093 14.008673974758379 64.247672982150533  -8.7251725928628829 14.53279460403833 63.608325228728575  -8.1651079015878203 15.074204357690794 63.049974616636902  -7.5915652139057848 15.630424277395372 62.559182273712281  -6.999999399999993 16.205535592952447 62.125879885870383 
 0 8 0.18768653725193049 6 0.32477905943813667 6 1 8
8 1.5707963267948966 3.1415926535897931
2 -0.50000000000000133 12 71 0 -1 -0 0 0 1 -1 -0 0 11
1 -11.5 12 60 1 0 -0 
8 1.5707963267948966 3.1415926535897931
2 0.50000000000000133 12 71 -0 1 0 0 0 1 1 0 -0 11
1 11.5 12 60 0 0 1 
8 4.7123889803846897 6.2831853071795862
2 0.50000000000000133 12 102 0 -1 -0 0 0 1 -1 -0 0 11
1 -11.5 12 113 1 0 -0 
8 4.7123889803846897 6.2831853071795862
2 -0.50000000000000133 12 102 -0 1 0 0 0 1 1 0 -0 11
1 -0.500000000000002 12 113 -0 1 0 
8 4.7123889803846897 6.2831853071795862
2 -0.50000000000000133 16.5 102 -0 1 0 0 0 1 1 0 -0 11
1 -11.5 16.5 60 1 0 -0 
8 1.5707963267948966 3.1415926535897931
2 0.50000000000000133 16.5 71 -0 1 0 0 0 1 1 0 -0 11
1 11.5 16.5 60 0 0 1 
8 4.7123889803846897 6.2831853071795862
2 0.50000000000000133 16.5 102 0 -1 -0 0 0 1 -1 -0 0 11
1 -11.5 16.5 113 1 0 -0 
1 -11.5 16.5 80.08812118323975 1 0 -0 
8 1.5707963267948966 3.1415926535897931
2 -0.50000000000000133 16.5 71 0 -1 -0 0 0 1 -1 -0 0 11
1 -11.5 22.559999999999995 82 1 0 -0 
1 -0.500000000000002 12 60 -0 1 0 
1 0.500000000000002 12 60 -0 1 0 
1 11.500000000000002 12 71 -0 1 0 
1 11.500000000000002 12 102 -0 1 0 
1 0.500000000000002 12 113 -0 1 0 
1 -6 -6.2000000000000002 -22.5 0 0 1 
1 -6 -6.2000000000000002 -6.5 0 -1 0 
1 -6 6.2000000000000002 -22.5 0 0 1 
1 -6 -6.2000000000000002 -22.5 -0 1 0 
1 -10.699999999999999 6.2000000000000002 -6.5 1 0 -0 
1 -10.699999999999999 -6.2000000000000002 -6.5 1 0 -0 
1 -10.699999999999999 -6.2000000000000002 -6.5 -0 1 0 
1 -6 6.2000000000000002 -22.5 1 0 -0 
1 17 -6.2000000000000002 -22.5 -0 1 0 
1 -6 -6.2000000000000002 -22.5 1 0 -0 
1 17 -6.2000000000000002 -22.5 0 0 1 
1 17 -6.2000000000000002 -6.5 0 -1 0 
1 17 6.2000000000000002 -22.5 0 0 1 
1 -10.699999999999999 -6.2000000000000002 -6.5 0 0 1 
1 -10.699999999999999 -6.2000000000000002 -4 -0 1 0 
1 -10.699999999999999 6.2000000000000002 -6.5 0 0 1 
1 -10.699999999999999 6.2000000000000002 -6.5 1 0 -0 
1 21.699999999999999 -6.2000000000000002 -6.5 -0 1 0 
1 -10.699999999999999 -6.2000000000000002 -6.5 1 0 -0 
1 -10.699999999999999 6.2000000000000002 -4 1 0 -0 
1 -6 -6.2000000000000002 -4 0 -1 0 
1 -10.699999999999999 -6.2000000000000002 -4 1 0 -0 
1 21.699999999999999 -6.2000000000000002 -6.5 0 0 1 
1 21.699999999999999 -6.2000000000000002 -4 -0 1 0 
1 21.699999999999999 6.2000000000000002 -6.5 0 0 1 
1 -10.699999999999999 6.2000000000000002 -4 1 0 -0 
1 -10.699999999999999 -6.2000000000000002 -4 1 0 -0 
1 17 -6.2000000000000002 -4 0 -1 0 
1 17 -6.2000000000000002 -22.5 0 0 1 
1 17 -6.2000000000000002 0 -0 1 0 
1 17 6.2000000000000002 -22.5 0 0 1 
1 -6 -6.2000000000000002 0 -0 1 0 
1 -6 6.2000000000000002 0 1 0 -0 
1 -6 -6.2000000000000002 0 1 0 -0 
2 0 0 0 0 0 1 1 0 -0 -0 1 0 5.9000000000000004
1 -6 -6.2000000000000002 -22.5 0 0 1 
1 -6 6.2000000000000002 -22.5 0 0 1 
2 0 0 4 0 0 1 1 0 -0 -0 1 0 5.9000000000000004
1 5.9000000000000004 -1.4450832229938768e-15 0 0 0 1 
2 0 0 4 0 0 1 1 0 -0 -0 1 0 9
2 0 0 6 0 0 1 1 0 -0 -0 1 0 9
1 9 -2.2043642384652358e-15 4 0 0 1 
Polygon3D 0
PolygonOnTriangulations 0
Surfaces 59
1 -11.5 36.5 29 0 0 1 1 0 -0 -0 1 0 
1 -2.733471777512003 41.000000000000007 76.027043251921853 0 1 0 0 -0 1 1 0 -0 
2 -0.50000000000000133 36.5 40 -0 1 0 -1 -0 0 -0 -0 -1 11
2 0.50000000000000133 36.5 40 -0 1 0 1 0 -0 -0 0 -1 11
1 -2.6353876398057068 36.500000000000007 75.835304819711766 -0 -1 -0 0 0 -1 1 -0 0 
1 -11.500000000000002 28.087867506378618 72.979448755603045 -1 -0 -0 0 0 -1 0 -1 0 
1 11.5 36.5 29 1 0 -0 0 0 1 0 -1 0 
1 -11.699999999999999 11 -11 -0 1 0 0 0 1 1 0 -0 
1 -11.699999999999999 11 -11 -0 1 0 0 0 1 1 0 -0 
1 22.699999999999999 -11 -11 1 0 -0 0 0 1 0 -1 0 
1 -11.699999999999999 -11 -11 1 0 -0 0 0 1 0 -1 0 
1 -5.5000000000000009 38.75 113.00000000000001 0 0 1 1 0 -0 -0 1 0 
2 6.5 0 3 0 0 1 1 0 -0 -0 1 0 1.1499999999999999
2 19.5 0 -19 0 0 1 1 0 -0 -0 1 0 1.1499999999999999
1 -6.7999999999999998 7 -23.5 -0 1 0 0 0 1 1 0 -0 
1 17.800000000000001 -7 -23.5 1 0 -0 0 0 1 0 -1 0 
1 -6.7999999999999998 -7 -23.5 -0 1 0 0 0 1 1 0 -0 
1 -6.7999999999999998 -7 -23.5 1 0 -0 0 0 1 0 -1 0 
2 0 -6.5 3 0 0 1 1 0 -0 -0 1 0 1.1499999999999999
2 0 0 3 0 0 1 1 0 -0 -0 1 0 3.2000000000000002
2 0 6.5 3 0 0 1 1 0 -0 -0 1 0 1.1499999999999999
2 -6.5 0 3 0 0 1 1 0 -0 -0 1 0 1.1499999999999999
2 -8.5 0 -19 0 0 1 1 0 -0 -0 1 0 1.1499999999999999
2 -11.5 30.440000000000005 70.560000000000002 1 0 -0 0 1 0 -0 0 -1 10.559999999999999
1 -7 12 60 1 0 -0 0 0 1 0 -1 0 
2 -11.5 30.440000000000005 71.439999999999998 1 0 -0 0 1 0 0 -0 1 10.559999999999999
2 0 0 6 0 0 1 1 0 -0 -0 1 0 11
1 -11.5 12 60 0 0 1 1 0 -0 -0 1 0 
2 -11.5 22.559999999999995 70.560000000000002 1 0 -0 0 -1 0 0 -0 -1 10.559999999999999
1 -0.0035614155923321968 12 86.495659664459097 -0 -1 -0 0 0 -1 1 -0 0 
2 -0.50000000000000133 12 102 -0 1 0 -1 -0 0 0 0 1 11
1 -11.5 16.5 60 -0 1 0 0 0 1 1 0 -0 
2 -11.5 22.559999999999995 71.439999999999998 1 0 -0 0 -1 0 -0 0 1 10.559999999999999
1 -11.5 12 82 0 0 1 1 0 -0 -0 1 0 
1 0 0 6 0 0 1 1 0 -0 -0 1 0 
2 -0.50000000000000133 12 71 -0 1 0 -1 -0 0 -0 -0 -1 11
1 -11.5 12 60 0 0 1 1 0 -0 -0 1 0 
2 0.50000000000000133 12 71 -0 1 0 1 0 -0 -0 0 -1 11
1 11.5 12 60 1 0 -0 0 0 1 0 -1 0 
2 0.50000000000000133 12 102 -0 1 0 1 0 -0 0 -0 1 11
1 -11.5 12 113 0 0 1 1 0 -0 -0 1 0 
1 -6 -6.2000000000000002 -22.5 1 0 -0 0 0 1 0 -1 0 
1 5.5 -6.1999999999999993 -10.222677595628413 -0 -1 -0 0 0 -1 1 -0 0 
1 -10.699999999999999 -6.2000000000000002 -6.5 0 0 1 1 0 -0 -0 1 0 
1 5.5000000000000018 6.2000000000000028 -10.222677595628422 0 1 0 0 -0 1 1 0 -0 
1 -6 -6.2000000000000002 -22.5 0 0 1 1 0 -0 -0 1 0 
1 -10.699999999999999 -6.2000000000000002 -6.5 1 0 -0 0 0 1 0 -1 0 
1 17 -6.2000000000000002 -22.5 1 0 -0 0 0 1 0 -1 0 
1 -10.699999999999999 -6.2000000000000002 -6.5 0 0 1 1 0 -0 -0 1 0 
1 -10.699999999999999 -6.2000000000000002 -4 0 0 1 1 0 -0 -0 1 0 
1 21.699999999999999 -6.2000000000000002 -6.5 1 0 -0 0 0 1 0 -1 0 
1 -6 -6.2000000000000002 -22.5 1 0 -0 0 0 1 0 -1 0 
1 -10.699999999999999 -6.2000000000000002 -4 0 0 1 1 0 -0 -0 1 0 
1 17 -6.2000000000000002 -22.5 1 0 -0 0 0 1 0 -1 0 
1 -6 -6.2000000000000002 0 0 0 1 1 0 -0 -0 1 0 
2 0 0 0 0 0 1 1 0 -0 -0 1 0 5.9000000000000004
1 0 0 4 0 0 1 1 0 -0 -0 1 0 
2 0 0 4 0 0 1 1 0 -0 -0 1 0 9
1 0 0 6 0 0 1 1 0 -0 -0 1 0 
Triangulations 0

TShapes 408
Ve
1.5e-07
-0.500000000000002 41 29
0 0

0101101
*
Ve
1.5e-07
0.500000000000002 41 29
0 0

0101101
*
Ed
 1.5e-07 1 1 0
1  1 0 11 12
2  1 1 0 11 12
2  2 2 0 11 12
0

0101000
+408 0 -407 0 *
Ve
1.5e-07
-0.500000000000002 36.5 29
0 0

0101101
*
Ed
 1e-07 1 1 0
1  2 0 0 4.5
2  3 1 0 0 4.5
2  4 3 0 0 4.5
4 G1 1 0 3 0
0

0101000
+405 0 -408 0 *
Ve
1.5e-07
0.500000000000002 36.5 29
0 0

0101101
*
Ed
 1e-07 1 1 0
1  3 0 0 4.5
2  5 1 0 0 4.5
2  6 4 0 0 4.5
4 G1 1 0 4 0
0

0101000
+403 0 -407 0 *
Ve
1.5e-07
0 36.5 29
0 0

0101101
*
Ed
 1.5e-07 1 1 0
1  4 0 11 11.5
2  7 1 0 11 11.5
2  8 5 0 11 11.5
0

0101000
+405 0 -401 0 *
Ed
 1.5e-07 1 1 0
1  5 0 11.5 12
2  9 1 0 11.5 12
2  10 5 0 11.5 12
0

0101000
+401 0 -403 0 *
Wi

0101100
-406 0 -404 0 +402 0 +400 0 +399 0 *
Ve
1.00000003367779e-07
3.36777869765522e-15 39 29
0 0

0101101
*
Ed
 1e-07 1 1 0
1  6 0 0.5 3
2  11 1 0 0.5 3
0

0101000
+401 0 -397 0 *
Wi

0101000
i396 0 *
Fa
0  1e-07 1 0

0101000
+398 0 +395 0 *
Ve
1.5e-07
-11.5 41 40
0 0

0101101
*
Ed
 1.5e-07 1 1 0
1  7 0 1.5707963267949 3.14159265358979
2  12 2 0 1.5707963267949 3.14159265358979
2  13 3 0 1.5707963267949 3.14159265358979
0

0101000
+393 0 -408 0 *
Ve
1.5e-07
11.5 41 40
0 0

0101101
*
Ed
 1.5e-07 1 1 0
1  8 0 1.5707963267949 3.14159265358979
2  14 2 0 1.5707963267949 3.14159265358979
2  15 4 0 1.5707963267949 3.14159265358979
0

0101000
+391 0 -407 0 *
Ve
1.5e-07
-11.5 41 91
0 0

0101101
*
Ed
 1e-07 1 1 0
1  9 0 11 62
2  16 2 0 11 62
2  17 6 0 11 62
0

0101000
+393 0 -389 0 *
Ve
1.5e-07
11.5 41 91
0 0

0101101
*
Ed
 1.5e-07 1 1 0
1  10 0 11 62
2  18 2 0 11 62
2  19 7 0 11 62
0

0101000
+391 0 -387 0 *
Ve
1.5e-07
-22.7 41 91
0 0

0101101
*
Ed
 1.5e-07 1 1 0
1  11 0 23.2 34.4
2  20 2 8 23.2 34.4
2  21 8 0 23.2 34.4
0

0101000
+389 8 -385 8 *
Ve
1.5e-07
11.7 41 91
0 0

0101101
*
Ed
 1.5e-07 1 1 0
1  12 0 0 0.199999999999998
2  22 2 8 0 0.199999999999998
2  23 9 0 0 0.199999999999998
0

0101000
+383 8 -387 8 *
Ve
1.5e-07
-22.7 41 113
0 0

0101101
*
Ed
 1.5e-07 1 1 0
1  13 0 0 22
2  24 2 8 0 22
2  25 10 0 0 22
0

0101000
-385 8 +381 8 *
Ve
1.5e-07
11.7 41 113
0 0

0101101
*
Ed
 1.5e-07 1 1 0
1  14 0 0 22
2  26 2 8 0 22
2  27 11 0 0 22
0

0101000
-383 8 +379 8 *
Ed
 1e-07 1 1 0
1  15 0 0 34.4
2  28 2 0 0 34.4
2  29 12 0 0 34.4
0

0101000
+379 0 -381 0 *
Wi

0101100
-406 0 -392 0 +390 0 +388 0 -386 0 +384 7 +382 7 -380 7 +378 7 -377 0 
*
Ve
1.5e-07
-7.65 41 40
0 0

0101101
*
Ed
 1.5e-07 1 1 0
1  16 0 0 6.28318530717959
2  30 2 0 0 6.28318530717959
2  31 13 14 0 6.28318530717959
0

0101100
+375 0 -375 0 *
Wi

0101100
-374 0 *
Ve
1.5e-07
-20.65 41 102
0 0

0101101
*
Ed
 1.5e-07 1 1 0
1  17 0 0 6.28318530717959
2  32 2 0 0 6.28318530717959
2  33 14 20 0 6.28318530717959
0

0101100
+372 0 -372 0 *
Wi

0101100
+371 0 *
Ve
2e-07
6.8 41 95
0 0

0101101
*
Ve
2.00000003552714e-07
-17.8 41 95
0 0

0101101
*
Ed
 2e-07 1 1 0
1  18 0 -4.766735888756 19.833264111244
2  34 2 0 -4.766735888756 19.833264111244
2  35 15 26 -4.766735888756 19.833264111244
0

0101000
+369 0 -368 0 *
Ve
2e-07
-17.8 41 109
0 0

0101101
*
Ed
 2e-07 1 1 0
1  19 0 2.48647837403908 16.4864783740391
2  36 2 0 2.48647837403908 16.4864783740391
2  37 16 26 2.48647837403908 16.4864783740391
0

0101000
+368 0 -366 0 *
Ve
2e-07
6.8 41 109
0 0

0101101
*
Ed
 2e-07 1 1 0
1  20 0 -4.766735888756 19.833264111244
2  38 2 0 -4.766735888756 19.833264111244
2  39 17 26 -4.766735888756 19.833264111244
0

0101000
+364 0 -366 0 *
Ed
 2e-07 1 1 0
1  21 0 2.48647837403908 16.4864783740391
2  40 2 0 2.48647837403908 16.4864783740391
2  41 18 26 2.48647837403908 16.4864783740391
0

0101000
+369 0 -364 0 *
Wi

0101100
-367 0 -365 0 +363 0 +362 0 *
Ve
1.5e-07
-1.15 41 33.5
0 0

0101101
*
Ed
 1.5e-07 1 1 0
1  22 0 0 6.28318530717959
2  42 2 0 0 6.28318530717959
2  43 19 32 0 6.28318530717959
0

0101100
+360 0 -360 0 *
Wi

0101100
-359 0 *
Ve
1.5e-07
-3.2 41 40
0 0

0101101
*
Ed
 1.5e-07 1 1 0
1  23 0 0 6.28318530717959
2  44 2 0 0 6.28318530717959
2  45 20 38 0 6.28318530717959
0

0101100
+357 0 -357 0 *
Wi

0101100
-356 0 *
Ve
1.5e-07
-1.15 41 46.5
0 0

0101101
*
Ed
 1.5e-07 1 1 0
1  24 0 0 6.28318530717959
2  46 2 0 0 6.28318530717959
2  47 21 44 0 6.28318530717959
0

0101100
+354 0 -354 0 *
Wi

0101100
-353 0 *
Ve
1.5e-07
5.35 41 40
0 0

0101101
*
Ed
 1.5e-07 1 1 0
1  25 0 0 6.28318530717959
2  48 2 0 0 6.28318530717959
2  49 22 50 0 6.28318530717959
0

0101100
+351 0 -351 0 *
Wi

0101100
-350 0 *
Ve
1.5e-07
7.35 41 102
0 0

0101101
*
Ed
 1.5e-07 1 1 0
1  26 0 0 6.28318530717959
2  50 2 0 0 6.28318530717959
2  51 23 56 0 6.28318530717959
0

0101100
+348 0 -348 0 *
Wi

0101100
+347 0 *
Fa
0  1.5e-07 2 0

0101000
+376 0 +373 0 +370 0 +361 0 +358 0 +355 0 +352 0 +349 0 +346 0 *
Ve
1.5e-07
-11.5 36.5 40
0 0

0101101
*
Ed
 1.5e-07 1 1 0
1  27 0 1.5707963267949 3.14159265358979
2  52 3 0 1.5707963267949 3.14159265358979
2  53 5 0 1.5707963267949 3.14159265358979
0

0101000
+344 0 -405 0 *
Ed
 1.5e-07 1 1 0
1  28 0 -0 4.5
2  54 3 0 -0 4.5
2  55 6 0 -0 4.5
0

0101000
+344 0 -393 0 *
Wi

0101100
+343 0 -342 0 +404 0 -392 0 *
Fa
0  1e-07 3 0

0101000
+341 0 *
Ve
1.5e-07
11.5 36.5 40
0 0

0101101
*
Ed
 1.5e-07 1 1 0
1  29 0 1.5707963267949 3.14159265358979
2  56 4 0 1.5707963267949 3.14159265358979
2  57 5 0 1.5707963267949 3.14159265358979
0

0101000
+339 0 -403 0 *
Ed
 1e-07 1 1 0
1  30 0 -0 4.5
2  58 4 0 -0 4.5
2  59 7 0 -0 4.5
4 G1 4 0 7 0
0

0101000
+339 0 -391 0 *
Wi

0101100
+338 0 -337 0 +402 0 -390 0 *
Fa
0  1e-07 4 0

0101000
+336 0 *
Ve
1.5e-07
-11.5 36.5000000000001 61.9118788167604
0 0

0101101
*
Ed
 1.5e-07 1 1 0
1  31 0 11 32.9118788167604
2  60 5 0 11 32.9118788167604
2  61 6 0 11 32.9118788167604
0

0101000
+344 0 -334 0 *
Ve
1.5e-07
-7 36.5 61.9118788167603
0 0

0101101
*
Ed
 1.5e-07 1 1 0
1  32 0 0 4.5
2  62 5 0 0 4.5
2  63 24 0 0 4.5
0

0101000
+334 0 -332 0 *
Ve
1.5e-07
-7 36.5 80.0881211832397
0 0

0101101
*
Ed
 1.5e-07 1 1 0
1  33 0 -35.5881211832397 -17.4118788167603
2  64 5 0 -35.5881211832397 -17.4118788167603
2  65 25 0 -35.5881211832397 -17.4118788167603
0

0101000
+330 0 -332 0 *
Ve
1.5e-07
-11.5 36.5000000000001 80.0881211832396
0 0

0101101
*
Ed
 1.5e-07 1 1 0
1  34 0 0 4.5
2  66 5 0 0 4.5
2  67 26 0 0 4.5
0

0101000
+328 0 -330 0 *
Ve
1.5e-07
-11.5 36.5 91
0 0

0101101
*
Ed
 1.5e-07 1 1 0
1  35 0 51.0881211832396 62
2  68 5 0 51.0881211832396 62
2  69 6 0 51.0881211832396 62
0

0101000
+328 0 -326 0 *
Ve
1.5e-07
-22.7 36.5 91
0 0

0101101
*
Ed
 1.5e-07 1 1 0
1  36 0 23.2 34.4
2  70 5 8 23.2 34.4
2  71 8 0 23.2 34.4
0

0101000
+326 8 -324 8 *
Ve
1.5e-07
-22.7 36.5 113
0 0

0101101
*
Ed
 1.5e-07 1 1 0
1  37 0 0 22
2  72 5 8 0 22
2  73 10 0 0 22
0

0101000
-324 8 +322 8 *
Ve
1.5e-07
11.7 36.5 113
0 0

0101101
*
Ed
 1e-07 1 1 0
1  38 0 0 34.4
2  74 5 0 0 34.4
2  75 12 0 0 34.4
0

0101000
+320 0 -322 0 *
Ve
1.5e-07
11.7 36.5 91
0 0

0101101
*
Ed
 1.5e-07 1 1 0
1  39 0 0 22
2  76 5 8 0 22
2  77 11 0 0 22
0

0101000
-318 8 +320 8 *
Ve
1.5e-07
11.5 36.5 91
0 0

0101101
*
Ed
 1.5e-07 1 1 0
1  40 0 0 0.199999999999998
2  78 5 8 0 0.199999999999998
2  79 9 0 0 0.199999999999998
0

0101000
+318 8 -316 8 *
Ed
 1.5e-07 1 1 0
1  41 0 11 62
2  80 5 0 11 62
2  81 7 0 11 62
0

0101000
+339 0 -316 0 *
Wi

0101100
+343 0 -333 0 -331 0 +329 0 +327 0 -325 0 -323 7 +321 7 +319 0 -317 7 
-315 7 +314 0 -338 0 +399 0 +400 0 *
Ve
1.5e-07
-20.65 36.5 102
0 0

0101101
*
Ed
 1.5e-07 1 1 0
1  42 0 0 6.28318530717959
2  82 5 0 0 6.28318530717959
2  83 14 20 0 6.28318530717959
0

0101100
+312 0 -312 0 *
Wi

0101100
-311 0 *
Ve
2e-07
-17.8 36.5 109
0 0

0101101
*
Ve
2e-07
6.8 36.5 109
0 0

0101101
*
Ed
 2e-07 1 1 0
1  43 0 -19.8823061800971 4.71769381990285
2  84 5 0 -19.8823061800971 4.71769381990285
2  85 17 26 -19.8823061800971 4.71769381990285
0

0101000
+309 0 -308 0 *
Ve
2.00000003552714e-07
-17.8 36.5 95
0 0

0101101
*
Ed
 2e-07 1 1 0
1  44 0 -16.5823475901441 -2.58234759014411
2  86 5 0 -16.5823475901441 -2.58234759014411
2  87 16 26 -16.5823475901441 -2.58234759014411
0

0101000
+309 0 -306 0 *
Ve
2e-07
6.8 36.5 95
0 0

0101101
*
Ed
 2e-07 1 1 0
1  45 0 -19.8823061800971 4.71769381990285
2  88 5 0 -19.8823061800971 4.71769381990285
2  89 15 26 -19.8823061800971 4.71769381990285
0

0101000
+306 0 -304 0 *
Ed
 2e-07 1 1 0
1  46 0 -16.5823475901441 -2.58234759014411
2  90 5 0 -16.5823475901441 -2.58234759014411
2  91 18 26 -16.5823475901441 -2.58234759014411
0

0101000
+308 0 -304 0 *
Wi

0101100
+307 0 -305 0 -303 0 +302 0 *
Ve
1.5e-07
7.35 36.5 102
0 0

0101101
*
Ed
 1.5e-07 1 1 0
1  47 0 0 6.28318530717959
2  92 5 0 0 6.28318530717959
2  93 23 56 0 6.28318530717959
0

0101100
+300 0 -300 0 *
Wi

0101100
-299 0 *
Ve
1.00000007105427e-07
-11 36.5 40
0 0

0101101
*
Ed
 1e-07 1 1 0
1  48 0 1.22464679914735e-16 4.71238898038469
2  94 5 0 1.22464679914735e-16 4.71238898038469
2  95 27 62 1.22464679914735e-16 4.71238898038469
0

0101000
+297 0 -401 0 *
Ed
 1e-07 1 1 0
1  49 0 4.71238898038469 6.28318530717959
2  96 5 0 4.71238898038469 6.28318530717959
2  97 27 62 4.71238898038469 6.28318530717959
0

0101000
+401 0 -297 0 *
Wi

0101100
+296 0 +295 0 *
Fa
0  1.5e-07 5 0

0101000
+313 0 +310 0 +301 0 +298 0 +294 0 *
Ed
 1.5e-07 1 1 0
1  50 0 -2.25 2.25
2  98 6 0 -2.25 2.25
2  99 8 7 -2.25 2.25
0

0101000
+326 0 -389 0 *
Ve
1.5e-07
-11.5 30.44 60
0 0

0101101
*
Ed
 1.5e-07 1 1 0
1  51 0 2.53037676586027 3.14159265358979
2  100 6 0 2.53037676586027 3.14159265358979
2  101 24 0 2.53037676586027 3.14159265358979
0

0101000
+334 0 -291 0 *
Ve
1.5e-07
-11.5 22.56 60
0 0

0101101
*
Ed
 1.5e-07 1 1 0
1  52 0 10.56 18.44
2  102 6 0 10.56 18.44
2  103 28 0 10.56 18.44
0

0101000
+289 0 -291 0 *
Ve
1.5e-07
-11.5 12 70.56
0 0

0101101
*
Ed
 1.5e-07 1 1 0
1  53 0 1.5707963267949 3.14159265358979
2  104 6 0 1.5707963267949 3.14159265358979
2  105 29 0 1.5707963267949 3.14159265358979
0

0101000
+287 0 -289 0 *
Ve
1.5e-07
-11.5 12 102
0 0

0101101
*
Ed
 1e-07 1 1 0
1  54 0 10.56 42
2  106 6 0 10.56 42
2  107 30 0 10.56 42
0

0101000
+287 0 -285 0 *
Ve
1.5e-07
-11.5 16.5 102
0 0

0101101
*
Ed
 1.5e-07 1 1 0
1  55 0 -0 4.5
2  108 6 0 -0 4.5
2  109 31 0 -0 4.5
0

0101000
+285 0 -283 0 *
Ve
1.5e-07
-11.5 16.4999999999999 80.0881211832396
0 0

0101101
*
Ed
 1.5e-07 1 1 0
1  56 0 20.0881211832396 42
2  110 6 0 20.0881211832396 42
2  111 32 0 20.0881211832396 42
0

0101000
+281 0 -283 0 *
Ve
1.5e-07
-11.5 22.56 82
0 0

0101101
*
Ed
 1.5e-07 1 1 0
1  57 0 5.67196941945006 6.28318530717959
2  112 6 0 5.67196941945006 6.28318530717959
2  113 33 0 5.67196941945006 6.28318530717959
0

0101000
+281 0 -279 0 *
Ve
1.5e-07
-11.5 30.44 82
0 0

0101101
*
Ed
 1.5e-07 1 1 0
1  58 0 10.56 18.44
2  114 6 0 10.56 18.44
2  115 34 0 10.56 18.44
0

0101000
+279 0 -277 0 *
Ed
 1.5e-07 1 1 0
1  59 0 5.67196941945006 6.28318530717959
2  116 6 0 5.67196941945006 6.28318530717959
2  117 26 0 5.67196941945006 6.28318530717959
0

0101000
+328 0 -277 0 *
Wi

0101000
+325 0 +292 0 -388 0 -342 0 +333 0 +290 0 -288 0 -286 0 +284 0 +282 0 
-280 0 +278 0 +276 0 -275 0 *
Fa
0  1.5e-07 6 0

0111000
+274 0 *
Ed
 1.5e-07 1 1 0
1  60 0 -2.25 2.25
2  118 7 0 -2.25 2.25
2  119 9 7 -2.25 2.25
0

0101000
+316 0 -387 0 *
Wi

0101100
-314 0 -272 0 +386 0 +337 0 *
Fa
0  1e-07 7 0

0101000
+271 0 *
Ed
 1e-07 1 1 0
1  61 0 0 4.5
2  120 8 0 0 4.5
2  121 10 0 0 4.5
0

0101000
-324 8 +385 8 *
Wi

0101100
-384 7 -269 7 +323 7 -292 0 *
Fa
0  1e-07 8 7

0101000
+268 0 *
Ed
 1e-07 1 1 0
1  62 0 0 4.5
2  122 9 0 0 4.5
2  123 11 0 0 4.5
0

0101000
-318 8 +383 8 *
Wi

0101100
-382 7 +272 0 +315 7 +266 7 *
Fa
0  1e-07 9 7

0101000
+265 0 *
Ed
 1.5e-07 1 1 0
1  63 0 0 4.5
2  124 10 0 0 4.5
2  125 12 8 0 4.5
0

0101000
-322 8 +381 8 *
Wi

0101100
-263 0 -321 0 +269 0 +380 0 *
Fa
0  1e-07 10 0

0111000
+262 0 *
Ed
 1.5e-07 1 1 0
1  64 0 0 4.5
2  126 11 0 0 4.5
2  127 12 8 0 4.5
0

0101000
-320 8 +379 8 *
Wi

0101100
-260 0 -317 0 +266 0 +378 0 *
Fa
0  1e-07 11 0

0111000
+259 0 *
Wi

0101000
+377 0 +263 7 -319 0 -260 7 *
Fa
0  1.5e-07 12 0

0111000
+257 0 *
Ve
1e-07
-7.65 36 40
0 0

0101101
*
Ed
 1e-07 1 1 0
1  65 0 3 8.00000000000001
3  128 129CN 13 0 3 8.00000000000001
0

0101000
+255 63 -375 63 *
Ed
 1e-07 1 1 0
1  66 0 0 6.28318530717959
2  130 13 14 0 6.28318530717959
2  131 35 62 0 6.28318530717959
0

0101100
+255 0 -255 0 *
Wi

0101100
-374 0 +254 14 +253 0 -254 14 *
Fa
0  1e-07 13 14

0101000
+252 0 *
Ed
 1e-07 1 1 0
1  67 0 7.99999999999999 12.5
3  132 133CN 14 0 7.99999999999999 12.5
0

0101000
+372 64 -312 64 *
Wi

0101100
-311 0 +250 20 +371 0 -250 20 *
Fa
0  1e-07 14 20

0101000
+249 0 *
Ed
 1e-07 1 1 0
1  68 0 12.5 17
2  134 15 0 12.5 17
2  135 16 0 12.5 17
0

0101000
+368 65 -306 65 *
Ed
 1e-07 1 1 0
1  69 0 12.5 17
2  136 15 0 12.5 17
2  137 18 0 12.5 17
0

0101000
+369 65 -304 65 *
Wi

0101100
-247 26 -303 0 +246 26 -367 0 *
Fa
0  1e-07 15 26

0101000
+245 0 *
Ed
 1e-07 1 1 0
1  70 0 12.5 17
2  138 16 0 12.5 17
2  139 17 0 12.5 17
0

0101000
+366 65 -309 65 *
Wi

0101100
-243 26 -305 0 +247 26 -365 0 *
Fa
0  1e-07 16 26

0101000
+242 0 *
Ed
 1e-07 1 1 0
1  71 0 12.5 17
2  140 17 0 12.5 17
2  141 18 0 12.5 17
0

0101000
+364 65 -308 65 *
Wi

0101100
-243 26 -307 0 +240 26 -363 0 *
Fa
0  1e-07 17 26

0101000
+239 0 *
Wi

0101100
-240 26 -302 0 +246 26 -362 0 *
Fa
0  1e-07 18 26

0101000
+237 0 *
Ve
1e-07
-1.15 36 33.5
0 0

0101101
*
Ed
 1e-07 1 1 0
1  72 0 3 8.00000000000001
3  142 143CN 19 0 3 8.00000000000001
0

0101000
+235 66 -360 66 *
Ed
 1e-07 1 1 0
1  73 0 0 6.28318530717959
2  144 19 32 0 6.28318530717959
2  145 35 62 0 6.28318530717959
0

0101100
+235 0 -235 0 *
Wi

0101100
-359 0 +234 32 +233 0 -234 32 *
Fa
0  1e-07 19 32

0101000
+232 0 *
Ve
1e-07
-3.2 36 40
0 0

0101101
*
Ed
 1e-07 1 1 0
1  74 0 3 8.00000000000001
3  146 147CN 20 0 3 8.00000000000001
0

0101000
+230 67 -357 67 *
Ed
 1e-07 1 1 0
1  75 0 0 6.28318530717959
2  148 20 38 0 6.28318530717959
2  149 35 62 0 6.28318530717959
0

0101100
+230 0 -230 0 *
Wi

0101100
-356 0 +229 38 +228 0 -229 38 *
Fa
0  1e-07 20 38

0101000
+227 0 *
Ve
1e-07
-1.15 36 46.5
0 0

0101101
*
Ed
 1e-07 1 1 0
1  76 0 3 8.00000000000001
3  150 151CN 21 0 3 8.00000000000001
0

0101000
+225 68 -354 68 *
Ed
 1e-07 1 1 0
1  77 0 0 6.28318530717959
2  152 21 44 0 6.28318530717959
2  153 35 62 0 6.28318530717959
0

0101100
+225 0 -225 0 *
Wi

0101100
-353 0 +224 44 +223 0 -224 44 *
Fa
0  1e-07 21 44

0101000
+222 0 *
Ve
1e-07
5.35 36 40
0 0

0101101
*
Ed
 1e-07 1 1 0
1  78 0 3 8.00000000000001
3  154 155CN 22 0 3 8.00000000000001
0

0101000
+220 69 -351 69 *
Ed
 1e-07 1 1 0
1  79 0 0 6.28318530717959
2  156 22 50 0 6.28318530717959
2  157 35 62 0 6.28318530717959
0

0101100
+220 0 -220 0 *
Wi

0101100
-350 0 +219 50 +218 0 -219 50 *
Fa
0  1e-07 22 50

0101000
+217 0 *
Ed
 1e-07 1 1 0
1  80 0 7.99999999999999 12.5
3  158 159CN 23 0 7.99999999999999 12.5
0

0101000
+348 70 -300 70 *
Wi

0101100
-299 0 +215 56 +347 0 -215 56 *
Fa
0  1e-07 23 56

0101000
+214 0 *
Ve
1e-07
-7 30.44 60
0 0

0101101
*
Ed
 1e-07 1 1 0
1  81 0 2.53037676586029 3.14159265358979
2  160 24 0 2.53037676586029 3.14159265358979
2  161 25 0 2.53037676586029 3.14159265358979
0

0101000
+332 0 -212 0 *
Ed
 1e-07 1 1 0
1  82 0 0 4.5
2  162 24 0 0 4.5
2  163 28 0 0 4.5
4 G1 24 0 28 0
0

0101000
+291 0 -212 0 *
Wi

0101100
-331 0 -211 0 +210 0 +290 0 *
Fa
0  1e-07 24 0

0101000
+209 0 *
Ve
2.62628060659016e-07
-7 16.2055350096416 62.1258803253505
0 0

0101101
*
Ve
1.50000001776357e-07
-7 16.5 62.1258803253506
0 0

0101101
*
Ed
 1e-07 1 1 0
1  83 0 4.20553500964163 4.5
2  164 25 0 4.20553500964163 4.5
2  165 36 0 4.20553500964163 4.5
0

0101000
+207 0 -206 0 *
Ve
1.5e-07
-7 16.5 80.0881211832397
0 0

0101101
*
Ed
 1.5e-07 1 1 0
1  84 0 -20.0881211832397 -2.12588032535058
2  166 25 0 -20.0881211832397 -2.12588032535058
2  167 32 0 -20.0881211832397 -2.12588032535058
0

0101000
+204 0 -206 0 *
Ve
1e-07
-7 22.56 82
0 0

0101101
*
Ed
 1e-07 1 1 0
1  85 0 5.67196941945008 6.28318530717959
2  168 25 0 5.67196941945008 6.28318530717959
2  169 33 0 5.67196941945008 6.28318530717959
0

0101000
+204 0 -202 0 *
Ve
1e-07
-7 30.44 82
0 0

0101101
*
Ed
 1e-07 1 1 0
1  86 0 10.56 18.44
2  170 25 0 10.56 18.44
2  171 34 0 10.56 18.44
0

0101000
+202 0 -200 0 *
Ed
 1e-07 1 1 0
1  87 0 5.67196941945008 6.28318530717959
2  172 25 0 5.67196941945008 6.28318530717959
2  173 26 0 5.67196941945008 6.28318530717959
0

0101000
+330 0 -200 0 *
Ve
1e-07
-7 22.56 60
0 0

0101101
*
Ed
 1e-07 1 1 0
1  88 0 10.56 18.44
2  174 25 0 10.56 18.44
2  175 28 0 10.56 18.44
0

0101000
+197 0 -212 0 *
Ed
 1e-07 1 1 0
1  89 0 2.49590402529648 3.14159265358979
2  176 25 0 2.49590402529648 3.14159265358979
2  177 29 0 2.49590402529648 3.14159265358979
0

0101000
+207 0 -197 0 *
Wi

0101100
-205 0 +203 0 -201 0 -199 0 +198 0 -329 0 -211 0 +196 0 +195 0 *
Fa
0  1e-07 25 0

0101000
+194 0 *
Ed
 1e-07 1 1 0
1  90 0 0 4.5
2  178 26 0 0 4.5
2  179 34 0 0 4.5
4 G1 26 0 34 0
0

0101000
+277 0 -200 0 *
Wi

0101100
-327 0 -198 0 +192 0 +275 0 *
Fa
0  1e-07 26 0

0101000
+191 0 *
Ve
1e-07
-11 36 40
0 0

0101101
*
Ed
 1e-07 1 1 0
1  91 0 0 0.5
3  180 181CN 27 0 0 0.5
0

0101000
+189 71 -297 71 *
Ed
 1e-07 1 1 0
1  92 0 0 6.28318530717959
2  182 27 0 0 6.28318530717959
2  183 35 0 0 6.28318530717959
0

0101000
+189 71 -189 71 *
Wi

0101100
-296 0 -295 0 +188 62 +187 62 -188 62 *
Fa
0  1e-07 27 62

0101000
+186 0 *
Ed
 1e-07 1 1 0
1  93 0 0 4.5
2  184 28 0 0 4.5
2  185 29 0 0 4.5
4 G1 28 0 29 0
0

0101000
+289 0 -197 0 *
Wi

0101100
-288 0 +184 0 -210 0 +196 0 *
Fa
0  1e-07 28 0

0101000
+183 0 *
Ve
1.14190334522316e-06
-11.4911964771812 12 70.5600000000003
0 0

0101101
*
Ed
 1.5e-07 1 1 0
1  94 0 0 0.00880352281879659
2  186 29 0 0 0.00880352281879659
2  187 30 0 0 0.00880352281879659
0

0101000
+287 0 -181 0 *
Ed
 2.62627990318874e-07 1 1 0
1  95 0 0 0.999999902164602
2  188 29 0 0 0.999999902164602
2  189 36 0 0 0.999999902164602
0

0101000
+181 0 -207 0 *
Wi

0101100
-180 0 -179 0 -195 0 +184 0 +286 0 *
Fa
0  1e-07 29 0

0101000
+178 0 *
Ve
1.5e-07
-0.500000000000002 12 60
0 0

0101101
*
Ed
 1.5e-07 1 1 0
1  96 0 1.61080700114886 3.14159265358979
2  190 30 0 1.61080700114886 3.14159265358979
2  191 36 0 1.61080700114886 3.14159265358979
0

0101000
+181 0 -176 0 *
Ve
1.5e-07
0.500000000000002 12 60
0 0

0101101
*
Ed
 1.5e-07 1 1 0
1  97 0 11 12
2  192 30 0 11 12
2  193 37 0 11 12
0

0101000
+176 0 -174 0 *
Ve
1.5e-07
11.5 12 71
0 0

0101101
*
Ed
 1.5e-07 1 1 0
1  98 0 1.5707963267949 3.14159265358979
2  194 30 0 1.5707963267949 3.14159265358979
2  195 38 0 1.5707963267949 3.14159265358979
0

0101000
+172 0 -174 0 *
Ve
1.5e-07
11.5 12 102
0 0

0101101
*
Ed
 1.5e-07 1 1 0
1  99 0 11 42
2  196 30 0 11 42
2  197 39 0 11 42
0

0101000
+172 0 -170 0 *
Ve
1.5e-07
0.500000000000002 12 113
0 0

0101101
*
Ed
 1.5e-07 1 1 0
1  100 0 4.71238898038469 6.28318530717959
2  198 30 0 4.71238898038469 6.28318530717959
2  199 40 0 4.71238898038469 6.28318530717959
0

0101000
+170 0 -168 0 *
Ve
1.5e-07
-0.500000000000002 12 113
0 0

0101101
*
Ed
 1.5e-07 1 1 0
1  101 0 11 12
2  200 30 0 11 12
2  201 41 0 11 12
0

0101000
+166 0 -168 0 *
Ed
 1.5e-07 1 1 0
1  102 0 4.71238898038469 6.28318530717959
2  202 30 0 4.71238898038469 6.28318530717959
2  203 31 0 4.71238898038469 6.28318530717959
0

0101000
+285 0 -166 0 *
Wi

0101000
-284 0 +180 0 +175 0 +173 0 -171 0 +169 0 +167 0 -165 0 -164 0 *
Fa
0  1.5e-07 30 0

0111000
+163 0 *
Ve
1e-07
-0.500000000000002 16.5 113
0 0

0101101
*
Ed
 1e-07 1 1 0
1  103 0 0 4.5
2  204 31 0 0 4.5
2  205 41 0 0 4.5
4 G1 31 0 41 0
0

0101000
+166 0 -161 0 *
Ed
 1e-07 1 1 0
1  104 0 4.71238898038469 6.28318530717959
2  206 31 0 4.71238898038469 6.28318530717959
2  207 32 0 4.71238898038469 6.28318530717959
0

0101000
+283 0 -161 0 *
Wi

0101100
+164 0 -282 0 +160 0 -159 0 *
Fa
0  1e-07 31 0

0101000
+158 0 *
Ve
1e-07
-0.500000000000002 16.5 60
0 0

0101101
*
Ve
1e-07
0.500000000000002 16.5 60
0 0

0101101
*
Ed
 1e-07 1 1 0
1  105 0 11 12
2  208 32 0 11 12
2  209 37 0 11 12
0

0101000
+156 0 -155 0 *
Ve
1e-07
11.5 16.5 71
0 0

0101101
*
Ed
 1e-07 1 1 0
1  106 0 1.5707963267949 3.14159265358979
2  210 32 0 1.5707963267949 3.14159265358979
2  211 38 0 1.5707963267949 3.14159265358979
0

0101000
+153 0 -155 0 *
Ve
1e-07
11.5 16.5 102
0 0

0101101
*
Ed
 1e-07 1 1 0
1  107 0 11 42
2  212 32 0 11 42
2  213 39 0 11 42
0

0101000
+153 0 -151 0 *
Ve
1e-07
0.500000000000002 16.5 113
0 0

0101101
*
Ed
 1e-07 1 1 0
1  108 0 4.71238898038469 6.28318530717959
2  214 32 0 4.71238898038469 6.28318530717959
2  215 40 0 4.71238898038469 6.28318530717959
0

0101000
+151 0 -149 0 *
Ed
 1e-07 1 1 0
1  109 0 11 12
2  216 32 0 11 12
2  217 41 0 11 12
0

0101000
+161 0 -149 0 *
Ed
 1e-07 1 1 0
1  110 0 0 4.5
2  218 32 0 0 4.5
2  219 33 0 0 4.5
0

0101000
+281 0 -204 0 *
Ed
 1e-07 1 1 0
1  111 0 2.50940740490905 3.14159265358979
2  220 32 0 2.50940740490905 3.14159265358979
2  221 36 0 2.50940740490905 3.14159265358979
0

0101000
+206 0 -156 0 *
Wi

0101100
-154 0 +152 0 -150 0 -148 0 +147 0 +159 0 +280 0 -146 0 -203 0 -145 0 
*
Fa
0  1e-07 32 0

0101000
+144 0 *
Ed
 1e-07 1 1 0
1  112 0 0 4.5
2  222 33 0 0 4.5
2  223 34 0 0 4.5
4 G1 33 0 34 0
0

0101000
+279 0 -202 0 *
Wi

0101100
-146 0 -201 0 +142 0 +278 0 *
Fa
0  1e-07 33 0

0101000
+141 0 *
Wi

0101100
-276 0 +142 0 -192 0 +199 0 *
Fa
0  1e-07 34 0

0101000
+139 0 *
Wi

0101100
+187 62 *
Wi

0101100
-233 0 *
Wi

0101100
-218 0 *
Wi

0101100
-228 0 *
Wi

0101100
-253 0 *
Wi

0101100
-223 0 *
Fa
0  1e-07 35 62

0101000
+137 0 +136 0 +135 0 +134 0 +133 0 +132 0 *
Ed
 1e-07 1 1 0
1  113 0 0 4.5
2  224 36 0 0 4.5
2  225 37 0 0 4.5
4 G1 36 0 37 0
0

0101000
+176 0 -156 0 *
Wi

0101100
-179 0 -205 0 -145 0 +130 0 +175 0 *
Fa
0  1e-07 36 0

0101000
+129 0 *
Ed
 1e-07 1 1 0
1  114 0 0 4.5
2  226 37 0 0 4.5
2  227 38 0 0 4.5
4 G1 37 0 38 0
0

0101000
+174 0 -155 0 *
Wi

0101100
-154 0 -130 0 +127 0 +173 0 *
Fa
0  1e-07 37 0

0101000
+126 0 *
Ed
 1e-07 1 1 0
1  115 0 -0 4.5
2  228 38 0 -0 4.5
2  229 39 0 -0 4.5
4 G1 38 0 39 0
0

0101000
+172 0 -153 0 *
Wi

0101100
+171 0 -124 0 +127 0 -152 0 *
Fa
0  1e-07 38 0

0101000
+123 0 *
Ed
 1e-07 1 1 0
1  116 0 -0 4.5
2  230 39 0 -0 4.5
2  231 40 0 -0 4.5
4 G1 39 0 40 0
0

0101000
+170 0 -151 0 *
Wi

0101100
-169 0 +124 0 -121 0 +150 0 *
Fa
0  1e-07 39 0

0101000
+120 0 *
Ed
 1e-07 1 1 0
1  117 0 0 4.5
2  232 40 0 0 4.5
2  233 41 0 0 4.5
4 G1 40 0 41 0
0

0101000
+168 0 -149 0 *
Wi

0101100
+167 0 -121 0 +118 0 -148 0 *
Fa
0  1e-07 40 0

0101000
+117 0 *
Wi

0101100
-147 0 -160 0 +118 0 +165 0 *
Fa
0  1e-07 41 0

0101000
+115 0 *
Sh

0101100
-394 0 +345 0 -340 0 +335 0 +293 0 +273 0 +270 0 +267 0 +264 0 +261 7 
-258 7 +256 0 -251 0 -248 0 -244 0 -241 0 +238 0 +236 0 -231 0 -226 0 
-221 0 -216 0 -213 0 -208 0 +193 0 +190 0 +185 0 -182 0 +177 0 +162 0 
+157 0 +143 0 -140 0 +138 0 -131 0 -128 0 -125 0 +122 0 +119 0 -116 0 
+114 0 *
So

0100000
+113 0 *
Ve
1e-07
6 52.5 108.2
0 0

0101101
*
Ve
1.5e-07
6 36.5 108.2
0 0

0101101
*
Ed
 1e-07 1 1 0
1  118 0 0 16
2  234 42 0 0 16
2  235 43 0 0 16
0

0101000
+111 78 -110 78 *
Ve
1.5e-07
6 36.5 95.8
0 0

0101101
*
Ed
 1.5e-07 1 1 0
1  119 0 -12.4 0
2  236 42 0 -12.4 0
2  237 44 0 -12.4 0
0

0101000
+108 78 -110 78 *
Ve
1e-07
6 52.5 95.8
0 0

0101101
*
Ed
 1e-07 1 1 0
1  120 0 0 16
2  238 42 0 0 16
2  239 45 0 0 16
0

0101000
+106 78 -108 78 *
Ed
 1e-07 1 1 0
1  121 0 0 12.4
2  240 42 0 0 12.4
2  241 46 0 0 12.4
0

0101000
-106 78 +111 78 *
Wi

0101100
-109 0 +107 0 +105 0 +104 0 *
Fa
0  1e-07 42 0

0101000
+103 0 *
Ve
1e-07
10.7 36.5 95.8
0 0

0101101
*
Ed
 1e-07 1 1 0
1  122 0 0 4.7
2  242 44 0 0 4.7
2  243 45 0 0 4.7
0

0101000
+101 78 -108 78 *
Ve
1e-07
10.7 36.5 108.2
0 0

0101101
*
Ed
 1e-07 1 1 0
1  123 0 0 4.7
2  244 44 0 0 4.7
2  245 43 0 0 4.7
0

0101000
+99 78 -110 78 *
Ed
 1e-07 1 1 0
1  124 0 0 12.4
2  246 44 0 0 12.4
2  247 47 0 0 12.4
0

0101000
-101 78 +99 78 *
Wi

0101100
-100 0 -107 0 +98 0 -97 0 *
Fa
0  1e-07 44 0

0101000
+96 0 *
Ve
1e-07
-17 52.5 95.8
0 0

0101101
*
Ed
 1e-07 1 1 0
1  125 0 0 23
2  248 46 0 0 23
2  249 45 0 0 23
0

0101000
-94 78 +106 78 *
Ve
1e-07
-17 52.5 108.2
0 0

0101101
*
Ed
 1e-07 1 1 0
1  126 0 0 12.4
2  250 46 0 0 12.4
2  251 48 0 0 12.4
0

0101000
-94 78 +92 78 *
Ed
 1e-07 1 1 0
1  127 0 0 23
2  252 46 0 0 23
2  253 43 0 0 23
0

0101000
-92 78 +111 78 *
Wi

0101100
-104 0 -93 0 +91 0 +90 0 *
Fa
0  1e-07 46 0

0111000
+89 0 *
Ve
1.5e-07
-17 36.5 108.2
0 0

0101101
*
Ed
 1e-07 1 1 0
1  128 0 0 16
2  254 48 0 0 16
2  255 43 0 0 16
0

0101000
+92 78 -87 78 *
Ve
1.5e-07
-17 36.5 95.8
0 0

0101101
*
Ed
 1.5e-07 1 1 0
1  129 0 -12.4 0
2  256 48 0 -12.4 0
2  257 49 0 -12.4 0
0

0101000
+85 78 -87 78 *
Ed
 1e-07 1 1 0
1  130 0 0 16
2  258 48 0 0 16
2  259 45 0 0 16
0

0101000
+94 78 -85 78 *
Wi

0101100
-86 0 +84 0 +83 0 +91 0 *
Fa
0  1e-07 48 0

0101000
+82 0 *
Ve
1e-07
10.7 34 108.2
0 0

0101101
*
Ed
 1e-07 1 1 0
1  131 0 0 2.5
2  260 47 0 0 2.5
2  261 43 0 0 2.5
0

0101000
-80 78 +99 78 *
Ve
1e-07
10.7 34 95.8
0 0

0101101
*
Ed
 1e-07 1 1 0
1  132 0 0 12.4
2  262 47 0 0 12.4
2  263 50 0 0 12.4
0

0101000
-78 78 +80 78 *
Ed
 1e-07 1 1 0
1  133 0 0 2.5
2  264 47 0 0 2.5
2  265 45 0 0 2.5
0

0101000
-78 78 +101 78 *
Wi

0101100
-79 0 -77 0 +76 0 +97 0 *
Fa
0  1e-07 47 0

0111000
+75 0 *
Ve
1e-07
-21.7 36.5 95.8
0 0

0101101
*
Ed
 1e-07 1 1 0
1  134 0 27.7 32.4
2  266 49 0 27.7 32.4
2  267 45 0 27.7 32.4
0

0101000
+85 78 -73 78 *
Ve
1e-07
-21.7 36.5 108.2
0 0

0101101
*
Ed
 1e-07 1 1 0
1  135 0 0 12.4
2  268 49 0 0 12.4
2  269 51 0 0 12.4
0

0101000
-73 78 +71 78 *
Ed
 1e-07 1 1 0
1  136 0 27.7 32.4
2  270 49 0 27.7 32.4
2  271 43 0 27.7 32.4
0

0101000
+87 78 -71 78 *
Wi

0101100
-72 0 +70 0 +69 0 +84 0 *
Fa
0  1e-07 49 0

0101000
+68 0 *
Ve
1.5e-07
6 34 95.8
0 0

0101101
*
Ed
 1e-07 1 1 0
1  137 0 0 4.7
2  272 50 0 0 4.7
2  273 45 0 0 4.7
0

0101000
+78 78 -66 78 *
Ve
1.5e-07
6 34 108.2
0 0

0101101
*
Ed
 1.5e-07 1 1 0
1  138 0 -12.4 0
2  274 50 0 -12.4 0
2  275 52 0 -12.4 0
0

0101000
+66 78 -64 78 *
Ed
 1e-07 1 1 0
1  139 0 0 4.7
2  276 50 0 0 4.7
2  277 43 0 0 4.7
0

0101000
+80 78 -64 78 *
Wi

0101100
-65 0 -63 0 +62 0 -77 0 *
Fa
0  1e-07 50 0

0101000
+61 0 *
Ve
1e-07
-21.7 34 108.2
0 0

0101101
*
Ed
 1e-07 1 1 0
1  140 0 0 2.5
2  278 51 0 0 2.5
2  279 43 0 0 2.5
0

0101000
-59 78 +71 78 *
Ve
1e-07
-21.7 34 95.8
0 0

0101101
*
Ed
 1e-07 1 1 0
1  141 0 0 12.4
2  280 51 0 0 12.4
2  281 53 0 0 12.4
0

0101000
-57 78 +59 78 *
Ed
 1e-07 1 1 0
1  142 0 0 2.5
2  282 51 0 0 2.5
2  283 45 0 0 2.5
0

0101000
-57 78 +73 78 *
Wi

0101100
-58 0 -56 0 +55 0 +70 0 *
Fa
0  1e-07 51 0

0111000
+54 0 *
Ve
1.5e-07
-17 34 95.8
0 0

0101101
*
Ed
 1e-07 1 1 0
1  143 0 27.7 32.4
2  284 53 0 27.7 32.4
2  285 45 0 27.7 32.4
0

0101000
+52 78 -57 78 *
Ve
1.5e-07
-17 34 108.2
0 0

0101101
*
Ed
 1e-07 1 1 0
1  144 0 27.7 32.4
2  286 53 0 27.7 32.4
2  287 43 0 27.7 32.4
0

0101000
+50 78 -59 78 *
Ed
 1.5e-07 1 1 0
1  145 0 -12.4 0
2  288 53 0 -12.4 0
2  289 54 0 -12.4 0
0

0101000
+52 78 -50 78 *
Wi

0101100
-51 0 +56 0 +49 0 +48 0 *
Fa
0  1e-07 53 0

0101000
+47 0 *
Ve
1e-07
-17 30 108.2
0 0

0101101
*
Ed
 1e-07 1 1 0
1  146 0 18.5 22.5
2  290 54 0 18.5 22.5
2  291 43 0 18.5 22.5
0

0101000
+50 78 -45 78 *
Ve
1e-07
-17 30 95.8
0 0

0101101
*
Ed
 1e-07 1 1 0
1  147 0 0 12.4
2  292 54 0 0 12.4
2  293 55 0 0 12.4
0

0101000
-43 78 +45 78 *
Ed
 1e-07 1 1 0
1  148 0 18.5 22.5
2  294 54 0 18.5 22.5
2  295 45 0 18.5 22.5
0

0101000
+52 78 -43 78 *
Wi

0101100
-44 0 -42 0 +41 0 -48 0 *
Fa
0  1e-07 54 0

0101000
+40 0 *
Ve
1e-07
6 30 95.8
0 0

0101101
*
Ve
1e-07
6 30 108.2
0 0

0101101
*
Ed
 1e-07 1 1 0
1  149 0 0 12.4
2  296 55 0 0 12.4
2  297 52 0 0 12.4
0

0101000
-38 78 +37 78 *
Ed
 1e-07 1 1 0
1  150 0 0 23
2  298 55 0 0 23
2  299 45 0 0 23
0

0101000
-43 78 +38 78 *
Ed
 1e-07 1 1 0
1  151 0 0 23
2  300 55 0 0 23
2  301 43 0 0 23
0

0101000
-45 78 +37 78 *
Wi

0101100
-36 0 -35 0 +34 0 +42 0 *
Ve
1e-07
-5.9 30 102
0 0

0101101
*
Ed
 1e-07 1 1 0
1  152 0 0 6.28318530717959
2  302 55 0 0 6.28318530717959
2  303 56 0 0 6.28318530717959
0

0101000
+32 78 -32 78 *
Wi

0101100
-31 0 *
Fa
0  1e-07 55 0

0101000
+33 0 +30 0 *
Ed
 1e-07 1 1 0
1  153 0 18.5 22.5
2  304 52 0 18.5 22.5
2  305 43 0 18.5 22.5
0

0101000
+64 78 -37 78 *
Ed
 1e-07 1 1 0
1  154 0 18.5 22.5
2  306 52 0 18.5 22.5
2  307 45 0 18.5 22.5
0

0101000
+66 78 -38 78 *
Wi

0101100
-28 0 -36 0 +27 0 -63 0 *
Fa
0  1e-07 52 0

0101000
+26 0 *
Ve
1e-07
-5.9 26 102
0 0

0101101
*
Ed
 1e-07 1 1 0
1  155 0 0 6.28318530717959
2  308 56 0 0 6.28318530717959
2  309 57 0 0 6.28318530717959
0

0101000
+24 78 -24 78 *
Ed
 1e-07 1 1 0
1  156 0 0 4
3  310 311CN 56 0 0 4
0

0101000
+32 78 -24 78 *
Wi

0101100
-23 0 +22 0 +31 0 -22 0 *
Fa
0  1e-07 56 0

0101000
+21 0 *
Ve
1e-07
-9 26 102
0 0

0101101
*
Ed
 1e-07 1 1 0
1  157 0 0 6.28318530717959
2  312 57 0 0 6.28318530717959
2  313 58 0 0 6.28318530717959
0

0101000
+19 78 -19 78 *
Wi

0101100
+18 0 *
Wi

0101100
-23 0 *
Fa
0  1e-07 57 0

0101000
+17 0 +16 0 *
Ve
1e-07
-9 24 102
0 0

0101101
*
Ed
 1e-07 1 1 0
1  158 0 0 6.28318530717959
2  314 58 0 0 6.28318530717959
2  315 59 0 0 6.28318530717959
0

0101000
+14 78 -14 78 *
Ed
 1e-07 1 1 0
1  159 0 0 2
3  316 317CN 58 0 0 2
0

0101000
-14 78 +19 78 *
Wi

0101100
-13 0 +12 0 +18 0 -12 0 *
Fa
0  1e-07 58 0

0111000
+11 0 *
Wi

0101100
+13 0 *
Fa
0  1e-07 59 0

0111000
+9 0 *
Wi

0101100
+86 0 +69 0 +58 0 -49 0 +44 0 -34 0 -28 0 -62 0 -79 0 +98 0 
-109 0 +90 0 *
Fa
0  1e-07 43 0

0101000
+7 0 *
Wi

0101100
-83 0 -93 0 +105 0 -100 0 +76 0 +65 0 +27 0 +35 0 -41 0 +51 0 
-55 0 -72 0 *
Fa
0  1e-07 45 0

0101000
+5 0 *
Sh

0101100
-102 0 -95 0 -88 0 +81 0 -74 0 -67 0 +60 0 +53 0 +46 0 +39 0 
+29 0 -25 0 +20 0 -15 0 +10 0 +8 0 +6 0 +4 0 *
So

0100000
+3 0 *
Co

1100000
+112 0 +2 77 *

+1 1 