DBRep_DrawableShape

CASCADE Topology V1, (c) Matra-Datavision
Locations 78
1
              1               0               0              -0 
              0               1               0             -30 
              0               0               1            -131 
1
             -1 -1.22464679914735e-16               0               0 
1.22464679914735e-16              -1               0               0 
              0               0               1               0 
1
              1               0               0               0 
              0               1               0               0 
              0               0               1               0 
1
              1               0               0               0 
              0 1.11022302462516e-16               1               0 
              0              -1 1.11022302462516e-16               0 
1
              1               0               0               0 
              0               1               0               0 
              0               0               1               0 
1
              1               0               0               0 
              0               1               0              30 
              0               0               1             160 
2  2 1 3 1 4 1 5 1 6 1 0
2  6 -1 5 -1 4 -1 3 -1 2 -1 0
1
             -1 -1.22464679914735e-16               0               0 
1.22464679914735e-16              -1               0               0 
              0               0               1               0 
1
              1               0               0               0 
              0               1               0               0 
              0               0               1               0 
1
              1               0               0               0 
              0 1.11022302462516e-16               1               0 
              0              -1 1.11022302462516e-16               0 
1
              1               0               0               0 
              0               1               0               0 
              0               0               1               0 
1
              1               0               0               0 
              0               1               0              30 
              0               0               1             160 
2  9 1 10 1 11 1 12 1 13 1 0
1
             -1 -1.22464679914735e-16               0               0 
1.22464679914735e-16              -1               0               0 
              0               0               1               0 
1
              1               0               0               0 
              0               1               0               0 
              0               0               1               0 
1
              1               0               0               0 
              0 1.11022302462516e-16               1               0 
              0              -1 1.11022302462516e-16               0 
1
              1               0               0               0 
              0               1               0               0 
              0               0               1               0 
1
              1               0               0               0 
              0               1               0              30 
              0               0               1             160 
2  15 1 16 1 17 1 18 1 19 1 0
1
             -1 -1.22464679914735e-16               0               0 
1.22464679914735e-16              -1               0               0 
              0               0               1               0 
1
              1               0               0               0 
              0               1               0               0 
              0               0               1               0 
1
              1               0               0               0 
              0 1.11022302462516e-16              -1               0 
              0               1 1.11022302462516e-16               0 
1
              1               0               0               0 
              0               1               0               0 
              0               0               1               0 
1
              1               0               0               0 
              0               1               0              30 
              0               0               1             102 
2  21 1 22 1 23 1 24 1 25 1 0
1
             -1 -1.22464679914735e-16               0               0 
1.22464679914735e-16              -1               0               0 
              0               0               1               0 
1
              1               0               0               0 
              0               1               0               0 
              0               0               1               0 
1
              1               0               0               0 
              0 1.11022302462516e-16               1               0 
              0              -1 1.11022302462516e-16               0 
1
              1               0               0               0 
              0               1               0               0 
              0               0               1               0 
1
              1               0               0               0 
              0               1               0              30 
              0               0               1             160 
2  27 1 28 1 29 1 30 1 31 1 0
1
             -1 -1.22464679914735e-16               0               0 
1.22464679914735e-16              -1               0               0 
              0               0               1               0 
1
              1               0               0               0 
              0               1               0               0 
              0               0               1               0 
1
              1               0               0               0 
              0 1.11022302462516e-16              -1               0 
              0               1 1.11022302462516e-16               0 
1
              1               0               0               0 
              0               1               0               0 
              0               0               1               0 
1
              1               0               0               0 
              0               1               0              30 
              0               0               1             102 
2  33 1 34 1 35 1 36 1 37 1 0
1
             -1 -1.22464679914735e-16               0               0 
1.22464679914735e-16              -1               0               0 
              0               0               1               0 
1
              1               0               0               0 
              0               1               0               0 
              0               0               1               0 
1
              1               0               0               0 
              0 1.11022302462516e-16              -1               0 
              0               1 1.11022302462516e-16               0 
1
              1               0               0               0 
              0               1               0               0 
              0               0               1               0 
1
              1               0               0               0 
              0               1               0              30 
              0               0               1             102 
2  39 1 40 1 41 1 42 1 43 1 0
1
             -1 -1.22464679914735e-16               0               0 
1.22464679914735e-16              -1               0               0 
              0               0               1               0 
1
              1               0               0               0 
              0               1               0               0 
              0               0               1               0 
1
              1               0               0               0 
              0 1.11022302462516e-16              -1               0 
              0               1 1.11022302462516e-16               0 
1
              1               0               0               0 
              0               1               0               0 
              0               0               1               0 
1
              1               0               0               0 
              0               1               0              30 
              0               0               1             102 
2  45 1 46 1 47 1 48 1 49 1 0
1
             -1 -1.22464679914735e-16               0               0 
1.22464679914735e-16              -1               0               0 
              0               0               1               0 
1
              1               0               0               0 
              0               1               0               0 
              0               0               1               0 
1
              1               0               0               0 
              0 1.11022302462516e-16              -1               0 
              0               1 1.11022302462516e-16               0 
1
              1               0               0               0 
              0               1               0               0 
              0               0               1               0 
1
              1               0               0               0 
              0               1               0              30 
              0               0               1             102 
2  51 1 52 1 53 1 54 1 55 1 0
1
             -1 -1.22464679914735e-16               0               0 
1.22464679914735e-16              -1               0               0 
              0               0               1               0 
1
              1               0               0               0 
              0               1               0               0 
              0               0               1               0 
1
              1               0               0               0 
              0 1.11022302462516e-16              -1               0 
              0               1 1.11022302462516e-16               0 
1
              1               0               0               0 
              0               1               0               0 
              0               0               1               0 
1
              1               0               0               0 
              0               1               0              30 
              0               0               1             102 
2  57 1 58 1 59 1 60 1 61 1 0
2  13 -1 12 -1 11 -1 10 -1 9 -1 0
2  19 -1 18 -1 17 -1 16 -1 15 -1 0
2  25 -1 24 -1 23 -1 22 -1 21 -1 0
2  31 -1 30 -1 29 -1 28 -1 27 -1 0
2  37 -1 36 -1 35 -1 34 -1 33 -1 0
2  43 -1 42 -1 41 -1 40 -1 39 -1 0
2  49 -1 48 -1 47 -1 46 -1 45 -1 0
2  55 -1 54 -1 53 -1 52 -1 51 -1 0
2  61 -1 60 -1 59 -1 58 -1 57 -1 0
1
             -1 -1.22464679914735e-16               0               0 
1.22464679914735e-16              -1               0               0 
              0               0               1               0 
1
              1               0               0               0 
              0               1               0               0 
              0               0               1               0 
1
              1               0               0               0 
              0 1.11022302462516e-16               1               0 
              0              -1 1.11022302462516e-16               0 
1
              1               0               0               0 
              0               1               0               0 
              0               0               1               0 
1
              1               0               0               0 
              0               1               0              30 
              0               0               1             160 
2  72 1 73 1 74 1 75 1 76 1 0
2  76 -1 75 -1 74 -1 73 -1 72 -1 0
Curve2ds 329
1 0 4.5 1 0 
1 -44.679186679369337 -8.701955975130943 0 1 
1 10.999999999999998 0 0 1 
1 1.5707963267948966 0 0 1 
1 0 4.5 1 0 
1 -44.679186679369337 -8.701955975130943 0 1 
1 0 0 1 0 
1 44.91261616327634 -8.6666590072761522 0 1 
1 12.000000000000002 0 0 1 
1 1.5707963267948966 0 0 1 
8 0.050000000000000711 3.0000005999999999
1 11.5 5 0 -1 
2 -33.679186679369337 3.2980440248690583 1 0 -0 1 11
1 -1.5707963267948966 4.5 1 0 
1 -44.679186679369337 14.298044024869057 1 0 
1 0 -4.5 1 0 
1 13.320813320630663 14.498044024869058 -1.2246467991473532e-16 -1 
1 4.5 0 0 1 
1 13.320813320630663 14.498044024869058 1 -1.2246467991473532e-16 
1 4.5 0 0 -1 
1 35.320813320630663 14.498044024869055 -1.2246467991473532e-16 -1 
1 17.199999999999996 2.25 -1 1.3596310734468911e-32 
1 13.320813320630663 -19.901955975130942 1 -1.2246467991473532e-16 
1 4.5 0 0 -1 
1 13.320813320630663 14.498044024869058 -1.2246467991473532e-16 -1 
1 4.5 0 0 1 
1 -44.679186679369337 -8.701955975130943 1 0 
1 41.613934108206223 8.5881558172444556 -1 0 
1 1.6315214392692781 -8.701955975130943 0 1 
8 -5.999999999062311e-07 4.5000005999999999
1 1.1438837039651688 0 0 1 
1 -29.179186679369337 -4.201955975130943 -1 0 
8 -31.5 -15.5
1 -15.5 -4.5 -1 -0 
1 -12.989894798007953 -8.701955975130943 0 1 
8 -5.999999999062311e-07 4.5000005999999999
1 1.1438837039651688 0 0 1 
1 -44.679186679369337 -8.701955975130943 1 0 
1 41.613934108206223 8.5881558172444556 -1 0 
2 -33.679186679369337 2.2980440248690557 1 0 0 -1 11
1 -1.5707963267948966 4.5 1 0 
2 24.320813320630663 -16.701955975130943 -1.2246467991473532e-16 -1 1 -1.2246467991473532e-16 1.1499999999999999
1 6.679274664138223e-65 12.5 1 0 
8 -19.800977987565471 4.7990220124345297
1 17.320813320630663 4.799022012434528 1.2246467991473532e-16 1 
8 -19.800977987565471 4.7990220124345297
1 17 4.7990220124345297 1.3596310734468911e-32 -1 
8 8.6604066603153473 22.660406660315346
1 8.6604066603153171 -15.00195597513094 1 -1.2246467991473532e-16 
8 8.6604066603153473 22.660406660315346
1 17 8.6604066603153473 1.1102230246251565e-16 -1 
8 -19.800977987565471 4.7990220124345297
1 31.320813320630663 4.7990220124345262 1.2246467991473532e-16 1 
8 -19.800977987565471 4.7990220124345297
1 17 4.7990220124345297 1.3596310734468911e-32 -1 
8 8.6604066603153473 22.660406660315346
1 8.6604066603153171 9.5980440248690577 1 -1.2246467991473532e-16 
8 8.6604066603153473 22.660406660315346
1 17 8.6604066603153473 1.1102230246251565e-16 -1 
2 -33.679186679369337 2.798044024869057 1.2246467991473532e-16 -1 -1 -1.2246467991473532e-16 11
1 6.679274664138223e-65 0.5 1 0 
2 -33.679186679369337 2.798044024869057 1.2246467991473532e-16 -1 -1 -1.2246467991473532e-16 11
1 6.679274664138223e-65 0.5 1 0 
2 24.320813320630663 11.298044024869057 -1.2246467991473532e-16 -1 1 -1.2246467991473532e-16 1.1499999999999999
1 6.679274664138223e-65 12.5 1 0 
1 -1.5707963267948966 0 1 0 
2 33.91261616327634 2.3333409927238455 -1 0 -0 -1 11
1 0 0 0 1 
1 30.613934108206223 13.088155817244456 0 -1 
2 33.91261616327634 3.3333409927238482 -1 0 0 1 11
1 -1.5707963267948966 0 1 0 
1 44.91261616327634 -8.6666590072761522 -1 0 
1 41.613934108206223 13.088155817244456 -1 0 
1 44.91261616327634 14.333340992723848 -1 0 
1 0 0 1 0 
1 -13.08738383672366 14.533340992723847 1.2246467991473532e-16 -1 
1 0 0 0 1 
1 -13.08738383672366 14.533340992723847 1.2246467991473532e-16 -1 
1 0 0 0 1 
1 -13.08738383672366 -19.866659007276152 -1 -1.2246467991473532e-16 
1 0 0 0 -1 
1 -13.08738383672366 14.533340992723847 -1 -1.2246467991473532e-16 
1 0 0 0 -1 
1 -35.08738383672366 14.533340992723843 1.2246467991473532e-16 -1 
1 17.199999999999996 -2.25 -1 1.3596310734468911e-32 
2 -24.08738383672366 -16.666659007276152 1.2246467991473532e-16 -1 -1 -1.2246467991473532e-16 1.1499999999999999
1 6.679274664138223e-65 8.0000000000000036 1 0 
8 -4.8166704963619251 19.783329503638075
1 -31.08738383672366 4.8166704963619207 1.2246467991473532e-16 -1 
8 -4.8166704963619251 19.783329503638075
1 12.500000000000004 4.8166704963619251 -1.3596310734468911e-32 1 
8 -22.543691918361844 -8.543691918361846
1 -8.5436919183618159 -14.966659007276153 1 1.2246467991473532e-16 
8 -22.543691918361844 -8.543691918361846
1 12.500000000000002 8.543691918361846 -1.1102230246251565e-16 1 
8 -4.8166704963619251 19.783329503638075
1 -17.08738383672366 4.8166704963619225 1.2246467991473532e-16 -1 
8 -4.8166704963619251 19.783329503638075
1 12.500000000000004 4.8166704963619251 -1.3596310734468911e-32 1 
8 -22.543691918361844 -8.543691918361846
1 -8.5436919183618159 9.6333409927238485 1 1.2246467991473532e-16 
8 -22.543691918361844 -8.543691918361846
1 12.500000000000002 8.543691918361846 -1.1102230246251565e-16 1 
2 33.91261616327634 -3.6666590072761531 -1.2246467991473532e-16 -1 1 -1.2246467991473532e-16 1.1499999999999999
1 6.679274664138223e-65 7.9999999999999964 1 0 
2 -24.08738383672366 11.333340992723848 1.2246467991473532e-16 -1 -1 -1.2246467991473532e-16 1.1499999999999999
1 6.679274664138223e-65 8.0000000000000036 1 0 
2 27.41261616327634 2.8333409927238478 -1.2246467991473532e-16 -1 1 -1.2246467991473532e-16 1.1499999999999999
1 6.679274664138223e-65 7.9999999999999964 1 0 
2 33.91261616327634 2.8333409927238469 -1.2246467991473532e-16 -1 1 -1.2246467991473532e-16 3.2000000000000002
1 6.679274664138223e-65 7.9999999999999964 1 0 
2 40.41261616327634 2.833340992723846 -1.2246467991473532e-16 -1 1 -1.2246467991473532e-16 1.1499999999999999
1 6.679274664138223e-65 7.9999999999999964 1 0 
2 33.91261616327634 9.3333409927238478 -1.2246467991473532e-16 -1 1 -1.2246467991473532e-16 1.1499999999999999
1 6.679274664138223e-65 7.9999999999999964 1 0 
1 0 0 0 1 
1 11 0 0 -1 
8 -4.5000000000000036 -3.5527136788005009e-15
1 58 3.5527136788005009e-15 -1.1102230246251565e-16 1 
8 -4.5000000000000036 -3.5527136788005009e-15
1 -3.5527136788005009e-15 0.20000000000000107 -1 0 
1 0 0 1 0 
1 0 0 1 0 
1 0 -22 1 0 
1 17.199999999999996 -2.25 0 1 
1 -17.199999999999999 -2.25 0 1 
1 0 -22 1 0 
1 0 0 1 0 
1 0 34.399999999999999 1 0 
8 -4.5000000000000036 -3.5527136788005009e-15
1 -3.5527136788005009e-15 23.200000000000003 -1 0 
1 -16.386065891793777 13.088155817244459 1.1102230246251565e-16 1 
2 2.2939341082062299 5.4081558172444559 -1 0 -0 -1 7.6800000000000068
1 -4.7123889803846897 0 1 0 
1 -5.3860658917937769 13.088155817244456 0 -1 
1 0 0 0 1 
2 2.2939341082062299 -8.2318441827555446 -1 0 0 1 7.6800000000000068
1 -4.7123889803846897 0 1 0 
1 10.613934108206223 -11.411844182755544 -1 0 
1 0 0 1 0 
1 -27.386065891793777 -11.411844182755544 0 -1 
1 0 0 0 1 
1 10.613934108206223 -15.911844182755544 -1 0 
1 -24.369046394644329 -11.405873333060981 1 0 
1 -0.38606589179377693 -11.411844182755544 0 -1 
1 0 0 0 1 
2 2.2939341082062299 -8.2318441827555446 -1 0 0 1 7.6800000000000068
1 -4.7123889803846897 0 1 0 
1 10.613934108206223 -15.911844182755544 -1 0 
1 -24.369046394644329 -11.405873333060981 1 0 
2 2.9339341082062163 -8.2318441827555446 -1 0 -0 -1 7.6800000000000068
1 -1.5707963267948966 0 1 0 
1 10.613934108206223 13.088155817244456 0 -1 
1 0 0 0 1 
2 2.9339341082062163 5.4081558172444559 -1 0 0 1 7.6800000000000068
1 -1.5707963267948966 0 1 0 
1 -4.7123889803846897 4.5 1 0 
2 8.3199999999999932 -7.6799999999999997 1 0 0 -1 7.6799999999999997
1 1.5707963267948966 0 0 1 
1 0 7.6799999999999997 1 0 
1 16 0 0 -1 
1 4.5 0 0 1 
2 8.3199999999999932 -21.32 1 0 -0 1 7.6799999999999997
1 -4.7123889803846897 4.5 1 0 
8 -16 0
1 0 -24.5 -1 -0 
8 -16 0
1 0 4.5 -1 0 
8 -5.999999999062311e-07 4.5000005999999999
1 2.1258803253505789 -24.5 0 -1 
8 -5.999999999062311e-07 4.5000005999999999
1 0.93861107811415145 0 0 1 
2 7.6800000000000068 -21.32 1 0 0 -1 7.6799999999999997
1 -1.5707963267948966 4.5 1 0 
1 0 0 0 -1 
1 4.5 0 0 1 
2 7.6800000000000068 -7.6799999999999997 1 0 -0 1 7.6799999999999997
1 -1.5707963267948966 4.5 1 0 
1 1.5707963267948966 0 0 1 
1 0 7.6799999999999997 1 0 
1 6.2831853071795862 -0 0 1 
1 0 -0 0 1 
1 0 24.600000000000001 1 0 
1 0 0 1 0 
1 0 0 1 0 
1 0 0 1 0 
1 0 -14 1 0 
1 0 24.600000000000001 1 0 
1 0 0 1 0 
1 0 -14 1 0 
1 6.2831853071795862 -0 0 1 
1 0 -0 0 1 
1 0 0 1 0 
2 0 0 1 0 -0 1 11
1 6.2831853071795862 -0 0 1 
1 0 -0 0 1 
1 6.2831853071795862 -0 0 1 
1 0 -0 0 1 
1 6.679274664138223e-65 3 1 0 
2 6.5 7.9602041944577955e-16 1 0 -0 1 1.1499999999999999
1 6.2831853071795862 -0 0 1 
1 0 -0 0 1 
1 6.679274664138223e-65 3 1 0 
2 3.6977854932234928e-32 -6.5 1 0 -0 1 1.1499999999999999
1 6.2831853071795862 -0 0 1 
1 0 -0 0 1 
1 6.679274664138223e-65 3 1 0 
2 0 -0 1 0 -0 1 3.2000000000000002
1 6.2831853071795862 -0 0 1 
1 0 -0 0 1 
1 6.679274664138223e-65 3 1 0 
2 -3.6977854932234928e-32 6.5 1 0 -0 1 1.1499999999999999
1 6.2831853071795862 -0 0 1 
1 0 -0 0 1 
1 6.679274664138223e-65 3 1 0 
2 -6.5 -7.9602041944577955e-16 1 0 -0 1 1.1499999999999999
1 0 21.32 1 0 
1 1.5707963267948966 0 0 1 
8 -5.999999999062311e-07 4.5000005999999999
1 1.1438837039651688 0 0 1 
8 -5.999999999062311e-07 4.5000005999999999
1 15.310708118638615 0 0 1 
1 0 0 0 1 
1 0 0 1 0 
2 11 12.000000000000002 1 0 -0 1 11
1 -1.5707963267948966 0 1 0 
1 0 23 1 0 
1 0 0 1 0 
2 38 12.000000000000002 1 0 0 -1 11
1 -4.7123889803846897 0 1 0 
1 49 0 0 1 
1 0 0 1 0 
2 38 10.999999999999998 1 0 -0 1 11
1 -4.7123889803846897 0 1 0 
2 11 10.999999999999998 1 0 0 -1 11
1 -1.5707963267948966 0 1 0 
1 1.5707963267948966 0 0 1 
1 10.999999999999998 0 0 1 
1 -4.7123889803846897 4.5 1 0 
2 13.630953605355671 -0.405873333060983 1 0 -0 1 11
1 -16.049046394644336 -11.405873333060981 0 1 
1 0 0 0 1 
2 -13.369046394644329 -0.405873333060983 1 0 0 -1 11
1 -1.5707963267948966 4.5 1 0 
1 24.630953605355671 -11.405873333060981 0 1 
1 0 4.5 1 0 
2 13.630953605355671 0.59412666693901972 1 0 0 -1 11
1 -4.7123889803846897 4.5 1 0 
1 -24.369046394644329 11.594126666939019 1 0 
1 0 -4.5 1 0 
2 -13.369046394644329 0.59412666693901972 1 0 -0 1 11
1 -1.5707963267948966 4.5 1 0 
1 -24.369046394644329 -11.405873333060981 0 1 
1 0 4.5 1 0 
2 -13.369046394644329 -0.405873333060983 1 0 0 -1 11
1 -1.5707963267948966 4.5 1 0 
1 -16.689046394644322 -11.405873333060981 0 1 
1 0 0 0 1 
7 0 0  5 10 3  0.24611343971366084 4.5  0.22707766458317419 4.5  0.20793757856667719 4.4932872287815551  0.18876393024707036 4.4795542919427875  0.16962364392635562 4.4586601617915784  0.11930912681063426 4.384615489614422  0.088361944703271161 4.3194515758747567  0.057995948884694268 4.2353941415733534  0.028458476916596028 4.1337883192604439  0 4.0172216861786305 
 0 6 0.37844020970478054 4 1 6
7 0 0  5 10 3  0 0.33146682997142207  0.026443202916250245 0.28045095262171771  0.053189373154044352 0.2339878249393465  0.080162225385224842 0.19241160917599656  0.10728999551810636 0.15589836866634937  0.17918890917989855 0.072871571494465354  0.22401512983986915 0.035098911345722177  0.26870092513521582 0.011135237356357366  0.31296432091544146 -1.7624155598759188e-15  0.35645933325940149 -1.7763568394002505e-15 
 0 6 0.37844020970478054 4 1 6
7 0 0  7 14 3  0 0.51297945076867357  0.046666514648841764 0.62644200367627911  0.092060016771380287 0.75253153215259816  0.13619509467638899 0.89004997787548201  0.1790681975525136 1.0376400161177974  0.22065934501969794 1.1938084095250781  0.26093261954604369 1.3569398033898812  0.38616991355271058 1.8989337973822762  0.46660335048328133 2.3019948499550771  0.54203321339565158 2.7238623412809075  0.61317803339815646 3.1571441891157024  0.68076878511804806 3.5978362621429478  0.74556600298443776 4.0448864243003371  0.80841400552290033 4.5000005999999999 
 0 8 0.3106328868938143 6 1 8
7 0 0  7 14 3  0.30659919916449629 4.5  0.34077466690775104 4.5  0.37444923388367041 4.4804872610156004  0.40755452503470485 4.4433778946955398  0.44002396651782788 4.3905775009199743  0.47178882817382334 4.3240043435816782  0.50277524359552828 4.2456043048331598  0.59976099581499054 3.9615175556292761  0.66304385490853468 3.7152598246329411  0.72304105154870779 3.434620911073563  0.78011407088028939 3.130211772086708  0.83470108057211478 2.8086794667593176  0.88732559066903671 2.4732287912222954  0.93861114572649174 2.1241634361905506 
 0 8 0.3106328868938143 6 1 8
1 1.5707963267948966 0 0 1 
1 0 21.32 1 0 
1 1.5707963267948966 0 0 1 
1 10.999999999999998 0 0 1 
1 12.000000000000002 0 0 1 
1 1.5707963267948966 0 0 1 
1 0 0 0 1 
1 11 0 0 -1 
1 38 0 0 -1 
1 0 0 0 1 
1 1.5707963267948966 0 0 1 
1 12.000000000000002 0 0 1 
1 0 0 1 0 
1 12.277322404371587 -11.5 -1 0 
8 -12.4 0
1 16 0 0 1 
8 -12.4 0
1 4.6999999999999993 0 0 -1 
1 0 -12.4 1 0 
1 -12.277322404371578 -11.500000000000002 1 0 
1 0 0 0 -1 
1 0 0 0 1 
1 0 12.4 1 0 
1 3.7226775956284222 -16.200000000000003 0 1 
1 0 0 1 0 
1 -3.7226775956284133 -16.199999999999999 0 1 
1 0 0 0 1 
1 0 0 0 -1 
1 0 12.4 1 0 
1 -12.277322404371578 -11.500000000000002 0 1 
1 23 0 0 1 
1 0 0 0 -1 
1 0 0 1 0 
1 12.277322404371587 -11.5 0 1 
1 0 0 1 0 
1 12.277322404371587 11.5 -1 0 
8 -12.4 0
1 16 0 0 1 
8 -12.4 0
1 27.699999999999999 0 0 -1 
1 0 -12.4 1 0 
1 -12.277322404371578 11.499999999999998 1 0 
1 0 0 1 0 
1 -3.7226775956284133 -16.199999999999999 -1 0 
1 2.5 0 0 -1 
1 0 0 0 1 
1 0 -12.4 1 0 
1 3.7226775956284222 -16.200000000000003 1 0 
1 0 12.4 1 0 
1 3.7226775956284222 -16.200000000000003 0 1 
1 32.399999999999999 0 0 1 
1 0 0 0 -1 
1 0 0 1 0 
1 -3.7226775956284133 -16.199999999999999 0 1 
1 0 12.4 1 0 
1 6.2226775956284222 -16.200000000000003 0 1 
8 -12.4 0
1 4.6999999999999993 0 0 -1 
8 -12.4 0
1 18.5 0 0 1 
1 0 0 1 0 
1 -6.2226775956284133 -16.199999999999999 0 1 
1 0 0 1 0 
1 -3.7226775956284133 16.199999999999999 -1 0 
1 2.5 0 0 -1 
1 32.399999999999999 0 0 1 
1 0 -12.4 1 0 
1 3.7226775956284222 16.199999999999996 1 0 
1 0 12.4 1 0 
1 6.2226775956284222 -16.200000000000003 0 1 
1 0 0 1 0 
1 -6.2226775956284133 -16.199999999999999 0 1 
8 -12.4 0
1 27.699999999999999 0 0 -1 
8 -12.4 0
1 18.5 0 0 1 
1 0 0 1 0 
1 12.277322404371587 11.5 -1 0 
1 22.5 0 0 -1 
1 23 0 0 1 
1 0 -12.4 1 0 
1 -12.277322404371578 11.499999999999998 1 0 
1 0 0 0 1 
1 22.5 0 0 -1 
1 0 12.4 1 0 
1 10.222677595628422 -11.500000000000002 0 1 
1 0 0 1 0 
1 -10.222677595628413 -11.5 0 1 
2 6 6.2000000000000002 1 0 -0 1 5.9000000000000004
1 0 0 1 0 
1 0 0 1 0 
1 12.277322404371587 -11.5 -1 0 
1 0 -12.4 1 0 
1 -12.277322404371578 -11.500000000000002 1 0 
1 0 4 1 0 
2 0 0 1 0 -0 1 5.9000000000000004
1 6.2831853071795862 -0 0 1 
1 0 -0 0 1 
2 0 0 1 0 -0 1 9
1 0 0 1 0 
1 0 2 1 0 
2 0 0 1 0 -0 1 9
1 6.2831853071795862 -0 0 1 
1 0 -0 0 1 
Curves 165
1 -11.5 23.5 91 1 0 -0 
1 -0.500000000000002 19 91 -0 1 0 
1 -11.5 23.5 91 1 0 -0 
1 -11.5 19 91 1 0 -0 
1 0.500000000000002 19 91 -0 1 0 
1 0 24 91 0 -1 1.1102230246251565e-16 
8 1.5707963267948966 3.1415926535897931
2 0.50000000000000133 23.5 102 -0 1 0 0 0 1 1 0 -0 11
1 11.5 23.5 91 0 0 1 
1 -11.699999999999999 -11 -6.5 1 0 -0 
1 -11.699999999999999 -11 -6.5 -0 1 0 
1 11.699999999999998 23.5 171 -1 1.3596310734468911e-32 -1.2246467991473532e-16 
1 22.699999999999999 -11 -6.5 -0 1 0 
1 -11.699999999999999 -11 -6.5 1 0 -0 
1 -11.5 23.5 91 0 0 1 
1 -11.5 23.5 137.31070811863862 1 0 -0 
1 -7 23.5 106.5 -0 0 -1 
1 -11.5 23.5 122.68929188136138 1 0 -0 
1 -11.5 23.5 91 0 0 1 
8 1.5707963267948966 3.1415926535897931
2 -0.50000000000000133 23.5 102 0 -1 -0 0 0 1 -1 -0 0 11
2 -19.5 23.5 160 0 1 1.1102230246251565e-16 -1 1.3596310734468911e-32 -1.2246467991473532e-16 -1.2246467991473532e-16 -1.1102230246251565e-16 1 1.1499999999999999
1 2.000977987565471 23.5 153 1 -0 1.2246467991473532e-16 
1 -17.799999999999997 23.5 144.33959333968465 -1.2246467991473532e-16 0 1 
1 2.0009779875654692 23.5 167 1 -0 1.2246467991473532e-16 
1 6.8000000000000016 23.5 144.33959333968465 -1.2246467991473532e-16 0 1 
2 0 23.5 102 0 -1 1.1102230246251565e-16 -1 1.3596310734468911e-32 1.2246467991473532e-16 -1.2246467991473532e-16 -1.1102230246251565e-16 -1 11
2 0 23.5 102 0 -1 1.1102230246251565e-16 -1 1.3596310734468911e-32 1.2246467991473532e-16 -1.2246467991473532e-16 -1.1102230246251565e-16 -1 11
2 8.5 23.5 160 0 1 1.1102230246251565e-16 -1 1.3596310734468911e-32 -1.2246467991473532e-16 -1.2246467991473532e-16 -1.1102230246251565e-16 1 1.1499999999999999
8 1.5707963267948966 3.1415926535897931
2 -0.50000000000000133 19 102 0 -1 -0 0 0 1 -1 -0 0 11
1 -11.500000000000002 19 102 -0 1 0 
8 1.5707963267948966 3.1415926535897931
2 0.50000000000000133 19 102 -0 1 0 0 0 1 1 0 -0 11
1 -11.5 19 91 0 0 1 
1 11.5 19 91 0 0 1 
1 -11.699999999999999 -11 -11 1 0 -0 
1 -11.699999999999999 -11 -11 1 0 -0 
1 22.699999999999999 -11 -11 -0 1 0 
1 -11.699999999999999 -11 -11 -0 1 0 
1 11.699999999999998 19 171 -1 1.3596310734468911e-32 -1.2246467991473532e-16 
2 -19.5 19.000000000000004 160 0 1 1.1102230246251565e-16 -1 1.3596310734468911e-32 -1.2246467991473532e-16 -1.2246467991473532e-16 -1.1102230246251565e-16 1 1.1499999999999999
1 1.983329503638074 19.000000000000004 167 -1 0 -1.2246467991473532e-16 
1 -17.800000000000001 19.000000000000004 144.45630808163816 1.2246467991473532e-16 0 -1 
1 1.9833295036380758 19.000000000000004 153 -1 0 -1.2246467991473532e-16 
1 6.8000000000000025 19.000000000000004 144.45630808163816 1.2246467991473532e-16 0 -1 
2 -6.5 19.000000000000004 102 0 -1 1.1102230246251565e-16 -1 1.3596310734468911e-32 1.2246467991473532e-16 -1.2246467991473532e-16 -1.1102230246251565e-16 -1 1.1499999999999999
2 8.5 19.000000000000004 160 0 1 1.1102230246251565e-16 -1 1.3596310734468911e-32 -1.2246467991473532e-16 -1.2246467991473532e-16 -1.1102230246251565e-16 1 1.1499999999999999
2 7.9602041944577955e-16 19.000000000000004 108.5 0 -1 1.1102230246251565e-16 -1 1.3596310734468911e-32 1.2246467991473532e-16 -1.2246467991473532e-16 -1.1102230246251565e-16 -1 1.1499999999999999
2 0 19.000000000000004 102 0 -1 1.1102230246251565e-16 -1 1.3596310734468911e-32 1.2246467991473532e-16 -1.2246467991473532e-16 -1.1102230246251565e-16 -1 3.2000000000000002
2 -7.9602041944577955e-16 19.000000000000004 95.5 0 -1 1.1102230246251565e-16 -1 1.3596310734468911e-32 1.2246467991473532e-16 -1.2246467991473532e-16 -1.1102230246251565e-16 -1 1.1499999999999999
2 6.5 19.000000000000004 102 0 -1 1.1102230246251565e-16 -1 1.3596310734468911e-32 1.2246467991473532e-16 -1.2246467991473532e-16 -1.1102230246251565e-16 -1 1.1499999999999999
1 11.500000000000002 19 102 -0 1 0 
1 11.5 18.999999999999996 149 0 -1 -1.1102230246251565e-16 
1 -11.699999999999999 -11 -11 0 0 1 
1 -11.699999999999999 11 -11 0 0 1 
1 22.699999999999999 11 -11 0 0 1 
1 22.699999999999999 -11 -11 0 0 1 
1 -11.5 18.999999999999996 149 0 -1 -1.1102230246251565e-16 
8 4.7123889803846897 6.2831853071795862
2 -11.5 26.68 130.31999999999999 -1 -0 0 0 0 1 -0 1 0 7.6799999999999997
1 -11.5 19 138 -0 1 0 
8 4.7123889803846897 6.2831853071795862
2 -11.5 40.32 130.31999999999999 1 0 -0 0 0 1 0 -1 0 7.6799999999999997
1 -11.5 43.5 122 0 0 1 
1 -11.500000000000002 43.5 160 -0 1 0 
1 -11.5 48 122 0 0 1 
1 -11.500000000000002 43.5 133 -0 1 0 
8 4.7123889803846897 6.2831853071795862
2 -11.5 40.32 130.31999999999999 1 0 -0 0 0 1 0 -1 0 7.6799999999999997
1 -11.5 48 122 0 0 1 
8 1.5707963267948966 3.1415926535897931
2 -11.5 40.32 129.68000000000001 -1 -0 0 0 0 1 -0 1 0 7.6799999999999997
1 -11.5 19 122 -0 1 0 
8 1.5707963267948966 3.1415926535897931
2 -11.5 26.68 129.68000000000001 1 0 -0 0 0 1 0 -1 0 7.6799999999999997
8 4.7123889803846897 6.2831853071795862
2 -7 26.68 130.31999999999999 -1 -0 0 0 0 1 -0 1 0 7.6799999999999997
1 -11.5 26.68 138 1 0 -0 
1 -7 19 138 -0 1 0 
8 4.7123889803846897 6.2831853071795862
2 -7 40.32 130.31999999999999 1 0 -0 0 0 1 0 -1 0 7.6799999999999997
1 -7 43.5 122 -0 0 -1 
1 -7 43.5 124.12588032535058 -0 1 0 
8 1.5707963267948966 3.1415926535897931
2 -7 40.32 129.68000000000001 -1 -0 0 0 0 1 -0 1 0 7.6799999999999997
1 -7 19 122 -0 1 0 
8 1.5707963267948966 3.1415926535897931
2 -7 26.68 129.68000000000001 1 0 -0 0 0 1 0 -1 0 7.6799999999999997
1 -11.5 26.68 122 1 0 -0 
1 20.649999999999999 -2.8166876380389037e-16 -19 0 0 1 
1 17.800000000000001 -7 -23.5 0 0 1 
1 -6.7999999999999998 -7 -23.5 0 0 1 
1 17.800000000000001 7 -23.5 0 0 1 
1 -6.7999999999999998 7 -23.5 0 0 1 
1 11 -2.6942229581241772e-15 6 0 0 1 
2 0 0 6 0 0 1 1 0 -0 -0 1 0 11
1 -7.3499999999999996 -2.8166876380389116e-16 -19 0 0 1 
1 7.6500000000000004 -2.8166876380389135e-16 3 0 0 1 
2 -6.5 24 102 0 -1 1.1102230246251565e-16 -1 1.3596310734468911e-32 1.2246467991473532e-16 -1.2246467991473532e-16 -1.1102230246251565e-16 -1 1.1499999999999999
1 1.1499999999999999 -6.5 3 0 0 1 
2 7.9602041944577955e-16 24 108.5 0 -1 1.1102230246251565e-16 -1 1.3596310734468911e-32 1.2246467991473532e-16 -1.2246467991473532e-16 -1.1102230246251565e-16 -1 1.1499999999999999
1 3.2000000000000002 -7.8377395145430609e-16 3 0 0 1 
2 0 24 102 0 -1 1.1102230246251565e-16 -1 1.3596310734468911e-32 1.2246467991473532e-16 -1.2246467991473532e-16 -1.1102230246251565e-16 -1 3.2000000000000002
1 1.1499999999999999 6.5 3 0 0 1 
2 -7.9602041944577955e-16 24 95.5 0 -1 1.1102230246251565e-16 -1 1.3596310734468911e-32 1.2246467991473532e-16 -1.2246467991473532e-16 -1.1102230246251565e-16 -1 1.1499999999999999
1 -5.3499999999999996 -2.8166876380389116e-16 3 0 0 1 
2 6.5 24 102 0 -1 1.1102230246251565e-16 -1 1.3596310734468911e-32 1.2246467991473532e-16 -1.2246467991473532e-16 -1.1102230246251565e-16 -1 1.1499999999999999
1 -11.5 40.32 138 1 0 -0 
1 -11.5 43.5 137.31070811863862 1 0 -0 
1 -11.5 43.5 122 1 0 -0 
8 1.5707963267948966 3.1415926535897931
2 0.50000000000000133 43.5 133 -0 1 0 0 0 1 1 0 -0 11
1 11.5 43.5 122 0 0 1 
8 4.7123889803846897 6.2831853071795862
2 0.50000000000000133 43.5 160 0 -1 -0 0 0 1 -1 -0 0 11
1 -11.5 43.5 171 1 0 -0 
8 4.7123889803846897 6.2831853071795862
2 -0.50000000000000133 43.5 160 -0 1 0 0 0 1 1 0 -0 11
8 1.5707963267948966 3.1415926535897931
2 -0.50000000000000133 43.5 133 0 -1 -0 0 0 1 -1 -0 0 11
1 -0.500000000000002 43.5 171 -0 1 0 
8 4.7123889803846897 6.2831853071795862
2 -0.50000000000000133 48 160 -0 1 0 0 0 1 1 0 -0 11
1 -11.5 48 130.31999999999999 1 0 -0 
8 1.5707963267948966 3.1415926535897931
2 -0.50000000000000133 48 133 0 -1 -0 0 0 1 -1 -0 0 11
1 -11.5 48 171 1 0 -0 
8 4.7123889803846897 6.2831853071795862
2 0.50000000000000133 48 160 0 -1 -0 0 0 1 -1 -0 0 11
1 11.5 48 122 0 0 1 
8 1.5707963267948966 3.1415926535897931
2 0.50000000000000133 48 133 -0 1 0 0 0 1 1 0 -0 11
1 -11.5 48 122 1 0 -0 
8 1.5707963267948966 3.1415926535897931
2 -0.50000000000000133 48 133 0 -1 -0 0 0 1 -1 -0 0 11
1 -11.5 48 129.68000000000001 1 0 -0 
7 0 0  5 10 3  -11.168533170028578 48 130.31999999999999  -11.219549047378282 48 130.52308379839678  -11.266012175060654 47.993287228781554 130.72849435825745  -11.307588390824003 47.97955429194279 130.9353501394184  -11.34410163133365 47.958660161791578 131.14276288576943  -11.427128428505535 47.884615489614418 131.68995953917161  -11.464901088654278 47.819451575874758 132.02854431688385  -11.488864762643642 47.735394141573359 132.36204526562767  -11.500000000000002 47.633788319260439 132.68695675391746  -11.500000000000002 47.51722168617863 133 
 0 6 0.37844020970478054 4 1 6
7 0 0  7 14 3  -10.987020549231328 48 129.68000000000004  -10.87355799632372 48 129.32160116749694  -10.747468467847401 47.980487261015583 128.97297920316078  -10.60995002212452 47.943377894695551 128.63529616088493  -10.462359983882203 47.890577500919996 128.30954295494161  -10.306191590474922 47.82400434358167 127.99656064508619  -10.143060196610119 47.745604304833158 127.69705612370346  -9.6010662026177229 47.461517555629271 126.77814531049103  -9.1980051500449402 47.215259824632952 126.20770302391863  -8.7761376587190387 46.934620911073544 125.69655113103802  -8.3428558108843536 46.630211772086717 125.23893232621099  -7.9021637378570402 46.308679466759315 124.82852580161725  -7.4551135756996567 45.973228791222297 124.45923596297251  -6.9999993999999939 45.62416343619055 124.12587988587039 
 0 8 0.3106328868938143 6 1 8
1 -11.5 40.32 122 1 0 -0 
1 -0.500000000000002 43.5 122 -0 1 0 
1 0.500000000000002 43.5 122 -0 1 0 
1 11.500000000000002 43.5 133 -0 1 0 
1 11.500000000000002 43.5 160 -0 1 0 
1 0.500000000000002 43.5 171 -0 1 0 
1 -6 -6.2000000000000002 -22.5 0 0 1 
1 -6 -6.2000000000000002 -6.5 0 -1 0 
1 -6 6.2000000000000002 -22.5 0 0 1 
1 -6 -6.2000000000000002 -22.5 -0 1 0 
1 -10.699999999999999 6.2000000000000002 -6.5 1 0 -0 
1 -10.699999999999999 -6.2000000000000002 -6.5 1 0 -0 
1 -10.699999999999999 -6.2000000000000002 -6.5 -0 1 0 
1 -6 6.2000000000000002 -22.5 1 0 -0 
1 17 -6.2000000000000002 -22.5 -0 1 0 
1 -6 -6.2000000000000002 -22.5 1 0 -0 
1 17 -6.2000000000000002 -22.5 0 0 1 
1 17 -6.2000000000000002 -6.5 0 -1 0 
1 17 6.2000000000000002 -22.5 0 0 1 
1 -10.699999999999999 -6.2000000000000002 -6.5 0 0 1 
1 -10.699999999999999 -6.2000000000000002 -4 -0 1 0 
1 -10.699999999999999 6.2000000000000002 -6.5 0 0 1 
1 -10.699999999999999 6.2000000000000002 -6.5 1 0 -0 
1 21.699999999999999 -6.2000000000000002 -6.5 -0 1 0 
1 -10.699999999999999 -6.2000000000000002 -6.5 1 0 -0 
1 -10.699999999999999 6.2000000000000002 -4 1 0 -0 
1 -6 -6.2000000000000002 -4 0 -1 0 
1 -10.699999999999999 -6.2000000000000002 -4 1 0 -0 
1 21.699999999999999 -6.2000000000000002 -6.5 0 0 1 
1 21.699999999999999 -6.2000000000000002 -4 -0 1 0 
1 21.699999999999999 6.2000000000000002 -6.5 0 0 1 
1 -10.699999999999999 6.2000000000000002 -4 1 0 -0 
1 -10.699999999999999 -6.2000000000000002 -4 1 0 -0 
1 17 -6.2000000000000002 -4 0 -1 0 
1 17 -6.2000000000000002 -22.5 0 0 1 
1 17 -6.2000000000000002 0 -0 1 0 
1 17 6.2000000000000002 -22.5 0 0 1 
1 -6 -6.2000000000000002 0 -0 1 0 
1 -6 6.2000000000000002 0 1 0 -0 
1 -6 -6.2000000000000002 0 1 0 -0 
2 0 0 0 0 0 1 1 0 -0 -0 1 0 5.9000000000000004
1 -6 -6.2000000000000002 -22.5 0 0 1 
1 -6 6.2000000000000002 -22.5 0 0 1 
2 0 0 4 0 0 1 1 0 -0 -0 1 0 5.9000000000000004
1 5.9000000000000004 -1.4450832229938768e-15 0 0 0 1 
2 0 0 4 0 0 1 1 0 -0 -0 1 0 9
2 0 0 6 0 0 1 1 0 -0 -0 1 0 9
1 9 -2.2043642384652358e-15 4 0 0 1 
Polygon3D 0
PolygonOnTriangulations 0
Surfaces 61
1 -11.5 19 91 0 0 1 1 0 -0 -0 1 0 
1 -2.798044024869057 23.5 135.67918667936934 0 1 0 0 -0 1 1 0 -0 
2 -0.50000000000000133 19 102 -0 1 0 -1 -0 0 -0 -0 -1 11
1 -2.8333409927238469 19.000000000000004 135.91261616327634 -0 -1 -0 0 0 -1 1 -0 0 
2 0.50000000000000133 19 102 -0 1 0 1 0 -0 -0 0 -1 11
1 11.5 19 91 1 0 -0 0 0 1 0 -1 0 
1 -11.699999999999999 -11 -11 -0 1 0 0 0 1 1 0 -0 
1 -11.699999999999999 -11 -11 1 0 -0 0 0 1 0 -1 0 
1 -5.4999999999999991 21.25 171.00000000000009 0 0 1 1 0 -0 -0 1 0 
1 22.699999999999999 -11 -11 1 0 -0 0 0 1 0 -1 0 
1 -11.699999999999999 -11 -11 -0 1 0 0 0 1 1 0 -0 
1 -11.499999999999998 32.088155817244456 132.61393410820622 -1 -0 -0 0 0 -1 0 -1 0 
2 -11.5 26.68 130.31999999999999 1 0 -0 0 -1 0 -0 0 1 7.6799999999999997
1 -7 19 122 1 0 -0 0 0 1 0 -1 0 
2 -11.5 26.68 129.68000000000001 1 0 -0 0 -1 0 0 -0 -1 7.6799999999999997
2 19.5 0 -19 0 0 1 1 0 -0 -0 1 0 1.1499999999999999
1 -6.7999999999999998 -7 -23.5 -0 1 0 0 0 1 1 0 -0 
1 17.800000000000001 -7 -23.5 1 0 -0 0 0 1 0 -1 0 
1 -6.7999999999999998 7 -23.5 -0 1 0 0 0 1 1 0 -0 
1 -6.7999999999999998 -7 -23.5 1 0 -0 0 0 1 0 -1 0 
2 0 0 6 0 0 1 1 0 -0 -0 1 0 11
2 -8.5 0 -19 0 0 1 1 0 -0 -0 1 0 1.1499999999999999
2 6.5 0 3 0 0 1 1 0 -0 -0 1 0 1.1499999999999999
2 0 -6.5 3 0 0 1 1 0 -0 -0 1 0 1.1499999999999999
2 0 0 3 0 0 1 1 0 -0 -0 1 0 3.2000000000000002
2 0 6.5 3 0 0 1 1 0 -0 -0 1 0 1.1499999999999999
2 -6.5 0 3 0 0 1 1 0 -0 -0 1 0 1.1499999999999999
1 -11.5 19 138 0 0 1 1 0 -0 -0 1 0 
2 -11.5 40.32 130.31999999999999 1 0 -0 0 1 0 0 -0 1 7.6799999999999997
1 -11.5 43.5 122 -0 1 0 0 0 1 1 0 -0 
2 -0.50000000000000133 43.5 160 -0 1 0 -1 -0 0 0 0 1 11
1 -0.094126666939018347 48.000000000000007 146.36904639464433 0 1 0 0 -0 1 1 0 -0 
2 -0.50000000000000133 43.5 133 -0 1 0 -1 -0 0 -0 -0 -1 11
2 -11.5 40.32 130.31999999999999 1 0 -0 0 1 0 0 -0 1 7.6799999999999997
2 -11.5 40.32 129.68000000000001 1 0 -0 0 1 0 -0 0 -1 7.6799999999999997
1 -11.5 19 122 0 0 1 1 0 -0 -0 1 0 
2 -0.50000000000000133 43.5 133 -0 1 0 -1 -0 0 -0 -0 -1 11
1 0 0 6 0 0 1 1 0 -0 -0 1 0 
1 -11.5 43.5 122 0 0 1 1 0 -0 -0 1 0 
2 0.50000000000000133 43.5 133 -0 1 0 1 0 -0 -0 0 -1 11
1 11.5 43.5 122 1 0 -0 0 0 1 0 -1 0 
2 0.50000000000000133 43.5 160 -0 1 0 1 0 -0 0 -0 1 11
1 -11.5 43.5 171 0 0 1 1 0 -0 -0 1 0 
1 -6 -6.2000000000000002 -22.5 1 0 -0 0 0 1 0 -1 0 
1 5.5 -6.1999999999999993 -10.222677595628413 -0 -1 -0 0 0 -1 1 -0 0 
1 -10.699999999999999 -6.2000000000000002 -6.5 0 0 1 1 0 -0 -0 1 0 
1 5.5000000000000018 6.2000000000000028 -10.222677595628422 0 1 0 0 -0 1 1 0 -0 
1 -6 -6.2000000000000002 -22.5 0 0 1 1 0 -0 -0 1 0 
1 -10.699999999999999 -6.2000000000000002 -6.5 1 0 -0 0 0 1 0 -1 0 
1 17 -6.2000000000000002 -22.5 1 0 -0 0 0 1 0 -1 0 
1 -10.699999999999999 -6.2000000000000002 -6.5 0 0 1 1 0 -0 -0 1 0 
1 -10.699999999999999 -6.2000000000000002 -4 0 0 1 1 0 -0 -0 1 0 
1 21.699999999999999 -6.2000000000000002 -6.5 1 0 -0 0 0 1 0 -1 0 
1 -6 -6.2000000000000002 -22.5 1 0 -0 0 0 1 0 -1 0 
1 -10.699999999999999 -6.2000000000000002 -4 0 0 1 1 0 -0 -0 1 0 
1 17 -6.2000000000000002 -22.5 1 0 -0 0 0 1 0 -1 0 
1 -6 -6.2000000000000002 0 0 0 1 1 0 -0 -0 1 0 
2 0 0 0 0 0 1 1 0 -0 -0 1 0 5.9000000000000004
1 0 0 4 0 0 1 1 0 -0 -0 1 0 
2 0 0 4 0 0 1 1 0 -0 -0 1 0 9
1 0 0 6 0 0 1 1 0 -0 -0 1 0 
Triangulations 0

TShapes 422
Ve
1.5e-07
-0.500000000000002 23.5 91
0 0

0101101
*
Ve
1.5e-07
0 23.5 91
0 0

0101101
*
Ed
 1.5e-07 1 1 0
1  1 0 11 11.5
2  1 1 0 11 11.5
2  2 2 0 11 11.5
0

0101000
+422 0 -421 0 *
Ve
1.5e-07
-0.500000000000002 19 91
0 0

0101101
*
Ed
 1e-07 1 1 0
1  2 0 0 4.5
2  3 1 0 0 4.5
2  4 3 0 0 4.5
4 G1 1 0 3 0
0

0101000
+419 0 -422 0 *
Ve
1.5e-07
0.500000000000002 23.5 91
0 0

0101101
*
Ed
 1.5e-07 1 1 0
1  3 0 11.5 12
2  5 1 0 11.5 12
2  6 2 0 11.5 12
0

0101000
+421 0 -417 0 *
Ve
1.5e-07
0.500000000000002 19 91
0 0

0101101
*
Ed
 1.5e-07 1 1 0
1  4 0 11 12
2  7 1 0 11 12
2  8 4 0 11 12
0

0101000
+419 0 -415 0 *
Ed
 1e-07 1 1 0
1  5 0 0 4.5
2  9 1 0 0 4.5
2  10 5 0 0 4.5
4 G1 1 0 5 0
0

0101000
+415 0 -417 0 *
Wi

0101100
-420 0 -418 0 -416 0 +414 0 +413 0 *
Ve
1.00000002020667e-07
-2.02066721859313e-15 21 91
0 0

0101101
*
Ed
 1e-07 1 1 0
1  6 0 0.5 3
2  11 1 0 0.5 3
0

0101000
+421 0 -411 0 *
Wi

0101000
i410 0 *
Fa
0  1e-07 1 0

0101000
+412 0 +409 0 *
Ve
1.5e-07
11.5 23.5 102
0 0

0101101
*
Ed
 1.5e-07 1 1 0
1  7 0 1.5707963267949 3.14159265358979
2  12 2 0 1.5707963267949 3.14159265358979
2  13 5 0 1.5707963267949 3.14159265358979
0

0101000
+407 0 -417 0 *
Ve
1.5e-07
11.5 23.5 149
0 0

0101101
*
Ed
 1.5e-07 1 1 0
1  8 0 11 58
2  14 2 0 11 58
2  15 6 0 11 58
0

0101000
+407 0 -405 0 *
Ve
1.5e-07
11.7 23.5 149
0 0

0101101
*
Ed
 1.5e-07 1 1 0
1  9 0 0 0.200000000000001
2  16 2 8 0 0.200000000000001
2  17 7 0 0 0.200000000000001
0

0101000
+403 8 -405 8 *
Ve
1.5e-07
11.7 23.5 171
0 0

0101101
*
Ed
 1.5e-07 1 1 0
1  10 0 0 22
2  18 2 8 0 22
2  19 8 0 0 22
0

0101000
-401 8 +403 8 *
Ve
1.5e-07
-22.7 23.5 171
0 0

0101101
*
Ed
 1e-07 1 1 0
1  11 0 0 34.4
2  20 2 0 0 34.4
2  21 9 0 0 34.4
0

0101000
+401 0 -399 0 *
Ve
1.5e-07
-22.7 23.5 149
0 0

0101101
*
Ed
 1.5e-07 1 1 0
1  12 0 0 22
2  22 2 8 0 22
2  23 10 0 0 22
0

0101000
-399 8 +397 8 *
Ve
1.5e-07
-11.5 23.5 149
0 0

0101101
*
Ed
 1.5e-07 1 1 0
1  13 0 23.2 34.4
2  24 2 8 23.2 34.4
2  25 11 0 23.2 34.4
0

0101000
+395 8 -397 8 *
Ve
1.5e-07
-11.5 23.5000000000001 137.310708118639
0 0

0101101
*
Ed
 1.5e-07 1 1 0
1  14 0 46.3107081186387 58
2  26 2 0 46.3107081186387 58
2  27 12 0 46.3107081186387 58
0

0101000
+393 0 -395 0 *
Ve
1.50000003552714e-07
-7 23.5 137.310708118639
0 0

0101101
*
Ed
 1.5e-07 1 1 0
1  15 0 0 4.5
2  28 2 0 0 4.5
2  29 13 0 0 4.5
0

0101000
+393 0 -391 0 *
Ve
1.5e-07
-7 23.5 122.689291881361
0 0

0101101
*
Ed
 1.5e-07 1 1 0
1  16 0 -30.8107081186386 -16.1892918813614
2  30 2 0 -30.8107081186386 -16.1892918813614
2  31 14 0 -30.8107081186386 -16.1892918813614
0

0101000
+391 0 -389 0 *
Ve
1.5e-07
-11.5 23.5000000000001 122.689291881361
0 0

0101101
*
Ed
 1.5e-07 1 1 0
1  17 0 0 4.5
2  32 2 0 0 4.5
2  33 15 0 0 4.5
0

0101000
+387 0 -389 0 *
Ve
1.5e-07
-11.5 23.5 102
0 0

0101101
*
Ed
 1.5e-07 1 1 0
1  18 0 11 31.6892918813613
2  34 2 0 11 31.6892918813613
2  35 12 0 11 31.6892918813613
0

0101000
+385 0 -387 0 *
Ed
 1.5e-07 1 1 0
1  19 0 1.5707963267949 3.14159265358979
2  36 2 0 1.5707963267949 3.14159265358979
2  37 3 0 1.5707963267949 3.14159265358979
0

0101000
+385 0 -422 0 *
Wi

0101100
-420 0 -416 0 +406 0 -404 0 +402 7 -400 7 -398 0 +396 7 +394 7 +392 0 
-390 0 -388 0 +386 0 +384 0 -383 0 *
Ve
1.5e-07
-20.65 23.5 160
0 0

0101101
*
Ed
 1.5e-07 1 1 0
1  20 0 0 6.28318530717959
2  38 2 0 0 6.28318530717959
2  39 16 14 0 6.28318530717959
0

0101100
+381 0 -381 0 *
Wi

0101100
-380 0 *
Ve
2.00000003552714e-07
-17.8 23.5 153
0 0

0101101
*
Ve
2e-07
6.8 23.5 153
0 0

0101101
*
Ed
 2e-07 1 1 0
1  21 0 -19.8009779875655 4.79902201243453
2  40 2 0 -19.8009779875655 4.79902201243453
2  41 17 20 -19.8009779875655 4.79902201243453
0

0101000
+378 0 -377 0 *
Ve
2e-07
-17.8 23.5 167
0 0

0101101
*
Ed
 2e-07 1 1 0
1  22 0 8.66040666031535 22.6604066603153
2  42 2 0 8.66040666031535 22.6604066603153
2  43 18 20 8.66040666031535 22.6604066603153
0

0101000
+378 0 -375 0 *
Ve
2e-07
6.8 23.5 167
0 0

0101101
*
Ed
 2e-07 1 1 0
1  23 0 -19.8009779875655 4.79902201243453
2  44 2 0 -19.8009779875655 4.79902201243453
2  45 19 20 -19.8009779875655 4.79902201243453
0

0101000
+375 0 -373 0 *
Ed
 2e-07 1 1 0
1  24 0 8.66040666031535 22.6604066603153
2  46 2 0 8.66040666031535 22.6604066603153
2  47 20 20 8.66040666031535 22.6604066603153
0

0101000
+377 0 -373 0 *
Wi

0101100
+376 0 -374 0 -372 0 +371 0 *
Ve
1e-07
-11 23.5 102
0 0

0101101
*
Ed
 1e-07 1 1 0
1  25 0 0 1.5707963267949
2  48 2 0 0 1.5707963267949
2  49 21 26 0 1.5707963267949
0

0101000
+369 0 -421 0 *
Ed
 1e-07 1 1 0
1  26 0 1.5707963267949 6.28318530717959
2  50 2 0 1.5707963267949 6.28318530717959
2  51 21 26 1.5707963267949 6.28318530717959
0

0101000
+421 0 -369 0 *
Wi

0101100
+368 0 +367 0 *
Ve
1.5e-07
7.35 23.5 160
0 0

0101101
*
Ed
 1.5e-07 1 1 0
1  27 0 0 6.28318530717959
2  52 2 0 0 6.28318530717959
2  53 22 32 0 6.28318530717959
0

0101100
+365 0 -365 0 *
Wi

0101100
-364 0 *
Fa
0  1.5e-07 2 0

0101000
+382 0 +379 0 +370 0 +366 0 +363 0 *
Ve
1.5e-07
-11.5 19 102
0 0

0101101
*
Ed
 1.5e-07 1 1 0
1  28 0 1.5707963267949 3.14159265358979
2  54 3 0 1.5707963267949 3.14159265358979
2  55 4 0 1.5707963267949 3.14159265358979
0

0101000
+361 0 -419 0 *
Ed
 1.5e-07 1 1 0
1  29 0 -0 4.5
2  56 3 0 -0 4.5
2  57 12 0 -0 4.5
0

0101000
+361 0 -385 0 *
Wi

0101100
+360 0 -359 0 +418 0 -383 0 *
Fa
0  1e-07 3 0

0101000
+358 0 *
Ve
1.5e-07
11.5 19 102
0 0

0101101
*
Ed
 1.5e-07 1 1 0
1  30 0 1.5707963267949 3.14159265358979
2  58 4 0 1.5707963267949 3.14159265358979
2  59 5 0 1.5707963267949 3.14159265358979
0

0101000
+356 0 -415 0 *
Ve
1.5e-07
-11.5 19 149
0 0

0101101
*
Ed
 1e-07 1 1 0
1  31 0 11 58
2  60 4 0 11 58
2  61 12 0 11 58
0

0101000
+361 0 -354 0 *
Ve
1.5e-07
11.5 19 149
0 0

0101101
*
Ed
 1.5e-07 1 1 0
1  32 0 11 58
2  62 4 0 11 58
2  63 6 0 11 58
0

0101000
+356 0 -352 0 *
Ve
1.5e-07
-22.7 19 149
0 0

0101101
*
Ed
 1.5e-07 1 1 0
1  33 0 23.2 34.4
2  64 4 8 23.2 34.4
2  65 11 0 23.2 34.4
0

0101000
+354 8 -350 8 *
Ve
1.5e-07
11.7 19 149
0 0

0101101
*
Ed
 1.5e-07 1 1 0
1  34 0 0 0.200000000000001
2  66 4 8 0 0.200000000000001
2  67 7 0 0 0.200000000000001
0

0101000
+348 8 -352 8 *
Ve
1.5e-07
-22.7 19 171
0 0

0101101
*
Ed
 1.5e-07 1 1 0
1  35 0 0 22
2  68 4 8 0 22
2  69 10 0 0 22
0

0101000
-346 8 +350 8 *
Ve
1.5e-07
11.7 19 171
0 0

0101101
*
Ed
 1.5e-07 1 1 0
1  36 0 0 22
2  70 4 8 0 22
2  71 8 0 0 22
0

0101000
-344 8 +348 8 *
Ed
 1e-07 1 1 0
1  37 0 0 34.4
2  72 4 0 0 34.4
2  73 9 0 0 34.4
0

0101000
+344 0 -346 0 *
Wi

0101100
+414 0 +360 0 -355 0 -353 0 +351 0 -349 7 -347 7 -345 7 +343 7 +342 0 
*
Ve
1.5e-07
-20.65 19 160
0 0

0101101
*
Ed
 1.5e-07 1 1 0
1  38 0 0 6.28318530717959
2  74 4 0 0 6.28318530717959
2  75 16 14 0 6.28318530717959
0

0101100
+340 0 -340 0 *
Wi

0101100
+339 0 *
Ve
2.00000000888178e-07
6.8 19 167
0 0

0101101
*
Ve
2.00000003552714e-07
-17.8 19 167
0 0

0101101
*
Ed
 2e-07 1 1 0
1  39 0 -4.81667049636193 19.7833295036381
2  76 4 0 -4.81667049636193 19.7833295036381
2  77 19 20 -4.81667049636193 19.7833295036381
0

0101000
+337 0 -336 0 *
Ve
2e-07
-17.8 19 153
0 0

0101101
*
Ed
 2e-07 1 1 0
1  40 0 -22.5436919183618 -8.54369191836185
2  78 4 0 -22.5436919183618 -8.54369191836185
2  79 18 20 -22.5436919183618 -8.54369191836185
0

0101000
+336 0 -334 0 *
Ve
2.00000000888178e-07
6.8 19 153
0 0

0101101
*
Ed
 2e-07 1 1 0
1  41 0 -4.81667049636193 19.7833295036381
2  80 4 0 -4.81667049636193 19.7833295036381
2  81 17 20 -4.81667049636193 19.7833295036381
0

0101000
+332 0 -334 0 *
Ed
 2e-07 1 1 0
1  42 0 -22.5436919183618 -8.54369191836185
2  82 4 0 -22.5436919183618 -8.54369191836185
2  83 20 20 -22.5436919183618 -8.54369191836185
0

0101000
+337 0 -332 0 *
Wi

0101100
-335 0 -333 0 +331 0 +330 0 *
Ve
1.5e-07
-7.65 19 102
0 0

0101101
*
Ed
 1.5e-07 1 1 0
1  43 0 0 6.28318530717959
2  84 4 0 0 6.28318530717959
2  85 23 38 0 6.28318530717959
0

0101100
+328 0 -328 0 *
Wi

0101100
-327 0 *
Ve
1.5e-07
7.35 19 160
0 0

0101101
*
Ed
 1.5e-07 1 1 0
1  44 0 0 6.28318530717959
2  86 4 0 0 6.28318530717959
2  87 22 32 0 6.28318530717959
0

0101100
+325 0 -325 0 *
Wi

0101100
+324 0 *
Ve
1.5e-07
-1.15 19 108.5
0 0

0101101
*
Ed
 1.5e-07 1 1 0
1  45 0 0 6.28318530717959
2  88 4 0 0 6.28318530717959
2  89 24 44 0 6.28318530717959
0

0101100
+322 0 -322 0 *
Wi

0101100
-321 0 *
Ve
1.5e-07
-3.2 19 102
0 0

0101101
*
Ed
 1.5e-07 1 1 0
1  46 0 0 6.28318530717959
2  90 4 0 0 6.28318530717959
2  91 25 50 0 6.28318530717959
0

0101100
+319 0 -319 0 *
Wi

0101100
-318 0 *
Ve
1.5e-07
-1.15 19 95.5
0 0

0101101
*
Ed
 1.5e-07 1 1 0
1  47 0 0 6.28318530717959
2  92 4 0 0 6.28318530717959
2  93 26 56 0 6.28318530717959
0

0101100
+316 0 -316 0 *
Wi

0101100
-315 0 *
Ve
1.5e-07
5.35 19 102
0 0

0101101
*
Ed
 1.5e-07 1 1 0
1  48 0 0 6.28318530717959
2  94 4 0 0 6.28318530717959
2  95 27 62 0 6.28318530717959
0

0101100
+313 0 -313 0 *
Wi

0101100
-312 0 *
Fa
0  1.5e-07 4 0

0101000
+341 0 +338 0 +329 0 +326 0 +323 0 +320 0 +317 0 +314 0 +311 0 *
Ed
 1e-07 1 1 0
1  49 0 -0 4.5
2  96 5 0 -0 4.5
2  97 6 0 -0 4.5
4 G1 5 0 6 0
0

0101000
+356 0 -407 0 *
Wi

0101100
+355 0 -309 0 +413 0 -406 0 *
Fa
0  1e-07 5 0

0101000
+308 0 *
Ed
 1.5e-07 1 1 0
1  50 0 -4.5 -3.5527136788005e-15
2  98 6 0 -4.5 -3.5527136788005e-15
2  99 7 7 -4.5 -3.5527136788005e-15
0

0101000
+405 0 -352 0 *
Wi

0101100
-351 0 +306 0 +404 0 +309 0 *
Fa
0  1e-07 6 0

0101000
+305 0 *
Ed
 1e-07 1 1 0
1  51 0 0 4.5
2  100 7 0 0 4.5
2  101 8 0 0 4.5
0

0101000
-403 8 +348 8 *
Wi

0101100
-347 7 +306 0 +402 7 +303 7 *
Fa
0  1e-07 7 7

0101000
+302 0 *
Ed
 1.5e-07 1 1 0
1  52 0 0 4.5
2  102 8 0 0 4.5
2  103 9 8 0 4.5
0

0101000
-401 8 +344 8 *
Wi

0101100
-303 0 -400 0 +300 0 +343 0 *
Fa
0  1e-07 8 0

0111000
+299 0 *
Ed
 1.5e-07 1 1 0
1  53 0 0 4.5
2  104 9 8 0 4.5
2  105 10 0 0 4.5
0

0101000
-399 8 +346 8 *
Wi

0101000
+398 0 -297 7 -342 0 +300 7 *
Fa
0  1.5e-07 9 0

0111000
+296 0 *
Ed
 1e-07 1 1 0
1  54 0 0 4.5
2  106 10 0 0 4.5
2  107 11 0 0 4.5
0

0101000
-397 8 +350 8 *
Wi

0101100
-294 0 -396 0 +297 0 +345 0 *
Fa
0  1e-07 10 0

0111000
+293 0 *
Ed
 1.5e-07 1 1 0
1  55 0 -4.5 -3.5527136788005e-15
2  108 11 7 -4.5 -3.5527136788005e-15
2  109 12 0 -4.5 -3.5527136788005e-15
0

0101000
+395 0 -354 0 *
Wi

0101100
-349 7 -294 7 +394 7 -291 0 *
Fa
0  1e-07 11 7

0101000
+290 0 *
Ve
1.5e-07
-11.5 26.68 138
0 0

0101101
*
Ed
 1.5e-07 1 1 0
1  56 0 5.85627268434987 6.28318530717959
2  110 12 0 5.85627268434987 6.28318530717959
2  111 13 0 5.85627268434987 6.28318530717959
0

0101000
+393 0 -288 0 *
Ve
1.5e-07
-11.5 40.32 138
0 0

0101101
*
Ed
 1.5e-07 1 1 0
1  57 0 7.68 21.32
2  112 12 0 7.68 21.32
2  113 28 0 7.68 21.32
0

0101000
+288 0 -286 0 *
Ve
1.5e-07
-11.5 43.5 137.310708118639
0 0

0101101
*
Ed
 1.5e-07 1 1 0
1  58 0 5.85627268434986 6.28318530717959
2  114 12 0 5.85627268434986 6.28318530717959
2  115 29 0 5.85627268434986 6.28318530717959
0

0101000
+284 0 -286 0 *
Ve
1.5e-07
-11.5 43.5 160
0 0

0101101
*
Ed
 1.5e-07 1 1 0
1  59 0 15.3107081186386 38
2  116 12 0 15.3107081186386 38
2  117 30 0 15.3107081186386 38
0

0101000
+284 0 -282 0 *
Ve
1.5e-07
-11.5 48 160
0 0

0101101
*
Ed
 1.5e-07 1 1 0
1  60 0 -0 4.5
2  118 12 0 -0 4.5
2  119 31 0 -0 4.5
0

0101000
+282 0 -280 0 *
Ve
1.5e-07
-11.5 48 133
0 0

0101101
*
Ed
 1.5e-07 1 1 0
1  61 0 11 38
2  120 12 0 11 38
2  121 32 0 11 38
0

0101000
+278 0 -280 0 *
Ve
2.10001740328244e-07
-11.5 47.5172216861788 133
0 0

0101101
*
Ed
 1.5e-07 1 1 0
1  62 0 4.01722168617876 4.5
2  122 12 0 4.01722168617876 4.5
2  123 33 0 4.01722168617876 4.5
0

0101000
+276 0 -278 0 *
Ve
1.5e-07
-11.5 48 130.32
0 0

0101101
*
Ed
 1.5e-07 1 1 0
1  63 0 4.71238898038469 5.06884831364406
2  124 12 0 4.71238898038469 5.06884831364406
2  125 34 0 4.71238898038469 5.06884831364406
0

0101000
+274 0 -276 0 *
Ve
1.5e-07
-11.5 48 129.68
0 0

0101101
*
Ed
 1.5e-07 1 1 0
1  64 0 7.68000000000001 8.31999999999999
2  126 12 0 7.68000000000001 8.31999999999999
2  127 32 0 7.68000000000001 8.31999999999999
0

0101000
+272 0 -274 0 *
Ve
1.5e-07
-11.5 40.32 122
0 0

0101101
*
Ed
 1.5e-07 1 1 0
1  65 0 1.5707963267949 3.14159265358979
2  128 12 0 1.5707963267949 3.14159265358979
2  129 35 0 1.5707963267949 3.14159265358979
0

0101000
+272 0 -270 0 *
Ve
1.5e-07
-11.5 26.68 122
0 0

0101101
*
Ed
 1.5e-07 1 1 0
1  66 0 7.68 21.32
2  130 12 0 7.68 21.32
2  131 36 0 7.68 21.32
0

0101000
+268 0 -270 0 *
Ed
 1.5e-07 1 1 0
1  67 0 2.71468003076008 3.14159265358979
2  132 12 0 2.71468003076008 3.14159265358979
2  133 15 0 2.71468003076008 3.14159265358979
0

0101000
+387 0 -268 0 *
Wi

0101000
-291 0 -392 0 +287 0 +285 0 -283 0 +281 0 +279 0 -277 0 -275 0 -273 0 
-271 0 +269 0 -267 0 -266 0 -384 0 -359 0 +353 0 *
Fa
0  1.5e-07 12 0

0111000
+265 0 *
Ve
1e-07
-7 26.68 138
0 0

0101101
*
Ed
 1e-07 1 1 0
1  68 0 5.85627268434986 6.28318530717959
2  134 13 0 5.85627268434986 6.28318530717959
2  135 14 0 5.85627268434986 6.28318530717959
0

0101000
+391 0 -263 0 *
Ed
 1e-07 1 1 0
1  69 0 0 4.5
2  136 13 0 0 4.5
2  137 28 0 0 4.5
4 G1 13 0 28 0
0

0101000
+288 0 -263 0 *
Wi

0101100
-390 0 -262 0 +261 0 +287 0 *
Fa
0  1e-07 13 0

0101000
+260 0 *
Ve
1e-07
-7 40.32 138
0 0

0101101
*
Ed
 1e-07 1 1 0
1  70 0 7.68 21.32
2  138 14 0 7.68 21.32
2  139 28 0 7.68 21.32
0

0101000
+263 0 -258 0 *
Ve
1.5e-07
-7 43.5 137.310708118639
0 0

0101101
*
Ed
 1e-07 1 1 0
1  71 0 5.85627268434986 6.28318530717959
2  140 14 0 5.85627268434986 6.28318530717959
2  141 29 0 5.85627268434986 6.28318530717959
0

0101000
+256 0 -258 0 *
Ve
1.50000001776357e-07
-7 43.5 124.125880325351
0 0

0101101
*
Ed
 1.5e-07 1 1 0
1  72 0 -15.3107081186386 -2.12588032535058
2  142 14 0 -15.3107081186386 -2.12588032535058
2  143 30 0 -15.3107081186386 -2.12588032535058
0

0101000
+256 0 -254 0 *
Ve
1.00000096644261e-07
-7 45.6241638963811 124.125880325351
0 0

0101101
*
Ed
 1e-07 1 1 0
1  73 0 0 2.12416389638113
2  144 14 0 0 2.12416389638113
2  145 37 0 0 2.12416389638113
0

0101000
+254 0 -252 0 *
Ve
1e-07
-7 40.32 122
0 0

0101101
*
Ed
 1e-07 1 1 0
1  74 0 2.37921024946208 3.14159265358979
2  146 14 0 2.37921024946208 3.14159265358979
2  147 35 0 2.37921024946208 3.14159265358979
0

0101000
+252 0 -250 0 *
Ve
1e-07
-7 26.68 122
0 0

0101101
*
Ed
 1e-07 1 1 0
1  75 0 7.68 21.32
2  148 14 0 7.68 21.32
2  149 36 0 7.68 21.32
0

0101000
+248 0 -250 0 *
Ed
 1e-07 1 1 0
1  76 0 2.71468003076007 3.14159265358979
2  150 14 0 2.71468003076007 3.14159265358979
2  151 15 0 2.71468003076007 3.14159265358979
0

0101000
+389 0 -248 0 *
Wi

0101100
+388 0 -262 0 -257 0 +255 0 -253 0 -251 0 -249 0 +247 0 +246 0 *
Fa
0  1e-07 14 0

0101000
+245 0 *
Ed
 1e-07 1 1 0
1  77 0 0 4.5
2  152 15 0 0 4.5
2  153 36 0 0 4.5
4 G1 15 0 36 0
0

0101000
+268 0 -248 0 *
Wi

0101100
-386 0 -246 0 +243 0 +266 0 *
Fa
0  1e-07 15 0

0101000
+242 0 *
Ed
 1e-07 1 1 0
1  78 0 8 12.5
3  154 155CN 16 0 8 12.5
0

0101000
+340 63 -381 63 *
Wi

0101100
-380 0 +240 14 +339 0 -240 14 *
Fa
0  1e-07 16 14

0101000
+239 0 *
Ed
 1e-07 1 1 0
1  79 0 12.5 17
2  156 17 0 12.5 17
2  157 18 0 12.5 17
0

0101000
+334 64 -378 64 *
Ed
 1e-07 1 1 0
1  80 0 12.5 17
2  158 17 0 12.5 17
2  159 20 0 12.5 17
0

0101000
+332 64 -377 64 *
Wi

0101100
-237 20 -376 0 +236 20 -331 0 *
Fa
0  1e-07 17 20

0101000
+235 0 *
Ed
 1e-07 1 1 0
1  81 0 12.5 17
2  160 18 0 12.5 17
2  161 19 0 12.5 17
0

0101000
+336 64 -375 64 *
Wi

0101100
-237 20 -374 0 +233 20 -333 0 *
Fa
0  1e-07 18 20

0101000
+232 0 *
Ed
 1e-07 1 1 0
1  82 0 12.5 17
2  162 19 0 12.5 17
2  163 20 0 12.5 17
0

0101000
+337 64 -373 64 *
Wi

0101100
-233 20 -372 0 +230 20 -335 0 *
Fa
0  1e-07 19 20

0101000
+229 0 *
Wi

0101100
-236 20 -371 0 +230 20 -330 0 *
Fa
0  1e-07 20 20

0101000
+227 0 *
Ve
1e-07
-11 24 102
0 0

0101101
*
Ed
 1e-07 1 1 0
1  83 0 0 0.5
3  164 165CN 21 0 0 0.5
0

0101000
+225 65 -369 65 *
Ed
 1e-07 1 1 0
1  84 0 0 6.28318530717959
2  166 21 0 0 6.28318530717959
2  167 38 0 0 6.28318530717959
0

0101000
+225 65 -225 65 *
Wi

0101100
-368 0 -367 0 +224 26 +223 26 -224 26 *
Fa
0  1e-07 21 26

0101000
+222 0 *
Ed
 1e-07 1 1 0
1  85 0 8 12.5
3  168 169CN 22 0 8 12.5
0

0101000
+325 66 -365 66 *
Wi

0101100
-364 0 +220 32 +324 0 -220 32 *
Fa
0  1e-07 22 32

0101000
+219 0 *
Ve
1e-07
-7.65 24 102
0 0

0101101
*
Ed
 1e-07 1 1 0
1  86 0 3 8
3  170 171CN 23 0 3 8
0

0101000
+217 67 -328 67 *
Ed
 1e-07 1 1 0
1  87 0 0 6.28318530717959
2  172 23 38 0 6.28318530717959
2  173 38 26 0 6.28318530717959
0

0101100
+217 0 -217 0 *
Wi

0101100
-327 0 +216 38 +215 0 -216 38 *
Fa
0  1e-07 23 38

0101000
+214 0 *
Ve
1e-07
-1.15 24 108.5
0 0

0101101
*
Ed
 1e-07 1 1 0
1  88 0 3 8
3  174 175CN 24 0 3 8
0

0101000
+212 68 -322 68 *
Ed
 1e-07 1 1 0
1  89 0 0 6.28318530717959
2  176 24 44 0 6.28318530717959
2  177 38 26 0 6.28318530717959
0

0101100
+212 0 -212 0 *
Wi

0101100
-321 0 +211 44 +210 0 -211 44 *
Fa
0  1e-07 24 44

0101000
+209 0 *
Ve
1e-07
-3.2 24 102
0 0

0101101
*
Ed
 1e-07 1 1 0
1  90 0 3 8
3  178 179CN 25 0 3 8
0

0101000
+207 69 -319 69 *
Ed
 1e-07 1 1 0
1  91 0 0 6.28318530717959
2  180 25 50 0 6.28318530717959
2  181 38 26 0 6.28318530717959
0

0101100
+207 0 -207 0 *
Wi

0101100
-318 0 +206 50 +205 0 -206 50 *
Fa
0  1e-07 25 50

0101000
+204 0 *
Ve
1e-07
-1.15 24 95.5
0 0

0101101
*
Ed
 1e-07 1 1 0
1  92 0 3 8
3  182 183CN 26 0 3 8
0

0101000
+202 70 -316 70 *
Ed
 1e-07 1 1 0
1  93 0 0 6.28318530717959
2  184 26 56 0 6.28318530717959
2  185 38 26 0 6.28318530717959
0

0101100
+202 0 -202 0 *
Wi

0101100
-315 0 +201 56 +200 0 -201 56 *
Fa
0  1e-07 26 56

0101000
+199 0 *
Ve
1e-07
5.35 24 102
0 0

0101101
*
Ed
 1e-07 1 1 0
1  94 0 3 8
3  186 187CN 27 0 3 8
0

0101000
+197 71 -313 71 *
Ed
 1e-07 1 1 0
1  95 0 0 6.28318530717959
2  188 27 62 0 6.28318530717959
2  189 38 26 0 6.28318530717959
0

0101100
+197 0 -197 0 *
Wi

0101100
-312 0 +196 62 +195 0 -196 62 *
Fa
0  1e-07 27 62

0101000
+194 0 *
Ed
 1e-07 1 1 0
1  96 0 0 4.5
2  190 28 0 0 4.5
2  191 29 0 0 4.5
4 G1 28 0 29 0
0

0101000
+286 0 -258 0 *
Wi

0101100
-285 0 +261 0 -192 0 +257 0 *
Fa
0  1e-07 28 0

0101000
+191 0 *
Ed
 1e-07 1 1 0
1  97 0 0 4.5
2  192 29 0 0 4.5
2  193 30 0 0 4.5
0

0101000
+284 0 -256 0 *
Wi

0101100
-189 0 -255 0 +192 0 +283 0 *
Fa
0  1e-07 29 0

0101000
+188 0 *
Ve
1e-07
-0.500000000000002 43.5 122
0 0

0101101
*
Ve
1e-07
0.500000000000002 43.5 122
0 0

0101101
*
Ed
 1e-07 1 1 0
1  98 0 11 12
2  194 30 0 11 12
2  195 39 0 11 12
0

0101000
+186 0 -185 0 *
Ve
1e-07
11.5 43.5 133
0 0

0101101
*
Ed
 1e-07 1 1 0
1  99 0 1.5707963267949 3.14159265358979
2  196 30 0 1.5707963267949 3.14159265358979
2  197 40 0 1.5707963267949 3.14159265358979
0

0101000
+183 0 -185 0 *
Ve
1e-07
11.5 43.5 160
0 0

0101101
*
Ed
 1e-07 1 1 0
1  100 0 11 38
2  198 30 0 11 38
2  199 41 0 11 38
0

0101000
+183 0 -181 0 *
Ve
1e-07
0.500000000000002 43.5 171
0 0

0101101
*
Ed
 1e-07 1 1 0
1  101 0 4.71238898038469 6.28318530717959
2  200 30 0 4.71238898038469 6.28318530717959
2  201 42 0 4.71238898038469 6.28318530717959
0

0101000
+181 0 -179 0 *
Ve
1e-07
-0.500000000000002 43.5 171
0 0

0101101
*
Ed
 1e-07 1 1 0
1  102 0 11 12
2  202 30 0 11 12
2  203 43 0 11 12
0

0101000
+177 0 -179 0 *
Ed
 1e-07 1 1 0
1  103 0 4.71238898038469 6.28318530717959
2  204 30 0 4.71238898038469 6.28318530717959
2  205 31 0 4.71238898038469 6.28318530717959
0

0101000
+282 0 -177 0 *
Ed
 1e-07 1 1 0
1  104 0 2.50940740490905 3.14159265358979
2  206 30 0 2.50940740490905 3.14159265358979
2  207 37 0 2.50940740490905 3.14159265358979
0

0101000
+254 0 -186 0 *
Wi

0101100
-184 0 +182 0 -180 0 -178 0 +176 0 +175 0 +281 0 -189 0 -253 0 -174 0 
*
Fa
0  1e-07 30 0

0101000
+173 0 *
Ve
1.5e-07
-0.500000000000002 48 171
0 0

0101101
*
Ed
 1e-07 1 1 0
1  105 0 0 4.5
2  208 31 0 0 4.5
2  209 43 0 0 4.5
4 G1 31 0 43 0
0

0101000
+177 0 -171 0 *
Ed
 1.5e-07 1 1 0
1  106 0 4.71238898038469 6.28318530717959
2  210 31 0 4.71238898038469 6.28318530717959
2  211 32 0 4.71238898038469 6.28318530717959
0

0101000
+280 0 -171 0 *
Wi

0101100
+175 0 -279 0 +170 0 -169 0 *
Fa
0  1e-07 31 0

0101000
+168 0 *
Ve
1.5e-07
-11.1685331700285 48 130.32
0 0

0101101
*
Ed
 1.5e-07 1 1 0
1  107 0 0 0.331466829971493
2  212 32 0 0 0.331466829971493
2  213 34 0 0 0.331466829971493
0

0101000
+274 0 -166 0 *
Ed
 1.5e-07 1 1 0
1  108 0 1.5707963267949 1.81690976650857
2  214 32 0 1.5707963267949 1.81690976650857
2  215 33 0 1.5707963267949 1.81690976650857
0

0101000
+278 0 -166 0 *
Ve
1.5e-07
0.500000000000002 48 171
0 0

0101101
*
Ed
 1.5e-07 1 1 0
1  109 0 11 12
2  216 32 0 11 12
2  217 43 0 11 12
0

0101000
+171 0 -163 0 *
Ve
1.5e-07
11.5 48 160
0 0

0101101
*
Ed
 1.5e-07 1 1 0
1  110 0 4.71238898038469 6.28318530717959
2  218 32 0 4.71238898038469 6.28318530717959
2  219 42 0 4.71238898038469 6.28318530717959
0

0101000
+161 0 -163 0 *
Ve
1.5e-07
11.5 48 133
0 0

0101101
*
Ed
 1.5e-07 1 1 0
1  111 0 11 38
2  220 32 0 11 38
2  221 41 0 11 38
0

0101000
+159 0 -161 0 *
Ve
1.5e-07
0.500000000000002 48 122
0 0

0101101
*
Ed
 1.5e-07 1 1 0
1  112 0 1.5707963267949 3.14159265358979
2  222 32 0 1.5707963267949 3.14159265358979
2  223 40 0 1.5707963267949 3.14159265358979
0

0101000
+159 0 -157 0 *
Ve
1.5e-07
-0.500000000000002 48 122
0 0

0101101
*
Ed
 1.5e-07 1 1 0
1  113 0 11 12
2  224 32 0 11 12
2  225 39 0 11 12
0

0101000
+155 0 -157 0 *
Ve
1.5e-07
-10.9870205492313 48 129.68
0 0

0101101
*
Ed
 1.5e-07 1 1 0
1  114 0 1.8773955259594 3.14159265358979
2  226 32 0 1.8773955259594 3.14159265358979
2  227 37 0 1.8773955259594 3.14159265358979
0

0101000
+153 0 -155 0 *
Ed
 1.5e-07 1 1 0
1  115 0 0 0.512979450768745
2  228 32 0 0 0.512979450768745
2  229 35 0 0 0.512979450768745
0

0101000
+272 0 -153 0 *
Wi

0101100
+165 0 -164 0 +277 0 +169 0 +162 0 -160 0 -158 0 +156 0 -154 0 -152 0 
-151 0 +271 0 *
Fa
0  1.5e-07 32 0

0101000
+150 0 *
Ed
 1e-07 1 1 0
1  116 0 0 1
2  230 33 0 0 1
2  231 34 0 0 1
0

0101000
+166 0 -276 0 *
Wi

0101100
-275 0 -164 0 -148 0 *
Fa
0  1e-07 33 0

0101000
+147 0 *
Wi

0101100
-165 0 -148 0 +273 0 *
Fa
0  1e-07 34 0

0101000
+145 0 *
Ed
 1e-07 1 1 0
1  117 0 0 0.999999870167486
2  232 35 0 0 0.999999870167486
2  233 37 0 0 0.999999870167486
0

0101000
+153 0 -252 0 *
Ed
 1e-07 1 1 0
1  118 0 0 4.5
2  234 35 0 0 4.5
2  235 36 0 0 4.5
4 G1 35 0 36 0
0

0101000
+270 0 -250 0 *
Wi

0101100
-151 0 -143 0 -249 0 +142 0 +269 0 *
Fa
0  1e-07 35 0

0101000
+141 0 *
Wi

0101100
-267 0 +243 0 -142 0 +247 0 *
Fa
0  1e-07 36 0

0101000
+139 0 *
Ed
 1e-07 1 1 0
1  119 0 0 4.5
2  236 37 0 0 4.5
2  237 39 0 0 4.5
4 G1 37 0 39 0
0

0101000
+186 0 -155 0 *
Wi

0101100
-251 0 +143 0 -152 0 +137 0 +174 0 *
Fa
0  1e-07 37 0

0101000
+136 0 *
Wi

0101100
+223 26 *
Wi

0101100
-210 0 *
Wi

0101100
-195 0 *
Wi

0101100
-205 0 *
Wi

0101100
-215 0 *
Wi

0101100
-200 0 *
Fa
0  1e-07 38 26

0101000
+134 0 +133 0 +132 0 +131 0 +130 0 +129 0 *
Ed
 1e-07 1 1 0
1  120 0 0 4.5
2  238 39 0 0 4.5
2  239 40 0 0 4.5
4 G1 39 0 40 0
0

0101000
+185 0 -157 0 *
Wi

0101100
-154 0 -137 0 +127 0 +184 0 *
Fa
0  1e-07 39 0

0101000
+126 0 *
Ed
 1e-07 1 1 0
1  121 0 -0 4.5
2  240 40 0 -0 4.5
2  241 41 0 -0 4.5
4 G1 40 0 41 0
0

0101000
+183 0 -159 0 *
Wi

0101100
+182 0 -124 0 +127 0 -156 0 *
Fa
0  1e-07 40 0

0101000
+123 0 *
Ed
 1e-07 1 1 0
1  122 0 -0 4.5
2  242 41 0 -0 4.5
2  243 42 0 -0 4.5
4 G1 41 0 42 0
0

0101000
+181 0 -161 0 *
Wi

0101100
-180 0 +124 0 -121 0 +158 0 *
Fa
0  1e-07 41 0

0101000
+120 0 *
Ed
 1e-07 1 1 0
1  123 0 0 4.5
2  244 42 0 0 4.5
2  245 43 0 0 4.5
4 G1 42 0 43 0
0

0101000
+179 0 -163 0 *
Wi

0101100
+178 0 -121 0 +118 0 -160 0 *
Fa
0  1e-07 42 0

0101000
+117 0 *
Wi

0101100
-162 0 -170 0 +118 0 +176 0 *
Fa
0  1e-07 43 0

0101000
+115 0 *
Sh

0101100
-408 0 +362 0 -357 0 +310 0 +307 0 +304 0 -301 0 -298 7 +295 0 +292 7 
-289 0 +264 0 -259 0 +244 0 +241 0 -238 0 +234 0 -231 0 -228 0 +226 0 
+221 0 -218 0 -213 0 -208 0 -203 0 -198 0 -193 0 +190 0 +187 0 -172 0 
+167 0 +149 0 -146 0 +144 0 -140 0 -138 0 -135 0 -128 0 -125 0 +122 0 
+119 0 -116 0 +114 0 *
So

0100000
+113 0 *
Ve
1e-07
6 7.5 153.8
0 0

0101101
*
Ve
1.5e-07
6 23.5 153.8
0 0

0101101
*
Ed
 1e-07 1 1 0
1  124 0 0 16
2  246 44 0 0 16
2  247 45 0 0 16
0

0101000
+111 78 -110 78 *
Ve
1.5e-07
6 23.5 166.2
0 0

0101101
*
Ed
 1.5e-07 1 1 0
1  125 0 -12.4 0
2  248 44 0 -12.4 0
2  249 46 0 -12.4 0
0

0101000
+108 78 -110 78 *
Ve
1e-07
6 7.5 166.2
0 0

0101101
*
Ed
 1e-07 1 1 0
1  126 0 0 16
2  250 44 0 0 16
2  251 47 0 0 16
0

0101000
+106 78 -108 78 *
Ed
 1e-07 1 1 0
1  127 0 0 12.4
2  252 44 0 0 12.4
2  253 48 0 0 12.4
0

0101000
-106 78 +111 78 *
Wi

0101100
-109 0 +107 0 +105 0 +104 0 *
Fa
0  1e-07 44 0

0101000
+103 0 *
Ve
1e-07
10.7 23.5 166.2
0 0

0101101
*
Ed
 1e-07 1 1 0
1  128 0 0 4.7
2  254 46 0 0 4.7
2  255 47 0 0 4.7
0

0101000
+101 78 -108 78 *
Ve
1e-07
10.7 23.5 153.8
0 0

0101101
*
Ed
 1e-07 1 1 0
1  129 0 0 4.7
2  256 46 0 0 4.7
2  257 45 0 0 4.7
0

0101000
+99 78 -110 78 *
Ed
 1e-07 1 1 0
1  130 0 0 12.4
2  258 46 0 0 12.4
2  259 49 0 0 12.4
0

0101000
-101 78 +99 78 *
Wi

0101100
-100 0 -107 0 +98 0 -97 0 *
Fa
0  1e-07 46 0

0101000
+96 0 *
Ve
1e-07
-17 7.5 166.2
0 0

0101101
*
Ed
 1e-07 1 1 0
1  131 0 0 23
2  260 48 0 0 23
2  261 47 0 0 23
0

0101000
-94 78 +106 78 *
Ve
1e-07
-17 7.5 153.8
0 0

0101101
*
Ed
 1e-07 1 1 0
1  132 0 0 12.4
2  262 48 0 0 12.4
2  263 50 0 0 12.4
0

0101000
-94 78 +92 78 *
Ed
 1e-07 1 1 0
1  133 0 0 23
2  264 48 0 0 23
2  265 45 0 0 23
0

0101000
-92 78 +111 78 *
Wi

0101100
-104 0 -93 0 +91 0 +90 0 *
Fa
0  1e-07 48 0

0111000
+89 0 *
Ve
1.5e-07
-17 23.5 153.8
0 0

0101101
*
Ed
 1e-07 1 1 0
1  134 0 0 16
2  266 50 0 0 16
2  267 45 0 0 16
0

0101000
+92 78 -87 78 *
Ve
1.5e-07
-17 23.5 166.2
0 0

0101101
*
Ed
 1.5e-07 1 1 0
1  135 0 -12.4 0
2  268 50 0 -12.4 0
2  269 51 0 -12.4 0
0

0101000
+85 78 -87 78 *
Ed
 1e-07 1 1 0
1  136 0 0 16
2  270 50 0 0 16
2  271 47 0 0 16
0

0101000
+94 78 -85 78 *
Wi

0101100
-86 0 +84 0 +83 0 +91 0 *
Fa
0  1e-07 50 0

0101000
+82 0 *
Ve
1e-07
10.7 26 153.8
0 0

0101101
*
Ed
 1e-07 1 1 0
1  137 0 0 2.5
2  272 49 0 0 2.5
2  273 45 0 0 2.5
0

0101000
-80 78 +99 78 *
Ve
1e-07
10.7 26 166.2
0 0

0101101
*
Ed
 1e-07 1 1 0
1  138 0 0 12.4
2  274 49 0 0 12.4
2  275 52 0 0 12.4
0

0101000
-78 78 +80 78 *
Ed
 1e-07 1 1 0
1  139 0 0 2.5
2  276 49 0 0 2.5
2  277 47 0 0 2.5
0

0101000
-78 78 +101 78 *
Wi

0101100
-79 0 -77 0 +76 0 +97 0 *
Fa
0  1e-07 49 0

0111000
+75 0 *
Ve
1e-07
-21.7 23.5 166.2
0 0

0101101
*
Ed
 1e-07 1 1 0
1  140 0 27.7 32.4
2  278 51 0 27.7 32.4
2  279 47 0 27.7 32.4
0

0101000
+85 78 -73 78 *
Ve
1e-07
-21.7 23.5 153.8
0 0

0101101
*
Ed
 1e-07 1 1 0
1  141 0 0 12.4
2  280 51 0 0 12.4
2  281 53 0 0 12.4
0

0101000
-73 78 +71 78 *
Ed
 1e-07 1 1 0
1  142 0 27.7 32.4
2  282 51 0 27.7 32.4
2  283 45 0 27.7 32.4
0

0101000
+87 78 -71 78 *
Wi

0101100
-72 0 +70 0 +69 0 +84 0 *
Fa
0  1e-07 51 0

0101000
+68 0 *
Ve
1.5e-07
6 26 166.2
0 0

0101101
*
Ed
 1e-07 1 1 0
1  143 0 0 4.7
2  284 52 0 0 4.7
2  285 47 0 0 4.7
0

0101000
+78 78 -66 78 *
Ve
1.5e-07
6 26 153.8
0 0

0101101
*
Ed
 1.5e-07 1 1 0
1  144 0 -12.4 0
2  286 52 0 -12.4 0
2  287 54 0 -12.4 0
0

0101000
+66 78 -64 78 *
Ed
 1e-07 1 1 0
1  145 0 0 4.7
2  288 52 0 0 4.7
2  289 45 0 0 4.7
0

0101000
+80 78 -64 78 *
Wi

0101100
-65 0 -63 0 +62 0 -77 0 *
Fa
0  1e-07 52 0

0101000
+61 0 *
Ve
1e-07
-21.7 26 153.8
0 0

0101101
*
Ed
 1e-07 1 1 0
1  146 0 0 2.5
2  290 53 0 0 2.5
2  291 45 0 0 2.5
0

0101000
-59 78 +71 78 *
Ve
1e-07
-21.7 26 166.2
0 0

0101101
*
Ed
 1e-07 1 1 0
1  147 0 0 12.4
2  292 53 0 0 12.4
2  293 55 0 0 12.4
0

0101000
-57 78 +59 78 *
Ed
 1e-07 1 1 0
1  148 0 0 2.5
2  294 53 0 0 2.5
2  295 47 0 0 2.5
0

0101000
-57 78 +73 78 *
Wi

0101100
-58 0 -56 0 +55 0 +70 0 *
Fa
0  1e-07 53 0

0111000
+54 0 *
Ve
1.5e-07
-17 26 166.2
0 0

0101101
*
Ed
 1e-07 1 1 0
1  149 0 27.7 32.4
2  296 55 0 27.7 32.4
2  297 47 0 27.7 32.4
0

0101000
+52 78 -57 78 *
Ve
1.5e-07
-17 26 153.8
0 0

0101101
*
Ed
 1e-07 1 1 0
1  150 0 27.7 32.4
2  298 55 0 27.7 32.4
2  299 45 0 27.7 32.4
0

0101000
+50 78 -59 78 *
Ed
 1.5e-07 1 1 0
1  151 0 -12.4 0
2  300 55 0 -12.4 0
2  301 56 0 -12.4 0
0

0101000
+52 78 -50 78 *
Wi

0101100
-51 0 +56 0 +49 0 +48 0 *
Fa
0  1e-07 55 0

0101000
+47 0 *
Ve
1e-07
-17 30 153.8
0 0

0101101
*
Ed
 1e-07 1 1 0
1  152 0 18.5 22.5
2  302 56 0 18.5 22.5
2  303 45 0 18.5 22.5
0

0101000
+50 78 -45 78 *
Ve
1e-07
-17 30 166.2
0 0

0101101
*
Ed
 1e-07 1 1 0
1  153 0 0 12.4
2  304 56 0 0 12.4
2  305 57 0 0 12.4
0

0101000
-43 78 +45 78 *
Ed
 1e-07 1 1 0
1  154 0 18.5 22.5
2  306 56 0 18.5 22.5
2  307 47 0 18.5 22.5
0

0101000
+52 78 -43 78 *
Wi

0101100
-44 0 -42 0 +41 0 -48 0 *
Fa
0  1e-07 56 0

0101000
+40 0 *
Ve
1e-07
6 30 166.2
0 0

0101101
*
Ve
1e-07
6 30 153.8
0 0

0101101
*
Ed
 1e-07 1 1 0
1  155 0 0 12.4
2  308 57 0 0 12.4
2  309 54 0 0 12.4
0

0101000
-38 78 +37 78 *
Ed
 1e-07 1 1 0
1  156 0 0 23
2  310 57 0 0 23
2  311 47 0 0 23
0

0101000
-43 78 +38 78 *
Ed
 1e-07 1 1 0
1  157 0 0 23
2  312 57 0 0 23
2  313 45 0 0 23
0

0101000
-45 78 +37 78 *
Wi

0101100
-36 0 -35 0 +34 0 +42 0 *
Ve
1e-07
-5.9 30 160
0 0

0101101
*
Ed
 1e-07 1 1 0
1  158 0 0 6.28318530717959
2  314 57 0 0 6.28318530717959
2  315 58 0 0 6.28318530717959
0

0101000
+32 78 -32 78 *
Wi

0101100
-31 0 *
Fa
0  1e-07 57 0

0101000
+33 0 +30 0 *
Ed
 1e-07 1 1 0
1  159 0 18.5 22.5
2  316 54 0 18.5 22.5
2  317 45 0 18.5 22.5
0

0101000
+64 78 -37 78 *
Ed
 1e-07 1 1 0
1  160 0 18.5 22.5
2  318 54 0 18.5 22.5
2  319 47 0 18.5 22.5
0

0101000
+66 78 -38 78 *
Wi

0101100
-28 0 -36 0 +27 0 -63 0 *
Fa
0  1e-07 54 0

0101000
+26 0 *
Ve
1e-07
-5.9 34 160
0 0

0101101
*
Ed
 1e-07 1 1 0
1  161 0 0 6.28318530717959
2  320 58 0 0 6.28318530717959
2  321 59 0 0 6.28318530717959
0

0101000
+24 78 -24 78 *
Ed
 1e-07 1 1 0
1  162 0 0 4
3  322 323CN 58 0 0 4
0

0101000
+32 78 -24 78 *
Wi

0101100
-23 0 +22 0 +31 0 -22 0 *
Fa
0  1e-07 58 0

0101000
+21 0 *
Ve
1e-07
-9 34 160
0 0

0101101
*
Ed
 1e-07 1 1 0
1  163 0 0 6.28318530717959
2  324 59 0 0 6.28318530717959
2  325 60 0 0 6.28318530717959
0

0101000
+19 78 -19 78 *
Wi

0101100
+18 0 *
Wi

0101100
-23 0 *
Fa
0  1e-07 59 0

0101000
+17 0 +16 0 *
Ve
1e-07
-9 36 160
0 0

0101101
*
Ed
 1e-07 1 1 0
1  164 0 0 6.28318530717959
2  326 60 0 0 6.28318530717959
2  327 61 0 0 6.28318530717959
0

0101000
+14 78 -14 78 *
Ed
 1e-07 1 1 0
1  165 0 0 2
3  328 329CN 60 0 0 2
0

0101000
-14 78 +19 78 *
Wi

0101100
-13 0 +12 0 +18 0 -12 0 *
Fa
0  1e-07 60 0

0111000
+11 0 *
Wi

0101100
+13 0 *
Fa
0  1e-07 61 0

0111000
+9 0 *
Wi

0101100
+86 0 +69 0 +58 0 -49 0 +44 0 -34 0 -28 0 -62 0 -79 0 +98 0 
-109 0 +90 0 *
Fa
0  1e-07 45 0

0101000
+7 0 *
Wi

0101100
-83 0 -93 0 +105 0 -100 0 +76 0 +65 0 +27 0 +35 0 -41 0 +51 0 
-55 0 -72 0 *
Fa
0  1e-07 47 0

0101000
+5 0 *
Sh

0101100
-102 0 -95 0 -88 0 +81 0 -74 0 -67 0 +60 0 +53 0 +46 0 +39 0 
+29 0 -25 0 +20 0 -15 0 +10 0 +8 0 +6 0 +4 0 *
So

0100000
+3 0 *
Co

1100000
+112 0 +2 77 *

+1 1 