DBRep_DrawableShape

CASCADE Topology V1, (c) Matra-Datavision
Locations 78
1
              1               0               0              -0 
              0               1               0              30 
              0               0               1            -131 
1
             -1 -1.22464679914735e-16               0               0 
1.22464679914735e-16              -1               0               0 
              0               0               1               0 
1
              1               0               0               0 
              0               1               0               0 
              0               0               1               0 
1
              1               0               0               0 
              0 1.11022302462516e-16              -1               0 
              0               1 1.11022302462516e-16               0 
1
              1               0               0               0 
              0               1               0               0 
              0               0               1               0 
1
              1               0               0               0 
              0               1               0             -30 
              0               0               1             160 
2  2 1 3 1 4 1 5 1 6 1 0
2  6 -1 5 -1 4 -1 3 -1 2 -1 0
1
             -1 -1.22464679914735e-16               0               0 
1.22464679914735e-16              -1               0               0 
              0               0               1               0 
1
              1               0               0               0 
              0               1               0               0 
              0               0               1               0 
1
              1               0               0               0 
              0 1.11022302462516e-16               1               0 
              0              -1 1.11022302462516e-16               0 
1
              1               0               0               0 
              0               1               0               0 
              0               0               1               0 
1
              1               0               0               0 
              0               1               0             -30 
              0               0               1             102 
2  9 1 10 1 11 1 12 1 13 1 0
1
             -1 -1.22464679914735e-16               0               0 
1.22464679914735e-16              -1               0               0 
              0               0               1               0 
1
              1               0               0               0 
              0               1               0               0 
              0               0               1               0 
1
              1               0               0               0 
              0 1.11022302462516e-16              -1               0 
              0               1 1.11022302462516e-16               0 
1
              1               0               0               0 
              0               1               0               0 
              0               0               1               0 
1
              1               0               0               0 
              0               1               0             -30 
              0               0               1             160 
2  15 1 16 1 17 1 18 1 19 1 0
1
             -1 -1.22464679914735e-16               0               0 
1.22464679914735e-16              -1               0               0 
              0               0               1               0 
1
              1               0               0               0 
              0               1               0               0 
              0               0               1               0 
1
              1               0               0               0 
              0 1.11022302462516e-16              -1               0 
              0               1 1.11022302462516e-16               0 
1
              1               0               0               0 
              0               1               0               0 
              0               0               1               0 
1
              1               0               0               0 
              0               1               0             -30 
              0               0               1             160 
2  21 1 22 1 23 1 24 1 25 1 0
1
             -1 -1.22464679914735e-16               0               0 
1.22464679914735e-16              -1               0               0 
              0               0               1               0 
1
              1               0               0               0 
              0               1               0               0 
              0               0               1               0 
1
              1               0               0               0 
              0 1.11022302462516e-16               1               0 
              0              -1 1.11022302462516e-16               0 
1
              1               0               0               0 
              0               1               0               0 
              0               0               1               0 
1
              1               0               0               0 
              0               1               0             -30 
              0               0               1             102 
2  27 1 28 1 29 1 30 1 31 1 0
1
             -1 -1.22464679914735e-16               0               0 
1.22464679914735e-16              -1               0               0 
              0               0               1               0 
1
              1               0               0               0 
              0               1               0               0 
              0               0               1               0 
1
              1               0               0               0 
              0 1.11022302462516e-16               1               0 
              0              -1 1.11022302462516e-16               0 
1
              1               0               0               0 
              0               1               0               0 
              0               0               1               0 
1
              1               0               0               0 
              0               1               0             -30 
              0               0               1             102 
2  33 1 34 1 35 1 36 1 37 1 0
1
             -1 -1.22464679914735e-16               0               0 
1.22464679914735e-16              -1               0               0 
              0               0               1               0 
1
              1               0               0               0 
              0               1               0               0 
              0               0               1               0 
1
              1               0               0               0 
              0 1.11022302462516e-16               1               0 
              0              -1 1.11022302462516e-16               0 
1
              1               0               0               0 
              0               1               0               0 
              0               0               1               0 
1
              1               0               0               0 
              0               1               0             -30 
              0               0               1             102 
2  39 1 40 1 41 1 42 1 43 1 0
1
             -1 -1.22464679914735e-16               0               0 
1.22464679914735e-16              -1               0               0 
              0               0               1               0 
1
              1               0               0               0 
              0               1               0               0 
              0               0               1               0 
1
              1               0               0               0 
              0 1.11022302462516e-16               1               0 
              0              -1 1.11022302462516e-16               0 
1
              1               0               0               0 
              0               1               0               0 
              0               0               1               0 
1
              1               0               0               0 
              0               1               0             -30 
              0               0               1             102 
2  45 1 46 1 47 1 48 1 49 1 0
1
             -1 -1.22464679914735e-16               0               0 
1.22464679914735e-16              -1               0               0 
              0               0               1               0 
1
              1               0               0               0 
              0               1               0               0 
              0               0               1               0 
1
              1               0               0               0 
              0 1.11022302462516e-16              -1               0 
              0               1 1.11022302462516e-16               0 
1
              1               0               0               0 
              0               1               0               0 
              0               0               1               0 
1
              1               0               0               0 
              0               1               0             -30 
              0               0               1             160 
2  51 1 52 1 53 1 54 1 55 1 0
1
             -1 -1.22464679914735e-16               0               0 
1.22464679914735e-16              -1               0               0 
              0               0               1               0 
1
              1               0               0               0 
              0               1               0               0 
              0               0               1               0 
1
              1               0               0               0 
              0 1.11022302462516e-16               1               0 
              0              -1 1.11022302462516e-16               0 
1
              1               0               0               0 
              0               1               0               0 
              0               0               1               0 
1
              1               0               0               0 
              0               1               0             -30 
              0               0               1             102 
2  57 1 58 1 59 1 60 1 61 1 0
2  13 -1 12 -1 11 -1 10 -1 9 -1 0
2  19 -1 18 -1 17 -1 16 -1 15 -1 0
2  25 -1 24 -1 23 -1 22 -1 21 -1 0
2  31 -1 30 -1 29 -1 28 -1 27 -1 0
2  37 -1 36 -1 35 -1 34 -1 33 -1 0
2  43 -1 42 -1 41 -1 40 -1 39 -1 0
2  49 -1 48 -1 47 -1 46 -1 45 -1 0
2  55 -1 54 -1 53 -1 52 -1 51 -1 0
2  61 -1 60 -1 59 -1 58 -1 57 -1 0
1
             -1 -1.22464679914735e-16               0               0 
1.22464679914735e-16              -1               0               0 
              0               0               1               0 
1
              1               0               0               0 
              0               1               0               0 
              0               0               1               0 
1
              1               0               0               0 
              0 1.11022302462516e-16              -1               0 
              0               1 1.11022302462516e-16               0 
1
              1               0               0               0 
              0               1               0               0 
              0               0               1               0 
1
              1               0               0               0 
              0               1               0             -30 
              0               0               1             160 
2  72 1 73 1 74 1 75 1 76 1 0
2  76 -1 75 -1 74 -1 73 -1 72 -1 0
Curve2ds 329
1 0 4.5 1 0 
1 -44.912616163276311 -8.6666590072761522 0 1 
1 10.999999999999998 0 0 1 
1 1.5707963267948966 0 0 1 
1 12.000000000000002 0 0 1 
1 1.5707963267948966 0 0 1 
1 0 0 1 0 
1 44.679186679369309 -8.701955975130943 0 1 
1 0 0 1 0 
1 44.679186679369309 -8.701955975130943 0 1 
8 0.050000000000000711 3.0000005999999999
1 11.5 -0.5 0 1 
2 -33.912616163276311 2.333340992723846 1 0 0 -1 11
1 -1.5707963267948966 4.5 1 0 
2 -33.912616163276311 3.3333409927238487 1 0 -0 1 11
1 -1.5707963267948966 4.5 1 0 
1 -44.912616163276311 -8.6666590072761522 1 0 
1 41.613934108206337 -13.08815581724447 -1 0 
1 -44.912616163276311 14.333340992723848 1 0 
1 0 -4.5 1 0 
1 13.087383836723689 14.533340992723845 1.2246467991473532e-16 -1 
1 0 0 0 1 
1 13.087383836723689 14.533340992723845 1.2246467991473532e-16 -1 
1 0 0 0 1 
1 35.087383836723689 -19.866659007276152 -1 -1.2246467991473532e-16 
1 0 0 0 -1 
1 35.087383836723689 14.533340992723849 -1 -1.2246467991473532e-16 
1 0 0 0 -1 
1 35.087383836723689 14.533340992723849 1.2246467991473532e-16 -1 
1 17.200000000000003 2.25 -1 1.3596310734468911e-32 
2 -33.912616163276311 -3.6666590072761527 -1.2246467991473532e-16 -1 1 -1.2246467991473532e-16 1.1499999999999999
1 6.679274664138223e-65 7.9999999999999929 1 0 
2 24.087383836723689 -16.666659007276152 1.2246467991473532e-16 -1 -1 -1.2246467991473532e-16 1.1499999999999999
1 6.679274664138223e-65 8.0000000000000071 1 0 
8 -4.8166704963619225 19.783329503638079
1 17.087383836723689 4.8166704963619242 1.2246467991473532e-16 -1 
8 -4.8166704963619225 19.783329503638079
1 12.500000000000007 4.8166704963619225 1.3596310734468911e-32 1 
8 1.543691918361846 15.543691918361846
1 15.543691918361844 -14.966659007276157 1 1.2246467991473532e-16 
8 1.543691918361846 15.543691918361846
1 12.500000000000005 -15.543691918361846 1.1102230246251565e-16 1 
8 -4.8166704963619225 19.783329503638079
1 31.087383836723689 4.816670496361926 1.2246467991473532e-16 -1 
8 -4.8166704963619225 19.783329503638079
1 12.500000000000007 4.8166704963619225 1.3596310734468911e-32 1 
8 1.543691918361846 15.543691918361846
1 15.543691918361844 9.6333409927238467 1 1.2246467991473532e-16 
8 1.543691918361846 15.543691918361846
1 12.500000000000005 -15.543691918361846 1.1102230246251565e-16 1 
2 -40.412616163276311 2.8333409927238482 -1.2246467991473532e-16 -1 1 -1.2246467991473532e-16 1.1499999999999999
1 6.679274664138223e-65 7.9999999999999929 1 0 
2 -33.912616163276311 2.8333409927238473 -1.2246467991473532e-16 -1 1 -1.2246467991473532e-16 3.2000000000000002
1 6.679274664138223e-65 7.9999999999999929 1 0 
2 -27.412616163276311 2.8333409927238464 -1.2246467991473532e-16 -1 1 -1.2246467991473532e-16 1.1499999999999999
1 6.679274664138223e-65 7.9999999999999929 1 0 
2 -33.912616163276311 9.3333409927238478 -1.2246467991473532e-16 -1 1 -1.2246467991473532e-16 1.1499999999999999
1 6.679274664138223e-65 7.9999999999999929 1 0 
2 24.087383836723689 11.333340992723848 1.2246467991473532e-16 -1 -1 -1.2246467991473532e-16 1.1499999999999999
1 6.679274664138223e-65 8.0000000000000071 1 0 
1 -1.5707963267948966 0 1 0 
2 33.679186679369309 2.2980440248690552 -1 0 -0 -1 11
1 0 0 0 1 
1 30.613934108206337 -8.5881558172444699 0 -1 
1 -1.5707963267948966 0 1 0 
2 33.679186679369309 3.2980440248690579 -1 0 0 1 11
1 0 0 0 1 
1 11 0 0 -1 
1 44.679186679369309 -8.701955975130943 -1 0 
1 41.613934108206337 -8.5881558172444699 -1 0 
1 12.989894798007924 -8.701955975130943 0 1 
8 -5.999999999062311e-07 4.5000005999999999
1 1.1438837039651688 0 0 1 
1 29.179186679369309 -4.201955975130943 1 0 
8 -31.5 -15.5
1 -15.5 -24.5 -1 -0 
1 -1.6315214392693065 -8.701955975130943 0 1 
8 -5.999999999062311e-07 4.5000005999999999
1 1.1438837039651688 0 0 1 
1 44.679186679369309 -8.701955975130943 -1 0 
1 41.613934108206337 -8.5881558172444699 -1 0 
1 -13.320813320630691 14.498044024869055 -1.2246467991473532e-16 -1 
1 4.5 0 0 1 
1 -35.320813320630691 -19.901955975130942 1 -1.2246467991473532e-16 
1 4.5 0 0 -1 
1 -35.320813320630691 14.498044024869058 -1.2246467991473532e-16 -1 
1 17.200000000000003 -2.25 -1 1.3596310734468911e-32 
1 -35.320813320630691 14.498044024869058 1 -1.2246467991473532e-16 
1 4.5 0 0 -1 
1 -13.320813320630691 14.498044024869055 -1.2246467991473532e-16 -1 
1 4.5 0 0 1 
1 44.679186679369309 14.298044024869057 -1 0 
1 0 0 1 0 
2 -24.320813320630691 -16.701955975130943 -1.2246467991473532e-16 -1 1 -1.2246467991473532e-16 1.1499999999999999
1 6.679274664138223e-65 12.500000000000004 1 0 
8 -19.800977987565474 4.7990220124345271
1 -31.320813320630691 4.7990220124345306 1.2246467991473532e-16 1 
8 -19.800977987565474 4.7990220124345271
1 17.000000000000004 4.7990220124345271 -1.3596310734468911e-32 -1 
8 -15.660406660315347 -1.6604066603153473
1 -15.660406660315346 -15.001955975130947 1 -1.2246467991473532e-16 
8 -15.660406660315347 -1.6604066603153473
1 17.000000000000004 -15.660406660315347 -1.1102230246251565e-16 -1 
8 -19.800977987565474 4.7990220124345271
1 -17.320813320630691 4.7990220124345289 1.2246467991473532e-16 1 
8 -19.800977987565474 4.7990220124345271
1 17.000000000000004 4.7990220124345271 -1.3596310734468911e-32 -1 
8 -15.660406660315347 -1.6604066603153473
1 -15.660406660315346 9.5980440248690559 1 -1.2246467991473532e-16 
8 -15.660406660315347 -1.6604066603153473
1 17.000000000000004 -15.660406660315347 -1.1102230246251565e-16 -1 
2 -24.320813320630691 11.298044024869057 -1.2246467991473532e-16 -1 1 -1.2246467991473532e-16 1.1499999999999999
1 6.679274664138223e-65 12.500000000000004 1 0 
2 33.679186679369309 2.7980440248690566 1.2246467991473532e-16 -1 -1 -1.2246467991473532e-16 11
1 6.679274664138223e-65 0.5 1 0 
2 33.679186679369309 2.7980440248690566 1.2246467991473532e-16 -1 -1 -1.2246467991473532e-16 11
1 6.679274664138223e-65 0.5 1 0 
1 -16.386065891793663 -10.838155817244473 1.1102230246251565e-16 -1 
8 -2.2500000000000036 2.2499999999999964
1 2.2499999999999964 23.199999999999996 -1 0 
2 2.9339341082063299 -5.4081558172444701 -1 0 -0 -1 7.6800000000000068
1 -1.5707963267948966 0 1 0 
1 10.613934108206337 15.91184418275553 0 -1 
1 0 0 0 1 
2 2.9339341082063299 8.2318441827555304 -1 0 0 1 7.6800000000000068
1 -1.5707963267948966 0 1 0 
1 10.613934108206337 15.91184418275553 -1 0 
1 24.369046394644357 -11.405873333060981 -1 0 
2 2.2939341082063436 8.2318441827555304 -1 0 -0 -1 7.6800000000000068
1 -4.7123889803846897 0 1 0 
1 -0.38606589179366324 15.91184418275553 0 -1 
1 0 0 0 1 
1 10.613934108206337 15.91184418275553 -1 0 
1 24.369046394644357 -11.405873333060981 -1 0 
1 -27.386065891793663 15.91184418275553 0 -1 
1 0 0 0 1 
1 10.613934108206337 11.41184418275553 -1 0 
1 0 0 1 0 
2 2.2939341082063436 8.2318441827555304 -1 0 -0 -1 7.6800000000000068
1 -4.7123889803846897 0 1 0 
1 -5.3860658917936632 15.91184418275553 0 -1 
1 0 0 0 1 
2 2.2939341082063436 -5.4081558172444701 -1 0 0 1 7.6800000000000068
1 -4.7123889803846897 0 1 0 
8 -2.2500000000000036 2.2499999999999964
1 58 -2.2500000000000036 -1.1102230246251565e-16 -1 
8 -2.2500000000000036 2.2499999999999964
1 2.2499999999999964 0.19999999999999751 -1 0 
1 0 34.399999999999999 1 0 
1 0 -22 1 0 
1 0 0 1 0 
1 0 -22 1 0 
1 0 0 1 0 
1 -17.199999999999999 2.25 0 -1 
1 0 0 1 0 
1 17.200000000000003 2.25 0 -1 
1 6.2831853071795862 -0 0 1 
1 0 -0 0 1 
1 6.679274664138223e-65 3 1 0 
2 6.5 7.9602041944577955e-16 1 0 -0 1 1.1499999999999999
1 6.2831853071795862 -0 0 1 
1 0 -0 0 1 
1 0 24.600000000000001 1 0 
1 0 -14 1 0 
1 0 0 1 0 
1 0 -14 1 0 
1 0 0 1 0 
1 0 24.600000000000001 1 0 
1 0 0 1 0 
1 0 0 1 0 
1 6.2831853071795862 -0 0 1 
1 0 -0 0 1 
1 6.679274664138223e-65 3 1 0 
2 3.6977854932234928e-32 -6.5 1 0 -0 1 1.1499999999999999
1 6.2831853071795862 -0 0 1 
1 0 -0 0 1 
1 6.679274664138223e-65 3 1 0 
2 0 0 1 0 -0 1 3.2000000000000002
1 6.2831853071795862 -0 0 1 
1 0 -0 0 1 
1 6.679274664138223e-65 3 1 0 
2 -3.6977854932234928e-32 6.5 1 0 -0 1 1.1499999999999999
1 6.2831853071795862 -0 0 1 
1 0 -0 0 1 
1 6.679274664138223e-65 3 1 0 
2 -6.5 -7.9602041944577955e-16 1 0 -0 1 1.1499999999999999
1 6.2831853071795862 -0 0 1 
1 0 -0 0 1 
1 -1.5707963267948966 4.5 1 0 
2 7.6800000000000068 -21.32 1 0 0 -1 7.6799999999999997
1 1.5707963267948966 0 0 1 
1 0 21.32 1 0 
8 -5.999999999062311e-07 4.5000005999999999
1 2.1258803253505789 0 0 -1 
8 -5.999999999062311e-07 4.5000005999999999
1 0.93861107811415145 0 0 1 
8 -16 0
1 0 -4.5 -1 -0 
8 -16 0
1 0 4.5 -1 0 
2 8.3199999999999932 -7.6799999999999997 1 0 0 -1 7.6799999999999997
1 -4.7123889803846897 4.5 1 0 
1 16 0 0 -1 
1 4.5 0 0 1 
2 8.3199999999999932 -21.32 1 0 -0 1 7.6799999999999997
1 -4.7123889803846897 4.5 1 0 
1 0 0 0 -1 
1 4.5 0 0 1 
2 7.6800000000000068 -7.6799999999999997 1 0 -0 1 7.6799999999999997
1 -1.5707963267948966 4.5 1 0 
1 1.5707963267948966 0 0 1 
1 0 21.32 1 0 
1 6.2831853071795862 -0 0 1 
1 0 -0 0 1 
1 0 0 1 0 
2 0 0 1 0 -0 1 11
1 0 7.6799999999999997 1 0 
1 1.5707963267948966 0 0 1 
1 0 0 0 1 
1 16.68904639464435 -11.405873333060981 0 1 
7 0 0  7 14 3  0 0.51297945076867357  0.046666514648825638 0.62644200367623992  0.092060016771388656 0.75253153215261304  0.1361950946763954 0.89004997787549978  0.17906819755251618 1.0376400161178181  0.2206593450197 1.193808409525088  0.26093261954602764 1.3569398033898117  0.38616991355265656 1.8989337973820424  0.46660335048336105 2.3019948499556531  0.54203321339557387 2.7238623412798528  0.61317803339827237 3.1571441891171688  0.68076878511793393 3.5978362621418554  0.74556600298448306 4.0448864243006648  0.80841400552290033 4.5000005999999999 
 0 8 0.31063288689403518 6 1 8
7 0 0  7 14 3  0.30659919916449629 0  0.34077466690773922 -9.061434748404678e-17  0.37444923388367629 0.0195127389844112  0.40755452503471007 0.0566221053044456  0.44002396651783021 0.10942249908002717  0.47178882817382439 0.17599565641834763  0.50277524359551573 0.25439569516680449  0.59976099581494868 0.53848244437060133  0.66304385490861906 0.78474017536742635  0.72304105154858878 1.0653790889256622  0.78011407088044216 1.3697882279144102  0.83470108057199743 1.6913205332398435  0.88732559066907368 2.0267712087779564  0.93861114572649174 2.3758365638094494 
 0 8 0.31063288689403518 6 1 8
1 16.049046394644364 -11.405873333060981 0 1 
1 0 0 0 1 
2 13.369046394644357 -0.40587333306098328 -1 0 -0 -1 11
1 -1.5707963267948966 0 1 0 
1 24.369046394644357 -11.405873333060981 0 1 
1 0 0 1 0 
2 13.369046394644357 0.59412666693901939 -1 0 0 1 11
1 -1.5707963267948966 0 1 0 
1 24.369046394644357 11.594126666939019 -1 0 
1 0 0 1 0 
2 -13.630953605355643 0.59412666693901939 -1 0 -0 -1 11
1 -4.7123889803846897 0 1 0 
1 -24.630953605355643 -11.405873333060981 0 1 
1 0 0 1 0 
2 -13.630953605355643 -0.40587333306098328 -1 0 0 1 11
1 -4.7123889803846897 0 1 0 
2 13.369046394644357 -0.40587333306098328 -1 0 -0 -1 11
1 -1.5707963267948966 0 1 0 
7 0 0  5 10 3  0 0.33146682997142207  0.026443202916147213 0.28045095262191649  0.053189373154134717 0.23398782493913634  0.080162225385302793 0.19241160917594594  0.10728999551800716 0.15589836866646392  0.1791889091798998 0.072871571494463924  0.22401512983987468 0.035098911345725056  0.26870092513520166 0.011135237356354608  0.31296432091545606 -1.7624155598759236e-15  0.35645933325940149 -1.7763568394002505e-15 
 0 6 0.3784402097056011 4 1 6
7 0 0  5 10 3  0.24611343971366084 0  0.22707766458324838 -3.8645701446234978e-18  0.20793757856661035 0.0067127712183922238  0.18876393024701751 0.020445708057349767  0.16962364392642504 0.041339838208319157  0.11930912681063338 0.11538451038557936  0.088361944703269704 0.18054842412525424  0.057995948884701345 0.26460585842661311  0.028458476916586466 0.36621168073959554  0 0.48277831382136949 
 0 6 0.3784402097056011 4 1 6
1 1.5707963267948966 0 0 1 
1 10.999999999999998 0 0 1 
1 -4.7123889803846897 4.5 1 0 
2 38 10.999999999999998 1 0 -0 1 11
1 0 0 0 1 
1 0 4.5 1 0 
2 11 12.000000000000002 1 0 -0 1 11
1 -1.5707963267948966 4.5 1 0 
1 0 23 1 0 
1 0 -4.5 1 0 
2 38 12.000000000000002 1 0 0 -1 11
1 -4.7123889803846897 4.5 1 0 
1 49 0 0 1 
1 0 4.5 1 0 
8 -5.999999999062311e-07 4.5000005999999999
1 15.310708118638615 0 0 1 
8 -5.999999999062311e-07 4.5000005999999999
1 1.1438837039651688 0 0 1 
2 11 10.999999999999998 1 0 0 -1 11
1 -1.5707963267948966 4.5 1 0 
1 1.5707963267948966 0 0 1 
1 0 7.6799999999999997 1 0 
1 1.5707963267948966 0 0 1 
1 10.999999999999998 0 0 1 
1 12.000000000000002 0 0 1 
1 1.5707963267948966 0 0 1 
1 0 0 0 1 
1 11 0 0 -1 
1 38 0 0 -1 
1 0 0 0 1 
1 1.5707963267948966 0 0 1 
1 12.000000000000002 0 0 1 
1 0 0 1 0 
1 12.277322404371587 -11.5 -1 0 
8 -12.4 0
1 16 0 0 1 
8 -12.4 0
1 4.6999999999999993 0 0 -1 
1 0 -12.4 1 0 
1 -12.277322404371578 -11.500000000000002 1 0 
1 0 0 0 -1 
1 0 0 0 1 
1 0 12.4 1 0 
1 3.7226775956284222 -16.200000000000003 0 1 
1 0 0 1 0 
1 -3.7226775956284133 -16.199999999999999 0 1 
1 0 0 0 1 
1 0 0 0 -1 
1 0 12.4 1 0 
1 -12.277322404371578 -11.500000000000002 0 1 
1 23 0 0 1 
1 0 0 0 -1 
1 0 0 1 0 
1 12.277322404371587 -11.5 0 1 
1 0 0 1 0 
1 12.277322404371587 11.5 -1 0 
8 -12.4 0
1 16 0 0 1 
8 -12.4 0
1 27.699999999999999 0 0 -1 
1 0 -12.4 1 0 
1 -12.277322404371578 11.499999999999998 1 0 
1 0 0 1 0 
1 -3.7226775956284133 -16.199999999999999 -1 0 
1 2.5 0 0 -1 
1 0 0 0 1 
1 0 -12.4 1 0 
1 3.7226775956284222 -16.200000000000003 1 0 
1 0 12.4 1 0 
1 3.7226775956284222 -16.200000000000003 0 1 
1 32.399999999999999 0 0 1 
1 0 0 0 -1 
1 0 0 1 0 
1 -3.7226775956284133 -16.199999999999999 0 1 
1 0 12.4 1 0 
1 6.2226775956284222 -16.200000000000003 0 1 
8 -12.4 0
1 4.6999999999999993 0 0 -1 
8 -12.4 0
1 18.5 0 0 1 
1 0 0 1 0 
1 -6.2226775956284133 -16.199999999999999 0 1 
1 0 0 1 0 
1 -3.7226775956284133 16.199999999999999 -1 0 
1 2.5 0 0 -1 
1 32.399999999999999 0 0 1 
1 0 -12.4 1 0 
1 3.7226775956284222 16.199999999999996 1 0 
1 0 12.4 1 0 
1 6.2226775956284222 -16.200000000000003 0 1 
1 0 0 1 0 
1 -6.2226775956284133 -16.199999999999999 0 1 
8 -12.4 0
1 27.699999999999999 0 0 -1 
8 -12.4 0
1 18.5 0 0 1 
1 0 0 1 0 
1 12.277322404371587 11.5 -1 0 
1 22.5 0 0 -1 
1 23 0 0 1 
1 0 -12.4 1 0 
1 -12.277322404371578 11.499999999999998 1 0 
1 0 0 0 1 
1 22.5 0 0 -1 
1 0 12.4 1 0 
1 10.222677595628422 -11.500000000000002 0 1 
1 0 0 1 0 
1 -10.222677595628413 -11.5 0 1 
2 6 6.2000000000000002 1 0 -0 1 5.9000000000000004
1 0 0 1 0 
1 0 0 1 0 
1 12.277322404371587 -11.5 -1 0 
1 0 -12.4 1 0 
1 -12.277322404371578 -11.500000000000002 1 0 
1 0 4 1 0 
2 0 0 1 0 -0 1 5.9000000000000004
1 6.2831853071795862 -0 0 1 
1 0 -0 0 1 
2 0 0 1 0 -0 1 9
1 0 0 1 0 
1 0 2 1 0 
2 0 0 1 0 -0 1 9
1 6.2831853071795862 -0 0 1 
1 0 -0 0 1 
Curves 165
1 -11.5 -19 91 1 0 -0 
1 -0.500000000000002 -23.5 91 -0 1 0 
1 0.500000000000002 -23.5 91 -0 1 0 
1 -11.5 -23.5 91 1 0 -0 
1 -11.5 -23.5 91 1 0 -0 
1 0 -24 91 0 1 1.1102230246251565e-16 
8 1.5707963267948966 3.1415926535897931
2 -0.50000000000000133 -19 102 0 -1 -0 0 0 1 -1 -0 0 11
8 1.5707963267948966 3.1415926535897931
2 0.50000000000000133 -19 102 -0 1 0 0 0 1 1 0 -0 11
1 -11.5 -19 91 0 0 1 
1 11.5 -19 91 0 0 1 
1 -11.699999999999999 11 -11 1 0 -0 
1 -11.699999999999999 11 -11 1 0 -0 
1 22.699999999999999 -11 -11 -0 1 0 
1 -11.699999999999999 -11 -11 -0 1 0 
1 11.700000000000001 -19 171 -1 1.3596310734468911e-32 1.2246467991473532e-16 
2 -6.5 -19.000000000000007 102 0 1 1.1102230246251565e-16 -1 1.3596310734468911e-32 -1.2246467991473532e-16 -1.2246467991473532e-16 -1.1102230246251565e-16 1 1.1499999999999999
2 -19.5 -19.000000000000007 160 0 -1 1.1102230246251565e-16 -1 1.3596310734468911e-32 1.2246467991473532e-16 -1.2246467991473532e-16 -1.1102230246251565e-16 -1 1.1499999999999999
1 1.9833295036380769 -19.000000000000007 153 -1 0 1.2246467991473532e-16 
1 -17.800000000000004 -19.000000000000007 151.45630808163816 1.2246467991473532e-16 -0 1 
1 1.9833295036380787 -19.000000000000007 167 -1 0 1.2246467991473532e-16 
1 6.7999999999999989 -19.000000000000007 151.45630808163816 1.2246467991473532e-16 -0 1 
2 7.9602041944577955e-16 -19.000000000000007 95.5 0 1 1.1102230246251565e-16 -1 1.3596310734468911e-32 -1.2246467991473532e-16 -1.2246467991473532e-16 -1.1102230246251565e-16 1 1.1499999999999999
2 0 -19.000000000000007 102 0 1 1.1102230246251565e-16 -1 1.3596310734468911e-32 -1.2246467991473532e-16 -1.2246467991473532e-16 -1.1102230246251565e-16 1 3.2000000000000002
2 -7.9602041944577955e-16 -19.000000000000007 108.5 0 1 1.1102230246251565e-16 -1 1.3596310734468911e-32 -1.2246467991473532e-16 -1.2246467991473532e-16 -1.1102230246251565e-16 1 1.1499999999999999
2 6.5 -19.000000000000007 102 0 1 1.1102230246251565e-16 -1 1.3596310734468911e-32 -1.2246467991473532e-16 -1.2246467991473532e-16 -1.1102230246251565e-16 1 1.1499999999999999
2 8.5 -19.000000000000007 160 0 -1 1.1102230246251565e-16 -1 1.3596310734468911e-32 1.2246467991473532e-16 -1.2246467991473532e-16 -1.1102230246251565e-16 -1 1.1499999999999999
8 1.5707963267948966 3.1415926535897931
2 -0.50000000000000133 -23.5 102 0 -1 -0 0 0 1 -1 -0 0 11
1 -11.500000000000002 -23.5 102 -0 1 0 
8 1.5707963267948966 3.1415926535897931
2 0.50000000000000133 -23.5 102 -0 1 0 0 0 1 1 0 -0 11
1 11.500000000000002 -23.5 102 -0 1 0 
1 -11.5 -23.5 91 0 0 1 
1 -11.5 -23.5 122.68929188136138 1 0 -0 
1 -7 -23.5 106.5 -0 0 -1 
1 -11.5 -23.5 137.31070811863862 1 0 -0 
1 -11.5 -23.5 91 0 0 1 
1 -11.699999999999999 11 -6.5 1 0 -0 
1 22.699999999999999 -11 -6.5 -0 1 0 
1 11.700000000000001 -23.5 171 -1 1.3596310734468911e-32 1.2246467991473532e-16 
1 -11.699999999999999 -11 -6.5 -0 1 0 
1 -11.699999999999999 11 -6.5 1 0 -0 
1 11.5 -23.5 91 0 0 1 
2 -19.5 -23.500000000000004 160 0 -1 1.1102230246251565e-16 -1 1.3596310734468911e-32 1.2246467991473532e-16 -1.2246467991473532e-16 -1.1102230246251565e-16 -1 1.1499999999999999
1 2.0009779875654741 -23.500000000000004 167 1 0 -1.2246467991473532e-16 
1 -17.800000000000004 -23.500000000000004 151.33959333968465 -1.2246467991473532e-16 0 -1 
1 2.0009779875654723 -23.500000000000004 153 1 0 -1.2246467991473532e-16 
1 6.7999999999999989 -23.500000000000004 151.33959333968465 -1.2246467991473532e-16 0 -1 
2 8.5 -23.500000000000004 160 0 -1 1.1102230246251565e-16 -1 1.3596310734468911e-32 1.2246467991473532e-16 -1.2246467991473532e-16 -1.1102230246251565e-16 -1 1.1499999999999999
2 0 -23.5 102 0 1 1.1102230246251565e-16 -1 1.3596310734468911e-32 -1.2246467991473532e-16 -1.2246467991473532e-16 -1.1102230246251565e-16 1 11
2 0 -23.5 102 0 1 1.1102230246251565e-16 -1 1.3596310734468911e-32 -1.2246467991473532e-16 -1.2246467991473532e-16 -1.1102230246251565e-16 1 11
1 -11.5 -21.249999999999996 149 -0 1 -1.1102230246251565e-16 
8 1.5707963267948966 3.1415926535897931
2 -11.5 -26.68 129.68000000000001 -1 -0 0 0 0 1 -0 1 0 7.6799999999999997
1 -11.5 -48 122 -0 1 0 
8 1.5707963267948966 3.1415926535897931
2 -11.5 -40.32 129.68000000000001 1 0 -0 0 0 1 0 -1 0 7.6799999999999997
1 -11.5 -48 122 0 0 1 
8 4.7123889803846897 6.2831853071795862
2 -11.5 -40.32 130.31999999999999 -1 -0 0 0 0 1 -0 1 0 7.6799999999999997
1 -11.500000000000002 -48 133 -0 1 0 
1 -11.5 -48 122 0 0 1 
1 -11.500000000000002 -48 160 -0 1 0 
1 -11.5 -43.5 122 0 0 1 
8 4.7123889803846897 6.2831853071795862
2 -11.5 -40.32 130.31999999999999 -1 -0 0 0 0 1 -0 1 0 7.6799999999999997
1 -11.5 -48 138 -0 1 0 
8 4.7123889803846897 6.2831853071795862
2 -11.5 -26.68 130.31999999999999 1 0 -0 0 0 1 0 -1 0 7.6799999999999997
1 11.5 -21.249999999999996 149 -0 1 -1.1102230246251565e-16 
1 22.699999999999999 11 -11 0 0 1 
1 -11.699999999999999 11 -11 0 0 1 
1 22.699999999999999 -11 -11 0 0 1 
1 -11.699999999999999 -11 -11 0 0 1 
1 7.6500000000000004 -2.8166876380389135e-16 3 0 0 1 
2 -6.5 -24 102 0 1 1.1102230246251565e-16 -1 1.3596310734468911e-32 -1.2246467991473532e-16 -1.2246467991473532e-16 -1.1102230246251565e-16 1 1.1499999999999999
1 20.649999999999999 -2.8166876380389037e-16 -19 0 0 1 
1 17.800000000000001 7 -23.5 0 0 1 
1 -6.7999999999999998 7 -23.5 0 0 1 
1 17.800000000000001 -7 -23.5 0 0 1 
1 -6.7999999999999998 -7 -23.5 0 0 1 
1 1.1499999999999999 -6.5 3 0 0 1 
2 7.9602041944577955e-16 -24 95.5 0 1 1.1102230246251565e-16 -1 1.3596310734468911e-32 -1.2246467991473532e-16 -1.2246467991473532e-16 -1.1102230246251565e-16 1 1.1499999999999999
1 3.2000000000000002 -7.8377395145430609e-16 3 0 0 1 
2 0 -24 102 0 1 1.1102230246251565e-16 -1 1.3596310734468911e-32 -1.2246467991473532e-16 -1.2246467991473532e-16 -1.1102230246251565e-16 1 3.2000000000000002
1 1.1499999999999999 6.5 3 0 0 1 
2 -7.9602041944577955e-16 -24 108.5 0 1 1.1102230246251565e-16 -1 1.3596310734468911e-32 -1.2246467991473532e-16 -1.2246467991473532e-16 -1.1102230246251565e-16 1 1.1499999999999999
1 -5.3499999999999996 -2.8166876380389116e-16 3 0 0 1 
2 6.5 -24 102 0 1 1.1102230246251565e-16 -1 1.3596310734468911e-32 -1.2246467991473532e-16 -1.2246467991473532e-16 -1.1102230246251565e-16 1 1.1499999999999999
1 -7.3499999999999996 -2.8166876380389116e-16 -19 0 0 1 
8 1.5707963267948966 3.1415926535897931
2 -7 -26.68 129.68000000000001 -1 -0 0 0 0 1 -0 1 0 7.6799999999999997
1 -11.5 -26.68 122 1 0 -0 
1 -7 -48 124.12588032535058 -0 1 0 
1 -7 -43.5 122 -0 0 -1 
8 4.7123889803846897 6.2831853071795862
2 -7 -40.32 130.31999999999999 -1 -0 0 0 0 1 -0 1 0 7.6799999999999997
1 -7 -48 138 -0 1 0 
8 4.7123889803846897 6.2831853071795862
2 -7 -26.68 130.31999999999999 1 0 -0 0 0 1 0 -1 0 7.6799999999999997
1 -7 -48 122 -0 1 0 
8 1.5707963267948966 3.1415926535897931
2 -7 -40.32 129.68000000000001 1 0 -0 0 0 1 0 -1 0 7.6799999999999997
1 -11.5 -26.68 138 1 0 -0 
1 11 -2.6942229581241772e-15 6 0 0 1 
2 0 0 6 0 0 1 1 0 -0 -0 1 0 11
1 -11.5 -40.32 122 1 0 -0 
1 -11.5 -48 129.68000000000001 1 0 -0 
7 0 0  7 14 3  -10.987020549231328 -48 129.68000000000004  -10.873557996323758 -48 129.32160116749705  -10.747468467847385 -47.980487261015597 128.97297920316072  -10.609950022124499 -47.943377894695551 128.63529616088491  -10.462359983882182 -47.890577500919967 128.30954295494161  -10.306191590474912 -47.82400434358167 127.99656064508612  -10.143060196610188 -47.745604304833194 127.69705612370358  -9.6010662026179574 -47.461517555629399 126.77814531049142  -9.198005150044354 -47.215259824632525 126.20770302391773  -8.7761376587201294 -46.934620911074475 125.69655113103936  -8.3428558108828401 -46.630211772085438 125.23893232620945  -7.9021637378581566 -46.308679466760225 124.82852580161823  -7.455113575699329 -45.973228791222041 124.45923596297227  -6.9999993999999939 -45.62416343619055 124.12587988587039 
 0 8 0.31063288689403518 6 1 8
1 -11.5 -48 130.31999999999999 1 0 -0 
8 1.5707963267948966 3.1415926535897931
2 -0.50000000000000133 -48 133 0 -1 -0 0 0 1 -1 -0 0 11
1 -11.5 -48 122 1 0 -0 
8 1.5707963267948966 3.1415926535897931
2 0.50000000000000133 -48 133 -0 1 0 0 0 1 1 0 -0 11
1 11.5 -48 122 0 0 1 
8 4.7123889803846897 6.2831853071795862
2 0.50000000000000133 -48 160 0 -1 -0 0 0 1 -1 -0 0 11
1 -11.5 -48 171 1 0 -0 
8 4.7123889803846897 6.2831853071795862
2 -0.50000000000000133 -48 160 -0 1 0 0 0 1 1 0 -0 11
8 1.5707963267948966 3.1415926535897931
2 -0.50000000000000133 -48 133 0 -1 -0 0 0 1 -1 -0 0 11
7 0 0  5 10 3  -11.168533170028578 -48 130.31999999999999  -11.219549047378084 -48 130.52308379839602  -11.266012175060863 -47.993287228781611 130.72849435825816  -11.307588390824055 -47.979554291942655 130.935350139419  -11.344101631333537 -47.958660161791677 131.14276288576869  -11.427128428505537 -47.884615489614418 131.68995953917164  -11.464901088654274 -47.819451575874744 132.02854431688388  -11.488864762643646 -47.735394141573387 132.36204526562759  -11.500000000000002 -47.633788319260404 132.68695675391754  -11.500000000000002 -47.51722168617863 133 
 0 6 0.3784402097056011 4 1 6
1 -0.500000000000002 -48 171 -0 1 0 
8 4.7123889803846897 6.2831853071795862
2 -0.50000000000000133 -43.5 160 -0 1 0 0 0 1 1 0 -0 11
1 -11.5 -43.5 122 1 0 -0 
8 1.5707963267948966 3.1415926535897931
2 0.50000000000000133 -43.5 133 -0 1 0 0 0 1 1 0 -0 11
1 11.5 -43.5 122 0 0 1 
8 4.7123889803846897 6.2831853071795862
2 0.50000000000000133 -43.5 160 0 -1 -0 0 0 1 -1 -0 0 11
1 -11.5 -43.5 171 1 0 -0 
1 -11.5 -43.5 137.31070811863862 1 0 -0 
8 1.5707963267948966 3.1415926535897931
2 -0.50000000000000133 -43.5 133 0 -1 -0 0 0 1 -1 -0 0 11
1 -11.5 -40.32 138 1 0 -0 
1 -0.500000000000002 -48 122 -0 1 0 
1 0.500000000000002 -48 122 -0 1 0 
1 11.500000000000002 -48 133 -0 1 0 
1 11.500000000000002 -48 160 -0 1 0 
1 0.500000000000002 -48 171 -0 1 0 
1 -6 -6.2000000000000002 -22.5 0 0 1 
1 -6 -6.2000000000000002 -6.5 0 -1 0 
1 -6 6.2000000000000002 -22.5 0 0 1 
1 -6 -6.2000000000000002 -22.5 -0 1 0 
1 -10.699999999999999 6.2000000000000002 -6.5 1 0 -0 
1 -10.699999999999999 -6.2000000000000002 -6.5 1 0 -0 
1 -10.699999999999999 -6.2000000000000002 -6.5 -0 1 0 
1 -6 6.2000000000000002 -22.5 1 0 -0 
1 17 -6.2000000000000002 -22.5 -0 1 0 
1 -6 -6.2000000000000002 -22.5 1 0 -0 
1 17 -6.2000000000000002 -22.5 0 0 1 
1 17 -6.2000000000000002 -6.5 0 -1 0 
1 17 6.2000000000000002 -22.5 0 0 1 
1 -10.699999999999999 -6.2000000000000002 -6.5 0 0 1 
1 -10.699999999999999 -6.2000000000000002 -4 -0 1 0 
1 -10.699999999999999 6.2000000000000002 -6.5 0 0 1 
1 -10.699999999999999 6.2000000000000002 -6.5 1 0 -0 
1 21.699999999999999 -6.2000000000000002 -6.5 -0 1 0 
1 -10.699999999999999 -6.2000000000000002 -6.5 1 0 -0 
1 -10.699999999999999 6.2000000000000002 -4 1 0 -0 
1 -6 -6.2000000000000002 -4 0 -1 0 
1 -10.699999999999999 -6.2000000000000002 -4 1 0 -0 
1 21.699999999999999 -6.2000000000000002 -6.5 0 0 1 
1 21.699999999999999 -6.2000000000000002 -4 -0 1 0 
1 21.699999999999999 6.2000000000000002 -6.5 0 0 1 
1 -10.699999999999999 6.2000000000000002 -4 1 0 -0 
1 -10.699999999999999 -6.2000000000000002 -4 1 0 -0 
1 17 -6.2000000000000002 -4 0 -1 0 
1 17 -6.2000000000000002 -22.5 0 0 1 
1 17 -6.2000000000000002 0 -0 1 0 
1 17 6.2000000000000002 -22.5 0 0 1 
1 -6 -6.2000000000000002 0 -0 1 0 
1 -6 6.2000000000000002 0 1 0 -0 
1 -6 -6.2000000000000002 0 1 0 -0 
2 0 0 0 0 0 1 1 0 -0 -0 1 0 5.9000000000000004
1 -6 -6.2000000000000002 -22.5 0 0 1 
1 -6 6.2000000000000002 -22.5 0 0 1 
2 0 0 4 0 0 1 1 0 -0 -0 1 0 5.9000000000000004
1 5.9000000000000004 -1.4450832229938768e-15 0 0 0 1 
2 0 0 4 0 0 1 1 0 -0 -0 1 0 9
2 0 0 6 0 0 1 1 0 -0 -0 1 0 9
1 9 -2.2043642384652358e-15 4 0 0 1 
Polygon3D 0
PolygonOnTriangulations 0
Surfaces 61
1 -11.5 -23.5 91 0 0 1 1 0 -0 -0 1 0 
1 -2.8333409927238473 -19.000000000000007 135.91261616327631 0 1 0 0 -0 1 1 0 -0 
2 -0.50000000000000133 -23.5 102 -0 1 0 -1 -0 0 -0 -0 -1 11
2 0.50000000000000133 -23.5 102 -0 1 0 1 0 -0 -0 0 -1 11
1 -2.7980440248690566 -23.500000000000004 135.67918667936931 -0 -1 -0 0 0 -1 1 -0 0 
1 -11.500000000000005 -32.08815581724447 132.61393410820634 -1 -0 -0 0 0 -1 0 -1 0 
1 11.5 -23.5 91 1 0 -0 0 0 1 0 -1 0 
1 -11.699999999999999 11 -11 -0 1 0 0 0 1 1 0 -0 
1 -11.699999999999999 11 -11 -0 1 0 0 0 1 1 0 -0 
1 22.699999999999999 -11 -11 1 0 -0 0 0 1 0 -1 0 
1 -11.699999999999999 -11 -11 1 0 -0 0 0 1 0 -1 0 
1 -5.5000000000000009 -21.25 171.00000000000006 0 0 1 1 0 -0 -0 1 0 
2 6.5 0 3 0 0 1 1 0 -0 -0 1 0 1.1499999999999999
2 19.5 0 -19 0 0 1 1 0 -0 -0 1 0 1.1499999999999999
1 -6.7999999999999998 7 -23.5 -0 1 0 0 0 1 1 0 -0 
1 17.800000000000001 -7 -23.5 1 0 -0 0 0 1 0 -1 0 
1 -6.7999999999999998 -7 -23.5 -0 1 0 0 0 1 1 0 -0 
1 -6.7999999999999998 -7 -23.5 1 0 -0 0 0 1 0 -1 0 
2 0 -6.5 3 0 0 1 1 0 -0 -0 1 0 1.1499999999999999
2 0 0 3 0 0 1 1 0 -0 -0 1 0 3.2000000000000002
2 0 6.5 3 0 0 1 1 0 -0 -0 1 0 1.1499999999999999
2 -6.5 0 3 0 0 1 1 0 -0 -0 1 0 1.1499999999999999
2 -8.5 0 -19 0 0 1 1 0 -0 -0 1 0 1.1499999999999999
2 -11.5 -26.68 129.68000000000001 1 0 -0 0 1 0 -0 0 -1 7.6799999999999997
1 -7 -48 122 1 0 -0 0 0 1 0 -1 0 
2 -11.5 -26.68 130.31999999999999 1 0 -0 0 1 0 0 -0 1 7.6799999999999997
2 0 0 6 0 0 1 1 0 -0 -0 1 0 11
1 -11.5 -48 122 0 0 1 1 0 -0 -0 1 0 
2 -11.5 -40.32 129.68000000000001 1 0 -0 0 -1 0 0 -0 -1 7.6799999999999997
1 -0.094126666939018028 -48.000000000000007 146.36904639464436 -0 -1 -0 0 0 -1 1 -0 0 
2 -11.5 -40.32 130.31999999999999 1 0 -0 0 -1 0 -0 0 1 7.6799999999999997
2 -0.50000000000000133 -48 133 -0 1 0 -1 -0 0 -0 -0 -1 11
2 -0.50000000000000133 -48 160 -0 1 0 -1 -0 0 0 0 1 11
1 -11.5 -43.5 122 -0 1 0 0 0 1 1 0 -0 
2 -11.5 -40.32 130.31999999999999 1 0 -0 0 -1 0 -0 0 1 7.6799999999999997
1 -11.5 -48 138 0 0 1 1 0 -0 -0 1 0 
1 0 0 6 0 0 1 1 0 -0 -0 1 0 
2 -0.50000000000000133 -48 133 -0 1 0 -1 -0 0 -0 -0 -1 11
1 -11.5 -48 122 0 0 1 1 0 -0 -0 1 0 
2 0.50000000000000133 -48 133 -0 1 0 1 0 -0 -0 0 -1 11
1 11.5 -48 122 1 0 -0 0 0 1 0 -1 0 
2 0.50000000000000133 -48 160 -0 1 0 1 0 -0 0 -0 1 11
1 -11.5 -48 171 0 0 1 1 0 -0 -0 1 0 
1 -6 -6.2000000000000002 -22.5 1 0 -0 0 0 1 0 -1 0 
1 5.5 -6.1999999999999993 -10.222677595628413 -0 -1 -0 0 0 -1 1 -0 0 
1 -10.699999999999999 -6.2000000000000002 -6.5 0 0 1 1 0 -0 -0 1 0 
1 5.5000000000000018 6.2000000000000028 -10.222677595628422 0 1 0 0 -0 1 1 0 -0 
1 -6 -6.2000000000000002 -22.5 0 0 1 1 0 -0 -0 1 0 
1 -10.699999999999999 -6.2000000000000002 -6.5 1 0 -0 0 0 1 0 -1 0 
1 17 -6.2000000000000002 -22.5 1 0 -0 0 0 1 0 -1 0 
1 -10.699999999999999 -6.2000000000000002 -6.5 0 0 1 1 0 -0 -0 1 0 
1 -10.699999999999999 -6.2000000000000002 -4 0 0 1 1 0 -0 -0 1 0 
1 21.699999999999999 -6.2000000000000002 -6.5 1 0 -0 0 0 1 0 -1 0 
1 -6 -6.2000000000000002 -22.5 1 0 -0 0 0 1 0 -1 0 
1 -10.699999999999999 -6.2000000000000002 -4 0 0 1 1 0 -0 -0 1 0 
1 17 -6.2000000000000002 -22.5 1 0 -0 0 0 1 0 -1 0 
1 -6 -6.2000000000000002 0 0 0 1 1 0 -0 -0 1 0 
2 0 0 0 0 0 1 1 0 -0 -0 1 0 5.9000000000000004
1 0 0 4 0 0 1 1 0 -0 -0 1 0 
2 0 0 4 0 0 1 1 0 -0 -0 1 0 9
1 0 0 6 0 0 1 1 0 -0 -0 1 0 
Triangulations 0

TShapes 422
Ve
1.5e-07
-0.500000000000002 -19 91
0 0

0101101
*
Ve
1.5e-07
0.500000000000002 -19 91
0 0

0101101
*
Ed
 1.5e-07 1 1 0
1  1 0 11 12
2  1 1 0 11 12
2  2 2 0 11 12
0

0101000
+422 0 -421 0 *
Ve
1.5e-07
-0.500000000000002 -23.5 91
0 0

0101101
*
Ed
 1e-07 1 1 0
1  2 0 0 4.5
2  3 1 0 0 4.5
2  4 3 0 0 4.5
4 G1 1 0 3 0
0

0101000
+419 0 -422 0 *
Ve
1.5e-07
0.500000000000002 -23.5 91
0 0

0101101
*
Ed
 1e-07 1 1 0
1  3 0 0 4.5
2  5 1 0 0 4.5
2  6 4 0 0 4.5
4 G1 1 0 4 0
0

0101000
+417 0 -421 0 *
Ve
1.5e-07
0 -23.5 91
0 0

0101101
*
Ed
 1.5e-07 1 1 0
1  4 0 11 11.5
2  7 1 0 11 11.5
2  8 5 0 11 11.5
0

0101000
+419 0 -415 0 *
Ed
 1.5e-07 1 1 0
1  5 0 11.5 12
2  9 1 0 11.5 12
2  10 5 0 11.5 12
0

0101000
+415 0 -417 0 *
Wi

0101100
-420 0 -418 0 +416 0 +414 0 +413 0 *
Ve
1.00000003367779e-07
3.36777869765522e-15 -21 91
0 0

0101101
*
Ed
 1e-07 1 1 0
1  6 0 0.5 3
2  11 1 0 0.5 3
0

0101000
+415 0 -411 0 *
Wi

0101000
i410 0 *
Fa
0  1e-07 1 0

0101000
+412 0 +409 0 *
Ve
1.5e-07
-11.5 -19 102
0 0

0101101
*
Ed
 1.5e-07 1 1 0
1  7 0 1.5707963267949 3.14159265358979
2  12 2 0 1.5707963267949 3.14159265358979
2  13 3 0 1.5707963267949 3.14159265358979
0

0101000
+407 0 -422 0 *
Ve
1.5e-07
11.5 -19 102
0 0

0101101
*
Ed
 1.5e-07 1 1 0
1  8 0 1.5707963267949 3.14159265358979
2  14 2 0 1.5707963267949 3.14159265358979
2  15 4 0 1.5707963267949 3.14159265358979
0

0101000
+405 0 -421 0 *
Ve
1.5e-07
-11.5 -19 149
0 0

0101101
*
Ed
 1e-07 1 1 0
1  9 0 11 58
2  16 2 0 11 58
2  17 6 0 11 58
0

0101000
+407 0 -403 0 *
Ve
1.5e-07
11.5 -19 149
0 0

0101101
*
Ed
 1.5e-07 1 1 0
1  10 0 11 58
2  18 2 0 11 58
2  19 7 0 11 58
0

0101000
+405 0 -401 0 *
Ve
1.5e-07
-22.7 -19 149
0 0

0101101
*
Ed
 1.5e-07 1 1 0
1  11 0 23.2 34.4
2  20 2 8 23.2 34.4
2  21 8 0 23.2 34.4
0

0101000
+403 8 -399 8 *
Ve
1.5e-07
11.7 -19 149
0 0

0101101
*
Ed
 1.5e-07 1 1 0
1  12 0 0 0.199999999999998
2  22 2 8 0 0.199999999999998
2  23 9 0 0 0.199999999999998
0

0101000
+397 8 -401 8 *
Ve
1.5e-07
-22.7 -19 171
0 0

0101101
*
Ed
 1.5e-07 1 1 0
1  13 0 0 22
2  24 2 8 0 22
2  25 10 0 0 22
0

0101000
-399 8 +395 8 *
Ve
1.5e-07
11.7 -19 171
0 0

0101101
*
Ed
 1.5e-07 1 1 0
1  14 0 0 22
2  26 2 8 0 22
2  27 11 0 0 22
0

0101000
-397 8 +393 8 *
Ed
 1e-07 1 1 0
1  15 0 0 34.4
2  28 2 0 0 34.4
2  29 12 0 0 34.4
0

0101000
+393 0 -395 0 *
Wi

0101100
-420 0 -406 0 +404 0 +402 0 -400 0 +398 7 +396 7 -394 7 +392 7 -391 0 
*
Ve
1.5e-07
-7.65 -19 102
0 0

0101101
*
Ed
 1.5e-07 1 1 0
1  16 0 0 6.28318530717959
2  30 2 0 0 6.28318530717959
2  31 13 14 0 6.28318530717959
0

0101100
+389 0 -389 0 *
Wi

0101100
-388 0 *
Ve
1.5e-07
-20.65 -19 160
0 0

0101101
*
Ed
 1.5e-07 1 1 0
1  17 0 0 6.28318530717959
2  32 2 0 0 6.28318530717959
2  33 14 20 0 6.28318530717959
0

0101100
+386 0 -386 0 *
Wi

0101100
+385 0 *
Ve
2e-07
6.8 -19 153
0 0

0101101
*
Ve
2.00000003552714e-07
-17.8 -19 153
0 0

0101101
*
Ed
 2e-07 1 1 0
1  18 0 -4.81667049636192 19.7833295036381
2  34 2 0 -4.81667049636192 19.7833295036381
2  35 15 26 -4.81667049636192 19.7833295036381
0

0101000
+383 0 -382 0 *
Ve
2e-07
-17.8 -19 167
0 0

0101101
*
Ed
 2e-07 1 1 0
1  19 0 1.54369191836185 15.5436919183618
2  36 2 0 1.54369191836185 15.5436919183618
2  37 16 26 1.54369191836185 15.5436919183618
0

0101000
+382 0 -380 0 *
Ve
2e-07
6.8 -19 167
0 0

0101101
*
Ed
 2e-07 1 1 0
1  20 0 -4.81667049636192 19.7833295036381
2  38 2 0 -4.81667049636192 19.7833295036381
2  39 17 26 -4.81667049636192 19.7833295036381
0

0101000
+378 0 -380 0 *
Ed
 2e-07 1 1 0
1  21 0 1.54369191836185 15.5436919183618
2  40 2 0 1.54369191836185 15.5436919183618
2  41 18 26 1.54369191836185 15.5436919183618
0

0101000
+383 0 -378 0 *
Wi

0101100
-381 0 -379 0 +377 0 +376 0 *
Ve
1.5e-07
-1.15 -19 95.5
0 0

0101101
*
Ed
 1.5e-07 1 1 0
1  22 0 0 6.28318530717959
2  42 2 0 0 6.28318530717959
2  43 19 32 0 6.28318530717959
0

0101100
+374 0 -374 0 *
Wi

0101100
-373 0 *
Ve
1.5e-07
-3.2 -19 102
0 0

0101101
*
Ed
 1.5e-07 1 1 0
1  23 0 0 6.28318530717959
2  44 2 0 0 6.28318530717959
2  45 20 38 0 6.28318530717959
0

0101100
+371 0 -371 0 *
Wi

0101100
-370 0 *
Ve
1.5e-07
-1.15 -19 108.5
0 0

0101101
*
Ed
 1.5e-07 1 1 0
1  24 0 0 6.28318530717959
2  46 2 0 0 6.28318530717959
2  47 21 44 0 6.28318530717959
0

0101100
+368 0 -368 0 *
Wi

0101100
-367 0 *
Ve
1.5e-07
5.35 -19 102
0 0

0101101
*
Ed
 1.5e-07 1 1 0
1  25 0 0 6.28318530717959
2  48 2 0 0 6.28318530717959
2  49 22 50 0 6.28318530717959
0

0101100
+365 0 -365 0 *
Wi

0101100
-364 0 *
Ve
1.5e-07
7.35 -19 160
0 0

0101101
*
Ed
 1.5e-07 1 1 0
1  26 0 0 6.28318530717959
2  50 2 0 0 6.28318530717959
2  51 23 56 0 6.28318530717959
0

0101100
+362 0 -362 0 *
Wi

0101100
+361 0 *
Fa
0  1.5e-07 2 0

0101000
+390 0 +387 0 +384 0 +375 0 +372 0 +369 0 +366 0 +363 0 +360 0 *
Ve
1.5e-07
-11.5 -23.5 102
0 0

0101101
*
Ed
 1.5e-07 1 1 0
1  27 0 1.5707963267949 3.14159265358979
2  52 3 0 1.5707963267949 3.14159265358979
2  53 5 0 1.5707963267949 3.14159265358979
0

0101000
+358 0 -419 0 *
Ed
 1.5e-07 1 1 0
1  28 0 -0 4.5
2  54 3 0 -0 4.5
2  55 6 0 -0 4.5
0

0101000
+358 0 -407 0 *
Wi

0101100
+357 0 -356 0 +418 0 -406 0 *
Fa
0  1e-07 3 0

0101000
+355 0 *
Ve
1.5e-07
11.5 -23.5 102
0 0

0101101
*
Ed
 1.5e-07 1 1 0
1  29 0 1.5707963267949 3.14159265358979
2  56 4 0 1.5707963267949 3.14159265358979
2  57 5 0 1.5707963267949 3.14159265358979
0

0101000
+353 0 -417 0 *
Ed
 1e-07 1 1 0
1  30 0 -0 4.5
2  58 4 0 -0 4.5
2  59 7 0 -0 4.5
4 G1 4 0 7 0
0

0101000
+353 0 -405 0 *
Wi

0101100
+352 0 -351 0 +416 0 -404 0 *
Fa
0  1e-07 4 0

0101000
+350 0 *
Ve
1.5e-07
-11.5 -23.5000000000001 122.689291881361
0 0

0101101
*
Ed
 1.5e-07 1 1 0
1  31 0 11 31.6892918813613
2  60 5 0 11 31.6892918813613
2  61 6 0 11 31.6892918813613
0

0101000
+358 0 -348 0 *
Ve
1.5e-07
-7 -23.5 122.689291881361
0 0

0101101
*
Ed
 1.5e-07 1 1 0
1  32 0 0 4.5
2  62 5 0 0 4.5
2  63 24 0 0 4.5
0

0101000
+348 0 -346 0 *
Ve
1.50000003552714e-07
-7 -23.5 137.310708118639
0 0

0101101
*
Ed
 1.5e-07 1 1 0
1  33 0 -30.8107081186386 -16.1892918813614
2  64 5 0 -30.8107081186386 -16.1892918813614
2  65 25 0 -30.8107081186386 -16.1892918813614
0

0101000
+344 0 -346 0 *
Ve
1.5e-07
-11.5 -23.5000000000001 137.310708118639
0 0

0101101
*
Ed
 1.5e-07 1 1 0
1  34 0 0 4.5
2  66 5 0 0 4.5
2  67 26 0 0 4.5
0

0101000
+342 0 -344 0 *
Ve
1.5e-07
-11.5 -23.5 149
0 0

0101101
*
Ed
 1.5e-07 1 1 0
1  35 0 46.3107081186387 58
2  68 5 0 46.3107081186387 58
2  69 6 0 46.3107081186387 58
0

0101000
+342 0 -340 0 *
Ve
1.5e-07
-22.7 -23.5 149
0 0

0101101
*
Ed
 1.5e-07 1 1 0
1  36 0 23.2 34.4
2  70 5 8 23.2 34.4
2  71 8 0 23.2 34.4
0

0101000
+340 8 -338 8 *
Ve
1.5e-07
-22.7 -23.5 171
0 0

0101101
*
Ed
 1.5e-07 1 1 0
1  37 0 0 22
2  72 5 8 0 22
2  73 10 0 0 22
0

0101000
-338 8 +336 8 *
Ve
1.5e-07
11.7 -23.5 171
0 0

0101101
*
Ed
 1e-07 1 1 0
1  38 0 0 34.4
2  74 5 0 0 34.4
2  75 12 0 0 34.4
0

0101000
+334 0 -336 0 *
Ve
1.5e-07
11.7 -23.5 149
0 0

0101101
*
Ed
 1.5e-07 1 1 0
1  39 0 0 22
2  76 5 8 0 22
2  77 11 0 0 22
0

0101000
-332 8 +334 8 *
Ve
1.5e-07
11.5 -23.5 149
0 0

0101101
*
Ed
 1.5e-07 1 1 0
1  40 0 0 0.199999999999998
2  78 5 8 0 0.199999999999998
2  79 9 0 0 0.199999999999998
0

0101000
+332 8 -330 8 *
Ed
 1.5e-07 1 1 0
1  41 0 11 58
2  80 5 0 11 58
2  81 7 0 11 58
0

0101000
+353 0 -330 0 *
Wi

0101100
+357 0 -347 0 -345 0 +343 0 +341 0 -339 0 -337 7 +335 7 +333 0 -331 7 
-329 7 +328 0 -352 0 +413 0 +414 0 *
Ve
1.5e-07
-20.65 -23.5 160
0 0

0101101
*
Ed
 1.5e-07 1 1 0
1  42 0 0 6.28318530717959
2  82 5 0 0 6.28318530717959
2  83 14 20 0 6.28318530717959
0

0101100
+326 0 -326 0 *
Wi

0101100
-325 0 *
Ve
2e-07
-17.8 -23.5 167
0 0

0101101
*
Ve
2e-07
6.8 -23.5 167
0 0

0101101
*
Ed
 2e-07 1 1 0
1  43 0 -19.8009779875655 4.79902201243453
2  84 5 0 -19.8009779875655 4.79902201243453
2  85 17 26 -19.8009779875655 4.79902201243453
0

0101000
+323 0 -322 0 *
Ve
2.00000003552714e-07
-17.8 -23.5 153
0 0

0101101
*
Ed
 2e-07 1 1 0
1  44 0 -15.6604066603153 -1.66040666031535
2  86 5 0 -15.6604066603153 -1.66040666031535
2  87 16 26 -15.6604066603153 -1.66040666031535
0

0101000
+323 0 -320 0 *
Ve
2e-07
6.8 -23.5 153
0 0

0101101
*
Ed
 2e-07 1 1 0
1  45 0 -19.8009779875655 4.79902201243453
2  88 5 0 -19.8009779875655 4.79902201243453
2  89 15 26 -19.8009779875655 4.79902201243453
0

0101000
+320 0 -318 0 *
Ed
 2e-07 1 1 0
1  46 0 -15.6604066603153 -1.66040666031535
2  90 5 0 -15.6604066603153 -1.66040666031535
2  91 18 26 -15.6604066603153 -1.66040666031535
0

0101000
+322 0 -318 0 *
Wi

0101100
+321 0 -319 0 -317 0 +316 0 *
Ve
1.5e-07
7.35 -23.5 160
0 0

0101101
*
Ed
 1.5e-07 1 1 0
1  47 0 0 6.28318530717959
2  92 5 0 0 6.28318530717959
2  93 23 56 0 6.28318530717959
0

0101100
+314 0 -314 0 *
Wi

0101100
-313 0 *
Ve
1e-07
-11 -23.5 102
0 0

0101101
*
Ed
 1e-07 1 1 0
1  48 0 0 4.71238898038469
2  94 5 0 0 4.71238898038469
2  95 27 62 0 4.71238898038469
0

0101000
+311 0 -415 0 *
Ed
 1e-07 1 1 0
1  49 0 4.71238898038469 6.28318530717959
2  96 5 0 4.71238898038469 6.28318530717959
2  97 27 62 4.71238898038469 6.28318530717959
0

0101000
+415 0 -311 0 *
Wi

0101100
+310 0 +309 0 *
Fa
0  1.5e-07 5 0

0101000
+327 0 +324 0 +315 0 +312 0 +308 0 *
Ed
 1.5e-07 1 1 0
1  50 0 -2.25 2.25
2  98 6 0 -2.25 2.25
2  99 8 7 -2.25 2.25
0

0101000
+340 0 -403 0 *
Ve
1.5e-07
-11.5 -26.68 122
0 0

0101101
*
Ed
 1.5e-07 1 1 0
1  51 0 2.71468003076008 3.14159265358979
2  100 6 0 2.71468003076008 3.14159265358979
2  101 24 0 2.71468003076008 3.14159265358979
0

0101000
+348 0 -305 0 *
Ve
1.5e-07
-11.5 -40.32 122
0 0

0101101
*
Ed
 1.5e-07 1 1 0
1  52 0 7.68 21.32
2  102 6 0 7.68 21.32
2  103 28 0 7.68 21.32
0

0101000
+303 0 -305 0 *
Ve
1.5e-07
-11.5 -48 129.68
0 0

0101101
*
Ed
 1.5e-07 1 1 0
1  53 0 1.5707963267949 3.14159265358979
2  104 6 0 1.5707963267949 3.14159265358979
2  105 29 0 1.5707963267949 3.14159265358979
0

0101000
+301 0 -303 0 *
Ve
1.5e-07
-11.5 -48 130.32
0 0

0101101
*
Ed
 1.5e-07 1 1 0
1  54 0 7.68000000000001 8.31999999999999
2  106 6 0 7.68000000000001 8.31999999999999
2  107 30 0 7.68000000000001 8.31999999999999
0

0101000
+301 0 -299 0 *
Ve
2.13240438107325e-07
-11.5 -47.5172216861788 133
0 0

0101101
*
Ed
 1.5e-07 1 1 0
1  55 0 4.71238898038469 5.06884831364406
2  108 6 0 4.71238898038469 5.06884831364406
2  109 31 0 4.71238898038469 5.06884831364406
0

0101000
+299 0 -297 0 *
Ve
1.5e-07
-11.5 -48 133
0 0

0101101
*
Ed
 1.5e-07 1 1 0
1  56 0 -0 0.482778313821242
2  110 6 0 -0 0.482778313821242
2  111 32 0 -0 0.482778313821242
0

0101000
+295 0 -297 0 *
Ve
1.5e-07
-11.5 -48 160
0 0

0101101
*
Ed
 1.5e-07 1 1 0
1  57 0 11 38
2  112 6 0 11 38
2  113 30 0 11 38
0

0101000
+295 0 -293 0 *
Ve
1.5e-07
-11.5 -43.5 160
0 0

0101101
*
Ed
 1.5e-07 1 1 0
1  58 0 -0 4.5
2  114 6 0 -0 4.5
2  115 33 0 -0 4.5
0

0101000
+293 0 -291 0 *
Ve
1.5e-07
-11.5 -43.5 137.310708118639
0 0

0101101
*
Ed
 1.5e-07 1 1 0
1  59 0 15.3107081186386 38
2  116 6 0 15.3107081186386 38
2  117 34 0 15.3107081186386 38
0

0101000
+289 0 -291 0 *
Ve
1.5e-07
-11.5 -40.32 138
0 0

0101101
*
Ed
 1.5e-07 1 1 0
1  60 0 5.85627268434986 6.28318530717959
2  118 6 0 5.85627268434986 6.28318530717959
2  119 35 0 5.85627268434986 6.28318530717959
0

0101000
+289 0 -287 0 *
Ve
1.5e-07
-11.5 -26.68 138
0 0

0101101
*
Ed
 1.5e-07 1 1 0
1  61 0 7.68 21.32
2  120 6 0 7.68 21.32
2  121 36 0 7.68 21.32
0

0101000
+287 0 -285 0 *
Ed
 1.5e-07 1 1 0
1  62 0 5.85627268434987 6.28318530717959
2  122 6 0 5.85627268434987 6.28318530717959
2  123 26 0 5.85627268434987 6.28318530717959
0

0101000
+342 0 -285 0 *
Wi

0101000
+339 0 +306 0 -402 0 -356 0 +347 0 +304 0 -302 0 -300 0 +298 0 +296 0 
-294 0 +292 0 +290 0 -288 0 +286 0 +284 0 -283 0 *
Fa
0  1.5e-07 6 0

0111000
+282 0 *
Ed
 1.5e-07 1 1 0
1  63 0 -2.25 2.25
2  124 7 0 -2.25 2.25
2  125 9 7 -2.25 2.25
0

0101000
+330 0 -401 0 *
Wi

0101100
-328 0 -280 0 +400 0 +351 0 *
Fa
0  1e-07 7 0

0101000
+279 0 *
Ed
 1e-07 1 1 0
1  64 0 0 4.5
2  126 8 0 0 4.5
2  127 10 0 0 4.5
0

0101000
-338 8 +399 8 *
Wi

0101100
-398 7 -277 7 +337 7 -306 0 *
Fa
0  1e-07 8 7

0101000
+276 0 *
Ed
 1e-07 1 1 0
1  65 0 0 4.5
2  128 9 0 0 4.5
2  129 11 0 0 4.5
0

0101000
-332 8 +397 8 *
Wi

0101100
-396 7 +280 0 +329 7 +274 7 *
Fa
0  1e-07 9 7

0101000
+273 0 *
Ed
 1.5e-07 1 1 0
1  66 0 0 4.5
2  130 10 0 0 4.5
2  131 12 8 0 4.5
0

0101000
-336 8 +395 8 *
Wi

0101100
-271 0 -335 0 +277 0 +394 0 *
Fa
0  1e-07 10 0

0111000
+270 0 *
Ed
 1.5e-07 1 1 0
1  67 0 0 4.5
2  132 11 0 0 4.5
2  133 12 8 0 4.5
0

0101000
-334 8 +393 8 *
Wi

0101100
-268 0 -331 0 +274 0 +392 0 *
Fa
0  1e-07 11 0

0111000
+267 0 *
Wi

0101000
+391 0 +271 7 -333 0 -268 7 *
Fa
0  1.5e-07 12 0

0111000
+265 0 *
Ve
1e-07
-7.65 -24 102
0 0

0101101
*
Ed
 1e-07 1 1 0
1  68 0 3 7.99999999999999
3  134 135CN 13 0 3 7.99999999999999
0

0101000
+263 63 -389 63 *
Ed
 1e-07 1 1 0
1  69 0 0 6.28318530717959
2  136 13 14 0 6.28318530717959
2  137 37 62 0 6.28318530717959
0

0101100
+263 0 -263 0 *
Wi

0101100
-388 0 +262 14 +261 0 -262 14 *
Fa
0  1e-07 13 14

0101000
+260 0 *
Ed
 1e-07 1 1 0
1  70 0 8.00000000000001 12.5
3  138 139CN 14 0 8.00000000000001 12.5
0

0101000
+386 64 -326 64 *
Wi

0101100
-325 0 +258 20 +385 0 -258 20 *
Fa
0  1e-07 14 20

0101000
+257 0 *
Ed
 1e-07 1 1 0
1  71 0 12.5 17
2  140 15 0 12.5 17
2  141 16 0 12.5 17
0

0101000
+382 65 -320 65 *
Ed
 1e-07 1 1 0
1  72 0 12.5 17
2  142 15 0 12.5 17
2  143 18 0 12.5 17
0

0101000
+383 65 -318 65 *
Wi

0101100
-255 26 -317 0 +254 26 -381 0 *
Fa
0  1e-07 15 26

0101000
+253 0 *
Ed
 1e-07 1 1 0
1  73 0 12.5 17
2  144 16 0 12.5 17
2  145 17 0 12.5 17
0

0101000
+380 65 -323 65 *
Wi

0101100
-251 26 -319 0 +255 26 -379 0 *
Fa
0  1e-07 16 26

0101000
+250 0 *
Ed
 1e-07 1 1 0
1  74 0 12.5 17
2  146 17 0 12.5 17
2  147 18 0 12.5 17
0

0101000
+378 65 -322 65 *
Wi

0101100
-251 26 -321 0 +248 26 -377 0 *
Fa
0  1e-07 17 26

0101000
+247 0 *
Wi

0101100
-248 26 -316 0 +254 26 -376 0 *
Fa
0  1e-07 18 26

0101000
+245 0 *
Ve
1e-07
-1.15 -24 95.5
0 0

0101101
*
Ed
 1e-07 1 1 0
1  75 0 3 7.99999999999999
3  148 149CN 19 0 3 7.99999999999999
0

0101000
+243 66 -374 66 *
Ed
 1e-07 1 1 0
1  76 0 0 6.28318530717959
2  150 19 32 0 6.28318530717959
2  151 37 62 0 6.28318530717959
0

0101100
+243 0 -243 0 *
Wi

0101100
-373 0 +242 32 +241 0 -242 32 *
Fa
0  1e-07 19 32

0101000
+240 0 *
Ve
1e-07
-3.2 -24 102
0 0

0101101
*
Ed
 1e-07 1 1 0
1  77 0 3 7.99999999999999
3  152 153CN 20 0 3 7.99999999999999
0

0101000
+238 67 -371 67 *
Ed
 1e-07 1 1 0
1  78 0 0 6.28318530717959
2  154 20 38 0 6.28318530717959
2  155 37 62 0 6.28318530717959
0

0101100
+238 0 -238 0 *
Wi

0101100
-370 0 +237 38 +236 0 -237 38 *
Fa
0  1e-07 20 38

0101000
+235 0 *
Ve
1e-07
-1.15 -24 108.5
0 0

0101101
*
Ed
 1e-07 1 1 0
1  79 0 3 7.99999999999999
3  156 157CN 21 0 3 7.99999999999999
0

0101000
+233 68 -368 68 *
Ed
 1e-07 1 1 0
1  80 0 0 6.28318530717959
2  158 21 44 0 6.28318530717959
2  159 37 62 0 6.28318530717959
0

0101100
+233 0 -233 0 *
Wi

0101100
-367 0 +232 44 +231 0 -232 44 *
Fa
0  1e-07 21 44

0101000
+230 0 *
Ve
1e-07
5.35 -24 102
0 0

0101101
*
Ed
 1e-07 1 1 0
1  81 0 3 7.99999999999999
3  160 161CN 22 0 3 7.99999999999999
0

0101000
+228 69 -365 69 *
Ed
 1e-07 1 1 0
1  82 0 0 6.28318530717959
2  162 22 50 0 6.28318530717959
2  163 37 62 0 6.28318530717959
0

0101100
+228 0 -228 0 *
Wi

0101100
-364 0 +227 50 +226 0 -227 50 *
Fa
0  1e-07 22 50

0101000
+225 0 *
Ed
 1e-07 1 1 0
1  83 0 8.00000000000001 12.5
3  164 165CN 23 0 8.00000000000001 12.5
0

0101000
+362 70 -314 70 *
Wi

0101100
-313 0 +223 56 +361 0 -223 56 *
Fa
0  1e-07 23 56

0101000
+222 0 *
Ve
1e-07
-7 -26.68 122
0 0

0101101
*
Ed
 1e-07 1 1 0
1  84 0 2.71468003076007 3.14159265358979
2  166 24 0 2.71468003076007 3.14159265358979
2  167 25 0 2.71468003076007 3.14159265358979
0

0101000
+346 0 -220 0 *
Ed
 1e-07 1 1 0
1  85 0 0 4.5
2  168 24 0 0 4.5
2  169 28 0 0 4.5
4 G1 24 0 28 0
0

0101000
+305 0 -220 0 *
Wi

0101100
-345 0 -219 0 +218 0 +304 0 *
Fa
0  1e-07 24 0

0101000
+217 0 *
Ve
1.00000096644261e-07
-7 -45.6241638963811 124.125880325351
0 0

0101101
*
Ve
1.50000001776357e-07
-7 -43.5 124.125880325351
0 0

0101101
*
Ed
 1e-07 1 1 0
1  86 0 2.37583610361887 4.5
2  170 25 0 2.37583610361887 4.5
2  171 38 0 2.37583610361887 4.5
0

0101000
+215 0 -214 0 *
Ve
1.5e-07
-7 -43.5 137.310708118639
0 0

0101101
*
Ed
 1.5e-07 1 1 0
1  87 0 -15.3107081186386 -2.12588032535058
2  172 25 0 -15.3107081186386 -2.12588032535058
2  173 34 0 -15.3107081186386 -2.12588032535058
0

0101000
+212 0 -214 0 *
Ve
1e-07
-7 -40.32 138
0 0

0101101
*
Ed
 1e-07 1 1 0
1  88 0 5.85627268434986 6.28318530717959
2  174 25 0 5.85627268434986 6.28318530717959
2  175 35 0 5.85627268434986 6.28318530717959
0

0101000
+212 0 -210 0 *
Ve
1e-07
-7 -26.68 138
0 0

0101101
*
Ed
 1e-07 1 1 0
1  89 0 7.68 21.32
2  176 25 0 7.68 21.32
2  177 36 0 7.68 21.32
0

0101000
+210 0 -208 0 *
Ed
 1e-07 1 1 0
1  90 0 5.85627268434986 6.28318530717959
2  178 25 0 5.85627268434986 6.28318530717959
2  179 26 0 5.85627268434986 6.28318530717959
0

0101000
+344 0 -208 0 *
Ve
1e-07
-7 -40.32 122
0 0

0101101
*
Ed
 1e-07 1 1 0
1  91 0 7.68 21.32
2  180 25 0 7.68 21.32
2  181 28 0 7.68 21.32
0

0101000
+205 0 -220 0 *
Ed
 1e-07 1 1 0
1  92 0 2.37921024946208 3.14159265358979
2  182 25 0 2.37921024946208 3.14159265358979
2  183 29 0 2.37921024946208 3.14159265358979
0

0101000
+215 0 -205 0 *
Wi

0101100
-213 0 +211 0 -209 0 -207 0 +206 0 -343 0 -219 0 +204 0 +203 0 *
Fa
0  1e-07 25 0

0101000
+202 0 *
Ed
 1e-07 1 1 0
1  93 0 0 4.5
2  184 26 0 0 4.5
2  185 36 0 0 4.5
4 G1 26 0 36 0
0

0101000
+285 0 -208 0 *
Wi

0101100
-341 0 -206 0 +200 0 +283 0 *
Fa
0  1e-07 26 0

0101000
+199 0 *
Ve
1e-07
-11 -24 102
0 0

0101101
*
Ed
 1e-07 1 1 0
1  94 0 0 0.5
3  186 187CN 27 0 0 0.5
0

0101000
+197 71 -311 71 *
Ed
 1e-07 1 1 0
1  95 0 0 6.28318530717959
2  188 27 0 0 6.28318530717959
2  189 37 0 0 6.28318530717959
0

0101000
+197 71 -197 71 *
Wi

0101100
-310 0 -309 0 +196 62 +195 62 -196 62 *
Fa
0  1e-07 27 62

0101000
+194 0 *
Ed
 1e-07 1 1 0
1  96 0 0 4.5
2  190 28 0 0 4.5
2  191 29 0 0 4.5
4 G1 28 0 29 0
0

0101000
+303 0 -205 0 *
Wi

0101100
-302 0 +192 0 -218 0 +204 0 *
Fa
0  1e-07 28 0

0101000
+191 0 *
Ve
1.5e-07
-10.9870205492313 -48 129.68
0 0

0101101
*
Ed
 1.5e-07 1 1 0
1  97 0 0 0.512979450768745
2  192 29 0 0 0.512979450768745
2  193 30 0 0 0.512979450768745
0

0101000
+301 0 -189 0 *
Ed
 1e-07 1 1 0
1  98 0 0 0.999999870167486
2  194 29 0 0 0.999999870167486
2  195 38 0 0 0.999999870167486
0

0101000
+189 0 -215 0 *
Wi

0101100
-188 0 -187 0 -203 0 +192 0 +300 0 *
Fa
0  1e-07 29 0

0101000
+186 0 *
Ve
1.5e-07
-11.1685331700285 -48 130.32
0 0

0101101
*
Ed
 1.5e-07 1 1 0
1  99 0 0 0.331466829971493
2  196 30 0 0 0.331466829971493
2  197 31 0 0 0.331466829971493
0

0101000
+299 0 -184 0 *
Ve
1.5e-07
-0.500000000000002 -48 122
0 0

0101101
*
Ed
 1.5e-07 1 1 0
1  100 0 1.8773955259594 3.14159265358979
2  198 30 0 1.8773955259594 3.14159265358979
2  199 38 0 1.8773955259594 3.14159265358979
0

0101000
+189 0 -182 0 *
Ve
1.5e-07
0.500000000000002 -48 122
0 0

0101101
*
Ed
 1.5e-07 1 1 0
1  101 0 11 12
2  200 30 0 11 12
2  201 39 0 11 12
0

0101000
+182 0 -180 0 *
Ve
1.5e-07
11.5 -48 133
0 0

0101101
*
Ed
 1.5e-07 1 1 0
1  102 0 1.5707963267949 3.14159265358979
2  202 30 0 1.5707963267949 3.14159265358979
2  203 40 0 1.5707963267949 3.14159265358979
0

0101000
+178 0 -180 0 *
Ve
1.5e-07
11.5 -48 160
0 0

0101101
*
Ed
 1.5e-07 1 1 0
1  103 0 11 38
2  204 30 0 11 38
2  205 41 0 11 38
0

0101000
+178 0 -176 0 *
Ve
1.5e-07
0.500000000000002 -48 171
0 0

0101101
*
Ed
 1.5e-07 1 1 0
1  104 0 4.71238898038469 6.28318530717959
2  206 30 0 4.71238898038469 6.28318530717959
2  207 42 0 4.71238898038469 6.28318530717959
0

0101000
+176 0 -174 0 *
Ve
1.5e-07
-0.500000000000002 -48 171
0 0

0101101
*
Ed
 1.5e-07 1 1 0
1  105 0 11 12
2  208 30 0 11 12
2  209 43 0 11 12
0

0101000
+172 0 -174 0 *
Ed
 1.5e-07 1 1 0
1  106 0 4.71238898038469 6.28318530717959
2  210 30 0 4.71238898038469 6.28318530717959
2  211 33 0 4.71238898038469 6.28318530717959
0

0101000
+293 0 -172 0 *
Ed
 1.5e-07 1 1 0
1  107 0 1.5707963267949 1.81690976650857
2  212 30 0 1.5707963267949 1.81690976650857
2  213 32 0 1.5707963267949 1.81690976650857
0

0101000
+295 0 -184 0 *
Wi

0101100
-183 0 -298 0 +188 0 +181 0 +179 0 -177 0 +175 0 +173 0 -171 0 -170 0 
-292 0 +169 0 *
Fa
0  1.5e-07 30 0

0101000
+168 0 *
Ed
 1e-07 1 1 0
1  108 0 0 1
2  214 31 0 0 1
2  215 32 0 0 1
0

0101000
+184 0 -297 0 *
Wi

0101100
-183 0 -166 0 +296 0 *
Fa
0  1e-07 31 0

0101000
+165 0 *
Wi

0101100
-294 0 +166 0 +169 0 *
Fa
0  1e-07 32 0

0101000
+163 0 *
Ve
1e-07
-0.500000000000002 -43.5 171
0 0

0101101
*
Ed
 1e-07 1 1 0
1  109 0 0 4.5
2  216 33 0 0 4.5
2  217 43 0 0 4.5
4 G1 33 0 43 0
0

0101000
+172 0 -161 0 *
Ed
 1e-07 1 1 0
1  110 0 4.71238898038469 6.28318530717959
2  218 33 0 4.71238898038469 6.28318530717959
2  219 34 0 4.71238898038469 6.28318530717959
0

0101000
+291 0 -161 0 *
Wi

0101100
+170 0 -290 0 +160 0 -159 0 *
Fa
0  1e-07 33 0

0101000
+158 0 *
Ve
1e-07
-0.500000000000002 -43.5 122
0 0

0101101
*
Ve
1e-07
0.500000000000002 -43.5 122
0 0

0101101
*
Ed
 1e-07 1 1 0
1  111 0 11 12
2  220 34 0 11 12
2  221 39 0 11 12
0

0101000
+156 0 -155 0 *
Ve
1e-07
11.5 -43.5 133
0 0

0101101
*
Ed
 1e-07 1 1 0
1  112 0 1.5707963267949 3.14159265358979
2  222 34 0 1.5707963267949 3.14159265358979
2  223 40 0 1.5707963267949 3.14159265358979
0

0101000
+153 0 -155 0 *
Ve
1e-07
11.5 -43.5 160
0 0

0101101
*
Ed
 1e-07 1 1 0
1  113 0 11 38
2  224 34 0 11 38
2  225 41 0 11 38
0

0101000
+153 0 -151 0 *
Ve
1e-07
0.500000000000002 -43.5 171
0 0

0101101
*
Ed
 1e-07 1 1 0
1  114 0 4.71238898038469 6.28318530717959
2  226 34 0 4.71238898038469 6.28318530717959
2  227 42 0 4.71238898038469 6.28318530717959
0

0101000
+151 0 -149 0 *
Ed
 1e-07 1 1 0
1  115 0 11 12
2  228 34 0 11 12
2  229 43 0 11 12
0

0101000
+161 0 -149 0 *
Ed
 1e-07 1 1 0
1  116 0 0 4.5
2  230 34 0 0 4.5
2  231 35 0 0 4.5
0

0101000
+289 0 -212 0 *
Ed
 1e-07 1 1 0
1  117 0 2.50940740490905 3.14159265358979
2  232 34 0 2.50940740490905 3.14159265358979
2  233 38 0 2.50940740490905 3.14159265358979
0

0101000
+214 0 -156 0 *
Wi

0101100
-154 0 +152 0 -150 0 -148 0 +147 0 +159 0 +288 0 -146 0 -211 0 -145 0 
*
Fa
0  1e-07 34 0

0101000
+144 0 *
Ed
 1e-07 1 1 0
1  118 0 0 4.5
2  234 35 0 0 4.5
2  235 36 0 0 4.5
4 G1 35 0 36 0
0

0101000
+287 0 -210 0 *
Wi

0101100
-146 0 -209 0 +142 0 +286 0 *
Fa
0  1e-07 35 0

0101000
+141 0 *
Wi

0101100
-284 0 +142 0 -200 0 +207 0 *
Fa
0  1e-07 36 0

0101000
+139 0 *
Wi

0101100
+195 62 *
Wi

0101100
-241 0 *
Wi

0101100
-226 0 *
Wi

0101100
-236 0 *
Wi

0101100
-261 0 *
Wi

0101100
-231 0 *
Fa
0  1e-07 37 62

0101000
+137 0 +136 0 +135 0 +134 0 +133 0 +132 0 *
Ed
 1e-07 1 1 0
1  119 0 0 4.5
2  236 38 0 0 4.5
2  237 39 0 0 4.5
4 G1 38 0 39 0
0

0101000
+182 0 -156 0 *
Wi

0101100
-187 0 -213 0 -145 0 +130 0 +181 0 *
Fa
0  1e-07 38 0

0101000
+129 0 *
Ed
 1e-07 1 1 0
1  120 0 0 4.5
2  238 39 0 0 4.5
2  239 40 0 0 4.5
4 G1 39 0 40 0
0

0101000
+180 0 -155 0 *
Wi

0101100
-154 0 -130 0 +127 0 +179 0 *
Fa
0  1e-07 39 0

0101000
+126 0 *
Ed
 1e-07 1 1 0
1  121 0 -0 4.5
2  240 40 0 -0 4.5
2  241 41 0 -0 4.5
4 G1 40 0 41 0
0

0101000
+178 0 -153 0 *
Wi

0101100
+177 0 -124 0 +127 0 -152 0 *
Fa
0  1e-07 40 0

0101000
+123 0 *
Ed
 1e-07 1 1 0
1  122 0 -0 4.5
2  242 41 0 -0 4.5
2  243 42 0 -0 4.5
4 G1 41 0 42 0
0

0101000
+176 0 -151 0 *
Wi

0101100
-175 0 +124 0 -121 0 +150 0 *
Fa
0  1e-07 41 0

0101000
+120 0 *
Ed
 1e-07 1 1 0
1  123 0 0 4.5
2  244 42 0 0 4.5
2  245 43 0 0 4.5
4 G1 42 0 43 0
0

0101000
+174 0 -149 0 *
Wi

0101100
+173 0 -121 0 +118 0 -148 0 *
Fa
0  1e-07 42 0

0101000
+117 0 *
Wi

0101100
-147 0 -160 0 +118 0 +171 0 *
Fa
0  1e-07 43 0

0101000
+115 0 *
Sh

0101100
-408 0 +359 0 -354 0 +349 0 +307 0 +281 0 +278 0 +275 0 +272 0 +269 7 
-266 7 +264 0 -259 0 -256 0 -252 0 -249 0 +246 0 +244 0 -239 0 -234 0 
-229 0 -224 0 -221 0 -216 0 +201 0 +198 0 +193 0 -190 0 +185 0 +167 0 
-164 0 -162 0 +157 0 +143 0 -140 0 +138 0 -131 0 -128 0 -125 0 +122 0 
+119 0 -116 0 +114 0 *
So

0100000
+113 0 *
Ve
1e-07
6 -7.5 166.2
0 0

0101101
*
Ve
1.5e-07
6 -23.5 166.2
0 0

0101101
*
Ed
 1e-07 1 1 0
1  124 0 0 16
2  246 44 0 0 16
2  247 45 0 0 16
0

0101000
+111 78 -110 78 *
Ve
1.5e-07
6 -23.5 153.8
0 0

0101101
*
Ed
 1.5e-07 1 1 0
1  125 0 -12.4 0
2  248 44 0 -12.4 0
2  249 46 0 -12.4 0
0

0101000
+108 78 -110 78 *
Ve
1e-07
6 -7.5 153.8
0 0

0101101
*
Ed
 1e-07 1 1 0
1  126 0 0 16
2  250 44 0 0 16
2  251 47 0 0 16
0

0101000
+106 78 -108 78 *
Ed
 1e-07 1 1 0
1  127 0 0 12.4
2  252 44 0 0 12.4
2  253 48 0 0 12.4
0

0101000
-106 78 +111 78 *
Wi

0101100
-109 0 +107 0 +105 0 +104 0 *
Fa
0  1e-07 44 0

0101000
+103 0 *
Ve
1e-07
10.7 -23.5 153.8
0 0

0101101
*
Ed
 1e-07 1 1 0
1  128 0 0 4.7
2  254 46 0 0 4.7
2  255 47 0 0 4.7
0

0101000
+101 78 -108 78 *
Ve
1e-07
10.7 -23.5 166.2
0 0

0101101
*
Ed
 1e-07 1 1 0
1  129 0 0 4.7
2  256 46 0 0 4.7
2  257 45 0 0 4.7
0

0101000
+99 78 -110 78 *
Ed
 1e-07 1 1 0
1  130 0 0 12.4
2  258 46 0 0 12.4
2  259 49 0 0 12.4
0

0101000
-101 78 +99 78 *
Wi

0101100
-100 0 -107 0 +98 0 -97 0 *
Fa
0  1e-07 46 0

0101000
+96 0 *
Ve
1e-07
-17 -7.5 153.8
0 0

0101101
*
Ed
 1e-07 1 1 0
1  131 0 0 23
2  260 48 0 0 23
2  261 47 0 0 23
0

0101000
-94 78 +106 78 *
Ve
1e-07
-17 -7.5 166.2
0 0

0101101
*
Ed
 1e-07 1 1 0
1  132 0 0 12.4
2  262 48 0 0 12.4
2  263 50 0 0 12.4
0

0101000
-94 78 +92 78 *
Ed
 1e-07 1 1 0
1  133 0 0 23
2  264 48 0 0 23
2  265 45 0 0 23
0

0101000
-92 78 +111 78 *
Wi

0101100
-104 0 -93 0 +91 0 +90 0 *
Fa
0  1e-07 48 0

0111000
+89 0 *
Ve
1.5e-07
-17 -23.5 166.2
0 0

0101101
*
Ed
 1e-07 1 1 0
1  134 0 0 16
2  266 50 0 0 16
2  267 45 0 0 16
0

0101000
+92 78 -87 78 *
Ve
1.5e-07
-17 -23.5 153.8
0 0

0101101
*
Ed
 1.5e-07 1 1 0
1  135 0 -12.4 0
2  268 50 0 -12.4 0
2  269 51 0 -12.4 0
0

0101000
+85 78 -87 78 *
Ed
 1e-07 1 1 0
1  136 0 0 16
2  270 50 0 0 16
2  271 47 0 0 16
0

0101000
+94 78 -85 78 *
Wi

0101100
-86 0 +84 0 +83 0 +91 0 *
Fa
0  1e-07 50 0

0101000
+82 0 *
Ve
1e-07
10.7 -26 166.2
0 0

0101101
*
Ed
 1e-07 1 1 0
1  137 0 0 2.5
2  272 49 0 0 2.5
2  273 45 0 0 2.5
0

0101000
-80 78 +99 78 *
Ve
1e-07
10.7 -26 153.8
0 0

0101101
*
Ed
 1e-07 1 1 0
1  138 0 0 12.4
2  274 49 0 0 12.4
2  275 52 0 0 12.4
0

0101000
-78 78 +80 78 *
Ed
 1e-07 1 1 0
1  139 0 0 2.5
2  276 49 0 0 2.5
2  277 47 0 0 2.5
0

0101000
-78 78 +101 78 *
Wi

0101100
-79 0 -77 0 +76 0 +97 0 *
Fa
0  1e-07 49 0

0111000
+75 0 *
Ve
1e-07
-21.7 -23.5 153.8
0 0

0101101
*
Ed
 1e-07 1 1 0
1  140 0 27.7 32.4
2  278 51 0 27.7 32.4
2  279 47 0 27.7 32.4
0

0101000
+85 78 -73 78 *
Ve
1e-07
-21.7 -23.5 166.2
0 0

0101101
*
Ed
 1e-07 1 1 0
1  141 0 0 12.4
2  280 51 0 0 12.4
2  281 53 0 0 12.4
0

0101000
-73 78 +71 78 *
Ed
 1e-07 1 1 0
1  142 0 27.7 32.4
2  282 51 0 27.7 32.4
2  283 45 0 27.7 32.4
0

0101000
+87 78 -71 78 *
Wi

0101100
-72 0 +70 0 +69 0 +84 0 *
Fa
0  1e-07 51 0

0101000
+68 0 *
Ve
1.5e-07
6 -26 153.8
0 0

0101101
*
Ed
 1e-07 1 1 0
1  143 0 0 4.7
2  284 52 0 0 4.7
2  285 47 0 0 4.7
0

0101000
+78 78 -66 78 *
Ve
1.5e-07
6 -26 166.2
0 0

0101101
*
Ed
 1.5e-07 1 1 0
1  144 0 -12.4 0
2  286 52 0 -12.4 0
2  287 54 0 -12.4 0
0

0101000
+66 78 -64 78 *
Ed
 1e-07 1 1 0
1  145 0 0 4.7
2  288 52 0 0 4.7
2  289 45 0 0 4.7
0

0101000
+80 78 -64 78 *
Wi

0101100
-65 0 -63 0 +62 0 -77 0 *
Fa
0  1e-07 52 0

0101000
+61 0 *
Ve
1e-07
-21.7 -26 166.2
0 0

0101101
*
Ed
 1e-07 1 1 0
1  146 0 0 2.5
2  290 53 0 0 2.5
2  291 45 0 0 2.5
0

0101000
-59 78 +71 78 *
Ve
1e-07
-21.7 -26 153.8
0 0

0101101
*
Ed
 1e-07 1 1 0
1  147 0 0 12.4
2  292 53 0 0 12.4
2  293 55 0 0 12.4
0

0101000
-57 78 +59 78 *
Ed
 1e-07 1 1 0
1  148 0 0 2.5
2  294 53 0 0 2.5
2  295 47 0 0 2.5
0

0101000
-57 78 +73 78 *
Wi

0101100
-58 0 -56 0 +55 0 +70 0 *
Fa
0  1e-07 53 0

0111000
+54 0 *
Ve
1.5e-07
-17 -26 153.8
0 0

0101101
*
Ed
 1e-07 1 1 0
1  149 0 27.7 32.4
2  296 55 0 27.7 32.4
2  297 47 0 27.7 32.4
0

0101000
+52 78 -57 78 *
Ve
1.5e-07
-17 -26 166.2
0 0

0101101
*
Ed
 1e-07 1 1 0
1  150 0 27.7 32.4
2  298 55 0 27.7 32.4
2  299 45 0 27.7 32.4
0

0101000
+50 78 -59 78 *
Ed
 1.5e-07 1 1 0
1  151 0 -12.4 0
2  300 55 0 -12.4 0
2  301 56 0 -12.4 0
0

0101000
+52 78 -50 78 *
Wi

0101100
-51 0 +56 0 +49 0 +48 0 *
Fa
0  1e-07 55 0

0101000
+47 0 *
Ve
1e-07
-17 -30 166.2
0 0

0101101
*
Ed
 1e-07 1 1 0
1  152 0 18.5 22.5
2  302 56 0 18.5 22.5
2  303 45 0 18.5 22.5
0

0101000
+50 78 -45 78 *
Ve
1e-07
-17 -30 153.8
0 0

0101101
*
Ed
 1e-07 1 1 0
1  153 0 0 12.4
2  304 56 0 0 12.4
2  305 57 0 0 12.4
0

0101000
-43 78 +45 78 *
Ed
 1e-07 1 1 0
1  154 0 18.5 22.5
2  306 56 0 18.5 22.5
2  307 47 0 18.5 22.5
0

0101000
+52 78 -43 78 *
Wi

0101100
-44 0 -42 0 +41 0 -48 0 *
Fa
0  1e-07 56 0

0101000
+40 0 *
Ve
1e-07
6 -30 153.8
0 0

0101101
*
Ve
1e-07
6 -30 166.2
0 0

0101101
*
Ed
 1e-07 1 1 0
1  155 0 0 12.4
2  308 57 0 0 12.4
2  309 54 0 0 12.4
0

0101000
-38 78 +37 78 *
Ed
 1e-07 1 1 0
1  156 0 0 23
2  310 57 0 0 23
2  311 47 0 0 23
0

0101000
-43 78 +38 78 *
Ed
 1e-07 1 1 0
1  157 0 0 23
2  312 57 0 0 23
2  313 45 0 0 23
0

0101000
-45 78 +37 78 *
Wi

0101100
-36 0 -35 0 +34 0 +42 0 *
Ve
1e-07
-5.9 -30 160
0 0

0101101
*
Ed
 1e-07 1 1 0
1  158 0 0 6.28318530717959
2  314 57 0 0 6.28318530717959
2  315 58 0 0 6.28318530717959
0

0101000
+32 78 -32 78 *
Wi

0101100
-31 0 *
Fa
0  1e-07 57 0

0101000
+33 0 +30 0 *
Ed
 1e-07 1 1 0
1  159 0 18.5 22.5
2  316 54 0 18.5 22.5
2  317 45 0 18.5 22.5
0

0101000
+64 78 -37 78 *
Ed
 1e-07 1 1 0
1  160 0 18.5 22.5
2  318 54 0 18.5 22.5
2  319 47 0 18.5 22.5
0

0101000
+66 78 -38 78 *
Wi

0101100
-28 0 -36 0 +27 0 -63 0 *
Fa
0  1e-07 54 0

0101000
+26 0 *
Ve
1e-07
-5.9 -34 160
0 0

0101101
*
Ed
 1e-07 1 1 0
1  161 0 0 6.28318530717959
2  320 58 0 0 6.28318530717959
2  321 59 0 0 6.28318530717959
0

0101000
+24 78 -24 78 *
Ed
 1e-07 1 1 0
1  162 0 0 4
3  322 323CN 58 0 0 4
0

0101000
+32 78 -24 78 *
Wi

0101100
-23 0 +22 0 +31 0 -22 0 *
Fa
0  1e-07 58 0

0101000
+21 0 *
Ve
1e-07
-9 -34 160
0 0

0101101
*
Ed
 1e-07 1 1 0
1  163 0 0 6.28318530717959
2  324 59 0 0 6.28318530717959
2  325 60 0 0 6.28318530717959
0

0101000
+19 78 -19 78 *
Wi

0101100
+18 0 *
Wi

0101100
-23 0 *
Fa
0  1e-07 59 0

0101000
+17 0 +16 0 *
Ve
1e-07
-9 -36 160
0 0

0101101
*
Ed
 1e-07 1 1 0
1  164 0 0 6.28318530717959
2  326 60 0 0 6.28318530717959
2  327 61 0 0 6.28318530717959
0

0101000
+14 78 -14 78 *
Ed
 1e-07 1 1 0
1  165 0 0 2
3  328 329CN 60 0 0 2
0

0101000
-14 78 +19 78 *
Wi

0101100
-13 0 +12 0 +18 0 -12 0 *
Fa
0  1e-07 60 0

0111000
+11 0 *
Wi

0101100
+13 0 *
Fa
0  1e-07 61 0

0111000
+9 0 *
Wi

0101100
+86 0 +69 0 +58 0 -49 0 +44 0 -34 0 -28 0 -62 0 -79 0 +98 0 
-109 0 +90 0 *
Fa
0  1e-07 45 0

0101000
+7 0 *
Wi

0101100
-83 0 -93 0 +105 0 -100 0 +76 0 +65 0 +27 0 +35 0 -41 0 +51 0 
-55 0 -72 0 *
Fa
0  1e-07 47 0

0101000
+5 0 *
Sh

0101100
-102 0 -95 0 -88 0 +81 0 -74 0 -67 0 +60 0 +53 0 +46 0 +39 0 
+29 0 -25 0 +20 0 -15 0 +10 0 +8 0 +6 0 +4 0 *
So

0100000
+3 0 *
Co

1100000
+112 0 +2 77 *

+1 1 