DBRep_DrawableShape

CASCADE Topology V1, (c) Matra-Datavision
Locations 78
1
              1               0               0              -0 
              0               1               0              30 
              0               0               1            -114 
1
             -1 -1.22464679914735e-16               0               0 
1.22464679914735e-16              -1               0               0 
              0               0               1               0 
1
              1               0               0               0 
              0               1               0               0 
              0               0               1               0 
1
              1               0               0               0 
              0 1.11022302462516e-16              -1               0 
              0               1 1.11022302462516e-16               0 
1
              1               0               0               0 
              0               1               0               0 
              0               0               1               0 
1
              1               0               0               0 
              0               1               0             -30 
              0               0               1             138 
2  2 1 3 1 4 1 5 1 6 1 0
2  6 -1 5 -1 4 -1 3 -1 2 -1 0
1
             -1 -1.22464679914735e-16               0               0 
1.22464679914735e-16              -1               0               0 
              0               0               1               0 
1
              1               0               0               0 
              0               1               0               0 
              0               0               1               0 
1
              1               0               0               0 
              0 1.11022302462516e-16               1               0 
              0              -1 1.11022302462516e-16               0 
1
              1               0               0               0 
              0               1               0               0 
              0               0               1               0 
1
              1               0               0               0 
              0               1               0             -30 
              0               0               1              90 
2  9 1 10 1 11 1 12 1 13 1 0
1
             -1 -1.22464679914735e-16               0               0 
1.22464679914735e-16              -1               0               0 
              0               0               1               0 
1
              1               0               0               0 
              0               1               0               0 
              0               0               1               0 
1
              1               0               0               0 
              0 1.11022302462516e-16              -1               0 
              0               1 1.11022302462516e-16               0 
1
              1               0               0               0 
              0               1               0               0 
              0               0               1               0 
1
              1               0               0               0 
              0               1               0             -30 
              0               0               1             138 
2  15 1 16 1 17 1 18 1 19 1 0
1
             -1 -1.22464679914735e-16               0               0 
1.22464679914735e-16              -1               0               0 
              0               0               1               0 
1
              1               0               0               0 
              0               1               0               0 
              0               0               1               0 
1
              1               0               0               0 
              0 1.11022302462516e-16              -1               0 
              0               1 1.11022302462516e-16               0 
1
              1               0               0               0 
              0               1               0               0 
              0               0               1               0 
1
              1               0               0               0 
              0               1               0             -30 
              0               0               1             138 
2  21 1 22 1 23 1 24 1 25 1 0
1
             -1 -1.22464679914735e-16               0               0 
1.22464679914735e-16              -1               0               0 
              0               0               1               0 
1
              1               0               0               0 
              0               1               0               0 
              0               0               1               0 
1
              1               0               0               0 
              0 1.11022302462516e-16               1               0 
              0              -1 1.11022302462516e-16               0 
1
              1               0               0               0 
              0               1               0               0 
              0               0               1               0 
1
              1               0               0               0 
              0               1               0             -30 
              0               0               1              90 
2  27 1 28 1 29 1 30 1 31 1 0
1
             -1 -1.22464679914735e-16               0               0 
1.22464679914735e-16              -1               0               0 
              0               0               1               0 
1
              1               0               0               0 
              0               1               0               0 
              0               0               1               0 
1
              1               0               0               0 
              0 1.11022302462516e-16               1               0 
              0              -1 1.11022302462516e-16               0 
1
              1               0               0               0 
              0               1               0               0 
              0               0               1               0 
1
              1               0               0               0 
              0               1               0             -30 
              0               0               1              90 
2  33 1 34 1 35 1 36 1 37 1 0
1
             -1 -1.22464679914735e-16               0               0 
1.22464679914735e-16              -1               0               0 
              0               0               1               0 
1
              1               0               0               0 
              0               1               0               0 
              0               0               1               0 
1
              1               0               0               0 
              0 1.11022302462516e-16               1               0 
              0              -1 1.11022302462516e-16               0 
1
              1               0               0               0 
              0               1               0               0 
              0               0               1               0 
1
              1               0               0               0 
              0               1               0             -30 
              0               0               1              90 
2  39 1 40 1 41 1 42 1 43 1 0
1
             -1 -1.22464679914735e-16               0               0 
1.22464679914735e-16              -1               0               0 
              0               0               1               0 
1
              1               0               0               0 
              0               1               0               0 
              0               0               1               0 
1
              1               0               0               0 
              0 1.11022302462516e-16               1               0 
              0              -1 1.11022302462516e-16               0 
1
              1               0               0               0 
              0               1               0               0 
              0               0               1               0 
1
              1               0               0               0 
              0               1               0             -30 
              0               0               1              90 
2  45 1 46 1 47 1 48 1 49 1 0
1
             -1 -1.22464679914735e-16               0               0 
1.22464679914735e-16              -1               0               0 
              0               0               1               0 
1
              1               0               0               0 
              0               1               0               0 
              0               0               1               0 
1
              1               0               0               0 
              0 1.11022302462516e-16              -1               0 
              0               1 1.11022302462516e-16               0 
1
              1               0               0               0 
              0               1               0               0 
              0               0               1               0 
1
              1               0               0               0 
              0               1               0             -30 
              0               0               1             138 
2  51 1 52 1 53 1 54 1 55 1 0
1
             -1 -1.22464679914735e-16               0               0 
1.22464679914735e-16              -1               0               0 
              0               0               1               0 
1
              1               0               0               0 
              0               1               0               0 
              0               0               1               0 
1
              1               0               0               0 
              0 1.11022302462516e-16               1               0 
              0              -1 1.11022302462516e-16               0 
1
              1               0               0               0 
              0               1               0               0 
              0               0               1               0 
1
              1               0               0               0 
              0               1               0             -30 
              0               0               1              90 
2  57 1 58 1 59 1 60 1 61 1 0
2  13 -1 12 -1 11 -1 10 -1 9 -1 0
2  19 -1 18 -1 17 -1 16 -1 15 -1 0
2  25 -1 24 -1 23 -1 22 -1 21 -1 0
2  31 -1 30 -1 29 -1 28 -1 27 -1 0
2  37 -1 36 -1 35 -1 34 -1 33 -1 0
2  43 -1 42 -1 41 -1 40 -1 39 -1 0
2  49 -1 48 -1 47 -1 46 -1 45 -1 0
2  55 -1 54 -1 53 -1 52 -1 51 -1 0
2  61 -1 60 -1 59 -1 58 -1 57 -1 0
1
             -1 -1.22464679914735e-16               0               0 
1.22464679914735e-16              -1               0               0 
              0               0               1               0 
1
              1               0               0               0 
              0               1               0               0 
              0               0               1               0 
1
              1               0               0               0 
              0 1.11022302462516e-16              -1               0 
              0               1 1.11022302462516e-16               0 
1
              1               0               0               0 
              0               1               0               0 
              0               0               1               0 
1
              1               0               0               0 
              0               1               0             -30 
              0               0               1             138 
2  72 1 73 1 74 1 75 1 76 1 0
2  76 -1 75 -1 74 -1 73 -1 72 -1 0
Curve2ds 338
1 0 4.5 1 0 
1 -39.586290447162625 -8.3818497583695315 0 1 
1 10.999999999999998 0 0 1 
1 1.5707963267948966 0 0 1 
1 12.000000000000002 0 0 1 
1 1.5707963267948966 0 0 1 
1 0 0 1 0 
1 39.124138881929326 -7.9129087979604211 0 1 
1 0 0 1 0 
1 39.124138881929326 -7.9129087979604211 0 1 
8 0.050000000000000711 3.0000005999999999
1 11.5 -0.5 0 1 
2 -28.586290447162625 2.6181502416304667 1 0 0 -1 11
1 -1.5707963267948966 4.5 1 0 
2 -28.586290447162625 3.6181502416304694 1 0 -0 1 11
1 -1.5707963267948966 4.5 1 0 
1 -39.586290447162625 -8.3818497583695315 1 0 
1 31.041349809885915 -6.7644423320659008 -1 0 
1 -39.586290447162625 14.618150241630468 1 0 
1 0 -4.5 1 0 
1 8.4137095528373749 14.818150241630466 1.2246467991473532e-16 -1 
1 0 0 0 1 
1 8.4137095528373749 14.818150241630466 1.2246467991473532e-16 -1 
1 0 0 0 1 
1 30.413709552837375 -19.581849758369533 -1 -1.2246467991473532e-16 
1 0 0 0 -1 
1 30.413709552837375 14.81815024163047 -1 -1.2246467991473532e-16 
1 0 0 0 -1 
1 30.413709552837375 14.81815024163047 1.2246467991473532e-16 -1 
1 17.200000000000003 2.25 -1 1.3596310734468911e-32 
2 -28.586290447162625 -3.3818497583695319 -1.2246467991473532e-16 -1 1 -1.2246467991473532e-16 1.1499999999999999
1 6.679274664138223e-65 7.9999999999999929 1 0 
2 19.413709552837375 -16.381849758369533 1.2246467991473532e-16 -1 -1 -1.2246467991473532e-16 1.1499999999999999
1 6.679274664138223e-65 8.0000000000000071 1 0 
8 -4.9590751208152328 19.640924879184769
1 12.413709552837375 4.9590751208152337 1.2246467991473532e-16 -1 
8 -4.9590751208152328 19.640924879184769
1 12.500000000000007 4.9590751208152328 1.3596310734468911e-32 1 
8 -0.79314522358131789 13.206854776418682
1 13.206854776418695 -14.681849758369536 1 1.2246467991473532e-16 
8 -0.79314522358131789 13.206854776418682
1 12.500000000000005 -13.206854776418682 1.1102230246251565e-16 1 
8 -4.9590751208152328 19.640924879184769
1 26.413709552837375 4.9590751208152355 1.2246467991473532e-16 -1 
8 -4.9590751208152328 19.640924879184769
1 12.500000000000007 4.9590751208152328 1.3596310734468911e-32 1 
8 -0.79314522358131789 13.206854776418682
1 13.206854776418695 9.9181502416304674 1 1.2246467991473532e-16 
8 -0.79314522358131789 13.206854776418682
1 12.500000000000005 -13.206854776418682 1.1102230246251565e-16 1 
2 -35.086290447162625 3.1181502416304689 -1.2246467991473532e-16 -1 1 -1.2246467991473532e-16 1.1499999999999999
1 6.679274664138223e-65 7.9999999999999929 1 0 
2 -28.586290447162625 3.1181502416304681 -1.2246467991473532e-16 -1 1 -1.2246467991473532e-16 3.2000000000000002
1 6.679274664138223e-65 7.9999999999999929 1 0 
2 -22.086290447162625 3.1181502416304672 -1.2246467991473532e-16 -1 1 -1.2246467991473532e-16 1.1499999999999999
1 6.679274664138223e-65 7.9999999999999929 1 0 
2 -28.586290447162625 9.6181502416304685 -1.2246467991473532e-16 -1 1 -1.2246467991473532e-16 1.1499999999999999
1 6.679274664138223e-65 7.9999999999999929 1 0 
2 19.413709552837375 11.618150241630468 1.2246467991473532e-16 -1 -1 -1.2246467991473532e-16 1.1499999999999999
1 6.679274664138223e-65 8.0000000000000071 1 0 
1 -1.5707963267948966 0 1 0 
2 28.124138881929326 3.0870912020395771 -1 0 -0 -1 11
1 0 0 0 1 
1 20.041349809885915 -2.2644423320659008 0 -1 
1 -1.5707963267948966 0 1 0 
2 28.124138881929326 4.0870912020395798 -1 0 0 1 11
1 0 0 0 1 
1 11 0 0 -1 
1 39.124138881929326 -7.9129087979604211 -1 0 
1 31.041349809885915 -2.2644423320659008 -1 0 
2 5.2441388819293309 -5.0329087979604221 0 -1 -1 -0 2.879999999999999
1 6.2831853071795862 24.5 -1 0 
1 8.1241388819293263 -7.9129087979604211 0 1 
8 2.879999999999999 4.5
1 0 24.5 1 0 
1 23.624138881929326 -3.4129087979604216 1 0 
8 -21.500000000000004 -15.499999999999996
1 -15.5 -24.5 -1 -0 
1 2.1241388819293263 -7.9129087979604211 0 1 
8 2.879999999999999 4.5
1 0 24.5 1 0 
2 5.0041388819293218 -5.0329087979604221 0 -1 -1 -0 2.879999999999999
1 0 24.5 1 0 
1 39.124138881929326 -7.9129087979604211 -1 0 
1 31.041349809885915 -2.2644423320659008 -1 0 
1 -8.8758611180706737 15.287091202039576 -1.2246467991473532e-16 -1 
1 4.5 0 0 1 
1 -30.875861118070674 -19.112908797960422 1 -1.2246467991473532e-16 
1 4.5 0 0 -1 
1 -30.875861118070674 15.28709120203958 -1.2246467991473532e-16 -1 
1 17.200000000000003 -2.25 -1 1.3596310734468911e-32 
1 -30.875861118070674 15.28709120203958 1 -1.2246467991473532e-16 
1 4.5 0 0 -1 
1 -8.8758611180706737 15.287091202039576 -1.2246467991473532e-16 -1 
1 4.5 0 0 1 
1 39.124138881929326 15.087091202039579 -1 0 
1 0 0 1 0 
2 -19.875861118070674 -15.912908797960421 -1.2246467991473532e-16 -1 1 -1.2246467991473532e-16 1.1499999999999999
1 6.679274664138223e-65 12.500000000000014 1 0 
8 -19.406454398980213 5.193545601019788
1 -26.875861118070674 5.1935456010197907 1.2246467991473532e-16 1 
8 -19.406454398980213 5.193545601019788
1 17.000000000000014 5.193545601019788 -1.3596310734468911e-32 -1 
8 -13.437930559035353 0.56206944096464717
1 -13.437930559035323 -14.212908797960425 1 -1.2246467991473532e-16 
8 -13.437930559035353 0.56206944096464717
1 17.000000000000014 -13.437930559035353 -1.1102230246251565e-16 -1 
8 -19.406454398980213 5.193545601019788
1 -12.875861118070674 5.1935456010197898 1.2246467991473532e-16 1 
8 -19.406454398980213 5.193545601019788
1 17.000000000000014 5.193545601019788 -1.3596310734468911e-32 -1 
8 -13.437930559035353 0.56206944096464717
1 -13.437930559035323 10.387091202039578 1 -1.2246467991473532e-16 
8 -13.437930559035353 0.56206944096464717
1 17.000000000000014 -13.437930559035353 -1.1102230246251565e-16 -1 
2 -19.875861118070674 12.087091202039579 -1.2246467991473532e-16 -1 1 -1.2246467991473532e-16 1.1499999999999999
1 6.679274664138223e-65 12.500000000000014 1 0 
2 28.124138881929326 3.5870912020395784 1.2246467991473532e-16 -1 -1 -1.2246467991473532e-16 11
1 6.679274664138223e-65 0.5 1 0 
2 28.124138881929326 3.5870912020395784 1.2246467991473532e-16 -1 -1 -1.2246467991473532e-16 11
1 6.679274664138223e-65 0.5 1 0 
1 -2.8386501901140804 22.235557667934099 0 -1 
1 0 0 0 1 
1 0.041349809885915079 19.355557667934097 -1 0 
1 0 0 0 1 
1 -3.0786501901140895 22.235557667934099 0 -1 
1 0 0 0 1 
1 -16.958650190114085 -4.5144423320659044 1.1102230246251565e-16 -1 
8 -2.2500000000000036 2.2499999999999964
1 2.2499999999999964 23.199999999999996 -1 0 
8 -2.2500000000000036 2.2499999999999964
1 48 -2.2500000000000036 -1.1102230246251565e-16 -1 
8 -2.2500000000000036 2.2499999999999964
1 2.2499999999999964 0.19999999999999751 -1 0 
1 0 34.399999999999999 1 0 
1 0 -22 1 0 
1 0 0 1 0 
1 0 -22 1 0 
1 0 0 1 0 
1 -17.199999999999999 2.25 0 -1 
1 0 0 1 0 
1 17.200000000000003 2.25 0 -1 
1 6.2831853071795862 -0 0 1 
1 0 -0 0 1 
1 6.679274664138223e-65 3 1 0 
2 6.5 7.9602041944577955e-16 1 0 -0 1 1.1499999999999999
1 6.2831853071795862 -0 0 1 
1 0 -0 0 1 
1 0 24.600000000000001 1 0 
1 0 -14 1 0 
1 0 0 1 0 
1 0 -14 1 0 
1 0 0 1 0 
1 0 24.600000000000001 1 0 
1 0 0 1 0 
1 0 0 1 0 
1 6.2831853071795862 -0 0 1 
1 0 -0 0 1 
1 6.679274664138223e-65 3 1 0 
2 3.6977854932234928e-32 -6.5 1 0 -0 1 1.1499999999999999
1 6.2831853071795862 -0 0 1 
1 0 -0 0 1 
1 6.679274664138223e-65 3 1 0 
2 0 0 1 0 -0 1 3.2000000000000002
1 6.2831853071795862 -0 0 1 
1 0 -0 0 1 
1 6.679274664138223e-65 3 1 0 
2 -3.6977854932234928e-32 6.5 1 0 -0 1 1.1499999999999999
1 6.2831853071795862 -0 0 1 
1 0 -0 0 1 
1 6.679274664138223e-65 3 1 0 
2 -6.5 -7.9602041944577955e-16 1 0 -0 1 1.1499999999999999
1 6.2831853071795862 -0 0 1 
1 0 -0 0 1 
8 4.7123889803846897 6.2831853071795862
1 6.2831853071795862 2.8800000000000026 -1 -0 
8 4.7123889803846897 6.2831853071795862
1 0 -6.2831853071795862 0 1 
1 1.5707963267948966 0 0 1 
1 2.879999999999999 0 0 1 
1 0 2.8800000000000026 1 0 
1 1.5707963267948966 0 0 1 
1 4.5 0 0 1 
1 0 0 0 -1 
8 -5.999999999062311e-07 4.5000005999999999
1 2.1258803253505789 0 0 -1 
8 -5.999999999062311e-07 4.5000005999999999
1 0.93861107811415145 0 0 1 
8 -6.0000000000000044 0
1 0 -4.5 -1 -0 
8 -6.0000000000000044 0
1 0 4.5 -1 0 
1 6 0 0 -1 
1 4.5 0 0 1 
2 2.8799999999999955 -2.8800000000000026 1 0 -0 1 2.8799999999999999
1 -1.5707963267948966 4.5 1 0 
8 2.879999999999999 4.5
1 0 4.5 1 0 
8 2.879999999999999 4.5
1 6 0 0 1 
1 2.879999999999999 0 0 1 
1 1.5707963267948966 0 0 1 
8 4.7123889803846897 6.2831853071795862
1 6.2831853071795862 2.8800000000000026 -1 -0 
8 4.7123889803846897 6.2831853071795862
1 0 -6.2831853071795862 0 1 
1 0 4.5 1 0 
2 3.1200000000000045 2.879999999999999 0 -1 1 0 2.8799999999999999
8 2.8799994000000027 4.5000005999999999
1 1.0377299179771655 0 0 1 
8 2.8799994000000027 4.5000005999999999
1 0.51309033281523508 0 0 1 
1 6.2831853071795862 -0 0 1 
1 0 -0 0 1 
1 0 0 1 0 
2 0 0 1 0 -0 1 11
1 0 2.8799999999999955 1 0 
1 0 0 1 0 
1 0 3.1200000000000045 1 0 
1 0 0 1 0 
1 1.5707963267948966 0 0 1 
1 19.295695715419043 -8.5065975712958473 -1 0 
1 0 -1.5707963267948966 1 0 
8 4.7123889803846897 6.2831853071795862
1 1.5707963267948966 -6.2831853071795862 0 1 
8 4.7123889803846897 6.2831853071795862
1 6.2831853071795862 2.879999999999999 -1 -0 
1 0 0 0 1 
1 16.415695715419048 -11.386597571295846 0 1 
7 0 0  5 6 2  0 3.5793800798046558  0.056925049383640097 3.7587756625433837  0.11167304104751982 3.9412585642818811  0.16447310830601611 4.1260238742993112  0.21550321435517908 4.3124174227570613  0.26493575148662885 4.5000005999999999 
 0 6 1 6
7 0 0  5 6 2  0.83037117633425384 2.6645352591003757e-15  0.85246422839567348 2.639413611327018e-15  0.87437987760007907 0.011665259137814028  0.8960596063800651 0.033213745095185529  0.91747291739168724 0.063207070085543882  0.93861114572649018 0.10048514062882852 
 0 6 1 6
1 -1.5707963267948966 4.5 1 0 
2 11 10.999999999999998 1 0 0 -1 11
1 1.5707963267948966 0 0 1 
1 10.999999999999998 0 0 1 
1 -1.5707963267948966 0 1 0 
2 8.2956957154190434 -0.38659757129584849 -1 0 -0 -1 11
1 0 0 0 1 
1 0 4.5 1 0 
2 11 12.000000000000002 1 0 -0 1 11
1 -1.5707963267948966 4.5 1 0 
1 0 23 1 0 
1 0 -4.5 1 0 
2 28 12.000000000000002 1 0 0 -1 11
1 -4.7123889803846897 4.5 1 0 
1 39 0 0 1 
1 0 4.5 1 0 
2 28 10.999999999999998 1 0 -0 1 11
1 -4.7123889803846897 4.5 1 0 
1 0 0 1 0 
1 0 -4.5 1 0 
2 11 10.999999999999998 1 0 0 -1 11
1 -1.5707963267948966 4.5 1 0 
8 4.7123889803846897 6.2831853071795862
1 1.5707963267948966 -6.2831853071795862 0 1 
8 4.7123889803846897 6.2831853071795862
1 6.2831853071795862 2.879999999999999 -1 -0 
7 0 0  7 26 5  0 -1.0377299179771657  0.14306472275094939 -1.0377299179771657  0.28608982162714008 -1.0271604618936294  0.4237647709432939 -1.0060007907335702  0.54958001217614061 -0.97493426369246672  0.66312623049491792 -0.93544577924424799  0.76549223783130349 -0.88880330427865373  0.89060208800859086 -0.8179051148854507  0.9215957611104334 -0.79898658443800552  0.95155733823521005 -0.77938488920850879  0.98057331442260953 -0.75913796330714867  1.0087343107988116 -0.73827996633803905  1.0361325147533738 -0.71684111029657482  1.0938612957786209 -0.66933544780076049  1.1239567526137113 -0.64307966985642795  1.1532912244892777 -0.6161194133338499  1.1820025809406178 -0.58849297595130623  1.2102226724877547 -0.56023874464825862  1.238079175952755 -0.53139624778831218  1.3090124734572308 -0.45591498071153502  1.351771965366044 -0.40844610185604335  1.3944129798522502 -0.35980478121980741  1.4373261313428278 -0.31026298509297157  1.4808609901141279 -0.26016700745970989  1.5253267991785298 -0.20994615954119933  1.5707963267948966 -0.16019121073428355 
 0 8 0.42129258650413853 6 0.56672506824526325 6 0.73542301116690156 6 1 8
7 0 0  7 26 5  0.51309033281523664 2.8800000000000026  0.51309033281523664 2.6706177913917224  0.51470572194240016 2.4612360253192702  0.5179335084418899 2.2512207814524103  0.52287341366140405 2.0401886377609113  0.52967284215663712 1.8294886296272685  0.53844880814450125 1.6213728429142797  0.55303863676363285 1.348831744545391  0.55702976816035021 1.2795409295798741  0.5612725439167664 1.2110085243199546  0.5657712786761554 1.1433550875978269  0.57053011096343531 1.0767113697511363  0.57555305419898695 1.0112179162918993  0.58698146427203512 0.87256215671296877  0.59347891279957421 0.79985706227025322  0.60034285888635142 0.72913813361509461  0.60757828366211564 0.66067164730568195  0.61518816276675281 0.5947576953804784  0.6231729453219349 0.53172646964812809  0.64463684991107906 0.37816003487559785  0.658668615241224 0.29228790783117697  0.67360426015646357 0.21580657082561008  0.68938577697592263 0.15042705276351687  0.70590672663331222 0.097869586996685382  0.72300401402310288 0.059729642659077514  0.7404251504606425 0.036873210305479631 
 0 8 0.42129258650413853 6 0.56672506824526325 6 0.73542301116690156 6 1 8
1 0 0 0 1 
1 11 0 0 -1 
7 0 0  4 5 2  0.79857654864060079 2.6645352591003757e-15  0.78411392298106375 2.6453302419325707e-15  0.769568506397587 0.0057043368082029047  0.75498734081190599 0.017767669597028156  0.74042506960486187 0.036873316387890487 
 0 5 1 5
7 0 0  4 5 2  0 3.3250016286646611  0.03854188485492329 3.2110361384675095  0.07806776254035655 3.0985581896943146  0.11860143737976493 2.9880604702414333  0.16019144165925514 2.8799993999999991 
 0 5 1 5
1 -1.5707963267948966 0 1 0 
2 8.2956957154190434 -0.38659757129584849 -1 0 -0 -1 11
1 19.295695715419043 -11.386597571295846 0 1 
1 0 0 1 0 
2 8.2956957154190434 0.61340242870415418 -1 0 0 1 11
1 -1.5707963267948966 0 1 0 
1 19.295695715419043 11.613402428704154 -1 0 
1 0 0 1 0 
2 -8.7043042845809566 0.61340242870415418 -1 0 -0 -1 11
1 -4.7123889803846897 0 1 0 
1 -19.704304284580957 -11.386597571295846 0 1 
1 0 0 1 0 
2 -8.7043042845809566 -0.38659757129584849 -1 0 0 1 11
1 -4.7123889803846897 0 1 0 
1 19.295695715419043 -11.386597571295846 -1 0 
1 0 0 1 0 
1 16.175695715419039 -11.386597571295846 0 1 
1 0 0 0 1 
1 12.000000000000002 0 0 1 
1 1.5707963267948966 0 0 1 
1 0 0 0 1 
1 11 0 0 -1 
1 28 0 0 -1 
1 0 0 0 1 
1 1.5707963267948966 0 0 1 
1 12.000000000000002 0 0 1 
1 10.999999999999998 0 0 1 
1 1.5707963267948966 0 0 1 
1 0 0 0 1 
1 28 0 0 -1 
1 0 0 1 0 
1 12.277322404371587 -11.5 -1 0 
8 -12.4 0
1 16 0 0 1 
8 -12.4 0
1 4.6999999999999993 0 0 -1 
1 0 -12.4 1 0 
1 -12.277322404371578 -11.500000000000002 1 0 
1 0 0 0 -1 
1 0 0 0 1 
1 0 12.4 1 0 
1 3.7226775956284222 -16.200000000000003 0 1 
1 0 0 1 0 
1 -3.7226775956284133 -16.199999999999999 0 1 
1 0 0 0 1 
1 0 0 0 -1 
1 0 12.4 1 0 
1 -12.277322404371578 -11.500000000000002 0 1 
1 23 0 0 1 
1 0 0 0 -1 
1 0 0 1 0 
1 12.277322404371587 -11.5 0 1 
1 0 0 1 0 
1 12.277322404371587 11.5 -1 0 
8 -12.4 0
1 16 0 0 1 
8 -12.4 0
1 27.699999999999999 0 0 -1 
1 0 -12.4 1 0 
1 -12.277322404371578 11.499999999999998 1 0 
1 0 0 1 0 
1 -3.7226775956284133 -16.199999999999999 -1 0 
1 2.5 0 0 -1 
1 0 0 0 1 
1 0 -12.4 1 0 
1 3.7226775956284222 -16.200000000000003 1 0 
1 0 12.4 1 0 
1 3.7226775956284222 -16.200000000000003 0 1 
1 32.399999999999999 0 0 1 
1 0 0 0 -1 
1 0 0 1 0 
1 -3.7226775956284133 -16.199999999999999 0 1 
1 0 12.4 1 0 
1 6.2226775956284222 -16.200000000000003 0 1 
8 -12.4 0
1 4.6999999999999993 0 0 -1 
8 -12.4 0
1 18.5 0 0 1 
1 0 0 1 0 
1 -6.2226775956284133 -16.199999999999999 0 1 
1 0 0 1 0 
1 -3.7226775956284133 16.199999999999999 -1 0 
1 2.5 0 0 -1 
1 32.399999999999999 0 0 1 
1 0 -12.4 1 0 
1 3.7226775956284222 16.199999999999996 1 0 
1 0 12.4 1 0 
1 6.2226775956284222 -16.200000000000003 0 1 
1 0 0 1 0 
1 -6.2226775956284133 -16.199999999999999 0 1 
8 -12.4 0
1 27.699999999999999 0 0 -1 
8 -12.4 0
1 18.5 0 0 1 
1 0 0 1 0 
1 12.277322404371587 11.5 -1 0 
1 22.5 0 0 -1 
1 23 0 0 1 
1 0 -12.4 1 0 
1 -12.277322404371578 11.499999999999998 1 0 
1 0 0 0 1 
1 22.5 0 0 -1 
1 0 12.4 1 0 
1 10.222677595628422 -11.500000000000002 0 1 
1 0 0 1 0 
1 -10.222677595628413 -11.5 0 1 
2 6 6.2000000000000002 1 0 -0 1 5.9000000000000004
1 0 0 1 0 
1 0 0 1 0 
1 12.277322404371587 -11.5 -1 0 
1 0 -12.4 1 0 
1 -12.277322404371578 -11.500000000000002 1 0 
1 0 4 1 0 
2 0 0 1 0 -0 1 5.9000000000000004
1 6.2831853071795862 -0 0 1 
1 0 -0 0 1 
2 0 0 1 0 -0 1 9
1 0 0 1 0 
1 0 2 1 0 
2 0 0 1 0 -0 1 9
1 6.2831853071795862 -0 0 1 
1 0 -0 0 1 
Curves 169
1 -11.5 -19 79 1 0 -0 
1 -0.500000000000002 -23.5 79 -0 1 0 
1 0.500000000000002 -23.5 79 -0 1 0 
1 -11.5 -23.5 79 1 0 -0 
1 -11.5 -23.5 79 1 0 -0 
1 0 -24 79 0 1 1.1102230246251565e-16 
8 1.5707963267948966 3.1415926535897931
2 -0.50000000000000133 -19 90 0 -1 -0 0 0 1 -1 -0 0 11
8 1.5707963267948966 3.1415926535897931
2 0.50000000000000133 -19 90 -0 1 0 0 0 1 1 0 -0 11
1 -11.5 -19 79 0 0 1 
1 11.5 -19 79 0 0 1 
1 -11.699999999999999 11 -11 1 0 -0 
1 -11.699999999999999 11 -11 1 0 -0 
1 22.699999999999999 -11 -11 -0 1 0 
1 -11.699999999999999 -11 -11 -0 1 0 
1 11.700000000000001 -19 149 -1 1.3596310734468911e-32 1.2246467991473532e-16 
2 -6.5 -19.000000000000007 90 0 1 1.1102230246251565e-16 -1 1.3596310734468911e-32 -1.2246467991473532e-16 -1.2246467991473532e-16 -1.1102230246251565e-16 1 1.1499999999999999
2 -19.5 -19.000000000000007 138 0 -1 1.1102230246251565e-16 -1 1.3596310734468911e-32 1.2246467991473532e-16 -1.2246467991473532e-16 -1.1102230246251565e-16 -1 1.1499999999999999
1 1.8409248791847661 -19.000000000000007 131 -1 0 1.2246467991473532e-16 
1 -17.800000000000004 -19.000000000000007 131.79314522358132 1.2246467991473532e-16 -0 1 
1 1.8409248791847679 -19.000000000000007 145 -1 0 1.2246467991473532e-16 
1 6.7999999999999989 -19.000000000000007 131.79314522358132 1.2246467991473532e-16 -0 1 
2 7.9602041944577955e-16 -19.000000000000007 83.5 0 1 1.1102230246251565e-16 -1 1.3596310734468911e-32 -1.2246467991473532e-16 -1.2246467991473532e-16 -1.1102230246251565e-16 1 1.1499999999999999
2 0 -19.000000000000007 90 0 1 1.1102230246251565e-16 -1 1.3596310734468911e-32 -1.2246467991473532e-16 -1.2246467991473532e-16 -1.1102230246251565e-16 1 3.2000000000000002
2 -7.9602041944577955e-16 -19.000000000000007 96.5 0 1 1.1102230246251565e-16 -1 1.3596310734468911e-32 -1.2246467991473532e-16 -1.2246467991473532e-16 -1.1102230246251565e-16 1 1.1499999999999999
2 6.5 -19.000000000000007 90 0 1 1.1102230246251565e-16 -1 1.3596310734468911e-32 -1.2246467991473532e-16 -1.2246467991473532e-16 -1.1102230246251565e-16 1 1.1499999999999999
2 8.5 -19.000000000000007 138 0 -1 1.1102230246251565e-16 -1 1.3596310734468911e-32 1.2246467991473532e-16 -1.2246467991473532e-16 -1.1102230246251565e-16 -1 1.1499999999999999
8 1.5707963267948966 3.1415926535897931
2 -0.50000000000000133 -23.5 90 0 -1 -0 0 0 1 -1 -0 0 11
1 -11.500000000000002 -23.5 90 -0 1 0 
8 1.5707963267948966 3.1415926535897931
2 0.50000000000000133 -23.5 90 -0 1 0 0 0 1 1 0 -0 11
1 11.500000000000002 -23.5 90 -0 1 0 
1 -11.5 -23.5 79 0 0 1 
2 -8.620000000000001 -23.5 112.88 -0 1 0 -1 -0 0 0 0 1 2.8799999999999999
1 -11.5 -23.5 110 1 0 -0 
1 -7 -23.5 94.5 -0 0 -1 
1 -11.5 -23.5 116 1 0 -0 
2 -8.620000000000001 -23.5 113.12 -0 1 0 -1 -0 0 0 0 1 2.8799999999999999
1 -11.5 -23.5 79 0 0 1 
1 -11.699999999999999 11 -6.5 1 0 -0 
1 22.699999999999999 -11 -6.5 -0 1 0 
1 11.700000000000001 -23.5 149 -1 1.3596310734468911e-32 1.2246467991473532e-16 
1 -11.699999999999999 -11 -6.5 -0 1 0 
1 -11.699999999999999 11 -6.5 1 0 -0 
1 11.5 -23.5 79 0 0 1 
2 -19.5 -23.500000000000014 138 0 -1 1.1102230246251565e-16 -1 1.3596310734468911e-32 1.2246467991473532e-16 -1.2246467991473532e-16 -1.1102230246251565e-16 -1 1.1499999999999999
1 1.6064543989802127 -23.500000000000014 145 1 0 -1.2246467991473532e-16 
1 -17.800000000000004 -23.500000000000014 131.56206944096465 -1.2246467991473532e-16 0 -1 
1 1.6064543989802111 -23.500000000000014 131 1 0 -1.2246467991473532e-16 
1 6.7999999999999989 -23.500000000000014 131.56206944096465 -1.2246467991473532e-16 0 -1 
2 8.5 -23.500000000000014 138 0 -1 1.1102230246251565e-16 -1 1.3596310734468911e-32 1.2246467991473532e-16 -1.2246467991473532e-16 -1.1102230246251565e-16 -1 1.1499999999999999
2 0 -23.5 90 0 1 1.1102230246251565e-16 -1 1.3596310734468911e-32 -1.2246467991473532e-16 -1.2246467991473532e-16 -1.1102230246251565e-16 1 11
2 0 -23.5 90 0 1 1.1102230246251565e-16 -1 1.3596310734468911e-32 -1.2246467991473532e-16 -1.2246467991473532e-16 -1.1102230246251565e-16 1 11
1 -11.5 -48 112.88 -0 1 0 
1 -11.5 -45.119999999999997 110 0 0 1 
1 -11.5 -48 113.12 -0 1 0 
1 -11.5 -21.249999999999996 127 -0 1 -1.1102230246251565e-16 
1 11.5 -21.249999999999996 127 -0 1 -1.1102230246251565e-16 
1 22.699999999999999 11 -11 0 0 1 
1 -11.699999999999999 11 -11 0 0 1 
1 22.699999999999999 -11 -11 0 0 1 
1 -11.699999999999999 -11 -11 0 0 1 
1 7.6500000000000004 -2.8166876380389135e-16 3 0 0 1 
2 -6.5 -24 90 0 1 1.1102230246251565e-16 -1 1.3596310734468911e-32 -1.2246467991473532e-16 -1.2246467991473532e-16 -1.1102230246251565e-16 1 1.1499999999999999
1 20.649999999999999 -2.8166876380389037e-16 -19 0 0 1 
1 17.800000000000001 7 -23.5 0 0 1 
1 -6.7999999999999998 7 -23.5 0 0 1 
1 17.800000000000001 -7 -23.5 0 0 1 
1 -6.7999999999999998 -7 -23.5 0 0 1 
1 1.1499999999999999 -6.5 3 0 0 1 
2 7.9602041944577955e-16 -24 83.5 0 1 1.1102230246251565e-16 -1 1.3596310734468911e-32 -1.2246467991473532e-16 -1.2246467991473532e-16 -1.1102230246251565e-16 1 1.1499999999999999
1 3.2000000000000002 -7.8377395145430609e-16 3 0 0 1 
2 0 -24 90 0 1 1.1102230246251565e-16 -1 1.3596310734468911e-32 -1.2246467991473532e-16 -1.2246467991473532e-16 -1.1102230246251565e-16 1 3.2000000000000002
1 1.1499999999999999 6.5 3 0 0 1 
2 -7.9602041944577955e-16 -24 96.5 0 1 1.1102230246251565e-16 -1 1.3596310734468911e-32 -1.2246467991473532e-16 -1.2246467991473532e-16 -1.1102230246251565e-16 1 1.1499999999999999
1 -5.3499999999999996 -2.8166876380389116e-16 3 0 0 1 
2 6.5 -24 90 0 1 1.1102230246251565e-16 -1 1.3596310734468911e-32 -1.2246467991473532e-16 -1.2246467991473532e-16 -1.1102230246251565e-16 1 1.1499999999999999
1 -7.3499999999999996 -2.8166876380389116e-16 -19 0 0 1 
2 -8.620000000000001 -45.119999999999997 112.88 0 1 -0 -1 0 0 0 0 1 2.8799999999999999
1 -8.620000000000001 -48 110 -0 1 0 
1 -11.5 -45.119999999999997 110 1 0 -0 
1 -7 -48 110 -0 1 0 
1 -7 -48 112.12588032535058 -0 1 0 
1 -7 -43.5 110 -0 0 -1 
1 -7 -48 116 -0 1 0 
8 1.5707963267948966 3.1415926535897931
2 -7 -45.119999999999997 112.88 1 0 -0 0 0 1 0 -1 0 2.8799999999999999
1 -11.5 -43.5 116 1 0 -0 
1 -8.620000000000001 -48 116 -0 1 0 
2 -8.620000000000001 -45.119999999999997 113.12 0 -1 0 -1 0 0 -0 -0 -1 2.8799999999999999
2 -8.620000000000001 -43.5 113.12 -0 1 0 -1 -0 0 0 0 1 2.8799999999999999
1 -10.0835488370727 -48 115.60040819251654 -0 1 0 
1 11 -2.6942229581241772e-15 6 0 0 1 
2 0 0 6 0 0 1 1 0 -0 -0 1 0 11
2 -8.620000000000001 -45.119999999999997 112.88 0 0 1 -1 0 0 0 -1 0 2.8799999999999999
2 -8.620000000000001 -45.119999999999997 113.12 0 0 1 -1 0 0 0 -1 0 2.8799999999999999
1 -8.620000000000001 -48 110 0 0 1 
2 -8.620000000000001 -45.119999999999997 112.88 -1 6.123233995736766e-17 0 -6.123233995736766e-17 -1 0 0 0 1 2.8799999999999999
1 -11.5 -48 112.88 1 0 -0 
7 0 0  5 6 2  -7.9206199201953442 -48 112.88  -7.7412243374566163 -48 112.71605585777512  -7.5587414357181162 -47.988334740862186 112.55838242544934  -7.3739761257006879 -47.966786254904811 112.40742138265108  -7.1875825772429396 -47.936792929914461 112.26327835736367  -6.999999400000001 -47.899514859371173 112.12587988587039 
 0 6 1 6
8 1.5707963267948966 3.1415926535897931
2 -0.50000000000000133 -43.5 121 0 -1 -0 0 0 1 -1 -0 0 11
1 -0.500000000000002 -48 110 -0 1 0 
8 1.5707963267948966 3.1415926535897931
2 -0.50000000000000133 -48 121 0 -1 -0 0 0 1 -1 -0 0 11
1 -11.5 -43.5 110 1 0 -0 
8 1.5707963267948966 3.1415926535897931
2 0.50000000000000133 -43.5 121 -0 1 0 0 0 1 1 0 -0 11
1 11.5 -43.5 110 0 0 1 
8 4.7123889803846897 6.2831853071795862
2 0.50000000000000133 -43.5 138 0 -1 -0 0 0 1 -1 -0 0 11
1 -11.5 -43.5 149 1 0 -0 
8 4.7123889803846897 6.2831853071795862
2 -0.50000000000000133 -43.5 138 -0 1 0 0 0 1 1 0 -0 11
1 -11.5 -43.5 110 0 0 1 
8 1.5707963267948966 3.1415926535897931
2 -0.50000000000000133 -43.5 121 0 -1 -0 0 0 1 -1 -0 0 11
2 -8.620000000000001 -45.119999999999997 113.12 1 -6.123233995736766e-17 0 -6.123233995736766e-17 -1 0 0 -0 -1 2.8799999999999999
7 0 0  7 26 5  -10.083548837072554 -45.119999999999997 115.60040819251662  -10.083548837072554 -45.32938220860828 115.60040819251662  -10.074826921049842 -45.538763974680734 115.58492676193883  -10.057396594463324 -45.748779218547583 115.55399394571276  -10.030568034225388 -45.959811362239094 115.50673954209792  -9.9932223321721203 -46.170511370372729 115.44193295525373  -9.9441099137928255 -46.378627157085717 115.35881029104789  -9.8603213584256988 -46.651168255454614 115.22193109984303  -9.8372470848913984 -46.720459070420134 115.18458092600729  -9.8125382459455626 -46.788991475680049 115.14498692383522  -9.7861296603172896 -46.856644912402167 115.1031350778038  -9.7579525871917063 -46.923288630248869 115.05901675781304  -9.7279343116842245 -46.988782083708095 115.01262864962125  -9.6589521163194867 -47.127437843287041 114.90753301652838  -9.6193290944787488 -47.200142937729758 114.84804783143754  -9.577007020964647 -47.270861866384905 114.7855168718547  -9.5318634211544389 -47.339328352694324 114.71996255931219  -9.4837802475467665 -47.405242304619527 114.65143437329104  -9.4326491376778403 -47.468273530351873 114.58001322948432  -9.2932585888709163 -47.621839965124401 114.38944859968923  -9.2003543047288989 -47.707712092168826 114.2661708830193  -9.0993725483839274 -47.784193429174387 114.13653295780743  -8.990246768558114 -47.849572947236481 114.00145626408708  -8.8732729819027263 -47.902130413003313 113.86229717056008  -8.7492756320808489 -47.940270357340921 113.72083970767748  -8.620000000000001 -47.96312678969452 113.57938007980466 
 0 8 0.42129258650413853 6 0.56672506824526325 6 0.73542301116690156 6 1 8
1 -11.500000000000002 -48 121 -0 1 0 
7 0 0  4 5 2  -8.174998371335338 -48 113.12  -8.2889638615324888 -48 113.23100062838219  -8.4014418103056876 -47.994295663191792 113.34483423496106  -8.5119395297585658 -47.982232330402972 113.46113508541507  -8.6200005999999991 -47.96312668361211 113.57938073635363 
 0 5 1 5
8 1.5707963267948966 3.1415926535897931
2 -0.50000000000000133 -48 121 0 -1 -0 0 0 1 -1 -0 0 11
1 -11.5 -48 110 1 0 -0 
8 1.5707963267948966 3.1415926535897931
2 0.50000000000000133 -48 121 -0 1 0 0 0 1 1 0 -0 11
1 11.5 -48 110 0 0 1 
8 4.7123889803846897 6.2831853071795862
2 0.50000000000000133 -48 138 0 -1 -0 0 0 1 -1 -0 0 11
1 -11.5 -48 149 1 0 -0 
8 4.7123889803846897 6.2831853071795862
2 -0.50000000000000133 -48 138 -0 1 0 0 0 1 1 0 -0 11
1 -11.5 -48 110 0 0 1 
1 -11.5 -48 113.12 1 0 -0 
1 0.500000000000002 -48 110 -0 1 0 
1 11.500000000000002 -48 121 -0 1 0 
1 11.500000000000002 -48 138 -0 1 0 
1 0.500000000000002 -48 149 -0 1 0 
1 -0.500000000000002 -48 149 -0 1 0 
1 -11.500000000000002 -48 138 -0 1 0 
1 -6 -6.2000000000000002 -22.5 0 0 1 
1 -6 -6.2000000000000002 -6.5 0 -1 0 
1 -6 6.2000000000000002 -22.5 0 0 1 
1 -6 -6.2000000000000002 -22.5 -0 1 0 
1 -10.699999999999999 6.2000000000000002 -6.5 1 0 -0 
1 -10.699999999999999 -6.2000000000000002 -6.5 1 0 -0 
1 -10.699999999999999 -6.2000000000000002 -6.5 -0 1 0 
1 -6 6.2000000000000002 -22.5 1 0 -0 
1 17 -6.2000000000000002 -22.5 -0 1 0 
1 -6 -6.2000000000000002 -22.5 1 0 -0 
1 17 -6.2000000000000002 -22.5 0 0 1 
1 17 -6.2000000000000002 -6.5 0 -1 0 
1 17 6.2000000000000002 -22.5 0 0 1 
1 -10.699999999999999 -6.2000000000000002 -6.5 0 0 1 
1 -10.699999999999999 -6.2000000000000002 -4 -0 1 0 
1 -10.699999999999999 6.2000000000000002 -6.5 0 0 1 
1 -10.699999999999999 6.2000000000000002 -6.5 1 0 -0 
1 21.699999999999999 -6.2000000000000002 -6.5 -0 1 0 
1 -10.699999999999999 -6.2000000000000002 -6.5 1 0 -0 
1 -10.699999999999999 6.2000000000000002 -4 1 0 -0 
1 -6 -6.2000000000000002 -4 0 -1 0 
1 -10.699999999999999 -6.2000000000000002 -4 1 0 -0 
1 21.699999999999999 -6.2000000000000002 -6.5 0 0 1 
1 21.699999999999999 -6.2000000000000002 -4 -0 1 0 
1 21.699999999999999 6.2000000000000002 -6.5 0 0 1 
1 -10.699999999999999 6.2000000000000002 -4 1 0 -0 
1 -10.699999999999999 -6.2000000000000002 -4 1 0 -0 
1 17 -6.2000000000000002 -4 0 -1 0 
1 17 -6.2000000000000002 -22.5 0 0 1 
1 17 -6.2000000000000002 0 -0 1 0 
1 17 6.2000000000000002 -22.5 0 0 1 
1 -6 -6.2000000000000002 0 -0 1 0 
1 -6 6.2000000000000002 0 1 0 -0 
1 -6 -6.2000000000000002 0 1 0 -0 
2 0 0 0 0 0 1 1 0 -0 -0 1 0 5.9000000000000004
1 -6 -6.2000000000000002 -22.5 0 0 1 
1 -6 6.2000000000000002 -22.5 0 0 1 
2 0 0 4 0 0 1 1 0 -0 -0 1 0 5.9000000000000004
1 5.9000000000000004 -1.4450832229938768e-15 0 0 0 1 
2 0 0 4 0 0 1 1 0 -0 -0 1 0 9
2 0 0 6 0 0 1 1 0 -0 -0 1 0 9
1 9 -2.2043642384652358e-15 4 0 0 1 
Polygon3D 0
PolygonOnTriangulations 0
Surfaces 64
1 -11.5 -23.5 79 0 0 1 1 0 -0 -0 1 0 
1 -3.1181502416304681 -19.000000000000007 118.58629044716263 0 1 0 0 -0 1 1 0 -0 
2 -0.50000000000000133 -23.5 90 -0 1 0 -1 -0 0 -0 -0 -1 11
2 0.50000000000000133 -23.5 90 -0 1 0 1 0 -0 -0 0 -1 11
1 -3.5870912020395784 -23.500000000000014 118.12413888192933 -0 -1 -0 0 0 -1 1 -0 0 
1 -11.499999999999996 -25.764442332065901 110.04134980988592 -1 -0 -0 0 0 -1 0 -1 0 
1 11.5 -23.5 79 1 0 -0 0 0 1 0 -1 0 
1 -11.699999999999999 11 -11 -0 1 0 0 0 1 1 0 -0 
1 -11.699999999999999 11 -11 -0 1 0 0 0 1 1 0 -0 
1 22.699999999999999 -11 -11 1 0 -0 0 0 1 0 -1 0 
1 -11.699999999999999 -11 -11 1 0 -0 0 0 1 0 -1 0 
1 -5.5000000000000009 -21.25 149 0 0 1 1 0 -0 -0 1 0 
2 6.5 0 3 0 0 1 1 0 -0 -0 1 0 1.1499999999999999
2 19.5 0 -19 0 0 1 1 0 -0 -0 1 0 1.1499999999999999
1 -6.7999999999999998 7 -23.5 -0 1 0 0 0 1 1 0 -0 
1 17.800000000000001 -7 -23.5 1 0 -0 0 0 1 0 -1 0 
1 -6.7999999999999998 -7 -23.5 -0 1 0 0 0 1 1 0 -0 
1 -6.7999999999999998 -7 -23.5 1 0 -0 0 0 1 0 -1 0 
2 0 -6.5 3 0 0 1 1 0 -0 -0 1 0 1.1499999999999999
2 0 0 3 0 0 1 1 0 -0 -0 1 0 3.2000000000000002
2 0 6.5 3 0 0 1 1 0 -0 -0 1 0 1.1499999999999999
2 -6.5 0 3 0 0 1 1 0 -0 -0 1 0 1.1499999999999999
2 -8.5 0 -19 0 0 1 1 0 -0 -0 1 0 1.1499999999999999
2 -8.620000000000001 -48 112.88 -0 1 0 -1 -0 0 -0 -0 -1 2.8799999999999999
1 -11.5 -48 110 0 0 1 1 0 -0 -0 1 0 
1 -7 -48 110 1 0 -0 0 0 1 0 -1 0 
1 -11.5 -48 116 0 0 1 1 0 -0 -0 1 0 
2 -8.620000000000001 -48 113.12 -0 1 0 -1 -0 0 0 0 1 2.8799999999999999
2 0 0 6 0 0 1 1 0 -0 -0 1 0 11
2 -8.620000000000001 -45.119999999999997 110 0 0 1 -1 -0 0 0 -1 0 2.8799999999999999
1 0 0 6 0 0 1 1 0 -0 -0 1 0 
4 -8.620000000000001 -45.119999999999997 112.88 0 0 1 -1 0 0 0 -1 0 2.8799999999999999
2 -11.5 -45.119999999999997 112.88 1 0 -0 0 -1 0 0 -0 -1 2.8799999999999999
2 -0.50000000000000133 -48 121 -0 1 0 -1 -0 0 -0 -0 -1 11
1 -11.5 -43.5 110 -0 1 0 0 0 1 1 0 -0 
4 -8.620000000000001 -45.119999999999997 113.12 -0 -0 -1 -1 0 0 -0 -1 0 2.8799999999999999
2 -0.50000000000000133 -48 121 -0 1 0 -1 -0 0 -0 -0 -1 11
1 -0.11340242870415287 -47.999999999999993 129.29569571541904 -0 -1 -0 0 0 -1 1 -0 0 
1 -11.5 -48 110 0 0 1 1 0 -0 -0 1 0 
2 0.50000000000000133 -48 121 -0 1 0 1 0 -0 -0 0 -1 11
1 11.5 -48 110 1 0 -0 0 0 1 0 -1 0 
2 0.50000000000000133 -48 138 -0 1 0 1 0 -0 0 -0 1 11
1 -11.5 -48 149 0 0 1 1 0 -0 -0 1 0 
2 -0.50000000000000133 -48 138 -0 1 0 -1 -0 0 0 0 1 11
1 -11.5 -48 110 1 0 -0 0 0 1 0 -1 0 
2 -11.5 -45.119999999999997 113.12 1 0 -0 0 -1 0 -0 0 1 2.8799999999999999
1 -6 -6.2000000000000002 -22.5 1 0 -0 0 0 1 0 -1 0 
1 5.5 -6.1999999999999993 -10.222677595628413 -0 -1 -0 0 0 -1 1 -0 0 
1 -10.699999999999999 -6.2000000000000002 -6.5 0 0 1 1 0 -0 -0 1 0 
1 5.5000000000000018 6.2000000000000028 -10.222677595628422 0 1 0 0 -0 1 1 0 -0 
1 -6 -6.2000000000000002 -22.5 0 0 1 1 0 -0 -0 1 0 
1 -10.699999999999999 -6.2000000000000002 -6.5 1 0 -0 0 0 1 0 -1 0 
1 17 -6.2000000000000002 -22.5 1 0 -0 0 0 1 0 -1 0 
1 -10.699999999999999 -6.2000000000000002 -6.5 0 0 1 1 0 -0 -0 1 0 
1 -10.699999999999999 -6.2000000000000002 -4 0 0 1 1 0 -0 -0 1 0 
1 21.699999999999999 -6.2000000000000002 -6.5 1 0 -0 0 0 1 0 -1 0 
1 -6 -6.2000000000000002 -22.5 1 0 -0 0 0 1 0 -1 0 
1 -10.699999999999999 -6.2000000000000002 -4 0 0 1 1 0 -0 -0 1 0 
1 17 -6.2000000000000002 -22.5 1 0 -0 0 0 1 0 -1 0 
1 -6 -6.2000000000000002 0 0 0 1 1 0 -0 -0 1 0 
2 0 0 0 0 0 1 1 0 -0 -0 1 0 5.9000000000000004
1 0 0 4 0 0 1 1 0 -0 -0 1 0 
2 0 0 4 0 0 1 1 0 -0 -0 1 0 9
1 0 0 6 0 0 1 1 0 -0 -0 1 0 
Triangulations 0

TShapes 434
Ve
1.5e-07
-0.500000000000002 -19 79
0 0

0101101
*
Ve
1.5e-07
0.500000000000002 -19 79
0 0

0101101
*
Ed
 1.5e-07 1 1 0
1  1 0 11 12
2  1 1 0 11 12
2  2 2 0 11 12
0

0101000
+434 0 -433 0 *
Ve
1.5e-07
-0.500000000000002 -23.5 79
0 0

0101101
*
Ed
 1e-07 1 1 0
1  2 0 0 4.5
2  3 1 0 0 4.5
2  4 3 0 0 4.5
4 G1 1 0 3 0
0

0101000
+431 0 -434 0 *
Ve
1.5e-07
0.500000000000002 -23.5 79
0 0

0101101
*
Ed
 1e-07 1 1 0
1  3 0 0 4.5
2  5 1 0 0 4.5
2  6 4 0 0 4.5
4 G1 1 0 4 0
0

0101000
+429 0 -433 0 *
Ve
1.5e-07
0 -23.5 79
0 0

0101101
*
Ed
 1.5e-07 1 1 0
1  4 0 11 11.5
2  7 1 0 11 11.5
2  8 5 0 11 11.5
0

0101000
+431 0 -427 0 *
Ed
 1.5e-07 1 1 0
1  5 0 11.5 12
2  9 1 0 11.5 12
2  10 5 0 11.5 12
0

0101000
+427 0 -429 0 *
Wi

0101100
-432 0 -430 0 +428 0 +426 0 +425 0 *
Ve
1.00000003367779e-07
3.36777869765522e-15 -21 79
0 0

0101101
*
Ed
 1e-07 1 1 0
1  6 0 0.5 3
2  11 1 0 0.5 3
0

0101000
+427 0 -423 0 *
Wi

0101000
i422 0 *
Fa
0  1e-07 1 0

0101000
+424 0 +421 0 *
Ve
1.5e-07
-11.5 -19 90
0 0

0101101
*
Ed
 1.5e-07 1 1 0
1  7 0 1.5707963267949 3.14159265358979
2  12 2 0 1.5707963267949 3.14159265358979
2  13 3 0 1.5707963267949 3.14159265358979
0

0101000
+419 0 -434 0 *
Ve
1.5e-07
11.5 -19 90
0 0

0101101
*
Ed
 1.5e-07 1 1 0
1  8 0 1.5707963267949 3.14159265358979
2  14 2 0 1.5707963267949 3.14159265358979
2  15 4 0 1.5707963267949 3.14159265358979
0

0101000
+417 0 -433 0 *
Ve
1.5e-07
-11.5 -19 127
0 0

0101101
*
Ed
 1.5e-07 1 1 0
1  9 0 11 48
2  16 2 0 11 48
2  17 6 0 11 48
0

0101000
+419 0 -415 0 *
Ve
1.5e-07
11.5 -19 127
0 0

0101101
*
Ed
 1.5e-07 1 1 0
1  10 0 11 48
2  18 2 0 11 48
2  19 7 0 11 48
0

0101000
+417 0 -413 0 *
Ve
1.5e-07
-22.7 -19 127
0 0

0101101
*
Ed
 1.5e-07 1 1 0
1  11 0 23.2 34.4
2  20 2 8 23.2 34.4
2  21 8 0 23.2 34.4
0

0101000
+415 8 -411 8 *
Ve
1.5e-07
11.7 -19 127
0 0

0101101
*
Ed
 1.5e-07 1 1 0
1  12 0 0 0.199999999999998
2  22 2 8 0 0.199999999999998
2  23 9 0 0 0.199999999999998
0

0101000
+409 8 -413 8 *
Ve
1.5e-07
-22.7 -19 149
0 0

0101101
*
Ed
 1.5e-07 1 1 0
1  13 0 0 22
2  24 2 8 0 22
2  25 10 0 0 22
0

0101000
-411 8 +407 8 *
Ve
1.5e-07
11.7 -19 149
0 0

0101101
*
Ed
 1.5e-07 1 1 0
1  14 0 0 22
2  26 2 8 0 22
2  27 11 0 0 22
0

0101000
-409 8 +405 8 *
Ed
 1e-07 1 1 0
1  15 0 0 34.4
2  28 2 0 0 34.4
2  29 12 0 0 34.4
0

0101000
+405 0 -407 0 *
Wi

0101100
-432 0 -418 0 +416 0 +414 0 -412 0 +410 7 +408 7 -406 7 +404 7 -403 0 
*
Ve
1.5e-07
-7.65 -19 90
0 0

0101101
*
Ed
 1.5e-07 1 1 0
1  16 0 0 6.28318530717959
2  30 2 0 0 6.28318530717959
2  31 13 14 0 6.28318530717959
0

0101100
+401 0 -401 0 *
Wi

0101100
-400 0 *
Ve
1.5e-07
-20.65 -19 138
0 0

0101101
*
Ed
 1.5e-07 1 1 0
1  17 0 0 6.28318530717959
2  32 2 0 0 6.28318530717959
2  33 14 20 0 6.28318530717959
0

0101100
+398 0 -398 0 *
Wi

0101100
+397 0 *
Ve
2e-07
6.8 -19 131
0 0

0101101
*
Ve
2.00000003552714e-07
-17.8 -19 131
0 0

0101101
*
Ed
 2e-07 1 1 0
1  18 0 -4.95907512081523 19.6409248791848
2  34 2 0 -4.95907512081523 19.6409248791848
2  35 15 26 -4.95907512081523 19.6409248791848
0

0101000
+395 0 -394 0 *
Ve
2.00000003552714e-07
-17.8 -19 145
0 0

0101101
*
Ed
 2e-07 1 1 0
1  19 0 -0.793145223581318 13.2068547764187
2  36 2 0 -0.793145223581318 13.2068547764187
2  37 16 26 -0.793145223581318 13.2068547764187
0

0101000
+394 0 -392 0 *
Ve
2e-07
6.8 -19 145
0 0

0101101
*
Ed
 2e-07 1 1 0
1  20 0 -4.95907512081523 19.6409248791848
2  38 2 0 -4.95907512081523 19.6409248791848
2  39 17 26 -4.95907512081523 19.6409248791848
0

0101000
+390 0 -392 0 *
Ed
 2e-07 1 1 0
1  21 0 -0.793145223581318 13.2068547764187
2  40 2 0 -0.793145223581318 13.2068547764187
2  41 18 26 -0.793145223581318 13.2068547764187
0

0101000
+395 0 -390 0 *
Wi

0101100
-393 0 -391 0 +389 0 +388 0 *
Ve
1.5e-07
-1.15 -19 83.5
0 0

0101101
*
Ed
 1.5e-07 1 1 0
1  22 0 0 6.28318530717959
2  42 2 0 0 6.28318530717959
2  43 19 32 0 6.28318530717959
0

0101100
+386 0 -386 0 *
Wi

0101100
-385 0 *
Ve
1.5e-07
-3.2 -19 90
0 0

0101101
*
Ed
 1.5e-07 1 1 0
1  23 0 0 6.28318530717959
2  44 2 0 0 6.28318530717959
2  45 20 38 0 6.28318530717959
0

0101100
+383 0 -383 0 *
Wi

0101100
-382 0 *
Ve
1.5e-07
-1.15 -19 96.5
0 0

0101101
*
Ed
 1.5e-07 1 1 0
1  24 0 0 6.28318530717959
2  46 2 0 0 6.28318530717959
2  47 21 44 0 6.28318530717959
0

0101100
+380 0 -380 0 *
Wi

0101100
-379 0 *
Ve
1.5e-07
5.35 -19 90
0 0

0101101
*
Ed
 1.5e-07 1 1 0
1  25 0 0 6.28318530717959
2  48 2 0 0 6.28318530717959
2  49 22 50 0 6.28318530717959
0

0101100
+377 0 -377 0 *
Wi

0101100
-376 0 *
Ve
1.5e-07
7.35 -19 138
0 0

0101101
*
Ed
 1.5e-07 1 1 0
1  26 0 0 6.28318530717959
2  50 2 0 0 6.28318530717959
2  51 23 56 0 6.28318530717959
0

0101100
+374 0 -374 0 *
Wi

0101100
+373 0 *
Fa
0  1.5e-07 2 0

0101000
+402 0 +399 0 +396 0 +387 0 +384 0 +381 0 +378 0 +375 0 +372 0 *
Ve
1.5e-07
-11.5 -23.5 90
0 0

0101101
*
Ed
 1.5e-07 1 1 0
1  27 0 1.5707963267949 3.14159265358979
2  52 3 0 1.5707963267949 3.14159265358979
2  53 5 0 1.5707963267949 3.14159265358979
0

0101000
+370 0 -431 0 *
Ed
 1.5e-07 1 1 0
1  28 0 -0 4.5
2  54 3 0 -0 4.5
2  55 6 0 -0 4.5
0

0101000
+370 0 -419 0 *
Wi

0101100
+369 0 -368 0 +430 0 -418 0 *
Fa
0  1e-07 3 0

0101000
+367 0 *
Ve
1.5e-07
11.5 -23.5 90
0 0

0101101
*
Ed
 1.5e-07 1 1 0
1  29 0 1.5707963267949 3.14159265358979
2  56 4 0 1.5707963267949 3.14159265358979
2  57 5 0 1.5707963267949 3.14159265358979
0

0101000
+365 0 -429 0 *
Ed
 1e-07 1 1 0
1  30 0 -0 4.5
2  58 4 0 -0 4.5
2  59 7 0 -0 4.5
4 G1 4 0 7 0
0

0101000
+365 0 -417 0 *
Wi

0101100
+364 0 -363 0 +428 0 -416 0 *
Fa
0  1e-07 4 0

0101000
+362 0 *
Ve
1.5e-07
-11.5 -23.5 112.88
0 0

0101101
*
Ed
 1.5e-07 1 1 0
1  31 0 11 33.88
2  60 5 0 11 33.88
2  61 6 0 11 33.88
0

0101000
+370 0 -360 0 *
Ve
1.5e-07
-8.62 -23.5 110
0 0

0101101
*
Ed
 1.5e-07 1 1 0
1  32 0 4.71238898038469 6.28318530717959
2  62 5 0 4.71238898038469 6.28318530717959
2  63 24 0 4.71238898038469 6.28318530717959
0

0101000
+358 0 -360 0 *
Ve
1.5e-07
-7 -23.5 110
0 0

0101101
*
Ed
 1.5e-07 1 1 0
1  33 0 2.88 4.5
2  64 5 0 2.88 4.5
2  65 25 0 2.88 4.5
0

0101000
+358 0 -356 0 *
Ve
1.5e-07
-7 -23.5 116
0 0

0101101
*
Ed
 1.5e-07 1 1 0
1  34 0 -21.5 -15.5
2  66 5 0 -21.5 -15.5
2  67 26 0 -21.5 -15.5
0

0101000
+354 0 -356 0 *
Ve
1.5e-07
-8.62 -23.5 116
0 0

0101101
*
Ed
 1.5e-07 1 1 0
1  35 0 2.88 4.5
2  68 5 0 2.88 4.5
2  69 27 0 2.88 4.5
0

0101000
+352 0 -354 0 *
Ve
1.5e-07
-11.5 -23.5 113.12
0 0

0101101
*
Ed
 1.5e-07 1 1 0
1  36 0 0 1.5707963267949
2  70 5 0 0 1.5707963267949
2  71 28 0 0 1.5707963267949
0

0101000
+350 0 -352 0 *
Ve
1.5e-07
-11.5 -23.5 127
0 0

0101101
*
Ed
 1.5e-07 1 1 0
1  37 0 34.12 48
2  72 5 0 34.12 48
2  73 6 0 34.12 48
0

0101000
+350 0 -348 0 *
Ve
1.5e-07
-22.7 -23.5 127
0 0

0101101
*
Ed
 1.5e-07 1 1 0
1  38 0 23.2 34.4
2  74 5 8 23.2 34.4
2  75 8 0 23.2 34.4
0

0101000
+348 8 -346 8 *
Ve
1.5e-07
-22.7 -23.5 149
0 0

0101101
*
Ed
 1.5e-07 1 1 0
1  39 0 0 22
2  76 5 8 0 22
2  77 10 0 0 22
0

0101000
-346 8 +344 8 *
Ve
1.5e-07
11.7 -23.5 149
0 0

0101101
*
Ed
 1e-07 1 1 0
1  40 0 0 34.4
2  78 5 0 0 34.4
2  79 12 0 0 34.4
0

0101000
+342 0 -344 0 *
Ve
1.5e-07
11.7 -23.5 127
0 0

0101101
*
Ed
 1.5e-07 1 1 0
1  41 0 0 22
2  80 5 8 0 22
2  81 11 0 0 22
0

0101000
-340 8 +342 8 *
Ve
1.5e-07
11.5 -23.5 127
0 0

0101101
*
Ed
 1.5e-07 1 1 0
1  42 0 0 0.199999999999998
2  82 5 8 0 0.199999999999998
2  83 9 0 0 0.199999999999998
0

0101000
+340 8 -338 8 *
Ed
 1.5e-07 1 1 0
1  43 0 11 48
2  84 5 0 11 48
2  85 7 0 11 48
0

0101000
+365 0 -338 0 *
Wi

0101100
+369 0 -359 0 +357 0 -355 0 +353 0 +351 0 +349 0 -347 0 -345 7 +343 7 
+341 0 -339 7 -337 7 +336 0 -364 0 +425 0 +426 0 *
Ve
1.5e-07
-20.65 -23.5 138
0 0

0101101
*
Ed
 1.5e-07 1 1 0
1  44 0 0 6.28318530717959
2  86 5 0 0 6.28318530717959
2  87 14 20 0 6.28318530717959
0

0101100
+334 0 -334 0 *
Wi

0101100
-333 0 *
Ve
2.00000003552714e-07
-17.8 -23.5 145
0 0

0101101
*
Ve
2e-07
6.8 -23.5 145
0 0

0101101
*
Ed
 2e-07 1 1 0
1  45 0 -19.4064543989802 5.19354560101979
2  88 5 0 -19.4064543989802 5.19354560101979
2  89 17 26 -19.4064543989802 5.19354560101979
0

0101000
+331 0 -330 0 *
Ve
2.00000003552714e-07
-17.8 -23.5 131
0 0

0101101
*
Ed
 2e-07 1 1 0
1  46 0 -13.4379305590354 0.562069440964647
2  90 5 0 -13.4379305590354 0.562069440964647
2  91 16 26 -13.4379305590354 0.562069440964647
0

0101000
+331 0 -328 0 *
Ve
2e-07
6.8 -23.5 131
0 0

0101101
*
Ed
 2e-07 1 1 0
1  47 0 -19.4064543989802 5.19354560101979
2  92 5 0 -19.4064543989802 5.19354560101979
2  93 15 26 -19.4064543989802 5.19354560101979
0

0101000
+328 0 -326 0 *
Ed
 2e-07 1 1 0
1  48 0 -13.4379305590354 0.562069440964647
2  94 5 0 -13.4379305590354 0.562069440964647
2  95 18 26 -13.4379305590354 0.562069440964647
0

0101000
+330 0 -326 0 *
Wi

0101100
+329 0 -327 0 -325 0 +324 0 *
Ve
1.5e-07
7.35 -23.5 138
0 0

0101101
*
Ed
 1.5e-07 1 1 0
1  49 0 0 6.28318530717959
2  96 5 0 0 6.28318530717959
2  97 23 56 0 6.28318530717959
0

0101100
+322 0 -322 0 *
Wi

0101100
-321 0 *
Ve
1e-07
-11 -23.5 90
0 0

0101101
*
Ed
 1e-07 1 1 0
1  50 0 0 4.71238898038469
2  98 5 0 0 4.71238898038469
2  99 29 62 0 4.71238898038469
0

0101000
+319 0 -427 0 *
Ed
 1e-07 1 1 0
1  51 0 4.71238898038469 6.28318530717959
2  100 5 0 4.71238898038469 6.28318530717959
2  101 29 62 4.71238898038469 6.28318530717959
0

0101000
+427 0 -319 0 *
Wi

0101100
+318 0 +317 0 *
Fa
0  1.5e-07 5 0

0101000
+335 0 +332 0 +323 0 +320 0 +316 0 *
Ve
1.5e-07
-11.5 -45.12 112.88
0 0

0101101
*
Ed
 1.5e-07 1 1 0
1  52 0 2.88 24.5
2  102 6 0 2.88 24.5
2  103 24 0 2.88 24.5
0

0101000
+314 0 -360 0 *
Ve
1.5e-07
-11.5 -45.12 113.12
0 0

0101101
*
Ed
 1.5e-07 1 1 0
1  53 0 2.88 3.12
2  104 6 0 2.88 3.12
2  105 30 0 2.88 3.12
0

0101000
+314 0 -312 0 *
Ed
 1.5e-07 1 1 0
1  54 0 2.88 24.5
2  106 6 0 2.88 24.5
2  107 28 0 2.88 24.5
0

0101000
+312 0 -350 0 *
Ed
 1.5e-07 1 1 0
1  55 0 -2.25 2.25
2  108 6 0 -2.25 2.25
2  109 8 7 -2.25 2.25
0

0101000
+348 0 -415 0 *
Wi

0101100
+359 0 -313 0 +311 0 +310 0 +347 0 +309 0 -414 0 -368 0 *
Fa
0  1.5e-07 6 0

0101000
+308 0 *
Ed
 1.5e-07 1 1 0
1  56 0 -2.25 2.25
2  110 7 0 -2.25 2.25
2  111 9 7 -2.25 2.25
0

0101000
+338 0 -413 0 *
Wi

0101100
-336 0 -306 0 +412 0 +363 0 *
Fa
0  1e-07 7 0

0101000
+305 0 *
Ed
 1e-07 1 1 0
1  57 0 0 4.5
2  112 8 0 0 4.5
2  113 10 0 0 4.5
0

0101000
-346 8 +411 8 *
Wi

0101100
-410 7 -303 7 +345 7 -309 0 *
Fa
0  1e-07 8 7

0101000
+302 0 *
Ed
 1e-07 1 1 0
1  58 0 0 4.5
2  114 9 0 0 4.5
2  115 11 0 0 4.5
0

0101000
-340 8 +409 8 *
Wi

0101100
-408 7 +306 0 +337 7 +300 7 *
Fa
0  1e-07 9 7

0101000
+299 0 *
Ed
 1.5e-07 1 1 0
1  59 0 0 4.5
2  116 10 0 0 4.5
2  117 12 8 0 4.5
0

0101000
-344 8 +407 8 *
Wi

0101100
-297 0 -343 0 +303 0 +406 0 *
Fa
0  1e-07 10 0

0111000
+296 0 *
Ed
 1.5e-07 1 1 0
1  60 0 0 4.5
2  118 11 0 0 4.5
2  119 12 8 0 4.5
0

0101000
-342 8 +405 8 *
Wi

0101100
-294 0 -339 0 +300 0 +404 0 *
Fa
0  1e-07 11 0

0111000
+293 0 *
Wi

0101000
+403 0 +297 7 -341 0 -294 7 *
Fa
0  1.5e-07 12 0

0111000
+291 0 *
Ve
1e-07
-7.65 -24 90
0 0

0101101
*
Ed
 1e-07 1 1 0
1  61 0 3 7.99999999999999
3  120 121CN 13 0 3 7.99999999999999
0

0101000
+289 63 -401 63 *
Ed
 1e-07 1 1 0
1  62 0 0 6.28318530717959
2  122 13 14 0 6.28318530717959
2  123 31 62 0 6.28318530717959
0

0101100
+289 0 -289 0 *
Wi

0101100
-400 0 +288 14 +287 0 -288 14 *
Fa
0  1e-07 13 14

0101000
+286 0 *
Ed
 1e-07 1 1 0
1  63 0 8.00000000000001 12.5
3  124 125CN 14 0 8.00000000000001 12.5
0

0101000
+398 64 -334 64 *
Wi

0101100
-333 0 +284 20 +397 0 -284 20 *
Fa
0  1e-07 14 20

0101000
+283 0 *
Ed
 1e-07 1 1 0
1  64 0 12.5 17
2  126 15 0 12.5 17
2  127 16 0 12.5 17
0

0101000
+394 65 -328 65 *
Ed
 1e-07 1 1 0
1  65 0 12.5 17
2  128 15 0 12.5 17
2  129 18 0 12.5 17
0

0101000
+395 65 -326 65 *
Wi

0101100
-281 26 -325 0 +280 26 -393 0 *
Fa
0  1e-07 15 26

0101000
+279 0 *
Ed
 1e-07 1 1 0
1  66 0 12.5 17
2  130 16 0 12.5 17
2  131 17 0 12.5 17
0

0101000
+392 65 -331 65 *
Wi

0101100
-277 26 -327 0 +281 26 -391 0 *
Fa
0  1e-07 16 26

0101000
+276 0 *
Ed
 1e-07 1 1 0
1  67 0 12.5 17
2  132 17 0 12.5 17
2  133 18 0 12.5 17
0

0101000
+390 65 -330 65 *
Wi

0101100
-277 26 -329 0 +274 26 -389 0 *
Fa
0  1e-07 17 26

0101000
+273 0 *
Wi

0101100
-274 26 -324 0 +280 26 -388 0 *
Fa
0  1e-07 18 26

0101000
+271 0 *
Ve
1e-07
-1.15 -24 83.5
0 0

0101101
*
Ed
 1e-07 1 1 0
1  68 0 3 7.99999999999999
3  134 135CN 19 0 3 7.99999999999999
0

0101000
+269 66 -386 66 *
Ed
 1e-07 1 1 0
1  69 0 0 6.28318530717959
2  136 19 32 0 6.28318530717959
2  137 31 62 0 6.28318530717959
0

0101100
+269 0 -269 0 *
Wi

0101100
-385 0 +268 32 +267 0 -268 32 *
Fa
0  1e-07 19 32

0101000
+266 0 *
Ve
1e-07
-3.2 -24 90
0 0

0101101
*
Ed
 1e-07 1 1 0
1  70 0 3 7.99999999999999
3  138 139CN 20 0 3 7.99999999999999
0

0101000
+264 67 -383 67 *
Ed
 1e-07 1 1 0
1  71 0 0 6.28318530717959
2  140 20 38 0 6.28318530717959
2  141 31 62 0 6.28318530717959
0

0101100
+264 0 -264 0 *
Wi

0101100
-382 0 +263 38 +262 0 -263 38 *
Fa
0  1e-07 20 38

0101000
+261 0 *
Ve
1e-07
-1.15 -24 96.5
0 0

0101101
*
Ed
 1e-07 1 1 0
1  72 0 3 7.99999999999999
3  142 143CN 21 0 3 7.99999999999999
0

0101000
+259 68 -380 68 *
Ed
 1e-07 1 1 0
1  73 0 0 6.28318530717959
2  144 21 44 0 6.28318530717959
2  145 31 62 0 6.28318530717959
0

0101100
+259 0 -259 0 *
Wi

0101100
-379 0 +258 44 +257 0 -258 44 *
Fa
0  1e-07 21 44

0101000
+256 0 *
Ve
1e-07
5.35 -24 90
0 0

0101101
*
Ed
 1e-07 1 1 0
1  74 0 3 7.99999999999999
3  146 147CN 22 0 3 7.99999999999999
0

0101000
+254 69 -377 69 *
Ed
 1e-07 1 1 0
1  75 0 0 6.28318530717959
2  148 22 50 0 6.28318530717959
2  149 31 62 0 6.28318530717959
0

0101100
+254 0 -254 0 *
Wi

0101100
-376 0 +253 50 +252 0 -253 50 *
Fa
0  1e-07 22 50

0101000
+251 0 *
Ed
 1e-07 1 1 0
1  76 0 8.00000000000001 12.5
3  150 151CN 23 0 8.00000000000001 12.5
0

0101000
+374 70 -322 70 *
Wi

0101100
-321 0 +249 56 +373 0 -249 56 *
Fa
0  1e-07 23 56

0101000
+248 0 *
Ve
1e-07
-8.62 -45.12 110
0 0

0101101
*
Ed
 1e-07 1 1 0
1  77 0 4.71238898038469 6.28318530717959
2  152 24 0 4.71238898038469 6.28318530717959
2  153 32 0 4.71238898038469 6.28318530717959
4 G1 24 0 32 0
0

0101000
+246 0 -314 0 *
Ed
 1e-07 1 1 0
1  78 0 2.88 24.5
2  154 24 0 2.88 24.5
2  155 25 0 2.88 24.5
4 G1 24 0 25 0
0

0101000
+246 0 -358 0 *
Wi

0101100
-245 0 -313 0 +357 0 +244 0 *
Fa
0  1e-07 24 0

0101000
+243 0 *
Ve
1e-07
-7 -45.12 110
0 0

0101101
*
Ed
 1e-07 1 1 0
1  79 0 2.88 4.5
2  156 25 0 2.88 4.5
2  157 33 0 2.88 4.5
4 G1 25 0 33 0
0

0101000
+246 0 -241 0 *
Ed
 1e-07 1 1 0
1  80 0 2.88 24.5
2  158 25 0 2.88 24.5
2  159 26 0 2.88 24.5
0

0101000
+241 0 -356 0 *
Wi

0101100
+240 0 -244 0 -355 0 +239 0 *
Fa
0  1e-07 25 0

0101000
+238 0 *
Ve
1.00000099475983e-07
-7 -47.899514978608 112.12588032535
0 0

0101101
*
Ve
1.50000001776357e-07
-7 -43.5 112.125880325351
0 0

0101101
*
Ed
 1e-07 1 1 0
1  81 0 0.100485021391954 4.5
2  160 26 0 0.100485021391954 4.5
2  161 34 0 0.100485021391954 4.5
0

0101000
+236 0 -235 0 *
Ve
1.5e-07
-7 -43.5 116
0 0

0101101
*
Ed
 1.5e-07 1 1 0
1  82 0 -6 -2.12588032535058
2  162 26 0 -6 -2.12588032535058
2  163 35 0 -6 -2.12588032535058
0

0101000
+233 0 -235 0 *
Ed
 1e-07 1 1 0
1  83 0 4.5 24.5
2  164 26 0 4.5 24.5
2  165 27 0 4.5 24.5
0

0101000
+233 0 -354 0 *
Ed
 1e-07 1 1 0
1  84 0 1.83573192016757 3.14159265358979
2  166 26 0 1.83573192016757 3.14159265358979
2  167 33 0 1.83573192016757 3.14159265358979
0

0101000
+236 0 -241 0 *
Wi

0101100
-234 0 +232 0 -231 0 -353 0 +239 0 +230 0 *
Fa
0  1e-07 26 0

0101000
+229 0 *
Ve
1.5e-07
-8.62 -43.5 116
0 0

0101101
*
Ed
 1.5e-07 1 1 0
1  85 0 2.88 4.5
2  168 27 0 2.88 4.5
2  169 35 0 2.88 4.5
0

0101000
+227 0 -233 0 *
Ed
 1e-07 1 1 0
1  86 0 4.5 24.5
2  170 27 0 4.5 24.5
2  171 28 0 4.5 24.5
4 G1 27 0 28 0
0

0101000
+227 0 -352 0 *
Wi

0101100
+226 0 -225 0 -351 0 +231 0 *
Fa
0  1e-07 27 0

0101000
+224 0 *
Ve
4.99991086772497e-06
-10.0835488370726 -45.12 115.600408192517
0 0

0101101
*
Ed
 1e-07 1 1 0
1  87 0 5.24545538920236 6.28318530717959
2  172 28 0 5.24545538920236 6.28318530717959
2  173 36 0 5.24545538920236 6.28318530717959
4 G1 28 0 36 0
0

0101000
+222 0 -312 0 *
Ve
1.00000214174424e-07
-10.0835488370726 -43.5 115.600408192516
0 0

0101101
*
Ed
 1e-07 1 1 0
1  88 0 1.03772991797716 1.5707963267949
2  174 28 0 1.03772991797716 1.5707963267949
2  175 35 0 1.03772991797716 1.5707963267949
0

0101000
+220 0 -227 0 *
Ed
 1e-07 1 1 0
1  89 0 2.88 4.5
2  176 28 0 2.88 4.5
2  177 37 0 2.88 4.5
0

0101000
+222 0 -220 0 *
Wi

0101100
-221 0 -310 0 -349 0 +225 0 +219 0 +218 0 *
Fa
0  1e-07 28 0

0101000
+217 0 *
Ve
1e-07
-11 -24 90
0 0

0101101
*
Ed
 1e-07 1 1 0
1  90 0 0 0.5
3  178 179CN 29 0 0 0.5
0

0101000
+215 71 -319 71 *
Ed
 1e-07 1 1 0
1  91 0 0 6.28318530717959
2  180 29 0 0 6.28318530717959
2  181 31 0 0 6.28318530717959
0

0101000
+215 71 -215 71 *
Wi

0101100
-318 0 -317 0 +214 62 +213 62 -214 62 *
Fa
0  1e-07 29 62

0101000
+212 0 *
Ve
1e-07
-8.62 -48 112.88
0 0

0101101
*
Ed
 1e-07 1 1 0
1  92 0 0 1.5707963267949
2  182 30 0 0 1.5707963267949
2  183 32 0 0 1.5707963267949
4 G1 30 0 32 0
0

0101000
+314 0 -210 0 *
Ve
1e-07
-8.62 -48 113.12
0 0

0101101
*
Ed
 1e-07 1 1 0
1  93 0 0 1.5707963267949
2  184 30 0 0 1.5707963267949
2  185 36 0 0 1.5707963267949
4 G1 30 0 36 0
0

0101000
+312 0 -208 0 *
Ed
 1e-07 1 1 0
1  94 0 2.88 3.12
2  186 30 0 2.88 3.12
2  187 38 0 2.88 3.12
0

0101000
+210 0 -208 0 *
Wi

0101100
-311 0 +209 0 -207 0 +206 0 *
Fa
0  1e-07 30 0

0101000
+205 0 *
Wi

0101100
+213 62 *
Wi

0101100
-267 0 *
Wi

0101100
-252 0 *
Wi

0101100
-262 0 *
Wi

0101100
-287 0 *
Wi

0101100
-257 0 *
Fa
0  1e-07 31 62

0101000
+203 0 +202 0 +201 0 +200 0 +199 0 +198 0 *
Ed
 1e-07 1 1 1
2  188 32 0 0 1.5707963267949
0

0101000
+246 0 -246 0 *
Ed
 1e-07 1 1 0
1  95 0 4.71238898038469 6.28318530717959
2  189 32 0 4.71238898038469 6.28318530717959
2  190 33 0 4.71238898038469 6.28318530717959
4 G1 32 0 33 0
0

0101000
+246 0 -210 0 *
Wi

0101100
-245 0 +196 0 +195 0 -209 0 *
Fa
0  1e-07 32 0

0101000
+194 0 *
Ve
1.00000106596212e-07
-7.92061992019544 -48 112.88
0 0

0101101
*
Ed
 1e-07 1 1 0
1  96 0 2.88 3.57938007980456
2  191 33 0 2.88 3.57938007980456
2  192 38 0 2.88 3.57938007980456
0

0101000
+210 0 -192 0 *
Ed
 1e-07 1 1 0
1  97 0 0 0.999999360283832
2  193 33 0 0 0.999999360283832
2  194 34 0 0 0.999999360283832
0

0101000
+192 0 -236 0 *
Wi

0101100
-195 0 -191 0 -190 0 -230 0 +240 0 *
Fa
0  1e-07 33 0

0101000
+189 0 *
Ve
1e-07
-0.500000000000002 -43.5 110
0 0

0101101
*
Ed
 1e-07 1 1 0
1  98 0 2.50940740490905 3.14159265358979
2  195 34 0 2.50940740490905 3.14159265358979
2  196 35 0 2.50940740490905 3.14159265358979
0

0101000
+235 0 -187 0 *
Ve
1e-07
-0.500000000000002 -48 110
0 0

0101101
*
Ed
 1e-07 1 1 0
1  99 0 0 4.5
2  197 34 0 0 4.5
2  198 39 0 0 4.5
4 G1 34 0 39 0
0

0101000
+185 0 -187 0 *
Ed
 1e-07 1 1 0
1  100 0 2.40116750312914 3.14159265358979
2  199 34 0 2.40116750312914 3.14159265358979
2  200 38 0 2.40116750312914 3.14159265358979
0

0101000
+192 0 -185 0 *
Wi

0101100
-190 0 -234 0 -186 0 +184 0 +183 0 *
Fa
0  1e-07 34 0

0101000
+182 0 *
Ve
1e-07
0.500000000000002 -43.5 110
0 0

0101101
*
Ed
 1e-07 1 1 0
1  101 0 11 12
2  201 35 0 11 12
2  202 39 0 11 12
0

0101000
+187 0 -180 0 *
Ve
1e-07
11.5 -43.5 121
0 0

0101101
*
Ed
 1e-07 1 1 0
1  102 0 1.5707963267949 3.14159265358979
2  203 35 0 1.5707963267949 3.14159265358979
2  204 40 0 1.5707963267949 3.14159265358979
0

0101000
+178 0 -180 0 *
Ve
1e-07
11.5 -43.5 138
0 0

0101101
*
Ed
 1e-07 1 1 0
1  103 0 11 28
2  205 35 0 11 28
2  206 41 0 11 28
0

0101000
+178 0 -176 0 *
Ve
1e-07
0.500000000000002 -43.5 149
0 0

0101101
*
Ed
 1e-07 1 1 0
1  104 0 4.71238898038469 6.28318530717959
2  207 35 0 4.71238898038469 6.28318530717959
2  208 42 0 4.71238898038469 6.28318530717959
0

0101000
+176 0 -174 0 *
Ve
1e-07
-0.500000000000002 -43.5 149
0 0

0101101
*
Ed
 1e-07 1 1 0
1  105 0 11 12
2  209 35 0 11 12
2  210 43 0 11 12
0

0101000
+172 0 -174 0 *
Ve
1e-07
-11.5 -43.5 138
0 0

0101101
*
Ed
 1e-07 1 1 0
1  106 0 4.71238898038469 6.28318530717959
2  211 35 0 4.71238898038469 6.28318530717959
2  212 44 0 4.71238898038469 6.28318530717959
0

0101000
+170 0 -172 0 *
Ve
1e-07
-11.5 -43.5 121
0 0

0101101
*
Ed
 1e-07 1 1 0
1  107 0 11 28
2  213 35 0 11 28
2  214 45 0 11 28
0

0101000
+168 0 -170 0 *
Ed
 1e-07 1 1 0
1  108 0 1.5707963267949 2.08388665961015
2  215 35 0 1.5707963267949 2.08388665961015
2  216 37 0 1.5707963267949 2.08388665961015
0

0101000
+168 0 -220 0 *
Wi

0101100
-179 0 +177 0 -175 0 -173 0 +171 0 +169 0 +167 0 -166 0 -219 0 -226 0 
-232 0 -186 0 *
Fa
0  1e-07 35 0

0101000
+165 0 *
Ve
4.99991111304235e-06
-8.62 -47.9631267896945 113.579380079805
0 0

0101101
*
Ed
 1e-07 1 1 0
1  109 0 6.12299409644522 6.28318530717959
2  217 36 0 6.12299409644522 6.28318530717959
2  218 46 0 6.12299409644522 6.28318530717959
4 G1 36 0 46 0
0

0101000
+163 0 -208 0 *
Ed
 4.99991086772497e-06 1 1 0
1  110 0 0 1
2  219 36 0 0 1
2  220 37 0 0 1
0

0101000
+222 0 -163 0 *
Wi

0101100
-221 0 -207 0 +162 0 +161 0 *
Fa
0  1e-07 36 0

0101000
+160 0 *
Ve
1e-07
-11.5 -48 121
0 0

0101101
*
Ed
 1e-07 1 1 0
1  111 0 -0 4.5
2  221 37 0 -0 4.5
2  222 45 0 -0 4.5
4 G1 37 0 45 0
0

0101000
+158 0 -168 0 *
Ve
1.04482688431182e-07
-8.17499837133592 -48 113.12
0 0

0101101
*
Ed
 1.04482036965782e-07 1 1 0
1  112 0 0 1
2  223 37 0 0 1
2  224 46 0 0 1
0

0101000
+156 0 -163 0 *
Ed
 1e-07 1 1 0
1  113 0 1.5707963267949 2.36937287543544
2  225 37 0 1.5707963267949 2.36937287543544
2  226 38 0 1.5707963267949 2.36937287543544
0

0101000
+158 0 -156 0 *
Wi

0101100
-157 0 -166 0 +218 0 -161 0 +155 0 +154 0 *
Fa
0  1e-07 37 0

0101000
+153 0 *
Ve
1e-07
0.500000000000002 -48 110
0 0

0101101
*
Ed
 1e-07 1 1 0
1  114 0 11 12
2  227 38 0 11 12
2  228 39 0 11 12
0

0101000
+185 0 -151 0 *
Ve
1e-07
11.5 -48 121
0 0

0101101
*
Ed
 1e-07 1 1 0
1  115 0 1.5707963267949 3.14159265358979
2  229 38 0 1.5707963267949 3.14159265358979
2  230 40 0 1.5707963267949 3.14159265358979
0

0101000
+149 0 -151 0 *
Ve
1e-07
11.5 -48 138
0 0

0101101
*
Ed
 1e-07 1 1 0
1  116 0 11 28
2  231 38 0 11 28
2  232 41 0 11 28
0

0101000
+149 0 -147 0 *
Ve
1e-07
0.500000000000002 -48 149
0 0

0101101
*
Ed
 1e-07 1 1 0
1  117 0 4.71238898038469 6.28318530717959
2  233 38 0 4.71238898038469 6.28318530717959
2  234 42 0 4.71238898038469 6.28318530717959
0

0101000
+147 0 -145 0 *
Ve
1e-07
-0.500000000000002 -48 149
0 0

0101101
*
Ed
 1e-07 1 1 0
1  118 0 11 12
2  235 38 0 11 12
2  236 43 0 11 12
0

0101000
+143 0 -145 0 *
Ve
1e-07
-11.5 -48 138
0 0

0101101
*
Ed
 1e-07 1 1 0
1  119 0 4.71238898038469 6.28318530717959
2  237 38 0 4.71238898038469 6.28318530717959
2  238 44 0 4.71238898038469 6.28318530717959
0

0101000
+141 0 -143 0 *
Ed
 1e-07 1 1 0
1  120 0 11 28
2  239 38 0 11 28
2  240 45 0 11 28
0

0101000
+158 0 -141 0 *
Ed
 1e-07 1 1 0
1  121 0 2.88 3.32500162866408
2  241 38 0 2.88 3.32500162866408
2  242 46 0 2.88 3.32500162866408
0

0101000
+208 0 -156 0 *
Wi

0101100
+150 0 -148 0 +146 0 +144 0 -142 0 -140 0 -139 0 +154 0 -138 0 -206 0 
+191 0 +183 0 *
Fa
0  1e-07 38 0

0101000
+137 0 *
Ed
 1e-07 1 1 0
1  122 0 0 4.5
2  243 39 0 0 4.5
2  244 40 0 0 4.5
4 G1 39 0 40 0
0

0101000
+151 0 -180 0 *
Wi

0101100
-179 0 -184 0 +135 0 +150 0 *
Fa
0  1e-07 39 0

0101000
+134 0 *
Ed
 1e-07 1 1 0
1  123 0 -0 4.5
2  245 40 0 -0 4.5
2  246 41 0 -0 4.5
4 G1 40 0 41 0
0

0101000
+149 0 -178 0 *
Wi

0101100
+148 0 -132 0 +135 0 -177 0 *
Fa
0  1e-07 40 0

0101000
+131 0 *
Ed
 1e-07 1 1 0
1  124 0 -0 4.5
2  247 41 0 -0 4.5
2  248 42 0 -0 4.5
4 G1 41 0 42 0
0

0101000
+147 0 -176 0 *
Wi

0101100
-146 0 +132 0 -129 0 +175 0 *
Fa
0  1e-07 41 0

0101000
+128 0 *
Ed
 1e-07 1 1 0
1  125 0 0 4.5
2  249 42 0 0 4.5
2  250 43 0 0 4.5
4 G1 42 0 43 0
0

0101000
+145 0 -174 0 *
Wi

0101100
+144 0 -129 0 +126 0 -173 0 *
Fa
0  1e-07 42 0

0101000
+125 0 *
Ed
 1e-07 1 1 0
1  126 0 0 4.5
2  251 43 0 0 4.5
2  252 44 0 0 4.5
4 G1 43 0 44 0
0

0101000
+143 0 -172 0 *
Wi

0101100
-171 0 -123 0 +126 0 +142 0 *
Fa
0  1e-07 43 0

0101000
+122 0 *
Ed
 1e-07 1 1 0
1  127 0 -0 4.5
2  253 44 0 -0 4.5
2  254 45 0 -0 4.5
4 G1 44 0 45 0
0

0101000
+141 0 -170 0 *
Wi

0101100
+140 0 -120 0 +123 0 -169 0 *
Fa
0  1e-07 44 0

0101000
+119 0 *
Wi

0101100
-139 0 +157 0 -120 0 +167 0 *
Fa
0  1e-07 45 0

0101000
+117 0 *
Wi

0101100
-162 0 -138 0 -155 0 *
Fa
0  1e-07 46 0

0101000
+115 0 *
Sh

0101100
-420 0 +371 0 -366 0 +361 0 +315 0 +307 0 +304 0 +301 0 +298 0 +295 7 
-292 7 +290 0 -285 0 -282 0 -278 0 -275 0 +272 0 +270 0 -265 0 -260 0 
-255 0 -250 0 -247 0 -242 0 -237 0 +228 0 +223 0 +216 0 +211 0 +204 0 
-197 0 +193 0 +188 0 -181 0 +164 0 -159 0 -152 0 +136 0 -133 0 +130 0 
+127 0 -124 0 +121 0 +118 0 -116 0 -114 0 *
So

0100000
+113 0 *
Ve
1e-07
6 -7.5 144.2
0 0

0101101
*
Ve
1.5e-07
6 -23.5 144.2
0 0

0101101
*
Ed
 1e-07 1 1 0
1  128 0 0 16
2  255 47 0 0 16
2  256 48 0 0 16
0

0101000
+111 78 -110 78 *
Ve
1.5e-07
6 -23.5 131.8
0 0

0101101
*
Ed
 1.5e-07 1 1 0
1  129 0 -12.4 0
2  257 47 0 -12.4 0
2  258 49 0 -12.4 0
0

0101000
+108 78 -110 78 *
Ve
1e-07
6 -7.5 131.8
0 0

0101101
*
Ed
 1e-07 1 1 0
1  130 0 0 16
2  259 47 0 0 16
2  260 50 0 0 16
0

0101000
+106 78 -108 78 *
Ed
 1e-07 1 1 0
1  131 0 0 12.4
2  261 47 0 0 12.4
2  262 51 0 0 12.4
0

0101000
-106 78 +111 78 *
Wi

0101100
-109 0 +107 0 +105 0 +104 0 *
Fa
0  1e-07 47 0

0101000
+103 0 *
Ve
1e-07
10.7 -23.5 131.8
0 0

0101101
*
Ed
 1e-07 1 1 0
1  132 0 0 4.7
2  263 49 0 0 4.7
2  264 50 0 0 4.7
0

0101000
+101 78 -108 78 *
Ve
1e-07
10.7 -23.5 144.2
0 0

0101101
*
Ed
 1e-07 1 1 0
1  133 0 0 4.7
2  265 49 0 0 4.7
2  266 48 0 0 4.7
0

0101000
+99 78 -110 78 *
Ed
 1e-07 1 1 0
1  134 0 0 12.4
2  267 49 0 0 12.4
2  268 52 0 0 12.4
0

0101000
-101 78 +99 78 *
Wi

0101100
-100 0 -107 0 +98 0 -97 0 *
Fa
0  1e-07 49 0

0101000
+96 0 *
Ve
1e-07
-17 -7.5 131.8
0 0

0101101
*
Ed
 1e-07 1 1 0
1  135 0 0 23
2  269 51 0 0 23
2  270 50 0 0 23
0

0101000
-94 78 +106 78 *
Ve
1e-07
-17 -7.5 144.2
0 0

0101101
*
Ed
 1e-07 1 1 0
1  136 0 0 12.4
2  271 51 0 0 12.4
2  272 53 0 0 12.4
0

0101000
-94 78 +92 78 *
Ed
 1e-07 1 1 0
1  137 0 0 23
2  273 51 0 0 23
2  274 48 0 0 23
0

0101000
-92 78 +111 78 *
Wi

0101100
-104 0 -93 0 +91 0 +90 0 *
Fa
0  1e-07 51 0

0111000
+89 0 *
Ve
1.5e-07
-17 -23.5 144.2
0 0

0101101
*
Ed
 1e-07 1 1 0
1  138 0 0 16
2  275 53 0 0 16
2  276 48 0 0 16
0

0101000
+92 78 -87 78 *
Ve
1.5e-07
-17 -23.5 131.8
0 0

0101101
*
Ed
 1.5e-07 1 1 0
1  139 0 -12.4 0
2  277 53 0 -12.4 0
2  278 54 0 -12.4 0
0

0101000
+85 78 -87 78 *
Ed
 1e-07 1 1 0
1  140 0 0 16
2  279 53 0 0 16
2  280 50 0 0 16
0

0101000
+94 78 -85 78 *
Wi

0101100
-86 0 +84 0 +83 0 +91 0 *
Fa
0  1e-07 53 0

0101000
+82 0 *
Ve
1e-07
10.7 -26 144.2
0 0

0101101
*
Ed
 1e-07 1 1 0
1  141 0 0 2.5
2  281 52 0 0 2.5
2  282 48 0 0 2.5
0

0101000
-80 78 +99 78 *
Ve
1e-07
10.7 -26 131.8
0 0

0101101
*
Ed
 1e-07 1 1 0
1  142 0 0 12.4
2  283 52 0 0 12.4
2  284 55 0 0 12.4
0

0101000
-78 78 +80 78 *
Ed
 1e-07 1 1 0
1  143 0 0 2.5
2  285 52 0 0 2.5
2  286 50 0 0 2.5
0

0101000
-78 78 +101 78 *
Wi

0101100
-79 0 -77 0 +76 0 +97 0 *
Fa
0  1e-07 52 0

0111000
+75 0 *
Ve
1e-07
-21.7 -23.5 131.8
0 0

0101101
*
Ed
 1e-07 1 1 0
1  144 0 27.7 32.4
2  287 54 0 27.7 32.4
2  288 50 0 27.7 32.4
0

0101000
+85 78 -73 78 *
Ve
1e-07
-21.7 -23.5 144.2
0 0

0101101
*
Ed
 1e-07 1 1 0
1  145 0 0 12.4
2  289 54 0 0 12.4
2  290 56 0 0 12.4
0

0101000
-73 78 +71 78 *
Ed
 1e-07 1 1 0
1  146 0 27.7 32.4
2  291 54 0 27.7 32.4
2  292 48 0 27.7 32.4
0

0101000
+87 78 -71 78 *
Wi

0101100
-72 0 +70 0 +69 0 +84 0 *
Fa
0  1e-07 54 0

0101000
+68 0 *
Ve
1.5e-07
6 -26 131.8
0 0

0101101
*
Ed
 1e-07 1 1 0
1  147 0 0 4.7
2  293 55 0 0 4.7
2  294 50 0 0 4.7
0

0101000
+78 78 -66 78 *
Ve
1.5e-07
6 -26 144.2
0 0

0101101
*
Ed
 1.5e-07 1 1 0
1  148 0 -12.4 0
2  295 55 0 -12.4 0
2  296 57 0 -12.4 0
0

0101000
+66 78 -64 78 *
Ed
 1e-07 1 1 0
1  149 0 0 4.7
2  297 55 0 0 4.7
2  298 48 0 0 4.7
0

0101000
+80 78 -64 78 *
Wi

0101100
-65 0 -63 0 +62 0 -77 0 *
Fa
0  1e-07 55 0

0101000
+61 0 *
Ve
1e-07
-21.7 -26 144.2
0 0

0101101
*
Ed
 1e-07 1 1 0
1  150 0 0 2.5
2  299 56 0 0 2.5
2  300 48 0 0 2.5
0

0101000
-59 78 +71 78 *
Ve
1e-07
-21.7 -26 131.8
0 0

0101101
*
Ed
 1e-07 1 1 0
1  151 0 0 12.4
2  301 56 0 0 12.4
2  302 58 0 0 12.4
0

0101000
-57 78 +59 78 *
Ed
 1e-07 1 1 0
1  152 0 0 2.5
2  303 56 0 0 2.5
2  304 50 0 0 2.5
0

0101000
-57 78 +73 78 *
Wi

0101100
-58 0 -56 0 +55 0 +70 0 *
Fa
0  1e-07 56 0

0111000
+54 0 *
Ve
1.5e-07
-17 -26 131.8
0 0

0101101
*
Ed
 1e-07 1 1 0
1  153 0 27.7 32.4
2  305 58 0 27.7 32.4
2  306 50 0 27.7 32.4
0

0101000
+52 78 -57 78 *
Ve
1.5e-07
-17 -26 144.2
0 0

0101101
*
Ed
 1e-07 1 1 0
1  154 0 27.7 32.4
2  307 58 0 27.7 32.4
2  308 48 0 27.7 32.4
0

0101000
+50 78 -59 78 *
Ed
 1.5e-07 1 1 0
1  155 0 -12.4 0
2  309 58 0 -12.4 0
2  310 59 0 -12.4 0
0

0101000
+52 78 -50 78 *
Wi

0101100
-51 0 +56 0 +49 0 +48 0 *
Fa
0  1e-07 58 0

0101000
+47 0 *
Ve
1e-07
-17 -30 144.2
0 0

0101101
*
Ed
 1e-07 1 1 0
1  156 0 18.5 22.5
2  311 59 0 18.5 22.5
2  312 48 0 18.5 22.5
0

0101000
+50 78 -45 78 *
Ve
1e-07
-17 -30 131.8
0 0

0101101
*
Ed
 1e-07 1 1 0
1  157 0 0 12.4
2  313 59 0 0 12.4
2  314 60 0 0 12.4
0

0101000
-43 78 +45 78 *
Ed
 1e-07 1 1 0
1  158 0 18.5 22.5
2  315 59 0 18.5 22.5
2  316 50 0 18.5 22.5
0

0101000
+52 78 -43 78 *
Wi

0101100
-44 0 -42 0 +41 0 -48 0 *
Fa
0  1e-07 59 0

0101000
+40 0 *
Ve
1e-07
6 -30 131.8
0 0

0101101
*
Ve
1e-07
6 -30 144.2
0 0

0101101
*
Ed
 1e-07 1 1 0
1  159 0 0 12.4
2  317 60 0 0 12.4
2  318 57 0 0 12.4
0

0101000
-38 78 +37 78 *
Ed
 1e-07 1 1 0
1  160 0 0 23
2  319 60 0 0 23
2  320 50 0 0 23
0

0101000
-43 78 +38 78 *
Ed
 1e-07 1 1 0
1  161 0 0 23
2  321 60 0 0 23
2  322 48 0 0 23
0

0101000
-45 78 +37 78 *
Wi

0101100
-36 0 -35 0 +34 0 +42 0 *
Ve
1e-07
-5.9 -30 138
0 0

0101101
*
Ed
 1e-07 1 1 0
1  162 0 0 6.28318530717959
2  323 60 0 0 6.28318530717959
2  324 61 0 0 6.28318530717959
0

0101000
+32 78 -32 78 *
Wi

0101100
-31 0 *
Fa
0  1e-07 60 0

0101000
+33 0 +30 0 *
Ed
 1e-07 1 1 0
1  163 0 18.5 22.5
2  325 57 0 18.5 22.5
2  326 48 0 18.5 22.5
0

0101000
+64 78 -37 78 *
Ed
 1e-07 1 1 0
1  164 0 18.5 22.5
2  327 57 0 18.5 22.5
2  328 50 0 18.5 22.5
0

0101000
+66 78 -38 78 *
Wi

0101100
-28 0 -36 0 +27 0 -63 0 *
Fa
0  1e-07 57 0

0101000
+26 0 *
Ve
1e-07
-5.9 -34 138
0 0

0101101
*
Ed
 1e-07 1 1 0
1  165 0 0 6.28318530717959
2  329 61 0 0 6.28318530717959
2  330 62 0 0 6.28318530717959
0

0101000
+24 78 -24 78 *
Ed
 1e-07 1 1 0
1  166 0 0 4
3  331 332CN 61 0 0 4
0

0101000
+32 78 -24 78 *
Wi

0101100
-23 0 +22 0 +31 0 -22 0 *
Fa
0  1e-07 61 0

0101000
+21 0 *
Ve
1e-07
-9 -34 138
0 0

0101101
*
Ed
 1e-07 1 1 0
1  167 0 0 6.28318530717959
2  333 62 0 0 6.28318530717959
2  334 63 0 0 6.28318530717959
0

0101000
+19 78 -19 78 *
Wi

0101100
+18 0 *
Wi

0101100
-23 0 *
Fa
0  1e-07 62 0

0101000
+17 0 +16 0 *
Ve
1e-07
-9 -36 138
0 0

0101101
*
Ed
 1e-07 1 1 0
1  168 0 0 6.28318530717959
2  335 63 0 0 6.28318530717959
2  336 64 0 0 6.28318530717959
0

0101000
+14 78 -14 78 *
Ed
 1e-07 1 1 0
1  169 0 0 2
3  337 338CN 63 0 0 2
0

0101000
-14 78 +19 78 *
Wi

0101100
-13 0 +12 0 +18 0 -12 0 *
Fa
0  1e-07 63 0

0111000
+11 0 *
Wi

0101100
+13 0 *
Fa
0  1e-07 64 0

0111000
+9 0 *
Wi

0101100
+86 0 +69 0 +58 0 -49 0 +44 0 -34 0 -28 0 -62 0 -79 0 +98 0 
-109 0 +90 0 *
Fa
0  1e-07 48 0

0101000
+7 0 *
Wi

0101100
-83 0 -93 0 +105 0 -100 0 +76 0 +65 0 +27 0 +35 0 -41 0 +51 0 
-55 0 -72 0 *
Fa
0  1e-07 50 0

0101000
+5 0 *
Sh

0101100
-102 0 -95 0 -88 0 +81 0 -74 0 -67 0 +60 0 +53 0 +46 0 +39 0 
+29 0 -25 0 +20 0 -15 0 +10 0 +8 0 +6 0 +4 0 *
So

0100000
+3 0 *
Co

1100000
+112 0 +2 77 *

+1 1 