DBRep_DrawableShape

CASCADE Topology V1, (c) Matra-Datavision
Locations 78
1
              1               0               0              -0 
              0               1               0             -30 
              0               0               1             -65 
1
             -1 -1.22464679914735e-16               0               0 
1.22464679914735e-16              -1               0               0 
              0               0               1               0 
1
              1               0               0               0 
              0               1               0               0 
              0               0               1               0 
1
              1               0               0               0 
              0 1.11022302462516e-16              -1               0 
              0               1 1.11022302462516e-16               0 
1
              1               0               0               0 
              0               1               0               0 
              0               0               1               0 
1
              1               0               0               0 
              0               1               0              30 
              0               0               1              90 
2  2 1 3 1 4 1 5 1 6 1 0
2  6 -1 5 -1 4 -1 3 -1 2 -1 0
1
             -1 -1.22464679914735e-16               0               0 
1.22464679914735e-16              -1               0               0 
              0               0               1               0 
1
              1               0               0               0 
              0               1               0               0 
              0               0               1               0 
1
              1               0               0               0 
              0 1.11022302462516e-16               1               0 
              0              -1 1.11022302462516e-16               0 
1
              1               0               0               0 
              0               1               0               0 
              0               0               1               0 
1
              1               0               0               0 
              0               1               0              30 
              0               0               1              40 
2  9 1 10 1 11 1 12 1 13 1 0
1
             -1 -1.22464679914735e-16               0               0 
1.22464679914735e-16              -1               0               0 
              0               0               1               0 
1
              1               0               0               0 
              0               1               0               0 
              0               0               1               0 
1
              1               0               0               0 
              0 1.11022302462516e-16              -1               0 
              0               1 1.11022302462516e-16               0 
1
              1               0               0               0 
              0               1               0               0 
              0               0               1               0 
1
              1               0               0               0 
              0               1               0              30 
              0               0               1              90 
2  15 1 16 1 17 1 18 1 19 1 0
1
             -1 -1.22464679914735e-16               0               0 
1.22464679914735e-16              -1               0               0 
              0               0               1               0 
1
              1               0               0               0 
              0               1               0               0 
              0               0               1               0 
1
              1               0               0               0 
              0 1.11022302462516e-16              -1               0 
              0               1 1.11022302462516e-16               0 
1
              1               0               0               0 
              0               1               0               0 
              0               0               1               0 
1
              1               0               0               0 
              0               1               0              30 
              0               0               1              90 
2  21 1 22 1 23 1 24 1 25 1 0
1
             -1 -1.22464679914735e-16               0               0 
1.22464679914735e-16              -1               0               0 
              0               0               1               0 
1
              1               0               0               0 
              0               1               0               0 
              0               0               1               0 
1
              1               0               0               0 
              0 1.11022302462516e-16               1               0 
              0              -1 1.11022302462516e-16               0 
1
              1               0               0               0 
              0               1               0               0 
              0               0               1               0 
1
              1               0               0               0 
              0               1               0              30 
              0               0               1              40 
2  27 1 28 1 29 1 30 1 31 1 0
1
             -1 -1.22464679914735e-16               0               0 
1.22464679914735e-16              -1               0               0 
              0               0               1               0 
1
              1               0               0               0 
              0               1               0               0 
              0               0               1               0 
1
              1               0               0               0 
              0 1.11022302462516e-16               1               0 
              0              -1 1.11022302462516e-16               0 
1
              1               0               0               0 
              0               1               0               0 
              0               0               1               0 
1
              1               0               0               0 
              0               1               0              30 
              0               0               1              40 
2  33 1 34 1 35 1 36 1 37 1 0
1
             -1 -1.22464679914735e-16               0               0 
1.22464679914735e-16              -1               0               0 
              0               0               1               0 
1
              1               0               0               0 
              0               1               0               0 
              0               0               1               0 
1
              1               0               0               0 
              0 1.11022302462516e-16               1               0 
              0              -1 1.11022302462516e-16               0 
1
              1               0               0               0 
              0               1               0               0 
              0               0               1               0 
1
              1               0               0               0 
              0               1               0              30 
              0               0               1              40 
2  39 1 40 1 41 1 42 1 43 1 0
1
             -1 -1.22464679914735e-16               0               0 
1.22464679914735e-16              -1               0               0 
              0               0               1               0 
1
              1               0               0               0 
              0               1               0               0 
              0               0               1               0 
1
              1               0               0               0 
              0 1.11022302462516e-16               1               0 
              0              -1 1.11022302462516e-16               0 
1
              1               0               0               0 
              0               1               0               0 
              0               0               1               0 
1
              1               0               0               0 
              0               1               0              30 
              0               0               1              40 
2  45 1 46 1 47 1 48 1 49 1 0
1
             -1 -1.22464679914735e-16               0               0 
1.22464679914735e-16              -1               0               0 
              0               0               1               0 
1
              1               0               0               0 
              0               1               0               0 
              0               0               1               0 
1
              1               0               0               0 
              0 1.11022302462516e-16              -1               0 
              0               1 1.11022302462516e-16               0 
1
              1               0               0               0 
              0               1               0               0 
              0               0               1               0 
1
              1               0               0               0 
              0               1               0              30 
              0               0               1              90 
2  51 1 52 1 53 1 54 1 55 1 0
1
             -1 -1.22464679914735e-16               0               0 
1.22464679914735e-16              -1               0               0 
              0               0               1               0 
1
              1               0               0               0 
              0               1               0               0 
              0               0               1               0 
1
              1               0               0               0 
              0 1.11022302462516e-16               1               0 
              0              -1 1.11022302462516e-16               0 
1
              1               0               0               0 
              0               1               0               0 
              0               0               1               0 
1
              1               0               0               0 
              0               1               0              30 
              0               0               1              40 
2  57 1 58 1 59 1 60 1 61 1 0
2  13 -1 12 -1 11 -1 10 -1 9 -1 0
2  19 -1 18 -1 17 -1 16 -1 15 -1 0
2  25 -1 24 -1 23 -1 22 -1 21 -1 0
2  31 -1 30 -1 29 -1 28 -1 27 -1 0
2  37 -1 36 -1 35 -1 34 -1 33 -1 0
2  43 -1 42 -1 41 -1 40 -1 39 -1 0
2  49 -1 48 -1 47 -1 46 -1 45 -1 0
2  55 -1 54 -1 53 -1 52 -1 51 -1 0
2  61 -1 60 -1 59 -1 58 -1 57 -1 0
1
             -1 -1.22464679914735e-16               0               0 
1.22464679914735e-16              -1               0               0 
              0               0               1               0 
1
              1               0               0               0 
              0               1               0               0 
              0               0               1               0 
1
              1               0               0               0 
              0 1.11022302462516e-16              -1               0 
              0               1 1.11022302462516e-16               0 
1
              1               0               0               0 
              0               1               0               0 
              0               0               1               0 
1
              1               0               0               0 
              0               1               0              30 
              0               0               1              90 
2  72 1 73 1 74 1 75 1 76 1 0
2  76 -1 75 -1 74 -1 73 -1 72 -1 0
Curve2ds 329
1 0 4.5 1 0 
1 -40.656700550601343 -8.4433020058805273 0 1 
1 10.999999999999998 0 0 1 
1 1.5707963267948966 0 0 1 
1 12.000000000000002 0 0 1 
1 1.5707963267948966 0 0 1 
1 0 0 1 0 
1 40.458976963463385 -8.3922359296008153 0 1 
1 0 0 1 0 
1 40.458976963463385 -8.3922359296008153 0 1 
8 0.049999999999997158 3.0000005999999999
1 11.5 -0.5 0 1 
2 -29.656700550601343 2.5566979941194719 1 0 0 -1 11
1 -1.5707963267948966 4.5 1 0 
2 -29.656700550601343 3.5566979941194745 1 0 -0 1 11
1 -1.5707963267948966 4.5 1 0 
1 -40.656700550601343 -8.4433020058805273 1 0 
1 32.367490771957179 -8.6019420766603005 -1 0 
1 -40.656700550601343 14.556697994119473 1 0 
1 0 -4.5 1 0 
1 9.343299449398657 14.75669799411947 1.2246467991473532e-16 -1 
1 0 0 0 1 
1 9.343299449398657 14.75669799411947 1.2246467991473532e-16 -1 
1 0 0 0 1 
1 31.343299449398657 -19.643302005880525 -1 -1.2246467991473532e-16 
1 0 0 0 -1 
1 31.343299449398657 14.756697994119474 -1 -1.2246467991473532e-16 
1 0 0 0 -1 
1 31.343299449398657 14.756697994119474 1.2246467991473532e-16 -1 
1 17.200000000000003 2.25 -1 1.3596310734468911e-32 
2 -29.656700550601343 -3.4433020058805268 -1.2246467991473532e-16 -1 1 -1.2246467991473532e-16 1.1499999999999999
1 6.679274664138223e-65 8.0000000000000142 1 0 
2 20.343299449398657 -16.443302005880525 1.2246467991473532e-16 -1 -1 -1.2246467991473532e-16 1.1499999999999999
1 6.679274664138223e-65 7.9999999999999858 1 0 
8 -4.9283489970597349 19.671651002940266
1 13.343299449398657 4.9283489970597367 1.2246467991473532e-16 -1 
8 -4.9283489970597349 19.671651002940266
1 12.499999999999986 4.9283489970597349 1.3596310734468911e-32 1 
8 -0.32835027530066263 13.671649724699337
1 13.671649724699321 -14.743302005880532 1 1.2246467991473532e-16 
8 -0.32835027530066263 13.671649724699337
1 12.499999999999984 -13.671649724699337 1.1102230246251565e-16 1 
8 -4.9283489970597349 19.671651002940266
1 27.343299449398657 4.9283489970597385 1.2246467991473532e-16 -1 
8 -4.9283489970597349 19.671651002940266
1 12.499999999999986 4.9283489970597349 1.3596310734468911e-32 1 
8 -0.32835027530066263 13.671649724699337
1 13.671649724699321 9.8566979941194734 1 1.2246467991473532e-16 
8 -0.32835027530066263 13.671649724699337
1 12.499999999999984 -13.671649724699337 1.1102230246251565e-16 1 
2 -36.156700550601343 3.0566979941194741 -1.2246467991473532e-16 -1 1 -1.2246467991473532e-16 1.1499999999999999
1 6.679274664138223e-65 8.0000000000000142 1 0 
2 -29.656700550601343 3.0566979941194732 -1.2246467991473532e-16 -1 1 -1.2246467991473532e-16 3.2000000000000002
1 6.679274664138223e-65 8.0000000000000142 1 0 
2 -23.156700550601343 3.0566979941194723 -1.2246467991473532e-16 -1 1 -1.2246467991473532e-16 1.1499999999999999
1 6.679274664138223e-65 8.0000000000000142 1 0 
2 -29.656700550601343 9.5566979941194727 -1.2246467991473532e-16 -1 1 -1.2246467991473532e-16 1.1499999999999999
1 6.679274664138223e-65 8.0000000000000142 1 0 
2 20.343299449398657 11.556697994119473 1.2246467991473532e-16 -1 -1 -1.2246467991473532e-16 1.1499999999999999
1 6.679274664138223e-65 7.9999999999999858 1 0 
1 -1.5707963267948966 0 1 0 
2 29.458976963463385 2.6077640703991842 -1 0 -0 -1 11
1 0 0 0 1 
1 21.367490771957179 -4.1019420766603005 0 -1 
1 -1.5707963267948966 0 1 0 
2 29.458976963463385 3.6077640703991869 -1 0 0 1 11
1 0 0 0 1 
1 11 0 0 -1 
1 40.458976963463385 -8.3922359296008153 -1 0 
1 32.367490771957179 -4.1019420766603005 -1 0 
1 9.4495927902647807 -8.3922359296008153 0 1 
8 -5.999999999062311e-07 4.5000005999999999
1 1.5082555649984057 0 0 1 
1 24.958976963463385 -3.8922359296008144 1 0 
8 -25.500000000000004 -15.499999999999996
1 -15.5 -24.5 -1 -0 
1 -0.53163886333801713 -8.3922359296008153 0 1 
8 -5.999999999062311e-07 4.5000005999999999
1 1.508255564998406 0 0 1 
1 40.458976963463385 -8.3922359296008153 -1 0 
1 32.367490771957179 -4.1019420766603005 -1 0 
1 -9.5410230365366147 14.807764070399184 -1.2246467991473532e-16 -1 
1 4.5 0 0 1 
1 -31.541023036536615 -19.592235929600815 1 -1.2246467991473532e-16 
1 4.5 0 0 -1 
1 -31.541023036536615 14.807764070399188 -1.2246467991473532e-16 -1 
1 17.200000000000003 -2.25 -1 1.3596310734468911e-32 
1 -31.541023036536615 14.807764070399188 1 -1.2246467991473532e-16 
1 4.5 0 0 -1 
1 -9.5410230365366147 14.807764070399184 -1.2246467991473532e-16 -1 
1 4.5 0 0 1 
1 40.458976963463385 14.607764070399185 -1 0 
1 0 0 1 0 
2 -20.541023036536615 -16.392235929600815 -1.2246467991473532e-16 -1 1 -1.2246467991473532e-16 1.1499999999999999
1 6.679274664138223e-65 12.5 1 0 
8 -19.646117964800411 4.9538820351995909
1 -27.541023036536615 4.9538820351995945 1.2246467991473532e-16 1 
8 -19.646117964800411 4.9538820351995909
1 17 4.9538820351995909 -1.3596310734468911e-32 -1 
8 -13.770511518268309 0.2294884817316909
1 -13.770511518268307 -14.69223592960082 1 -1.2246467991473532e-16 
8 -13.770511518268309 0.2294884817316909
1 17 -13.770511518268309 -1.1102230246251565e-16 -1 
8 -19.646117964800411 4.9538820351995909
1 -13.541023036536615 4.9538820351995927 1.2246467991473532e-16 1 
8 -19.646117964800411 4.9538820351995909
1 17 4.9538820351995909 -1.3596310734468911e-32 -1 
8 -13.770511518268309 0.2294884817316909
1 -13.770511518268307 9.9077640703991854 1 -1.2246467991473532e-16 
8 -13.770511518268309 0.2294884817316909
1 17 -13.770511518268309 -1.1102230246251565e-16 -1 
2 -20.541023036536615 11.607764070399185 -1.2246467991473532e-16 -1 1 -1.2246467991473532e-16 1.1499999999999999
1 6.679274664138223e-65 12.5 1 0 
2 29.458976963463385 3.1077640703991856 1.2246467991473532e-16 -1 -1 -1.2246467991473532e-16 11
1 6.679274664138223e-65 0.5 1 0 
2 29.458976963463385 3.1077640703991856 1.2246467991473532e-16 -1 -1 -1.2246467991473532e-16 11
1 6.679274664138223e-65 0.5 1 0 
1 -17.632509228042821 -6.3519420766603005 1.1102230246251565e-16 -1 
8 -2.25 2.25
1 2.25 23.199999999999996 -1 0 
2 -3.432509228042818 -3.8019420766603034 -1 0 -0 -1 4.7999999999999972
1 -1.5707963267948966 0 1 0 
1 1.3674907719571792 20.398057923339699 0 -1 
1 0 0 0 1 
2 -3.432509228042818 15.598057923339702 -1 0 0 1 4.7999999999999972
1 -1.5707963267948966 0 1 0 
1 1.3674907719571792 20.398057923339699 -1 0 
1 19.979976967982438 -11.133670215473961 -1 0 
2 -3.8325092280428237 15.598057923339702 -1 0 -0 -1 4.7999999999999972
1 -4.7123889803846897 0 1 0 
1 -8.6325092280428208 20.398057923339699 0 -1 
1 0 0 0 1 
2 -3.8325092280428237 -3.8019420766603034 -1 0 0 1 4.7999999999999972
1 -4.7123889803846897 0 1 0 
8 -2.25 2.25
1 50 -2.25 -1.1102230246251565e-16 -1 
8 -2.25 2.25
1 2.25 0.19999999999999751 -1 0 
1 0 34.399999999999999 1 0 
1 0 -22 1 0 
1 0 0 1 0 
1 0 -22 1 0 
1 0 0 1 0 
1 -17.199999999999999 2.25 0 -1 
1 0 0 1 0 
1 17.200000000000003 2.25 0 -1 
1 6.2831853071795862 -0 0 1 
1 0 -0 0 1 
1 6.679274664138223e-65 3 1 0 
2 6.5 7.9602041944577955e-16 1 0 -0 1 1.1499999999999999
1 6.2831853071795862 -0 0 1 
1 0 -0 0 1 
1 0 24.600000000000001 1 0 
1 0 -14 1 0 
1 0 0 1 0 
1 0 -14 1 0 
1 0 0 1 0 
1 0 24.600000000000001 1 0 
1 0 0 1 0 
1 0 0 1 0 
1 6.2831853071795862 -0 0 1 
1 0 -0 0 1 
1 6.679274664138223e-65 3 1 0 
2 3.6977854932234928e-32 -6.5 1 0 -0 1 1.1499999999999999
1 6.2831853071795862 -0 0 1 
1 0 -0 0 1 
1 6.679274664138223e-65 3 1 0 
2 0 0 1 0 -0 1 3.2000000000000002
1 6.2831853071795862 -0 0 1 
1 0 -0 0 1 
1 6.679274664138223e-65 3 1 0 
2 -3.6977854932234928e-32 6.5 1 0 -0 1 1.1499999999999999
1 6.2831853071795862 -0 0 1 
1 0 -0 0 1 
1 6.679274664138223e-65 3 1 0 
2 -6.5 -7.9602041944577955e-16 1 0 -0 1 1.1499999999999999
1 6.2831853071795862 -0 0 1 
1 0 -0 0 1 
1 -1.5707963267948966 4.5 1 0 
2 4.7999999999999972 -24.200000000000003 1 0 0 -1 4.7999999999999998
1 1.5707963267948966 0 0 1 
1 0 24.200000000000003 1 0 
8 -5.999999999062311e-07 4.5000005999999999
1 2.1258803253505718 0 0 -1 
8 -5.999999999062311e-07 4.5000005999999999
1 0.9386110781141519 0 0 1 
8 -10.000000000000004 0
1 0 -4.5 -1 -0 
8 -10.000000000000004 0
1 0 4.5 -1 0 
2 5.2000000000000028 -4.7999999999999972 1 0 0 -1 4.7999999999999998
1 -4.7123889803846897 4.5 1 0 
1 10 0 0 -1 
1 4.5 0 0 1 
2 5.2000000000000028 -24.200000000000003 1 0 -0 1 4.7999999999999998
1 -4.7123889803846897 4.5 1 0 
1 0 0 0 -1 
1 4.5 0 0 1 
2 4.7999999999999972 -4.7999999999999972 1 0 -0 1 4.7999999999999998
1 -1.5707963267948966 4.5 1 0 
1 1.5707963267948966 0 0 1 
1 0 24.200000000000003 1 0 
1 6.2831853071795862 -0 0 1 
1 0 -0 0 1 
1 0 0 1 0 
2 0 0 1 0 -0 1 11
1 0 4.7999999999999972 1 0 
1 1.5707963267948966 0 0 1 
1 0 0 0 1 
1 15.179976967982441 -11.133670215473961 0 1 
7 0 0  7 8 2  0 1.913746646719563  0.10112547522854097 2.2449606274209546  0.19517380211055269 2.5973329747043583  0.28327392639015198 2.9646503081735718  0.36620200171976425 3.3415304284486602  0.44466434046975251 3.7242025150472209  0.51932698482073592 4.1104995790224947  0.59089965441623682 4.5000005999999999 
 0 8 1 8
7 0 0  7 8 2  0.59878147653025693 -2.6645352591003757e-15  0.65220308632080393 -2.7420058202291989e-15  0.70415767741131474 0.057266476348267273  0.75437578122019811 0.15737968985919346  0.80281635975700372 0.28979786489127407  0.84954222702784321 0.44665952925757552  0.89471935522014712 0.62249499544228604  0.9386111457264904 0.81388891082956727 
 0 8 1 8
1 14.779976967982435 -11.133670215473961 0 1 
1 0 0 0 1 
2 8.9799769679824379 -0.13367021547396202 -1 0 -0 -1 11
1 -1.5707963267948966 0 1 0 
1 19.979976967982438 -11.133670215473961 0 1 
1 0 0 1 0 
2 8.9799769679824379 0.8663297845260407 -1 0 0 1 11
1 -1.5707963267948966 0 1 0 
1 19.979976967982438 11.866329784526039 -1 0 
1 0 0 1 0 
2 -10.020023032017562 0.8663297845260407 -1 0 -0 -1 11
1 -4.7123889803846897 0 1 0 
1 -21.020023032017562 -11.133670215473961 0 1 
1 0 0 1 0 
2 -10.020023032017562 -0.13367021547396202 -1 0 0 1 11
1 -4.7123889803846897 0 1 0 
1 19.979976967982438 -11.133670215473961 -1 0 
1 0 0 1 0 
2 8.9799769679824379 -0.13367021547396202 -1 0 -0 -1 11
1 -1.5707963267948966 0 1 0 
7 0 0  7 38 7  0 1.6533428435616582  0.015851386397260577 1.6061278243399735  0.031847620828457622 1.5594822176249394  0.047985065881343991 1.5134479717732863  0.064260327847323856 1.4680641249112978  0.080670256721452685 1.4233668049348149  0.09721194620243731 1.3793892295092294  0.14582537193433526 1.2533341165430787  0.1782623134772289 1.1732073598537416  0.21112531884535052 1.0961323703282735  0.24435005969145052 1.0223809530916301  0.27787445752742551 0.95215103874403539  0.31163702245474784 0.88557193803809142  0.37296485053865602 0.77197680503683841  0.40044850243381586 0.7237026262064532  0.42799059783075855 0.67791992080036734  0.45555503370171463 0.63463388268170173  0.48310442456069536 0.59382515387553381  0.51059937328342575 0.55545293960336761  0.55154073615555776 0.50166591110443581  0.56506202853338583 0.4844521134060939  0.57855895017492798 0.46780664085838941  0.59202871704787563 0.45171890565527939  0.60546842997344774 0.43617782154886608  0.61887507462639035 0.42117180384939684  0.6571766661111782 0.37968304346869719  0.68197656149175168 0.35450161825816162  0.70663971951651683 0.33104921831038892  0.73115990265693898 0.30923103813426828  0.75553000592388564 0.28895343444519989  0.77974193877538223 0.2701246183794469  0.91221869085645857 0.17387534429187923  1.0169024666029158 0.12299389258832007  1.1186039294215815 0.090372363832325164  1.2179515121249997 0.069594869567364104  1.3155760249925617 0.056586334176238033  1.412107623160171 0.049067590007909508  1.5082556902432653 0.046409553632734912 
 0 8 0.076455097757419377 6 0.22294952885943753 6 0.34117725083992606 6 0.39961713013411365 6 0.50858679208036128 6 1 8
7 0 0  7 38 7  0.55538765325358153 -2.6645352591003757e-15  0.54724713269811875 -2.6659381237235454e-15  0.53908020303197923 0.0014070870373246885  0.53089174750034629 0.0042675638896398577  0.52268660097204489 0.0086255394485545926  0.51446954993954164 0.01452292871963193  0.5062453325189461 0.021999452822386197  0.48225559709856414 0.048515952459807381  0.46647345597606549 0.07188575595083721  0.45073012069435242 0.10145196325203877  0.43508079578888975 0.13738312434314606  0.41957817345090448 0.17976361282355521  0.40427262225952226 0.22859081334091938  0.37705806667147579 0.32830630584478271  0.36507257033583052 0.37694584783752966  0.35328178020818829 0.42962739543517275  0.34171054653351413 0.48624705034954946  0.33038256171513686 0.54665936566320628  0.31932024552936855 0.61067615592546065  0.30321825137898673 0.71137571704983871  0.29796116985236487 0.74551477412077616  0.29277501219166691 0.78046083040728431  0.28766134980544406 0.81619068772338299  0.28262169907938967 0.85267959775109969  0.27765752137633909 0.88990126204047171  0.26365714384480049 0.9985474426286195  0.25481332255397604 1.0717026769780209  0.24624221185958145 1.1471529649789429  0.23794697980193549 1.2247514304251312  0.22993043252584103 1.3043447631258702  0.222194937040536 1.385773091048971  0.18113388270737418 1.8436057685457605  0.15338549834315937 2.2510801046073676  0.13111434316878484 2.6810639649690335  0.11402874853035003 3.1259747300403098  0.10188623582175446 3.5801813649230594  0.094524786998306812 4.0393921445027541  0.091891462101112653 4.5000005999999999 
 0 8 0.076455097757419377 6 0.22294952885943753 6 0.34117725083992606 6 0.39961713013411365 6 0.50858679208036128 6 1 8
8 -5.999999999062311e-07 4.5000005999999999
1 1.508255564998406 0 0 1 
8 -5.999999999062311e-07 4.5000005999999999
1 9.9906158268014025 0 0 1 
1 1.5707963267948966 0 0 1 
1 0 4.7999999999999972 1 0 
1 -1.5707963267948966 4.5 1 0 
2 11 10.999999999999998 1 0 0 -1 11
1 1.5707963267948966 0 0 1 
1 10.999999999999998 0 0 1 
1 0 0 0 1 
1 0 4.5 1 0 
2 11 12.000000000000002 1 0 -0 1 11
1 -1.5707963267948966 4.5 1 0 
1 0 23 1 0 
1 0 -4.5 1 0 
2 30 12.000000000000002 1 0 0 -1 11
1 -4.7123889803846897 4.5 1 0 
1 41 0 0 1 
1 0 4.5 1 0 
2 30 10.999999999999998 1 0 -0 1 11
1 -4.7123889803846897 4.5 1 0 
1 0 0 1 0 
1 0 -4.5 1 0 
2 11 10.999999999999998 1 0 0 -1 11
1 -1.5707963267948966 4.5 1 0 
1 12.000000000000002 0 0 1 
1 1.5707963267948966 0 0 1 
1 0 0 0 1 
1 11 0 0 -1 
1 30 0 0 -1 
1 0 0 0 1 
1 1.5707963267948966 0 0 1 
1 12.000000000000002 0 0 1 
1 10.999999999999998 0 0 1 
1 1.5707963267948966 0 0 1 
1 0 0 0 1 
1 30 0 0 -1 
1 11 0 0 -1 
1 0 0 0 1 
1 0 0 1 0 
1 12.277322404371587 -11.5 -1 0 
8 -12.4 0
1 16 0 0 1 
8 -12.4 0
1 4.6999999999999993 0 0 -1 
1 0 -12.4 1 0 
1 -12.277322404371578 -11.500000000000002 1 0 
1 0 0 0 -1 
1 0 0 0 1 
1 0 12.4 1 0 
1 3.7226775956284222 -16.200000000000003 0 1 
1 0 0 1 0 
1 -3.7226775956284133 -16.199999999999999 0 1 
1 0 0 0 1 
1 0 0 0 -1 
1 0 12.4 1 0 
1 -12.277322404371578 -11.500000000000002 0 1 
1 23 0 0 1 
1 0 0 0 -1 
1 0 0 1 0 
1 12.277322404371587 -11.5 0 1 
1 0 0 1 0 
1 12.277322404371587 11.5 -1 0 
8 -12.4 0
1 16 0 0 1 
8 -12.4 0
1 27.699999999999999 0 0 -1 
1 0 -12.4 1 0 
1 -12.277322404371578 11.499999999999998 1 0 
1 0 0 1 0 
1 -3.7226775956284133 -16.199999999999999 -1 0 
1 2.5 0 0 -1 
1 0 0 0 1 
1 0 -12.4 1 0 
1 3.7226775956284222 -16.200000000000003 1 0 
1 0 12.4 1 0 
1 3.7226775956284222 -16.200000000000003 0 1 
1 32.399999999999999 0 0 1 
1 0 0 0 -1 
1 0 0 1 0 
1 -3.7226775956284133 -16.199999999999999 0 1 
1 0 12.4 1 0 
1 6.2226775956284222 -16.200000000000003 0 1 
8 -12.4 0
1 4.6999999999999993 0 0 -1 
8 -12.4 0
1 18.5 0 0 1 
1 0 0 1 0 
1 -6.2226775956284133 -16.199999999999999 0 1 
1 0 0 1 0 
1 -3.7226775956284133 16.199999999999999 -1 0 
1 2.5 0 0 -1 
1 32.399999999999999 0 0 1 
1 0 -12.4 1 0 
1 3.7226775956284222 16.199999999999996 1 0 
1 0 12.4 1 0 
1 6.2226775956284222 -16.200000000000003 0 1 
1 0 0 1 0 
1 -6.2226775956284133 -16.199999999999999 0 1 
8 -12.4 0
1 27.699999999999999 0 0 -1 
8 -12.4 0
1 18.5 0 0 1 
1 0 0 1 0 
1 12.277322404371587 11.5 -1 0 
1 22.5 0 0 -1 
1 23 0 0 1 
1 0 -12.4 1 0 
1 -12.277322404371578 11.499999999999998 1 0 
1 0 0 0 1 
1 22.5 0 0 -1 
1 0 12.4 1 0 
1 10.222677595628422 -11.500000000000002 0 1 
1 0 0 1 0 
1 -10.222677595628413 -11.5 0 1 
2 6 6.2000000000000002 1 0 -0 1 5.9000000000000004
1 0 0 1 0 
1 0 0 1 0 
1 12.277322404371587 -11.5 -1 0 
1 0 -12.4 1 0 
1 -12.277322404371578 -11.500000000000002 1 0 
1 0 4 1 0 
2 0 0 1 0 -0 1 5.9000000000000004
1 6.2831853071795862 -0 0 1 
1 0 -0 0 1 
2 0 0 1 0 -0 1 9
1 0 0 1 0 
1 0 2 1 0 
2 0 0 1 0 -0 1 9
1 6.2831853071795862 -0 0 1 
1 0 -0 0 1 
Curves 165
1 -11.5 41 29 1 0 -0 
1 -0.500000000000002 36.5 29 -0 1 0 
1 0.500000000000002 36.5 29 -0 1 0 
1 -11.5 36.5 29 1 0 -0 
1 -11.5 36.5 29 1 0 -0 
1 0 36 29 0 1 1.1102230246251565e-16 
8 1.5707963267948966 3.1415926535897931
2 -0.50000000000000133 41 40 0 -1 -0 0 0 1 -1 -0 0 11
8 1.5707963267948966 3.1415926535897931
2 0.50000000000000133 41 40 -0 1 0 0 0 1 1 0 -0 11
1 -11.5 41 29 0 0 1 
1 11.5 41 29 0 0 1 
1 -11.699999999999999 11 -11 1 0 -0 
1 -11.699999999999999 11 -11 1 0 -0 
1 22.699999999999999 -11 -11 -0 1 0 
1 -11.699999999999999 -11 -11 -0 1 0 
1 11.700000000000001 41 101 -1 1.3596310734468911e-32 1.2246467991473532e-16 
2 -6.5 41.000000000000014 40 0 1 1.1102230246251565e-16 -1 1.3596310734468911e-32 -1.2246467991473532e-16 -1.2246467991473532e-16 -1.1102230246251565e-16 1 1.1499999999999999
2 -19.5 41.000000000000014 90 0 -1 1.1102230246251565e-16 -1 1.3596310734468911e-32 1.2246467991473532e-16 -1.2246467991473532e-16 -1.1102230246251565e-16 -1 1.1499999999999999
1 1.8716510029402638 41.000000000000014 83 -1 0 1.2246467991473532e-16 
1 -17.800000000000004 41.000000000000014 83.328350275300664 1.2246467991473532e-16 -0 1 
1 1.8716510029402655 41.000000000000014 97 -1 0 1.2246467991473532e-16 
1 6.7999999999999998 41.000000000000014 83.328350275300664 1.2246467991473532e-16 -0 1 
2 7.9602041944577955e-16 41.000000000000014 33.5 0 1 1.1102230246251565e-16 -1 1.3596310734468911e-32 -1.2246467991473532e-16 -1.2246467991473532e-16 -1.1102230246251565e-16 1 1.1499999999999999
2 0 41.000000000000014 40 0 1 1.1102230246251565e-16 -1 1.3596310734468911e-32 -1.2246467991473532e-16 -1.2246467991473532e-16 -1.1102230246251565e-16 1 3.2000000000000002
2 -7.9602041944577955e-16 41.000000000000014 46.5 0 1 1.1102230246251565e-16 -1 1.3596310734468911e-32 -1.2246467991473532e-16 -1.2246467991473532e-16 -1.1102230246251565e-16 1 1.1499999999999999
2 6.5 41.000000000000014 40 0 1 1.1102230246251565e-16 -1 1.3596310734468911e-32 -1.2246467991473532e-16 -1.2246467991473532e-16 -1.1102230246251565e-16 1 1.1499999999999999
2 8.5 41.000000000000014 90 0 -1 1.1102230246251565e-16 -1 1.3596310734468911e-32 1.2246467991473532e-16 -1.2246467991473532e-16 -1.1102230246251565e-16 -1 1.1499999999999999
8 1.5707963267948966 3.1415926535897931
2 -0.50000000000000133 36.5 40 0 -1 -0 0 0 1 -1 -0 0 11
1 -11.500000000000002 36.5 40 -0 1 0 
8 1.5707963267948966 3.1415926535897931
2 0.50000000000000133 36.5 40 -0 1 0 0 0 1 1 0 -0 11
1 11.500000000000002 36.5 40 -0 1 0 
1 -11.5 36.5 29 0 0 1 
1 -11.5 36.5 60.009384173198605 1 0 -0 
1 -7 36.5 44.5 -0 0 -1 
1 -11.5 36.5 69.990615826801402 1 0 -0 
1 -11.5 36.5 29 0 0 1 
1 -11.699999999999999 11 -6.5 1 0 -0 
1 22.699999999999999 -11 -6.5 -0 1 0 
1 11.700000000000001 36.5 101 -1 1.3596310734468911e-32 1.2246467991473532e-16 
1 -11.699999999999999 -11 -6.5 -0 1 0 
1 -11.699999999999999 11 -6.5 1 0 -0 
1 11.5 36.5 29 0 0 1 
2 -19.5 36.5 90 0 -1 1.1102230246251565e-16 -1 1.3596310734468911e-32 1.2246467991473532e-16 -1.2246467991473532e-16 -1.1102230246251565e-16 -1 1.1499999999999999
1 1.8461179648004094 36.5 97 1 0 -1.2246467991473532e-16 
1 -17.800000000000004 36.5 83.229488481731693 -1.2246467991473532e-16 0 -1 
1 1.8461179648004076 36.5 83 1 0 -1.2246467991473532e-16 
1 6.7999999999999989 36.5 83.229488481731693 -1.2246467991473532e-16 0 -1 
2 8.5 36.5 90 0 -1 1.1102230246251565e-16 -1 1.3596310734468911e-32 1.2246467991473532e-16 -1.2246467991473532e-16 -1.1102230246251565e-16 -1 1.1499999999999999
2 0 36.5 40 0 1 1.1102230246251565e-16 -1 1.3596310734468911e-32 -1.2246467991473532e-16 -1.2246467991473532e-16 -1.1102230246251565e-16 1 11
2 0 36.5 40 0 1 1.1102230246251565e-16 -1 1.3596310734468911e-32 -1.2246467991473532e-16 -1.2246467991473532e-16 -1.1102230246251565e-16 1 11
1 -11.5 38.75 79 -0 1 -1.1102230246251565e-16 
8 1.5707963267948966 3.1415926535897931
2 -11.5 36.200000000000003 64.799999999999997 -1 -0 0 0 0 1 -0 1 0 4.7999999999999998
1 -11.5 12 60 -0 1 0 
8 1.5707963267948966 3.1415926535897931
2 -11.5 16.799999999999997 64.799999999999997 1 0 -0 0 0 1 0 -1 0 4.7999999999999998
1 -11.5 12 60 0 0 1 
8 4.7123889803846897 6.2831853071795862
2 -11.5 16.799999999999997 65.200000000000003 -1 -0 0 0 0 1 -0 1 0 4.7999999999999998
1 -11.5 12 70 -0 1 0 
8 4.7123889803846897 6.2831853071795862
2 -11.5 36.200000000000003 65.200000000000003 1 0 -0 0 0 1 0 -1 0 4.7999999999999998
1 11.5 38.75 79 -0 1 -1.1102230246251565e-16 
1 22.699999999999999 11 -11 0 0 1 
1 -11.699999999999999 11 -11 0 0 1 
1 22.699999999999999 -11 -11 0 0 1 
1 -11.699999999999999 -11 -11 0 0 1 
1 7.6500000000000004 -2.8166876380389135e-16 3 0 0 1 
2 -6.5 36 40 0 1 1.1102230246251565e-16 -1 1.3596310734468911e-32 -1.2246467991473532e-16 -1.2246467991473532e-16 -1.1102230246251565e-16 1 1.1499999999999999
1 20.649999999999999 -2.8166876380389037e-16 -19 0 0 1 
1 17.800000000000001 7 -23.5 0 0 1 
1 -6.7999999999999998 7 -23.5 0 0 1 
1 17.800000000000001 -7 -23.5 0 0 1 
1 -6.7999999999999998 -7 -23.5 0 0 1 
1 1.1499999999999999 -6.5 3 0 0 1 
2 7.9602041944577955e-16 36 33.5 0 1 1.1102230246251565e-16 -1 1.3596310734468911e-32 -1.2246467991473532e-16 -1.2246467991473532e-16 -1.1102230246251565e-16 1 1.1499999999999999
1 3.2000000000000002 -7.8377395145430609e-16 3 0 0 1 
2 0 36 40 0 1 1.1102230246251565e-16 -1 1.3596310734468911e-32 -1.2246467991473532e-16 -1.2246467991473532e-16 -1.1102230246251565e-16 1 3.2000000000000002
1 1.1499999999999999 6.5 3 0 0 1 
2 -7.9602041944577955e-16 36 46.5 0 1 1.1102230246251565e-16 -1 1.3596310734468911e-32 -1.2246467991473532e-16 -1.2246467991473532e-16 -1.1102230246251565e-16 1 1.1499999999999999
1 -5.3499999999999996 -2.8166876380389116e-16 3 0 0 1 
2 6.5 36 40 0 1 1.1102230246251565e-16 -1 1.3596310734468911e-32 -1.2246467991473532e-16 -1.2246467991473532e-16 -1.1102230246251565e-16 1 1.1499999999999999
1 -7.3499999999999996 -2.8166876380389116e-16 -19 0 0 1 
8 1.5707963267948966 3.1415926535897931
2 -7 36.200000000000003 64.799999999999997 -1 -0 0 0 0 1 -0 1 0 4.7999999999999998
1 -11.5 36.200000000000003 60 1 0 -0 
1 -7 12 62.125880325350572 -0 1 0 
1 -7 16.5 60 -0 0 -1 
8 4.7123889803846897 6.2831853071795862
2 -7 16.799999999999997 65.200000000000003 -1 -0 0 0 0 1 -0 1 0 4.7999999999999998
1 -7 12 70 -0 1 0 
8 4.7123889803846897 6.2831853071795862
2 -7 36.200000000000003 65.200000000000003 1 0 -0 0 0 1 0 -1 0 4.7999999999999998
1 -7 12 60 -0 1 0 
8 1.5707963267948966 3.1415926535897931
2 -7 16.799999999999997 64.799999999999997 1 0 -0 0 0 1 0 -1 0 4.7999999999999998
1 -11.5 36.200000000000003 70 1 0 -0 
1 11 -2.6942229581241772e-15 6 0 0 1 
2 0 0 6 0 0 1 1 0 -0 -0 1 0 11
1 -11.5 16.799999999999997 60 1 0 -0 
1 -11.5 11.999999999999996 64.799999999999997 1 0 -0 
7 0 0  7 8 2  -9.586253353280437 11.999999999999996 64.799999999999997  -9.255039372579045 11.999999999999996 64.314597718903002  -8.9026670252956048 12.057266476348298 63.863168018465238  -8.535349691826525 12.157379689859123 63.448382108253973  -8.1584695715512385 12.289797864891341 63.069586111214463  -7.7757974849528209 12.44665952925755 62.724773094164881  -7.3895004209775053 12.622494995442285 62.411176497826546  -6.9999994000000001 12.813888910829567 62.12587988587039 
 0 8 1 8
1 -11.5 11.999999999999996 65.200000000000003 1 0 -0 
8 1.5707963267948966 3.1415926535897931
2 -0.50000000000000133 12 71 0 -1 -0 0 0 1 -1 -0 0 11
1 -11.5 12 60 1 0 -0 
8 1.5707963267948966 3.1415926535897931
2 0.50000000000000133 12 71 -0 1 0 0 0 1 1 0 -0 11
1 11.5 12 60 0 0 1 
8 4.7123889803846897 6.2831853071795862
2 0.50000000000000133 12 90 0 -1 -0 0 0 1 -1 -0 0 11
1 -11.5 12 101 1 0 -0 
8 4.7123889803846897 6.2831853071795862
2 -0.50000000000000133 12 90 -0 1 0 0 0 1 1 0 -0 11
1 -11.5 12 60 0 0 1 
8 1.5707963267948966 3.1415926535897931
2 -0.50000000000000133 12 71 0 -1 -0 0 0 1 -1 -0 0 11
7 0 0  7 38 7  -9.8466571564383418 11.999999999999998 65.200000000000003  -9.8938721756600252 11.999999999999998 65.276086654706873  -9.9405177823750588 12.001407087037324 65.352868627035136  -9.9865520282267148 12.004267563889641 65.430297118359618  -10.031935875088704 12.008625539448557 65.508322073060995  -10.076633195065186 12.014522928719634 65.586892178525915  -10.120610770490771 12.021999452822389 65.665954865147029  -10.246665883456922 12.048515952459809 65.897787788963754  -10.326792640146257 12.071885755950834 66.051827088876877  -10.403867629671726 12.101451963252037 66.206959368145277  -10.477619046908371 12.137383124343147 66.362560808912534  -10.547848961255966 12.179763612823555 66.518005032174372  -10.614428061961908 12.228590813340917 66.672669516570707  -10.728023194963161 12.32830630584478 66.949639951990918  -10.776297373793549 12.376945847837529 67.072339254968284  -10.822080079199633 12.429627395435174 67.193710458405533  -10.865366117318299 12.486247050349549 67.313430005296098  -10.906174846124467 12.546659365663206 67.43118371226781  -10.944547060396632 12.610676155925461 67.546670232519403  -10.998334088895563 12.711375717049838 67.715427856510573  -11.015547886593906 12.745514774120776 67.77063549304161  -11.032193359141612 12.780460830407284 67.825202590929649  -11.04828109434472 12.816190687723381 67.879105117918144  -11.063822178451135 12.8526795977511 67.932319846914794  -11.078828196150605 12.889901262040469 67.984824355991549  -11.120316956531301 12.998547442628618 68.133134712528644  -11.14549838174184 13.071702676978022 68.227107189932468  -11.168950781689611 13.147152964978945 68.318434237550179  -11.19076896186573 13.224751430425133 68.407042800369311  -11.211046565554801 13.30434476312587 68.492867599910653  -11.229875381620555 13.385773091048971 68.575851742727707  -11.326124655708121 13.843605768545761 69.01714904543266  -11.377006107411679 14.251080104607382 69.318458961473667  -11.409627636167675 14.681063964968988 69.561390083356244  -11.430405130432636 15.125974730040365 69.748212484889166  -11.443413665823762 15.580181364923032 69.881144959274565  -11.45093240999209 16.039392144502756 69.961771501938728  -11.453590446367265 16.500000600000003 69.990615864374817 
 0 8 0.076455097757419377 6 0.22294952885943753 6 0.34117725083992606 6 0.39961713013411365 6 0.50858679208036128 6 1 8
1 -11.5 16.5 69.990615826801402 1 0 -0 
1 -11.5 16.799999999999997 70 1 0 -0 
8 1.5707963267948966 3.1415926535897931
2 -0.50000000000000133 16.5 71 0 -1 -0 0 0 1 -1 -0 0 11
1 -0.500000000000002 12 60 -0 1 0 
1 -11.5 16.5 60 1 0 -0 
8 1.5707963267948966 3.1415926535897931
2 0.50000000000000133 16.5 71 -0 1 0 0 0 1 1 0 -0 11
1 11.5 16.5 60 0 0 1 
8 4.7123889803846897 6.2831853071795862
2 0.50000000000000133 16.5 90 0 -1 -0 0 0 1 -1 -0 0 11
1 -11.5 16.5 101 1 0 -0 
8 4.7123889803846897 6.2831853071795862
2 -0.50000000000000133 16.5 90 -0 1 0 0 0 1 1 0 -0 11
1 -11.5 16.5 60 0 0 1 
8 1.5707963267948966 3.1415926535897931
2 -0.50000000000000133 16.5 71 0 -1 -0 0 0 1 -1 -0 0 11
1 0.500000000000002 12 60 -0 1 0 
1 11.500000000000002 12 71 -0 1 0 
1 11.500000000000002 12 90 -0 1 0 
1 0.500000000000002 12 101 -0 1 0 
1 -0.500000000000002 12 101 -0 1 0 
1 -11.500000000000002 12 90 -0 1 0 
1 -11.500000000000002 12 71 -0 1 0 
1 -6 -6.2000000000000002 -22.5 0 0 1 
1 -6 -6.2000000000000002 -6.5 0 -1 0 
1 -6 6.2000000000000002 -22.5 0 0 1 
1 -6 -6.2000000000000002 -22.5 -0 1 0 
1 -10.699999999999999 6.2000000000000002 -6.5 1 0 -0 
1 -10.699999999999999 -6.2000000000000002 -6.5 1 0 -0 
1 -10.699999999999999 -6.2000000000000002 -6.5 -0 1 0 
1 -6 6.2000000000000002 -22.5 1 0 -0 
1 17 -6.2000000000000002 -22.5 -0 1 0 
1 -6 -6.2000000000000002 -22.5 1 0 -0 
1 17 -6.2000000000000002 -22.5 0 0 1 
1 17 -6.2000000000000002 -6.5 0 -1 0 
1 17 6.2000000000000002 -22.5 0 0 1 
1 -10.699999999999999 -6.2000000000000002 -6.5 0 0 1 
1 -10.699999999999999 -6.2000000000000002 -4 -0 1 0 
1 -10.699999999999999 6.2000000000000002 -6.5 0 0 1 
1 -10.699999999999999 6.2000000000000002 -6.5 1 0 -0 
1 21.699999999999999 -6.2000000000000002 -6.5 -0 1 0 
1 -10.699999999999999 -6.2000000000000002 -6.5 1 0 -0 
1 -10.699999999999999 6.2000000000000002 -4 1 0 -0 
1 -6 -6.2000000000000002 -4 0 -1 0 
1 -10.699999999999999 -6.2000000000000002 -4 1 0 -0 
1 21.699999999999999 -6.2000000000000002 -6.5 0 0 1 
1 21.699999999999999 -6.2000000000000002 -4 -0 1 0 
1 21.699999999999999 6.2000000000000002 -6.5 0 0 1 
1 -10.699999999999999 6.2000000000000002 -4 1 0 -0 
1 -10.699999999999999 -6.2000000000000002 -4 1 0 -0 
1 17 -6.2000000000000002 -4 0 -1 0 
1 17 -6.2000000000000002 -22.5 0 0 1 
1 17 -6.2000000000000002 0 -0 1 0 
1 17 6.2000000000000002 -22.5 0 0 1 
1 -6 -6.2000000000000002 0 -0 1 0 
1 -6 6.2000000000000002 0 1 0 -0 
1 -6 -6.2000000000000002 0 1 0 -0 
2 0 0 0 0 0 1 1 0 -0 -0 1 0 5.9000000000000004
1 -6 -6.2000000000000002 -22.5 0 0 1 
1 -6 6.2000000000000002 -22.5 0 0 1 
2 0 0 4 0 0 1 1 0 -0 -0 1 0 5.9000000000000004
1 5.9000000000000004 -1.4450832229938768e-15 0 0 0 1 
2 0 0 4 0 0 1 1 0 -0 -0 1 0 9
2 0 0 6 0 0 1 1 0 -0 -0 1 0 9
1 9 -2.2043642384652358e-15 4 0 0 1 
Polygon3D 0
PolygonOnTriangulations 0
Surfaces 61
1 -11.5 36.5 29 0 0 1 1 0 -0 -0 1 0 
1 -3.0566979941194732 41.000000000000014 69.656700550601343 0 1 0 0 -0 1 1 0 -0 
2 -0.50000000000000133 36.5 40 -0 1 0 -1 -0 0 -0 -0 -1 11
2 0.50000000000000133 36.5 40 -0 1 0 1 0 -0 -0 0 -1 11
1 -3.1077640703991856 36.5 69.458976963463385 -0 -1 -0 0 0 -1 1 -0 0 
1 -11.499999999999995 32.398057923339699 61.367490771957179 -1 -0 -0 0 0 -1 0 -1 0 
1 11.5 36.5 29 1 0 -0 0 0 1 0 -1 0 
1 -11.699999999999999 11 -11 -0 1 0 0 0 1 1 0 -0 
1 -11.699999999999999 11 -11 -0 1 0 0 0 1 1 0 -0 
1 22.699999999999999 -11 -11 1 0 -0 0 0 1 0 -1 0 
1 -11.699999999999999 -11 -11 1 0 -0 0 0 1 0 -1 0 
1 -5.5000000000000009 38.75 101.00000000000001 0 0 1 1 0 -0 -0 1 0 
2 6.5 0 3 0 0 1 1 0 -0 -0 1 0 1.1499999999999999
2 19.5 0 -19 0 0 1 1 0 -0 -0 1 0 1.1499999999999999
1 -6.7999999999999998 7 -23.5 -0 1 0 0 0 1 1 0 -0 
1 17.800000000000001 -7 -23.5 1 0 -0 0 0 1 0 -1 0 
1 -6.7999999999999998 -7 -23.5 -0 1 0 0 0 1 1 0 -0 
1 -6.7999999999999998 -7 -23.5 1 0 -0 0 0 1 0 -1 0 
2 0 -6.5 3 0 0 1 1 0 -0 -0 1 0 1.1499999999999999
2 0 0 3 0 0 1 1 0 -0 -0 1 0 3.2000000000000002
2 0 6.5 3 0 0 1 1 0 -0 -0 1 0 1.1499999999999999
2 -6.5 0 3 0 0 1 1 0 -0 -0 1 0 1.1499999999999999
2 -8.5 0 -19 0 0 1 1 0 -0 -0 1 0 1.1499999999999999
2 -11.5 36.200000000000003 64.799999999999997 1 0 -0 0 1 0 -0 0 -1 4.7999999999999998
1 -7 12 60 1 0 -0 0 0 1 0 -1 0 
2 -11.5 36.200000000000003 65.200000000000003 1 0 -0 0 1 0 0 -0 1 4.7999999999999998
2 0 0 6 0 0 1 1 0 -0 -0 1 0 11
1 -11.5 12 60 0 0 1 1 0 -0 -0 1 0 
2 -11.5 16.799999999999997 64.799999999999997 1 0 -0 0 -1 0 0 -0 -1 4.7999999999999998
1 -0.36632978452603931 12.000000000000002 79.979976967982438 -0 -1 -0 0 0 -1 1 -0 0 
2 -11.5 16.799999999999997 65.200000000000003 1 0 -0 0 -1 0 -0 0 1 4.7999999999999998
1 -11.5 12 70 0 0 1 1 0 -0 -0 1 0 
1 0 0 6 0 0 1 1 0 -0 -0 1 0 
2 -0.50000000000000133 12 71 -0 1 0 -1 -0 0 -0 -0 -1 11
1 -11.5 16.5 60 -0 1 0 0 0 1 1 0 -0 
1 -11.5 12 60 0 0 1 1 0 -0 -0 1 0 
2 0.50000000000000133 12 71 -0 1 0 1 0 -0 -0 0 -1 11
1 11.5 12 60 1 0 -0 0 0 1 0 -1 0 
2 0.50000000000000133 12 90 -0 1 0 1 0 -0 0 -0 1 11
1 -11.5 12 101 0 0 1 1 0 -0 -0 1 0 
2 -0.50000000000000133 12 90 -0 1 0 -1 -0 0 0 0 1 11
1 -11.5 12 60 1 0 -0 0 0 1 0 -1 0 
2 -0.50000000000000133 12 71 -0 1 0 -1 -0 0 -0 -0 -1 11
1 -6 -6.2000000000000002 -22.5 1 0 -0 0 0 1 0 -1 0 
1 5.5 -6.1999999999999993 -10.222677595628413 -0 -1 -0 0 0 -1 1 -0 0 
1 -10.699999999999999 -6.2000000000000002 -6.5 0 0 1 1 0 -0 -0 1 0 
1 5.5000000000000018 6.2000000000000028 -10.222677595628422 0 1 0 0 -0 1 1 0 -0 
1 -6 -6.2000000000000002 -22.5 0 0 1 1 0 -0 -0 1 0 
1 -10.699999999999999 -6.2000000000000002 -6.5 1 0 -0 0 0 1 0 -1 0 
1 17 -6.2000000000000002 -22.5 1 0 -0 0 0 1 0 -1 0 
1 -10.699999999999999 -6.2000000000000002 -6.5 0 0 1 1 0 -0 -0 1 0 
1 -10.699999999999999 -6.2000000000000002 -4 0 0 1 1 0 -0 -0 1 0 
1 21.699999999999999 -6.2000000000000002 -6.5 1 0 -0 0 0 1 0 -1 0 
1 -6 -6.2000000000000002 -22.5 1 0 -0 0 0 1 0 -1 0 
1 -10.699999999999999 -6.2000000000000002 -4 0 0 1 1 0 -0 -0 1 0 
1 17 -6.2000000000000002 -22.5 1 0 -0 0 0 1 0 -1 0 
1 -6 -6.2000000000000002 0 0 0 1 1 0 -0 -0 1 0 
2 0 0 0 0 0 1 1 0 -0 -0 1 0 5.9000000000000004
1 0 0 4 0 0 1 1 0 -0 -0 1 0 
2 0 0 4 0 0 1 1 0 -0 -0 1 0 9
1 0 0 6 0 0 1 1 0 -0 -0 1 0 
Triangulations 0

TShapes 422
Ve
1.5e-07
-0.500000000000002 41 29
0 0

0101101
*
Ve
1.5e-07
0.500000000000002 41 29
0 0

0101101
*
Ed
 1.5e-07 1 1 0
1  1 0 11 12
2  1 1 0 11 12
2  2 2 0 11 12
0

0101000
+422 0 -421 0 *
Ve
1.5e-07
-0.500000000000002 36.5 29
0 0

0101101
*
Ed
 1e-07 1 1 0
1  2 0 0 4.5
2  3 1 0 0 4.5
2  4 3 0 0 4.5
4 G1 1 0 3 0
0

0101000
+419 0 -422 0 *
Ve
1.5e-07
0.500000000000002 36.5 29
0 0

0101101
*
Ed
 1e-07 1 1 0
1  3 0 0 4.5
2  5 1 0 0 4.5
2  6 4 0 0 4.5
4 G1 1 0 4 0
0

0101000
+417 0 -421 0 *
Ve
1.5e-07
0 36.5 29
0 0

0101101
*
Ed
 1.5e-07 1 1 0
1  4 0 11 11.5
2  7 1 0 11 11.5
2  8 5 0 11 11.5
0

0101000
+419 0 -415 0 *
Ed
 1.5e-07 1 1 0
1  5 0 11.5 12
2  9 1 0 11.5 12
2  10 5 0 11.5 12
0

0101000
+415 0 -417 0 *
Wi

0101100
-420 0 -418 0 +416 0 +414 0 +413 0 *
Ve
1.00000003367779e-07
3.36777869765522e-15 39 29
0 0

0101101
*
Ed
 1e-07 1 1 0
1  6 0 0.5 3
2  11 1 0 0.5 3
0

0101000
+415 0 -411 0 *
Wi

0101000
i410 0 *
Fa
0  1e-07 1 0

0101000
+412 0 +409 0 *
Ve
1.5e-07
-11.5 41 40
0 0

0101101
*
Ed
 1.5e-07 1 1 0
1  7 0 1.5707963267949 3.14159265358979
2  12 2 0 1.5707963267949 3.14159265358979
2  13 3 0 1.5707963267949 3.14159265358979
0

0101000
+407 0 -422 0 *
Ve
1.5e-07
11.5 41 40
0 0

0101101
*
Ed
 1.5e-07 1 1 0
1  8 0 1.5707963267949 3.14159265358979
2  14 2 0 1.5707963267949 3.14159265358979
2  15 4 0 1.5707963267949 3.14159265358979
0

0101000
+405 0 -421 0 *
Ve
1.5e-07
-11.5 41 79
0 0

0101101
*
Ed
 1e-07 1 1 0
1  9 0 11 50
2  16 2 0 11 50
2  17 6 0 11 50
0

0101000
+407 0 -403 0 *
Ve
1.5e-07
11.5 41 79
0 0

0101101
*
Ed
 1.5e-07 1 1 0
1  10 0 11 50
2  18 2 0 11 50
2  19 7 0 11 50
0

0101000
+405 0 -401 0 *
Ve
1.5e-07
-22.7 41 79
0 0

0101101
*
Ed
 1.5e-07 1 1 0
1  11 0 23.2 34.4
2  20 2 8 23.2 34.4
2  21 8 0 23.2 34.4
0

0101000
+403 8 -399 8 *
Ve
1.5e-07
11.7 41 79
0 0

0101101
*
Ed
 1.5e-07 1 1 0
1  12 0 0 0.199999999999998
2  22 2 8 0 0.199999999999998
2  23 9 0 0 0.199999999999998
0

0101000
+397 8 -401 8 *
Ve
1.5e-07
-22.7 41 101
0 0

0101101
*
Ed
 1.5e-07 1 1 0
1  13 0 0 22
2  24 2 8 0 22
2  25 10 0 0 22
0

0101000
-399 8 +395 8 *
Ve
1.5e-07
11.7 41 101
0 0

0101101
*
Ed
 1.5e-07 1 1 0
1  14 0 0 22
2  26 2 8 0 22
2  27 11 0 0 22
0

0101000
-397 8 +393 8 *
Ed
 1e-07 1 1 0
1  15 0 0 34.4
2  28 2 0 0 34.4
2  29 12 0 0 34.4
0

0101000
+393 0 -395 0 *
Wi

0101100
-420 0 -406 0 +404 0 +402 0 -400 0 +398 7 +396 7 -394 7 +392 7 -391 0 
*
Ve
1.5e-07
-7.65 41 40
0 0

0101101
*
Ed
 1.5e-07 1 1 0
1  16 0 0 6.28318530717959
2  30 2 0 0 6.28318530717959
2  31 13 14 0 6.28318530717959
0

0101100
+389 0 -389 0 *
Wi

0101100
-388 0 *
Ve
1.5e-07
-20.65 41 90
0 0

0101101
*
Ed
 1.5e-07 1 1 0
1  17 0 0 6.28318530717959
2  32 2 0 0 6.28318530717959
2  33 14 20 0 6.28318530717959
0

0101100
+386 0 -386 0 *
Wi

0101100
+385 0 *
Ve
2.00000000888178e-07
6.8 41 83
0 0

0101101
*
Ve
2.00000003552714e-07
-17.8 41 83
0 0

0101101
*
Ed
 2e-07 1 1 0
1  18 0 -4.92834899705973 19.6716510029403
2  34 2 0 -4.92834899705973 19.6716510029403
2  35 15 26 -4.92834899705973 19.6716510029403
0

0101000
+383 0 -382 0 *
Ve
2.00000003552714e-07
-17.8 41 97
0 0

0101101
*
Ed
 2e-07 1 1 0
1  19 0 -0.328350275300663 13.6716497246993
2  36 2 0 -0.328350275300663 13.6716497246993
2  37 16 26 -0.328350275300663 13.6716497246993
0

0101000
+382 0 -380 0 *
Ve
2.00000000888178e-07
6.8 41 97
0 0

0101101
*
Ed
 2e-07 1 1 0
1  20 0 -4.92834899705973 19.6716510029403
2  38 2 0 -4.92834899705973 19.6716510029403
2  39 17 26 -4.92834899705973 19.6716510029403
0

0101000
+378 0 -380 0 *
Ed
 2e-07 1 1 0
1  21 0 -0.328350275300663 13.6716497246993
2  40 2 0 -0.328350275300663 13.6716497246993
2  41 18 26 -0.328350275300663 13.6716497246993
0

0101000
+383 0 -378 0 *
Wi

0101100
-381 0 -379 0 +377 0 +376 0 *
Ve
1.5e-07
-1.15 41 33.5
0 0

0101101
*
Ed
 1.5e-07 1 1 0
1  22 0 0 6.28318530717959
2  42 2 0 0 6.28318530717959
2  43 19 32 0 6.28318530717959
0

0101100
+374 0 -374 0 *
Wi

0101100
-373 0 *
Ve
1.5e-07
-3.2 41 40
0 0

0101101
*
Ed
 1.5e-07 1 1 0
1  23 0 0 6.28318530717959
2  44 2 0 0 6.28318530717959
2  45 20 38 0 6.28318530717959
0

0101100
+371 0 -371 0 *
Wi

0101100
-370 0 *
Ve
1.5e-07
-1.15 41 46.5
0 0

0101101
*
Ed
 1.5e-07 1 1 0
1  24 0 0 6.28318530717959
2  46 2 0 0 6.28318530717959
2  47 21 44 0 6.28318530717959
0

0101100
+368 0 -368 0 *
Wi

0101100
-367 0 *
Ve
1.5e-07
5.35 41 40
0 0

0101101
*
Ed
 1.5e-07 1 1 0
1  25 0 0 6.28318530717959
2  48 2 0 0 6.28318530717959
2  49 22 50 0 6.28318530717959
0

0101100
+365 0 -365 0 *
Wi

0101100
-364 0 *
Ve
1.5e-07
7.35 41 90
0 0

0101101
*
Ed
 1.5e-07 1 1 0
1  26 0 0 6.28318530717959
2  50 2 0 0 6.28318530717959
2  51 23 56 0 6.28318530717959
0

0101100
+362 0 -362 0 *
Wi

0101100
+361 0 *
Fa
0  1.5e-07 2 0

0101000
+390 0 +387 0 +384 0 +375 0 +372 0 +369 0 +366 0 +363 0 +360 0 *
Ve
1.5e-07
-11.5 36.5 40
0 0

0101101
*
Ed
 1.5e-07 1 1 0
1  27 0 1.5707963267949 3.14159265358979
2  52 3 0 1.5707963267949 3.14159265358979
2  53 5 0 1.5707963267949 3.14159265358979
0

0101000
+358 0 -419 0 *
Ed
 1.5e-07 1 1 0
1  28 0 -0 4.5
2  54 3 0 -0 4.5
2  55 6 0 -0 4.5
0

0101000
+358 0 -407 0 *
Wi

0101100
+357 0 -356 0 +418 0 -406 0 *
Fa
0  1e-07 3 0

0101000
+355 0 *
Ve
1.5e-07
11.5 36.5 40
0 0

0101101
*
Ed
 1.5e-07 1 1 0
1  29 0 1.5707963267949 3.14159265358979
2  56 4 0 1.5707963267949 3.14159265358979
2  57 5 0 1.5707963267949 3.14159265358979
0

0101000
+353 0 -417 0 *
Ed
 1e-07 1 1 0
1  30 0 -0 4.5
2  58 4 0 -0 4.5
2  59 7 0 -0 4.5
4 G1 4 0 7 0
0

0101000
+353 0 -405 0 *
Wi

0101100
+352 0 -351 0 +416 0 -404 0 *
Fa
0  1e-07 4 0

0101000
+350 0 *
Ve
1.5e-07
-11.5 36.4999999999999 60.0093841731986
0 0

0101101
*
Ed
 1.5e-07 1 1 0
1  31 0 11 31.0093841731986
2  60 5 0 11 31.0093841731986
2  61 6 0 11 31.0093841731986
0

0101000
+358 0 -348 0 *
Ve
1.5e-07
-7 36.5 60.0093841731986
0 0

0101101
*
Ed
 1.5e-07 1 1 0
1  32 0 0 4.5
2  62 5 0 0 4.5
2  63 24 0 0 4.5
0

0101000
+348 0 -346 0 *
Ve
1.5e-07
-7 36.5 69.9906158268014
0 0

0101101
*
Ed
 1.5e-07 1 1 0
1  33 0 -25.4906158268014 -15.5093841731986
2  64 5 0 -25.4906158268014 -15.5093841731986
2  65 25 0 -25.4906158268014 -15.5093841731986
0

0101000
+344 0 -346 0 *
Ve
1.5e-07
-11.5 36.5 69.9906158268014
0 0

0101101
*
Ed
 1.5e-07 1 1 0
1  34 0 0 4.5
2  66 5 0 0 4.5
2  67 26 0 0 4.5
0

0101000
+342 0 -344 0 *
Ve
1.5e-07
-11.5 36.5 79
0 0

0101101
*
Ed
 1.5e-07 1 1 0
1  35 0 40.9906158268014 50
2  68 5 0 40.9906158268014 50
2  69 6 0 40.9906158268014 50
0

0101000
+342 0 -340 0 *
Ve
1.5e-07
-22.7 36.5 79
0 0

0101101
*
Ed
 1.5e-07 1 1 0
1  36 0 23.2 34.4
2  70 5 8 23.2 34.4
2  71 8 0 23.2 34.4
0

0101000
+340 8 -338 8 *
Ve
1.5e-07
-22.7 36.5 101
0 0

0101101
*
Ed
 1.5e-07 1 1 0
1  37 0 0 22
2  72 5 8 0 22
2  73 10 0 0 22
0

0101000
-338 8 +336 8 *
Ve
1.5e-07
11.7 36.5 101
0 0

0101101
*
Ed
 1e-07 1 1 0
1  38 0 0 34.4
2  74 5 0 0 34.4
2  75 12 0 0 34.4
0

0101000
+334 0 -336 0 *
Ve
1.5e-07
11.7 36.5 79
0 0

0101101
*
Ed
 1.5e-07 1 1 0
1  39 0 0 22
2  76 5 8 0 22
2  77 11 0 0 22
0

0101000
-332 8 +334 8 *
Ve
1.5e-07
11.5 36.5 79
0 0

0101101
*
Ed
 1.5e-07 1 1 0
1  40 0 0 0.199999999999998
2  78 5 8 0 0.199999999999998
2  79 9 0 0 0.199999999999998
0

0101000
+332 8 -330 8 *
Ed
 1.5e-07 1 1 0
1  41 0 11 50
2  80 5 0 11 50
2  81 7 0 11 50
0

0101000
+353 0 -330 0 *
Wi

0101100
+357 0 -347 0 -345 0 +343 0 +341 0 -339 0 -337 7 +335 7 +333 0 -331 7 
-329 7 +328 0 -352 0 +413 0 +414 0 *
Ve
1.5e-07
-20.65 36.5 90
0 0

0101101
*
Ed
 1.5e-07 1 1 0
1  42 0 0 6.28318530717959
2  82 5 0 0 6.28318530717959
2  83 14 20 0 6.28318530717959
0

0101100
+326 0 -326 0 *
Wi

0101100
-325 0 *
Ve
2.00000003552714e-07
-17.8 36.5 97
0 0

0101101
*
Ve
2e-07
6.8 36.5 97
0 0

0101101
*
Ed
 2e-07 1 1 0
1  43 0 -19.6461179648004 4.95388203519959
2  84 5 0 -19.6461179648004 4.95388203519959
2  85 17 26 -19.6461179648004 4.95388203519959
0

0101000
+323 0 -322 0 *
Ve
2.00000003552714e-07
-17.8 36.5 83
0 0

0101101
*
Ed
 2e-07 1 1 0
1  44 0 -13.7705115182683 0.229488481731691
2  86 5 0 -13.7705115182683 0.229488481731691
2  87 16 26 -13.7705115182683 0.229488481731691
0

0101000
+323 0 -320 0 *
Ve
2e-07
6.8 36.5 83
0 0

0101101
*
Ed
 2e-07 1 1 0
1  45 0 -19.6461179648004 4.95388203519959
2  88 5 0 -19.6461179648004 4.95388203519959
2  89 15 26 -19.6461179648004 4.95388203519959
0

0101000
+320 0 -318 0 *
Ed
 2e-07 1 1 0
1  46 0 -13.7705115182683 0.229488481731691
2  90 5 0 -13.7705115182683 0.229488481731691
2  91 18 26 -13.7705115182683 0.229488481731691
0

0101000
+322 0 -318 0 *
Wi

0101100
+321 0 -319 0 -317 0 +316 0 *
Ve
1.5e-07
7.35 36.5 90
0 0

0101101
*
Ed
 1.5e-07 1 1 0
1  47 0 0 6.28318530717959
2  92 5 0 0 6.28318530717959
2  93 23 56 0 6.28318530717959
0

0101100
+314 0 -314 0 *
Wi

0101100
-313 0 *
Ve
1.00000007105427e-07
-11 36.5 40
0 0

0101101
*
Ed
 1e-07 1 1 0
1  48 0 1.22464679914735e-16 4.71238898038469
2  94 5 0 1.22464679914735e-16 4.71238898038469
2  95 27 62 1.22464679914735e-16 4.71238898038469
0

0101000
+311 0 -415 0 *
Ed
 1e-07 1 1 0
1  49 0 4.71238898038469 6.28318530717959
2  96 5 0 4.71238898038469 6.28318530717959
2  97 27 62 4.71238898038469 6.28318530717959
0

0101000
+415 0 -311 0 *
Wi

0101100
+310 0 +309 0 *
Fa
0  1.5e-07 5 0

0101000
+327 0 +324 0 +315 0 +312 0 +308 0 *
Ed
 1.5e-07 1 1 0
1  50 0 -2.25 2.25
2  98 6 0 -2.25 2.25
2  99 8 7 -2.25 2.25
0

0101000
+340 0 -403 0 *
Ve
1.5e-07
-11.5 36.2 60
0 0

0101101
*
Ed
 1.5e-07 1 1 0
1  51 0 3.07905189179333 3.14159265358979
2  100 6 0 3.07905189179333 3.14159265358979
2  101 24 0 3.07905189179333 3.14159265358979
0

0101000
+348 0 -305 0 *
Ve
1.5e-07
-11.5 16.8 60
0 0

0101101
*
Ed
 1.5e-07 1 1 0
1  52 0 4.8 24.2
2  102 6 0 4.8 24.2
2  103 28 0 4.8 24.2
0

0101000
+303 0 -305 0 *
Ve
1.5e-07
-11.5 12 64.8
0 0

0101101
*
Ed
 1.5e-07 1 1 0
1  53 0 1.5707963267949 3.14159265358979
2  104 6 0 1.5707963267949 3.14159265358979
2  105 29 0 1.5707963267949 3.14159265358979
0

0101000
+301 0 -303 0 *
Ve
1.5e-07
-11.5 12 65.2
0 0

0101101
*
Ed
 1.5e-07 1 1 0
1  54 0 4.8 5.2
2  106 6 0 4.8 5.2
2  107 30 0 4.8 5.2
0

0101000
+301 0 -299 0 *
Ve
1.5e-07
-11.5 16.8 70
0 0

0101101
*
Ed
 1.5e-07 1 1 0
1  55 0 4.71238898038469 6.28318530717959
2  108 6 0 4.71238898038469 6.28318530717959
2  109 31 0 4.71238898038469 6.28318530717959
0

0101000
+299 0 -297 0 *
Ve
1.5e-07
-11.5 36.2 70
0 0

0101101
*
Ed
 1.5e-07 1 1 0
1  56 0 4.8 24.2
2  110 6 0 4.8 24.2
2  111 32 0 4.8 24.2
0

0101000
+297 0 -295 0 *
Ed
 1.5e-07 1 1 0
1  57 0 6.22064454538309 6.28318530717959
2  112 6 0 6.22064454538309 6.28318530717959
2  113 26 0 6.22064454538309 6.28318530717959
0

0101000
+342 0 -295 0 *
Wi

0101000
+339 0 +306 0 -402 0 -356 0 +347 0 +304 0 -302 0 -300 0 +298 0 +296 0 
+294 0 -293 0 *
Fa
0  1.5e-07 6 0

0111000
+292 0 *
Ed
 1.5e-07 1 1 0
1  58 0 -2.25 2.25
2  114 7 0 -2.25 2.25
2  115 9 7 -2.25 2.25
0

0101000
+330 0 -401 0 *
Wi

0101100
-328 0 -290 0 +400 0 +351 0 *
Fa
0  1e-07 7 0

0101000
+289 0 *
Ed
 1e-07 1 1 0
1  59 0 0 4.5
2  116 8 0 0 4.5
2  117 10 0 0 4.5
0

0101000
-338 8 +399 8 *
Wi

0101100
-398 7 -287 7 +337 7 -306 0 *
Fa
0  1e-07 8 7

0101000
+286 0 *
Ed
 1e-07 1 1 0
1  60 0 0 4.5
2  118 9 0 0 4.5
2  119 11 0 0 4.5
0

0101000
-332 8 +397 8 *
Wi

0101100
-396 7 +290 0 +329 7 +284 7 *
Fa
0  1e-07 9 7

0101000
+283 0 *
Ed
 1.5e-07 1 1 0
1  61 0 0 4.5
2  120 10 0 0 4.5
2  121 12 8 0 4.5
0

0101000
-336 8 +395 8 *
Wi

0101100
-281 0 -335 0 +287 0 +394 0 *
Fa
0  1e-07 10 0

0111000
+280 0 *
Ed
 1.5e-07 1 1 0
1  62 0 0 4.5
2  122 11 0 0 4.5
2  123 12 8 0 4.5
0

0101000
-334 8 +393 8 *
Wi

0101100
-278 0 -331 0 +284 0 +392 0 *
Fa
0  1e-07 11 0

0111000
+277 0 *
Wi

0101000
+391 0 +281 7 -333 0 -278 7 *
Fa
0  1.5e-07 12 0

0111000
+275 0 *
Ve
1e-07
-7.65 36 40
0 0

0101101
*
Ed
 1e-07 1 1 0
1  63 0 3 8.00000000000001
3  124 125CN 13 0 3 8.00000000000001
0

0101000
+273 63 -389 63 *
Ed
 1e-07 1 1 0
1  64 0 0 6.28318530717959
2  126 13 14 0 6.28318530717959
2  127 33 62 0 6.28318530717959
0

0101100
+273 0 -273 0 *
Wi

0101100
-388 0 +272 14 +271 0 -272 14 *
Fa
0  1e-07 13 14

0101000
+270 0 *
Ed
 1e-07 1 1 0
1  65 0 7.99999999999999 12.5
3  128 129CN 14 0 7.99999999999999 12.5
0

0101000
+386 64 -326 64 *
Wi

0101100
-325 0 +268 20 +385 0 -268 20 *
Fa
0  1e-07 14 20

0101000
+267 0 *
Ed
 1e-07 1 1 0
1  66 0 12.5 17
2  130 15 0 12.5 17
2  131 16 0 12.5 17
0

0101000
+382 65 -320 65 *
Ed
 1e-07 1 1 0
1  67 0 12.5 17
2  132 15 0 12.5 17
2  133 18 0 12.5 17
0

0101000
+383 65 -318 65 *
Wi

0101100
-265 26 -317 0 +264 26 -381 0 *
Fa
0  1e-07 15 26

0101000
+263 0 *
Ed
 1e-07 1 1 0
1  68 0 12.5 17
2  134 16 0 12.5 17
2  135 17 0 12.5 17
0

0101000
+380 65 -323 65 *
Wi

0101100
-261 26 -319 0 +265 26 -379 0 *
Fa
0  1e-07 16 26

0101000
+260 0 *
Ed
 1e-07 1 1 0
1  69 0 12.5 17
2  136 17 0 12.5 17
2  137 18 0 12.5 17
0

0101000
+378 65 -322 65 *
Wi

0101100
-261 26 -321 0 +258 26 -377 0 *
Fa
0  1e-07 17 26

0101000
+257 0 *
Wi

0101100
-258 26 -316 0 +264 26 -376 0 *
Fa
0  1e-07 18 26

0101000
+255 0 *
Ve
1e-07
-1.15 36 33.5
0 0

0101101
*
Ed
 1e-07 1 1 0
1  70 0 3 8.00000000000001
3  138 139CN 19 0 3 8.00000000000001
0

0101000
+253 66 -374 66 *
Ed
 1e-07 1 1 0
1  71 0 0 6.28318530717959
2  140 19 32 0 6.28318530717959
2  141 33 62 0 6.28318530717959
0

0101100
+253 0 -253 0 *
Wi

0101100
-373 0 +252 32 +251 0 -252 32 *
Fa
0  1e-07 19 32

0101000
+250 0 *
Ve
1e-07
-3.2 36 40
0 0

0101101
*
Ed
 1e-07 1 1 0
1  72 0 3 8.00000000000001
3  142 143CN 20 0 3 8.00000000000001
0

0101000
+248 67 -371 67 *
Ed
 1e-07 1 1 0
1  73 0 0 6.28318530717959
2  144 20 38 0 6.28318530717959
2  145 33 62 0 6.28318530717959
0

0101100
+248 0 -248 0 *
Wi

0101100
-370 0 +247 38 +246 0 -247 38 *
Fa
0  1e-07 20 38

0101000
+245 0 *
Ve
1e-07
-1.15 36 46.5
0 0

0101101
*
Ed
 1e-07 1 1 0
1  74 0 3 8.00000000000001
3  146 147CN 21 0 3 8.00000000000001
0

0101000
+243 68 -368 68 *
Ed
 1e-07 1 1 0
1  75 0 0 6.28318530717959
2  148 21 44 0 6.28318530717959
2  149 33 62 0 6.28318530717959
0

0101100
+243 0 -243 0 *
Wi

0101100
-367 0 +242 44 +241 0 -242 44 *
Fa
0  1e-07 21 44

0101000
+240 0 *
Ve
1e-07
5.35 36 40
0 0

0101101
*
Ed
 1e-07 1 1 0
1  76 0 3 8.00000000000001
3  150 151CN 22 0 3 8.00000000000001
0

0101000
+238 69 -365 69 *
Ed
 1e-07 1 1 0
1  77 0 0 6.28318530717959
2  152 22 50 0 6.28318530717959
2  153 33 62 0 6.28318530717959
0

0101100
+238 0 -238 0 *
Wi

0101100
-364 0 +237 50 +236 0 -237 50 *
Fa
0  1e-07 22 50

0101000
+235 0 *
Ed
 1e-07 1 1 0
1  78 0 7.99999999999999 12.5
3  154 155CN 23 0 7.99999999999999 12.5
0

0101000
+362 70 -314 70 *
Wi

0101100
-313 0 +233 56 +361 0 -233 56 *
Fa
0  1e-07 23 56

0101000
+232 0 *
Ve
1e-07
-7 36.2 60
0 0

0101101
*
Ed
 1e-07 1 1 0
1  79 0 3.0790518917933 3.14159265358979
2  156 24 0 3.0790518917933 3.14159265358979
2  157 25 0 3.0790518917933 3.14159265358979
0

0101000
+346 0 -230 0 *
Ed
 1e-07 1 1 0
1  80 0 0 4.5
2  158 24 0 0 4.5
2  159 28 0 0 4.5
4 G1 24 0 28 0
0

0101000
+305 0 -230 0 *
Wi

0101100
-345 0 -229 0 +228 0 +304 0 *
Fa
0  1e-07 24 0

0101000
+227 0 *
Ve
1.15695668769049e-07
-7 12.8138886160002 62.1258803253506
0 0

0101101
*
Ve
1.50000001776357e-07
-7 16.5 62.1258803253506
0 0

0101101
*
Ed
 1e-07 1 1 0
1  81 0 0.813888616000172 4.5
2  160 25 0 0.813888616000172 4.5
2  161 34 0 0.813888616000172 4.5
0

0101000
+225 0 -224 0 *
Ve
1.50000003552714e-07
-7 16.5 69.9906158268014
0 0

0101101
*
Ed
 1.5e-07 1 1 0
1  82 0 -9.9906158268014 -2.12588032535058
2  162 25 0 -9.9906158268014 -2.12588032535058
2  163 35 0 -9.9906158268014 -2.12588032535058
0

0101000
+222 0 -224 0 *
Ve
1e-07
-7 16.8 70
0 0

0101101
*
Ed
 1e-07 1 1 0
1  83 0 6.2206445453831 6.28318530717959
2  164 25 0 6.2206445453831 6.28318530717959
2  165 31 0 6.2206445453831 6.28318530717959
0

0101000
+222 0 -220 0 *
Ve
1e-07
-7 36.2 70
0 0

0101101
*
Ed
 1e-07 1 1 0
1  84 0 4.8 24.2
2  166 25 0 4.8 24.2
2  167 32 0 4.8 24.2
0

0101000
+220 0 -218 0 *
Ed
 1e-07 1 1 0
1  85 0 6.2206445453831 6.28318530717959
2  168 25 0 6.2206445453831 6.28318530717959
2  169 26 0 6.2206445453831 6.28318530717959
0

0101000
+344 0 -218 0 *
Ve
1e-07
-7 16.8 60
0 0

0101101
*
Ed
 1e-07 1 1 0
1  86 0 4.8 24.2
2  170 25 0 4.8 24.2
2  171 28 0 4.8 24.2
0

0101000
+215 0 -230 0 *
Ed
 1e-07 1 1 0
1  87 0 2.16169587095826 3.14159265358979
2  172 25 0 2.16169587095826 3.14159265358979
2  173 29 0 2.16169587095826 3.14159265358979
0

0101000
+225 0 -215 0 *
Wi

0101100
-223 0 +221 0 -219 0 -217 0 +216 0 -343 0 -229 0 +214 0 +213 0 *
Fa
0  1e-07 25 0

0101000
+212 0 *
Ed
 1e-07 1 1 0
1  88 0 0 4.5
2  174 26 0 0 4.5
2  175 32 0 0 4.5
4 G1 26 0 32 0
0

0101000
+295 0 -218 0 *
Wi

0101100
-341 0 -216 0 +210 0 +293 0 *
Fa
0  1e-07 26 0

0101000
+209 0 *
Ve
1e-07
-11 36 40
0 0

0101101
*
Ed
 1e-07 1 1 0
1  89 0 0 0.5
3  176 177CN 27 0 0 0.5
0

0101000
+207 71 -311 71 *
Ed
 1e-07 1 1 0
1  90 0 0 6.28318530717959
2  178 27 0 0 6.28318530717959
2  179 33 0 0 6.28318530717959
0

0101000
+207 71 -207 71 *
Wi

0101100
-310 0 -309 0 +206 62 +205 62 -206 62 *
Fa
0  1e-07 27 62

0101000
+204 0 *
Ed
 1e-07 1 1 0
1  91 0 0 4.5
2  180 28 0 0 4.5
2  181 29 0 0 4.5
4 G1 28 0 29 0
0

0101000
+303 0 -215 0 *
Wi

0101100
-302 0 +202 0 -228 0 +214 0 *
Fa
0  1e-07 28 0

0101000
+201 0 *
Ve
1.95559946174488e-07
-9.58625335328043 12 64.8
0 0

0101101
*
Ed
 1.5e-07 1 1 0
1  92 0 0 1.91374664671957
2  182 29 0 0 1.91374664671957
2  183 30 0 0 1.91374664671957
0

0101000
+301 0 -199 0 *
Ed
 1.1569564434818e-07 1 1 0
1  93 0 0 0.999999779938218
2  184 29 0 0 0.999999779938218
2  185 34 0 0 0.999999779938218
0

0101000
+199 0 -225 0 *
Wi

0101100
-198 0 -197 0 -213 0 +202 0 +300 0 *
Fa
0  1e-07 29 0

0101000
+196 0 *
Ve
1.90109643979725e-07
-9.8466571564386 12 65.2000000000002
0 0

0101101
*
Ed
 1.5e-07 1 1 0
1  94 0 0 1.6533428435614
2  186 30 0 0 1.6533428435614
2  187 31 0 0 1.6533428435614
0

0101000
+299 0 -194 0 *
Ve
1.5e-07
-0.500000000000002 12 60
0 0

0101101
*
Ed
 1.5e-07 1 1 0
1  95 0 2.16957780332515 3.14159265358979
2  188 30 0 2.16957780332515 3.14159265358979
2  189 34 0 2.16957780332515 3.14159265358979
0

0101000
+199 0 -192 0 *
Ve
1.5e-07
0.500000000000002 12 60
0 0

0101101
*
Ed
 1.5e-07 1 1 0
1  96 0 11 12
2  190 30 0 11 12
2  191 36 0 11 12
0

0101000
+192 0 -190 0 *
Ve
1.5e-07
11.5 12 71
0 0

0101101
*
Ed
 1.5e-07 1 1 0
1  97 0 1.5707963267949 3.14159265358979
2  192 30 0 1.5707963267949 3.14159265358979
2  193 37 0 1.5707963267949 3.14159265358979
0

0101000
+188 0 -190 0 *
Ve
1.5e-07
11.5 12 90
0 0

0101101
*
Ed
 1.5e-07 1 1 0
1  98 0 11 30
2  194 30 0 11 30
2  195 38 0 11 30
0

0101000
+188 0 -186 0 *
Ve
1.5e-07
0.500000000000002 12 101
0 0

0101101
*
Ed
 1.5e-07 1 1 0
1  99 0 4.71238898038469 6.28318530717959
2  196 30 0 4.71238898038469 6.28318530717959
2  197 39 0 4.71238898038469 6.28318530717959
0

0101000
+186 0 -184 0 *
Ve
1.5e-07
-0.500000000000002 12 101
0 0

0101101
*
Ed
 1.5e-07 1 1 0
1  100 0 11 12
2  198 30 0 11 12
2  199 40 0 11 12
0

0101000
+182 0 -184 0 *
Ve
1.5e-07
-11.5 12 90
0 0

0101101
*
Ed
 1.5e-07 1 1 0
1  101 0 4.71238898038469 6.28318530717959
2  200 30 0 4.71238898038469 6.28318530717959
2  201 41 0 4.71238898038469 6.28318530717959
0

0101000
+180 0 -182 0 *
Ve
1.5e-07
-11.5 12 71
0 0

0101101
*
Ed
 1.5e-07 1 1 0
1  102 0 11 30
2  202 30 0 11 30
2  203 42 0 11 30
0

0101000
+178 0 -180 0 *
Ed
 1.5e-07 1 1 0
1  103 0 1.5707963267949 2.12618398004845
2  204 30 0 1.5707963267949 2.12618398004845
2  205 43 0 1.5707963267949 2.12618398004845
0

0101000
+178 0 -194 0 *
Wi

0101100
-193 0 -298 0 +198 0 +191 0 +189 0 -187 0 +185 0 +183 0 -181 0 -179 0 
-177 0 +176 0 *
Fa
0  1.5e-07 30 0

0101000
+175 0 *
Ve
1.00000129564502e-07
-11.4535904429049 16.5 69.9906158268015
0 0

0101101
*
Ed
 1e-07 1 1 0
1  104 0 0 0.999999908553281
2  206 31 0 0 0.999999908553281
2  207 43 0 0 0.999999908553281
0

0101000
+194 0 -173 0 *
Ed
 1e-07 1 1 0
1  105 0 0.0464095570951493 4.5
2  208 31 0 0.0464095570951493 4.5
2  209 35 0 0.0464095570951493 4.5
0

0101000
+173 0 -222 0 *
Ed
 1e-07 1 1 0
1  106 0 0 4.5
2  210 31 0 0 4.5
2  211 32 0 0 4.5
4 G1 31 0 32 0
0

0101000
+297 0 -220 0 *
Wi

0101100
-193 0 -172 0 -171 0 -219 0 +170 0 +296 0 *
Fa
0  1e-07 31 0

0101000
+169 0 *
Wi

0101100
-294 0 +170 0 -210 0 +217 0 *
Fa
0  1e-07 32 0

0101000
+167 0 *
Wi

0101100
+205 62 *
Wi

0101100
-251 0 *
Wi

0101100
-236 0 *
Wi

0101100
-246 0 *
Wi

0101100
-271 0 *
Wi

0101100
-241 0 *
Fa
0  1e-07 33 62

0101000
+165 0 +164 0 +163 0 +162 0 +161 0 +160 0 *
Ve
1e-07
-0.500000000000002 16.5 60
0 0

0101101
*
Ed
 1e-07 1 1 0
1  107 0 2.50940740490905 3.14159265358979
2  212 34 0 2.50940740490905 3.14159265358979
2  213 35 0 2.50940740490905 3.14159265358979
0

0101000
+224 0 -158 0 *
Ed
 1e-07 1 1 0
1  108 0 0 4.5
2  214 34 0 0 4.5
2  215 36 0 0 4.5
4 G1 34 0 36 0
0

0101000
+192 0 -158 0 *
Wi

0101100
-197 0 -223 0 -157 0 +156 0 +191 0 *
Fa
0  1e-07 34 0

0101000
+155 0 *
Ve
1e-07
0.500000000000002 16.5 60
0 0

0101101
*
Ed
 1e-07 1 1 0
1  109 0 11 12
2  216 35 0 11 12
2  217 36 0 11 12
0

0101000
+158 0 -153 0 *
Ve
1e-07
11.5 16.5 71
0 0

0101101
*
Ed
 1e-07 1 1 0
1  110 0 1.5707963267949 3.14159265358979
2  218 35 0 1.5707963267949 3.14159265358979
2  219 37 0 1.5707963267949 3.14159265358979
0

0101000
+151 0 -153 0 *
Ve
1e-07
11.5 16.5 90
0 0

0101101
*
Ed
 1e-07 1 1 0
1  111 0 11 30
2  220 35 0 11 30
2  221 38 0 11 30
0

0101000
+151 0 -149 0 *
Ve
1e-07
0.500000000000002 16.5 101
0 0

0101101
*
Ed
 1e-07 1 1 0
1  112 0 4.71238898038469 6.28318530717959
2  222 35 0 4.71238898038469 6.28318530717959
2  223 39 0 4.71238898038469 6.28318530717959
0

0101000
+149 0 -147 0 *
Ve
1e-07
-0.500000000000002 16.5 101
0 0

0101101
*
Ed
 1e-07 1 1 0
1  113 0 11 12
2  224 35 0 11 12
2  225 40 0 11 12
0

0101000
+145 0 -147 0 *
Ve
1e-07
-11.5 16.5 90
0 0

0101101
*
Ed
 1e-07 1 1 0
1  114 0 4.71238898038469 6.28318530717959
2  226 35 0 4.71238898038469 6.28318530717959
2  227 41 0 4.71238898038469 6.28318530717959
0

0101000
+143 0 -145 0 *
Ve
1e-07
-11.5 16.5 71
0 0

0101101
*
Ed
 1e-07 1 1 0
1  115 0 11 30
2  228 35 0 11 30
2  229 42 0 11 30
0

0101000
+141 0 -143 0 *
Ed
 1e-07 1 1 0
1  116 0 1.5707963267949 1.66268779232623
2  230 35 0 1.5707963267949 1.66268779232623
2  231 43 0 1.5707963267949 1.66268779232623
0

0101000
+141 0 -173 0 *
Wi

0101100
-152 0 +150 0 -148 0 -146 0 +144 0 +142 0 +140 0 -139 0 -171 0 -221 0 
-157 0 *
Fa
0  1e-07 35 0

0101000
+138 0 *
Ed
 1e-07 1 1 0
1  117 0 0 4.5
2  232 36 0 0 4.5
2  233 37 0 0 4.5
4 G1 36 0 37 0
0

0101000
+190 0 -153 0 *
Wi

0101100
-152 0 -156 0 +136 0 +189 0 *
Fa
0  1e-07 36 0

0101000
+135 0 *
Ed
 1e-07 1 1 0
1  118 0 -0 4.5
2  234 37 0 -0 4.5
2  235 38 0 -0 4.5
4 G1 37 0 38 0
0

0101000
+188 0 -151 0 *
Wi

0101100
+187 0 -133 0 +136 0 -150 0 *
Fa
0  1e-07 37 0

0101000
+132 0 *
Ed
 1e-07 1 1 0
1  119 0 -0 4.5
2  236 38 0 -0 4.5
2  237 39 0 -0 4.5
4 G1 38 0 39 0
0

0101000
+186 0 -149 0 *
Wi

0101100
-185 0 +133 0 -130 0 +148 0 *
Fa
0  1e-07 38 0

0101000
+129 0 *
Ed
 1e-07 1 1 0
1  120 0 0 4.5
2  238 39 0 0 4.5
2  239 40 0 0 4.5
4 G1 39 0 40 0
0

0101000
+184 0 -147 0 *
Wi

0101100
+183 0 -130 0 +127 0 -146 0 *
Fa
0  1e-07 39 0

0101000
+126 0 *
Ed
 1e-07 1 1 0
1  121 0 0 4.5
2  240 40 0 0 4.5
2  241 41 0 0 4.5
4 G1 40 0 41 0
0

0101000
+182 0 -145 0 *
Wi

0101100
-144 0 -124 0 +127 0 +181 0 *
Fa
0  1e-07 40 0

0101000
+123 0 *
Ed
 1e-07 1 1 0
1  122 0 -0 4.5
2  242 41 0 -0 4.5
2  243 42 0 -0 4.5
4 G1 41 0 42 0
0

0101000
+180 0 -143 0 *
Wi

0101100
+179 0 -121 0 +124 0 -142 0 *
Fa
0  1e-07 41 0

0101000
+120 0 *
Ed
 1e-07 1 1 0
1  123 0 -0 4.5
2  244 42 0 -0 4.5
2  245 43 0 -0 4.5
4 G1 42 0 43 0
0

0101000
+178 0 -141 0 *
Wi

0101100
-177 0 +118 0 -121 0 +140 0 *
Fa
0  1e-07 42 0

0101000
+117 0 *
Wi

0101100
-118 0 -139 0 +172 0 +176 0 *
Fa
0  1e-07 43 0

0101000
+115 0 *
Sh

0101100
-408 0 +359 0 -354 0 +349 0 +307 0 +291 0 +288 0 +285 0 +282 0 +279 7 
-276 7 +274 0 -269 0 -266 0 -262 0 -259 0 +256 0 +254 0 -249 0 -244 0 
-239 0 -234 0 -231 0 -226 0 +211 0 +208 0 +203 0 -200 0 +195 0 +174 0 
-168 0 +166 0 -159 0 -154 0 +137 0 -134 0 +131 0 +128 0 -125 0 +122 0 
+119 0 -116 0 -114 0 *
So

0100000
+113 0 *
Ve
1e-07
6 52.5 96.2
0 0

0101101
*
Ve
1.5e-07
6 36.5 96.2
0 0

0101101
*
Ed
 1e-07 1 1 0
1  124 0 0 16
2  246 44 0 0 16
2  247 45 0 0 16
0

0101000
+111 78 -110 78 *
Ve
1.5e-07
6 36.5 83.8
0 0

0101101
*
Ed
 1.5e-07 1 1 0
1  125 0 -12.4 0
2  248 44 0 -12.4 0
2  249 46 0 -12.4 0
0

0101000
+108 78 -110 78 *
Ve
1e-07
6 52.5 83.8
0 0

0101101
*
Ed
 1e-07 1 1 0
1  126 0 0 16
2  250 44 0 0 16
2  251 47 0 0 16
0

0101000
+106 78 -108 78 *
Ed
 1e-07 1 1 0
1  127 0 0 12.4
2  252 44 0 0 12.4
2  253 48 0 0 12.4
0

0101000
-106 78 +111 78 *
Wi

0101100
-109 0 +107 0 +105 0 +104 0 *
Fa
0  1e-07 44 0

0101000
+103 0 *
Ve
1e-07
10.7 36.5 83.8
0 0

0101101
*
Ed
 1e-07 1 1 0
1  128 0 0 4.7
2  254 46 0 0 4.7
2  255 47 0 0 4.7
0

0101000
+101 78 -108 78 *
Ve
1e-07
10.7 36.5 96.2
0 0

0101101
*
Ed
 1e-07 1 1 0
1  129 0 0 4.7
2  256 46 0 0 4.7
2  257 45 0 0 4.7
0

0101000
+99 78 -110 78 *
Ed
 1e-07 1 1 0
1  130 0 0 12.4
2  258 46 0 0 12.4
2  259 49 0 0 12.4
0

0101000
-101 78 +99 78 *
Wi

0101100
-100 0 -107 0 +98 0 -97 0 *
Fa
0  1e-07 46 0

0101000
+96 0 *
Ve
1e-07
-17 52.5 83.8
0 0

0101101
*
Ed
 1e-07 1 1 0
1  131 0 0 23
2  260 48 0 0 23
2  261 47 0 0 23
0

0101000
-94 78 +106 78 *
Ve
1e-07
-17 52.5 96.2
0 0

0101101
*
Ed
 1e-07 1 1 0
1  132 0 0 12.4
2  262 48 0 0 12.4
2  263 50 0 0 12.4
0

0101000
-94 78 +92 78 *
Ed
 1e-07 1 1 0
1  133 0 0 23
2  264 48 0 0 23
2  265 45 0 0 23
0

0101000
-92 78 +111 78 *
Wi

0101100
-104 0 -93 0 +91 0 +90 0 *
Fa
0  1e-07 48 0

0111000
+89 0 *
Ve
1.5e-07
-17 36.5 96.2
0 0

0101101
*
Ed
 1e-07 1 1 0
1  134 0 0 16
2  266 50 0 0 16
2  267 45 0 0 16
0

0101000
+92 78 -87 78 *
Ve
1.5e-07
-17 36.5 83.8
0 0

0101101
*
Ed
 1.5e-07 1 1 0
1  135 0 -12.4 0
2  268 50 0 -12.4 0
2  269 51 0 -12.4 0
0

0101000
+85 78 -87 78 *
Ed
 1e-07 1 1 0
1  136 0 0 16
2  270 50 0 0 16
2  271 47 0 0 16
0

0101000
+94 78 -85 78 *
Wi

0101100
-86 0 +84 0 +83 0 +91 0 *
Fa
0  1e-07 50 0

0101000
+82 0 *
Ve
1e-07
10.7 34 96.2
0 0

0101101
*
Ed
 1e-07 1 1 0
1  137 0 0 2.5
2  272 49 0 0 2.5
2  273 45 0 0 2.5
0

0101000
-80 78 +99 78 *
Ve
1e-07
10.7 34 83.8
0 0

0101101
*
Ed
 1e-07 1 1 0
1  138 0 0 12.4
2  274 49 0 0 12.4
2  275 52 0 0 12.4
0

0101000
-78 78 +80 78 *
Ed
 1e-07 1 1 0
1  139 0 0 2.5
2  276 49 0 0 2.5
2  277 47 0 0 2.5
0

0101000
-78 78 +101 78 *
Wi

0101100
-79 0 -77 0 +76 0 +97 0 *
Fa
0  1e-07 49 0

0111000
+75 0 *
Ve
1e-07
-21.7 36.5 83.8
0 0

0101101
*
Ed
 1e-07 1 1 0
1  140 0 27.7 32.4
2  278 51 0 27.7 32.4
2  279 47 0 27.7 32.4
0

0101000
+85 78 -73 78 *
Ve
1e-07
-21.7 36.5 96.2
0 0

0101101
*
Ed
 1e-07 1 1 0
1  141 0 0 12.4
2  280 51 0 0 12.4
2  281 53 0 0 12.4
0

0101000
-73 78 +71 78 *
Ed
 1e-07 1 1 0
1  142 0 27.7 32.4
2  282 51 0 27.7 32.4
2  283 45 0 27.7 32.4
0

0101000
+87 78 -71 78 *
Wi

0101100
-72 0 +70 0 +69 0 +84 0 *
Fa
0  1e-07 51 0

0101000
+68 0 *
Ve
1.5e-07
6 34 83.8
0 0

0101101
*
Ed
 1e-07 1 1 0
1  143 0 0 4.7
2  284 52 0 0 4.7
2  285 47 0 0 4.7
0

0101000
+78 78 -66 78 *
Ve
1.5e-07
6 34 96.2
0 0

0101101
*
Ed
 1.5e-07 1 1 0
1  144 0 -12.4 0
2  286 52 0 -12.4 0
2  287 54 0 -12.4 0
0

0101000
+66 78 -64 78 *
Ed
 1e-07 1 1 0
1  145 0 0 4.7
2  288 52 0 0 4.7
2  289 45 0 0 4.7
0

0101000
+80 78 -64 78 *
Wi

0101100
-65 0 -63 0 +62 0 -77 0 *
Fa
0  1e-07 52 0

0101000
+61 0 *
Ve
1e-07
-21.7 34 96.2
0 0

0101101
*
Ed
 1e-07 1 1 0
1  146 0 0 2.5
2  290 53 0 0 2.5
2  291 45 0 0 2.5
0

0101000
-59 78 +71 78 *
Ve
1e-07
-21.7 34 83.8
0 0

0101101
*
Ed
 1e-07 1 1 0
1  147 0 0 12.4
2  292 53 0 0 12.4
2  293 55 0 0 12.4
0

0101000
-57 78 +59 78 *
Ed
 1e-07 1 1 0
1  148 0 0 2.5
2  294 53 0 0 2.5
2  295 47 0 0 2.5
0

0101000
-57 78 +73 78 *
Wi

0101100
-58 0 -56 0 +55 0 +70 0 *
Fa
0  1e-07 53 0

0111000
+54 0 *
Ve
1.5e-07
-17 34 83.8
0 0

0101101
*
Ed
 1e-07 1 1 0
1  149 0 27.7 32.4
2  296 55 0 27.7 32.4
2  297 47 0 27.7 32.4
0

0101000
+52 78 -57 78 *
Ve
1.5e-07
-17 34 96.2
0 0

0101101
*
Ed
 1e-07 1 1 0
1  150 0 27.7 32.4
2  298 55 0 27.7 32.4
2  299 45 0 27.7 32.4
0

0101000
+50 78 -59 78 *
Ed
 1.5e-07 1 1 0
1  151 0 -12.4 0
2  300 55 0 -12.4 0
2  301 56 0 -12.4 0
0

0101000
+52 78 -50 78 *
Wi

0101100
-51 0 +56 0 +49 0 +48 0 *
Fa
0  1e-07 55 0

0101000
+47 0 *
Ve
1e-07
-17 30 96.2
0 0

0101101
*
Ed
 1e-07 1 1 0
1  152 0 18.5 22.5
2  302 56 0 18.5 22.5
2  303 45 0 18.5 22.5
0

0101000
+50 78 -45 78 *
Ve
1e-07
-17 30 83.8
0 0

0101101
*
Ed
 1e-07 1 1 0
1  153 0 0 12.4
2  304 56 0 0 12.4
2  305 57 0 0 12.4
0

0101000
-43 78 +45 78 *
Ed
 1e-07 1 1 0
1  154 0 18.5 22.5
2  306 56 0 18.5 22.5
2  307 47 0 18.5 22.5
0

0101000
+52 78 -43 78 *
Wi

0101100
-44 0 -42 0 +41 0 -48 0 *
Fa
0  1e-07 56 0

0101000
+40 0 *
Ve
1e-07
6 30 83.8
0 0

0101101
*
Ve
1e-07
6 30 96.2
0 0

0101101
*
Ed
 1e-07 1 1 0
1  155 0 0 12.4
2  308 57 0 0 12.4
2  309 54 0 0 12.4
0

0101000
-38 78 +37 78 *
Ed
 1e-07 1 1 0
1  156 0 0 23
2  310 57 0 0 23
2  311 47 0 0 23
0

0101000
-43 78 +38 78 *
Ed
 1e-07 1 1 0
1  157 0 0 23
2  312 57 0 0 23
2  313 45 0 0 23
0

0101000
-45 78 +37 78 *
Wi

0101100
-36 0 -35 0 +34 0 +42 0 *
Ve
1e-07
-5.9 30 90
0 0

0101101
*
Ed
 1e-07 1 1 0
1  158 0 0 6.28318530717959
2  314 57 0 0 6.28318530717959
2  315 58 0 0 6.28318530717959
0

0101000
+32 78 -32 78 *
Wi

0101100
-31 0 *
Fa
0  1e-07 57 0

0101000
+33 0 +30 0 *
Ed
 1e-07 1 1 0
1  159 0 18.5 22.5
2  316 54 0 18.5 22.5
2  317 45 0 18.5 22.5
0

0101000
+64 78 -37 78 *
Ed
 1e-07 1 1 0
1  160 0 18.5 22.5
2  318 54 0 18.5 22.5
2  319 47 0 18.5 22.5
0

0101000
+66 78 -38 78 *
Wi

0101100
-28 0 -36 0 +27 0 -63 0 *
Fa
0  1e-07 54 0

0101000
+26 0 *
Ve
1e-07
-5.9 26 90
0 0

0101101
*
Ed
 1e-07 1 1 0
1  161 0 0 6.28318530717959
2  320 58 0 0 6.28318530717959
2  321 59 0 0 6.28318530717959
0

0101000
+24 78 -24 78 *
Ed
 1e-07 1 1 0
1  162 0 0 4
3  322 323CN 58 0 0 4
0

0101000
+32 78 -24 78 *
Wi

0101100
-23 0 +22 0 +31 0 -22 0 *
Fa
0  1e-07 58 0

0101000
+21 0 *
Ve
1e-07
-9 26 90
0 0

0101101
*
Ed
 1e-07 1 1 0
1  163 0 0 6.28318530717959
2  324 59 0 0 6.28318530717959
2  325 60 0 0 6.28318530717959
0

0101000
+19 78 -19 78 *
Wi

0101100
+18 0 *
Wi

0101100
-23 0 *
Fa
0  1e-07 59 0

0101000
+17 0 +16 0 *
Ve
1e-07
-9 24 90
0 0

0101101
*
Ed
 1e-07 1 1 0
1  164 0 0 6.28318530717959
2  326 60 0 0 6.28318530717959
2  327 61 0 0 6.28318530717959
0

0101000
+14 78 -14 78 *
Ed
 1e-07 1 1 0
1  165 0 0 2
3  328 329CN 60 0 0 2
0

0101000
-14 78 +19 78 *
Wi

0101100
-13 0 +12 0 +18 0 -12 0 *
Fa
0  1e-07 60 0

0111000
+11 0 *
Wi

0101100
+13 0 *
Fa
0  1e-07 61 0

0111000
+9 0 *
Wi

0101100
+86 0 +69 0 +58 0 -49 0 +44 0 -34 0 -28 0 -62 0 -79 0 +98 0 
-109 0 +90 0 *
Fa
0  1e-07 45 0

0101000
+7 0 *
Wi

0101100
-83 0 -93 0 +105 0 -100 0 +76 0 +65 0 +27 0 +35 0 -41 0 +51 0 
-55 0 -72 0 *
Fa
0  1e-07 47 0

0101000
+5 0 *
Sh

0101100
-102 0 -95 0 -88 0 +81 0 -74 0 -67 0 +60 0 +53 0 +46 0 +39 0 
+29 0 -25 0 +20 0 -15 0 +10 0 +8 0 +6 0 +4 0 *
So

0100000
+3 0 *
Co

1100000
+112 0 +2 77 *

+1 1 