DBRep_DrawableShape

CASCADE Topology V1, (c) Matra-Datavision
Locations 78
1
              1               0               0              -0 
              0               1               0             -30 
              0               0               1             -28 
1
             -1 -1.22464679914735e-16               0               0 
1.22464679914735e-16              -1               0               0 
              0               0               1               0 
1
              1               0               0               0 
              0               1               0               0 
              0               0               1               0 
1
              1               0               0               0 
              0 1.11022302462516e-16               1               0 
              0              -1 1.11022302462516e-16               0 
1
              1               0               0               0 
              0               1               0               0 
              0               0               1               0 
1
              1               0               0               0 
              0               1               0              30 
              0               0               1              40 
2  2 1 3 1 4 1 5 1 6 1 0
2  6 -1 5 -1 4 -1 3 -1 2 -1 0
1
             -1 -1.22464679914735e-16               0               0 
1.22464679914735e-16              -1               0               0 
              0               0               1               0 
1
              1               0               0               0 
              0               1               0               0 
              0               0               1               0 
1
              1               0               0               0 
              0 1.11022302462516e-16               1               0 
              0              -1 1.11022302462516e-16               0 
1
              1               0               0               0 
              0               1               0               0 
              0               0               1               0 
1
              1               0               0               0 
              0               1               0              30 
              0               0               1              40 
2  9 1 10 1 11 1 12 1 13 1 0
1
             -1 -1.22464679914735e-16               0               0 
1.22464679914735e-16              -1               0               0 
              0               0               1               0 
1
              1               0               0               0 
              0               1               0               0 
              0               0               1               0 
1
              1               0               0               0 
              0 1.11022302462516e-16               1               0 
              0              -1 1.11022302462516e-16               0 
1
              1               0               0               0 
              0               1               0               0 
              0               0               1               0 
1
              1               0               0               0 
              0               1               0              30 
              0               0               1              40 
2  15 1 16 1 17 1 18 1 19 1 0
1
             -1 -1.22464679914735e-16               0               0 
1.22464679914735e-16              -1               0               0 
              0               0               1               0 
1
              1               0               0               0 
              0               1               0               0 
              0               0               1               0 
1
              1               0               0               0 
              0 1.11022302462516e-16               1               0 
              0              -1 1.11022302462516e-16               0 
1
              1               0               0               0 
              0               1               0               0 
              0               0               1               0 
1
              1               0               0               0 
              0               1               0              30 
              0               0               1              40 
2  21 1 22 1 23 1 24 1 25 1 0
1
1.11022302462516e-16               0               1               0 
              0               1               0               0 
             -1               0 1.11022302462516e-16               0 
1
              1               0               0               0 
              0               1               0               0 
              0               0               1               0 
1
              1               0               0               0 
              0 1.11022302462516e-16              -1               0 
              0               1 1.11022302462516e-16               0 
1
              1               0               0               0 
              0               1               0               0 
              0               0               1               0 
1
              1               0               0               0 
              0               1               0              30 
              0               0               1              16 
2  27 1 28 1 29 1 30 1 31 1 0
2  31 -1 30 -1 29 -1 28 -1 27 -1 0
1
1.11022302462516e-16               0               1               0 
              0               1               0               0 
             -1               0 1.11022302462516e-16               0 
1
              1               0               0               0 
              0               1               0               0 
              0               0               1               0 
1
              1               0               0               0 
              0 1.11022302462516e-16              -1               0 
              0               1 1.11022302462516e-16               0 
1
              1               0               0               0 
              0               1               0               0 
              0               0               1               0 
1
              1               0               0               0 
              0               1               0              30 
              0               0               1              16 
2  34 1 35 1 36 1 37 1 38 1 0
1
1.11022302462516e-16               0               1               0 
              0               1               0               0 
             -1               0 1.11022302462516e-16               0 
1
              1               0               0               0 
              0               1               0               0 
              0               0               1               0 
1
              1               0               0               0 
              0 1.11022302462516e-16              -1               0 
              0               1 1.11022302462516e-16               0 
1
              1               0               0               0 
              0               1               0               0 
              0               0               1               0 
1
              1               0               0               0 
              0               1               0              30 
              0               0               1              16 
2  40 1 41 1 42 1 43 1 44 1 0
1
1.11022302462516e-16               0               1               0 
              0               1               0               0 
             -1               0 1.11022302462516e-16               0 
1
              1               0               0               0 
              0               1               0               0 
              0               0               1               0 
1
              1               0               0               0 
              0 1.11022302462516e-16              -1               0 
              0               1 1.11022302462516e-16               0 
1
              1               0               0               0 
              0               1               0               0 
              0               0               1               0 
1
              1               0               0               0 
              0               1               0              30 
              0               0               1              16 
2  46 1 47 1 48 1 49 1 50 1 0
1
1.11022302462516e-16               0               1               0 
              0               1               0               0 
             -1               0 1.11022302462516e-16               0 
1
              1               0               0               0 
              0               1               0               0 
              0               0               1               0 
1
              1               0               0               0 
              0 1.11022302462516e-16              -1               0 
              0               1 1.11022302462516e-16               0 
1
              1               0               0               0 
              0               1               0               0 
              0               0               1               0 
1
              1               0               0               0 
              0               1               0              30 
              0               0               1              16 
2  52 1 53 1 54 1 55 1 56 1 0
1
1.11022302462516e-16               0               1               0 
              0               1               0               0 
             -1               0 1.11022302462516e-16               0 
1
              1               0               0               0 
              0               1               0               0 
              0               0               1               0 
1
              1               0               0               0 
              0 1.11022302462516e-16              -1               0 
              0               1 1.11022302462516e-16               0 
1
              1               0               0               0 
              0               1               0               0 
              0               0               1               0 
1
              1               0               0               0 
              0               1               0              30 
              0               0               1              16 
2  58 1 59 1 60 1 61 1 62 1 0
2  13 -1 12 -1 11 -1 10 -1 9 -1 0
2  19 -1 18 -1 17 -1 16 -1 15 -1 0
2  25 -1 24 -1 23 -1 22 -1 21 -1 0
2  38 -1 37 -1 36 -1 35 -1 34 -1 0
2  44 -1 43 -1 42 -1 41 -1 40 -1 0
2  50 -1 49 -1 48 -1 47 -1 46 -1 0
2  56 -1 55 -1 54 -1 53 -1 52 -1 0
2  62 -1 61 -1 60 -1 59 -1 58 -1 0
1
             -1 -1.22464679914735e-16               0               0 
1.22464679914735e-16              -1               0               0 
              0               0               1               0 
1
              1               0               0               0 
              0               1               0               0 
              0               0               1               0 
1
              1               0               0               0 
              0 1.11022302462516e-16               1               0 
              0              -1 1.11022302462516e-16               0 
1
              1               0               0               0 
              0               1               0               0 
              0               0               1               0 
1
              1               0               0               0 
              0               1               0              30 
              0               0               1              40 
2  72 1 73 1 74 1 75 1 76 1 0
2  76 -1 75 -1 74 -1 73 -1 72 -1 0
Curve2ds 254
1 0 0 0 1 
1 14.167239193083567 8.9646224783861665 0 1 
7 0 0  8 16 3  0.74581613812210801 0.032990177508338103  0.72604889137354234 0.048927345601079163  0.70648331192820679 0.068814254304990524  0.68712847484347461 0.092236927340888661  0.66798853598708685 0.11882955788936794  0.64906336028290146 0.14827055813748008  0.63034899212793771 0.18027925219974164  0.61183796798071344 0.21461321241346995  0.51149914637502614 0.41428318318056917  0.43231365644437825 0.62202045582717824  0.35607800147400198 0.85580976248782281  0.28245689284054626 1.1046061748621741  0.21092785552121618 1.3617201450272134  0.1407312019021113 1.6238335995933171  0.070873202342774652 1.8899809620406238  0 2.1599999999999997 
 0 9 0.1825663942100591 7 1 9
7 0 0  8 16 3  0.1749986745708707 2.1599994000000002  0.21737678494941856 2.2575719286418003  0.25864913088201397 2.3561853668047341  0.29889078127971808 2.455664023903195  0.33817074187193102 2.5558558119381973  0.37655407717868289 2.6566340546090164  0.41410354824872536 2.7578987520557479  0.45088076616342282 2.8595773012327932  0.64843133563746713 3.4185376242540109  0.79767842929435606 3.8885549755193143  0.93774414966085984 4.3628508375830393  1.0706195309069477 4.8360270027092405  1.1982548058318152 5.3062138636193694  1.3225680112207336 5.7742849479560441  1.4457880793096423 6.243732343065858  1.5707963267948966 6.7199999999999989 
 0 9 0.1825663942100591 7 1 9
8 -5.999999999062311e-07 3.000000599999999
1 0.45138314119093942 -8.8817841970012523e-16 0 1 
1 2.7899673791663648 8.8817841970012681e-16 0 1 
1 -1.5707963267948966 0 1 0 
2 -3.3703071877553832 3.1561813507426493 -1 0 0 1 6.7199999999999989
1 10.607239193083565 8.9646224783861665 0 1 
1 0 0 0 1 
1 20.887239193083566 8.9646224783861665 -1 0 
1 3.3496928122446157 9.8761813507426481 -1 0 
1 20.887239193083566 11.124622478386167 -1 0 
1 1.5707963267948966 0 0 1 
1 7.8872391930835661 14.664622478386168 1.2246467991473532e-16 -1 
1 0 0 0 1 
1 20.887239193083566 11.124622478386167 -1 0 
1 1.5707963267948966 0 0 1 
1 7.8872391930835732 -19.735377521613831 -1 -1.2246467991473532e-16 
1 0 0 0 -1 
1 18.727239193083566 8.9646224783861665 0 1 
1 0 0 0 1 
1 -14.112760806916434 14.664622478386164 1.2246467991473532e-16 -1 
1 0 0 0 1 
1 20.887239193083566 11.964622478386167 -1 0 
1 -3.3489441349432632 9.7618185754309401 1 0 
1 7.8872391930835661 14.664622478386168 -1 -1.2246467991473532e-16 
1 0 0 0 -1 
1 7.8872391930835661 14.664622478386168 1.2246467991473532e-16 -1 
1 0 0 0 1 
2 -3.1127608069164268 -16.535377521613832 1.2246467991473532e-16 -1 -1 -1.2246467991473532e-16 1.1499999999999999
1 6.679274664138223e-65 8 1 0 
8 -4.8823112391930836 19.717688760806919
1 -10.112760806916434 4.8823112391930827 1.2246467991473532e-16 -1 
8 -4.8823112391930836 19.717688760806919
1 12.5 4.8823112391930836 -1.3596310734468911e-32 1 
8 -12.056380403458215 1.9436195965417853
1 1.9436195965417866 -14.835377521613834 1 1.2246467991473532e-16 
8 -12.056380403458215 1.9436195965417853
1 12.5 -1.9436195965417853 -1.1102230246251565e-16 1 
8 -4.8823112391930836 19.717688760806919
1 3.8872391930835661 4.8823112391930845 1.2246467991473532e-16 -1 
8 -4.8823112391930836 19.717688760806919
1 12.5 4.8823112391930836 -1.3596310734468911e-32 1 
8 -12.056380403458222 1.9436195965417782
1 1.9436195965417866 9.7646224783861673 1 1.2246467991473532e-16 
8 -12.056380403458222 1.9436195965417782
1 12.5 -1.9436195965417782 -1.1102230246251565e-16 1 
2 -3.1127608069164339 11.464622478386167 1.2246467991473532e-16 -1 -1 -1.2246467991473532e-16 1.1499999999999999
1 6.679274664138223e-65 8 1 0 
1 0 2.1600000000000001 1 0 
1 0 0 1 0 
7 0 0  8 16 3  0 6.5463272145532132  0.14459519856714453 6.1245703317957236  0.27747354099681271 5.6889079543440975  0.4011355720976173 5.246708177785651  0.51712150562971571 4.8028245005478478  0.62685824359803977 4.3599127275256198  0.73163401766925551 3.9184570800126606  0.83288671669546654 3.4765973827788628  0.95644049451004753 2.921511876631989  0.98048502801827686 2.8127134673483467  1.0043689692935833 2.7039150779167058  1.0281025084626807 2.5951207878866924  1.0516956235467716 2.4863328103963935  1.0751581569347666 2.3775514212975231  1.0984998918565017 2.2687748882805781  1.1217306288559563 2.1599994000000002 
 0 9 0.80400757568954073 7 1 9
7 0 0  3 25 23  2.7899673811457459 0.59329572474912773  2.7923436551112055 0.60184040499102431  2.7970905803973265 0.61903837311213727  2.8041951652645145 0.64515353685137566  2.811284991096231 0.67157904480176278  2.8183611748795765 0.69830792558898547  2.825424880505798 0.72533377934319987  2.832477328182097 0.75265086218767019  2.8395197818906803 0.78025401156075802  2.846553589225675 0.8081387994289202  2.8535800336847061 0.83630093324650412  2.860600884756002 0.8647384381531682  2.8676163443395155 0.89344346657100404  2.874616427789721 0.92236584176691161  2.8816036412163144 0.95150624494633029  2.888577734457237 0.98085440317602046  2.8955392081538491 1.0104032889347885  2.9024883743795877 1.0401453091760362  2.9094256086895771 1.0700733201279005  2.9163512829727063 1.1001803496309344  2.9232657837117033 1.1304596635884236  2.9301695078462955 1.1609047484281001  2.937062862852394 1.1915092854061824  2.941651802543773 1.2120145894889132  2.9439446846505564 1.2222917922820065 
 0.63238066614494015 4 0.64909062972310139 1 0.66580059330126273 1 0.68251055687942397 1 0.69922052045758532 1 0.71593048403574655 1 0.73264044761390779 1 0.74935041119206913 1 0.76606037477023037 1 0.78277033834839171 1 0.79948030192655295 1 0.81619026550471419 1 0.83290022908287553 1 0.84961019266103677 1 0.86632015623919811 1 0.88303011981735935 1 0.8997400833955207 1 0.91645004697368193 1 0.93316001055184317 1 0.94986997413000451 1 0.96657993770816575 1 0.98328990128632709 1 0.99999986486448833 4
1 6.2831853071795862 0 1 0 
2 3.3496928122446157 -1.1238186492573519 1.1102230246251565e-16 -1 -1 -1.1102230246251565e-16 11
1 7.578409151905352 1.0255191767873153e-29 0 1 
8 -5.999999999062311e-07 3.0000005999999999
1 0.04539735158303565 0 0 1 
1 6.2831853071795862 3 1 0 
2 -3.3489441349432632 -1.2381814245690599 -1.1102230246251565e-16 -1 1 -1.1102230246251565e-16 11
1 0 3 1 0 
2 -3.3489441349432632 -1.2381814245690599 -1.1102230246251565e-16 -1 1 -1.1102230246251565e-16 11
1 3.0046924989981036 8.8817841970012523e-16 0 1 
8 2.1599994000000011 3.000000599999999
1 0.30993733124146744 -8.8817841970012523e-16 0 1 
7 0 0  3 25 23  2.9439446846505541 1.2222917922820251  2.9457560983866595 1.230409800642964  2.9493128616391675 1.2476147169650944  2.9544372147677174 1.2761331093004209  2.9593371670956228 1.3071667281717598  2.9640026444301055 1.3405201685492174  2.9684255487034319 1.3760019477402148  2.972599864689828 1.4134268785598598  2.9765213375466653 1.4526181344908196  2.980187332219876 1.4934099314426024  2.983596310851691 1.5356461105966512  2.9867475126971756 1.579178364165998  2.9896410635194504 1.623870695318931  2.9922770601330084 1.6695867697649278  2.994656573106989 1.7162069423498938  2.9967810154978247 1.7636233175219742  2.9986516521292121 1.8117308891263024  3.0002697337556814 1.860429756204653  3.0016364499682386 1.9096243898691356  3.0027529156358583 1.9592237246757329  3.0036201379166627 2.0091410057254353  3.0042389609740088 2.0592938931560929  3.0046100528806998 2.109603886144745  3.0046924707561593 2.1432001729005541  3.0046924989981001 2.1600000000000019 
 0 4 0.045454545454545456 1 0.090909090909090912 1 0.13636363636363635 1 0.18181818181818182 1 0.22727272727272729 1 0.27272727272727271 1 0.31818181818181818 1 0.36363636363636365 1 0.40909090909090912 1 0.45454545454545459 1 0.5 1 0.54545454545454541 1 0.59090909090909094 1 0.63636363636363635 1 0.68181818181818188 1 0.72727272727272729 1 0.77272727272727271 1 0.81818181818181823 1 0.86363636363636365 1 0.90909090909090917 1 0.95454545454545459 1 1 4
7 0 0  6 17 4  1.1217305007164151 -1.6653345369377348e-15  1.1353783871174747 -0.029585552990770481  1.1505424660430712 -0.057819856842214468  1.167104048971221 -0.084540726830696578  1.1849515385353324 -0.10964255006680551  1.2039753267855926 -0.13305203346019345  1.2375825305551047 -0.16929201055230114  1.2515776013811155 -0.18307502566960965  1.2660270475143049 -0.19605918436291037  1.2808995800942951 -0.20823416470875669  1.296163643539727 -0.21959235858540693  1.3510755844844069 -0.25662199426649468  1.3926174724010709 -0.27790198186191428  1.4359487392716506 -0.29391906600889389  1.4805030484480319 -0.30459397695151369  1.5256355029084547 -0.30993733124144818  1.5707963267948966 -0.30993733124144818 
 0 7 0.29738827133752271 5 0.49730244978987004 5 1 7
1 0 1.5975497984426477e-15 1 -2.5425794725760847e-16 
2 3.3496928122446157 -1.1238186492573519 1.1102230246251565e-16 -1 -1 -1.1102230246251565e-16 11
2 -6.9303071877553855 2.596181350742647 -1 0 0 1 6.7199999999999989
1 -4.7123889803846897 0 1 0 
2 -6.9303071877553855 3.1561813507426493 -1 0 -0 -1 6.7199999999999989
1 -4.7123889803846897 0 1 0 
1 -13.650307187755384 9.8761813507426481 0 -1 
1 0 0 0 1 
1 -9.6503071877553843 9.8761813507426481 1.1102230246251565e-16 1 
1 0 5.7000000000000011 -1 0 
2 -6.9303071877553855 3.1561813507426493 -1 0 -0 -1 6.7199999999999989
1 -4.7123889803846897 0 1 0 
1 -3.1503071877553843 5.3761813507426481 -1 1.1102230246251565e-16 
1 -17.03594657974751 10.715376001023319 1 0 
2 3.3496928122446157 -7.6238186492573519 1.1102230246251565e-16 -1 -1 -1.1102230246251565e-16 1.1499999999999999
1 0 3 1 0 
2 -3.1503071877553843 -1.1238186492573519 1.1102230246251565e-16 -1 -1 -1.1102230246251565e-16 1.1499999999999999
1 0 3.0000000000000009 1 0 
2 3.3496928122446157 -1.1238186492573519 1.1102230246251565e-16 -1 -1 -1.1102230246251565e-16 3.2000000000000002
1 0 3.0000000000000009 1 0 
2 9.8496928122446157 -1.1238186492573519 1.1102230246251565e-16 -1 -1 -1.1102230246251565e-16 1.1499999999999999
1 0 3.0000000000000009 1 0 
2 3.3496928122446157 5.3761813507426481 1.1102230246251565e-16 -1 -1 -1.1102230246251565e-16 1.1499999999999999
1 0 3.0000000000000018 1 0 
7 0 0  7 20 4  0.82498031022695506 0  0.80096975481126564 1.284367533938061e-17  0.77715297972341957 0.0075867805301676689  0.75357829269485388 0.021833406721983591  0.73027883052262843 0.041926695292052278  0.70727631412790137 0.067152801928929348  0.68458348420347892 0.096886832588751054  0.61870405884861479 0.19609528983659552  0.57625083577035896 0.27680089429306354  0.5348650182533865 0.36893951471010505  0.49448498171239824 0.46982555415476823  0.45499357676448199 0.57757980428392997  0.41622153457363953 0.69100724445535133  0.32150576600941722 0.98417710834859484  0.2662514518969884 1.1695171610473103  0.2120014001653433 1.3617432101230691  0.1585320915598793 1.5583850947901425  0.10558169133742826 1.7577461384016266  0.052853665706907818 1.9586337975419847  0 2.1599999999999997 
 0 8 0.17210217546717962 6 0.50665194705314875 6 1 8
7 0 0  7 20 4  0 15.216071312288758  0.054869358231251365 15.106583179593214  0.10787602313374538 14.994658682136365  0.15916870311567496 14.880717907830956  0.20887182059721582 14.765147036513312  0.25709530985615653 14.648289170241709  0.30394051423533519 14.530439121735622  0.4380696034346428 14.181301285851033  0.52207361643263728 13.947191963028583  0.60221614736779772 13.711121749213751  0.67906765573413053 13.474148743444895  0.75317353143250165 13.236742202547562  0.82507655440846306 12.998820701241529  0.99898929225572108 12.407251614370081  1.0988971960341332 12.05293175975125  1.1959682673559089 11.698200474764857  1.2909472258936263 11.34371565551389  1.3845678393621341 10.989508770904786  1.4775712010210478 10.635176669025942  1.5707963267948966 10.280000000000001 
 0 8 0.17210217546717962 6 0.50665194705314875 6 1 8
8 -5.999999999062311e-07 3.0000005999999999
1 0.41671843778823603 0 0 1 
8 -5.999999999062311e-07 3.0000005999999999
1 0.57508340170511119 5.7000000000000011 0 -1 
1 0 13 1 0 
2 2.1600000000000001 3.5400000000000009 0 1 -1 0 2.1600000000000001
1 0 34.399999999999999 1 0 
1 0 0 1 0 
1 4.5 0 0 1 
1 -10.53594657974751 16.415376001023319 -1.2246467991473532e-16 -1 
1 4.5 0 0 -1 
1 -10.535946579747513 -17.98462399897668 1 -1.2246467991473532e-16 
1 0 -22 1 0 
1 0 34.399999999999999 1 0 
8 4.7123889803846897 6.2831853071795862
1 6.2831853071795862 2.1600000000000001 -1 -0 
8 4.7123889803846897 6.2831853071795862
1 1.5707963267948966 -6.2831853071795862 0 1 
1 -1.5707963267948966 3 1 0 
2 -1.188944134943263 7.60181857543094 1 0 -0 1 2.1600000000000001
1 4.5 0 0 1 
1 11.46405342025249 16.415376001023319 -1.2246467991473532e-16 -1 
1 0 0 1 0 
1 0 -22 1 0 
2 6.931055865056738 2.481818575430939 1 0 -0 1 6.7199999999999989
1 -4.7123889803846897 3 1 0 
1 9.6510558650567368 9.7618185754309401 -1.1102230246251565e-16 1 
1 0 2.7000000000000011 -1 0 
1 13.651055865056737 9.7618185754309401 0 -1 
1 3 0 0 1 
1 -3.3489441349432632 5.2618185754309401 1 0 
1 -23.53594657974751 13.715376001023319 1 0 
2 6.931055865056738 3.0418185754309413 1 0 0 -1 6.7199999999999989
1 -4.7123889803846897 3 1 0 
2 -3.3489441349432632 -7.7381814245690599 -1.1102230246251565e-16 -1 1 -1.1102230246251565e-16 1.1499999999999999
1 0 5.9999999999999991 1 0 
2 -9.8489441349432632 -1.2381814245690599 -1.1102230246251565e-16 -1 1 -1.1102230246251565e-16 1.1499999999999999
1 0 6 1 0 
2 -3.3489441349432632 -1.2381814245690599 -1.1102230246251565e-16 -1 1 -1.1102230246251565e-16 3.2000000000000002
1 0 6 1 0 
2 3.1510558650567368 -1.2381814245690599 -1.1102230246251565e-16 -1 1 -1.1102230246251565e-16 1.1499999999999999
1 0 6 1 0 
2 -3.3489441349432632 5.2618185754309401 -1.1102230246251565e-16 -1 1 -1.1102230246251565e-16 1.1499999999999999
1 0 6.0000000000000009 1 0 
1 0 0 1 0 
1 0 0 1 0 
1 4.5 0 0 -1 
1 -10.53594657974751 16.415376001023319 1 -1.2246467991473532e-16 
1 4.5 0 0 1 
1 -10.53594657974751 16.415376001023319 -1.2246467991473532e-16 -1 
1 6.679274664138223e-65 12.499999999999996 1 0 
2 0.46405342025248331 -14.784623998976681 -1.2246467991473532e-16 -1 1 -1.2246467991473532e-16 1.1499999999999999
1 6.2831853071795862 -0 0 1 
1 0 -0 0 1 
1 0 24.600000000000001 1 0 
1 0 -14 1 0 
8 -18.842311999488341 5.75768800051166
1 16.999999999999996 5.75768800051166 1.3596310734468911e-32 -1 
8 -18.842311999488341 5.75768800051166
1 7.4640534202524904 5.7576880005116582 1.2246467991473532e-16 1 
1 0 0 1 0 
1 0 -14 1 0 
1 0 0 1 0 
1 0 24.600000000000001 1 0 
8 -3.2679732898737566 10.732026710126243
1 16.999999999999996 -3.2679732898737566 1.1102230246251565e-16 -1 
8 -3.2679732898737566 10.732026710126243
1 -3.2679732898737583 -13.084623998976681 1 -1.2246467991473532e-16 
8 -18.842311999488341 5.75768800051166
1 16.999999999999996 5.75768800051166 1.3596310734468911e-32 -1 
8 -18.842311999488341 5.75768800051166
1 -6.5359465797475096 5.75768800051166 1.2246467991473532e-16 1 
1 0 0 1 0 
1 0 0 1 0 
8 -3.2679732898737495 10.732026710126251
1 16.999999999999996 -3.2679732898737495 1.1102230246251565e-16 -1 
8 -3.2679732898737495 10.732026710126251
1 -3.2679732898737583 11.51537600102332 1 -1.2246467991473532e-16 
1 6.679274664138223e-65 12.499999999999996 1 0 
2 0.46405342025249041 13.215376001023319 -1.2246467991473532e-16 -1 1 -1.2246467991473532e-16 1.1499999999999999
1 6.2831853071795862 -0 0 1 
1 0 -0 0 1 
1 1.5707963267948966 0 0 1 
1 0 7.2800000000000011 1 0 
1 1.2341143896691997 0 0 1 
1 -6.9132342261877184 10.715376001023319 0 1 
1 1.5707963267948966 0 0 1 
1 0 6.7199999999999989 1 0 
1 6.2831853071795862 -0 0 1 
1 0 -0 0 1 
1 6.2831853071795862 -0 0 1 
1 0 -0 0 1 
1 6.2831853071795862 -0 0 1 
1 0 -0 0 1 
1 6.2831853071795862 -0 0 1 
1 0 -0 0 1 
1 6.2831853071795862 -0 0 1 
1 0 -0 0 1 
1 0 0 1 0 
1 12.277322404371587 -11.5 -1 0 
8 -12.4 0
1 16 0 0 1 
8 -12.4 0
1 4.6999999999999993 0 0 -1 
1 0 -12.4 1 0 
1 -12.277322404371578 -11.500000000000002 1 0 
1 0 0 0 -1 
1 0 0 0 1 
1 0 12.4 1 0 
1 3.7226775956284222 -16.200000000000003 0 1 
1 0 0 1 0 
1 -3.7226775956284133 -16.199999999999999 0 1 
1 0 0 0 1 
1 0 0 0 -1 
1 0 12.4 1 0 
1 -12.277322404371578 -11.500000000000002 0 1 
1 23 0 0 1 
1 0 0 0 -1 
1 0 0 1 0 
1 12.277322404371587 -11.5 0 1 
1 0 0 1 0 
1 12.277322404371587 11.5 -1 0 
8 -12.4 0
1 16 0 0 1 
8 -12.4 0
1 27.699999999999999 0 0 -1 
1 0 -12.4 1 0 
1 -12.277322404371578 11.499999999999998 1 0 
1 0 0 1 0 
1 -3.7226775956284133 -16.199999999999999 -1 0 
1 2.5 0 0 -1 
1 0 0 0 1 
1 0 -12.4 1 0 
1 3.7226775956284222 -16.200000000000003 1 0 
1 0 12.4 1 0 
1 3.7226775956284222 -16.200000000000003 0 1 
1 32.399999999999999 0 0 1 
1 0 0 0 -1 
1 0 0 1 0 
1 -3.7226775956284133 -16.199999999999999 0 1 
1 0 12.4 1 0 
1 6.2226775956284222 -16.200000000000003 0 1 
8 -12.4 0
1 4.6999999999999993 0 0 -1 
8 -12.4 0
1 18.5 0 0 1 
1 0 0 1 0 
1 -6.2226775956284133 -16.199999999999999 0 1 
1 0 0 1 0 
1 -3.7226775956284133 16.199999999999999 -1 0 
1 2.5 0 0 -1 
1 32.399999999999999 0 0 1 
1 0 -12.4 1 0 
1 3.7226775956284222 16.199999999999996 1 0 
1 0 12.4 1 0 
1 6.2226775956284222 -16.200000000000003 0 1 
1 0 0 1 0 
1 -6.2226775956284133 -16.199999999999999 0 1 
8 -12.4 0
1 27.699999999999999 0 0 -1 
8 -12.4 0
1 18.5 0 0 1 
1 0 0 1 0 
1 12.277322404371587 11.5 -1 0 
1 22.5 0 0 -1 
1 23 0 0 1 
1 0 -12.4 1 0 
1 -12.277322404371578 11.499999999999998 1 0 
1 0 0 0 1 
1 22.5 0 0 -1 
1 0 12.4 1 0 
1 10.222677595628422 -11.500000000000002 0 1 
1 0 0 1 0 
1 -10.222677595628413 -11.5 0 1 
2 6 6.2000000000000002 1 0 -0 1 5.9000000000000004
1 0 0 1 0 
1 0 0 1 0 
1 12.277322404371587 -11.5 -1 0 
1 0 -12.4 1 0 
1 -12.277322404371578 -11.500000000000002 1 0 
1 0 4 1 0 
2 0 0 1 0 -0 1 5.9000000000000004
1 6.2831853071795862 -0 0 1 
1 0 -0 0 1 
2 0 0 1 0 -0 1 9
1 0 0 1 0 
1 0 2 1 0 
2 0 0 1 0 -0 1 9
1 6.2831853071795862 -0 0 1 
1 0 -0 0 1 
Curves 127
1 6 19 22.719999999999999 1 0 -0 
7 0 0  8 16 3  6.0329901775083385 20.783929241998276 18.159999400000004  6.048927345601081 20.693790584964475 18.257571928641802  6.0688142543049937 20.606775809428825 18.35618536680472  6.0922369273408874 20.522901242154038 18.455664023903196  6.1188295578893666 20.442149840209474 18.555855811938208  6.1482705581374812 20.364478992093478 18.656634054609018  6.1802792521997443 20.289827163516186 18.757898752055741  6.2146132124134699 20.218119387842759 18.859577301232793  6.4142831831805687 19.841008436270648 19.418537624254011  6.6220204558272711 19.586229901688124 19.888554975519181  6.855809762487465 19.383344228405686 20.36285083758332  7.1046061748628189 19.22746348150822 20.836027002709081  7.3617201450265579 19.113801675800161 21.306213863619281  7.6238335995936941 19.038574981700641 21.774284947956176  7.8899809620405197 19.000000300478877 22.243732343065819  8.1600000000000001 19 22.719999999999999 
 0 9 0.1825663942100591 7 1 9
1 5.9999999999999991 19.673044136905503 19.788665015767194 1 -1.1102230246251565e-16 1.2325951644078309e-32 
8 1.5707963267948966 3.1415926535897931
2 6 25.719999999999999 22.719999999999999 1 0 -0 0 0 1 0 -1 0 6.7199999999999998
1 6 19 26.280000000000001 1 0 -0 
1 6 19 16 0 0 1 
1 8.1600000000000001 19 16 0 0 1 
1 -11.699999999999999 -11 -11 1 0 -0 
1 8.1600000000000001 19 16 0 0 1 
1 22.699999999999999 -11 -11 -0 1 0 
1 6 19 18.16 1 0 -0 
1 -11.699999999999999 11 -11 1 0 -0 
1 9 19 16 0 0 1 
1 -11.699999999999999 -11 -11 -0 1 0 
1 -11.699999999999999 -11 -11 1 0 -0 
2 -19.5 19 39.999999999999993 0 1 1.1102230246251565e-16 -1 1.3596310734468911e-32 -1.2246467991473532e-16 -1.2246467991473532e-16 -1.1102230246251565e-16 1 1.1499999999999999
1 1.9176887608069153 19 47 -1 0 -1.2246467991473532e-16 
1 -17.800000000000001 19 34.94361959654178 1.2246467991473532e-16 0 -1 
1 1.9176887608069171 19 33 -1 0 -1.2246467991473532e-16 
1 6.8000000000000007 19 34.94361959654178 1.2246467991473532e-16 0 -1 
2 8.5 19 40 0 1 1.1102230246251565e-16 -1 1.3596310734468911e-32 -1.2246467991473532e-16 -1.2246467991473532e-16 -1.1102230246251565e-16 1 1.1499999999999999
2 8.1600000000000001 21.16 18.16 0 0 1 -1 0 0 0 -1 0 2.1600000000000001
7 0 0  8 16 3  6 21.16 22.546327214553212  6 20.847674371094968 22.124570331795724  6.051611208135947 20.560659302662675 21.688907954343424  6.1402046424301773 20.303485741291048 21.246708177787756  6.2554656012000516 20.076085889569494 20.802824500544972  6.3900387929509233 19.876861117024006 20.359912727527622  6.5391570232766254 19.703444989025495 19.918457080012054  6.7002452538382693 19.553526669691699 19.476597382778863  6.9145329516659677 19.394455404598084 18.921511876631985  6.9570978244062971 19.364661204125795 18.812713467348352  7.0001881455249944 19.336235194893177 18.703915077916712  7.0437661516656993 19.309163371666699 18.595120787886685  7.0877968132234397 19.28343221417423 18.48633281039638  7.1322476724875541 19.259028806128086 18.377551421297515  7.1770886817846229 19.235940954248111 18.268774888280586  7.2222920416214018 19.214157307284722 18.159999400000007 
 0 9 0.80400757568954073 7 1 9
2 0 0 6 0 0 1 1 0 -0 -0 1 0 11
1 6 32.993076499563976 26.584965425912259 1 -1.1102230246251565e-16 1.2325951644078309e-32 
2 0 0 9 0 0 1 1 0 -0 -0 1 0 11
2 0 0 9 0 0 1 1 0 -0 -0 1 0 11
1 5.9999999999999991 19.102918198970851 17.501202258751075 1 -1.1102230246251565e-16 1.2325951644078309e-32 
7 0 0  6 17 4  7.2222917922820233 19.21415742744221 18.159999999999997  7.2488484306666372 19.201359692345935 18.096095205539935  7.2795498914727039 19.189619037591424 18.035109062954881  7.3139492916705011 19.178942330662032 17.977492904991472  7.3515708127344217 19.169287943439695 17.923528351873838  7.3919702335417163 19.160597511456725 17.873380256708046  7.4635256973857587 19.147569618039487 17.796037007060448  7.493371297839805 19.142739036097279 17.766706119624143  7.5241808686530476 19.138295371155397 17.739159650331565  7.5558461189634025 19.134218828934369 17.713408958219791  7.5882684417717137 19.130490370245905 17.689456399549588  7.7045721722408613 19.118548620078613 17.611580995919574  7.7919703071424049 19.112100305257332 17.567242868745669  7.8822356921103598 19.107457690350255 17.534152848701751  7.9742586166316274 19.10443241821449 17.512194090938841  8.0671004910637176 19.102918198970841 17.501202258751114  8.1600000000000001 19.102918198970841 17.501202258751114 
 0 7 0.29738827133752271 5 0.49730244978987004 5 1 7
2 0 0 6 0 0 1 1 0 -0 -0 1 0 11
8 4.7123889803846897 6.2831853071795862
2 6 26.280000000000001 26.280000000000001 1 0 -0 0 0 1 0 -1 0 6.7199999999999998
8 4.7123889803846897 6.2831853071795862
2 6 25.719999999999999 26.280000000000001 -1 -0 0 0 0 1 -0 1 0 6.7199999999999998
1 6 19 33 -0 1 0 
1 6 19 29 0 -1 -1.1102230246251565e-16 
8 4.7123889803846897 6.2831853071795862
2 6 25.719999999999999 26.280000000000001 -1 -0 0 0 0 1 -0 1 0 6.7199999999999998
1 6 23.5 22.5 0 -1.1102230246251565e-16 1 
2 6.0000000000000009 36.5 16 1 -1.1102230246251565e-16 1.2325951644078309e-32 1.1102230246251565e-16 1 -1.1102230246251565e-16 0 1.1102230246251565e-16 1 1.1499999999999999
2 6.0000000000000009 30 22.5 1 -1.1102230246251565e-16 1.2325951644078309e-32 1.1102230246251565e-16 1 -1.1102230246251565e-16 0 1.1102230246251565e-16 1 1.1499999999999999
2 6.0000000000000009 30 16 1 -1.1102230246251565e-16 1.2325951644078309e-32 1.1102230246251565e-16 1 -1.1102230246251565e-16 0 1.1102230246251565e-16 1 3.2000000000000002
2 6.0000000000000009 30 9.5 1 -1.1102230246251565e-16 1.2325951644078309e-32 1.1102230246251565e-16 1 -1.1102230246251565e-16 0 1.1102230246251565e-16 1 1.1499999999999999
2 6.0000000000000009 23.5 16 1 -1.1102230246251565e-16 1.2325951644078309e-32 1.1102230246251565e-16 1 -1.1102230246251565e-16 0 1.1102230246251565e-16 1 1.1499999999999999
7 0 0  7 20 4  6 21.16 31.216071312288758  6 21.041482186220495 31.106583179593208  6.0075867805301675 20.926987905337775 30.994658682136365  6.0218334067219841 20.816778082130419 30.880717907830952  6.0419266952920525 20.710990406102287 30.765147036513319  6.0671528019289287 20.609673897048424 30.648289170241707  6.0968868325887513 20.512814387398773 30.530439121735618  6.1960952898365953 20.240611000177999 30.181301285851035  6.2768008942930811 20.076901236719561 29.947191963028629  6.368939514710056 19.928843002322406 29.711121749213628  6.4698255541548191 19.795552791576 29.474148743445024  6.5775798042839098 19.676001720664456 29.236742202547511  6.691007244455351 19.569181580174973 28.998820701241527  6.9841771083485948 19.334308229861357 28.407251614370082  7.1695171610472066 19.220502965102007 28.052931759751203  7.3617432101233939 19.131371854119202 27.698200474765009  7.5583850947897204 19.065516513588452 27.34371565551368  7.7577461384018944 19.021900911569727 26.989508770904933  7.9586337975419115 19.000000038506755 26.635176669025899  8.1600000000000001 19 26.280000000000001 
 0 8 0.17210217546717962 6 0.50665194705314875 6 1 8
1 6 19.575083401705111 29 1 0 -0 
2 8.1600000000000001 21.16 29 0 0 1 -1 -0 0 0 -1 0 2.1600000000000001
1 22.699999999999999 -11 -11 0 0 1 
1 -11.699999999999999 -11 -6.5 1 0 -0 
1 22.699999999999999 -11 -6.5 -0 1 0 
1 22.699999999999999 11 -11 0 0 1 
2 8.1600000000000001 21.16 18.16 -1 6.123233995736766e-17 0 -6.123233995736766e-17 -1 0 0 0 1 2.1600000000000001
8 1.5707963267948966 3.1415926535897931
2 9 21.16 18.16 1 0 -0 0 0 1 0 -1 0 2.1600000000000001
1 -11.699999999999999 11 -6.5 1 0 -0 
1 -11.699999999999999 11 -11 0 0 1 
8 4.7123889803846897 6.2831853071795862
2 9 26.280000000000001 26.280000000000001 1 0 -0 0 0 1 0 -1 0 6.7199999999999998
1 9 19 29 0 -1 -1.1102230246251565e-16 
1 9 19 33 -0 1 0 
1 9 23.5 16 0 0 1 
8 4.7123889803846897 6.2831853071795862
2 9 25.719999999999999 26.280000000000001 -1 -0 0 0 0 1 -0 1 0 6.7199999999999998
2 9 36.5 16 1 -1.1102230246251565e-16 1.2325951644078309e-32 1.1102230246251565e-16 1 -1.1102230246251565e-16 0 1.1102230246251565e-16 1 1.1499999999999999
2 9 30 9.5 1 -1.1102230246251565e-16 1.2325951644078309e-32 1.1102230246251565e-16 1 -1.1102230246251565e-16 0 1.1102230246251565e-16 1 1.1499999999999999
2 9 30 16 1 -1.1102230246251565e-16 1.2325951644078309e-32 1.1102230246251565e-16 1 -1.1102230246251565e-16 0 1.1102230246251565e-16 1 3.2000000000000002
2 9 30 22.5 1 -1.1102230246251565e-16 1.2325951644078309e-32 1.1102230246251565e-16 1 -1.1102230246251565e-16 0 1.1102230246251565e-16 1 1.1499999999999999
2 9 23.5 16 1 -1.1102230246251565e-16 1.2325951644078309e-32 1.1102230246251565e-16 1 -1.1102230246251565e-16 0 1.1102230246251565e-16 1 1.1499999999999999
1 -11.699999999999999 -11 -11 0 0 1 
1 -11.699999999999999 -11 -6.5 -0 1 0 
1 -11.699999999999999 -11 -6.5 1 0 -0 
2 -19.5 23.499999999999996 39.999999999999993 0 1 1.1102230246251565e-16 -1 1.3596310734468911e-32 -1.2246467991473532e-16 -1.2246467991473532e-16 -1.1102230246251565e-16 1 1.1499999999999999
1 20.649999999999999 -2.8166876380389037e-16 -19 0 0 1 
1 17.800000000000001 7 -23.5 0 0 1 
1 1.0423119994883394 23.499999999999996 47 1 -0 1.2246467991473532e-16 
1 -6.7999999999999998 7 -23.5 0 0 1 
1 17.800000000000001 -7 -23.5 0 0 1 
1 -17.800000000000001 23.499999999999996 36.267973289873751 -1.2246467991473532e-16 0 1 
1 1.0423119994883412 23.499999999999996 33 1 -0 1.2246467991473532e-16 
1 -6.7999999999999998 -7 -23.5 0 0 1 
1 6.8000000000000007 23.499999999999996 36.267973289873751 -1.2246467991473532e-16 0 1 
2 8.5 23.499999999999996 40 0 1 1.1102230246251565e-16 -1 1.3596310734468911e-32 -1.2246467991473532e-16 -1.2246467991473532e-16 -1.1102230246251565e-16 1 1.1499999999999999
1 -7.3499999999999996 -2.8166876380389116e-16 -19 0 0 1 
1 6 26.280000000000001 33 1 0 -0 
1 6 23.5 32.622712353559791 1 0 -0 
1 6 25.719999999999999 33 1 0 -0 
1 7.6500000000000004 -2.8166876380389135e-16 3 0 0 1 
1 1.1499999999999999 6.5 3 0 0 1 
1 3.2000000000000002 -7.8377395145430609e-16 3 0 0 1 
1 1.1499999999999999 -6.5 3 0 0 1 
1 -5.3499999999999996 -2.8166876380389116e-16 3 0 0 1 
1 -6 -6.2000000000000002 -22.5 0 0 1 
1 -6 -6.2000000000000002 -6.5 0 -1 0 
1 -6 6.2000000000000002 -22.5 0 0 1 
1 -6 -6.2000000000000002 -22.5 -0 1 0 
1 -10.699999999999999 6.2000000000000002 -6.5 1 0 -0 
1 -10.699999999999999 -6.2000000000000002 -6.5 1 0 -0 
1 -10.699999999999999 -6.2000000000000002 -6.5 -0 1 0 
1 -6 6.2000000000000002 -22.5 1 0 -0 
1 17 -6.2000000000000002 -22.5 -0 1 0 
1 -6 -6.2000000000000002 -22.5 1 0 -0 
1 17 -6.2000000000000002 -22.5 0 0 1 
1 17 -6.2000000000000002 -6.5 0 -1 0 
1 17 6.2000000000000002 -22.5 0 0 1 
1 -10.699999999999999 -6.2000000000000002 -6.5 0 0 1 
1 -10.699999999999999 -6.2000000000000002 -4 -0 1 0 
1 -10.699999999999999 6.2000000000000002 -6.5 0 0 1 
1 -10.699999999999999 6.2000000000000002 -6.5 1 0 -0 
1 21.699999999999999 -6.2000000000000002 -6.5 -0 1 0 
1 -10.699999999999999 -6.2000000000000002 -6.5 1 0 -0 
1 -10.699999999999999 6.2000000000000002 -4 1 0 -0 
1 -6 -6.2000000000000002 -4 0 -1 0 
1 -10.699999999999999 -6.2000000000000002 -4 1 0 -0 
1 21.699999999999999 -6.2000000000000002 -6.5 0 0 1 
1 21.699999999999999 -6.2000000000000002 -4 -0 1 0 
1 21.699999999999999 6.2000000000000002 -6.5 0 0 1 
1 -10.699999999999999 6.2000000000000002 -4 1 0 -0 
1 -10.699999999999999 -6.2000000000000002 -4 1 0 -0 
1 17 -6.2000000000000002 -4 0 -1 0 
1 17 -6.2000000000000002 -22.5 0 0 1 
1 17 -6.2000000000000002 0 -0 1 0 
1 17 6.2000000000000002 -22.5 0 0 1 
1 -6 -6.2000000000000002 0 -0 1 0 
1 -6 6.2000000000000002 0 1 0 -0 
1 -6 -6.2000000000000002 0 1 0 -0 
2 0 0 0 0 0 1 1 0 -0 -0 1 0 5.9000000000000004
1 -6 -6.2000000000000002 -22.5 0 0 1 
1 -6 6.2000000000000002 -22.5 0 0 1 
2 0 0 4 0 0 1 1 0 -0 -0 1 0 5.9000000000000004
1 5.9000000000000004 -1.4450832229938768e-15 0 0 0 1 
2 0 0 4 0 0 1 1 0 -0 -0 1 0 9
2 0 0 6 0 0 1 1 0 -0 -0 1 0 9
1 9 -2.2043642384652358e-15 4 0 0 1 
Polygon3D 0
PolygonOnTriangulations 0
Surfaces 48
2 6 25.719999999999999 22.719999999999999 1 0 -0 0 -1 0 0 -0 -1 6.7199999999999998
1 -2.964622478386167 19 36.887239193083566 -0 -1 -0 0 0 -1 1 -0 0 
2 8.1600000000000001 21.16 16 0 0 1 -1 -0 0 0 -1 0 2.1600000000000001
2 6 30 16 1 -1.1102230246251565e-16 1.2325951644078309e-32 1.1102230246251565e-16 1 -1.1102230246251565e-16 0 1.1102230246251565e-16 1 11
1 6.0000000000000009 28.876181350742648 19.349692812244616 -1 -0 -0 0 0 -1 0 -1 0 
2 6 25.719999999999999 26.280000000000001 1 0 -0 0 -1 0 -0 0 1 6.7199999999999998
2 8.1600000000000001 21.16 16 0 0 1 -1 -0 0 0 -1 0 2.1600000000000001
1 -11.699999999999999 -11 -11 -0 1 0 0 0 1 1 0 -0 
1 22.699999999999999 -11 -11 1 0 -0 0 0 1 0 -1 0 
2 6 21.16 18.16 1 0 -0 0 -1 0 0 -0 -1 2.1600000000000001
1 -11.699999999999999 11 -11 -0 1 0 0 0 1 1 0 -0 
1 9 28.76181857543094 19.348944134943263 1 0 0 -0 0 1 0 -1 0 
1 -11.699999999999999 -11 -11 1 0 -0 0 0 1 0 -1 0 
1 -11.699999999999999 -11 -11 -0 1 0 0 0 1 1 0 -0 
2 19.5 0 -19 0 0 1 1 0 -0 -0 1 0 1.1499999999999999
1 -6.7999999999999998 7 -23.5 -0 1 0 0 0 1 1 0 -0 
1 17.800000000000001 -7 -23.5 1 0 -0 0 0 1 0 -1 0 
1 -6.7999999999999998 -7 -23.5 -0 1 0 0 0 1 1 0 -0 
1 -6.7999999999999998 -7 -23.5 1 0 -0 0 0 1 0 -1 0 
2 -8.5 0 -19 0 0 1 1 0 -0 -0 1 0 1.1499999999999999
4 8.1600000000000001 21.16 18.16 0 0 1 -1 0 0 0 -1 0 2.1600000000000001
2 6 26.280000000000001 26.280000000000001 1 0 -0 0 1 0 0 -0 1 6.7199999999999998
1 6 19 33 0 0 1 1 0 -0 -0 1 0 
2 6 25.719999999999999 26.280000000000001 1 0 -0 0 -1 0 -0 0 1 6.7199999999999998
1 -4.7153760010233192 23.499999999999996 39.53594657974751 0 1 0 0 -0 1 1 0 -0 
2 6.5 0 3 0 0 1 1 0 -0 -0 1 0 1.1499999999999999
2 0 6.5 3 0 0 1 1 0 -0 -0 1 0 1.1499999999999999
2 0 0 3 0 0 1 1 0 -0 -0 1 0 3.2000000000000002
2 0 -6.5 3 0 0 1 1 0 -0 -0 1 0 1.1499999999999999
2 -6.5 0 3 0 0 1 1 0 -0 -0 1 0 1.1499999999999999
1 -6 -6.2000000000000002 -22.5 1 0 -0 0 0 1 0 -1 0 
1 5.5 -6.1999999999999993 -10.222677595628413 -0 -1 -0 0 0 -1 1 -0 0 
1 -10.699999999999999 -6.2000000000000002 -6.5 0 0 1 1 0 -0 -0 1 0 
1 5.5000000000000018 6.2000000000000028 -10.222677595628422 0 1 0 0 -0 1 1 0 -0 
1 -6 -6.2000000000000002 -22.5 0 0 1 1 0 -0 -0 1 0 
1 -10.699999999999999 -6.2000000000000002 -6.5 1 0 -0 0 0 1 0 -1 0 
1 17 -6.2000000000000002 -22.5 1 0 -0 0 0 1 0 -1 0 
1 -10.699999999999999 -6.2000000000000002 -6.5 0 0 1 1 0 -0 -0 1 0 
1 -10.699999999999999 -6.2000000000000002 -4 0 0 1 1 0 -0 -0 1 0 
1 21.699999999999999 -6.2000000000000002 -6.5 1 0 -0 0 0 1 0 -1 0 
1 -6 -6.2000000000000002 -22.5 1 0 -0 0 0 1 0 -1 0 
1 -10.699999999999999 -6.2000000000000002 -4 0 0 1 1 0 -0 -0 1 0 
1 17 -6.2000000000000002 -22.5 1 0 -0 0 0 1 0 -1 0 
1 -6 -6.2000000000000002 0 0 0 1 1 0 -0 -0 1 0 
2 0 0 0 0 0 1 1 0 -0 -0 1 0 5.9000000000000004
1 0 0 4 0 0 1 1 0 -0 -0 1 0 
2 0 0 4 0 0 1 1 0 -0 -0 1 0 9
1 0 0 6 0 0 1 1 0 -0 -0 1 0 
Triangulations 0

TShapes 331
Ve
2.12132034355964e-07
6 19 22.72
0 0

0101101
*
Ve
2.12132034355964e-07
8.16 19 22.72
0 0

0101101
*
Ed
 2.12132034355964e-07 1 1 0
1  1 0 0 2.16
2  1 1 0 0 2.16
2  2 2 0 0 2.16
0

0101000
+331 0 -330 0 *
Ve
1.41059477635622e-07
6.59329574021121 19.6730441345163 19.7886649988353
0 0

0101101
*
Ed
 1.23206742758425e-07 1 1 0
1  2 0 0.364538102411178 1
2  3 1 0 0.364538102411178 1
2  4 3 0 0.364538102411178 1
0

0101000
+328 0 -330 0 *
Ve
2.12132034355964e-07
6 19.6730441369055 19.7886650157675
0 0

0101101
*
Ed
 1e-07 1 1 0
1  3 0 8.88178419700124e-16 0.593295740211214
2  5 1 0 8.88178419700124e-16 0.593295740211214
2  6 4 0 8.88178419700124e-16 0.593295740211214
0

0101000
+326 0 -328 0 *
Ed
 2.12132034355964e-07 1 1 0
1  4 0 1.5707963267949 2.02217946798579
2  7 1 0 1.5707963267949 2.02217946798579
2  8 5 0 1.5707963267949 2.02217946798579
0

0101000
+331 0 -326 0 *
Wi

0101100
-329 0 +327 0 +325 0 +324 0 *
Fa
0  1e-07 1 0

0101000
+323 0 *
Ve
2.12132034355964e-07
6 19 26.28
0 0

0101101
*
Ve
2.12132034355964e-07
8.16 19 26.28
0 0

0101101
*
Ed
 2.12132034355964e-07 1 1 0
1  5 0 0 2.16
2  9 2 0 0 2.16
2  10 6 0 0 2.16
0

0101000
+321 0 -320 0 *
Ed
 2.12132034355964e-07 1 1 0
1  6 0 6.72 10.28
2  11 2 0 6.72 10.28
2  12 5 0 6.72 10.28
0

0101000
+331 0 -321 0 *
Ve
2.12132034355964e-07
8.16 19 29
0 0

0101101
*
Ed
 2.12132034355964e-07 1 1 0
1  7 0 10.28 13
2  13 2 0 10.28 13
2  14 7 0 10.28 13
0

0101000
+320 0 -317 0 *
Ve
2.12132034355964e-07
-22.7 19 29
0 0

0101101
*
Ed
 2.12132034355964e-07 1 1 0
1  8 0 3.54 34.4
2  15 2 8 3.54 34.4
2  16 8 0 3.54 34.4
0

0101000
+317 8 -315 8 *
Ve
2.12132034355964e-07
8.16 19 18.16
0 0

0101101
*
Ed
 2.12132034355964e-07 1 1 0
1  9 0 2.16 6.72
2  17 2 0 2.16 6.72
2  18 3 0 2.16 6.72
0

0101000
+313 0 -330 0 *
Ve
2.12132034355964e-07
-22.7 19 51
0 0

0101101
*
Ed
 2.12132034355964e-07 1 1 0
1  10 0 0 22
2  19 2 8 0 22
2  20 9 0 0 22
0

0101000
-311 8 +315 8 *
Ve
2.12132034355964e-07
9 19 18.16
0 0

0101101
*
Ed
 2.12132034355964e-07 1 1 0
1  11 0 2.16 3
2  21 2 0 2.16 3
2  22 10 0 2.16 3
0

0101000
+313 0 -309 0 *
Ve
2.12132034355964e-07
11.7 19 51
0 0

0101101
*
Ed
 2.12132034355964e-07 1 1 0
1  12 0 0 34.4
2  23 2 8 0 34.4
2  24 11 0 0 34.4
0

0101000
-311 8 +307 8 *
Ve
2.12133034355964e-07
9 19 29
0 0

0101101
*
Ed
 1e-07 1 1 0
1  13 0 2.16 13
2  25 2 0 2.16 13
2  26 12 0 2.16 13
0

0101000
+309 0 -305 0 *
Ve
2.12132034355964e-07
11.7 19 29
0 0

0101101
*
Ed
 2.12132034355964e-07 1 1 0
1  14 0 0 22
2  27 2 8 0 22
2  28 13 0 0 22
0

0101000
-307 8 +303 8 *
Ed
 2.12132034355964e-07 1 1 0
1  15 0 0 2.7
2  29 2 8 0 2.7
2  30 14 0 0 2.7
0

0101000
+303 8 -305 8 *
Wi

0101100
-319 0 -318 0 -316 0 +329 0 -314 7 -312 0 -310 7 +308 0 +306 7 +304 0 
+302 7 -301 7 *
Ve
2.12132034355964e-07
-20.65 19 40
0 0

0101101
*
Ed
 2.12132034355964e-07 1 1 0
1  16 0 0 6.28318530717959
2  31 2 0 0 6.28318530717959
2  32 15 14 0 6.28318530717959
0

0101100
+299 0 -299 0 *
Wi

0101100
+298 0 *
Ve
2.62132034355964e-07
6.8 19 47
0 0

0101101
*
Ve
2.62132042300074e-07
-17.8 19 47
0 0

0101101
*
Ed
 2.62132034355964e-07 1 1 0
1  17 0 -4.88231123919308 19.7176887608069
2  33 2 0 -4.88231123919308 19.7176887608069
2  34 16 20 -4.88231123919308 19.7176887608069
0

0101000
+296 0 -295 0 *
Ve
2.62132041461392e-07
-17.8 19 33
0 0

0101101
*
Ed
 2.62132034355964e-07 1 1 0
1  18 0 -12.0563804034582 1.94361959654179
2  35 2 0 -12.0563804034582 1.94361959654179
2  36 17 20 -12.0563804034582 1.94361959654179
0

0101000
+295 0 -293 0 *
Ve
2.62132034355964e-07
6.8 19 33
0 0

0101101
*
Ed
 2.62132034355964e-07 1 1 0
1  19 0 -4.88231123919308 19.7176887608069
2  37 2 0 -4.88231123919308 19.7176887608069
2  38 18 20 -4.88231123919308 19.7176887608069
0

0101000
+291 0 -293 0 *
Ed
 2.62132034355964e-07 1 1 0
1  20 0 -12.0563804034582 1.94361959654178
2  39 2 0 -12.0563804034582 1.94361959654178
2  40 19 20 -12.0563804034582 1.94361959654178
0

0101000
+296 0 -291 0 *
Wi

0101100
-294 0 -292 0 +290 0 +289 0 *
Ve
2.12132034355964e-07
7.35 19 40
0 0

0101101
*
Ed
 2.12132034355964e-07 1 1 0
1  21 0 0 6.28318530717959
2  41 2 0 0 6.28318530717959
2  42 20 26 0 6.28318530717959
0

0101100
+287 0 -287 0 *
Wi

0101100
+286 0 *
Fa
0  2.12132034355964e-07 2 0

0101000
+300 0 +297 0 +288 0 +285 0 *
Ve
1.00000047407433e-07
7.22229179228204 19.2141574274422 18.16
0 0

0101101
*
Ed
 1e-07 1 1 0
1  22 0 1.12173050071643 1.5707963267949
2  43 3 0 1.12173050071643 1.5707963267949
2  44 21 0 1.12173050071643 1.5707963267949
4 G1 3 0 21 0
0

0101000
+283 0 -313 0 *
Ed
 1e-07 1 1 0
1  23 0 0.63238066614494 0.999999864864488
2  45 3 0 0.63238066614494 0.999999864864488
2  46 4 0 0.63238066614494 0.999999864864488
0

0101000
+328 0 -283 0 *
Wi

0101100
-327 0 +312 0 +282 0 +281 0 *
Fa
0  1e-07 3 0

0101000
+280 0 *
Ve
2.12132034355964e-07
6 41 16
0 0

0101101
*
Ve
2.12132034355964e-07
6 32.9930764995641 26.5849654259122
0 0

0101101
*
Ed
 2.12132034355964e-07 1 1 0
1  24 0 0 1.29522384472576
2  47 4 33 0 1.29522384472576
2  48 5 33 0 1.29522384472576
0

0101000
+278 33 -277 33 *
Ve
2.12132034355964e-07
9 32.9930764995641 26.5849654259122
0 0

0101101
*
Ed
 1e-07 1 1 0
1  25 0 -1.02551917678732e-29 3
2  49 4 0 -1.02551917678732e-29 3
2  50 22 0 -1.02551917678732e-29 3
0

0101000
+277 0 -275 0 *
Ve
2.12132034355964e-07
9 41 16
0 0

0101101
*
Ed
 2.12132034355964e-07 1 1 0
1  26 0 0 1.29522384472576
2  51 4 33 0 1.29522384472576
2  52 12 33 0 1.29522384472576
0

0101000
+273 33 -275 33 *
Ve
2.12132034355964e-07
9 19.1029181989708 17.5012022587511
0 0

0101101
*
Ed
 2.12132034355964e-07 1 1 0
1  27 0 3.0046924989981 6.28318530717959
2  53 4 33 3.0046924989981 6.28318530717959
2  54 12 33 3.0046924989981 6.28318530717959
0

0101000
+271 33 -273 33 *
Ve
1.00000040507168e-07
8.16 19.1029181989708 17.5012022587511
0 0

0101101
*
Ed
 1e-07 1 1 0
1  28 0 2.16 3
2  55 4 0 2.16 3
2  56 10 0 2.16 3
0

0101000
+269 0 -271 0 *
Ed
 1e-07 1 1 0
1  29 0 0 1
2  57 4 0 0 1
2  58 21 0 0 1
0

0101000
+283 0 -269 0 *
Ed
 2.12132034355964e-07 1 1 0
1  30 0 2.78996737916634 6.28318530717959
2  59 4 33 2.78996737916634 6.28318530717959
2  60 5 33 2.78996737916634 6.28318530717959
0

0101000
+326 33 -278 33 *
Wi

0101100
+276 32 +274 0 -272 32 -270 32 -268 0 -267 0 -281 0 -325 0 +266 32 *
Fa
0  1e-07 4 0

0111000
+265 0 *
Ve
2.12132034355964e-07
6 26.28 33
0 0

0101101
*
Ed
 2.12132034355964e-07 1 1 0
1  31 0 4.75778633196772 6.28318530717959
2  61 5 0 4.75778633196772 6.28318530717959
2  62 22 0 4.75778633196772 6.28318530717959
0

0101000
+277 0 -263 0 *
Ve
2.12132034355964e-07
6 19.5750834017051 29
0 0

0101101
*
Ed
 2.12132034355964e-07 1 1 0
1  32 0 4.71238898038469 5.12910741817293
2  63 5 0 4.71238898038469 5.12910741817293
2  64 6 0 4.71238898038469 5.12910741817293
0

0101000
+321 0 -261 0 *
Ve
2.12132034355964e-07
6 25.72 33
0 0

0101101
*
Ed
 2.12132034355964e-07 1 1 0
1  33 0 6.72 7.28
2  65 5 0 6.72 7.28
2  66 23 0 6.72 7.28
0

0101000
+259 0 -263 0 *
Ve
2.12132034355964e-07
6 23.5 29
0 0

0101101
*
Ed
 1e-07 1 1 0
1  34 0 -4.5 -0.575083401705111
2  67 5 0 -4.5 -0.575083401705111
2  68 8 7 -4.5 -0.575083401705111
0

0101000
+257 0 -261 0 *
Ve
2.12132034355964e-07
6 23.5 32.6227123535598
0 0

0101101
*
Ed
 2.12132034355964e-07 1 1 0
1  35 0 5.94650337005389 6.28318530717959
2  69 5 0 5.94650337005389 6.28318530717959
2  70 24 0 5.94650337005389 6.28318530717959
0

0101000
+255 0 -259 0 *
Ed
 2.12132034355964e-07 1 1 0
1  36 0 6.5 10.1227123535598
2  71 5 0 6.5 10.1227123535598
2  72 25 0 6.5 10.1227123535598
0

0101000
+257 0 -255 0 *
Wi

0101100
-266 32 -324 0 -276 32 +318 0 -262 0 +260 0 +258 0 -256 0 +254 0 +253 0 
*
Ve
2.12132036132321e-07
6 37.65 16
0 0

0101101
*
Ed
 2.12132034355964e-07 1 1 0
1  37 0 0 6.28318530717959
2  73 5 0 0 6.28318530717959
2  74 26 39 0 6.28318530717959
0

0101100
+251 0 -251 0 *
Wi

0101100
+250 0 *
Ve
2.12132034355964e-07
6 31.15 22.5
0 0

0101101
*
Ed
 2.12132034355964e-07 1 1 0
1  38 0 0 6.28318530717959
2  75 5 0 0 6.28318530717959
2  76 27 45 0 6.28318530717959
0

0101100
+248 0 -248 0 *
Wi

0101100
+247 0 *
Ve
2.12132036341992e-07
6 33.2 16
0 0

0101101
*
Ed
 2.12132034355964e-07 1 1 0
1  39 0 0 6.28318530717959
2  77 5 0 0 6.28318530717959
2  78 28 51 0 6.28318530717959
0

0101100
+245 0 -245 0 *
Wi

0101100
+244 0 *
Ve
2.12132034355964e-07
6 31.15 9.5
0 0

0101101
*
Ed
 2.12132034355964e-07 1 1 0
1  40 0 0 6.28318530717959
2  79 5 0 0 6.28318530717959
2  80 29 57 0 6.28318530717959
0

0101100
+242 0 -242 0 *
Wi

0101100
+241 0 *
Ve
2.12132034355964e-07
6 24.65 16
0 0

0101101
*
Ed
 2.12132034355964e-07 1 1 0
1  41 0 0 6.28318530717959
2  81 5 0 0 6.28318530717959
2  82 30 63 0 6.28318530717959
0

0101100
+239 0 -239 0 *
Wi

0101100
+238 0 *
Fa
0  2.12132034355964e-07 5 0

0101000
+252 0 +249 0 +246 0 +243 0 +240 0 +237 0 *
Ve
1.01569936736796e-07
6.69247167519679 19.5750834027602 28.9999999998879
0 0

0101101
*
Ed
 1e-07 1 1 0
1  42 0 0.458536491173747 1
2  83 6 0 0.458536491173747 1
2  84 7 0 0.458536491173747 1
0

0101000
+235 0 -320 0 *
Ed
 1e-07 1 1 0
1  43 0 0 0.692471675196792
2  85 6 0 0 0.692471675196792
2  86 8 7 0 0.692471675196792
0

0101000
+261 0 -235 0 *
Wi

0101100
+260 0 -319 0 +234 0 +233 0 *
Fa
0  1e-07 6 0

0101000
+232 0 *
Ed
 1e-07 1 1 0
1  44 0 0.823836351877594 1.5707963267949
2  87 7 0 0.823836351877594 1.5707963267949
2  88 8 7 0.823836351877594 1.5707963267949
0

0101000
+235 0 -317 0 *
Wi

0101100
-230 0 +316 0 +234 0 *
Fa
0  1e-07 7 0

0101000
+229 0 *
Ve
2.12132034355964e-07
-22.7 23.5 29
0 0

0101101
*
Ed
 1e-07 1 1 0
1  45 0 0 4.5
2  89 8 0 0 4.5
2  90 9 0 0 4.5
0

0101000
-227 8 +315 8 *
Ed
 2.12132034355964e-07 1 1 0
1  46 0 5.7 34.4
2  91 8 0 5.7 34.4
2  92 25 8 5.7 34.4
0

0101000
+257 8 -227 8 *
Wi

0101000
-314 7 -226 7 +225 7 -256 0 -233 0 -230 0 *
Fa
0  1e-07 8 7

0101000
+224 0 *
Ve
2.12132034355964e-07
-22.7 23.5 51
0 0

0101101
*
Ed
 2.12132034355964e-07 1 1 0
1  47 0 0 22
2  93 9 0 0 22
2  94 25 8 0 22
0

0101000
-222 8 +227 8 *
Ed
 1e-07 1 1 0
1  48 0 0 4.5
2  95 9 0 0 4.5
2  96 11 0 0 4.5
0

0101000
-222 8 +311 8 *
Wi

0101100
-226 0 -221 0 +220 0 +310 0 *
Fa
0  1e-07 9 0

0111000
+219 0 *
Ed
 1e-07 1 1 0
1  49 0 5.97324797593814 6.28318530717959
2  97 10 0 5.97324797593814 6.28318530717959
2  98 21 0 5.97324797593814 6.28318530717959
4 G1 10 0 21 0
0

0101000
+269 0 -313 0 *
Ed
 2.12132034355964e-07 1 1 0
1  50 0 1.5707963267949 1.88073365803634
2  99 10 0 1.5707963267949 1.88073365803634
2  100 12 0 1.5707963267949 1.88073365803634
0

0101000
+309 0 -271 0 *
Wi

0101100
-217 0 -308 0 -216 0 +268 0 *
Fa
0  1e-07 10 0

0101000
+215 0 *
Ve
2.12132034355964e-07
11.7 23.5 51
0 0

0101101
*
Ed
 2.12132034355964e-07 1 1 0
1  51 0 0 34.4
2  101 11 0 0 34.4
2  102 25 8 0 34.4
0

0101000
-222 8 +213 8 *
Ed
 1e-07 1 1 0
1  52 0 0 4.5
2  103 11 0 0 4.5
2  104 13 0 0 4.5
0

0101000
-213 8 +307 8 *
Wi

0101100
-306 0 -220 0 +212 0 +211 0 *
Fa
0  1e-07 11 0

0111000
+210 0 *
Ve
2.12132034355964e-07
9 26.28 33
0 0

0101101
*
Ed
 2.12132034355964e-07 1 1 0
1  53 0 4.75778633196772 6.28318530717959
2  105 12 0 4.75778633196772 6.28318530717959
2  106 22 0 4.75778633196772 6.28318530717959
0

0101000
+275 0 -208 0 *
Ve
2.12133034355964e-07
9 23.5 29
0 0

0101101
*
Ed
 1e-07 1 1 0
1  54 0 -4.5 0
2  107 12 0 -4.5 0
2  108 14 7 -4.5 0
0

0101000
+206 0 -305 0 *
Ve
2.12132034355964e-07
9 25.72 33
0 0

0101101
*
Ed
 2.12132034355964e-07 1 1 0
1  55 0 6.72 7.28
2  109 12 0 6.72 7.28
2  110 23 0 6.72 7.28
0

0101000
+204 0 -208 0 *
Ve
2.12132034355964e-07
9 23.5 32.6227123535598
0 0

0101101
*
Ed
 2.12132034355964e-07 1 1 0
1  56 0 13 16.6227123535598
2  111 12 0 13 16.6227123535598
2  112 25 0 13 16.6227123535598
0

0101000
+206 0 -202 0 *
Ed
 2.12132034355964e-07 1 1 0
1  57 0 5.94650337005389 6.28318530717959
2  113 12 0 5.94650337005389 6.28318530717959
2  114 24 0 5.94650337005389 6.28318530717959
0

0101000
+202 0 -204 0 *
Wi

0101100
+270 32 +216 0 +272 32 -304 0 +207 0 +205 0 -203 0 -201 0 -200 0 *
Ve
2.12132036132321e-07
9 37.65 16
0 0

0101101
*
Ed
 2.12132034355964e-07 1 1 0
1  58 0 0 6.28318530717959
2  115 12 0 0 6.28318530717959
2  116 26 39 0 6.28318530717959
0

0101100
+198 0 -198 0 *
Wi

0101100
-197 0 *
Ve
2.12132034355964e-07
9 31.15 9.5
0 0

0101101
*
Ed
 2.12132034355964e-07 1 1 0
1  59 0 0 6.28318530717959
2  117 12 0 0 6.28318530717959
2  118 29 57 0 6.28318530717959
0

0101100
+195 0 -195 0 *
Wi

0101100
-194 0 *
Ve
2.12132036132321e-07
9 33.2 16
0 0

0101101
*
Ed
 2.12132034355964e-07 1 1 0
1  60 0 0 6.28318530717959
2  119 12 0 0 6.28318530717959
2  120 28 51 0 6.28318530717959
0

0101100
+192 0 -192 0 *
Wi

0101100
-191 0 *
Ve
2.12132034355964e-07
9 31.15 22.5
0 0

0101101
*
Ed
 2.12132034355964e-07 1 1 0
1  61 0 0 6.28318530717959
2  121 12 0 0 6.28318530717959
2  122 27 45 0 6.28318530717959
0

0101100
+189 0 -189 0 *
Wi

0101100
-188 0 *
Ve
2.12132034355964e-07
9 24.65 16
0 0

0101101
*
Ed
 2.12132034355964e-07 1 1 0
1  62 0 0 6.28318530717959
2  123 12 0 0 6.28318530717959
2  124 30 63 0 6.28318530717959
0

0101100
+186 0 -186 0 *
Wi

0101100
-185 0 *
Fa
0  2.12132034355964e-07 12 0

0101000
+199 0 +196 0 +193 0 +190 0 +187 0 +184 0 *
Ve
2.12132034355964e-07
11.7 23.5 29
0 0

0101101
*
Ed
 1e-07 1 1 0
1  63 0 0 4.5
2  125 13 0 0 4.5
2  126 14 0 0 4.5
0

0101000
-182 8 +303 8 *
Ed
 2.12132034355964e-07 1 1 0
1  64 0 0 22
2  127 13 0 0 22
2  128 25 8 0 22
0

0101000
-213 8 +182 8 *
Wi

0101100
-181 0 -180 0 +211 0 +302 0 *
Fa
0  1e-07 13 0

0111000
+179 0 *
Ed
 2.12132034355964e-07 1 1 0
1  65 0 0 2.7
2  129 14 0 0 2.7
2  130 25 8 0 2.7
0

0101000
+182 8 -206 8 *
Wi

0101000
-301 7 +205 0 +177 7 +181 7 *
Fa
0  1e-07 14 7

0101000
+176 0 *
Ve
2.12132034355964e-07
-20.65 23.5 40
0 0

0101101
*
Ed
 2.12132034355964e-07 1 1 0
1  66 0 0 6.28318530717959
2  131 15 14 0 6.28318530717959
2  132 25 0 0 6.28318530717959
0

0101100
+174 0 -174 0 *
Ed
 1e-07 1 1 0
1  67 0 8 12.5
3  133 134CN 15 0 8 12.5
0

0101000
+299 64 -174 64 *
Wi

0101100
-173 0 +172 14 +298 0 -172 14 *
Fa
0  1e-07 15 14

0101000
+171 0 *
Ve
2.62132041461392e-07
-17.8 23.5 47
0 0

0101101
*
Ed
 1e-07 1 1 0
1  68 0 12.5 17
2  135 16 0 12.5 17
2  136 17 0 12.5 17
0

0101000
+295 65 -169 65 *
Ve
2.62132035244143e-07
6.8 23.5 47
0 0

0101101
*
Ed
 2.62132034355964e-07 1 1 0
1  69 0 -18.8423119994883 5.75768800051166
2  137 16 20 -18.8423119994883 5.75768800051166
2  138 25 0 -18.8423119994883 5.75768800051166
0

0101000
+169 0 -167 0 *
Ed
 1e-07 1 1 0
1  70 0 12.5 17
2  139 16 0 12.5 17
2  140 19 0 12.5 17
0

0101000
+296 65 -167 65 *
Wi

0101100
-168 20 -166 0 +165 20 -294 0 *
Fa
0  1e-07 16 20

0101000
+164 0 *
Ve
2.62132041461392e-07
-17.8 23.5 33
0 0

0101101
*
Ed
 1e-07 1 1 0
1  71 0 12.5 17
2  141 17 0 12.5 17
2  142 18 0 12.5 17
0

0101000
+293 65 -162 65 *
Ed
 2.62132034355964e-07 1 1 0
1  72 0 -3.26797328987376 10.7320267101262
2  143 17 20 -3.26797328987376 10.7320267101262
2  144 25 0 -3.26797328987376 10.7320267101262
0

0101000
+162 0 -169 0 *
Wi

0101100
-161 20 -160 0 +168 20 -292 0 *
Fa
0  1e-07 17 20

0101000
+159 0 *
Ve
2.62132034355964e-07
6.8 23.5 33
0 0

0101101
*
Ed
 2.62132034355964e-07 1 1 0
1  73 0 -18.8423119994883 5.75768800051166
2  145 18 20 -18.8423119994883 5.75768800051166
2  146 25 0 -18.8423119994883 5.75768800051166
0

0101000
+162 0 -157 0 *
Ed
 1e-07 1 1 0
1  74 0 12.5 17
2  147 18 0 12.5 17
2  148 19 0 12.5 17
0

0101000
+291 65 -157 65 *
Wi

0101100
-161 20 -156 0 +155 20 -290 0 *
Fa
0  1e-07 18 20

0101000
+154 0 *
Ed
 2.62132034355964e-07 1 1 0
1  75 0 -3.26797328987375 10.7320267101263
2  149 19 20 -3.26797328987375 10.7320267101263
2  150 25 0 -3.26797328987375 10.7320267101263
0

0101000
+157 0 -167 0 *
Wi

0101100
-152 0 +165 20 -289 0 -155 20 *
Fa
0  1e-07 19 20

0101000
+151 0 *
Ve
2.12132034355964e-07
7.35 23.5 40
0 0

0101101
*
Ed
 2.12132034355964e-07 1 1 0
1  76 0 0 6.28318530717959
2  151 20 26 0 6.28318530717959
2  152 25 0 0 6.28318530717959
0

0101100
+149 0 -149 0 *
Ed
 1e-07 1 1 0
1  77 0 8 12.5
3  153 154CN 20 0 8 12.5
0

0101000
+287 66 -149 66 *
Wi

0101100
-148 0 +147 26 +286 0 -147 26 *
Fa
0  1e-07 20 26

0101000
+146 0 *
Wi

0101100
+267 0 -282 0 +217 0 *
Fa
0  1e-07 21 0

0101000
+144 0 *
Ed
 1e-07 1 1 0
1  78 0 0 3
2  155 22 0 0 3
2  156 23 0 0 3
0

0101000
+263 0 -208 0 *
Wi

0101000
-274 0 -207 0 +142 0 +262 0 *
Fa
0  1e-07 22 0

0101000
+141 0 *
Ed
 1e-07 1 1 0
1  79 0 0 3
2  157 24 0 0 3
2  158 25 0 0 3
0

0101000
+255 0 -202 0 *
Ed
 1e-07 1 1 0
1  80 0 0 3
2  159 24 0 0 3
2  160 23 0 0 3
0

0101000
+259 0 -204 0 *
Wi

0101000
-139 0 -200 0 +138 0 +254 0 *
Fa
0  1e-07 24 0

0101000
+137 0 *
Wi

0101100
-212 7 +221 7 -180 7 +225 7 +177 7 -253 0 +201 0 -139 0 *
Wi

0101100
-173 0 *
Wi

0101100
+156 0 -160 0 -166 0 +152 0 *
Wi

0101100
-148 0 *
Fa
0  2.12132034355964e-07 25 0

0101000
+135 0 +134 0 +133 0 +132 0 *
Ed
 1e-07 1 1 0
1  81 0 3 6
3  161 162CN 26 0 3 6
0

0101000
+251 67 -198 67 *
Wi

0101100
-197 0 +130 39 +250 0 -130 39 *
Fa
0  1e-07 26 39

0101000
+129 0 *
Ed
 1e-07 1 1 0
1  82 0 3 6
3  163 164CN 27 0 3 6
0

0101000
+248 68 -189 68 *
Wi

0101100
-188 0 +127 45 +247 0 -127 45 *
Fa
0  1e-07 27 45

0101000
+126 0 *
Ed
 1e-07 1 1 0
1  83 0 3 6
3  165 166CN 28 0 3 6
0

0101000
+245 69 -192 69 *
Wi

0101100
-191 0 +124 51 +244 0 -124 51 *
Fa
0  1e-07 28 51

0101000
+123 0 *
Ed
 1e-07 1 1 0
1  84 0 3 6
3  167 168CN 29 0 3 6
0

0101000
+242 70 -195 70 *
Wi

0101100
-194 0 +121 57 +241 0 -121 57 *
Fa
0  1e-07 29 57

0101000
+120 0 *
Ed
 1e-07 1 1 0
1  85 0 3 6
3  169 170CN 30 0 3 6
0

0101000
+239 71 -186 71 *
Wi

0101100
-185 0 +118 63 +238 0 -118 63 *
Fa
0  1e-07 30 63

0101000
+117 0 *
Wi

0101000
-258 0 +138 0 +203 0 -142 0 *
Fa
0  2.12132034355964e-07 23 0

0111000
+115 0 *
Sh

0101000
+322 0 +284 0 +279 0 +264 0 +236 0 -231 0 +228 0 -223 0 +218 7 +214 0 
+209 7 +183 0 -178 7 -175 0 -170 0 -163 0 -158 0 +153 0 +150 0 -145 0 
+143 0 +140 0 -136 0 +131 0 -128 0 -125 0 -122 0 -119 0 -116 0 +114 0 
*
So

0100000
+113 0 *
Ve
1e-07
6 7.5 33.8
0 0

0101101
*
Ve
1.5e-07
6 23.5 33.8
0 0

0101101
*
Ed
 1e-07 1 1 0
1  86 0 0 16
2  171 31 0 0 16
2  172 32 0 0 16
0

0101000
+111 78 -110 78 *
Ve
1.5e-07
6 23.5 46.2
0 0

0101101
*
Ed
 1.5e-07 1 1 0
1  87 0 -12.4 0
2  173 31 0 -12.4 0
2  174 33 0 -12.4 0
0

0101000
+108 78 -110 78 *
Ve
1e-07
6 7.5 46.2
0 0

0101101
*
Ed
 1e-07 1 1 0
1  88 0 0 16
2  175 31 0 0 16
2  176 34 0 0 16
0

0101000
+106 78 -108 78 *
Ed
 1e-07 1 1 0
1  89 0 0 12.4
2  177 31 0 0 12.4
2  178 35 0 0 12.4
0

0101000
-106 78 +111 78 *
Wi

0101100
-109 0 +107 0 +105 0 +104 0 *
Fa
0  1e-07 31 0

0101000
+103 0 *
Ve
1e-07
10.7 23.5 46.2
0 0

0101101
*
Ed
 1e-07 1 1 0
1  90 0 0 4.7
2  179 33 0 0 4.7
2  180 34 0 0 4.7
0

0101000
+101 78 -108 78 *
Ve
1e-07
10.7 23.5 33.8
0 0

0101101
*
Ed
 1e-07 1 1 0
1  91 0 0 4.7
2  181 33 0 0 4.7
2  182 32 0 0 4.7
0

0101000
+99 78 -110 78 *
Ed
 1e-07 1 1 0
1  92 0 0 12.4
2  183 33 0 0 12.4
2  184 36 0 0 12.4
0

0101000
-101 78 +99 78 *
Wi

0101100
-100 0 -107 0 +98 0 -97 0 *
Fa
0  1e-07 33 0

0101000
+96 0 *
Ve
1e-07
-17 7.5 46.2
0 0

0101101
*
Ed
 1e-07 1 1 0
1  93 0 0 23
2  185 35 0 0 23
2  186 34 0 0 23
0

0101000
-94 78 +106 78 *
Ve
1e-07
-17 7.5 33.8
0 0

0101101
*
Ed
 1e-07 1 1 0
1  94 0 0 12.4
2  187 35 0 0 12.4
2  188 37 0 0 12.4
0

0101000
-94 78 +92 78 *
Ed
 1e-07 1 1 0
1  95 0 0 23
2  189 35 0 0 23
2  190 32 0 0 23
0

0101000
-92 78 +111 78 *
Wi

0101100
-104 0 -93 0 +91 0 +90 0 *
Fa
0  1e-07 35 0

0111000
+89 0 *
Ve
1.5e-07
-17 23.5 33.8
0 0

0101101
*
Ed
 1e-07 1 1 0
1  96 0 0 16
2  191 37 0 0 16
2  192 32 0 0 16
0

0101000
+92 78 -87 78 *
Ve
1.5e-07
-17 23.5 46.2
0 0

0101101
*
Ed
 1.5e-07 1 1 0
1  97 0 -12.4 0
2  193 37 0 -12.4 0
2  194 38 0 -12.4 0
0

0101000
+85 78 -87 78 *
Ed
 1e-07 1 1 0
1  98 0 0 16
2  195 37 0 0 16
2  196 34 0 0 16
0

0101000
+94 78 -85 78 *
Wi

0101100
-86 0 +84 0 +83 0 +91 0 *
Fa
0  1e-07 37 0

0101000
+82 0 *
Ve
1e-07
10.7 26 33.8
0 0

0101101
*
Ed
 1e-07 1 1 0
1  99 0 0 2.5
2  197 36 0 0 2.5
2  198 32 0 0 2.5
0

0101000
-80 78 +99 78 *
Ve
1e-07
10.7 26 46.2
0 0

0101101
*
Ed
 1e-07 1 1 0
1  100 0 0 12.4
2  199 36 0 0 12.4
2  200 39 0 0 12.4
0

0101000
-78 78 +80 78 *
Ed
 1e-07 1 1 0
1  101 0 0 2.5
2  201 36 0 0 2.5
2  202 34 0 0 2.5
0

0101000
-78 78 +101 78 *
Wi

0101100
-79 0 -77 0 +76 0 +97 0 *
Fa
0  1e-07 36 0

0111000
+75 0 *
Ve
1e-07
-21.7 23.5 46.2
0 0

0101101
*
Ed
 1e-07 1 1 0
1  102 0 27.7 32.4
2  203 38 0 27.7 32.4
2  204 34 0 27.7 32.4
0

0101000
+85 78 -73 78 *
Ve
1e-07
-21.7 23.5 33.8
0 0

0101101
*
Ed
 1e-07 1 1 0
1  103 0 0 12.4
2  205 38 0 0 12.4
2  206 40 0 0 12.4
0

0101000
-73 78 +71 78 *
Ed
 1e-07 1 1 0
1  104 0 27.7 32.4
2  207 38 0 27.7 32.4
2  208 32 0 27.7 32.4
0

0101000
+87 78 -71 78 *
Wi

0101100
-72 0 +70 0 +69 0 +84 0 *
Fa
0  1e-07 38 0

0101000
+68 0 *
Ve
1.5e-07
6 26 46.2
0 0

0101101
*
Ed
 1e-07 1 1 0
1  105 0 0 4.7
2  209 39 0 0 4.7
2  210 34 0 0 4.7
0

0101000
+78 78 -66 78 *
Ve
1.5e-07
6 26 33.8
0 0

0101101
*
Ed
 1.5e-07 1 1 0
1  106 0 -12.4 0
2  211 39 0 -12.4 0
2  212 41 0 -12.4 0
0

0101000
+66 78 -64 78 *
Ed
 1e-07 1 1 0
1  107 0 0 4.7
2  213 39 0 0 4.7
2  214 32 0 0 4.7
0

0101000
+80 78 -64 78 *
Wi

0101100
-65 0 -63 0 +62 0 -77 0 *
Fa
0  1e-07 39 0

0101000
+61 0 *
Ve
1e-07
-21.7 26 33.8
0 0

0101101
*
Ed
 1e-07 1 1 0
1  108 0 0 2.5
2  215 40 0 0 2.5
2  216 32 0 0 2.5
0

0101000
-59 78 +71 78 *
Ve
1e-07
-21.7 26 46.2
0 0

0101101
*
Ed
 1e-07 1 1 0
1  109 0 0 12.4
2  217 40 0 0 12.4
2  218 42 0 0 12.4
0

0101000
-57 78 +59 78 *
Ed
 1e-07 1 1 0
1  110 0 0 2.5
2  219 40 0 0 2.5
2  220 34 0 0 2.5
0

0101000
-57 78 +73 78 *
Wi

0101100
-58 0 -56 0 +55 0 +70 0 *
Fa
0  1e-07 40 0

0111000
+54 0 *
Ve
1.5e-07
-17 26 46.2
0 0

0101101
*
Ed
 1e-07 1 1 0
1  111 0 27.7 32.4
2  221 42 0 27.7 32.4
2  222 34 0 27.7 32.4
0

0101000
+52 78 -57 78 *
Ve
1.5e-07
-17 26 33.8
0 0

0101101
*
Ed
 1e-07 1 1 0
1  112 0 27.7 32.4
2  223 42 0 27.7 32.4
2  224 32 0 27.7 32.4
0

0101000
+50 78 -59 78 *
Ed
 1.5e-07 1 1 0
1  113 0 -12.4 0
2  225 42 0 -12.4 0
2  226 43 0 -12.4 0
0

0101000
+52 78 -50 78 *
Wi

0101100
-51 0 +56 0 +49 0 +48 0 *
Fa
0  1e-07 42 0

0101000
+47 0 *
Ve
1e-07
-17 30 33.8
0 0

0101101
*
Ed
 1e-07 1 1 0
1  114 0 18.5 22.5
2  227 43 0 18.5 22.5
2  228 32 0 18.5 22.5
0

0101000
+50 78 -45 78 *
Ve
1e-07
-17 30 46.2
0 0

0101101
*
Ed
 1e-07 1 1 0
1  115 0 0 12.4
2  229 43 0 0 12.4
2  230 44 0 0 12.4
0

0101000
-43 78 +45 78 *
Ed
 1e-07 1 1 0
1  116 0 18.5 22.5
2  231 43 0 18.5 22.5
2  232 34 0 18.5 22.5
0

0101000
+52 78 -43 78 *
Wi

0101100
-44 0 -42 0 +41 0 -48 0 *
Fa
0  1e-07 43 0

0101000
+40 0 *
Ve
1e-07
6 30 46.2
0 0

0101101
*
Ve
1e-07
6 30 33.8
0 0

0101101
*
Ed
 1e-07 1 1 0
1  117 0 0 12.4
2  233 44 0 0 12.4
2  234 41 0 0 12.4
0

0101000
-38 78 +37 78 *
Ed
 1e-07 1 1 0
1  118 0 0 23
2  235 44 0 0 23
2  236 34 0 0 23
0

0101000
-43 78 +38 78 *
Ed
 1e-07 1 1 0
1  119 0 0 23
2  237 44 0 0 23
2  238 32 0 0 23
0

0101000
-45 78 +37 78 *
Wi

0101100
-36 0 -35 0 +34 0 +42 0 *
Ve
1e-07
-5.9 30 40
0 0

0101101
*
Ed
 1e-07 1 1 0
1  120 0 0 6.28318530717959
2  239 44 0 0 6.28318530717959
2  240 45 0 0 6.28318530717959
0

0101000
+32 78 -32 78 *
Wi

0101100
-31 0 *
Fa
0  1e-07 44 0

0101000
+33 0 +30 0 *
Ed
 1e-07 1 1 0
1  121 0 18.5 22.5
2  241 41 0 18.5 22.5
2  242 32 0 18.5 22.5
0

0101000
+64 78 -37 78 *
Ed
 1e-07 1 1 0
1  122 0 18.5 22.5
2  243 41 0 18.5 22.5
2  244 34 0 18.5 22.5
0

0101000
+66 78 -38 78 *
Wi

0101100
-28 0 -36 0 +27 0 -63 0 *
Fa
0  1e-07 41 0

0101000
+26 0 *
Ve
1e-07
-5.9 34 40
0 0

0101101
*
Ed
 1e-07 1 1 0
1  123 0 0 6.28318530717959
2  245 45 0 0 6.28318530717959
2  246 46 0 0 6.28318530717959
0

0101000
+24 78 -24 78 *
Ed
 1e-07 1 1 0
1  124 0 0 4
3  247 248CN 45 0 0 4
0

0101000
+32 78 -24 78 *
Wi

0101100
-23 0 +22 0 +31 0 -22 0 *
Fa
0  1e-07 45 0

0101000
+21 0 *
Ve
1e-07
-9 34 40
0 0

0101101
*
Ed
 1e-07 1 1 0
1  125 0 0 6.28318530717959
2  249 46 0 0 6.28318530717959
2  250 47 0 0 6.28318530717959
0

0101000
+19 78 -19 78 *
Wi

0101100
+18 0 *
Wi

0101100
-23 0 *
Fa
0  1e-07 46 0

0101000
+17 0 +16 0 *
Ve
1e-07
-9 36 40
0 0

0101101
*
Ed
 1e-07 1 1 0
1  126 0 0 6.28318530717959
2  251 47 0 0 6.28318530717959
2  252 48 0 0 6.28318530717959
0

0101000
+14 78 -14 78 *
Ed
 1e-07 1 1 0
1  127 0 0 2
3  253 254CN 47 0 0 2
0

0101000
-14 78 +19 78 *
Wi

0101100
-13 0 +12 0 +18 0 -12 0 *
Fa
0  1e-07 47 0

0111000
+11 0 *
Wi

0101100
+13 0 *
Fa
0  1e-07 48 0

0111000
+9 0 *
Wi

0101100
+86 0 +69 0 +58 0 -49 0 +44 0 -34 0 -28 0 -62 0 -79 0 +98 0 
-109 0 +90 0 *
Fa
0  1e-07 32 0

0101000
+7 0 *
Wi

0101100
-83 0 -93 0 +105 0 -100 0 +76 0 +65 0 +27 0 +35 0 -41 0 +51 0 
-55 0 -72 0 *
Fa
0  1e-07 34 0

0101000
+5 0 *
Sh

0101100
-102 0 -95 0 -88 0 +81 0 -74 0 -67 0 +60 0 +53 0 +46 0 +39 0 
+29 0 -25 0 +20 0 -15 0 +10 0 +8 0 +6 0 +4 0 *
So

0100000
+3 0 *
Co

1100000
+112 0 +2 77 *

+1 1 