DBRep_DrawableShape

CASCADE Topology V1, (c) Matra-Datavision
Locations 36
1
              1               0               0             -12 
              0               1               0              30 
              0               0               1              -8 
1
1.11022302462516e-16               0               1               0 
              0               1               0               0 
             -1               0 1.11022302462516e-16               0 
1
              1               0               0               0 
              0               1               0               0 
              0               0               1               0 
1
              1               0               0               0 
              0 1.11022302462516e-16               1               0 
              0              -1 1.11022302462516e-16               0 
1
              1               0               0               0 
              0               1               0               0 
              0               0               1               0 
1
              1               0               0               0 
              0               1               0             -30 
              0               0               1              16 
2  2 1 3 1 4 1 5 1 6 1 0
2  6 -1 5 -1 4 -1 3 -1 2 -1 0
1
1.11022302462516e-16               0               1               0 
              0               1               0               0 
             -1               0 1.11022302462516e-16               0 
1
              1               0               0               0 
              0               1               0               0 
              0               0               1               0 
1
              1               0               0               0 
              0 1.11022302462516e-16               1               0 
              0              -1 1.11022302462516e-16               0 
1
              1               0               0               0 
              0               1               0               0 
              0               0               1               0 
1
              1               0               0               0 
              0               1               0             -30 
              0               0               1              16 
2  9 1 10 1 11 1 12 1 13 1 0
1
1.11022302462516e-16               0               1               0 
              0               1               0               0 
             -1               0 1.11022302462516e-16               0 
1
              1               0               0               0 
              0               1               0               0 
              0               0               1               0 
1
              1               0               0               0 
              0 1.11022302462516e-16               1               0 
              0              -1 1.11022302462516e-16               0 
1
              1               0               0               0 
              0               1               0               0 
              0               0               1               0 
1
              1               0               0               0 
              0               1               0             -30 
              0               0               1              16 
2  15 1 16 1 17 1 18 1 19 1 0
1
1.11022302462516e-16               0               1               0 
              0               1               0               0 
             -1               0 1.11022302462516e-16               0 
1
              1               0               0               0 
              0               1               0               0 
              0               0               1               0 
1
              1               0               0               0 
              0 1.11022302462516e-16               1               0 
              0              -1 1.11022302462516e-16               0 
1
              1               0               0               0 
              0               1               0               0 
              0               0               1               0 
1
              1               0               0               0 
              0               1               0             -30 
              0               0               1              16 
2  21 1 22 1 23 1 24 1 25 1 0
2  13 -1 12 -1 11 -1 10 -1 9 -1 0
2  19 -1 18 -1 17 -1 16 -1 15 -1 0
2  25 -1 24 -1 23 -1 22 -1 21 -1 0
1
1.11022302462516e-16               0               1               0 
              0               1               0               0 
             -1               0 1.11022302462516e-16               0 
1
              1               0               0               0 
              0               1               0               0 
              0               0               1               0 
1
              1               0               0               0 
              0 1.11022302462516e-16               1               0 
              0              -1 1.11022302462516e-16               0 
1
              1               0               0               0 
              0               1               0               0 
              0               0               1               0 
1
              1               0               0               0 
              0               1               0             -30 
              0               0               1              16 
2  30 1 31 1 32 1 33 1 34 1 0
2  34 -1 33 -1 32 -1 31 -1 30 -1 0
Curve2ds 294
1 3.5 0 0 -1 
1 0 0 0 1 
1 0 -11 1 0 
1 0 0 0 1 
1 0 -33 1 0 
1 0 0 0 1 
1 0 0 0 -1 
1 0 0 0 1 
2 11 33 0 -1 -1 -0 11
1 -1.5707963267948966 3.5 1 0 
1 0 44 1 0 
1 3.5 0 0 1 
2 69 33 0 -1 1 0 11
1 -1.5707963267948966 3.5 1 0 
1 80 0 0 1 
1 3.5 0 0 -1 
2 69 11 0 -1 -1 -0 11
1 -4.7123889803846897 3.5 1 0 
1 0 0 1 0 
1 3.5 0 0 1 
8 0.35000000000000142 34.050000000000004
1 21.5 -0.35000000000000142 0 1 
1 -9.9754674605911759 16.560527126990003 0 -1 
8 -5.999999999062311e-07 4.5000005999999999
1 17 33.520606020859177 1 0 
8 -5.999999999062311e-07 4.5000005999999999
1 0.27425861348862973 0 0 1 
8 0.35000000000000142 34.050000000000004
1 17 -0.35000000000000142 0 1 
1 10.283212534957048 16.583942563785833 0 -1 
2 11.800000000000001 22.800000000000001 0 -1 1 0 7.1999999999999993
1 -1.5707963267948966 0 1 0 
1 4 30 1 0 
1 0 0 0 1 
2 11.199999999999999 22.800000000000001 0 -1 -1 -0 7.1999999999999993
1 -1.5707963267948966 0 1 0 
1 4 3 0 1 
1 0 0 0 -1 
2 11.199999999999999 10.199999999999996 0 -1 1 0 7.1999999999999957
1 -4.7123889803846897 0 1 0 
1 4 3 1 0 
1 0 0 0 1 
2 11.800000000000001 10.199999999999996 0 -1 -1 -0 7.1999999999999957
1 -4.7123889803846897 0 1 0 
8 0.35000000000000142 34.050000000000004
1 17 -0.35000000000000142 0 1 
1 10.283212534957048 16.583942563785833 0 -1 
1 0 0 1 0 
1 3.5 0 0 1 
2 11 11 0 -1 1 0 11
1 -4.7123889803846897 3.5 1 0 
1 -4.7123889803846897 0 1 0 
2 11 11 0 -1 1 0 11
1 1.5707963267948966 0 0 1 
1 0 11 1 0 
1 -1.5707963267948966 0 1 0 
2 11 33 0 -1 -1 -0 11
1 1.5707963267948966 0 0 1 
1 0 11 1 0 
1 0 44 1 0 
1 0 0 0 1 
2 69 33 0 -1 1 0 11
1 -1.5707963267948966 0 1 0 
1 80 0 0 1 
1 0 0 0 -1 
2 69 11 0 -1 -1 -0 11
1 -4.7123889803846897 0 1 0 
1 0 0 1 0 
1 0 0 0 1 
1 0 69 1 0 
1 1.5707963267948966 0 0 1 
1 0 0 0 1 
1 0 -33 1 0 
1 0 -11 1 0 
1 0 0 0 1 
1 1.5707963267948966 0 0 1 
1 0 69 1 0 
8 -3.5 0
1 0 21.5 -1 0 
1 -13.475467460591176 16.210527126990002 -1 -0 
8 -5.999999999062311e-07 4.5000005999999999
1 2.3040032051302526 17 0 1 
8 -5.999999999062311e-07 4.5000005999999999
1 0.54685016895667182 0 0 1 
8 -3.5 0
1 0 17 -1 0 
1 13.783212534957048 16.233942563785831 1 0 
1 -13.475467460591176 16.910527126990004 1 0 
1 0 4.5 1 0 
2 -8.675467460591177 12.110527126990007 1 0 -0 1 4.7999999999999989
1 -1.5707963267948966 4.5 1 0 
2 -8.2754674605911749 12.110527126990007 1 0 0 -1 4.7999999999999989
1 -4.7123889803846897 4.5 1 0 
1 -5.4754674605911759 -17.489472873009998 -1.1102230246251565e-16 1 
1 4.5 0 0 1 
1 10.52453253940882 16.910527126990004 -1 -1.1102230246251565e-16 
1 4.5 0 0 -1 
2 -8.675467460591177 -12.689472873010004 1 0 0 -1 4.7999999999999989
1 -1.5707963267948966 4.5 1 0 
1 10.524532539408824 -17.489472873009998 -1.1102230246251565e-16 1 
1 4.5 0 0 1 
1 -13.475467460591176 -17.489472873010001 1 0 
1 0 4.5 1 0 
1 10.524532539408824 -17.489472873009998 -1 -1.1102230246251565e-16 
1 4.5 0 0 -1 
2 -8.2754674605911749 -12.689472873010004 1 0 -0 1 4.7999999999999989
1 -4.7123889803846897 4.5 1 0 
1 -5.4754674605911759 -17.489472873009998 -1.1102230246251565e-16 1 
1 4.5 0 0 1 
2 2.5245325394088241 -14.289472873009998 -1.1102230246251565e-16 1 -1 -1.1102230246251565e-16 1.1499999999999999
1 0 12.5 1 0 
8 -18.305263563495004 6.2947364365049996
1 9.5245325394088241 -6.2947364365049978 1.1102230246251565e-16 -1 
8 -18.305263563495004 6.2947364365049996
1 17 6.2947364365049996 1.1102230246251565e-16 -1 
8 -4.762266269704412 9.237733730295588
1 4.762266269704412 12.010527126990006 -1 -1.1102230246251565e-16 
8 -4.762266269704412 9.237733730295588
1 16.999999999999996 -4.762266269704412 0 -1 
8 -18.305263563495004 6.2947364365049996
1 -4.4754674605911759 -6.2947364365049978 1.1102230246251565e-16 -1 
8 -18.305263563495004 6.2947364365049996
1 17 6.2947364365049996 1.1102230246251565e-16 -1 
8 -4.762266269704412 9.237733730295588
1 4.762266269704412 -12.589472873010003 -1 -1.1102230246251565e-16 
8 -4.762266269704412 9.237733730295588
1 17 -4.762266269704412 0 -1 
2 2.5245325394088223 13.710527126990002 -1.1102230246251565e-16 1 -1 -1.1102230246251565e-16 1.1499999999999999
1 0 12.499999999999996 1 0 
1 0 0 0 1 
1 4.7999999999999989 0 0 1 
1 -1.5707963267948966 0 1 0 
2 8.9832125349570493 -12.666057436214174 -1 0 -0 -1 4.7999999999999989
2 8.5832125349570472 -12.666057436214174 -1 0 0 1 4.7999999999999989
1 -4.7123889803846897 0 1 0 
1 13.783212534957048 -17.466057436214172 -1 0 
1 0 0 1 0 
1 5.7832125349570482 -17.466057436214165 1.1102230246251565e-16 1 
1 0 0 0 1 
1 -10.216787465042952 -17.466057436214165 1 -1.1102230246251565e-16 
1 0 0 0 -1 
1 -10.216787465042952 -17.466057436214165 1.1102230246251565e-16 1 
1 0 0 0 1 
1 10.283212534957048 -11.54601727540966 -1 0 
1 0.76378649639783147 0 0 1 
1 -10.216787465042948 16.933942563785834 1 -1.1102230246251565e-16 
1 0 0 0 -1 
1 5.2832125349570482 -2.1160574362141631 0 -1 
8 -15.349999999999998 11.650000000000006
1 13 15.349999999999994 -1.1102230246251565e-16 1 
1 5.7832125349570482 -17.466057436214165 1.1102230246251565e-16 1 
1 0 0 0 1 
1 10.283212534957048 11.01390240298133 -1 0 
1 0.7637864963978318 0 0 1 
2 8.5832125349570472 12.133942563785837 -1 0 -0 -1 4.7999999999999989
1 -4.7123889803846897 0 1 0 
1 13.783212534957048 16.933942563785834 -1 0 
1 0 0 1 0 
2 8.9832125349570493 12.133942563785837 -1 0 0 1 4.7999999999999989
1 -1.5707963267948966 0 1 0 
2 -2.2167874650429518 -14.266057436214169 1.1102230246251565e-16 1 1 -1.1102230246251565e-16 1.1499999999999999
1 0 7.9999999999999982 1 0 
8 -6.2830287181070847 18.316971281892918
1 4.7832125349570482 -6.283028718107083 1.1102230246251565e-16 1 
8 -6.2830287181070847 18.316971281892918
1 12.499999999999998 6.2830287181070847 -1.1102230246251565e-16 1 
8 -9.3916062674785223 4.6083937325214777
1 -4.6083937325214741 12.033942563785835 -1 1.1102230246251565e-16 
8 -9.3916062674785223 4.6083937325214777
1 12.499999999999995 -4.6083937325214777 0 1 
8 -6.2830287181070847 18.316971281892918
1 -9.2167874650429518 -6.283028718107083 1.1102230246251565e-16 1 
8 -6.2830287181070847 18.316971281892918
1 12.499999999999998 6.2830287181070847 -1.1102230246251565e-16 1 
8 -9.3916062674785259 4.6083937325214741
1 -4.6083937325214777 -12.566057436214169 -1 1.1102230246251565e-16 
8 -9.3916062674785259 4.6083937325214741
1 12.499999999999998 -4.6083937325214741 0 1 
2 -2.21678746504295 13.733942563785831 1.1102230246251565e-16 1 1 -1.1102230246251565e-16 1.1499999999999999
1 0 7.9999999999999947 1 0 
1 -1.5707963267948966 5 1 0 
2 7.8000000000000007 19.800000000000001 0 -1 1 0 7.1999999999999993
1 1.5707963267948966 0 0 1 
1 0 7.8000000000000007 1 0 
1 0 7.1999999999999993 1 0 
1 1.5707963267948966 0 0 1 
1 5 0 0 1 
1 0 27 1 0 
1 0 0 0 1 
1 0 -19.800000000000001 1 0 
1 -1.5707963267948966 5 1 0 
2 7.1999999999999993 19.800000000000001 0 -1 -1 -0 7.1999999999999993
1 5 0 0 -1 
1 0 0 0 1 
1 0 -7.1999999999999957 1 0 
1 0 0 0 1 
1 1.5707963267948966 0 0 1 
1 0 7.1999999999999993 1 0 
1 -4.7123889803846897 5 1 0 
2 7.1999999999999993 7.1999999999999957 0 -1 1 0 7.1999999999999993
1 0 7.8000000000000007 1 0 
1 1.5707963267948966 0 0 1 
1 5 0 0 1 
1 0 0 1 0 
1 -4.7123889803846897 5 1 0 
2 7.8000000000000007 7.1999999999999957 0 -1 -1 -0 7.1999999999999993
1 0 0 0 1 
1 4.7999999999999989 0 0 1 
1 5.2000000000000011 0 0 1 
1 0 0 0 1 
8 -5.999999999062311e-07 4.5000005999999999
1 0.62282658541200153 0 0 1 
8 -5.999999999062311e-07 4.5000005999999999
1 -1.9427479334059407e-15 33.498717737923592 1 1.1102230246251565e-16 
1 0 34.399999999999999 1 0 
1 0 -16 1 0 
1 0 0 1 0 
1 0 34.399999999999999 1 0 
1 0 0 1 0 
1 0 0 1 0 
1 5.2000000000000011 0 0 1 
1 0 0 0 1 
1 0 -16 1 0 
1 0 0 1 0 
8 -5.999999999062311e-07 4.5000005999999999
1 0.62282658541200253 0 0 1 
8 -5.999999999062311e-07 4.5000005999999999
1 1.6762944074959037e-15 0.90128226207640338 1 1.1102230246251565e-16 
1 6.2831853071795862 -0 0 1 
1 0 -0 0 1 
1 0 24.600000000000001 1 0 
1 0 0 1 0 
1 0 0 1 0 
1 0 0 1 0 
1 0 -14 1 0 
1 0 24.600000000000001 1 0 
1 0 0 1 0 
1 0 -14 1 0 
1 6.2831853071795862 -0 0 1 
1 0 -0 0 1 
1 0 0 1 0 
1 12.277322404371587 -11.5 -1 0 
8 -12.4 0
1 16 0 0 1 
8 -12.4 0
1 4.6999999999999993 0 0 -1 
1 0 -12.4 1 0 
1 -12.277322404371578 -11.500000000000002 1 0 
1 0 0 0 -1 
1 0 0 0 1 
1 0 12.4 1 0 
1 3.7226775956284222 -16.200000000000003 0 1 
1 0 0 1 0 
1 -3.7226775956284133 -16.199999999999999 0 1 
1 0 0 0 1 
1 0 0 0 -1 
1 0 12.4 1 0 
1 -12.277322404371578 -11.500000000000002 0 1 
1 23 0 0 1 
1 0 0 0 -1 
1 0 0 1 0 
1 12.277322404371587 -11.5 0 1 
1 0 0 1 0 
1 12.277322404371587 11.5 -1 0 
8 -12.4 0
1 16 0 0 1 
8 -12.4 0
1 27.699999999999999 0 0 -1 
1 0 -12.4 1 0 
1 -12.277322404371578 11.499999999999998 1 0 
1 0 0 1 0 
1 -3.7226775956284133 -16.199999999999999 -1 0 
1 2.5 0 0 -1 
1 0 0 0 1 
1 0 -12.4 1 0 
1 3.7226775956284222 -16.200000000000003 1 0 
1 0 12.4 1 0 
1 3.7226775956284222 -16.200000000000003 0 1 
1 32.399999999999999 0 0 1 
1 0 0 0 -1 
1 0 0 1 0 
1 -3.7226775956284133 -16.199999999999999 0 1 
1 0 12.4 1 0 
1 6.2226775956284222 -16.200000000000003 0 1 
8 -12.4 0
1 4.6999999999999993 0 0 -1 
8 -12.4 0
1 18.5 0 0 1 
1 0 0 1 0 
1 -6.2226775956284133 -16.199999999999999 0 1 
1 0 0 1 0 
1 -3.7226775956284133 16.199999999999999 -1 0 
1 2.5 0 0 -1 
1 32.399999999999999 0 0 1 
1 0 -12.4 1 0 
1 3.7226775956284222 16.199999999999996 1 0 
1 0 12.4 1 0 
1 6.2226775956284222 -16.200000000000003 0 1 
1 0 0 1 0 
1 -6.2226775956284133 -16.199999999999999 0 1 
8 -12.4 0
1 27.699999999999999 0 0 -1 
8 -12.4 0
1 18.5 0 0 1 
1 0 0 1 0 
1 12.277322404371587 11.5 -1 0 
1 22.5 0 0 -1 
1 23 0 0 1 
1 0 -12.4 1 0 
1 -12.277322404371578 11.499999999999998 1 0 
1 0 0 0 1 
1 22.5 0 0 -1 
1 0 12.4 1 0 
1 10.222677595628422 -11.500000000000002 0 1 
1 0 0 1 0 
1 -10.222677595628413 -11.5 0 1 
2 6 6.2000000000000002 1 0 -0 1 5.9000000000000004
1 0 0 1 0 
1 0 0 1 0 
1 12.277322404371587 -11.5 -1 0 
1 0 -12.4 1 0 
1 -12.277322404371578 -11.500000000000002 1 0 
1 0 4 1 0 
2 0 0 1 0 -0 1 5.9000000000000004
1 6.2831853071795862 -0 0 1 
1 0 -0 0 1 
2 0 0 1 0 -0 1 9
1 0 0 1 0 
1 0 2 1 0 
2 0 0 1 0 -0 1 9
1 6.2831853071795862 -0 0 1 
1 0 -0 0 1 
Curves 147
1 -28 -52 3.5 -0 1 0 
1 -28 -41 0 0 0 1 
1 -28 -19 0 0 0 1 
1 -28 -52 0 -0 1 0 
8 1.5707963267948966 3.1415926535897931
2 -17 -19 3.5 -0 -0 -1 0 -1 0 -1 0 0 11
1 -28 -8 3.5 1 0 -0 
8 1.5707963267948966 3.1415926535897931
2 41 -19 3.5 0 0 1 0 -1 0 1 0 -0 11
1 52 -52 3.5 -0 1 0 
8 4.7123889803846897 6.2831853071795862
2 41 -41 3.5 -0 -0 -1 0 -1 0 -1 0 0 11
1 -28 -52 3.5 1 0 -0 
1 -6.5 -52.350000000000001 3.5 -0 1 0 
1 -11 -18.479393979140823 3.5 1 0 -0 
1 -11 -52.350000000000001 3.5 -0 1 0 
8 1.5707963267948966 3.1415926535897931
2 -16.199999999999999 -29.199999999999999 3.5 0 0 1 0 -1 0 1 0 -0 7.1999999999999993
1 -24 -22 3.5 1 0 -0 
8 1.5707963267948966 3.1415926535897931
2 -16.800000000000001 -29.199999999999999 3.5 -0 -0 -1 0 -1 0 -1 0 0 7.1999999999999993
1 -24 -49 3.5 -0 1 0 
8 4.7123889803846897 6.2831853071795862
2 -16.800000000000001 -41.800000000000004 3.5 0 0 1 0 -1 0 1 0 -0 7.1999999999999993
1 -24 -49 3.5 1 0 -0 
8 4.7123889803846897 6.2831853071795862
2 -16.199999999999999 -41.800000000000004 3.5 -0 -0 -1 0 -1 0 -1 0 0 7.1999999999999993
1 -11 -52.350000000000001 3.5 -0 1 0 
1 -28 -52 3.5 1 0 -0 
8 4.7123889803846897 6.2831853071795862
2 -17 -41 3.5 0 0 1 0 -1 0 1 0 -0 11
8 4.7123889803846897 6.2831853071795862
2 -17 -41 0 0 0 1 0 -1 0 1 0 -0 11
1 -17 -52 0 0 0 1 
8 1.5707963267948966 3.1415926535897931
2 -17 -19 0 -0 -0 -1 0 -1 0 -1 0 0 11
1 -17 -8 0 0 0 1 
1 -28 -8 0 1 0 -0 
8 1.5707963267948966 3.1415926535897931
2 41 -19 0 0 0 1 0 -1 0 1 0 -0 11
1 52 -52 0 -0 1 0 
8 4.7123889803846897 6.2831853071795862
2 41 -41 0 -0 -0 -1 0 -1 0 -1 0 0 11
1 -28 -52 0 1 0 -0 
1 41 -8 0 0 0 1 
1 52 -19 0 0 0 1 
1 52 -41 0 0 0 1 
1 41 -52 0 0 0 1 
1 -6.5 -52 0 -0 0 -1 
1 -11 -52 2.3040032051302526 1 0 -0 
1 -11 -52 0 -0 0 -1 
1 -6.5 -52.700000000000003 0 0 0 1 
8 1.5707963267948966 3.1415926535897931
2 -6.5 -47.900000000000006 4.7999999999999989 1 0 -0 0 0 1 0 -1 0 4.7999999999999998
8 4.7123889803846897 6.2831853071795862
2 -6.5 -47.900000000000006 5.2000000000000011 -1 -0 0 0 0 1 -0 1 0 4.7999999999999998
1 -11.699999999999999 8 -6.5 1 0 -0 
1 22.699999999999999 -8 -6.5 -0 1 0 
8 1.5707963267948966 3.1415926535897931
2 -6.5 -23.099999999999994 4.7999999999999989 -1 -0 0 0 0 1 -0 1 0 4.7999999999999998
1 -11.699999999999999 -8 -6.5 1 0 -0 
1 -6.5 -18.299999999999997 0 0 0 1 
1 -11.699999999999999 -8 -6.5 -0 1 0 
8 4.7123889803846897 6.2831853071795862
2 -6.5 -23.099999999999994 5.2000000000000011 1 0 -0 0 0 1 0 -1 0 4.7999999999999998
1 -11.699999999999999 8 -6.5 1 0 -0 
2 -6.5 -21.5 16 1 1.1102230246251565e-16 1.2325951644078309e-32 1.1102230246251565e-16 -1 -1.1102230246251565e-16 0 1.1102230246251565e-16 -1 1.1499999999999999
1 -6.5 -29.494736436505001 23 -0 1 1.1102230246251565e-16 
1 -6.5 -47.800000000000004 18.237733730295588 0 1.1102230246251565e-16 -1 
1 -6.5 -29.494736436505001 9 -0 1 1.1102230246251565e-16 
1 -6.5 -23.199999999999996 18.237733730295588 0 1.1102230246251565e-16 -1 
2 -6.5 -49.5 15.999999999999998 1 1.1102230246251565e-16 1.2325951644078309e-32 1.1102230246251565e-16 -1 -1.1102230246251565e-16 0 1.1102230246251565e-16 -1 1.1499999999999999
1 -11 -18.299999999999994 4.7999999999999989 1 0 -0 
8 1.5707963267948966 3.1415926535897931
2 -11 -23.099999999999994 4.7999999999999989 -1 -0 0 0 0 1 -0 1 0 4.7999999999999998
8 4.7123889803846897 6.2831853071795862
2 -11 -23.099999999999994 5.2000000000000011 1 0 -0 0 0 1 0 -1 0 4.7999999999999998
1 -11 -18.299999999999997 0 0 0 1 
1 -11.699999999999999 8 -11 1 0 -0 
1 -11.699999999999999 -8 -11 -0 1 0 
1 -11.699999999999999 -8 -11 1 0 -0 
1 -11 -24.220040160804508 3.5 0 0 1 
1 22.699999999999999 -8 -11 -0 1 0 
1 -11 -33.650000000000006 8.5 -1.1102230246251565e-16 1 0 
1 -11.699999999999999 8 -11 1 0 -0 
1 -11 -46.779959839195499 3.5 0 0 1 
8 4.7123889803846897 6.2831853071795862
2 -11 -47.900000000000006 5.2000000000000011 -1 -0 0 0 0 1 -0 1 0 4.7999999999999998
1 -11 -52.700000000000003 0 0 0 1 
8 1.5707963267948966 3.1415926535897931
2 -11 -47.900000000000006 4.7999999999999989 1 0 -0 0 0 1 0 -1 0 4.7999999999999998
2 -11.000000000000002 -21.5 16 1 1.1102230246251565e-16 1.2325951644078309e-32 1.1102230246251565e-16 -1 -1.1102230246251565e-16 0 1.1102230246251565e-16 -1 1.1499999999999999
1 -11.000000000000002 -29.483028718107086 9 0 -1 -1.1102230246251565e-16 
1 -11.000000000000002 -47.800000000000004 18.391606267478522 0 -1.1102230246251565e-16 1 
1 -11.000000000000002 -29.483028718107086 23 0 -1 -1.1102230246251565e-16 
1 -11.000000000000002 -23.199999999999999 18.391606267478526 0 -1.1102230246251565e-16 1 
2 -11.000000000000002 -49.5 15.999999999999998 1 1.1102230246251565e-16 1.2325951644078309e-32 1.1102230246251565e-16 -1 -1.1102230246251565e-16 0 1.1102230246251565e-16 -1 1.1499999999999999
8 1.5707963267948966 3.1415926535897931
2 -16.199999999999999 -29.199999999999999 8.5 0 0 1 0 -1 0 1 0 -0 7.1999999999999993
1 -16.199999999999999 -22 3.5 0 0 1 
1 -16.800000000000001 -22 3.5 0 0 1 
1 -24 -22 8.5 1 0 -0 
1 -24 -29.199999999999999 3.5 0 0 1 
8 1.5707963267948966 3.1415926535897931
2 -16.800000000000001 -29.199999999999999 8.5 -0 -0 -1 0 -1 0 -1 0 0 7.1999999999999993
1 -24 -49 8.5 -0 1 0 
1 -24 -41.800000000000004 3.5 0 0 1 
1 -16.800000000000001 -49 3.5 0 0 1 
8 4.7123889803846897 6.2831853071795862
2 -16.800000000000001 -41.800000000000004 8.5 0 0 1 0 -1 0 1 0 -0 7.1999999999999993
1 -16.199999999999999 -49 3.5 0 0 1 
1 -24 -49 8.5 1 0 -0 
8 4.7123889803846897 6.2831853071795862
2 -16.199999999999999 -41.800000000000004 8.5 -0 -0 -1 0 -1 0 -1 0 0 7.1999999999999993
1 -11 -52.700000000000003 4.7999999999999989 1 0 -0 
1 -11 -52.700000000000003 5.2000000000000011 1 0 -0 
1 -11 -51.798717737923596 7.9999999999999964 1 0 -0 
1 22.699999999999999 8 -11 0 0 1 
1 22.699999999999999 -8 -11 0 0 1 
1 -11.699999999999999 -8 -11 0 0 1 
1 -11 -18.299999999999994 5.2000000000000011 1 0 -0 
1 -11.699999999999999 8 -11 0 0 1 
1 -11 -19.201282262076408 7.9999999999999991 1 0 -0 
1 -7.3499999999999996 -2.8166876380389116e-16 -19 0 0 1 
1 17.800000000000001 -7 -23.5 0 0 1 
1 -6.7999999999999998 -7 -23.5 0 0 1 
1 17.800000000000001 7 -23.5 0 0 1 
1 -6.7999999999999998 7 -23.5 0 0 1 
1 20.649999999999999 -2.8166876380389037e-16 -19 0 0 1 
1 -6 -6.2000000000000002 -22.5 0 0 1 
1 -6 -6.2000000000000002 -6.5 0 -1 0 
1 -6 6.2000000000000002 -22.5 0 0 1 
1 -6 -6.2000000000000002 -22.5 -0 1 0 
1 -10.699999999999999 6.2000000000000002 -6.5 1 0 -0 
1 -10.699999999999999 -6.2000000000000002 -6.5 1 0 -0 
1 -10.699999999999999 -6.2000000000000002 -6.5 -0 1 0 
1 -6 6.2000000000000002 -22.5 1 0 -0 
1 17 -6.2000000000000002 -22.5 -0 1 0 
1 -6 -6.2000000000000002 -22.5 1 0 -0 
1 17 -6.2000000000000002 -22.5 0 0 1 
1 17 -6.2000000000000002 -6.5 0 -1 0 
1 17 6.2000000000000002 -22.5 0 0 1 
1 -10.699999999999999 -6.2000000000000002 -6.5 0 0 1 
1 -10.699999999999999 -6.2000000000000002 -4 -0 1 0 
1 -10.699999999999999 6.2000000000000002 -6.5 0 0 1 
1 -10.699999999999999 6.2000000000000002 -6.5 1 0 -0 
1 21.699999999999999 -6.2000000000000002 -6.5 -0 1 0 
1 -10.699999999999999 -6.2000000000000002 -6.5 1 0 -0 
1 -10.699999999999999 6.2000000000000002 -4 1 0 -0 
1 -6 -6.2000000000000002 -4 0 -1 0 
1 -10.699999999999999 -6.2000000000000002 -4 1 0 -0 
1 21.699999999999999 -6.2000000000000002 -6.5 0 0 1 
1 21.699999999999999 -6.2000000000000002 -4 -0 1 0 
1 21.699999999999999 6.2000000000000002 -6.5 0 0 1 
1 -10.699999999999999 6.2000000000000002 -4 1 0 -0 
1 -10.699999999999999 -6.2000000000000002 -4 1 0 -0 
1 17 -6.2000000000000002 -4 0 -1 0 
1 17 -6.2000000000000002 -22.5 0 0 1 
1 17 -6.2000000000000002 0 -0 1 0 
1 17 6.2000000000000002 -22.5 0 0 1 
1 -6 -6.2000000000000002 0 -0 1 0 
1 -6 6.2000000000000002 0 1 0 -0 
1 -6 -6.2000000000000002 0 1 0 -0 
2 0 0 0 0 0 1 1 0 -0 -0 1 0 5.9000000000000004
1 -6 -6.2000000000000002 -22.5 0 0 1 
1 -6 6.2000000000000002 -22.5 0 0 1 
2 0 0 4 0 0 1 1 0 -0 -0 1 0 5.9000000000000004
1 5.9000000000000004 -1.4450832229938768e-15 0 0 0 1 
2 0 0 4 0 0 1 1 0 -0 -0 1 0 9
2 0 0 6 0 0 1 1 0 -0 -0 1 0 9
1 9 -2.2043642384652358e-15 4 0 0 1 
Polygon3D 0
PolygonOnTriangulations 0
Surfaces 55
1 -28 -52 0 1 0 -0 0 0 1 0 -1 0 
1 -28 -52 3.5 0 0 1 1 0 -0 -0 1 0 
2 -17 -41 0 0 0 1 -1 -0 0 0 -1 0 11
2 -17 -19 0 0 0 1 -1 -0 0 -0 1 -0 11
1 -28 -52 0 0 0 1 1 0 -0 -0 1 0 
1 -28 -8 0 -0 1 0 0 0 1 1 0 -0 
2 41 -19 0 0 0 1 1 0 -0 -0 1 0 11
1 52 -52 0 1 0 -0 0 0 1 0 -1 0 
2 41 -41 0 0 0 1 1 0 -0 0 -1 -0 11
1 -28 -52 0 -0 1 0 0 0 1 1 0 -0 
1 -6.5000000000000009 -35.789472873009998 13.475467460591176 1 0 0 -0 0 1 0 -1 0 
2 -11 -23.099999999999994 4.7999999999999989 1 0 -0 0 1 0 -0 0 -1 4.7999999999999998
1 -11.000000000000002 -35.766057436214169 13.783212534957048 -1 -0 -0 0 0 -1 0 -1 0 
2 -16.199999999999999 -29.199999999999999 3.5 0 0 1 1 0 -0 -0 1 0 7.1999999999999993
1 -24 -22 3.5 -0 1 0 0 0 1 1 0 -0 
2 -16.800000000000001 -29.199999999999999 3.5 0 0 1 -1 -0 0 -0 1 -0 7.1999999999999993
1 -24 -49 3.5 1 0 -0 0 0 1 0 -1 0 
2 -16.800000000000001 -41.800000000000004 3.5 0 0 1 -1 -0 0 0 -1 0 7.1999999999999993
1 -24 -49 3.5 -0 1 0 0 0 1 1 0 -0 
2 -16.199999999999999 -41.800000000000004 3.5 0 0 1 1 0 -0 0 -1 -0 7.1999999999999993
2 -11 -47.900000000000006 4.7999999999999989 1 0 -0 0 -1 0 0 -0 -1 4.7999999999999998
1 -11 -52.700000000000003 0 -0 1 0 0 0 1 1 0 -0 
2 -11 -47.900000000000006 5.2000000000000011 1 0 -0 0 -1 0 -0 0 1 4.7999999999999998
1 -11.699999999999999 8 -11 -0 1 0 0 0 1 1 0 -0 
1 22.699999999999999 -8 -11 1 0 -0 0 0 1 0 -1 0 
1 -11.699999999999999 -8 -11 -0 1 0 0 0 1 1 0 -0 
1 -11 -18.299999999999997 0 -0 1 0 0 0 1 1 0 -0 
1 -11.699999999999999 -8 -11 1 0 -0 0 0 1 0 -1 0 
2 -11 -23.099999999999994 5.2000000000000011 1 0 -0 0 1 0 0 -0 1 4.7999999999999998
1 -11.699999999999999 8 -11 -0 1 0 0 0 1 1 0 -0 
2 -8.5 0 -19 0 0 1 1 0 -0 -0 1 0 1.1499999999999999
1 -6.7999999999999998 -7 -23.5 -0 1 0 0 0 1 1 0 -0 
1 17.800000000000001 -7 -23.5 1 0 -0 0 0 1 0 -1 0 
1 -6.7999999999999998 7 -23.5 -0 1 0 0 0 1 1 0 -0 
1 -6.7999999999999998 -7 -23.5 1 0 -0 0 0 1 0 -1 0 
2 19.5 0 -19 0 0 1 1 0 -0 -0 1 0 1.1499999999999999
1 -24 -49 8.5 0 0 1 1 0 -0 -0 1 0 
1 -6 -6.2000000000000002 -22.5 1 0 -0 0 0 1 0 -1 0 
1 5.5 -6.1999999999999993 -10.222677595628413 -0 -1 -0 0 0 -1 1 -0 0 
1 -10.699999999999999 -6.2000000000000002 -6.5 0 0 1 1 0 -0 -0 1 0 
1 5.5000000000000018 6.2000000000000028 -10.222677595628422 0 1 0 0 -0 1 1 0 -0 
1 -6 -6.2000000000000002 -22.5 0 0 1 1 0 -0 -0 1 0 
1 -10.699999999999999 -6.2000000000000002 -6.5 1 0 -0 0 0 1 0 -1 0 
1 17 -6.2000000000000002 -22.5 1 0 -0 0 0 1 0 -1 0 
1 -10.699999999999999 -6.2000000000000002 -6.5 0 0 1 1 0 -0 -0 1 0 
1 -10.699999999999999 -6.2000000000000002 -4 0 0 1 1 0 -0 -0 1 0 
1 21.699999999999999 -6.2000000000000002 -6.5 1 0 -0 0 0 1 0 -1 0 
1 -6 -6.2000000000000002 -22.5 1 0 -0 0 0 1 0 -1 0 
1 -10.699999999999999 -6.2000000000000002 -4 0 0 1 1 0 -0 -0 1 0 
1 17 -6.2000000000000002 -22.5 1 0 -0 0 0 1 0 -1 0 
1 -6 -6.2000000000000002 0 0 0 1 1 0 -0 -0 1 0 
2 0 0 0 0 0 1 1 0 -0 -0 1 0 5.9000000000000004
1 0 0 4 0 0 1 1 0 -0 -0 1 0 
2 0 0 4 0 0 1 1 0 -0 -0 1 0 9
1 0 0 6 0 0 1 1 0 -0 -0 1 0 
Triangulations 0

TShapes 368
Ve
1e-07
-28 -41 3.5
0 0

0101101
*
Ve
1e-07
-28 -19 3.5
0 0

0101101
*
Ed
 1e-07 1 1 0
1  1 0 11 33
2  1 1 0 11 33
2  2 2 0 11 33
0

0101000
+368 0 -367 0 *
Ve
1e-07
-28 -41 0
0 0

0101101
*
Ed
 1e-07 1 1 0
1  2 0 0 3.5
2  3 1 0 0 3.5
2  4 3 0 0 3.5
4 G1 1 0 3 0
0

0101000
+365 0 -368 0 *
Ve
1e-07
-28 -19 0
0 0

0101101
*
Ed
 1e-07 1 1 0
1  3 0 0 3.5
2  5 1 0 0 3.5
2  6 4 0 0 3.5
4 G1 1 0 4 0
0

0101000
+363 0 -367 0 *
Ed
 1e-07 1 1 0
1  4 0 11 33
2  7 1 0 11 33
2  8 5 0 11 33
0

0101000
+365 0 -363 0 *
Wi

0101100
-366 0 -364 0 +362 0 +361 0 *
Fa
0  1e-07 1 0

0101000
+360 0 *
Ve
1e-07
-17 -8 3.5
0 0

0101101
*
Ed
 1e-07 1 1 0
1  5 0 1.5707963267949 3.14159265358979
2  9 2 0 1.5707963267949 3.14159265358979
2  10 4 0 1.5707963267949 3.14159265358979
0

0101000
+367 0 -358 0 *
Ve
1e-07
41 -8 3.5
0 0

0101101
*
Ed
 1e-07 1 1 0
1  6 0 11 69
2  11 2 0 11 69
2  12 6 0 11 69
0

0101000
+358 0 -356 0 *
Ve
1e-07
52 -19 3.5
0 0

0101101
*
Ed
 1e-07 1 1 0
1  7 0 1.5707963267949 3.14159265358979
2  13 2 0 1.5707963267949 3.14159265358979
2  14 7 0 1.5707963267949 3.14159265358979
0

0101000
+354 0 -356 0 *
Ve
1e-07
52 -41 3.5
0 0

0101101
*
Ed
 1e-07 1 1 0
1  8 0 11 33
2  15 2 0 11 33
2  16 8 0 11 33
0

0101000
+352 0 -354 0 *
Ve
1e-07
41 -52 3.5
0 0

0101101
*
Ed
 1e-07 1 1 0
1  9 0 4.71238898038469 6.28318530717959
2  17 2 0 4.71238898038469 6.28318530717959
2  18 9 0 4.71238898038469 6.28318530717959
0

0101000
+352 0 -350 0 *
Ve
1.5e-07
-6.5 -52 3.5
0 0

0101101
*
Ed
 1e-07 1 1 0
1  10 0 21.5 69
2  19 2 0 21.5 69
2  20 10 0 21.5 69
0

0101000
+348 0 -350 0 *
Ve
1.50000000888178e-07
-6.5 -18.4793939791408 3.5
0 0

0101101
*
Ed
 1.5e-07 1 1 0
1  11 0 0.350000000000001 33.8706060208592
2  21 2 0 0.350000000000001 33.8706060208592
2  22 11 0 0.350000000000001 33.8706060208592
0

0101000
+348 0 -346 0 *
Ve
2.12132036132321e-07
-11 -18.4793939791408 3.5
0 0

0101101
*
Ed
 1e-07 1 1 0
1  12 0 0 4.5
2  23 2 0 0 4.5
2  24 12 0 0 4.5
0

0101000
+344 0 -346 0 *
Ve
2.12133034355964e-07
-11 -24.2200401608045 3.5
0 0

0101101
*
Ed
 2.12132036132321e-07 1 1 0
1  13 0 28.1299598391955 33.8706060208592
2  25 2 0 28.1299598391955 33.8706060208592
2  26 13 0 28.1299598391955 33.8706060208592
0

0101000
+342 0 -344 0 *
Ve
1e-07
-16.2 -22 3.5
0 0

0101101
*
Ed
 1e-07 1 1 0
1  14 0 2.33458282319273 3.14159265358979
2  27 2 0 2.33458282319273 3.14159265358979
2  28 14 0 2.33458282319273 3.14159265358979
0

0101000
+342 0 -340 0 *
Ve
1e-07
-16.8 -22 3.5
0 0

0101101
*
Ed
 1e-07 1 1 0
1  15 0 7.2 7.8
2  29 2 0 7.2 7.8
2  30 15 0 7.2 7.8
0

0101000
+338 0 -340 0 *
Ve
1e-07
-24 -29.2 3.5
0 0

0101101
*
Ed
 1e-07 1 1 0
1  16 0 1.5707963267949 3.14159265358979
2  31 2 0 1.5707963267949 3.14159265358979
2  32 16 0 1.5707963267949 3.14159265358979
0

0101000
+336 0 -338 0 *
Ve
1e-07
-24 -41.8 3.5
0 0

0101101
*
Ed
 1e-07 1 1 0
1  17 0 7.2 19.8
2  33 2 0 7.2 19.8
2  34 17 0 7.2 19.8
0

0101000
+334 0 -336 0 *
Ve
1e-07
-16.8 -49 3.5
0 0

0101101
*
Ed
 1e-07 1 1 0
1  18 0 4.71238898038469 6.28318530717959
2  35 2 0 4.71238898038469 6.28318530717959
2  36 18 0 4.71238898038469 6.28318530717959
0

0101000
+334 0 -332 0 *
Ve
1e-07
-16.2 -49 3.5
0 0

0101101
*
Ed
 1e-07 1 1 0
1  19 0 7.2 7.8
2  37 2 0 7.2 7.8
2  38 19 0 7.2 7.8
0

0101000
+332 0 -330 0 *
Ve
2.12133034355964e-07
-11 -46.7799598391955 3.5
0 0

0101101
*
Ed
 1e-07 1 1 0
1  20 0 5.47617547678252 6.28318530717959
2  39 2 0 5.47617547678252 6.28318530717959
2  40 20 0 5.47617547678252 6.28318530717959
0

0101000
+328 0 -330 0 *
Ve
2.12132036132321e-07
-11 -52 3.5
0 0

0101101
*
Ed
 2.12132036132321e-07 1 1 0
1  21 0 0.350000000000001 5.5700401608045
2  41 2 0 0.350000000000001 5.5700401608045
2  42 13 0 0.350000000000001 5.5700401608045
0

0101000
+326 0 -328 0 *
Ve
1e-07
-17 -52 3.5
0 0

0101101
*
Ed
 1e-07 1 1 0
1  22 0 11 17
2  43 2 0 11 17
2  44 10 0 11 17
0

0101000
+324 0 -326 0 *
Ed
 1e-07 1 1 0
1  23 0 4.71238898038469 6.28318530717959
2  45 2 0 4.71238898038469 6.28318530717959
2  46 3 0 4.71238898038469 6.28318530717959
0

0101000
+368 0 -324 0 *
Wi

0101100
-366 0 -357 0 -355 0 +353 0 +351 0 -349 0 +347 0 -345 0 +343 0 +341 0 
-339 0 +337 0 +335 0 +333 0 -331 0 -329 0 +327 0 +325 0 +323 0 +322 0 
*
Fa
0  1e-07 2 0

0101000
+321 0 *
Ve
1e-07
-17 -52 0
0 0

0101101
*
Ed
 1e-07 1 1 0
1  24 0 4.71238898038469 6.28318530717959
2  47 3 0 4.71238898038469 6.28318530717959
2  48 5 0 4.71238898038469 6.28318530717959
0

0101000
+365 0 -319 0 *
Ed
 1e-07 1 1 0
1  25 0 0 3.5
2  49 3 0 0 3.5
2  50 10 0 0 3.5
4 G1 3 0 10 0
0

0101000
+319 0 -324 0 *
Wi

0101100
+318 0 -364 0 +317 0 -322 0 *
Fa
0  1e-07 3 0

0101000
+316 0 *
Ve
1e-07
-17 -8 0
0 0

0101101
*
Ed
 1e-07 1 1 0
1  26 0 1.5707963267949 3.14159265358979
2  51 4 0 1.5707963267949 3.14159265358979
2  52 5 0 1.5707963267949 3.14159265358979
0

0101000
+363 0 -314 0 *
Ed
 1e-07 1 1 0
1  27 0 0 3.5
2  53 4 0 0 3.5
2  54 6 0 0 3.5
4 G1 4 0 6 0
0

0101000
+314 0 -358 0 *
Wi

0101100
+313 0 -362 0 +312 0 -357 0 *
Fa
0  1e-07 4 0

0101000
+311 0 *
Ve
1e-07
41 -8 0
0 0

0101101
*
Ed
 1e-07 1 1 0
1  28 0 11 69
2  55 5 0 11 69
2  56 6 0 11 69
0

0101000
+314 0 -309 0 *
Ve
1e-07
52 -19 0
0 0

0101101
*
Ed
 1e-07 1 1 0
1  29 0 1.5707963267949 3.14159265358979
2  57 5 0 1.5707963267949 3.14159265358979
2  58 7 0 1.5707963267949 3.14159265358979
0

0101000
+307 0 -309 0 *
Ve
1e-07
52 -41 0
0 0

0101101
*
Ed
 1e-07 1 1 0
1  30 0 11 33
2  59 5 0 11 33
2  60 8 0 11 33
0

0101000
+305 0 -307 0 *
Ve
1e-07
41 -52 0
0 0

0101101
*
Ed
 1e-07 1 1 0
1  31 0 4.71238898038469 6.28318530717959
2  61 5 0 4.71238898038469 6.28318530717959
2  62 9 0 4.71238898038469 6.28318530717959
0

0101000
+305 0 -303 0 *
Ed
 1e-07 1 1 0
1  32 0 11 69
2  63 5 0 11 69
2  64 10 0 11 69
0

0101000
+319 0 -303 0 *
Wi

0101100
+361 0 +313 0 +308 0 -306 0 -304 0 +302 0 -301 0 -318 0 *
Fa
0  1e-07 5 0

0101000
-300 0 *
Ed
 1e-07 1 1 0
1  33 0 0 3.5
2  65 6 0 0 3.5
2  66 7 0 0 3.5
4 G1 6 0 7 0
0

0101000
+309 0 -356 0 *
Wi

0101100
-308 0 +312 0 -298 0 +355 0 *
Fa
0  1e-07 6 0

0101000
+297 0 *
Ed
 1e-07 1 1 0
1  34 0 0 3.5
2  67 7 0 0 3.5
2  68 8 0 0 3.5
4 G1 7 0 8 0
0

0101000
+307 0 -354 0 *
Wi

0101100
+306 0 -295 0 +298 0 -353 0 *
Fa
0  1e-07 7 0

0101000
+294 0 *
Ed
 1e-07 1 1 0
1  35 0 0 3.5
2  69 8 0 0 3.5
2  70 9 0 0 3.5
4 G1 8 0 9 0
0

0101000
+305 0 -352 0 *
Wi

0101100
-351 0 -292 0 +295 0 +304 0 *
Fa
0  1e-07 8 0

0101000
+291 0 *
Ed
 1e-07 1 1 0
1  36 0 0 3.5
2  71 9 0 0 3.5
2  72 10 0 0 3.5
4 G1 9 0 10 0
0

0101000
+303 0 -350 0 *
Wi

0101100
+302 0 -292 0 +289 0 -349 0 *
Fa
0  1e-07 9 0

0101000
+288 0 *
Ve
1.5e-07
-6.5 -52 2.30400320513025
0 0

0101101
*
Ed
 1.5e-07 1 1 0
1  37 0 -3.5 -2.30400320513025
2  73 10 0 -3.5 -2.30400320513025
2  74 11 0 -3.5 -2.30400320513025
0

0101000
+348 0 -286 0 *
Ve
2.12132036132321e-07
-11 -52 2.30400320513025
0 0

0101101
*
Ed
 1e-07 1 1 0
1  38 0 0 4.5
2  75 10 0 0 4.5
2  76 21 0 0 4.5
0

0101000
+284 0 -286 0 *
Ed
 2.12132036132321e-07 1 1 0
1  39 0 -3.5 -2.30400320513025
2  77 10 0 -3.5 -2.30400320513025
2  78 13 0 -3.5 -2.30400320513025
0

0101000
+326 0 -284 0 *
Wi

0101100
-301 0 -289 0 +347 0 -285 0 +283 0 +282 0 +323 0 +317 0 *
Fa
0  1e-07 10 0

0101000
+281 0 *
Ve
1.5e-07
-6.5 -52.7 4.8
0 0

0101101
*
Ve
1.5e-07
-6.5 -52.7 5.2
0 0

0101101
*
Ed
 1.5e-07 1 1 0
1  40 0 4.8 5.2
2  79 11 0 4.8 5.2
2  80 22 0 4.8 5.2
0

0101000
+279 0 -278 0 *
Ed
 1.5e-07 1 1 0
1  41 0 1.5707963267949 2.11764649575157
2  81 11 0 1.5707963267949 2.11764649575157
2  82 21 0 1.5707963267949 2.11764649575157
0

0101000
+279 0 -286 0 *
Ve
1.5e-07
-6.5 -51.7987177379234 8.00000000000012
0 0

0101101
*
Ed
 1.5e-07 1 1 0
1  42 0 4.71238898038469 5.33521556579673
2  83 11 0 4.71238898038469 5.33521556579673
2  84 23 0 4.71238898038469 5.33521556579673
0

0101000
+278 0 -275 0 *
Ve
1.5e-07
-6.5 -52.7 8
0 0

0101101
*
Ed
 1.5e-07 1 1 0
1  43 0 33.4987177379234 34.4
2  85 11 8 33.4987177379234 34.4
2  86 24 0 33.4987177379234 34.4
0

0101000
+275 8 -273 8 *
Ve
1.5e-07
-6.5 -52.7 24
0 0

0101101
*
Ed
 1.5e-07 1 1 0
1  44 0 0 16
2  87 11 8 0 16
2  88 25 0 0 16
0

0101000
-273 8 +271 8 *
Ve
1.5e-07
-6.5 -18.3 4.8
0 0

0101101
*
Ed
 1.5e-07 1 1 0
1  45 0 1.5707963267949 1.84505494028353
2  89 11 0 1.5707963267949 1.84505494028353
2  90 12 0 1.5707963267949 1.84505494028353
0

0101000
+269 0 -346 0 *
Ve
1.5e-07
-6.5 -18.3 24
0 0

0101101
*
Ed
 1.5e-07 1 1 0
1  46 0 0 34.4
2  91 11 8 0 34.4
2  92 26 0 0 34.4
0

0101000
-271 8 +267 8 *
Ve
1.5e-07
-6.5 -18.3 5.2
0 0

0101101
*
Ed
 1.5e-07 1 1 0
1  47 0 4.8 5.2
2  93 11 0 4.8 5.2
2  94 27 0 4.8 5.2
0

0101000
+269 0 -265 0 *
Ve
1.5e-07
-6.5 -18.3 8
0 0

0101101
*
Ed
 1.5e-07 1 1 0
1  48 0 0 16
2  95 11 8 0 16
2  96 28 0 0 16
0

0101000
-263 8 +267 8 *
Ve
1.5e-07
-6.5 -19.2012822620766 8.00000000000012
0 0

0101101
*
Ed
 1.5e-07 1 1 0
1  49 0 4.71238898038469 5.33521556579673
2  97 11 0 4.71238898038469 5.33521556579673
2  98 29 0 4.71238898038469 5.33521556579673
0

0101000
+265 0 -261 0 *
Ed
 1.5e-07 1 1 0
1  50 0 0 0.901282262076581
2  99 11 8 0 0.901282262076581
2  100 30 0 0 0.901282262076581
0

0101000
+263 8 -261 8 *
Wi

0101100
-277 0 +276 0 -274 0 -285 0 -272 7 +345 0 +270 7 -268 0 +266 7 +264 0 
-262 7 +260 0 -259 7 *
Ve
1.50000003552714e-07
-6.5 -22.65 16
0 0

0101101
*
Ed
 1.5e-07 1 1 0
1  51 0 0 6.28318530717959
2  101 11 0 0 6.28318530717959
2  102 31 14 0 6.28318530717959
0

0101100
+257 0 -257 0 *
Wi

0101100
-256 0 *
Ve
2.00000003552714e-07
-6.5 -47.8 23
0 0

0101101
*
Ve
2.00000003552714e-07
-6.5 -23.2 23
0 0

0101101
*
Ed
 2e-07 1 1 0
1  52 0 -18.305263563495 6.294736436505
2  103 11 0 -18.305263563495 6.294736436505
2  104 32 20 -18.305263563495 6.294736436505
0

0101000
+254 0 -253 0 *
Ve
2.00000001776357e-07
-6.5 -47.8 9
0 0

0101101
*
Ed
 2e-07 1 1 0
1  53 0 -4.76226626970441 9.23773373029559
2  105 11 0 -4.76226626970441 9.23773373029559
2  106 33 20 -4.76226626970441 9.23773373029559
0

0101000
+254 0 -251 0 *
Ve
2.00000003552714e-07
-6.5 -23.2 9
0 0

0101101
*
Ed
 2e-07 1 1 0
1  54 0 -18.305263563495 6.294736436505
2  107 11 0 -18.305263563495 6.294736436505
2  108 34 20 -18.305263563495 6.294736436505
0

0101000
+251 0 -249 0 *
Ed
 2e-07 1 1 0
1  55 0 -4.76226626970441 9.23773373029559
2  109 11 0 -4.76226626970441 9.23773373029559
2  110 35 20 -4.76226626970441 9.23773373029559
0

0101000
+253 0 -249 0 *
Wi

0101100
+252 0 -250 0 -248 0 +247 0 *
Ve
1.50000007105427e-07
-6.5 -50.65 16
0 0

0101101
*
Ed
 1.5e-07 1 1 0
1  56 0 0 6.28318530717959
2  111 11 0 0 6.28318530717959
2  112 36 26 0 6.28318530717959
0

0101100
+245 0 -245 0 *
Wi

0101100
-244 0 *
Fa
0  1.5e-07 11 0

0101000
+258 0 +255 0 +246 0 +243 0 *
Ve
2.12132036132321e-07
-11 -18.3 4.8
0 0

0101101
*
Ed
 1e-07 1 1 0
1  57 0 0 4.5
2  113 12 0 0 4.5
2  114 27 0 0 4.5
4 G1 12 0 27 0
0

0101000
+241 0 -269 0 *
Ed
 2.12132036132321e-07 1 1 0
1  58 0 1.5707963267949 1.84505494028353
2  115 12 0 1.5707963267949 1.84505494028353
2  116 13 0 1.5707963267949 1.84505494028353
0

0101000
+241 0 -344 0 *
Wi

0101100
-240 0 -268 0 +343 0 +239 0 *
Fa
0  1e-07 12 0

0101000
+238 0 *
Ve
2.12132036132321e-07
-11 -18.3 5.2
0 0

0101101
*
Ve
2.12132036132321e-07
-11 -19.2012822620766 8.00000000000012
0 0

0101101
*
Ed
 2.12132036132321e-07 1 1 0
1  59 0 4.71238898038469 5.33521556579673
2  117 13 0 4.71238898038469 5.33521556579673
2  118 29 0 4.71238898038469 5.33521556579673
0

0101000
+236 0 -235 0 *
Ed
 2.12132036132321e-07 1 1 0
1  60 0 4.8 5.2
2  119 13 0 4.8 5.2
2  120 27 0 4.8 5.2
0

0101000
+241 0 -236 0 *
Ve
2.12132036132321e-07
-11 -18.3 8
0 0

0101101
*
Ed
 2.12132036132321e-07 1 1 0
1  61 0 0 0.901282262076577
2  121 13 8 0 0.901282262076577
2  122 30 0 0 0.901282262076577
0

0101000
+232 8 -235 8 *
Ve
2.12132036132321e-07
-11 -18.3 24
0 0

0101101
*
Ed
 2.12132036132321e-07 1 1 0
1  62 0 0 16
2  123 13 8 0 16
2  124 28 0 0 16
0

0101000
-232 8 +230 8 *
Ve
2.12132036132321e-07
-11 -52.7 24
0 0

0101101
*
Ed
 2.12132036132321e-07 1 1 0
1  63 0 0 34.4
2  125 13 8 0 34.4
2  126 26 0 0 34.4
0

0101000
-228 8 +230 8 *
Ve
2.12133034355964e-07
-11 -24.2200401608045 8.5
0 0

0101101
*
Ed
 1e-07 1 1 0
1  64 0 0 5
2  127 13 0 0 5
2  128 14 0 0 5
0

0101000
+342 0 -226 0 *
Ve
2.12132036132321e-07
-11 -52.7 8
0 0

0101101
*
Ed
 2.12132036132321e-07 1 1 0
1  65 0 0 16
2  129 13 8 0 16
2  130 25 0 0 16
0

0101000
-224 8 +228 8 *
Ve
2.12133034355964e-07
-11 -46.7799598391955 8.5
0 0

0101101
*
Ed
 2.12132036132321e-07 1 1 0
1  66 0 -13.1299598391955 9.4299598391955
2  131 13 0 -13.1299598391955 9.4299598391955
2  132 37 0 -13.1299598391955 9.4299598391955
0

0101000
+222 0 -226 0 *
Ve
2.12132036132321e-07
-11 -51.7987177379234 8.00000000000012
0 0

0101101
*
Ed
 2.12132036132321e-07 1 1 0
1  67 0 33.4987177379234 34.4
2  133 13 8 33.4987177379234 34.4
2  134 24 0 33.4987177379234 34.4
0

0101000
+220 8 -224 8 *
Ed
 1e-07 1 1 0
1  68 0 0 5
2  135 13 0 0 5
2  136 20 0 0 5
0

0101000
+328 0 -222 0 *
Ve
2.12132036132321e-07
-11 -52.7 5.2
0 0

0101101
*
Ed
 2.12132036132321e-07 1 1 0
1  69 0 4.71238898038469 5.33521556579673
2  137 13 0 4.71238898038469 5.33521556579673
2  138 23 0 4.71238898038469 5.33521556579673
0

0101000
+217 0 -220 0 *
Ve
2.12132036132321e-07
-11 -52.7 4.8
0 0

0101101
*
Ed
 2.12132036132321e-07 1 1 0
1  70 0 4.8 5.2
2  139 13 0 4.8 5.2
2  140 22 0 4.8 5.2
0

0101000
+215 0 -217 0 *
Ed
 2.12132036132321e-07 1 1 0
1  71 0 1.5707963267949 2.11764649575157
2  141 13 0 1.5707963267949 2.11764649575157
2  142 21 0 1.5707963267949 2.11764649575157
0

0101000
+215 0 -284 0 *
Wi

0101100
-234 0 -233 0 +231 7 +239 0 +229 7 -341 0 -227 7 +225 0 -223 7 -221 0 
+219 7 -218 0 +216 0 -325 0 +214 0 +282 0 -213 0 *
Ve
2.12132039685035e-07
-11 -22.65 16
0 0

0101101
*
Ed
 2.12132036132321e-07 1 1 0
1  72 0 0 6.28318530717959
2  143 13 0 0 6.28318530717959
2  144 31 14 0 6.28318530717959
0

0101100
+211 0 -211 0 *
Wi

0101100
+210 0 *
Ve
2.62132039685035e-07
-11 -23.2 9
0 0

0101101
*
Ve
2.62132037908678e-07
-11 -47.8 9
0 0

0101101
*
Ed
 2.62132036132321e-07 1 1 0
1  73 0 -6.28302871810708 18.3169712818929
2  145 13 0 -6.28302871810708 18.3169712818929
2  146 34 20 -6.28302871810708 18.3169712818929
0

0101000
+208 0 -207 0 *
Ve
2.62132039685035e-07
-11 -47.8 23
0 0

0101101
*
Ed
 2.62132036132321e-07 1 1 0
1  74 0 -9.39160626747852 4.60839373252148
2  147 13 0 -9.39160626747852 4.60839373252148
2  148 33 20 -9.39160626747852 4.60839373252148
0

0101000
+207 0 -205 0 *
Ve
2.62132039685035e-07
-11 -23.2 23
0 0

0101101
*
Ed
 2.62132036132321e-07 1 1 0
1  75 0 -6.28302871810708 18.3169712818929
2  149 13 0 -6.28302871810708 18.3169712818929
2  150 32 20 -6.28302871810708 18.3169712818929
0

0101000
+203 0 -205 0 *
Ed
 2.62132036132321e-07 1 1 0
1  76 0 -9.39160626747853 4.60839373252147
2  151 13 0 -9.39160626747853 4.60839373252147
2  152 35 20 -9.39160626747853 4.60839373252147
0

0101000
+208 0 -203 0 *
Wi

0101100
-206 0 -204 0 +202 0 +201 0 *
Ve
2.12132043456428e-07
-11 -50.65 16
0 0

0101101
*
Ed
 2.12132036132321e-07 1 1 0
1  77 0 0 6.28318530717959
2  153 13 0 0 6.28318530717959
2  154 36 26 0 6.28318530717959
0

0101100
+199 0 -199 0 *
Wi

0101100
+198 0 *
Fa
0  2.12132036132321e-07 13 0

0101000
+212 0 +209 0 +200 0 +197 0 *
Ve
1e-07
-16.2 -22 8.5
0 0

0101101
*
Ed
 1e-07 1 1 0
1  78 0 2.33458282319273 3.14159265358979
2  155 14 0 2.33458282319273 3.14159265358979
2  156 37 0 2.33458282319273 3.14159265358979
0

0101000
+226 0 -195 0 *
Ed
 1e-07 1 1 0
1  79 0 0 5
2  157 14 0 0 5
2  158 15 0 0 5
4 G1 14 0 15 0
0

0101000
+340 0 -195 0 *
Wi

0101000
-225 0 -194 0 +193 0 +339 0 *
Fa
0  1e-07 14 0

0101000
+192 0 *
Ve
1e-07
-16.8 -22 8.5
0 0

0101101
*
Ed
 1e-07 1 1 0
1  80 0 0 5
2  159 15 0 0 5
2  160 16 0 0 5
4 G1 15 0 16 0
0

0101000
+338 0 -190 0 *
Ed
 1e-07 1 1 0
1  81 0 7.2 7.8
2  161 15 0 7.2 7.8
2  162 37 0 7.2 7.8
0

0101000
+190 0 -195 0 *
Wi

0101100
-337 0 +189 0 -193 0 +188 0 *
Fa
0  1e-07 15 0

0101000
+187 0 *
Ve
1e-07
-24 -29.2 8.5
0 0

0101101
*
Ed
 1e-07 1 1 0
1  82 0 0 5
2  163 16 0 0 5
2  164 17 0 0 5
4 G1 16 0 17 0
0

0101000
+336 0 -185 0 *
Ed
 1e-07 1 1 0
1  83 0 1.5707963267949 3.14159265358979
2  165 16 0 1.5707963267949 3.14159265358979
2  166 37 0 1.5707963267949 3.14159265358979
0

0101000
+185 0 -190 0 *
Wi

0101100
+335 0 -184 0 +189 0 -183 0 *
Fa
0  1e-07 16 0

0101000
+182 0 *
Ve
1e-07
-24 -41.8 8.5
0 0

0101101
*
Ed
 1e-07 1 1 0
1  84 0 7.2 19.8
2  167 17 0 7.2 19.8
2  168 37 0 7.2 19.8
0

0101000
+180 0 -185 0 *
Ed
 1e-07 1 1 0
1  85 0 0 5
2  169 17 0 0 5
2  170 18 0 0 5
4 G1 17 0 18 0
0

0101000
+334 0 -180 0 *
Wi

0101100
-179 0 -178 0 +184 0 +333 0 *
Fa
0  1e-07 17 0

0101000
+177 0 *
Ve
1e-07
-16.8 -49 8.5
0 0

0101101
*
Ed
 1e-07 1 1 0
1  86 0 0 5
2  171 18 0 0 5
2  172 19 0 0 5
4 G1 18 0 19 0
0

0101000
+332 0 -175 0 *
Ed
 1e-07 1 1 0
1  87 0 4.71238898038469 6.28318530717959
2  173 18 0 4.71238898038469 6.28318530717959
2  174 37 0 4.71238898038469 6.28318530717959
0

0101000
+180 0 -175 0 *
Wi

0101100
+331 0 -178 0 +174 0 -173 0 *
Fa
0  1e-07 18 0

0101000
+172 0 *
Ve
1e-07
-16.2 -49 8.5
0 0

0101101
*
Ed
 1e-07 1 1 0
1  88 0 0 5
2  175 19 0 0 5
2  176 20 0 0 5
4 G1 19 0 20 0
0

0101000
+330 0 -170 0 *
Ed
 1e-07 1 1 0
1  89 0 7.2 7.8
2  177 19 0 7.2 7.8
2  178 37 0 7.2 7.8
0

0101000
+175 0 -170 0 *
Wi

0101100
-329 0 +174 0 -169 0 +168 0 *
Fa
0  1e-07 19 0

0101000
+167 0 *
Ed
 1e-07 1 1 0
1  90 0 5.47617547678252 6.28318530717959
2  179 20 0 5.47617547678252 6.28318530717959
2  180 37 0 5.47617547678252 6.28318530717959
0

0101000
+222 0 -170 0 *
Wi

0101000
-218 0 -165 0 +169 0 +327 0 *
Fa
0  1e-07 20 0

0101000
+164 0 *
Ed
 1e-07 1 1 0
1  91 0 0 4.5
2  181 21 0 0 4.5
2  182 22 0 0 4.5
4 G1 21 0 22 0
0

0101000
+215 0 -279 0 *
Wi

0101100
-162 0 -276 0 +283 0 +213 0 *
Fa
0  1e-07 21 0

0101000
+161 0 *
Ed
 1e-07 1 1 0
1  92 0 0 4.5
2  183 22 0 0 4.5
2  184 23 0 0 4.5
4 G1 22 0 23 0
0

0101000
+217 0 -278 0 *
Wi

0101100
-277 0 -162 0 +159 0 +214 0 *
Fa
0  1e-07 22 0

0101000
+158 0 *
Ed
 1e-07 1 1 0
1  93 0 0 4.5
2  185 23 0 0 4.5
2  186 24 7 0 4.5
0

0101000
+220 0 -275 0 *
Wi

0101100
-159 0 -274 0 +156 0 +216 0 *
Fa
0  1e-07 23 0

0101000
+155 0 *
Ed
 1e-07 1 1 0
1  94 0 0 4.5
2  187 24 0 0 4.5
2  188 25 0 0 4.5
0

0101000
-273 8 +224 8 *
Wi

0101100
+156 0 -219 7 -153 7 +272 7 *
Fa
0  1e-07 24 7

0101000
+152 0 *
Ed
 1e-07 1 1 0
1  95 0 0 4.5
2  189 25 0 0 4.5
2  190 26 0 0 4.5
0

0101000
-271 8 +228 8 *
Wi

0101100
-150 0 -270 0 +153 0 +223 0 *
Fa
0  1e-07 25 0

0111000
+149 0 *
Ed
 1e-07 1 1 0
1  96 0 0 4.5
2  191 26 0 0 4.5
2  192 28 0 0 4.5
0

0101000
-267 8 +230 8 *
Wi

0101100
-227 0 -150 0 +266 0 +147 0 *
Fa
0  1e-07 26 0

0111000
+146 0 *
Ed
 1e-07 1 1 0
1  97 0 0 4.5
2  193 27 0 0 4.5
2  194 29 0 0 4.5
4 G1 27 0 29 0
0

0101000
+236 0 -265 0 *
Wi

0101100
-264 0 -240 0 +144 0 +233 0 *
Fa
0  1e-07 27 0

0101000
+143 0 *
Ed
 1e-07 1 1 0
1  98 0 0 4.5
2  195 28 0 0 4.5
2  196 30 0 0 4.5
0

0101000
-263 8 +232 8 *
Wi

0101100
-147 0 -262 0 +141 0 +229 0 *
Fa
0  1e-07 28 0

0111000
+140 0 *
Ed
 1e-07 1 1 0
1  99 0 0 4.5
2  197 29 0 0 4.5
2  198 30 7 0 4.5
0

0101000
+235 0 -261 0 *
Wi

0101100
-144 0 -260 0 +138 0 +234 0 *
Fa
0  1e-07 29 0

0101000
+137 0 *
Wi

0101100
-231 7 -138 0 +259 7 +141 7 *
Fa
0  1e-07 30 7

0101000
+135 0 *
Ed
 1e-07 1 1 0
1  100 0 8 12.5
3  199 200CN 31 0 8 12.5
0

0101000
+211 27 -257 27 *
Wi

0101100
-256 0 +133 14 +210 0 -133 14 *
Fa
0  1e-07 31 14

0101000
+132 0 *
Ed
 1e-07 1 1 0
1  101 0 12.5 17
2  201 32 0 12.5 17
2  202 33 0 12.5 17
0

0101000
+205 28 -254 28 *
Ed
 1e-07 1 1 0
1  102 0 12.5 17
2  203 32 0 12.5 17
2  204 35 0 12.5 17
0

0101000
+203 28 -253 28 *
Wi

0101100
-130 20 -252 0 +129 20 -202 0 *
Fa
0  1e-07 32 20

0101000
+128 0 *
Ed
 1e-07 1 1 0
1  103 0 12.5 17
2  205 33 0 12.5 17
2  206 34 0 12.5 17
0

0101000
+207 28 -251 28 *
Wi

0101100
-130 20 -250 0 +126 20 -204 0 *
Fa
0  1e-07 33 20

0101000
+125 0 *
Ed
 1e-07 1 1 0
1  104 0 12.5 17
2  207 34 0 12.5 17
2  208 35 0 12.5 17
0

0101000
+208 28 -249 28 *
Wi

0101100
-126 20 -248 0 +123 20 -206 0 *
Fa
0  1e-07 34 20

0101000
+122 0 *
Wi

0101100
-129 20 -247 0 +123 20 -201 0 *
Fa
0  1e-07 35 20

0101000
+120 0 *
Ed
 1e-07 1 1 0
1  105 0 8 12.5
3  209 210CN 36 0 8 12.5
0

0101000
+199 29 -245 29 *
Wi

0101100
-244 0 +118 26 +198 0 -118 26 *
Fa
0  1e-07 36 26

0101000
+117 0 *
Wi

0101100
-179 0 -183 0 -188 0 +194 0 +221 0 -165 0 +168 0 +173 0 *
Fa
0  1e-07 37 0

0101000
+115 0 *
Sh

0101100
-359 0 +320 0 +315 0 -310 0 -299 0 +296 0 +293 0 +290 0 -287 0 -280 0 
+242 0 -237 0 +196 0 +191 0 +186 0 -181 0 -176 0 +171 0 -166 0 -163 0 
+160 0 -157 0 -154 0 +151 0 +148 7 -145 7 +142 0 -139 7 +136 0 +134 0 
-131 0 +127 0 -124 0 -121 0 +119 0 -116 0 +114 0 *
So

0100000
+113 0 *
Ve
1e-07
-22.5 -24 22.2
0 0

0101101
*
Ve
1.5e-07
-6.5 -24 22.2
0 0

0101101
*
Ed
 1e-07 1 1 0
1  106 0 0 16
2  211 38 0 0 16
2  212 39 0 0 16
0

0101000
+111 36 -110 36 *
Ve
1.5e-07
-6.5 -24 9.8
0 0

0101101
*
Ed
 1.5e-07 1 1 0
1  107 0 -12.4 0
2  213 38 0 -12.4 0
2  214 40 0 -12.4 0
0

0101000
+108 36 -110 36 *
Ve
1e-07
-22.5 -24 9.8
0 0

0101101
*
Ed
 1e-07 1 1 0
1  108 0 0 16
2  215 38 0 0 16
2  216 41 0 0 16
0

0101000
+106 36 -108 36 *
Ed
 1e-07 1 1 0
1  109 0 0 12.4
2  217 38 0 0 12.4
2  218 42 0 0 12.4
0

0101000
-106 36 +111 36 *
Wi

0101100
-109 0 +107 0 +105 0 +104 0 *
Fa
0  1e-07 38 0

0101000
+103 0 *
Ve
1e-07
-6.5 -19.3 9.8
0 0

0101101
*
Ed
 1e-07 1 1 0
1  110 0 0 4.7
2  219 40 0 0 4.7
2  220 41 0 0 4.7
0

0101000
+101 36 -108 36 *
Ve
1e-07
-6.5 -19.3 22.2
0 0

0101101
*
Ed
 1e-07 1 1 0
1  111 0 0 4.7
2  221 40 0 0 4.7
2  222 39 0 0 4.7
0

0101000
+99 36 -110 36 *
Ed
 1e-07 1 1 0
1  112 0 0 12.4
2  223 40 0 0 12.4
2  224 43 0 0 12.4
0

0101000
-101 36 +99 36 *
Wi

0101100
-100 0 -107 0 +98 0 -97 0 *
Fa
0  1e-07 40 0

0101000
+96 0 *
Ve
1e-07
-22.5 -47 9.8
0 0

0101101
*
Ed
 1e-07 1 1 0
1  113 0 0 23
2  225 42 0 0 23
2  226 41 0 0 23
0

0101000
-94 36 +106 36 *
Ve
1e-07
-22.5 -47 22.2
0 0

0101101
*
Ed
 1e-07 1 1 0
1  114 0 0 12.4
2  227 42 0 0 12.4
2  228 44 0 0 12.4
0

0101000
-94 36 +92 36 *
Ed
 1e-07 1 1 0
1  115 0 0 23
2  229 42 0 0 23
2  230 39 0 0 23
0

0101000
-92 36 +111 36 *
Wi

0101100
-104 0 -93 0 +91 0 +90 0 *
Fa
0  1e-07 42 0

0111000
+89 0 *
Ve
1.5e-07
-6.5 -47 22.2
0 0

0101101
*
Ed
 1e-07 1 1 0
1  116 0 0 16
2  231 44 0 0 16
2  232 39 0 0 16
0

0101000
+92 36 -87 36 *
Ve
1.5e-07
-6.5 -47 9.8
0 0

0101101
*
Ed
 1.5e-07 1 1 0
1  117 0 -12.4 0
2  233 44 0 -12.4 0
2  234 45 0 -12.4 0
0

0101000
+85 36 -87 36 *
Ed
 1e-07 1 1 0
1  118 0 0 16
2  235 44 0 0 16
2  236 41 0 0 16
0

0101000
+94 36 -85 36 *
Wi

0101100
-86 0 +84 0 +83 0 +91 0 *
Fa
0  1e-07 44 0

0101000
+82 0 *
Ve
1e-07
-4 -19.3 22.2
0 0

0101101
*
Ed
 1e-07 1 1 0
1  119 0 0 2.5
2  237 43 0 0 2.5
2  238 39 0 0 2.5
0

0101000
-80 36 +99 36 *
Ve
1e-07
-4 -19.3 9.8
0 0

0101101
*
Ed
 1e-07 1 1 0
1  120 0 0 12.4
2  239 43 0 0 12.4
2  240 46 0 0 12.4
0

0101000
-78 36 +80 36 *
Ed
 1e-07 1 1 0
1  121 0 0 2.5
2  241 43 0 0 2.5
2  242 41 0 0 2.5
0

0101000
-78 36 +101 36 *
Wi

0101100
-79 0 -77 0 +76 0 +97 0 *
Fa
0  1e-07 43 0

0111000
+75 0 *
Ve
1e-07
-6.5 -51.7 9.8
0 0

0101101
*
Ed
 1e-07 1 1 0
1  122 0 27.7 32.4
2  243 45 0 27.7 32.4
2  244 41 0 27.7 32.4
0

0101000
+85 36 -73 36 *
Ve
1e-07
-6.5 -51.7 22.2
0 0

0101101
*
Ed
 1e-07 1 1 0
1  123 0 0 12.4
2  245 45 0 0 12.4
2  246 47 0 0 12.4
0

0101000
-73 36 +71 36 *
Ed
 1e-07 1 1 0
1  124 0 27.7 32.4
2  247 45 0 27.7 32.4
2  248 39 0 27.7 32.4
0

0101000
+87 36 -71 36 *
Wi

0101100
-72 0 +70 0 +69 0 +84 0 *
Fa
0  1e-07 45 0

0101000
+68 0 *
Ve
1.5e-07
-4 -24 9.8
0 0

0101101
*
Ed
 1e-07 1 1 0
1  125 0 0 4.7
2  249 46 0 0 4.7
2  250 41 0 0 4.7
0

0101000
+78 36 -66 36 *
Ve
1.5e-07
-4 -24 22.2
0 0

0101101
*
Ed
 1.5e-07 1 1 0
1  126 0 -12.4 0
2  251 46 0 -12.4 0
2  252 48 0 -12.4 0
0

0101000
+66 36 -64 36 *
Ed
 1e-07 1 1 0
1  127 0 0 4.7
2  253 46 0 0 4.7
2  254 39 0 0 4.7
0

0101000
+80 36 -64 36 *
Wi

0101100
-65 0 -63 0 +62 0 -77 0 *
Fa
0  1e-07 46 0

0101000
+61 0 *
Ve
1e-07
-4 -51.7 22.2
0 0

0101101
*
Ed
 1e-07 1 1 0
1  128 0 0 2.5
2  255 47 0 0 2.5
2  256 39 0 0 2.5
0

0101000
-59 36 +71 36 *
Ve
1e-07
-4 -51.7 9.8
0 0

0101101
*
Ed
 1e-07 1 1 0
1  129 0 0 12.4
2  257 47 0 0 12.4
2  258 49 0 0 12.4
0

0101000
-57 36 +59 36 *
Ed
 1e-07 1 1 0
1  130 0 0 2.5
2  259 47 0 0 2.5
2  260 41 0 0 2.5
0

0101000
-57 36 +73 36 *
Wi

0101100
-58 0 -56 0 +55 0 +70 0 *
Fa
0  1e-07 47 0

0111000
+54 0 *
Ve
1.5e-07
-4 -47 9.8
0 0

0101101
*
Ed
 1e-07 1 1 0
1  131 0 27.7 32.4
2  261 49 0 27.7 32.4
2  262 41 0 27.7 32.4
0

0101000
+52 36 -57 36 *
Ve
1.5e-07
-4 -47 22.2
0 0

0101101
*
Ed
 1e-07 1 1 0
1  132 0 27.7 32.4
2  263 49 0 27.7 32.4
2  264 39 0 27.7 32.4
0

0101000
+50 36 -59 36 *
Ed
 1.5e-07 1 1 0
1  133 0 -12.4 0
2  265 49 0 -12.4 0
2  266 50 0 -12.4 0
0

0101000
+52 36 -50 36 *
Wi

0101100
-51 0 +56 0 +49 0 +48 0 *
Fa
0  1e-07 49 0

0101000
+47 0 *
Ve
1e-07
1.88737914186277e-15 -47 22.2
0 0

0101101
*
Ed
 1e-07 1 1 0
1  134 0 18.5 22.5
2  267 50 0 18.5 22.5
2  268 39 0 18.5 22.5
0

0101000
+50 36 -45 36 *
Ve
1e-07
1.88737914186277e-15 -47 9.8
0 0

0101101
*
Ed
 1e-07 1 1 0
1  135 0 0 12.4
2  269 50 0 0 12.4
2  270 51 0 0 12.4
0

0101000
-43 36 +45 36 *
Ed
 1e-07 1 1 0
1  136 0 18.5 22.5
2  271 50 0 18.5 22.5
2  272 41 0 18.5 22.5
0

0101000
+52 36 -43 36 *
Wi

0101100
-44 0 -42 0 +41 0 -48 0 *
Fa
0  1e-07 50 0

0101000
+40 0 *
Ve
1e-07
-6.66133814775094e-16 -24 9.8
0 0

0101101
*
Ve
1e-07
-6.66133814775094e-16 -24 22.2
0 0

0101101
*
Ed
 1e-07 1 1 0
1  137 0 0 12.4
2  273 51 0 0 12.4
2  274 48 0 0 12.4
0

0101000
-38 36 +37 36 *
Ed
 1e-07 1 1 0
1  138 0 0 23
2  275 51 0 0 23
2  276 41 0 0 23
0

0101000
-43 36 +38 36 *
Ed
 1e-07 1 1 0
1  139 0 0 23
2  277 51 0 0 23
2  278 39 0 0 23
0

0101000
-45 36 +37 36 *
Wi

0101100
-36 0 -35 0 +34 0 +42 0 *
Ve
1e-07
6.55031584528842e-16 -35.9 16
0 0

0101101
*
Ed
 1e-07 1 1 0
1  140 0 0 6.28318530717959
2  279 51 0 0 6.28318530717959
2  280 52 0 0 6.28318530717959
0

0101000
+32 36 -32 36 *
Wi

0101100
-31 0 *
Fa
0  1e-07 51 0

0101000
+33 0 +30 0 *
Ed
 1e-07 1 1 0
1  141 0 18.5 22.5
2  281 48 0 18.5 22.5
2  282 39 0 18.5 22.5
0

0101000
+64 36 -37 36 *
Ed
 1e-07 1 1 0
1  142 0 18.5 22.5
2  283 48 0 18.5 22.5
2  284 41 0 18.5 22.5
0

0101000
+66 36 -38 36 *
Wi

0101100
-28 0 -36 0 +27 0 -63 0 *
Fa
0  1e-07 48 0

0101000
+26 0 *
Ve
1e-07
4 -35.9 16
0 0

0101101
*
Ed
 1e-07 1 1 0
1  143 0 0 6.28318530717959
2  285 52 0 0 6.28318530717959
2  286 53 0 0 6.28318530717959
0

0101000
+24 36 -24 36 *
Ed
 1e-07 1 1 0
1  144 0 0 4
3  287 288CN 52 0 0 4
0

0101000
+32 36 -24 36 *
Wi

0101100
-23 0 +22 0 +31 0 -22 0 *
Fa
0  1e-07 52 0

0101000
+21 0 *
Ve
1e-07
4 -39 16
0 0

0101101
*
Ed
 1e-07 1 1 0
1  145 0 0 6.28318530717959
2  289 53 0 0 6.28318530717959
2  290 54 0 0 6.28318530717959
0

0101000
+19 36 -19 36 *
Wi

0101100
+18 0 *
Wi

0101100
-23 0 *
Fa
0  1e-07 53 0

0101000
+17 0 +16 0 *
Ve
1e-07
6 -39 16
0 0

0101101
*
Ed
 1e-07 1 1 0
1  146 0 0 6.28318530717959
2  291 54 0 0 6.28318530717959
2  292 55 0 0 6.28318530717959
0

0101000
+14 36 -14 36 *
Ed
 1e-07 1 1 0
1  147 0 0 2
3  293 294CN 54 0 0 2
0

0101000
-14 36 +19 36 *
Wi

0101100
-13 0 +12 0 +18 0 -12 0 *
Fa
0  1e-07 54 0

0111000
+11 0 *
Wi

0101100
+13 0 *
Fa
0  1e-07 55 0

0111000
+9 0 *
Wi

0101100
+86 0 +69 0 +58 0 -49 0 +44 0 -34 0 -28 0 -62 0 -79 0 +98 0 
-109 0 +90 0 *
Fa
0  1e-07 39 0

0101000
+7 0 *
Wi

0101100
-83 0 -93 0 +105 0 -100 0 +76 0 +65 0 +27 0 +35 0 -41 0 +51 0 
-55 0 -72 0 *
Fa
0  1e-07 41 0

0101000
+5 0 *
Sh

0101100
-102 0 -95 0 -88 0 +81 0 -74 0 -67 0 +60 0 +53 0 +46 0 +39 0 
+29 0 -25 0 +20 0 -15 0 +10 0 +8 0 +6 0 +4 0 *
So

0100000
+3 0 *
Co

1100000
+112 0 +2 35 *

+1 1 