DBRep_DrawableShape

CASCADE Topology V1, (c) Matra-Datavision
Locations 78
1
              1               0               0              -0 
              0               1               0             -30 
              0               0               1            -153 
1
1.11022302462516e-16               0               1               0 
              0               1               0               0 
             -1               0 1.11022302462516e-16               0 
1
              1               0               0               0 
              0               1               0               0 
              0               0               1               0 
1
              1               0               0               0 
              0 1.11022302462516e-16              -1               0 
              0               1 1.11022302462516e-16               0 
1
              1               0               0               0 
              0               1               0               0 
              0               0               1               0 
1
              1               0               0               0 
              0               1               0              30 
              0               0               1             168 
2  2 1 3 1 4 1 5 1 6 1 0
1
1.11022302462516e-16               0               1               0 
              0               1               0               0 
             -1               0 1.11022302462516e-16               0 
1
              1               0               0               0 
              0               1               0               0 
              0               0               1               0 
1
              1               0               0               0 
              0 1.11022302462516e-16              -1               0 
              0               1 1.11022302462516e-16               0 
1
              1               0               0               0 
              0               1               0               0 
              0               0               1               0 
1
              1               0               0               0 
              0               1               0              30 
              0               0               1             168 
2  8 1 9 1 10 1 11 1 12 1 0
1
             -1 -1.22464679914735e-16               0               0 
1.22464679914735e-16              -1               0               0 
              0               0               1               0 
1
              1               0               0               0 
              0               1               0               0 
              0               0               1               0 
1
              1               0               0               0 
              0 1.11022302462516e-16               1               0 
              0              -1 1.11022302462516e-16               0 
1
              1               0               0               0 
              0               1               0               0 
              0               0               1               0 
1
              1               0               0               0 
              0               1               0              30 
              0               0               1             138 
2  14 1 15 1 16 1 17 1 18 1 0
1
             -1 -1.22464679914735e-16               0               0 
1.22464679914735e-16              -1               0               0 
              0               0               1               0 
1
              1               0               0               0 
              0               1               0               0 
              0               0               1               0 
1
              1               0               0               0 
              0 1.11022302462516e-16               1               0 
              0              -1 1.11022302462516e-16               0 
1
              1               0               0               0 
              0               1               0               0 
              0               0               1               0 
1
              1               0               0               0 
              0               1               0              30 
              0               0               1             138 
2  20 1 21 1 22 1 23 1 24 1 0
1
             -1 -1.22464679914735e-16               0               0 
1.22464679914735e-16              -1               0               0 
              0               0               1               0 
1
              1               0               0               0 
              0               1               0               0 
              0               0               1               0 
1
              1               0               0               0 
              0 1.11022302462516e-16               1               0 
              0              -1 1.11022302462516e-16               0 
1
              1               0               0               0 
              0               1               0               0 
              0               0               1               0 
1
              1               0               0               0 
              0               1               0              30 
              0               0               1             138 
2  26 1 27 1 28 1 29 1 30 1 0
1
             -1 -1.22464679914735e-16               0               0 
1.22464679914735e-16              -1               0               0 
              0               0               1               0 
1
              1               0               0               0 
              0               1               0               0 
              0               0               1               0 
1
              1               0               0               0 
              0 1.11022302462516e-16               1               0 
              0              -1 1.11022302462516e-16               0 
1
              1               0               0               0 
              0               1               0               0 
              0               0               1               0 
1
              1               0               0               0 
              0               1               0              30 
              0               0               1             138 
2  32 1 33 1 34 1 35 1 36 1 0
1
             -1 -1.22464679914735e-16               0               0 
1.22464679914735e-16              -1               0               0 
              0               0               1               0 
1
              1               0               0               0 
              0               1               0               0 
              0               0               1               0 
1
              1               0               0               0 
              0 1.11022302462516e-16               1               0 
              0              -1 1.11022302462516e-16               0 
1
              1               0               0               0 
              0               1               0               0 
              0               0               1               0 
1
              1               0               0               0 
              0               1               0              30 
              0               0               1             138 
2  38 1 39 1 40 1 41 1 42 1 0
2  42 -1 41 -1 40 -1 39 -1 38 -1 0
1
             -1 -1.22464679914735e-16               0               0 
1.22464679914735e-16              -1               0               0 
              0               0               1               0 
1
              1               0               0               0 
              0               1               0               0 
              0               0               1               0 
1
              1               0               0               0 
              0 1.11022302462516e-16               1               0 
              0              -1 1.11022302462516e-16               0 
1
              1               0               0               0 
              0               1               0               0 
              0               0               1               0 
1
              1               0               0               0 
              0               1               0              30 
              0               0               1             138 
2  45 1 46 1 47 1 48 1 49 1 0
2  6 -1 5 -1 4 -1 3 -1 2 -1 0
1
1.11022302462516e-16               0               1               0 
              0               1               0               0 
             -1               0 1.11022302462516e-16               0 
1
              1               0               0               0 
              0               1               0               0 
              0               0               1               0 
1
              1               0               0               0 
              0 1.11022302462516e-16              -1               0 
              0               1 1.11022302462516e-16               0 
1
              1               0               0               0 
              0               1               0               0 
              0               0               1               0 
1
              1               0               0               0 
              0               1               0              30 
              0               0               1             168 
2  52 1 53 1 54 1 55 1 56 1 0
1
1.11022302462516e-16               0               1               0 
              0               1               0               0 
             -1               0 1.11022302462516e-16               0 
1
              1               0               0               0 
              0               1               0               0 
              0               0               1               0 
1
              1               0               0               0 
              0 1.11022302462516e-16              -1               0 
              0               1 1.11022302462516e-16               0 
1
              1               0               0               0 
              0               1               0               0 
              0               0               1               0 
1
              1               0               0               0 
              0               1               0              30 
              0               0               1             168 
2  58 1 59 1 60 1 61 1 62 1 0
2  12 -1 11 -1 10 -1 9 -1 8 -1 0
2  18 -1 17 -1 16 -1 15 -1 14 -1 0
2  24 -1 23 -1 22 -1 21 -1 20 -1 0
2  30 -1 29 -1 28 -1 27 -1 26 -1 0
2  36 -1 35 -1 34 -1 33 -1 32 -1 0
2  49 -1 48 -1 47 -1 46 -1 45 -1 0
2  56 -1 55 -1 54 -1 53 -1 52 -1 0
2  62 -1 61 -1 60 -1 59 -1 58 -1 0
1
1.11022302462516e-16               0               1               0 
              0               1               0               0 
             -1               0 1.11022302462516e-16               0 
1
              1               0               0               0 
              0               1               0               0 
              0               0               1               0 
1
              1               0               0               0 
              0 1.11022302462516e-16              -1               0 
              0               1 1.11022302462516e-16               0 
1
              1               0               0               0 
              0               1               0               0 
              0               0               1               0 
1
              1               0               0               0 
              0               1               0              30 
              0               0               1             168 
2  72 1 73 1 74 1 75 1 76 1 0
2  76 -1 75 -1 74 -1 73 -1 72 -1 0
Curve2ds 282
1 0 4.5 1 0 
1 0 0 0 1 
1 7.1999999999999975 0 0 1 
1 1.5707963267948966 0 0 1 
1 7.8000000000000025 0 0 1 
1 1.5707963267948966 0 0 1 
1 0 0 1 0 
1 26.397276162517983 -7.7873521372400809 0 1 
2 7.1999999999999886 7.8000000000000025 1 0 -0 1 7.1999999999999993
1 -1.5707963267948966 4.5 1 0 
1 0 15 1 0 
1 0 -4.5 1 0 
2 42.800000000000011 7.8000000000000025 1 0 0 -1 7.1999999999999993
1 -4.7123889803846897 4.5 1 0 
1 50 0 0 1 
1 0 4.5 1 0 
2 42.800000000000011 7.1999999999999975 1 0 -0 1 7.1999999999999993
1 -4.7123889803846897 4.5 1 0 
8 -34 -15.999999999999998
1 16 5.0000000000000018 -1 1.2325951644078309e-32 
8 -34 -15.999999999999998
1 22.200000000000003 -15.999999999999998 1.1102230246251565e-16 -1 
8 5.9999999999999982 18
1 48 -6 0 1 
8 5.9999999999999982 18
1 5.9999999999999982 17.299999999999997 1 1.1102230246251565e-16 
8 -30.999999999999996 -16.999999999999996
1 17 12.000000000000002 -1 1.2325951644078309e-32 
8 -30.999999999999996 -16.999999999999996
1 17.300000000000004 -16.999999999999996 1.1102230246251565e-16 -1 
8 5.9999999999999982 18
1 34 -6 0 1 
8 5.9999999999999982 18
1 5.9999999999999982 17.299999999999997 1 1.1102230246251565e-16 
8 -34 -15.999999999999998
1 16 5.0000000000000018 -1 1.2325951644078309e-32 
8 -34 -15.999999999999998
1 22.200000000000003 -15.999999999999998 1.1102230246251565e-16 -1 
8 0.25000000000000067 4.7500000000000009
1 32 0.25 0 1 
8 0.25000000000000067 4.7500000000000009
1 -0.25000000000000067 22.199999999999999 1 1.1102230246251565e-16 
8 -34 -15.999999999999998
1 16 0.5 -1 1.2325951644078309e-32 
8 -34 -15.999999999999998
1 22.200000000000003 -15.999999999999998 1.1102230246251565e-16 -1 
8 5.9999999999999982 18
1 34 -6 0 1 
8 5.9999999999999982 18
1 5.9999999999999982 17.299999999999997 1 1.1102230246251565e-16 
1 0 0 1 0 
1 0 -4.5 1 0 
2 7.1999999999999886 7.1999999999999975 1 0 0 -1 7.1999999999999993
1 -1.5707963267948966 4.5 1 0 
2 11 5 -1.2246467991473532e-16 -1 1 -1.2246467991473532e-16 1.1499999999999999
1 6.679274664138223e-65 7.5 1 0 
2 4.5 11.5 -1.2246467991473532e-16 -1 1 -1.2246467991473532e-16 1.1499999999999999
1 6.679274664138223e-65 7.5 1 0 
2 11 11.5 -1.2246467991473532e-16 -1 1 -1.2246467991473532e-16 3.2000000000000002
1 6.679274664138223e-65 7.5 1 0 
2 17.5 11.5 -1.2246467991473532e-16 -1 1 -1.2246467991473532e-16 1.1499999999999999
1 6.679274664138223e-65 7.5 1 0 
1 -1.5707963267948966 0 1 0 
2 19.197276162517994 -0.58735213724008384 -1 0 -0 -1 7.1999999999999886
1 0 0 0 1 
1 7.1999999999999886 0 0 -1 
8 -5.999999999062311e-07 3.0000005999999999
1 1.3392061521792833 0 0 1 
8 -5.999999999062311e-07 3.0000005999999999
1 4.8996095343654531 -1.1999045100175399e-15 0 1 
1 0 3 1 0 
2 3.699999999999998 -3.8000000000000109 -1 -1.2246467991473532e-16 1.2246467991473532e-16 -1 7.1999999999999993
1 0 0 0 1 
1 7.1999999999999886 0 0 -1 
1 -1.5707963267948966 0 1 0 
2 19.197276162517994 0.012647862759921136 -1 0 0 1 7.1999999999999886
1 26.397276162517983 -7.7873521372400809 -1 0 
1 0 0 1 0 
8 -14.106323931379961 -2.1063239313799595
1 -7.6027238374820172 -9.8936760686200405 0 -1 
8 -14.106323931379961 -2.1063239313799595
1 9.8936760686200387 12.799999999999992 -1 -1.1102230246251565e-16 
1 10.397276162517983 -7.2873521372400809 1 1.2325951644078309e-32 
8 -34 -15.999999999999998
1 17.700000000000003 -15.999999999999998 1.1102230246251565e-16 -1 
1 -5.6027238374820172 -7.5373521372400809 0 1 
8 0.25000000000000017 4.75
1 -0.25000000000000017 17.699999999999999 1 1.1102230246251565e-16 
1 10.397276162517983 -2.7873521372400805 1 1.2325951644078309e-32 
8 -34 -15.999999999999998
1 17.700000000000003 -15.999999999999998 1.1102230246251565e-16 -1 
8 -14.106323931379961 -2.1063239313799595
1 -7.6027238374820172 -9.8936760686200405 0 -1 
8 -14.106323931379961 -2.1063239313799595
1 9.8936760686200387 12.799999999999992 -1 -1.1102230246251565e-16 
8 3.8013619187410073 17.801361918741009
1 -3.8013619187410086 4.2126478627599191 -1 -1.2325951644078309e-32 
8 3.8013619187410073 17.801361918741009
1 12.799999999999994 -3.8013619187410073 -1.1102230246251565e-16 1 
8 -14.106323931379961 -2.1063239313799595
1 -21.602723837482017 -9.8936760686200405 0 -1 
8 -14.106323931379961 -2.1063239313799595
1 9.8936760686200387 12.799999999999992 -1 -1.1102230246251565e-16 
1 10.397276162517983 -2.7873521372400805 1 1.2325951644078309e-32 
8 -34 -15.999999999999998
1 17.700000000000003 -15.999999999999998 1.1102230246251565e-16 -1 
2 -16.402723837482029 -0.58735213724008384 -1 0 0 1 7.1999999999999886
1 -4.7123889803846897 0 1 0 
1 -23.602723837482017 -7.7873521372400809 0 1 
1 0 0 1 0 
2 -16.402723837482029 0.012647862759921136 -1 0 -0 -1 7.1999999999999886
1 -4.7123889803846897 0 1 0 
1 26.397276162517983 7.2126478627599191 -1 0 
1 0 0 1 0 
2 15.397276162517983 3.7126478627599186 1.2246467991473532e-16 -1 -1 -1.2246467991473532e-16 11
1 0 0 1 0 
2 8.8972761625179828 3.7126478627599178 1.2246467991473532e-16 -1 -1 -1.2246467991473532e-16 1.1499999999999999
1 6.679274664138223e-65 2.9999999999999929 1 0 
2 15.397276162517983 -2.7873521372400814 1.2246467991473532e-16 -1 -1 -1.2246467991473532e-16 1.1499999999999999
1 6.679274664138223e-65 2.9999999999999929 1 0 
2 15.397276162517983 3.7126478627599186 1.2246467991473532e-16 -1 -1 -1.2246467991473532e-16 3.2000000000000002
1 6.679274664138223e-65 2.9999999999999929 1 0 
2 21.897276162517983 3.7126478627599195 1.2246467991473532e-16 -1 -1 -1.2246467991473532e-16 1.1499999999999999
1 6.679274664138223e-65 2.9999999999999929 1 0 
2 15.397276162517983 10.212647862759919 1.2246467991473532e-16 -1 -1 -1.2246467991473532e-16 1.1499999999999999
1 6.679274664138223e-65 2.9999999999999929 1 0 
1 42.800000000000011 0 0 -1 
1 0 0 0 1 
8 -16.5 -1.6999999999999886
1 5.5 -3 -1 -1.1102230246251565e-16 
8 -16.5 -1.6999999999999886
1 -3.4999999999999991 -5.5 1.2246467991473532e-16 -1 
8 -5.999999999062311e-07 3.0000005999999999
1 21.428326807307116 0 1.1102230246251565e-16 -1 
8 -5.999999999062311e-07 3.0000005999999999
1 1.8946073420684466 1.1577768529788108e-15 0 1 
1 1.5707963267948966 0 0 1 
1 7.8000000000000025 0 0 1 
1 7.1999999999999975 0 0 1 
1 1.5707963267948966 0 0 1 
8 -5.999999999062311e-07 4.5000005999999999
1 1.2602744921291291 0 0 1 
8 -5.999999999062311e-07 4.5000005999999999
1 17.699999999999999 17.655654600401054 1 1.1102230246251565e-16 
1 34.399999999999999 0 0 1 
1 4.5 0 0 -1 
1 0 0 1 0 
1 4.5 0 0 1 
8 -27.050000000000004 -2.4500000000000011
1 2.4500000000000028 2.0000000000000004 -1 0 
8 -27.050000000000004 -2.4500000000000011
1 17 -2.4500000000000011 1.3684555315672042e-48 -1 
8 1 15
1 29.5 1.0000000000000033 0 1 
8 1 15
1 17 1 0 -1 
8 -27.050000000000004 -2.4500000000000011
1 2.4500000000000011 16 -1 0 
8 -27.050000000000004 -2.4500000000000011
1 17 -2.4500000000000011 1.3684555315672042e-48 -1 
8 -27.050000000000004 -2.4500000000000011
1 2.4500000000000011 16 -1 0 
8 -27.050000000000004 -2.4500000000000011
1 17 -2.4500000000000011 1.3684555315672042e-48 -1 
8 1 15
1 4.9000000000000021 1.0000000000000004 0 1 
8 1 15
1 17 1 0 -1 
8 -27.050000000000004 -2.4500000000000011
1 2.4500000000000028 2.0000000000000004 -1 0 
8 -27.050000000000004 -2.4500000000000011
1 17 -2.4500000000000011 1.3684555315672042e-48 -1 
1 0 0 1 0 
1 4.5 0 0 1 
1 0 0 0 1 
1 4.5 0 0 -1 
1 0 18 1 0 
1 4.5 0 0 1 
2 3.200000000000002 9 1 0 -0 1 1.1499999999999999
1 0 12.5 1 0 
2 31.200000000000003 9.0000000000000036 1 0 -0 1 1.1499999999999999
1 0 12.5 1 0 
1 0 24.600000000000001 1 0 
1 0 -14 1 0 
1 24 0 0 1 
1 0 14 1 0 
1 0 0 1 0 
1 0 -14 1 0 
8 -27.050000000000001 -2.449999999999998
1 12.5 -2.449999999999998 1.3684555315672042e-48 -1 
8 -27.050000000000001 -2.449999999999998
1 2.4500000000000011 16 -1 0 
1 0 0 1 0 
1 24 0 0 1 
1 0 24.600000000000001 1 0 
1 0 0 1 0 
1 0 0 1 0 
1 0 0 1 0 
8 -27.050000000000004 -2.4500000000000015
1 12.5 -2.4500000000000015 1.3684555315672042e-48 -1 
8 -27.050000000000004 -2.4500000000000015
1 2.4499999999999993 2.0000000000000004 -1 0 
8 -10.899999999999995 -6.399999999999995
1 12 6.4000000000000039 1.1102230246251565e-16 -1 
8 -10.899999999999995 -6.399999999999995
1 34 6.399999999999995 1.1102230246251565e-16 1 
8 -27.050000000000004 -2.4500000000000015
1 12.5 -2.4500000000000015 1.3684555315672042e-48 -1 
8 -27.050000000000004 -2.4500000000000015
1 2.4499999999999993 2.0000000000000004 -1 0 
1 0 0 0 1 
1 0 0 1 0 
1 0 34.399999999999999 1 0 
1 0 0 1 0 
1 34.399999999999999 0 0 1 
1 0 0 0 -1 
8 1 15
1 29.499999999999996 1.0000000000000033 0 1 
8 1 15
1 12.499999999999996 1 0 -1 
8 1 15
1 4.9000000000000021 1.0000000000000004 0 1 
8 1 15
1 12.5 1 0 -1 
1 0 0 1 0 
1 0 0 0 1 
1 0 0 0 1 
1 0 0 0 -1 
1 0 18 1 0 
1 0 0 0 1 
2 3.1999999999999984 9 1 0 -0 1 1.1499999999999999
1 0 8 1 0 
2 31.199999999999999 9.0000000000000036 1 0 -0 1 1.1499999999999999
1 0 8 1 0 
1 6.2831853071795862 -0 0 1 
1 0 -0 0 1 
1 6.2831853071795862 -0 0 1 
1 0 -0 0 1 
1 6.2831853071795862 -0 0 1 
1 0 -0 0 1 
1 6.2831853071795862 -0 0 1 
1 0 -0 0 1 
1 0 3 1 0 
2 0 0 1 0 -0 1 11
2 -6.5 -7.9602041944577955e-16 1 0 -0 1 1.1499999999999999
1 6.679274664138223e-65 6 1 0 
1 0 0 1 0 
1 0 0 1 0 
1 6.2831853071795862 -0 0 1 
1 0 -0 0 1 
1 0 -18 1 0 
1 0 34.399999999999999 1 0 
1 0 -18 1 0 
1 0 0 1 0 
1 6.2831853071795862 -0 0 1 
1 0 -0 0 1 
1 6.2831853071795862 -0 0 1 
1 0 -0 0 1 
1 0 0 1 0 
1 12.277322404371587 -11.5 -1 0 
8 -12.4 0
1 16 0 0 1 
8 -12.4 0
1 4.6999999999999993 0 0 -1 
1 0 -12.4 1 0 
1 -12.277322404371578 -11.500000000000002 1 0 
1 0 0 0 -1 
1 0 0 0 1 
1 0 12.4 1 0 
1 3.7226775956284222 -16.200000000000003 0 1 
1 0 0 1 0 
1 -3.7226775956284133 -16.199999999999999 0 1 
1 0 0 0 1 
1 0 0 0 -1 
1 0 12.4 1 0 
1 -12.277322404371578 -11.500000000000002 0 1 
1 23 0 0 1 
1 0 0 0 -1 
1 0 0 1 0 
1 12.277322404371587 -11.5 0 1 
1 0 0 1 0 
1 12.277322404371587 11.5 -1 0 
8 -12.4 0
1 16 0 0 1 
8 -12.4 0
1 27.699999999999999 0 0 -1 
1 0 -12.4 1 0 
1 -12.277322404371578 11.499999999999998 1 0 
1 0 0 1 0 
1 -3.7226775956284133 -16.199999999999999 -1 0 
1 2.5 0 0 -1 
1 0 0 0 1 
1 0 -12.4 1 0 
1 3.7226775956284222 -16.200000000000003 1 0 
1 0 12.4 1 0 
1 3.7226775956284222 -16.200000000000003 0 1 
1 32.399999999999999 0 0 1 
1 0 0 0 -1 
1 0 0 1 0 
1 -3.7226775956284133 -16.199999999999999 0 1 
1 0 12.4 1 0 
1 6.2226775956284222 -16.200000000000003 0 1 
8 -12.4 0
1 4.6999999999999993 0 0 -1 
8 -12.4 0
1 18.5 0 0 1 
1 0 0 1 0 
1 -6.2226775956284133 -16.199999999999999 0 1 
1 0 0 1 0 
1 -3.7226775956284133 16.199999999999999 -1 0 
1 2.5 0 0 -1 
1 32.399999999999999 0 0 1 
1 0 -12.4 1 0 
1 3.7226775956284222 16.199999999999996 1 0 
1 0 12.4 1 0 
1 6.2226775956284222 -16.200000000000003 0 1 
1 0 0 1 0 
1 -6.2226775956284133 -16.199999999999999 0 1 
8 -12.4 0
1 27.699999999999999 0 0 -1 
8 -12.4 0
1 18.5 0 0 1 
1 0 0 1 0 
1 12.277322404371587 11.5 -1 0 
1 22.5 0 0 -1 
1 23 0 0 1 
1 0 -12.4 1 0 
1 -12.277322404371578 11.499999999999998 1 0 
1 0 0 0 1 
1 22.5 0 0 -1 
1 0 12.4 1 0 
1 10.222677595628422 -11.500000000000002 0 1 
1 0 0 1 0 
1 -10.222677595628413 -11.5 0 1 
2 6 6.2000000000000002 1 0 -0 1 5.9000000000000004
1 0 0 1 0 
1 0 0 1 0 
1 12.277322404371587 -11.5 -1 0 
1 0 -12.4 1 0 
1 -12.277322404371578 -11.500000000000002 1 0 
1 0 4 1 0 
2 0 0 1 0 -0 1 5.9000000000000004
1 6.2831853071795862 -0 0 1 
1 0 -0 0 1 
2 0 0 1 0 -0 1 9
1 0 0 1 0 
1 0 2 1 0 
2 0 0 1 0 -0 1 9
1 6.2831853071795862 -0 0 1 
1 0 -0 0 1 
Curves 141
1 -11.5 40.5 127 1 0 -0 
1 -4.3000000000000025 36 126.99999999999999 -0 1 0 
1 -3.6999999999999971 36 126.99999999999999 -0 1 0 
1 -11.5 36 127 1 0 -0 
8 1.5707963267948966 3.1415926535897931
2 -3.6999999999999975 40.5 134.19999999999999 -0 1 0 0 0 1 1 0 -0 7.1999999999999993
1 3.5 40.5 127 0 0 1 
8 4.7123889803846897 6.2831853071795862
2 -3.6999999999999975 40.5 169.80000000000001 0 -1 -0 0 0 1 -1 -0 0 7.1999999999999993
1 -11.5 40.5 177 1 0 -0 
8 4.7123889803846897 6.2831853071795862
2 -4.3000000000000025 40.5 169.80000000000001 -0 1 0 0 0 1 1 0 -0 7.1999999999999993
1 -6.4999999999999982 40.5 143 1.2325951644078309e-32 0 -1 
1 -17.5 40.5 175 1 0 -0 
1 0.50000000000000144 40.5 144 1.2325951644078309e-32 0 -1 
1 -17.5 40.5 161 1 0 -0 
1 -6.4999999999999982 40.5 143 1.2325951644078309e-32 0 -1 
1 -11.25 40.5 159 1 0 -0 
1 -11 40.5 143 1.2325951644078309e-32 0 -1 
1 -17.5 40.5 161 1 0 -0 
1 -11.5 40.5 127 0 0 1 
8 1.5707963267948966 3.1415926535897931
2 -4.3000000000000025 40.5 134.19999999999999 0 -1 -0 0 0 1 -1 -0 0 7.1999999999999993
2 -6.5 40.5 138 0 1 1.1102230246251565e-16 -1 1.3596310734468911e-32 -1.2246467991473532e-16 -1.2246467991473532e-16 -1.1102230246251565e-16 1 1.1499999999999999
2 7.9602041944577955e-16 40.5 131.5 0 1 1.1102230246251565e-16 -1 1.3596310734468911e-32 -1.2246467991473532e-16 -1.2246467991473532e-16 -1.1102230246251565e-16 1 1.1499999999999999
2 0 40.5 138 0 1 1.1102230246251565e-16 -1 1.3596310734468911e-32 -1.2246467991473532e-16 -1.2246467991473532e-16 -1.1102230246251565e-16 1 3.2000000000000002
2 -7.9602041944577955e-16 40.5 144.5 0 1 1.1102230246251565e-16 -1 1.3596310734468911e-32 -1.2246467991473532e-16 -1.2246467991473532e-16 -1.1102230246251565e-16 1 1.1499999999999999
8 1.5707963267948966 3.1415926535897931
2 -4.3000000000000025 36 134.19999999999999 0 -1 -0 0 0 1 -1 -0 0 7.1999999999999993
1 -11.500000000000002 36 134.19999999999999 -0 1 0 
1 -2.0474161535450368 36 127.19222099160966 0 1 1.1102230246251565e-16 
2 -3.6999999999999975 39 134.19999999999999 0 1 0 1 0 -0 -0 0 -1 7.1999999999999993
1 3.5000000000000018 36 134.19999999999999 -0 1 0 
8 1.5707963267948966 3.1415926535897931
2 -3.6999999999999975 36 134.19999999999999 -0 1 0 0 0 1 1 0 -0 7.1999999999999993
1 -11.5 36 127 0 0 1 
1 -13.60632393137996 35.999999999999993 161 -1 0 0 
1 -11 36 143 1.2325951644078309e-32 0 -1 
1 -11.25 36 159 1 0 -0 
1 -6.4999999999999991 36 143 1.2325951644078309e-32 0 -1 
1 -13.60632393137996 35.999999999999993 161 -1 0 0 
1 0.50000000000000056 35.999999999999993 157.19863808125899 -1.2325951644078309e-32 0 1 
1 -13.60632393137996 35.999999999999993 175 -1 0 0 
1 -6.4999999999999991 36 143 1.2325951644078309e-32 0 -1 
8 4.7123889803846897 6.2831853071795862
2 -4.3000000000000025 36 169.80000000000001 -0 1 0 0 0 1 1 0 -0 7.1999999999999993
1 -11.5 36 177 1 0 -0 
8 4.7123889803846897 6.2831853071795862
2 -3.6999999999999975 36 169.80000000000001 0 -1 -0 0 0 1 -1 -0 0 7.1999999999999993
1 3.5 36 127 0 0 1 
2 0 0 6 0 0 1 1 0 -0 -0 1 0 11
2 -7.9602041944577955e-16 35.999999999999993 144.5 0 1 1.1102230246251565e-16 -1 1.3596310734468911e-32 -1.2246467991473532e-16 -1.2246467991473532e-16 -1.1102230246251565e-16 1 1.1499999999999999
2 -6.5 35.999999999999993 138 0 1 1.1102230246251565e-16 -1 1.3596310734468911e-32 -1.2246467991473532e-16 -1.2246467991473532e-16 -1.1102230246251565e-16 1 1.1499999999999999
2 0 35.999999999999993 138 0 1 1.1102230246251565e-16 -1 1.3596310734468911e-32 -1.2246467991473532e-16 -1.2246467991473532e-16 -1.1102230246251565e-16 1 3.2000000000000002
2 7.9602041944577955e-16 35.999999999999993 131.5 0 1 1.1102230246251565e-16 -1 1.3596310734468911e-32 -1.2246467991473532e-16 -1.2246467991473532e-16 -1.1102230246251565e-16 1 1.1499999999999999
2 6.5 35.999999999999993 138 0 1 1.1102230246251565e-16 -1 1.3596310734468911e-32 -1.2246467991473532e-16 -1.2246467991473532e-16 -1.1102230246251565e-16 1 1.1499999999999999
1 3.5000000000000018 36 169.80000000000001 -0 1 0 
1 3.5 39 132.5 -0 1.1102230246251565e-16 -1 
1 3.5 36 148.42832680730712 0 1 1.1102230246251565e-16 
1 -3.6999999999999971 36 177 -0 1 0 
1 -4.3000000000000025 36 177 -0 1 0 
1 -6.4999999999999991 36 176.65565460040105 -0 1 0 
1 22.699999999999999 -9 -6.5 -0 1 0 
1 -11.699999999999999 -9 -6.5 1 0 -0 
1 -6.5 20.75 161 -1.1102230246251565e-16 -1 1.1102230246251565e-16 
1 -6.4999999999999982 47.799999999999997 160 0 1.1102230246251565e-16 1 
1 -6.5 20.75 175 -1.1102230246251565e-16 -1 1.1102230246251565e-16 
1 -6.5 20.75 175 -1.1102230246251565e-16 -1 1.1102230246251565e-16 
1 -6.5 23.199999999999999 160 0 1.1102230246251565e-16 1 
1 -6.5 20.75 161 -1.1102230246251565e-16 -1 1.1102230246251565e-16 
1 -11.699999999999999 -9 -6.5 1 0 -0 
1 -11.699999999999999 -9 -6.5 -0 1 0 
1 -11.699999999999999 9 -6.5 1 0 -0 
2 -6.5 21.5 168 1 -1.1102230246251565e-16 1.2325951644078309e-32 1.1102230246251565e-16 1 -1.1102230246251565e-16 0 1.1102230246251565e-16 1 1.1499999999999999
2 -6.4999999999999964 49.5 168 1 -1.1102230246251565e-16 1.2325951644078309e-32 1.1102230246251565e-16 1 -1.1102230246251565e-16 0 1.1102230246251565e-16 1 1.1499999999999999
1 17.800000000000001 7 -23.5 0 0 1 
1 -6.7999999999999998 7 0.5 1 0 -0 
1 -6.7999999999999998 7 -23.5 0 0 1 
1 -11 20.750000000000004 175 -1.1102230246251565e-16 -1 1.1102230246251565e-16 
1 -6.7999999999999998 -7 0.5 1 0 -0 
1 17.800000000000001 -7 -23.5 0 0 1 
1 -6.7999999999999998 -7 -23.5 0 0 1 
1 -11 20.75 161 -1.1102230246251565e-16 -1 1.1102230246251565e-16 
1 -11.5 29.600000000000005 161 0 -1 1.1102230246251565e-16 
1 -11 20.75 161 -1.1102230246251565e-16 -1 1.1102230246251565e-16 
1 -11.699999999999999 -9 -11 1 0 -0 
1 22.699999999999999 -9 -11 0 0 1 
1 22.699999999999999 -9 -11 -0 1 0 
1 -11 47.799999999999997 160 0 1.1102230246251565e-16 1 
1 -11 23.200000000000003 160 0 1.1102230246251565e-16 1 
1 -11.699999999999999 -9 -11 1 0 -0 
1 -11.699999999999999 -9 -11 -0 1 0 
1 -11.699999999999999 9 -11 1 0 -0 
2 -11 21.5 168 1 -1.1102230246251565e-16 1.2325951644078309e-32 1.1102230246251565e-16 1 -1.1102230246251565e-16 0 1.1102230246251565e-16 1 1.1499999999999999
2 -10.999999999999996 49.5 168 1 -1.1102230246251565e-16 1.2325951644078309e-32 1.1102230246251565e-16 1 -1.1102230246251565e-16 0 1.1102230246251565e-16 1 1.1499999999999999
1 7.6500000000000004 -2.8166876380389135e-16 3 0 0 1 
1 1.1499999999999999 -6.5 3 0 0 1 
1 3.2000000000000002 -7.8377395145430609e-16 3 0 0 1 
1 1.1499999999999999 6.5 3 0 0 1 
2 0 0 9 0 0 1 1 0 -0 -0 1 0 11
2 6.5 39 138 0 1 1.1102230246251565e-16 -1 1.3596310734468911e-32 -1.2246467991473532e-16 -1.2246467991473532e-16 -1.1102230246251565e-16 1 1.1499999999999999
1 -11.699999999999999 -9 -11 0 0 1 
1 -5.3499999999999996 -2.8166876380389116e-16 3 0 0 1 
1 22.699999999999999 9 -11 0 0 1 
1 -11.699999999999999 9 -11 0 0 1 
1 -7.3499999999999996 -2.8166876380389116e-16 -19 0 0 1 
1 20.649999999999999 -2.8166876380389037e-16 -19 0 0 1 
1 -6 -6.2000000000000002 -22.5 0 0 1 
1 -6 -6.2000000000000002 -6.5 0 -1 0 
1 -6 6.2000000000000002 -22.5 0 0 1 
1 -6 -6.2000000000000002 -22.5 -0 1 0 
1 -10.699999999999999 6.2000000000000002 -6.5 1 0 -0 
1 -10.699999999999999 -6.2000000000000002 -6.5 1 0 -0 
1 -10.699999999999999 -6.2000000000000002 -6.5 -0 1 0 
1 -6 6.2000000000000002 -22.5 1 0 -0 
1 17 -6.2000000000000002 -22.5 -0 1 0 
1 -6 -6.2000000000000002 -22.5 1 0 -0 
1 17 -6.2000000000000002 -22.5 0 0 1 
1 17 -6.2000000000000002 -6.5 0 -1 0 
1 17 6.2000000000000002 -22.5 0 0 1 
1 -10.699999999999999 -6.2000000000000002 -6.5 0 0 1 
1 -10.699999999999999 -6.2000000000000002 -4 -0 1 0 
1 -10.699999999999999 6.2000000000000002 -6.5 0 0 1 
1 -10.699999999999999 6.2000000000000002 -6.5 1 0 -0 
1 21.699999999999999 -6.2000000000000002 -6.5 -0 1 0 
1 -10.699999999999999 -6.2000000000000002 -6.5 1 0 -0 
1 -10.699999999999999 6.2000000000000002 -4 1 0 -0 
1 -6 -6.2000000000000002 -4 0 -1 0 
1 -10.699999999999999 -6.2000000000000002 -4 1 0 -0 
1 21.699999999999999 -6.2000000000000002 -6.5 0 0 1 
1 21.699999999999999 -6.2000000000000002 -4 -0 1 0 
1 21.699999999999999 6.2000000000000002 -6.5 0 0 1 
1 -10.699999999999999 6.2000000000000002 -4 1 0 -0 
1 -10.699999999999999 -6.2000000000000002 -4 1 0 -0 
1 17 -6.2000000000000002 -4 0 -1 0 
1 17 -6.2000000000000002 -22.5 0 0 1 
1 17 -6.2000000000000002 0 -0 1 0 
1 17 6.2000000000000002 -22.5 0 0 1 
1 -6 -6.2000000000000002 0 -0 1 0 
1 -6 6.2000000000000002 0 1 0 -0 
1 -6 -6.2000000000000002 0 1 0 -0 
2 0 0 0 0 0 1 1 0 -0 -0 1 0 5.9000000000000004
1 -6 -6.2000000000000002 -22.5 0 0 1 
1 -6 6.2000000000000002 -22.5 0 0 1 
2 0 0 4 0 0 1 1 0 -0 -0 1 0 5.9000000000000004
1 5.9000000000000004 -1.4450832229938768e-15 0 0 0 1 
2 0 0 4 0 0 1 1 0 -0 -0 1 0 9
2 0 0 6 0 0 1 1 0 -0 -0 1 0 9
1 9 -2.2043642384652358e-15 4 0 0 1 
Polygon3D 0
PolygonOnTriangulations 0
Surfaces 49
1 -11.5 36 127 0 0 1 1 0 -0 -0 1 0 
1 -11.5 40.5 127 -0 1 0 0 0 1 1 0 -0 
2 -4.3000000000000025 36 134.19999999999999 -0 1 0 -1 -0 0 -0 -0 -1 7.1999999999999993
2 -3.6999999999999975 36 134.19999999999999 -0 1 0 1 0 -0 -0 0 -1 7.1999999999999993
1 -3.7126478627599186 35.999999999999993 153.39727616251798 -0 -1 -0 0 0 -1 1 -0 0 
1 3.5 36 127 1 0 -0 0 0 1 0 -1 0 
2 -3.6999999999999975 36 169.80000000000001 -0 1 0 1 0 -0 0 -0 1 7.1999999999999993
1 -11.5 36 177 0 0 1 1 0 -0 -0 1 0 
2 -4.3000000000000025 36 169.80000000000001 -0 1 0 -1 -0 0 0 0 1 7.1999999999999993
1 -11.699999999999999 -9 -6.5 0 0 1 1 0 -0 -0 1 0 
1 -6.7999999999999998 7 -23.5 -0 1 0 0 0 1 1 0 -0 
1 -6.7999999999999998 -7 0.5 0 0 1 1 0 -0 -0 1 0 
1 -6.7999999999999998 -7 -23.5 -0 1 0 0 0 1 1 0 -0 
1 -11.699999999999999 -9 -11 -0 1 0 0 0 1 1 0 -0 
1 -11.699999999999999 -9 -11 0 0 1 1 0 -0 -0 1 0 
1 -11.5 36 127 1 0 -0 0 0 1 0 -1 0 
2 6.5 0 3 0 0 1 1 0 -0 -0 1 0 1.1499999999999999
2 0 -6.5 3 0 0 1 1 0 -0 -0 1 0 1.1499999999999999
2 0 0 3 0 0 1 1 0 -0 -0 1 0 3.2000000000000002
2 0 6.5 3 0 0 1 1 0 -0 -0 1 0 1.1499999999999999
2 0 0 6 0 0 1 1 0 -0 -0 1 0 11
1 0 0 9 0 0 1 1 0 -0 -0 1 0 
1 -11.699999999999999 -9 -11 -0 1 0 0 0 1 1 0 -0 
2 -6.5 0 3 0 0 1 1 0 -0 -0 1 0 1.1499999999999999
1 22.699999999999999 -9 -11 1 0 -0 0 0 1 0 -1 0 
1 17.800000000000001 -7 -23.5 1 0 -0 0 0 1 0 -1 0 
1 -6.7999999999999998 -7 -23.5 1 0 -0 0 0 1 0 -1 0 
1 -11.699999999999999 -9 -11 1 0 -0 0 0 1 0 -1 0 
1 -11.699999999999999 9 -11 -0 1 0 0 0 1 1 0 -0 
2 -8.5 0 -19 0 0 1 1 0 -0 -0 1 0 1.1499999999999999
2 19.5 0 -19 0 0 1 1 0 -0 -0 1 0 1.1499999999999999
1 -6 -6.2000000000000002 -22.5 1 0 -0 0 0 1 0 -1 0 
1 5.5 -6.1999999999999993 -10.222677595628413 -0 -1 -0 0 0 -1 1 -0 0 
1 -10.699999999999999 -6.2000000000000002 -6.5 0 0 1 1 0 -0 -0 1 0 
1 5.5000000000000018 6.2000000000000028 -10.222677595628422 0 1 0 0 -0 1 1 0 -0 
1 -6 -6.2000000000000002 -22.5 0 0 1 1 0 -0 -0 1 0 
1 -10.699999999999999 -6.2000000000000002 -6.5 1 0 -0 0 0 1 0 -1 0 
1 17 -6.2000000000000002 -22.5 1 0 -0 0 0 1 0 -1 0 
1 -10.699999999999999 -6.2000000000000002 -6.5 0 0 1 1 0 -0 -0 1 0 
1 -10.699999999999999 -6.2000000000000002 -4 0 0 1 1 0 -0 -0 1 0 
1 21.699999999999999 -6.2000000000000002 -6.5 1 0 -0 0 0 1 0 -1 0 
1 -6 -6.2000000000000002 -22.5 1 0 -0 0 0 1 0 -1 0 
1 -10.699999999999999 -6.2000000000000002 -4 0 0 1 1 0 -0 -0 1 0 
1 17 -6.2000000000000002 -22.5 1 0 -0 0 0 1 0 -1 0 
1 -6 -6.2000000000000002 0 0 0 1 1 0 -0 -0 1 0 
2 0 0 0 0 0 1 1 0 -0 -0 1 0 5.9000000000000004
1 0 0 4 0 0 1 1 0 -0 -0 1 0 
2 0 0 4 0 0 1 1 0 -0 -0 1 0 9
1 0 0 6 0 0 1 1 0 -0 -0 1 0 
Triangulations 0

TShapes 354
Ve
1e-07
-4.3 40.5 127
0 0

0101101
*
Ve
1e-07
-3.7 40.5 127
0 0

0101101
*
Ed
 1e-07 1 1 0
1  1 0 7.2 7.8
2  1 1 0 7.2 7.8
2  2 2 0 7.2 7.8
0

0101000
+354 0 -353 0 *
Ve
1.5e-07
-4.3 36 127
0 0

0101101
*
Ed
 1e-07 1 1 0
1  2 0 0 4.5
2  3 1 0 0 4.5
2  4 3 0 0 4.5
4 G1 1 0 3 0
0

0101000
+351 0 -354 0 *
Ve
1.5e-07
-3.7 36 127
0 0

0101101
*
Ed
 1e-07 1 1 0
1  3 0 0 4.5
2  5 1 0 0 4.5
2  6 4 0 0 4.5
4 G1 1 0 4 0
0

0101000
+349 0 -353 0 *
Ed
 1.5e-07 1 1 0
1  4 0 7.2 7.8
2  7 1 0 7.2 7.8
2  8 5 0 7.2 7.8
0

0101000
+351 0 -349 0 *
Wi

0101100
-352 0 -350 0 +348 0 +347 0 *
Fa
0  1e-07 1 0

0101000
+346 0 *
Ve
1e-07
3.5 40.5 134.2
0 0

0101101
*
Ed
 1e-07 1 1 0
1  5 0 1.5707963267949 3.14159265358979
2  9 2 0 1.5707963267949 3.14159265358979
2  10 4 0 1.5707963267949 3.14159265358979
0

0101000
+344 0 -353 0 *
Ve
1e-07
3.5 40.5 169.8
0 0

0101101
*
Ed
 1e-07 1 1 0
1  6 0 7.19999999999999 42.8
2  11 2 0 7.19999999999999 42.8
2  12 6 0 7.19999999999999 42.8
0

0101000
+344 0 -342 0 *
Ve
1e-07
-3.7 40.5 177
0 0

0101101
*
Ed
 1e-07 1 1 0
1  7 0 4.71238898038469 6.28318530717959
2  13 2 0 4.71238898038469 6.28318530717959
2  14 7 0 4.71238898038469 6.28318530717959
0

0101000
+342 0 -340 0 *
Ve
1e-07
-4.3 40.5 177
0 0

0101101
*
Ed
 1e-07 1 1 0
1  8 0 7.2 7.8
2  15 2 0 7.2 7.8
2  16 8 0 7.2 7.8
0

0101000
+338 0 -340 0 *
Ve
1.50000001776357e-07
-6.5 40.5 176.655654600401
0 0

0101101
*
Ed
 1e-07 1 1 0
1  9 0 5.97266347251382 6.28318530717959
2  17 2 0 5.97266347251382 6.28318530717959
2  18 9 0 5.97266347251382 6.28318530717959
0

0101000
+336 0 -338 0 *
Ve
1.5e-07
-6.5 40.5 175
0 0

0101101
*
Ed
 1.5e-07 1 1 0
1  10 0 -33.655654600401 -32
2  19 2 0 -33.655654600401 -32
2  20 10 7 -33.655654600401 -32
0

0101000
+336 0 -334 0 *
Ve
1.50000001110223e-07
0.500000000000001 40.5 175
0 0

0101101
*
Ed
 1.5e-07 1 1 0
1  11 0 11 18
2  21 2 0 11 18
2  22 11 13 11 18
0

0101000
+334 0 -332 0 *
Ve
1.50000001110223e-07
0.500000000000001 40.5 161
0 0

0101101
*
Ed
 1.5e-07 1 1 0
1  12 0 -31 -17
2  23 2 0 -31 -17
2  24 12 13 -31 -17
0

0101000
+332 0 -330 0 *
Ve
1.5e-07
-6.5 40.5 161
0 0

0101101
*
Ed
 1.5e-07 1 1 0
1  13 0 11 18
2  25 2 0 11 18
2  26 13 13 11 18
0

0101000
+328 0 -330 0 *
Ve
1.50000000888178e-07
-6.5 40.5 159
0 0

0101101
*
Ed
 1.5e-07 1 1 0
1  14 0 -18 -16
2  27 2 0 -18 -16
2  28 10 7 -18 -16
0

0101000
+328 0 -326 0 *
Ve
1.5e-07
-11 40.5 159
0 0

0101101
*
Ed
 1.5e-07 1 1 0
1  15 0 0.250000000000001 4.75
2  29 2 0 0.250000000000001 4.75
2  30 14 7 0.250000000000001 4.75
0

0101000
+324 0 -326 0 *
Ve
1.50000001776357e-07
-11 40.5 161
0 0

0101101
*
Ed
 1.5e-07 1 1 0
1  16 0 -18 -16
2  31 2 0 -18 -16
2  32 15 7 -18 -16
0

0101000
+322 0 -324 0 *
Ve
1.50000001776357e-07
-11.5 40.5 161
0 0

0101101
*
Ed
 1.5e-07 1 1 0
1  17 0 6 6.5
2  33 2 0 6 6.5
2  34 13 13 6 6.5
0

0101000
+320 0 -322 0 *
Ve
1e-07
-11.5 40.5 134.2
0 0

0101101
*
Ed
 1e-07 1 1 0
1  18 0 7.19999999999999 34
2  35 2 0 7.19999999999999 34
2  36 16 0 7.19999999999999 34
0

0101000
+318 0 -320 0 *
Ed
 1e-07 1 1 0
1  19 0 1.5707963267949 3.14159265358979
2  37 2 0 1.5707963267949 3.14159265358979
2  38 3 0 1.5707963267949 3.14159265358979
0

0101000
+318 0 -354 0 *
Wi

0101100
-352 0 +343 0 -341 0 -339 0 +337 0 +335 0 -333 0 -331 0 -329 0 +327 0 
-325 0 +323 0 +321 0 +319 0 +317 0 -316 0 *
Ve
1e-07
-7.65 40.5 138
0 0

0101101
*
Ed
 1e-07 1 1 0
1  20 0 0 6.28318530717959
2  39 2 0 0 6.28318530717959
2  40 17 19 0 6.28318530717959
0

0101100
+314 0 -314 0 *
Wi

0101100
-313 0 *
Ve
1e-07
-1.15 40.5 131.5
0 0

0101101
*
Ed
 1e-07 1 1 0
1  21 0 0 6.28318530717959
2  41 2 0 0 6.28318530717959
2  42 18 25 0 6.28318530717959
0

0101100
+311 0 -311 0 *
Wi

0101100
-310 0 *
Ve
1e-07
-3.2 40.5 138
0 0

0101101
*
Ed
 1e-07 1 1 0
1  22 0 0 6.28318530717959
2  43 2 0 0 6.28318530717959
2  44 19 31 0 6.28318530717959
0

0101100
+308 0 -308 0 *
Wi

0101100
-307 0 *
Ve
1e-07
-1.15 40.5 144.5
0 0

0101101
*
Ed
 1e-07 1 1 0
1  23 0 0 6.28318530717959
2  45 2 0 0 6.28318530717959
2  46 20 37 0 6.28318530717959
0

0101100
+305 0 -305 0 *
Wi

0101100
-304 0 *
Fa
0  1e-07 2 0

0101000
+315 0 +312 0 +309 0 +306 0 +303 0 *
Ve
1.5e-07
-11.5 36 134.2
0 0

0101101
*
Ed
 1.5e-07 1 1 0
1  24 0 1.5707963267949 3.14159265358979
2  47 3 0 1.5707963267949 3.14159265358979
2  48 5 0 1.5707963267949 3.14159265358979
0

0101000
+301 0 -351 0 *
Ed
 1e-07 1 1 0
1  25 0 -0 4.5
2  49 3 0 -0 4.5
2  50 16 0 -0 4.5
4 G1 3 0 16 0
0

0101000
+301 0 -318 0 *
Wi

0101100
+300 0 -299 0 +350 0 -316 0 *
Fa
0  1e-07 3 0

0101000
+298 0 *
Ve
1.5e-07
-2.04741615354473 36 127.19222099161
0 0

0101101
*
Ve
1.00001106932599e-07
-2.04741615354395 39 127.192220991609
0 0

0101101
*
Ed
 1e-07 1 1 0
1  26 0 1.57772181044202e-30 3
2  51 4 0 1.57772181044202e-30 3
2  52 21 43 1.57772181044202e-30 3
0

0101000
+296 0 -295 0 *
Ve
1.50000001776357e-07
3.5 39 134.2
0 0

0101101
*
Ed
 1e-07 1 1 0
1  27 0 0 1.33920615217914
2  53 4 0 0 1.33920615217914
2  54 22 43 0 1.33920615217914
0

0101000
+293 0 -295 0 *
Ed
 1e-07 1 1 0
1  28 0 3 4.5
2  55 4 0 3 4.5
2  56 6 0 3 4.5
4 G1 4 0 6 0
0

0101000
+293 0 -344 0 *
Ed
 1.5e-07 1 1 0
1  29 0 2.91000247897414 3.14159265358979
2  57 4 0 2.91000247897414 3.14159265358979
2  58 5 0 2.91000247897414 3.14159265358979
0

0101000
+296 0 -349 0 *
Wi

0101100
-294 0 +292 0 -291 0 -343 0 +348 0 +290 0 *
Fa
0  1e-07 4 0

0101000
+289 0 *
Ve
2.00000007105427e-07
-11.5 36 161
0 0

0101101
*
Ed
 1.5e-07 1 1 0
1  30 0 7.19999999999999 34
2  59 5 0 7.19999999999999 34
2  60 16 0 7.19999999999999 34
0

0101000
+301 0 -287 0 *
Ve
2.00000007105427e-07
-11 36 161
0 0

0101101
*
Ed
 2e-07 1 1 0
1  31 0 -2.60632393137996 -2.10632393137996
2  61 5 0 -2.60632393137996 -2.10632393137996
2  62 13 13 -2.60632393137996 -2.10632393137996
0

0101000
+285 0 -287 0 *
Ve
1.5e-07
-11 36 159
0 0

0101101
*
Ed
 1.5e-07 1 1 0
1  32 0 -18 -16
2  63 5 0 -18 -16
2  64 15 7 -18 -16
0

0101000
+285 0 -283 0 *
Ve
1.50000000888178e-07
-6.5 36 159
0 0

0101101
*
Ed
 1.5e-07 1 1 0
1  33 0 0.25 4.75
2  65 5 0 0.25 4.75
2  66 23 7 0.25 4.75
0

0101000
+283 0 -281 0 *
Ve
2.00000007105427e-07
-6.5 36 161
0 0

0101101
*
Ed
 1.5e-07 1 1 0
1  34 0 -18 -16
2  67 5 0 -18 -16
2  68 10 7 -18 -16
0

0101000
+279 0 -281 0 *
Ve
2.00000001110223e-07
0.500000000000001 36 161
0 0

0101101
*
Ed
 2e-07 1 1 0
1  35 0 -14.10632393138 -7.10632393137996
2  69 5 0 -14.10632393138 -7.10632393137996
2  70 13 13 -14.10632393138 -7.10632393137996
0

0101000
+277 0 -279 0 *
Ve
2.00000001110223e-07
0.500000000000001 36 175
0 0

0101101
*
Ed
 2e-07 1 1 0
1  36 0 3.80136191874101 17.801361918741
2  71 5 0 3.80136191874101 17.801361918741
2  72 12 13 3.80136191874101 17.801361918741
0

0101000
+277 0 -275 0 *
Ve
2.00000007105427e-07
-6.5 36 175
0 0

0101101
*
Ed
 2e-07 1 1 0
1  37 0 -14.10632393138 -7.10632393137996
2  73 5 0 -14.10632393138 -7.10632393137996
2  74 11 13 -14.10632393138 -7.10632393137996
0

0101000
+275 0 -273 0 *
Ve
1.50000000888178e-07
-6.5 36 176.655654600401
0 0

0101101
*
Ed
 1.5e-07 1 1 0
1  38 0 -33.655654600401 -32
2  75 5 0 -33.655654600401 -32
2  76 10 7 -33.655654600401 -32
0

0101000
+271 0 -273 0 *
Ve
1.5e-07
-4.3 36 177
0 0

0101101
*
Ed
 1.5e-07 1 1 0
1  39 0 5.97266347251382 6.28318530717959
2  77 5 0 5.97266347251382 6.28318530717959
2  78 9 0 5.97266347251382 6.28318530717959
0

0101000
+271 0 -269 0 *
Ve
1.5e-07
-3.7 36 177
0 0

0101101
*
Ed
 1.5e-07 1 1 0
1  40 0 7.2 7.8
2  79 5 0 7.2 7.8
2  80 8 0 7.2 7.8
0

0101000
+269 0 -267 0 *
Ve
1.5e-07
3.5 36 169.8
0 0

0101101
*
Ed
 1.5e-07 1 1 0
1  41 0 4.71238898038469 6.28318530717959
2  81 5 0 4.71238898038469 6.28318530717959
2  82 7 0 4.71238898038469 6.28318530717959
0

0101000
+265 0 -267 0 *
Ve
1.5e-07
3.49999999999987 36 148.428326807307
0 0

0101101
*
Ed
 1.5e-07 1 1 0
1  42 0 21.4283268073072 42.8
2  83 5 0 21.4283268073072 42.8
2  84 6 0 21.4283268073072 42.8
0

0101000
+263 0 -265 0 *
Ed
 1.5e-07 1 1 0
1  43 0 1.89460734206843 4.89960953436543
2  85 5 44 1.89460734206843 4.89960953436543
2  86 21 0 1.89460734206843 4.89960953436543
0

0101000
+263 44 -296 44 *
Wi

0101100
+300 0 -286 0 +284 0 -282 0 -280 0 +278 0 +276 0 -274 0 -272 0 +270 0 
-268 0 -266 0 +264 0 +262 0 -261 43 -290 0 +347 0 *
Ve
1.5e-07
-1.15 36 144.5
0 0

0101101
*
Ed
 1.5e-07 1 1 0
1  44 0 0 6.28318530717959
2  87 5 0 0 6.28318530717959
2  88 20 37 0 6.28318530717959
0

0101100
+259 0 -259 0 *
Wi

0101100
+258 0 *
Ve
1.5e-07
-7.65 36 138
0 0

0101101
*
Ed
 1.5e-07 1 1 0
1  45 0 0 6.28318530717959
2  89 5 0 0 6.28318530717959
2  90 17 19 0 6.28318530717959
0

0101100
+256 0 -256 0 *
Wi

0101100
+255 0 *
Ve
1.5e-07
-3.2 36 138
0 0

0101101
*
Ed
 1.5e-07 1 1 0
1  46 0 0 6.28318530717959
2  91 5 0 0 6.28318530717959
2  92 19 31 0 6.28318530717959
0

0101100
+253 0 -253 0 *
Wi

0101100
+252 0 *
Ve
1.5e-07
-1.15 36 131.5
0 0

0101101
*
Ed
 1.5e-07 1 1 0
1  47 0 0 6.28318530717959
2  93 5 0 0 6.28318530717959
2  94 18 25 0 6.28318530717959
0

0101100
+250 0 -250 0 *
Wi

0101100
+249 0 *
Ve
1.5e-07
5.35 36 138
0 0

0101101
*
Ed
 1.5e-07 1 1 0
1  48 0 0 6.28318530717959
2  95 5 0 0 6.28318530717959
2  96 24 50 0 6.28318530717959
0

0101100
+247 0 -247 0 *
Wi

0101100
+246 0 *
Fa
0  1.5e-07 5 0

0101000
+260 0 +257 0 +254 0 +251 0 +248 0 +245 0 *
Ed
 1e-07 1 1 0
1  49 0 -0 4.5
2  97 6 0 -0 4.5
2  98 7 0 -0 4.5
4 G1 6 0 7 0
0

0101000
+265 0 -342 0 *
Ve
1.5e-07
3.5 39 148.428326807307
0 0

0101101
*
Ed
 1.5e-07 1 1 0
1  50 0 -15.9283268073071 -1.69999999999999
2  99 6 0 -15.9283268073071 -1.69999999999999
2  100 22 43 -15.9283268073071 -1.69999999999999
0

0101000
+242 0 -293 0 *
Ed
 1e-07 1 1 0
1  51 0 9.46633086265214e-30 3
2  101 6 0 9.46633086265214e-30 3
2  102 21 43 9.46633086265214e-30 3
0

0101000
+263 0 -242 0 *
Wi

0101100
-262 0 -243 0 +341 0 +291 0 +241 0 +240 0 *
Fa
0  1e-07 6 0

0101000
+239 0 *
Ed
 1e-07 1 1 0
1  52 0 0 4.5
2  103 7 0 0 4.5
2  104 8 0 0 4.5
4 G1 7 0 8 0
0

0101000
+267 0 -340 0 *
Wi

0101100
+264 0 -243 0 +237 0 -339 0 *
Fa
0  1e-07 7 0

0101000
+236 0 *
Ed
 1e-07 1 1 0
1  53 0 0 4.5
2  105 8 0 0 4.5
2  106 9 0 0 4.5
4 G1 8 0 9 0
0

0101000
+269 0 -338 0 *
Wi

0101100
-337 0 -234 0 +237 0 +266 0 *
Fa
0  1e-07 8 0

0101000
+233 0 *
Ed
 1e-07 1 1 0
1  54 0 0 4.5
2  107 9 0 0 4.5
2  108 10 7 0 4.5
0

0101000
+271 0 -336 0 *
Wi

0101100
-231 0 -335 0 +234 0 +268 0 *
Fa
0  1e-07 9 0

0101000
+230 0 *
Ve
1e-07
-6.5 52.7 177
0 0

0101101
*
Ve
1e-07
-6.5 52.7 159
0 0

0101101
*
Ed
 1e-07 1 1 0
1  55 0 0 18
2  109 10 0 0 18
2  110 25 0 0 18
0

0101000
-228 51 +227 51 *
Ed
 1e-07 1 1 0
1  56 0 22.2 34.4
2  111 10 0 22.2 34.4
2  112 14 0 22.2 34.4
0

0101000
+326 51 -227 51 *
Ve
1.50000007324107e-07
-6.5 47.8 161
0 0

0101101
*
Ed
 1.5e-07 1 1 0
1  57 0 -27.05 -19.75
2  113 10 7 -27.05 -19.75
2  114 13 13 -27.05 -19.75
0

0101000
+224 0 -328 0 *
Ve
1.50000007324107e-07
-6.5 47.8 175
0 0

0101101
*
Ed
 1.5e-07 1 1 0
1  58 0 1 15
2  115 10 7 1 15
2  116 26 13 1 15
0

0101000
+224 0 -222 0 *
Ed
 1.5e-07 1 1 0
1  59 0 -27.05 -19.75
2  117 10 7 -27.05 -19.75
2  118 11 13 -27.05 -19.75
0

0101000
+222 0 -334 0 *
Ve
1.50000003552714e-07
-6.5 23.2 175
0 0

0101101
*
Ed
 1.5e-07 1 1 0
1  60 0 -15.25 -2.45
2  119 10 7 -15.25 -2.45
2  120 11 13 -15.25 -2.45
0

0101000
+273 0 -219 0 *
Ve
1.50000003552714e-07
-6.5 23.2 161
0 0

0101101
*
Ed
 1.5e-07 1 1 0
1  61 0 1 15
2  121 10 7 1 15
2  122 27 13 1 15
0

0101000
+217 0 -219 0 *
Ed
 1.5e-07 1 1 0
1  62 0 -15.25 -2.45
2  123 10 7 -15.25 -2.45
2  124 13 13 -15.25 -2.45
0

0101000
+279 0 -217 0 *
Ve
1e-07
-6.5 18.3 159
0 0

0101101
*
Ed
 1e-07 1 1 0
1  63 0 0 17.7
2  125 10 0 0 17.7
2  126 23 0 0 17.7
0

0101000
+214 51 -281 51 *
Ve
1e-07
-6.5 18.3 177
0 0

0101101
*
Ed
 1e-07 1 1 0
1  64 0 0 18
2  127 10 0 0 18
2  128 28 0 0 18
0

0101000
-212 51 +214 51 *
Ed
 1e-07 1 1 0
1  65 0 0 34.4
2  129 10 0 0 34.4
2  130 29 0 0 34.4
0

0101000
-228 51 +212 51 *
Wi

0101100
+226 7 +225 7 +325 0 +223 0 -221 0 -220 0 +333 0 +231 0 -270 0 -218 0 
+216 0 +215 0 -278 0 +213 7 -211 7 -210 7 *
Ve
1.00000003552714e-07
-6.5 22.65 168
0 0

0101101
*
Ed
 1e-07 1 1 0
1  66 0 0 6.28318530717959
2  131 10 7 0 6.28318530717959
2  132 30 57 0 6.28318530717959
0

0101100
+208 0 -208 0 *
Wi

0101100
-207 0 *
Ve
1.00000007160723e-07
-6.5 50.65 168
0 0

0101101
*
Ed
 1e-07 1 1 0
1  67 0 0 6.28318530717959
2  133 10 7 0 6.28318530717959
2  134 31 63 0 6.28318530717959
0

0101100
+205 0 -205 0 *
Wi

0101100
-204 0 *
Fa
0  1e-07 10 7

0101000
+209 0 +206 0 +203 0 *
Ve
1.50000007105427e-07
-11 47.8 175
0 0

0101101
*
Ed
 1e-07 1 1 0
1  68 0 12.5 17
2  135 11 0 12.5 17
2  136 26 0 12.5 17
0

0101000
+201 64 -222 64 *
Ed
 1e-07 1 1 0
1  69 0 12.8 17.3
2  137 11 0 12.8 17.3
2  138 12 0 12.8 17.3
0

0101000
+275 64 -332 64 *
Ve
1.50000001776357e-07
-11 23.2 175
0 0

0101101
*
Ed
 1e-07 1 1 0
1  70 0 12.5 17
2  139 11 0 12.5 17
2  140 27 0 12.5 17
0

0101000
+198 64 -219 64 *
Ed
 1.5e-07 1 1 0
1  71 0 -27.05 -2.45
2  141 11 13 -27.05 -2.45
2  142 15 7 -27.05 -2.45
0

0101000
+201 0 -198 0 *
Wi

0101100
-200 13 -220 0 -331 0 +199 13 -272 0 -218 0 +197 13 +196 0 *
Fa
0  1e-07 11 13

0101000
+195 0 *
Ed
 1e-07 1 1 0
1  72 0 12.8 17.3
2  143 12 0 12.8 17.3
2  144 13 0 12.8 17.3
0

0101000
+277 64 -330 64 *
Wi

0101100
-199 13 -329 0 +193 13 -274 0 *
Fa
0  1e-07 12 13

0101000
+192 0 *
Ve
1.50000007105427e-07
-11 47.8 161
0 0

0101101
*
Ed
 1e-07 1 1 0
1  73 0 12.5 17
2  145 13 0 12.5 17
2  146 26 0 12.5 17
0

0101000
+190 64 -224 64 *
Ve
1.50000001776357e-07
-11 23.2 161
0 0

0101101
*
Ed
 1e-07 1 1 0
1  74 0 12.5 17
2  147 13 0 12.5 17
2  148 27 0 12.5 17
0

0101000
+188 64 -217 64 *
Ed
 1.5e-07 1 1 0
1  75 0 -15.25 -2.45
2  149 13 13 -15.25 -2.45
2  150 15 7 -15.25 -2.45
0

0101000
+285 0 -188 0 *
Ed
 1.5e-07 1 1 0
1  76 0 -10.9 -6.4
2  151 13 13 -10.9 -6.4
2  152 16 0 -10.9 -6.4
0

0101000
+320 0 -287 0 *
Ed
 1.5e-07 1 1 0
1  77 0 -27.05 -19.75
2  153 13 13 -27.05 -19.75
2  154 15 7 -27.05 -19.75
0

0101000
+190 0 -322 0 *
Wi

0101100
-189 13 -223 0 -327 0 +193 13 -276 0 -215 0 +187 13 +186 0 -284 0 +185 0 
-319 0 +184 0 *
Fa
0  1e-07 13 13

0101000
+183 0 *
Ve
1e-07
-11 52.7 159
0 0

0101101
*
Ed
 1e-07 1 1 0
1  78 0 22.2 34.4
2  155 14 0 22.2 34.4
2  156 15 0 22.2 34.4
0

0101000
+324 51 -181 51 *
Ed
 1e-07 1 1 0
1  79 0 0 4.5
2  157 14 0 0 4.5
2  158 25 0 0 4.5
0

0101000
-227 51 +181 51 *
Wi

0101100
-180 7 -179 7 +225 7 +323 0 *
Fa
0  1e-07 14 7

0101000
+178 0 *
Ve
1e-07
-11 52.7 177
0 0

0101101
*
Ed
 1e-07 1 1 0
1  80 0 0 18
2  159 15 0 0 18
2  160 25 0 0 18
0

0101000
-176 51 +181 51 *
Ed
 1.5e-07 1 1 0
1  81 0 1 15
2  161 15 7 1 15
2  162 26 13 1 15
0

0101000
+190 0 -201 0 *
Ed
 1.5e-07 1 1 0
1  82 0 1 15
2  163 15 7 1 15
2  164 27 13 1 15
0

0101000
+188 0 -198 0 *
Ve
1e-07
-11 18.3 159
0 0

0101101
*
Ed
 1e-07 1 1 0
1  83 0 0 17.7
2  165 15 0 0 17.7
2  166 23 0 0 17.7
0

0101000
+172 51 -283 51 *
Ve
1e-07
-11 18.3 177
0 0

0101101
*
Ed
 1e-07 1 1 0
1  84 0 0 18
2  167 15 0 0 18
2  168 28 0 0 18
0

0101000
-170 51 +172 51 *
Ed
 1e-07 1 1 0
1  85 0 0 34.4
2  169 15 0 0 34.4
2  170 29 0 0 34.4
0

0101000
-176 51 +170 51 *
Wi

0101100
+175 7 +180 7 +321 0 +184 0 -174 0 -196 0 +173 0 +186 0 -282 0 +171 7 
-169 7 -168 7 *
Ve
1.00000003552714e-07
-11 22.65 168
0 0

0101101
*
Ed
 1e-07 1 1 0
1  86 0 0 6.28318530717959
2  171 15 7 0 6.28318530717959
2  172 30 57 0 6.28318530717959
0

0101100
+166 0 -166 0 *
Wi

0101100
-165 0 *
Ve
1.00000007324107e-07
-11 50.65 168
0 0

0101101
*
Ed
 1e-07 1 1 0
1  87 0 0 6.28318530717959
2  173 15 7 0 6.28318530717959
2  174 31 63 0 6.28318530717959
0

0101100
+163 0 -163 0 *
Wi

0101100
-162 0 *
Fa
0  1e-07 15 7

0101000
+167 0 +164 0 +161 0 *
Wi

0101100
-286 0 +185 0 +317 0 +299 0 *
Fa
0  1e-07 16 0

0101000
+159 0 *
Ed
 1e-07 1 1 0
1  88 0 2.99999999999999 7.5
3  175 176CN 17 0 2.99999999999999 7.5
0

0101000
+256 65 -314 65 *
Wi

0101100
-313 0 +157 19 +255 0 -157 19 *
Fa
0  1e-07 17 19

0101000
+156 0 *
Ed
 1e-07 1 1 0
1  89 0 2.99999999999999 7.5
3  177 178CN 18 0 2.99999999999999 7.5
0

0101000
+250 66 -311 66 *
Wi

0101100
-310 0 +154 25 +249 0 -154 25 *
Fa
0  1e-07 18 25

0101000
+153 0 *
Ed
 1e-07 1 1 0
1  90 0 2.99999999999999 7.5
3  179 180CN 19 0 2.99999999999999 7.5
0

0101000
+253 67 -308 67 *
Wi

0101100
-307 0 +151 31 +252 0 -151 31 *
Fa
0  1e-07 19 31

0101000
+150 0 *
Ed
 1e-07 1 1 0
1  91 0 2.99999999999999 7.5
3  181 182CN 20 0 2.99999999999999 7.5
0

0101000
+259 68 -305 68 *
Wi

0101100
-304 0 +148 37 +258 0 -148 37 *
Fa
0  1e-07 20 37

0101000
+147 0 *
Ed
 1e-07 1 1 0
1  92 0 1.89460734206845 4.89960953436535
2  183 21 0 1.89460734206845 4.89960953436535
2  184 22 0 1.89460734206845 4.89960953436535
0

0101000
+242 44 -295 44 *
Wi

0101100
-145 43 +294 0 +261 43 -240 0 *
Fa
0  1e-07 21 43

0101000
+144 0 *
Wi

0101100
-241 0 +145 43 -292 0 *
Ve
1e-07
5.35 39 138
0 0

0101101
*
Ed
 1e-07 1 1 0
1  93 0 0 6.28318530717959
2  185 22 43 0 6.28318530717959
2  186 24 50 0 6.28318530717959
0

0101100
+141 0 -141 0 *
Wi

0101100
-140 0 *
Fa
0  1e-07 22 43

0101000
+142 0 +139 0 *
Ed
 1e-07 1 1 0
1  94 0 0 4.5
2  187 23 0 0 4.5
2  188 28 0 0 4.5
0

0101000
-214 51 +172 51 *
Wi

0101100
-171 7 -280 0 +213 7 +137 7 *
Fa
0  1e-07 23 7

0101000
+136 0 *
Ed
 1e-07 1 1 0
1  95 0 2.99999999999999 6
3  189 190CN 24 0 2.99999999999999 6
0

0101000
+247 69 -141 69 *
Wi

0101100
-140 0 +134 50 +246 0 -134 50 *
Fa
0  1e-07 24 50

0101000
+133 0 *
Ed
 1e-07 1 1 0
1  96 0 0 4.5
2  191 25 0 0 4.5
2  192 29 0 0 4.5
0

0101000
-228 51 +176 51 *
Wi

0101100
-179 0 -226 0 +131 0 +175 0 *
Fa
0  1e-07 25 0

0111000
+130 0 *
Wi

0101100
-189 13 -221 0 +200 13 +174 0 *
Fa
0  1e-07 26 13

0101000
+128 0 *
Wi

0101100
-187 13 -216 0 +197 13 +173 0 *
Fa
0  1e-07 27 13

0101000
+126 0 *
Ed
 1e-07 1 1 0
1  97 0 0 4.5
2  193 28 0 0 4.5
2  194 29 0 0 4.5
0

0101000
-212 51 +170 51 *
Wi

0101100
-137 0 -211 0 +124 0 +169 0 *
Fa
0  1e-07 28 0

0111000
+123 0 *
Wi

0101100
-168 0 -131 0 +210 0 +124 0 *
Fa
0  1e-07 29 0

0111000
+121 0 *
Ed
 1e-07 1 1 0
1  98 0 8 12.5
3  195 196CN 30 0 8 12.5
0

0101000
+166 70 -208 70 *
Wi

0101100
-207 0 +119 57 +165 0 -119 57 *
Fa
0  1e-07 30 57

0101000
+118 0 *
Ed
 1e-07 1 1 0
1  99 0 8 12.5
3  197 198CN 31 0 8 12.5
0

0101000
+163 71 -205 71 *
Wi

0101100
-204 0 +116 63 +162 0 -116 63 *
Fa
0  1e-07 31 63

0101000
+115 0 *
Sh

0101100
-345 0 +302 0 -297 0 +288 0 +244 0 +238 0 -235 0 +232 0 +229 0 +202 0 
-194 0 -191 0 +182 0 -177 0 -160 0 -158 0 -155 0 -152 0 -149 0 -146 0 
+143 0 +138 0 -135 0 -132 0 +129 7 -127 0 +125 0 -122 7 +120 7 -117 0 
-114 0 *
So

0100000
+113 0 *
Ve
1e-07
-22.5 24 161.8
0 0

0101101
*
Ve
1.5e-07
-6.5 24 161.8
0 0

0101101
*
Ed
 1e-07 1 1 0
1  100 0 0 16
2  199 32 0 0 16
2  200 33 0 0 16
0

0101000
+111 78 -110 78 *
Ve
1.5e-07
-6.5 24 174.2
0 0

0101101
*
Ed
 1.5e-07 1 1 0
1  101 0 -12.4 0
2  201 32 0 -12.4 0
2  202 34 0 -12.4 0
0

0101000
+108 78 -110 78 *
Ve
1e-07
-22.5 24 174.2
0 0

0101101
*
Ed
 1e-07 1 1 0
1  102 0 0 16
2  203 32 0 0 16
2  204 35 0 0 16
0

0101000
+106 78 -108 78 *
Ed
 1e-07 1 1 0
1  103 0 0 12.4
2  205 32 0 0 12.4
2  206 36 0 0 12.4
0

0101000
-106 78 +111 78 *
Wi

0101100
-109 0 +107 0 +105 0 +104 0 *
Fa
0  1e-07 32 0

0101000
+103 0 *
Ve
1e-07
-6.5 19.3 174.2
0 0

0101101
*
Ed
 1e-07 1 1 0
1  104 0 0 4.7
2  207 34 0 0 4.7
2  208 35 0 0 4.7
0

0101000
+101 78 -108 78 *
Ve
1e-07
-6.5 19.3 161.8
0 0

0101101
*
Ed
 1e-07 1 1 0
1  105 0 0 4.7
2  209 34 0 0 4.7
2  210 33 0 0 4.7
0

0101000
+99 78 -110 78 *
Ed
 1e-07 1 1 0
1  106 0 0 12.4
2  211 34 0 0 12.4
2  212 37 0 0 12.4
0

0101000
-101 78 +99 78 *
Wi

0101100
-100 0 -107 0 +98 0 -97 0 *
Fa
0  1e-07 34 0

0101000
+96 0 *
Ve
1e-07
-22.5 47 174.2
0 0

0101101
*
Ed
 1e-07 1 1 0
1  107 0 0 23
2  213 36 0 0 23
2  214 35 0 0 23
0

0101000
-94 78 +106 78 *
Ve
1e-07
-22.5 47 161.8
0 0

0101101
*
Ed
 1e-07 1 1 0
1  108 0 0 12.4
2  215 36 0 0 12.4
2  216 38 0 0 12.4
0

0101000
-94 78 +92 78 *
Ed
 1e-07 1 1 0
1  109 0 0 23
2  217 36 0 0 23
2  218 33 0 0 23
0

0101000
-92 78 +111 78 *
Wi

0101100
-104 0 -93 0 +91 0 +90 0 *
Fa
0  1e-07 36 0

0111000
+89 0 *
Ve
1.5e-07
-6.5 47 161.8
0 0

0101101
*
Ed
 1e-07 1 1 0
1  110 0 0 16
2  219 38 0 0 16
2  220 33 0 0 16
0

0101000
+92 78 -87 78 *
Ve
1.5e-07
-6.5 47 174.2
0 0

0101101
*
Ed
 1.5e-07 1 1 0
1  111 0 -12.4 0
2  221 38 0 -12.4 0
2  222 39 0 -12.4 0
0

0101000
+85 78 -87 78 *
Ed
 1e-07 1 1 0
1  112 0 0 16
2  223 38 0 0 16
2  224 35 0 0 16
0

0101000
+94 78 -85 78 *
Wi

0101100
-86 0 +84 0 +83 0 +91 0 *
Fa
0  1e-07 38 0

0101000
+82 0 *
Ve
1e-07
-4 19.3 161.8
0 0

0101101
*
Ed
 1e-07 1 1 0
1  113 0 0 2.5
2  225 37 0 0 2.5
2  226 33 0 0 2.5
0

0101000
-80 78 +99 78 *
Ve
1e-07
-4 19.3 174.2
0 0

0101101
*
Ed
 1e-07 1 1 0
1  114 0 0 12.4
2  227 37 0 0 12.4
2  228 40 0 0 12.4
0

0101000
-78 78 +80 78 *
Ed
 1e-07 1 1 0
1  115 0 0 2.5
2  229 37 0 0 2.5
2  230 35 0 0 2.5
0

0101000
-78 78 +101 78 *
Wi

0101100
-79 0 -77 0 +76 0 +97 0 *
Fa
0  1e-07 37 0

0111000
+75 0 *
Ve
1e-07
-6.5 51.7 174.2
0 0

0101101
*
Ed
 1e-07 1 1 0
1  116 0 27.7 32.4
2  231 39 0 27.7 32.4
2  232 35 0 27.7 32.4
0

0101000
+85 78 -73 78 *
Ve
1e-07
-6.5 51.7 161.8
0 0

0101101
*
Ed
 1e-07 1 1 0
1  117 0 0 12.4
2  233 39 0 0 12.4
2  234 41 0 0 12.4
0

0101000
-73 78 +71 78 *
Ed
 1e-07 1 1 0
1  118 0 27.7 32.4
2  235 39 0 27.7 32.4
2  236 33 0 27.7 32.4
0

0101000
+87 78 -71 78 *
Wi

0101100
-72 0 +70 0 +69 0 +84 0 *
Fa
0  1e-07 39 0

0101000
+68 0 *
Ve
1.5e-07
-4 24 174.2
0 0

0101101
*
Ed
 1e-07 1 1 0
1  119 0 0 4.7
2  237 40 0 0 4.7
2  238 35 0 0 4.7
0

0101000
+78 78 -66 78 *
Ve
1.5e-07
-4 24 161.8
0 0

0101101
*
Ed
 1.5e-07 1 1 0
1  120 0 -12.4 0
2  239 40 0 -12.4 0
2  240 42 0 -12.4 0
0

0101000
+66 78 -64 78 *
Ed
 1e-07 1 1 0
1  121 0 0 4.7
2  241 40 0 0 4.7
2  242 33 0 0 4.7
0

0101000
+80 78 -64 78 *
Wi

0101100
-65 0 -63 0 +62 0 -77 0 *
Fa
0  1e-07 40 0

0101000
+61 0 *
Ve
1e-07
-4 51.7 161.8
0 0

0101101
*
Ed
 1e-07 1 1 0
1  122 0 0 2.5
2  243 41 0 0 2.5
2  244 33 0 0 2.5
0

0101000
-59 78 +71 78 *
Ve
1e-07
-4 51.7 174.2
0 0

0101101
*
Ed
 1e-07 1 1 0
1  123 0 0 12.4
2  245 41 0 0 12.4
2  246 43 0 0 12.4
0

0101000
-57 78 +59 78 *
Ed
 1e-07 1 1 0
1  124 0 0 2.5
2  247 41 0 0 2.5
2  248 35 0 0 2.5
0

0101000
-57 78 +73 78 *
Wi

0101100
-58 0 -56 0 +55 0 +70 0 *
Fa
0  1e-07 41 0

0111000
+54 0 *
Ve
1.5e-07
-4 47 174.2
0 0

0101101
*
Ed
 1e-07 1 1 0
1  125 0 27.7 32.4
2  249 43 0 27.7 32.4
2  250 35 0 27.7 32.4
0

0101000
+52 78 -57 78 *
Ve
1.5e-07
-4 47 161.8
0 0

0101101
*
Ed
 1e-07 1 1 0
1  126 0 27.7 32.4
2  251 43 0 27.7 32.4
2  252 33 0 27.7 32.4
0

0101000
+50 78 -59 78 *
Ed
 1.5e-07 1 1 0
1  127 0 -12.4 0
2  253 43 0 -12.4 0
2  254 44 0 -12.4 0
0

0101000
+52 78 -50 78 *
Wi

0101100
-51 0 +56 0 +49 0 +48 0 *
Fa
0  1e-07 43 0

0101000
+47 0 *
Ve
1e-07
1.88737914186277e-15 47 161.8
0 0

0101101
*
Ed
 1e-07 1 1 0
1  128 0 18.5 22.5
2  255 44 0 18.5 22.5
2  256 33 0 18.5 22.5
0

0101000
+50 78 -45 78 *
Ve
1e-07
1.88737914186277e-15 47 174.2
0 0

0101101
*
Ed
 1e-07 1 1 0
1  129 0 0 12.4
2  257 44 0 0 12.4
2  258 45 0 0 12.4
0

0101000
-43 78 +45 78 *
Ed
 1e-07 1 1 0
1  130 0 18.5 22.5
2  259 44 0 18.5 22.5
2  260 35 0 18.5 22.5
0

0101000
+52 78 -43 78 *
Wi

0101100
-44 0 -42 0 +41 0 -48 0 *
Fa
0  1e-07 44 0

0101000
+40 0 *
Ve
1e-07
-6.66133814775094e-16 24 174.2
0 0

0101101
*
Ve
1e-07
-6.66133814775094e-16 24 161.8
0 0

0101101
*
Ed
 1e-07 1 1 0
1  131 0 0 12.4
2  261 45 0 0 12.4
2  262 42 0 0 12.4
0

0101000
-38 78 +37 78 *
Ed
 1e-07 1 1 0
1  132 0 0 23
2  263 45 0 0 23
2  264 35 0 0 23
0

0101000
-43 78 +38 78 *
Ed
 1e-07 1 1 0
1  133 0 0 23
2  265 45 0 0 23
2  266 33 0 0 23
0

0101000
-45 78 +37 78 *
Wi

0101100
-36 0 -35 0 +34 0 +42 0 *
Ve
1e-07
6.55031584528842e-16 35.9 168
0 0

0101101
*
Ed
 1e-07 1 1 0
1  134 0 0 6.28318530717959
2  267 45 0 0 6.28318530717959
2  268 46 0 0 6.28318530717959
0

0101000
+32 78 -32 78 *
Wi

0101100
-31 0 *
Fa
0  1e-07 45 0

0101000
+33 0 +30 0 *
Ed
 1e-07 1 1 0
1  135 0 18.5 22.5
2  269 42 0 18.5 22.5
2  270 33 0 18.5 22.5
0

0101000
+64 78 -37 78 *
Ed
 1e-07 1 1 0
1  136 0 18.5 22.5
2  271 42 0 18.5 22.5
2  272 35 0 18.5 22.5
0

0101000
+66 78 -38 78 *
Wi

0101100
-28 0 -36 0 +27 0 -63 0 *
Fa
0  1e-07 42 0

0101000
+26 0 *
Ve
1e-07
4 35.9 168
0 0

0101101
*
Ed
 1e-07 1 1 0
1  137 0 0 6.28318530717959
2  273 46 0 0 6.28318530717959
2  274 47 0 0 6.28318530717959
0

0101000
+24 78 -24 78 *
Ed
 1e-07 1 1 0
1  138 0 0 4
3  275 276CN 46 0 0 4
0

0101000
+32 78 -24 78 *
Wi

0101100
-23 0 +22 0 +31 0 -22 0 *
Fa
0  1e-07 46 0

0101000
+21 0 *
Ve
1e-07
4 39 168
0 0

0101101
*
Ed
 1e-07 1 1 0
1  139 0 0 6.28318530717959
2  277 47 0 0 6.28318530717959
2  278 48 0 0 6.28318530717959
0

0101000
+19 78 -19 78 *
Wi

0101100
+18 0 *
Wi

0101100
-23 0 *
Fa
0  1e-07 47 0

0101000
+17 0 +16 0 *
Ve
1e-07
6 39 168
0 0

0101101
*
Ed
 1e-07 1 1 0
1  140 0 0 6.28318530717959
2  279 48 0 0 6.28318530717959
2  280 49 0 0 6.28318530717959
0

0101000
+14 78 -14 78 *
Ed
 1e-07 1 1 0
1  141 0 0 2
3  281 282CN 48 0 0 2
0

0101000
-14 78 +19 78 *
Wi

0101100
-13 0 +12 0 +18 0 -12 0 *
Fa
0  1e-07 48 0

0111000
+11 0 *
Wi

0101100
+13 0 *
Fa
0  1e-07 49 0

0111000
+9 0 *
Wi

0101100
+86 0 +69 0 +58 0 -49 0 +44 0 -34 0 -28 0 -62 0 -79 0 +98 0 
-109 0 +90 0 *
Fa
0  1e-07 33 0

0101000
+7 0 *
Wi

0101100
-83 0 -93 0 +105 0 -100 0 +76 0 +65 0 +27 0 +35 0 -41 0 +51 0 
-55 0 -72 0 *
Fa
0  1e-07 35 0

0101000
+5 0 *
Sh

0101100
-102 0 -95 0 -88 0 +81 0 -74 0 -67 0 +60 0 +53 0 +46 0 +39 0 
+29 0 -25 0 +20 0 -15 0 +10 0 +8 0 +6 0 +4 0 *
So

0100000
+3 0 *
Co

1100000
+112 0 +2 77 *

+1 1 