DBRep_DrawableShape

CASCADE Topology V1, (c) Matra-Datavision
Locations 78
1
              1               0               0              -0 
              0               1               0              30 
              0               0               1             -65 
1
             -1 -1.22464679914735e-16               0               0 
1.22464679914735e-16              -1               0               0 
              0               0               1               0 
1
              1               0               0               0 
              0               1               0               0 
              0               0               1               0 
1
              1               0               0               0 
              0 1.11022302462516e-16               1               0 
              0              -1 1.11022302462516e-16               0 
1
              1               0               0               0 
              0               1               0               0 
              0               0               1               0 
1
              1               0               0               0 
              0               1               0             -30 
              0               0               1              90 
2  2 1 3 1 4 1 5 1 6 1 0
2  6 -1 5 -1 4 -1 3 -1 2 -1 0
1
             -1 -1.22464679914735e-16               0               0 
1.22464679914735e-16              -1               0               0 
              0               0               1               0 
1
              1               0               0               0 
              0               1               0               0 
              0               0               1               0 
1
              1               0               0               0 
              0 1.11022302462516e-16               1               0 
              0              -1 1.11022302462516e-16               0 
1
              1               0               0               0 
              0               1               0               0 
              0               0               1               0 
1
              1               0               0               0 
              0               1               0             -30 
              0               0               1              90 
2  9 1 10 1 11 1 12 1 13 1 0
1
             -1 -1.22464679914735e-16               0               0 
1.22464679914735e-16              -1               0               0 
              0               0               1               0 
1
              1               0               0               0 
              0               1               0               0 
              0               0               1               0 
1
              1               0               0               0 
              0 1.11022302462516e-16               1               0 
              0              -1 1.11022302462516e-16               0 
1
              1               0               0               0 
              0               1               0               0 
              0               0               1               0 
1
              1               0               0               0 
              0               1               0             -30 
              0               0               1              90 
2  15 1 16 1 17 1 18 1 19 1 0
1
             -1 -1.22464679914735e-16               0               0 
1.22464679914735e-16              -1               0               0 
              0               0               1               0 
1
              1               0               0               0 
              0               1               0               0 
              0               0               1               0 
1
              1               0               0               0 
              0 1.11022302462516e-16              -1               0 
              0               1 1.11022302462516e-16               0 
1
              1               0               0               0 
              0               1               0               0 
              0               0               1               0 
1
              1               0               0               0 
              0               1               0             -30 
              0               0               1              40 
2  21 1 22 1 23 1 24 1 25 1 0
1
             -1 -1.22464679914735e-16               0               0 
1.22464679914735e-16              -1               0               0 
              0               0               1               0 
1
              1               0               0               0 
              0               1               0               0 
              0               0               1               0 
1
              1               0               0               0 
              0 1.11022302462516e-16               1               0 
              0              -1 1.11022302462516e-16               0 
1
              1               0               0               0 
              0               1               0               0 
              0               0               1               0 
1
              1               0               0               0 
              0               1               0             -30 
              0               0               1              90 
2  27 1 28 1 29 1 30 1 31 1 0
1
             -1 -1.22464679914735e-16               0               0 
1.22464679914735e-16              -1               0               0 
              0               0               1               0 
1
              1               0               0               0 
              0               1               0               0 
              0               0               1               0 
1
              1               0               0               0 
              0 1.11022302462516e-16              -1               0 
              0               1 1.11022302462516e-16               0 
1
              1               0               0               0 
              0               1               0               0 
              0               0               1               0 
1
              1               0               0               0 
              0               1               0             -30 
              0               0               1              40 
2  33 1 34 1 35 1 36 1 37 1 0
1
             -1 -1.22464679914735e-16               0               0 
1.22464679914735e-16              -1               0               0 
              0               0               1               0 
1
              1               0               0               0 
              0               1               0               0 
              0               0               1               0 
1
              1               0               0               0 
              0 1.11022302462516e-16              -1               0 
              0               1 1.11022302462516e-16               0 
1
              1               0               0               0 
              0               1               0               0 
              0               0               1               0 
1
              1               0               0               0 
              0               1               0             -30 
              0               0               1              40 
2  39 1 40 1 41 1 42 1 43 1 0
1
             -1 -1.22464679914735e-16               0               0 
1.22464679914735e-16              -1               0               0 
              0               0               1               0 
1
              1               0               0               0 
              0               1               0               0 
              0               0               1               0 
1
              1               0               0               0 
              0 1.11022302462516e-16              -1               0 
              0               1 1.11022302462516e-16               0 
1
              1               0               0               0 
              0               1               0               0 
              0               0               1               0 
1
              1               0               0               0 
              0               1               0             -30 
              0               0               1              40 
2  45 1 46 1 47 1 48 1 49 1 0
1
             -1 -1.22464679914735e-16               0               0 
1.22464679914735e-16              -1               0               0 
              0               0               1               0 
1
              1               0               0               0 
              0               1               0               0 
              0               0               1               0 
1
              1               0               0               0 
              0 1.11022302462516e-16              -1               0 
              0               1 1.11022302462516e-16               0 
1
              1               0               0               0 
              0               1               0               0 
              0               0               1               0 
1
              1               0               0               0 
              0               1               0             -30 
              0               0               1              40 
2  51 1 52 1 53 1 54 1 55 1 0
1
             -1 -1.22464679914735e-16               0               0 
1.22464679914735e-16              -1               0               0 
              0               0               1               0 
1
              1               0               0               0 
              0               1               0               0 
              0               0               1               0 
1
              1               0               0               0 
              0 1.11022302462516e-16              -1               0 
              0               1 1.11022302462516e-16               0 
1
              1               0               0               0 
              0               1               0               0 
              0               0               1               0 
1
              1               0               0               0 
              0               1               0             -30 
              0               0               1              40 
2  57 1 58 1 59 1 60 1 61 1 0
2  13 -1 12 -1 11 -1 10 -1 9 -1 0
2  19 -1 18 -1 17 -1 16 -1 15 -1 0
2  25 -1 24 -1 23 -1 22 -1 21 -1 0
2  31 -1 30 -1 29 -1 28 -1 27 -1 0
2  37 -1 36 -1 35 -1 34 -1 33 -1 0
2  43 -1 42 -1 41 -1 40 -1 39 -1 0
2  49 -1 48 -1 47 -1 46 -1 45 -1 0
2  55 -1 54 -1 53 -1 52 -1 51 -1 0
2  61 -1 60 -1 59 -1 58 -1 57 -1 0
1
             -1 -1.22464679914735e-16               0               0 
1.22464679914735e-16              -1               0               0 
              0               0               1               0 
1
              1               0               0               0 
              0               1               0               0 
              0               0               1               0 
1
              1               0               0               0 
              0 1.11022302462516e-16               1               0 
              0              -1 1.11022302462516e-16               0 
1
              1               0               0               0 
              0               1               0               0 
              0               0               1               0 
1
              1               0               0               0 
              0               1               0             -30 
              0               0               1              90 
2  72 1 73 1 74 1 75 1 76 1 0
2  76 -1 75 -1 74 -1 73 -1 72 -1 0
Curve2ds 329
1 0 4.5 1 0 
1 -40.458976963463385 -8.3922359296008171 0 1 
1 10.999999999999998 0 0 1 
1 1.5707963267948966 0 0 1 
1 0 4.5 1 0 
1 -40.458976963463385 -8.3922359296008171 0 1 
1 0 0 1 0 
1 40.656700550601329 -8.4433020058805255 0 1 
1 12.000000000000002 0 0 1 
1 1.5707963267948966 0 0 1 
8 0.049999999999997158 3.0000005999999999
1 11.5 5 0 -1 
2 -29.458976963463385 3.6077640703991847 1 0 -0 1 11
1 -1.5707963267948966 4.5 1 0 
1 -40.458976963463385 14.607764070399183 1 0 
1 0 -4.5 1 0 
1 9.5410230365366147 14.807764070399184 -1.2246467991473532e-16 -1 
1 4.5 0 0 1 
1 9.5410230365366147 14.807764070399184 1 -1.2246467991473532e-16 
1 4.5 0 0 -1 
1 31.541023036536615 14.80776407039918 -1.2246467991473532e-16 -1 
1 17.199999999999996 2.2500000000000071 -1 1.3596310734468911e-32 
1 9.5410230365366147 -19.592235929600815 1 -1.2246467991473532e-16 
1 4.5 0 0 -1 
1 9.5410230365366147 14.807764070399184 -1.2246467991473532e-16 -1 
1 4.5 0 0 1 
1 -40.458976963463385 -8.3922359296008171 1 0 
1 32.367490771957172 4.1019420766603005 -1 0 
1 0.53163886333801713 -8.3922359296008171 0 1 
8 -5.999999999062311e-07 4.5000005999999999
1 1.508255564998406 0 0 1 
1 -24.958976963463385 -3.8922359296008167 -1 0 
8 -25.500000000000004 -15.499999999999996
1 -15.5 -4.5 -1 -0 
1 -9.4495927902647807 -8.3922359296008171 0 1 
8 -5.999999999062311e-07 4.5000005999999999
1 1.5082555649984057 0 0 1 
1 -40.458976963463385 -8.3922359296008171 1 0 
1 32.367490771957172 4.1019420766603005 -1 0 
2 -29.458976963463385 2.607764070399182 1 0 0 -1 11
1 -1.5707963267948966 4.5 1 0 
2 20.541023036536615 -16.392235929600815 -1.2246467991473532e-16 -1 1 -1.2246467991473532e-16 1.1499999999999999
1 6.679274664138223e-65 12.5 1 0 
8 -19.646117964800411 4.9538820351995927
1 13.541023036536615 4.9538820351995909 1.2246467991473532e-16 1 
8 -19.646117964800411 4.9538820351995927
1 17 4.9538820351995927 1.3596310734468911e-32 -1 
8 6.7705115182683091 20.770511518268307
1 6.7705115182683073 -14.692235929600818 1 -1.2246467991473532e-16 
8 6.7705115182683091 20.770511518268307
1 17 6.7705115182683091 1.1102230246251565e-16 -1 
8 -19.646117964800411 4.9538820351995927
1 27.541023036536615 4.9538820351995891 1.2246467991473532e-16 1 
8 -19.646117964800411 4.9538820351995927
1 17 4.9538820351995927 1.3596310734468911e-32 -1 
8 6.7705115182683091 20.770511518268307
1 6.7705115182683073 9.9077640703991854 1 -1.2246467991473532e-16 
8 6.7705115182683091 20.770511518268307
1 17 6.7705115182683091 1.1102230246251565e-16 -1 
2 -29.458976963463385 3.1077640703991833 1.2246467991473532e-16 -1 -1 -1.2246467991473532e-16 11
1 6.679274664138223e-65 0.5 1 0 
2 -29.458976963463385 3.1077640703991833 1.2246467991473532e-16 -1 -1 -1.2246467991473532e-16 11
1 6.679274664138223e-65 0.5 1 0 
2 20.541023036536615 11.607764070399183 -1.2246467991473532e-16 -1 1 -1.2246467991473532e-16 1.1499999999999999
1 6.679274664138223e-65 12.5 1 0 
1 -1.5707963267948966 0 1 0 
2 29.656700550601329 2.5566979941194741 -1 0 -0 -1 11
1 0 0 0 1 
1 21.367490771957172 8.6019420766603005 0 -1 
2 29.656700550601329 3.5566979941194767 -1 0 0 1 11
1 -1.5707963267948966 0 1 0 
1 40.656700550601329 -8.4433020058805255 -1 0 
1 32.367490771957172 8.6019420766603005 -1 0 
1 40.656700550601329 14.556697994119475 -1 0 
1 0 0 1 0 
1 -9.3432994493986712 14.756697994119477 1.2246467991473532e-16 -1 
1 0 0 0 1 
1 -9.3432994493986712 14.756697994119477 1.2246467991473532e-16 -1 
1 0 0 0 1 
1 -9.3432994493986712 -19.643302005880525 -1 -1.2246467991473532e-16 
1 0 0 0 -1 
1 -9.3432994493986712 14.756697994119477 -1 -1.2246467991473532e-16 
1 0 0 0 -1 
1 -31.343299449398671 14.756697994119474 1.2246467991473532e-16 -1 
1 17.199999999999996 -2.2499999999999929 -1 1.3596310734468911e-32 
2 -20.343299449398671 -16.443302005880525 1.2246467991473532e-16 -1 -1 -1.2246467991473532e-16 1.1499999999999999
1 6.679274664138223e-65 8.0000000000000071 1 0 
2 29.656700550601329 -3.4433020058805246 -1.2246467991473532e-16 -1 1 -1.2246467991473532e-16 1.1499999999999999
1 6.679274664138223e-65 7.9999999999999929 1 0 
8 -4.9283489970597394 19.671651002940262
1 -27.343299449398671 4.9283489970597358 1.2246467991473532e-16 -1 
8 -4.9283489970597394 19.671651002940262
1 12.500000000000007 4.9283489970597394 -1.3596310734468911e-32 1 
8 -20.671649724699336 -6.6716497246993374
1 -6.6716497246993356 -14.743302005880523 1 1.2246467991473532e-16 
8 -20.671649724699336 -6.6716497246993374
1 12.500000000000007 6.6716497246993374 -1.1102230246251565e-16 1 
8 -4.9283489970597394 19.671651002940262
1 -13.343299449398671 4.9283489970597376 1.2246467991473532e-16 -1 
8 -4.9283489970597394 19.671651002940262
1 12.500000000000007 4.9283489970597394 -1.3596310734468911e-32 1 
8 -20.671649724699336 -6.6716497246993374
1 -6.6716497246993356 9.8566979941194752 1 1.2246467991473532e-16 
8 -20.671649724699336 -6.6716497246993374
1 12.500000000000007 6.6716497246993374 -1.1102230246251565e-16 1 
2 -20.343299449398671 11.556697994119475 1.2246467991473532e-16 -1 -1 -1.2246467991473532e-16 1.1499999999999999
1 6.679274664138223e-65 8.0000000000000071 1 0 
2 23.156700550601329 3.0566979941194763 -1.2246467991473532e-16 -1 1 -1.2246467991473532e-16 1.1499999999999999
1 6.679274664138223e-65 7.9999999999999929 1 0 
2 29.656700550601329 3.0566979941194754 -1.2246467991473532e-16 -1 1 -1.2246467991473532e-16 3.2000000000000002
1 6.679274664138223e-65 7.9999999999999929 1 0 
2 36.156700550601329 3.0566979941194745 -1.2246467991473532e-16 -1 1 -1.2246467991473532e-16 1.1499999999999999
1 6.679274664138223e-65 7.9999999999999929 1 0 
2 29.656700550601329 9.5566979941194745 -1.2246467991473532e-16 -1 1 -1.2246467991473532e-16 1.1499999999999999
1 6.679274664138223e-65 7.9999999999999929 1 0 
1 0 0 0 1 
1 11 0 0 -1 
8 -4.5 0
1 50 0 -1.1102230246251565e-16 1 
8 -4.5 0
1 0 0.20000000000000107 -1 0 
1 0 0 1 0 
1 0 0 1 0 
1 0 -22 1 0 
1 17.199999999999996 -2.2499999999999929 0 1 
1 -17.199999999999999 -2.2499999999999929 0 1 
1 0 -22 1 0 
1 0 0 1 0 
1 0 34.399999999999999 1 0 
8 -4.5 0
1 0 23.200000000000003 -1 0 
1 -17.632509228042828 8.6019420766603005 1.1102230246251565e-16 1 
2 -3.8325092280428308 3.8019420766603034 -1 0 -0 -1 4.7999999999999972
1 -4.7123889803846897 0 1 0 
1 -8.6325092280428279 8.6019420766603005 0 -1 
1 0 0 0 1 
2 -3.8325092280428308 -15.598057923339702 -1 0 0 1 4.7999999999999972
1 -4.7123889803846897 0 1 0 
1 1.3674907719571721 -20.398057923339699 -1 0 
1 -19.979976967982438 -11.133670215473961 1 0 
2 -3.4325092280428251 -15.598057923339702 -1 0 -0 -1 4.7999999999999972
1 -1.5707963267948966 0 1 0 
1 1.3674907719571721 8.6019420766603005 0 -1 
1 0 0 0 1 
2 -3.4325092280428251 3.8019420766603034 -1 0 0 1 4.7999999999999972
1 -1.5707963267948966 0 1 0 
1 -4.7123889803846897 4.5 1 0 
2 5.2000000000000028 -4.7999999999999972 1 0 0 -1 4.7999999999999998
1 1.5707963267948966 0 0 1 
1 0 4.7999999999999972 1 0 
1 10 0 0 -1 
1 4.5 0 0 1 
2 5.2000000000000028 -24.200000000000003 1 0 -0 1 4.7999999999999998
1 -4.7123889803846897 4.5 1 0 
8 -10.000000000000004 0
1 0 -24.5 -1 -0 
8 -10.000000000000004 0
1 0 4.5 -1 0 
8 -5.999999999062311e-07 4.5000005999999999
1 2.1258803253505718 -24.5 0 -1 
8 -5.999999999062311e-07 4.5000005999999999
1 0.9386110781141519 0 0 1 
2 4.7999999999999972 -24.200000000000003 1 0 0 -1 4.7999999999999998
1 -1.5707963267948966 4.5 1 0 
1 0 0 0 -1 
1 4.5 0 0 1 
2 4.7999999999999972 -4.7999999999999972 1 0 -0 1 4.7999999999999998
1 -1.5707963267948966 4.5 1 0 
1 1.5707963267948966 0 0 1 
1 0 4.7999999999999972 1 0 
1 6.2831853071795862 -0 0 1 
1 0 -0 0 1 
1 0 24.600000000000001 1 0 
1 0 0 1 0 
1 0 0 1 0 
1 0 0 1 0 
1 0 -14 1 0 
1 0 24.600000000000001 1 0 
1 0 0 1 0 
1 0 -14 1 0 
1 6.2831853071795862 -0 0 1 
1 0 -0 0 1 
1 0 0 1 0 
2 0 0 1 0 -0 1 11
1 6.2831853071795862 -0 0 1 
1 0 -0 0 1 
1 6.2831853071795862 -0 0 1 
1 0 -0 0 1 
1 6.679274664138223e-65 3 1 0 
2 6.5 7.9602041944577955e-16 1 0 -0 1 1.1499999999999999
1 6.2831853071795862 -0 0 1 
1 0 -0 0 1 
1 6.679274664138223e-65 3 1 0 
2 3.6977854932234928e-32 -6.5 1 0 -0 1 1.1499999999999999
1 6.2831853071795862 -0 0 1 
1 0 -0 0 1 
1 6.679274664138223e-65 3 1 0 
2 0 -0 1 0 -0 1 3.2000000000000002
1 6.2831853071795862 -0 0 1 
1 0 -0 0 1 
1 6.679274664138223e-65 3 1 0 
2 -3.6977854932234928e-32 6.5 1 0 -0 1 1.1499999999999999
1 6.2831853071795862 -0 0 1 
1 0 -0 0 1 
1 6.679274664138223e-65 3 1 0 
2 -6.5 -7.9602041944577955e-16 1 0 -0 1 1.1499999999999999
1 0 24.200000000000003 1 0 
1 1.5707963267948966 0 0 1 
1 0 0 0 1 
1 -14.779976967982435 -11.133670215473961 0 1 
7 0 0  7 38 7  0 1.6533428435616582  0.015851384145599869 1.6061278310467813  0.031847620630904995 1.5594822186202693  0.047985067754281838 1.5134479667443976  0.064260329674005454 1.4680641196550612  0.08067025640825945 1.4233668053617736  0.097211943835135983 1.3793892356476662  0.14582537193433681 1.2533341165430743  0.17826231347723046 1.173207359853738  0.21112531884535099 1.0961323703282724  0.24435005969145004 1.0223809530916306  0.2778744575274249 0.95215103874403617  0.31163702245474784 0.88557193803809142  0.37296485053865019 0.77197680503684907  0.40044850243381575 0.72370262620645565  0.42799059783076132 0.67791992080036378  0.45555503370171568 0.63463388268169896  0.48310442456069413 0.59382515387553403  0.51059937328342575 0.55545293960336761  0.55154073615558208 0.50166591110440384  0.56506202853341059 0.48445211340606326  0.57855895017493908 0.46780664085837703  0.5920287170478693 0.45171890565528816  0.60546842997342865 0.43617782154888823  0.61887507462637126 0.42117180384941744  0.65717666611117131 0.37968304346870446  0.68197656149174546 0.35450161825816778  0.70663971951651383 0.33104921831039119  0.73115990265694053 0.309231038134266  0.7555300059238933 0.28895343444519328  0.77974193877539333 0.27012461837943869  0.91221869132702083 0.17387534394999829  1.0169024655272534 0.12299389345431529  1.1186039300916759 0.09037236287955816  1.2179515126271279 0.069594870081616494  1.3155760241020669 0.056586334071405453  1.4121076235384558 0.049067589997451734  1.5082556902432653 0.046409553632734912 
 0 8 0.076455107621144061 6 0.22294953682024604 6 0.34117725726497949 6 0.39961713580014979 6 0.50858679633090131 6 1 8
7 0 0  7 38 7  0.55538765325358153 4.5000000000000027  0.54724713385446477 4.5000000000000027  0.53908020315453764 4.4985929123872612  0.53089174656697879 4.495732435332866  0.5226866000434246 4.4913744602904559  0.51446955007396844 4.4854770719962138  0.50624533368716096 4.4780005484688727  0.48225559709856336 4.4514840475401911  0.46647345597606443 4.428114244049163  0.45073012069435198 4.3985480367479601  0.43508079578889008 4.3626168756568537  0.41957817345090503 4.3202363871764442  0.40427262225952226 4.2714091866590813  0.3770580666714784 4.171693694155227  0.36507257033583074 4.1230541521624762  0.35328178020818723 4.0703726045648247  0.34171054653351352 4.0137529496504456  0.33038256171513714 3.9533406343367905  0.31932024552936855 3.8893238440745401  0.30321825137897723 3.788624282950102  0.29796116985235538 3.7544852258791614  0.29277501219166285 3.7195391695926854  0.28766134980544666 3.6838093122766327  0.28262169907939688 3.6473204022489512  0.27765752137634608 3.6100987379595817  0.26365714384480277 3.5014525573713997  0.25481332255397837 3.4282973230219986  0.24624221185958253 3.3528470350210688  0.23794697980193469 3.2752485695748645  0.22993043252583828 3.1956552368741034  0.22219493704053253 3.11422690895099  0.1811338825615238 2.6563942298280012  0.15338549871743989 2.2489198989536052  0.13111434277237841 1.818936033595796  0.11402874871548618 1.3740252665472561  0.10188623580442351 0.91981863959368837  0.094524786987946266 0.46060785368502866  0.091891462101112653 -5.9999999999999997e-07 
 0 8 0.076455107621144061 6 0.22294953682024604 6 0.34117725726497949 6 0.39961713580014979 6 0.50858679633090131 6 1 8
8 -5.999999999062311e-07 4.5000005999999999
1 1.508255564998406 0 0 1 
8 -5.999999999062311e-07 4.5000005999999999
1 9.9906158268014025 0 0 1 
2 -8.9799769679824379 -0.13367021547396163 1 0 0 -1 11
1 -1.5707963267948966 4.5 1 0 
1 -19.979976967982438 -11.133670215473961 1 0 
1 0 -4.5 1 0 
2 10.020023032017562 -0.13367021547396163 1 0 -0 1 11
1 -4.7123889803846897 4.5 1 0 
1 21.020023032017562 -11.133670215473961 0 1 
1 0 4.5 1 0 
2 10.020023032017562 0.86632978452604104 1 0 0 -1 11
1 -4.7123889803846897 4.5 1 0 
1 -19.979976967982438 11.866329784526039 1 0 
1 0 -4.5 1 0 
2 -8.9799769679824379 0.86632978452604104 1 0 -0 1 11
1 -1.5707963267948966 4.5 1 0 
1 -19.979976967982438 -11.133670215473961 0 1 
1 0 4.5 1 0 
2 -8.9799769679824379 -0.13367021547396163 1 0 0 -1 11
1 -1.5707963267948966 4.5 1 0 
1 -15.179976967982441 -11.133670215473961 0 1 
1 0 0 0 1 
7 0 0  7 8 2  0 1.913746646719563  0.1011254752285736 2.2449606274210616  0.19517380211040014 2.5973329747037734  0.28327392639044413 2.9646503081747682  0.36620200171948236 3.3415304284474545  0.44466434046987002 3.7242025150477414  0.51932698482073092 4.1104995790224708  0.59089965441623638 4.5000005999999999 
 0 8 1 8
7 0 0  7 8 2  0.59878147653025693 4.5000000000000027  0.65220308632082113 4.5000000000000027  0.70415767741123969 4.4427335236518033  0.75437578122033844 4.3426203101405694  0.80281635975686849 4.2102021351090428  0.8495422270279005 4.0533404707422562  0.89471935522014401 3.8775050045577277  0.93861114572649007 3.6861110891704345 
 0 8 1 8
1 1.5707963267948966 0 0 1 
1 0 24.200000000000003 1 0 
1 0 0 0 1 
1 0 0 1 0 
2 11 12.000000000000002 1 0 -0 1 11
1 -1.5707963267948966 0 1 0 
1 0 23 1 0 
1 0 0 1 0 
2 30 12.000000000000002 1 0 0 -1 11
1 -4.7123889803846897 0 1 0 
1 41 0 0 1 
1 0 0 1 0 
2 30 10.999999999999998 1 0 -0 1 11
1 -4.7123889803846897 0 1 0 
1 0 0 1 0 
1 0 0 1 0 
2 11 10.999999999999998 1 0 0 -1 11
1 -1.5707963267948966 0 1 0 
2 11 10.999999999999998 1 0 0 -1 11
1 -1.5707963267948966 0 1 0 
1 1.5707963267948966 0 0 1 
1 10.999999999999998 0 0 1 
1 0 0 0 1 
1 11 0 0 -1 
1 30 0 0 -1 
1 0 0 0 1 
1 1.5707963267948966 0 0 1 
1 10.999999999999998 0 0 1 
1 12.000000000000002 0 0 1 
1 1.5707963267948966 0 0 1 
1 0 0 0 1 
1 30 0 0 -1 
1 11 0 0 -1 
1 0 0 0 1 
1 1.5707963267948966 0 0 1 
1 12.000000000000002 0 0 1 
1 0 0 1 0 
1 12.277322404371587 -11.5 -1 0 
8 -12.4 0
1 16 0 0 1 
8 -12.4 0
1 4.6999999999999993 0 0 -1 
1 0 -12.4 1 0 
1 -12.277322404371578 -11.500000000000002 1 0 
1 0 0 0 -1 
1 0 0 0 1 
1 0 12.4 1 0 
1 3.7226775956284222 -16.200000000000003 0 1 
1 0 0 1 0 
1 -3.7226775956284133 -16.199999999999999 0 1 
1 0 0 0 1 
1 0 0 0 -1 
1 0 12.4 1 0 
1 -12.277322404371578 -11.500000000000002 0 1 
1 23 0 0 1 
1 0 0 0 -1 
1 0 0 1 0 
1 12.277322404371587 -11.5 0 1 
1 0 0 1 0 
1 12.277322404371587 11.5 -1 0 
8 -12.4 0
1 16 0 0 1 
8 -12.4 0
1 27.699999999999999 0 0 -1 
1 0 -12.4 1 0 
1 -12.277322404371578 11.499999999999998 1 0 
1 0 0 1 0 
1 -3.7226775956284133 -16.199999999999999 -1 0 
1 2.5 0 0 -1 
1 0 0 0 1 
1 0 -12.4 1 0 
1 3.7226775956284222 -16.200000000000003 1 0 
1 0 12.4 1 0 
1 3.7226775956284222 -16.200000000000003 0 1 
1 32.399999999999999 0 0 1 
1 0 0 0 -1 
1 0 0 1 0 
1 -3.7226775956284133 -16.199999999999999 0 1 
1 0 12.4 1 0 
1 6.2226775956284222 -16.200000000000003 0 1 
8 -12.4 0
1 4.6999999999999993 0 0 -1 
8 -12.4 0
1 18.5 0 0 1 
1 0 0 1 0 
1 -6.2226775956284133 -16.199999999999999 0 1 
1 0 0 1 0 
1 -3.7226775956284133 16.199999999999999 -1 0 
1 2.5 0 0 -1 
1 32.399999999999999 0 0 1 
1 0 -12.4 1 0 
1 3.7226775956284222 16.199999999999996 1 0 
1 0 12.4 1 0 
1 6.2226775956284222 -16.200000000000003 0 1 
1 0 0 1 0 
1 -6.2226775956284133 -16.199999999999999 0 1 
8 -12.4 0
1 27.699999999999999 0 0 -1 
8 -12.4 0
1 18.5 0 0 1 
1 0 0 1 0 
1 12.277322404371587 11.5 -1 0 
1 22.5 0 0 -1 
1 23 0 0 1 
1 0 -12.4 1 0 
1 -12.277322404371578 11.499999999999998 1 0 
1 0 0 0 1 
1 22.5 0 0 -1 
1 0 12.4 1 0 
1 10.222677595628422 -11.500000000000002 0 1 
1 0 0 1 0 
1 -10.222677595628413 -11.5 0 1 
2 6 6.2000000000000002 1 0 -0 1 5.9000000000000004
1 0 0 1 0 
1 0 0 1 0 
1 12.277322404371587 -11.5 -1 0 
1 0 -12.4 1 0 
1 -12.277322404371578 -11.500000000000002 1 0 
1 0 4 1 0 
2 0 0 1 0 -0 1 5.9000000000000004
1 6.2831853071795862 -0 0 1 
1 0 -0 0 1 
2 0 0 1 0 -0 1 9
1 0 0 1 0 
1 0 2 1 0 
2 0 0 1 0 -0 1 9
1 6.2831853071795862 -0 0 1 
1 0 -0 0 1 
Curves 165
1 -11.5 -36.5 29 1 0 -0 
1 -0.500000000000002 -41 29 -0 1 0 
1 -11.5 -36.5 29 1 0 -0 
1 -11.5 -41 29 1 0 -0 
1 0.500000000000002 -41 29 -0 1 0 
1 0 -36 29 0 -1 1.1102230246251565e-16 
8 1.5707963267948966 3.1415926535897931
2 0.50000000000000133 -36.5 40 -0 1 0 0 0 1 1 0 -0 11
1 11.5 -36.5 29 0 0 1 
1 -11.699999999999999 -11 -6.5 1 0 -0 
1 -11.699999999999999 -11 -6.5 -0 1 0 
1 11.699999999999998 -36.5 101 -1 1.3596310734468911e-32 -1.2246467991473532e-16 
1 22.699999999999999 -11 -6.5 -0 1 0 
1 -11.699999999999999 -11 -6.5 1 0 -0 
1 -11.5 -36.5 29 0 0 1 
1 -11.5 -36.5 69.990615826801402 1 0 -0 
1 -7 -36.5 44.5 -0 0 -1 
1 -11.5 -36.5 60.009384173198605 1 0 -0 
1 -11.5 -36.5 29 0 0 1 
8 1.5707963267948966 3.1415926535897931
2 -0.50000000000000133 -36.5 40 0 -1 -0 0 0 1 -1 -0 0 11
2 -19.5 -36.5 90 0 1 1.1102230246251565e-16 -1 1.3596310734468911e-32 -1.2246467991473532e-16 -1.2246467991473532e-16 -1.1102230246251565e-16 1 1.1499999999999999
1 1.8461179648004078 -36.5 83 1 -0 1.2246467991473532e-16 
1 -17.800000000000001 -36.5 76.229488481731693 -1.2246467991473532e-16 0 1 
1 1.846117964800406 -36.5 97 1 -0 1.2246467991473532e-16 
1 6.8000000000000016 -36.5 76.229488481731693 -1.2246467991473532e-16 0 1 
2 0 -36.5 40 0 -1 1.1102230246251565e-16 -1 1.3596310734468911e-32 1.2246467991473532e-16 -1.2246467991473532e-16 -1.1102230246251565e-16 -1 11
2 0 -36.5 40 0 -1 1.1102230246251565e-16 -1 1.3596310734468911e-32 1.2246467991473532e-16 -1.2246467991473532e-16 -1.1102230246251565e-16 -1 11
2 8.5 -36.5 90 0 1 1.1102230246251565e-16 -1 1.3596310734468911e-32 -1.2246467991473532e-16 -1.2246467991473532e-16 -1.1102230246251565e-16 1 1.1499999999999999
8 1.5707963267948966 3.1415926535897931
2 -0.50000000000000133 -41 40 0 -1 -0 0 0 1 -1 -0 0 11
1 -11.500000000000002 -41 40 -0 1 0 
8 1.5707963267948966 3.1415926535897931
2 0.50000000000000133 -41 40 -0 1 0 0 0 1 1 0 -0 11
1 -11.5 -41 29 0 0 1 
1 11.5 -41 29 0 0 1 
1 -11.699999999999999 -11 -11 1 0 -0 
1 -11.699999999999999 -11 -11 1 0 -0 
1 22.699999999999999 -11 -11 -0 1 0 
1 -11.699999999999999 -11 -11 -0 1 0 
1 11.699999999999998 -41 101 -1 1.3596310734468911e-32 -1.2246467991473532e-16 
2 -19.5 -40.999999999999993 90 0 1 1.1102230246251565e-16 -1 1.3596310734468911e-32 -1.2246467991473532e-16 -1.2246467991473532e-16 -1.1102230246251565e-16 1 1.1499999999999999
2 -6.5 -40.999999999999993 40 0 -1 1.1102230246251565e-16 -1 1.3596310734468911e-32 1.2246467991473532e-16 -1.2246467991473532e-16 -1.1102230246251565e-16 -1 1.1499999999999999
1 1.87165100294026 -40.999999999999993 97 -1 0 -1.2246467991473532e-16 
1 -17.799999999999997 -40.999999999999993 76.328350275300664 1.2246467991473532e-16 0 -1 
1 1.8716510029402618 -40.999999999999993 83 -1 0 -1.2246467991473532e-16 
1 6.8000000000000007 -40.999999999999993 76.328350275300664 1.2246467991473532e-16 0 -1 
2 8.5 -40.999999999999993 90 0 1 1.1102230246251565e-16 -1 1.3596310734468911e-32 -1.2246467991473532e-16 -1.2246467991473532e-16 -1.1102230246251565e-16 1 1.1499999999999999
2 7.9602041944577955e-16 -40.999999999999993 46.5 0 -1 1.1102230246251565e-16 -1 1.3596310734468911e-32 1.2246467991473532e-16 -1.2246467991473532e-16 -1.1102230246251565e-16 -1 1.1499999999999999
2 0 -40.999999999999993 40 0 -1 1.1102230246251565e-16 -1 1.3596310734468911e-32 1.2246467991473532e-16 -1.2246467991473532e-16 -1.1102230246251565e-16 -1 3.2000000000000002
2 -7.9602041944577955e-16 -40.999999999999993 33.5 0 -1 1.1102230246251565e-16 -1 1.3596310734468911e-32 1.2246467991473532e-16 -1.2246467991473532e-16 -1.1102230246251565e-16 -1 1.1499999999999999
2 6.5 -40.999999999999993 40 0 -1 1.1102230246251565e-16 -1 1.3596310734468911e-32 1.2246467991473532e-16 -1.2246467991473532e-16 -1.1102230246251565e-16 -1 1.1499999999999999
1 11.500000000000002 -41 40 -0 1 0 
1 11.5 -41 79 0 -1 -1.1102230246251565e-16 
1 -11.699999999999999 -11 -11 0 0 1 
1 -11.699999999999999 11 -11 0 0 1 
1 22.699999999999999 11 -11 0 0 1 
1 22.699999999999999 -11 -11 0 0 1 
1 -11.5 -41 79 0 -1 -1.1102230246251565e-16 
8 4.7123889803846897 6.2831853071795862
2 -11.5 -36.200000000000003 65.200000000000003 -1 -0 0 0 0 1 -0 1 0 4.7999999999999998
1 -11.5 -41 70 -0 1 0 
8 4.7123889803846897 6.2831853071795862
2 -11.5 -16.799999999999997 65.200000000000003 1 0 -0 0 0 1 0 -1 0 4.7999999999999998
1 -11.5 -12 60 0 0 1 
8 1.5707963267948966 3.1415926535897931
2 -11.5 -16.799999999999997 64.799999999999997 -1 -0 0 0 0 1 -0 1 0 4.7999999999999998
1 -11.5 -41 60 -0 1 0 
8 1.5707963267948966 3.1415926535897931
2 -11.5 -36.200000000000003 64.799999999999997 1 0 -0 0 0 1 0 -1 0 4.7999999999999998
8 4.7123889803846897 6.2831853071795862
2 -7 -36.200000000000003 65.200000000000003 -1 -0 0 0 0 1 -0 1 0 4.7999999999999998
1 -11.5 -36.200000000000003 70 1 0 -0 
1 -7 -41 70 -0 1 0 
8 4.7123889803846897 6.2831853071795862
2 -7 -16.799999999999997 65.200000000000003 1 0 -0 0 0 1 0 -1 0 4.7999999999999998
1 -7 -16.5 60 -0 0 -1 
1 -7 -16.5 62.125880325350572 -0 1 0 
8 1.5707963267948966 3.1415926535897931
2 -7 -16.799999999999997 64.799999999999997 -1 -0 0 0 0 1 -0 1 0 4.7999999999999998
1 -7 -41 60 -0 1 0 
8 1.5707963267948966 3.1415926535897931
2 -7 -36.200000000000003 64.799999999999997 1 0 -0 0 0 1 0 -1 0 4.7999999999999998
1 -11.5 -36.200000000000003 60 1 0 -0 
1 20.649999999999999 -2.8166876380389037e-16 -19 0 0 1 
1 17.800000000000001 -7 -23.5 0 0 1 
1 -6.7999999999999998 -7 -23.5 0 0 1 
1 17.800000000000001 7 -23.5 0 0 1 
1 -6.7999999999999998 7 -23.5 0 0 1 
1 11 -2.6942229581241772e-15 6 0 0 1 
2 0 0 6 0 0 1 1 0 -0 -0 1 0 11
1 -7.3499999999999996 -2.8166876380389116e-16 -19 0 0 1 
1 7.6500000000000004 -2.8166876380389135e-16 3 0 0 1 
2 -6.5 -36 40 0 -1 1.1102230246251565e-16 -1 1.3596310734468911e-32 1.2246467991473532e-16 -1.2246467991473532e-16 -1.1102230246251565e-16 -1 1.1499999999999999
1 1.1499999999999999 -6.5 3 0 0 1 
2 7.9602041944577955e-16 -36 46.5 0 -1 1.1102230246251565e-16 -1 1.3596310734468911e-32 1.2246467991473532e-16 -1.2246467991473532e-16 -1.1102230246251565e-16 -1 1.1499999999999999
1 3.2000000000000002 -7.8377395145430609e-16 3 0 0 1 
2 0 -36 40 0 -1 1.1102230246251565e-16 -1 1.3596310734468911e-32 1.2246467991473532e-16 -1.2246467991473532e-16 -1.1102230246251565e-16 -1 3.2000000000000002
1 1.1499999999999999 6.5 3 0 0 1 
2 -7.9602041944577955e-16 -36 33.5 0 -1 1.1102230246251565e-16 -1 1.3596310734468911e-32 1.2246467991473532e-16 -1.2246467991473532e-16 -1.1102230246251565e-16 -1 1.1499999999999999
1 -5.3499999999999996 -2.8166876380389116e-16 3 0 0 1 
2 6.5 -36 40 0 -1 1.1102230246251565e-16 -1 1.3596310734468911e-32 1.2246467991473532e-16 -1.2246467991473532e-16 -1.1102230246251565e-16 -1 1.1499999999999999
1 -11.5 -16.799999999999997 70 1 0 -0 
1 -11.5 -11.999999999999996 65.200000000000003 1 0 -0 
7 0 0  7 38 7  -9.8466571564383418 -11.999999999999998 65.200000000000003  -9.8938721689532194 -11.999999999999998 65.276086643898921  -9.9405177813797305 -12.001407087612739 65.352868626055553  -9.9865520332556024 -12.004267564667135 65.430297127308066  -10.031935880344937 -12.008625539709547 65.508322081816843  -10.076633194638225 -12.014522928003791 65.586892177064883  -10.120610764352335 -12.02199945153113 65.665954853857585  -10.246665883456924 -12.048515952459812 65.897787788963754  -10.326792640146262 -12.071885755950836 66.051827088876877  -10.403867629671726 -12.101451963252035 66.206959368145277  -10.477619046908369 -12.137383124343149 66.362560808912534  -10.547848961255964 -12.17976361282356 66.518005032174372  -10.614428061961908 -12.228590813340917 66.672669516570707  -10.728023194963153 -12.328306305844773 66.949639951990903  -10.776297373793545 -12.376945847837533 67.072339254968284  -10.822080079199635 -12.429627395435178 67.193710458405533  -10.865366117318301 -12.486247050349551 67.313430005296098  -10.906174846124467 -12.546659365663205 67.43118371226781  -10.944547060396632 -12.610676155925461 67.546670232519403  -10.998334088895595 -12.711375717049901 67.715427856510672  -11.015547886593934 -12.74551477412084 67.770635493041723  -11.032193359141624 -12.780460830407318 67.825202590929692  -11.048281094344713 -12.816190687723367 67.879105117918115  -11.063822178451115 -12.852679597751049 67.932319846914723  -11.078828196150583 -12.889901262040416 67.984824355991449  -11.120316956531294 -12.998547442628603 68.133134712528644  -11.145498381741833 -13.071702676978004 68.227107189932454  -11.168950781689608 -13.147152964978931 68.318434237550136  -11.190768961865732 -13.224751430425133 68.407042800369325  -11.211046565554808 -13.304344763125894 68.492867599910696  -11.229875381620563 -13.385773091049009 68.57585174272775  -11.326124656050002 -13.843605770171999 69.017149047000174  -11.377006106545684 -14.251080101046494 69.318458957449224  -11.409627637120442 -14.681063966403958 69.561390087612182  -11.430405129918384 -15.125974733452978 69.748212482913345  -11.443413665928594 -15.58018136040622 69.881144959450168  -11.450932410002549 -16.039392146314974 69.961771502052216  -11.453590446367265 -16.500000600000003 69.990615864374817 
 0 8 0.076455107621144061 6 0.22294953682024604 6 0.34117725726497949 6 0.39961713580014979 6 0.50858679633090131 6 1 8
1 -11.5 -16.5 69.990615826801402 1 0 -0 
8 1.5707963267948966 3.1415926535897931
2 -0.50000000000000133 -12 71 0 -1 -0 0 0 1 -1 -0 0 11
1 -11.5 -12 60 0 0 1 
8 4.7123889803846897 6.2831853071795862
2 -0.50000000000000133 -12 90 -0 1 0 0 0 1 1 0 -0 11
1 -11.5 -12 101 1 0 -0 
8 4.7123889803846897 6.2831853071795862
2 0.50000000000000133 -12 90 0 -1 -0 0 0 1 -1 -0 0 11
1 11.5 -12 60 0 0 1 
8 1.5707963267948966 3.1415926535897931
2 0.50000000000000133 -12 71 -0 1 0 0 0 1 1 0 -0 11
1 -11.5 -12 60 1 0 -0 
8 1.5707963267948966 3.1415926535897931
2 -0.50000000000000133 -12 71 0 -1 -0 0 0 1 -1 -0 0 11
1 -11.5 -11.999999999999996 64.799999999999997 1 0 -0 
7 0 0  7 8 2  -9.586253353280437 -11.999999999999996 64.799999999999997  -9.2550393725789384 -11.999999999999996 64.314597718902846  -8.9026670252962052 -12.057266476348186 63.863168018465835  -8.5353496918252922 -12.157379689859454 63.448382108252915  -8.1584695715524802 -12.289797864890943 63.069586111215457  -7.7757974849522835 -12.446659529257747 62.724773094164462  -7.3895004209775301 -12.622494995442272 62.411176497826574  -6.999999400000001 -12.813888910829565 62.125879885870397 
 0 8 1 8
1 -11.5 -16.799999999999997 60 1 0 -0 
1 -11.5 -16.5 60 1 0 -0 
8 1.5707963267948966 3.1415926535897931
2 0.50000000000000133 -16.5 71 -0 1 0 0 0 1 1 0 -0 11
1 11.5 -16.5 60 0 0 1 
8 4.7123889803846897 6.2831853071795862
2 0.50000000000000133 -16.5 90 0 -1 -0 0 0 1 -1 -0 0 11
1 -11.5 -16.5 101 1 0 -0 
8 4.7123889803846897 6.2831853071795862
2 -0.50000000000000133 -16.5 90 -0 1 0 0 0 1 1 0 -0 11
1 -11.5 -16.5 60 0 0 1 
8 1.5707963267948966 3.1415926535897931
2 -0.50000000000000133 -16.5 71 0 -1 -0 0 0 1 -1 -0 0 11
8 1.5707963267948966 3.1415926535897931
2 -0.50000000000000133 -16.5 71 0 -1 -0 0 0 1 -1 -0 0 11
1 -0.500000000000002 -16.5 60 -0 1 0 
1 -11.500000000000002 -16.5 71 -0 1 0 
1 -11.500000000000002 -16.5 90 -0 1 0 
1 -0.500000000000002 -16.5 101 -0 1 0 
1 0.500000000000002 -16.5 101 -0 1 0 
1 11.500000000000002 -16.5 90 -0 1 0 
1 11.500000000000002 -16.5 71 -0 1 0 
1 0.500000000000002 -16.5 60 -0 1 0 
1 -6 -6.2000000000000002 -22.5 0 0 1 
1 -6 -6.2000000000000002 -6.5 0 -1 0 
1 -6 6.2000000000000002 -22.5 0 0 1 
1 -6 -6.2000000000000002 -22.5 -0 1 0 
1 -10.699999999999999 6.2000000000000002 -6.5 1 0 -0 
1 -10.699999999999999 -6.2000000000000002 -6.5 1 0 -0 
1 -10.699999999999999 -6.2000000000000002 -6.5 -0 1 0 
1 -6 6.2000000000000002 -22.5 1 0 -0 
1 17 -6.2000000000000002 -22.5 -0 1 0 
1 -6 -6.2000000000000002 -22.5 1 0 -0 
1 17 -6.2000000000000002 -22.5 0 0 1 
1 17 -6.2000000000000002 -6.5 0 -1 0 
1 17 6.2000000000000002 -22.5 0 0 1 
1 -10.699999999999999 -6.2000000000000002 -6.5 0 0 1 
1 -10.699999999999999 -6.2000000000000002 -4 -0 1 0 
1 -10.699999999999999 6.2000000000000002 -6.5 0 0 1 
1 -10.699999999999999 6.2000000000000002 -6.5 1 0 -0 
1 21.699999999999999 -6.2000000000000002 -6.5 -0 1 0 
1 -10.699999999999999 -6.2000000000000002 -6.5 1 0 -0 
1 -10.699999999999999 6.2000000000000002 -4 1 0 -0 
1 -6 -6.2000000000000002 -4 0 -1 0 
1 -10.699999999999999 -6.2000000000000002 -4 1 0 -0 
1 21.699999999999999 -6.2000000000000002 -6.5 0 0 1 
1 21.699999999999999 -6.2000000000000002 -4 -0 1 0 
1 21.699999999999999 6.2000000000000002 -6.5 0 0 1 
1 -10.699999999999999 6.2000000000000002 -4 1 0 -0 
1 -10.699999999999999 -6.2000000000000002 -4 1 0 -0 
1 17 -6.2000000000000002 -4 0 -1 0 
1 17 -6.2000000000000002 -22.5 0 0 1 
1 17 -6.2000000000000002 0 -0 1 0 
1 17 6.2000000000000002 -22.5 0 0 1 
1 -6 -6.2000000000000002 0 -0 1 0 
1 -6 6.2000000000000002 0 1 0 -0 
1 -6 -6.2000000000000002 0 1 0 -0 
2 0 0 0 0 0 1 1 0 -0 -0 1 0 5.9000000000000004
1 -6 -6.2000000000000002 -22.5 0 0 1 
1 -6 6.2000000000000002 -22.5 0 0 1 
2 0 0 4 0 0 1 1 0 -0 -0 1 0 5.9000000000000004
1 5.9000000000000004 -1.4450832229938768e-15 0 0 0 1 
2 0 0 4 0 0 1 1 0 -0 -0 1 0 9
2 0 0 6 0 0 1 1 0 -0 -0 1 0 9
1 9 -2.2043642384652358e-15 4 0 0 1 
Polygon3D 0
PolygonOnTriangulations 0
Surfaces 61
1 -11.5 -41 29 0 0 1 1 0 -0 -0 1 0 
1 -3.1077640703991833 -36.5 69.458976963463385 0 1 0 0 -0 1 1 0 -0 
2 -0.50000000000000133 -41 40 -0 1 0 -1 -0 0 -0 -0 -1 11
1 -3.0566979941194754 -40.999999999999993 69.656700550601329 -0 -1 -0 0 0 -1 1 -0 0 
2 0.50000000000000133 -41 40 -0 1 0 1 0 -0 -0 0 -1 11
1 11.5 -41 29 1 0 -0 0 0 1 0 -1 0 
1 -11.699999999999999 -11 -11 -0 1 0 0 0 1 1 0 -0 
1 -11.699999999999999 -11 -11 1 0 -0 0 0 1 0 -1 0 
1 -5.4999999999999991 -38.750000000000007 100.99999999999999 0 0 1 1 0 -0 -0 1 0 
1 22.699999999999999 -11 -11 1 0 -0 0 0 1 0 -1 0 
1 -11.699999999999999 -11 -11 -0 1 0 0 0 1 1 0 -0 
1 -11.499999999999996 -32.398057923339699 61.367490771957172 -1 -0 -0 0 0 -1 0 -1 0 
2 -11.5 -36.200000000000003 65.200000000000003 1 0 -0 0 -1 0 -0 0 1 4.7999999999999998
1 -7 -41 60 1 0 -0 0 0 1 0 -1 0 
2 -11.5 -36.200000000000003 64.799999999999997 1 0 -0 0 -1 0 0 -0 -1 4.7999999999999998
2 19.5 0 -19 0 0 1 1 0 -0 -0 1 0 1.1499999999999999
1 -6.7999999999999998 -7 -23.5 -0 1 0 0 0 1 1 0 -0 
1 17.800000000000001 -7 -23.5 1 0 -0 0 0 1 0 -1 0 
1 -6.7999999999999998 7 -23.5 -0 1 0 0 0 1 1 0 -0 
1 -6.7999999999999998 -7 -23.5 1 0 -0 0 0 1 0 -1 0 
2 0 0 6 0 0 1 1 0 -0 -0 1 0 11
2 -8.5 0 -19 0 0 1 1 0 -0 -0 1 0 1.1499999999999999
2 6.5 0 3 0 0 1 1 0 -0 -0 1 0 1.1499999999999999
2 0 -6.5 3 0 0 1 1 0 -0 -0 1 0 1.1499999999999999
2 0 0 3 0 0 1 1 0 -0 -0 1 0 3.2000000000000002
2 0 6.5 3 0 0 1 1 0 -0 -0 1 0 1.1499999999999999
2 -6.5 0 3 0 0 1 1 0 -0 -0 1 0 1.1499999999999999
1 -11.5 -41 70 0 0 1 1 0 -0 -0 1 0 
2 -11.5 -16.799999999999997 65.200000000000003 1 0 -0 0 1 0 0 -0 1 4.7999999999999998
1 -0.3663297845260397 -12.000000000000004 79.979976967982438 0 1 0 0 -0 1 1 0 -0 
2 -11.5 -16.799999999999997 64.799999999999997 1 0 -0 0 1 0 -0 0 -1 4.7999999999999998
1 -11.5 -41 60 0 0 1 1 0 -0 -0 1 0 
1 -11.5 -16.5 60 -0 1 0 0 0 1 1 0 -0 
2 -0.50000000000000133 -16.5 71 -0 1 0 -1 -0 0 -0 -0 -1 11
1 0 0 6 0 0 1 1 0 -0 -0 1 0 
2 -0.50000000000000133 -16.5 71 -0 1 0 -1 -0 0 -0 -0 -1 11
1 -11.5 -16.5 60 1 0 -0 0 0 1 0 -1 0 
2 -0.50000000000000133 -16.5 90 -0 1 0 -1 -0 0 0 0 1 11
1 -11.5 -16.5 101 0 0 1 1 0 -0 -0 1 0 
2 0.50000000000000133 -16.5 90 -0 1 0 1 0 -0 0 -0 1 11
1 11.5 -16.5 60 1 0 -0 0 0 1 0 -1 0 
2 0.50000000000000133 -16.5 71 -0 1 0 1 0 -0 -0 0 -1 11
1 -11.5 -16.5 60 0 0 1 1 0 -0 -0 1 0 
1 -6 -6.2000000000000002 -22.5 1 0 -0 0 0 1 0 -1 0 
1 5.5 -6.1999999999999993 -10.222677595628413 -0 -1 -0 0 0 -1 1 -0 0 
1 -10.699999999999999 -6.2000000000000002 -6.5 0 0 1 1 0 -0 -0 1 0 
1 5.5000000000000018 6.2000000000000028 -10.222677595628422 0 1 0 0 -0 1 1 0 -0 
1 -6 -6.2000000000000002 -22.5 0 0 1 1 0 -0 -0 1 0 
1 -10.699999999999999 -6.2000000000000002 -6.5 1 0 -0 0 0 1 0 -1 0 
1 17 -6.2000000000000002 -22.5 1 0 -0 0 0 1 0 -1 0 
1 -10.699999999999999 -6.2000000000000002 -6.5 0 0 1 1 0 -0 -0 1 0 
1 -10.699999999999999 -6.2000000000000002 -4 0 0 1 1 0 -0 -0 1 0 
1 21.699999999999999 -6.2000000000000002 -6.5 1 0 -0 0 0 1 0 -1 0 
1 -6 -6.2000000000000002 -22.5 1 0 -0 0 0 1 0 -1 0 
1 -10.699999999999999 -6.2000000000000002 -4 0 0 1 1 0 -0 -0 1 0 
1 17 -6.2000000000000002 -22.5 1 0 -0 0 0 1 0 -1 0 
1 -6 -6.2000000000000002 0 0 0 1 1 0 -0 -0 1 0 
2 0 0 0 0 0 1 1 0 -0 -0 1 0 5.9000000000000004
1 0 0 4 0 0 1 1 0 -0 -0 1 0 
2 0 0 4 0 0 1 1 0 -0 -0 1 0 9
1 0 0 6 0 0 1 1 0 -0 -0 1 0 
Triangulations 0

TShapes 422
Ve
1.5e-07
-0.500000000000002 -36.5 29
0 0

0101101
*
Ve
1.5e-07
0 -36.5 29
0 0

0101101
*
Ed
 1.5e-07 1 1 0
1  1 0 11 11.5
2  1 1 0 11 11.5
2  2 2 0 11 11.5
0

0101000
+422 0 -421 0 *
Ve
1.5e-07
-0.500000000000002 -41 29
0 0

0101101
*
Ed
 1e-07 1 1 0
1  2 0 0 4.5
2  3 1 0 0 4.5
2  4 3 0 0 4.5
4 G1 1 0 3 0
0

0101000
+419 0 -422 0 *
Ve
1.5e-07
0.500000000000002 -36.5 29
0 0

0101101
*
Ed
 1.5e-07 1 1 0
1  3 0 11.5 12
2  5 1 0 11.5 12
2  6 2 0 11.5 12
0

0101000
+421 0 -417 0 *
Ve
1.5e-07
0.500000000000002 -41 29
0 0

0101101
*
Ed
 1.5e-07 1 1 0
1  4 0 11 12
2  7 1 0 11 12
2  8 4 0 11 12
0

0101000
+419 0 -415 0 *
Ed
 1e-07 1 1 0
1  5 0 0 4.5
2  9 1 0 0 4.5
2  10 5 0 0 4.5
4 G1 1 0 5 0
0

0101000
+415 0 -417 0 *
Wi

0101100
-420 0 -418 0 -416 0 +414 0 +413 0 *
Ve
1.00000002020667e-07
-2.02066721859313e-15 -39 29
0 0

0101101
*
Ed
 1e-07 1 1 0
1  6 0 0.5 3
2  11 1 0 0.5 3
0

0101000
+421 0 -411 0 *
Wi

0101000
i410 0 *
Fa
0  1e-07 1 0

0101000
+412 0 +409 0 *
Ve
1.5e-07
11.5 -36.5 40
0 0

0101101
*
Ed
 1.5e-07 1 1 0
1  7 0 1.5707963267949 3.14159265358979
2  12 2 0 1.5707963267949 3.14159265358979
2  13 5 0 1.5707963267949 3.14159265358979
0

0101000
+407 0 -417 0 *
Ve
1.5e-07
11.5 -36.5 79
0 0

0101101
*
Ed
 1.5e-07 1 1 0
1  8 0 11 50
2  14 2 0 11 50
2  15 6 0 11 50
0

0101000
+407 0 -405 0 *
Ve
1.5e-07
11.7 -36.5 79
0 0

0101101
*
Ed
 1.5e-07 1 1 0
1  9 0 0 0.200000000000001
2  16 2 8 0 0.200000000000001
2  17 7 0 0 0.200000000000001
0

0101000
+403 8 -405 8 *
Ve
1.5e-07
11.7 -36.5 101
0 0

0101101
*
Ed
 1.5e-07 1 1 0
1  10 0 0 22
2  18 2 8 0 22
2  19 8 0 0 22
0

0101000
-401 8 +403 8 *
Ve
1.5e-07
-22.7 -36.5 101
0 0

0101101
*
Ed
 1e-07 1 1 0
1  11 0 0 34.4
2  20 2 0 0 34.4
2  21 9 0 0 34.4
0

0101000
+401 0 -399 0 *
Ve
1.5e-07
-22.7 -36.5 79
0 0

0101101
*
Ed
 1.5e-07 1 1 0
1  12 0 0 22
2  22 2 8 0 22
2  23 10 0 0 22
0

0101000
-399 8 +397 8 *
Ve
1.5e-07
-11.5 -36.5 79
0 0

0101101
*
Ed
 1.5e-07 1 1 0
1  13 0 23.2 34.4
2  24 2 8 23.2 34.4
2  25 11 0 23.2 34.4
0

0101000
+395 8 -397 8 *
Ve
1.5e-07
-11.5 -36.5 69.9906158268014
0 0

0101101
*
Ed
 1.5e-07 1 1 0
1  14 0 40.9906158268014 50
2  26 2 0 40.9906158268014 50
2  27 12 0 40.9906158268014 50
0

0101000
+393 0 -395 0 *
Ve
1.5e-07
-7 -36.5 69.9906158268014
0 0

0101101
*
Ed
 1.5e-07 1 1 0
1  15 0 0 4.5
2  28 2 0 0 4.5
2  29 13 0 0 4.5
0

0101000
+393 0 -391 0 *
Ve
1.5e-07
-7 -36.5 60.0093841731986
0 0

0101101
*
Ed
 1.5e-07 1 1 0
1  16 0 -25.4906158268014 -15.5093841731986
2  30 2 0 -25.4906158268014 -15.5093841731986
2  31 14 0 -25.4906158268014 -15.5093841731986
0

0101000
+391 0 -389 0 *
Ve
1.5e-07
-11.5 -36.4999999999999 60.0093841731986
0 0

0101101
*
Ed
 1.5e-07 1 1 0
1  17 0 0 4.5
2  32 2 0 0 4.5
2  33 15 0 0 4.5
0

0101000
+387 0 -389 0 *
Ve
1.5e-07
-11.5 -36.5 40
0 0

0101101
*
Ed
 1.5e-07 1 1 0
1  18 0 11 31.0093841731986
2  34 2 0 11 31.0093841731986
2  35 12 0 11 31.0093841731986
0

0101000
+385 0 -387 0 *
Ed
 1.5e-07 1 1 0
1  19 0 1.5707963267949 3.14159265358979
2  36 2 0 1.5707963267949 3.14159265358979
2  37 3 0 1.5707963267949 3.14159265358979
0

0101000
+385 0 -422 0 *
Wi

0101100
-420 0 -416 0 +406 0 -404 0 +402 7 -400 7 -398 0 +396 7 +394 7 +392 0 
-390 0 -388 0 +386 0 +384 0 -383 0 *
Ve
1.5e-07
-20.65 -36.5 90
0 0

0101101
*
Ed
 1.5e-07 1 1 0
1  20 0 0 6.28318530717959
2  38 2 0 0 6.28318530717959
2  39 16 14 0 6.28318530717959
0

0101100
+381 0 -381 0 *
Wi

0101100
-380 0 *
Ve
2.00000003552714e-07
-17.8 -36.5 83
0 0

0101101
*
Ve
2e-07
6.8 -36.5 83
0 0

0101101
*
Ed
 2e-07 1 1 0
1  21 0 -19.6461179648004 4.95388203519959
2  40 2 0 -19.6461179648004 4.95388203519959
2  41 17 20 -19.6461179648004 4.95388203519959
0

0101000
+378 0 -377 0 *
Ve
2.00000003552714e-07
-17.8 -36.5 97
0 0

0101101
*
Ed
 2e-07 1 1 0
1  22 0 6.77051151826831 20.7705115182683
2  42 2 0 6.77051151826831 20.7705115182683
2  43 18 20 6.77051151826831 20.7705115182683
0

0101000
+378 0 -375 0 *
Ve
2e-07
6.8 -36.5 97
0 0

0101101
*
Ed
 2e-07 1 1 0
1  23 0 -19.6461179648004 4.95388203519959
2  44 2 0 -19.6461179648004 4.95388203519959
2  45 19 20 -19.6461179648004 4.95388203519959
0

0101000
+375 0 -373 0 *
Ed
 2e-07 1 1 0
1  24 0 6.77051151826831 20.7705115182683
2  46 2 0 6.77051151826831 20.7705115182683
2  47 20 20 6.77051151826831 20.7705115182683
0

0101000
+377 0 -373 0 *
Wi

0101100
+376 0 -374 0 -372 0 +371 0 *
Ve
1.00000007105427e-07
-11 -36.5 40
0 0

0101101
*
Ed
 1e-07 1 1 0
1  25 0 1.22464679914735e-16 1.5707963267949
2  48 2 0 1.22464679914735e-16 1.5707963267949
2  49 21 26 1.22464679914735e-16 1.5707963267949
0

0101000
+369 0 -421 0 *
Ed
 1e-07 1 1 0
1  26 0 1.5707963267949 6.28318530717959
2  50 2 0 1.5707963267949 6.28318530717959
2  51 21 26 1.5707963267949 6.28318530717959
0

0101000
+421 0 -369 0 *
Wi

0101100
+368 0 +367 0 *
Ve
1.5e-07
7.35 -36.5 90
0 0

0101101
*
Ed
 1.5e-07 1 1 0
1  27 0 0 6.28318530717959
2  52 2 0 0 6.28318530717959
2  53 22 32 0 6.28318530717959
0

0101100
+365 0 -365 0 *
Wi

0101100
-364 0 *
Fa
0  1.5e-07 2 0

0101000
+382 0 +379 0 +370 0 +366 0 +363 0 *
Ve
1.5e-07
-11.5 -41 40
0 0

0101101
*
Ed
 1.5e-07 1 1 0
1  28 0 1.5707963267949 3.14159265358979
2  54 3 0 1.5707963267949 3.14159265358979
2  55 4 0 1.5707963267949 3.14159265358979
0

0101000
+361 0 -419 0 *
Ed
 1.5e-07 1 1 0
1  29 0 -0 4.5
2  56 3 0 -0 4.5
2  57 12 0 -0 4.5
0

0101000
+361 0 -385 0 *
Wi

0101100
+360 0 -359 0 +418 0 -383 0 *
Fa
0  1e-07 3 0

0101000
+358 0 *
Ve
1.5e-07
11.5 -41 40
0 0

0101101
*
Ed
 1.5e-07 1 1 0
1  30 0 1.5707963267949 3.14159265358979
2  58 4 0 1.5707963267949 3.14159265358979
2  59 5 0 1.5707963267949 3.14159265358979
0

0101000
+356 0 -415 0 *
Ve
1.5e-07
-11.5 -41 79
0 0

0101101
*
Ed
 1e-07 1 1 0
1  31 0 11 50
2  60 4 0 11 50
2  61 12 0 11 50
0

0101000
+361 0 -354 0 *
Ve
1.5e-07
11.5 -41 79
0 0

0101101
*
Ed
 1.5e-07 1 1 0
1  32 0 11 50
2  62 4 0 11 50
2  63 6 0 11 50
0

0101000
+356 0 -352 0 *
Ve
1.5e-07
-22.7 -41 79
0 0

0101101
*
Ed
 1.5e-07 1 1 0
1  33 0 23.2 34.4
2  64 4 8 23.2 34.4
2  65 11 0 23.2 34.4
0

0101000
+354 8 -350 8 *
Ve
1.5e-07
11.7 -41 79
0 0

0101101
*
Ed
 1.5e-07 1 1 0
1  34 0 0 0.200000000000001
2  66 4 8 0 0.200000000000001
2  67 7 0 0 0.200000000000001
0

0101000
+348 8 -352 8 *
Ve
1.5e-07
-22.7 -41 101
0 0

0101101
*
Ed
 1.5e-07 1 1 0
1  35 0 0 22
2  68 4 8 0 22
2  69 10 0 0 22
0

0101000
-346 8 +350 8 *
Ve
1.5e-07
11.7 -41 101
0 0

0101101
*
Ed
 1.5e-07 1 1 0
1  36 0 0 22
2  70 4 8 0 22
2  71 8 0 0 22
0

0101000
-344 8 +348 8 *
Ed
 1e-07 1 1 0
1  37 0 0 34.4
2  72 4 0 0 34.4
2  73 9 0 0 34.4
0

0101000
+344 0 -346 0 *
Wi

0101100
+414 0 +360 0 -355 0 -353 0 +351 0 -349 7 -347 7 -345 7 +343 7 +342 0 
*
Ve
1.5e-07
-20.65 -41 90
0 0

0101101
*
Ed
 1.5e-07 1 1 0
1  38 0 0 6.28318530717959
2  74 4 0 0 6.28318530717959
2  75 16 14 0 6.28318530717959
0

0101100
+340 0 -340 0 *
Wi

0101100
+339 0 *
Ve
1.5e-07
-7.65 -41 40
0 0

0101101
*
Ed
 1.5e-07 1 1 0
1  39 0 0 6.28318530717959
2  76 4 0 0 6.28318530717959
2  77 23 38 0 6.28318530717959
0

0101100
+337 0 -337 0 *
Wi

0101100
-336 0 *
Ve
2.00000000888178e-07
6.8 -41 97
0 0

0101101
*
Ve
2e-07
-17.8 -41 97
0 0

0101101
*
Ed
 2e-07 1 1 0
1  40 0 -4.92834899705974 19.6716510029403
2  78 4 0 -4.92834899705974 19.6716510029403
2  79 19 20 -4.92834899705974 19.6716510029403
0

0101000
+334 0 -333 0 *
Ve
2.00000003552714e-07
-17.8 -41 83
0 0

0101101
*
Ed
 2e-07 1 1 0
1  41 0 -20.6716497246993 -6.67164972469934
2  80 4 0 -20.6716497246993 -6.67164972469934
2  81 18 20 -20.6716497246993 -6.67164972469934
0

0101000
+333 0 -331 0 *
Ve
2.00000000888178e-07
6.8 -41 83
0 0

0101101
*
Ed
 2e-07 1 1 0
1  42 0 -4.92834899705974 19.6716510029403
2  82 4 0 -4.92834899705974 19.6716510029403
2  83 17 20 -4.92834899705974 19.6716510029403
0

0101000
+329 0 -331 0 *
Ed
 2e-07 1 1 0
1  43 0 -20.6716497246993 -6.67164972469934
2  84 4 0 -20.6716497246993 -6.67164972469934
2  85 20 20 -20.6716497246993 -6.67164972469934
0

0101000
+334 0 -329 0 *
Wi

0101100
-332 0 -330 0 +328 0 +327 0 *
Ve
1.5e-07
7.35 -41 90
0 0

0101101
*
Ed
 1.5e-07 1 1 0
1  44 0 0 6.28318530717959
2  86 4 0 0 6.28318530717959
2  87 22 32 0 6.28318530717959
0

0101100
+325 0 -325 0 *
Wi

0101100
+324 0 *
Ve
1.5e-07
-1.15 -41 46.5
0 0

0101101
*
Ed
 1.5e-07 1 1 0
1  45 0 0 6.28318530717959
2  88 4 0 0 6.28318530717959
2  89 24 44 0 6.28318530717959
0

0101100
+322 0 -322 0 *
Wi

0101100
-321 0 *
Ve
1.5e-07
-3.2 -41 40
0 0

0101101
*
Ed
 1.5e-07 1 1 0
1  46 0 0 6.28318530717959
2  90 4 0 0 6.28318530717959
2  91 25 50 0 6.28318530717959
0

0101100
+319 0 -319 0 *
Wi

0101100
-318 0 *
Ve
1.5e-07
-1.15 -41 33.5
0 0

0101101
*
Ed
 1.5e-07 1 1 0
1  47 0 0 6.28318530717959
2  92 4 0 0 6.28318530717959
2  93 26 56 0 6.28318530717959
0

0101100
+316 0 -316 0 *
Wi

0101100
-315 0 *
Ve
1.5e-07
5.35 -41 40
0 0

0101101
*
Ed
 1.5e-07 1 1 0
1  48 0 0 6.28318530717959
2  94 4 0 0 6.28318530717959
2  95 27 62 0 6.28318530717959
0

0101100
+313 0 -313 0 *
Wi

0101100
-312 0 *
Fa
0  1.5e-07 4 0

0101000
+341 0 +338 0 +335 0 +326 0 +323 0 +320 0 +317 0 +314 0 +311 0 *
Ed
 1e-07 1 1 0
1  49 0 -0 4.5
2  96 5 0 -0 4.5
2  97 6 0 -0 4.5
4 G1 5 0 6 0
0

0101000
+356 0 -407 0 *
Wi

0101100
+355 0 -309 0 +413 0 -406 0 *
Fa
0  1e-07 5 0

0101000
+308 0 *
Ed
 1.5e-07 1 1 0
1  50 0 -4.5 0
2  98 6 0 -4.5 0
2  99 7 7 -4.5 0
0

0101000
+405 0 -352 0 *
Wi

0101100
-351 0 +306 0 +404 0 +309 0 *
Fa
0  1e-07 6 0

0101000
+305 0 *
Ed
 1e-07 1 1 0
1  51 0 0 4.5
2  100 7 0 0 4.5
2  101 8 0 0 4.5
0

0101000
-403 8 +348 8 *
Wi

0101100
-347 7 +306 0 +402 7 +303 7 *
Fa
0  1e-07 7 7

0101000
+302 0 *
Ed
 1.5e-07 1 1 0
1  52 0 0 4.5
2  102 8 0 0 4.5
2  103 9 8 0 4.5
0

0101000
-401 8 +344 8 *
Wi

0101100
-303 0 -400 0 +300 0 +343 0 *
Fa
0  1e-07 8 0

0111000
+299 0 *
Ed
 1.5e-07 1 1 0
1  53 0 0 4.5
2  104 9 8 0 4.5
2  105 10 0 0 4.5
0

0101000
-399 8 +346 8 *
Wi

0101000
+398 0 -297 7 -342 0 +300 7 *
Fa
0  1.5e-07 9 0

0111000
+296 0 *
Ed
 1e-07 1 1 0
1  54 0 0 4.5
2  106 10 0 0 4.5
2  107 11 0 0 4.5
0

0101000
-397 8 +350 8 *
Wi

0101100
-294 0 -396 0 +297 0 +345 0 *
Fa
0  1e-07 10 0

0111000
+293 0 *
Ed
 1.5e-07 1 1 0
1  55 0 -4.5 0
2  108 11 7 -4.5 0
2  109 12 0 -4.5 0
0

0101000
+395 0 -354 0 *
Wi

0101100
-349 7 -294 7 +394 7 -291 0 *
Fa
0  1e-07 11 7

0101000
+290 0 *
Ve
1.5e-07
-11.5 -36.2 70
0 0

0101101
*
Ed
 1.5e-07 1 1 0
1  56 0 6.22064454538309 6.28318530717959
2  110 12 0 6.22064454538309 6.28318530717959
2  111 13 0 6.22064454538309 6.28318530717959
0

0101000
+393 0 -288 0 *
Ve
1.5e-07
-11.5 -16.8 70
0 0

0101101
*
Ed
 1.5e-07 1 1 0
1  57 0 4.8 24.2
2  112 12 0 4.8 24.2
2  113 28 0 4.8 24.2
0

0101000
+288 0 -286 0 *
Ve
1.5e-07
-11.5 -12 65.2
0 0

0101101
*
Ed
 1.5e-07 1 1 0
1  58 0 4.71238898038469 6.28318530717959
2  114 12 0 4.71238898038469 6.28318530717959
2  115 29 0 4.71238898038469 6.28318530717959
0

0101000
+284 0 -286 0 *
Ve
1.5e-07
-11.5 -12 64.8
0 0

0101101
*
Ed
 1.5e-07 1 1 0
1  59 0 4.8 5.2
2  116 12 0 4.8 5.2
2  117 30 0 4.8 5.2
0

0101000
+282 0 -284 0 *
Ve
1.5e-07
-11.5 -16.8 60
0 0

0101101
*
Ed
 1.5e-07 1 1 0
1  60 0 1.5707963267949 3.14159265358979
2  118 12 0 1.5707963267949 3.14159265358979
2  119 31 0 1.5707963267949 3.14159265358979
0

0101000
+282 0 -280 0 *
Ve
1.5e-07
-11.5 -36.2 60
0 0

0101101
*
Ed
 1.5e-07 1 1 0
1  61 0 4.8 24.2
2  120 12 0 4.8 24.2
2  121 32 0 4.8 24.2
0

0101000
+278 0 -280 0 *
Ed
 1.5e-07 1 1 0
1  62 0 3.07905189179333 3.14159265358979
2  122 12 0 3.07905189179333 3.14159265358979
2  123 15 0 3.07905189179333 3.14159265358979
0

0101000
+387 0 -278 0 *
Wi

0101000
-291 0 -392 0 +287 0 +285 0 -283 0 -281 0 +279 0 -277 0 -276 0 -384 0 
-359 0 +353 0 *
Fa
0  1.5e-07 12 0

0111000
+275 0 *
Ve
1e-07
-7 -36.2 70
0 0

0101101
*
Ed
 1e-07 1 1 0
1  63 0 6.2206445453831 6.28318530717959
2  124 13 0 6.2206445453831 6.28318530717959
2  125 14 0 6.2206445453831 6.28318530717959
0

0101000
+391 0 -273 0 *
Ed
 1e-07 1 1 0
1  64 0 0 4.5
2  126 13 0 0 4.5
2  127 28 0 0 4.5
4 G1 13 0 28 0
0

0101000
+288 0 -273 0 *
Wi

0101100
-390 0 -272 0 +271 0 +287 0 *
Fa
0  1e-07 13 0

0101000
+270 0 *
Ve
1e-07
-7 -16.8 70
0 0

0101101
*
Ed
 1e-07 1 1 0
1  65 0 4.8 24.2
2  128 14 0 4.8 24.2
2  129 28 0 4.8 24.2
0

0101000
+273 0 -268 0 *
Ve
1.50000003552714e-07
-7 -16.5 69.9906158268014
0 0

0101101
*
Ed
 1e-07 1 1 0
1  66 0 6.2206445453831 6.28318530717959
2  130 14 0 6.2206445453831 6.28318530717959
2  131 29 0 6.2206445453831 6.28318530717959
0

0101000
+266 0 -268 0 *
Ve
1.50000001776357e-07
-7 -16.5 62.1258803253506
0 0

0101101
*
Ed
 1.5e-07 1 1 0
1  67 0 -9.9906158268014 -2.12588032535058
2  132 14 0 -9.9906158268014 -2.12588032535058
2  133 33 0 -9.9906158268014 -2.12588032535058
0

0101000
+266 0 -264 0 *
Ve
1.15695661511142e-07
-7 -12.8138886160002 62.1258803253506
0 0

0101101
*
Ed
 1e-07 1 1 0
1  68 0 0 3.68611138399983
2  134 14 0 0 3.68611138399983
2  135 34 0 0 3.68611138399983
0

0101000
+264 0 -262 0 *
Ve
1e-07
-7 -16.8 60
0 0

0101101
*
Ed
 1e-07 1 1 0
1  69 0 2.16169587095826 3.14159265358979
2  136 14 0 2.16169587095826 3.14159265358979
2  137 31 0 2.16169587095826 3.14159265358979
0

0101000
+262 0 -260 0 *
Ve
1e-07
-7 -36.2 60
0 0

0101101
*
Ed
 1e-07 1 1 0
1  70 0 4.8 24.2
2  138 14 0 4.8 24.2
2  139 32 0 4.8 24.2
0

0101000
+258 0 -260 0 *
Ed
 1e-07 1 1 0
1  71 0 3.0790518917933 3.14159265358979
2  140 14 0 3.0790518917933 3.14159265358979
2  141 15 0 3.0790518917933 3.14159265358979
0

0101000
+389 0 -258 0 *
Wi

0101100
+388 0 -272 0 -267 0 +265 0 -263 0 -261 0 -259 0 +257 0 +256 0 *
Fa
0  1e-07 14 0

0101000
+255 0 *
Ed
 1e-07 1 1 0
1  72 0 0 4.5
2  142 15 0 0 4.5
2  143 32 0 0 4.5
4 G1 15 0 32 0
0

0101000
+278 0 -258 0 *
Wi

0101100
-386 0 -256 0 +253 0 +276 0 *
Fa
0  1e-07 15 0

0101000
+252 0 *
Ed
 1e-07 1 1 0
1  73 0 8.00000000000001 12.5
3  144 145CN 16 0 8.00000000000001 12.5
0

0101000
+340 63 -381 63 *
Wi

0101100
-380 0 +250 14 +339 0 -250 14 *
Fa
0  1e-07 16 14

0101000
+249 0 *
Ed
 1e-07 1 1 0
1  74 0 12.5 17
2  146 17 0 12.5 17
2  147 18 0 12.5 17
0

0101000
+331 64 -378 64 *
Ed
 1e-07 1 1 0
1  75 0 12.5 17
2  148 17 0 12.5 17
2  149 20 0 12.5 17
0

0101000
+329 64 -377 64 *
Wi

0101100
-247 20 -376 0 +246 20 -328 0 *
Fa
0  1e-07 17 20

0101000
+245 0 *
Ed
 1e-07 1 1 0
1  76 0 12.5 17
2  150 18 0 12.5 17
2  151 19 0 12.5 17
0

0101000
+333 64 -375 64 *
Wi

0101100
-247 20 -374 0 +243 20 -330 0 *
Fa
0  1e-07 18 20

0101000
+242 0 *
Ed
 1e-07 1 1 0
1  77 0 12.5 17
2  152 19 0 12.5 17
2  153 20 0 12.5 17
0

0101000
+334 64 -373 64 *
Wi

0101100
-243 20 -372 0 +240 20 -332 0 *
Fa
0  1e-07 19 20

0101000
+239 0 *
Wi

0101100
-246 20 -371 0 +240 20 -327 0 *
Fa
0  1e-07 20 20

0101000
+237 0 *
Ve
1e-07
-11 -36 40
0 0

0101101
*
Ed
 1e-07 1 1 0
1  78 0 0 0.5
3  154 155CN 21 0 0 0.5
0

0101000
+235 65 -369 65 *
Ed
 1e-07 1 1 0
1  79 0 0 6.28318530717959
2  156 21 0 0 6.28318530717959
2  157 35 0 0 6.28318530717959
0

0101000
+235 65 -235 65 *
Wi

0101100
-368 0 -367 0 +234 26 +233 26 -234 26 *
Fa
0  1e-07 21 26

0101000
+232 0 *
Ed
 1e-07 1 1 0
1  80 0 8.00000000000001 12.5
3  158 159CN 22 0 8.00000000000001 12.5
0

0101000
+325 66 -365 66 *
Wi

0101100
-364 0 +230 32 +324 0 -230 32 *
Fa
0  1e-07 22 32

0101000
+229 0 *
Ve
1e-07
-7.65 -36 40
0 0

0101101
*
Ed
 1e-07 1 1 0
1  81 0 3 7.99999999999999
3  160 161CN 23 0 3 7.99999999999999
0

0101000
+227 67 -337 67 *
Ed
 1e-07 1 1 0
1  82 0 0 6.28318530717959
2  162 23 38 0 6.28318530717959
2  163 35 26 0 6.28318530717959
0

0101100
+227 0 -227 0 *
Wi

0101100
-336 0 +226 38 +225 0 -226 38 *
Fa
0  1e-07 23 38

0101000
+224 0 *
Ve
1e-07
-1.15 -36 46.5
0 0

0101101
*
Ed
 1e-07 1 1 0
1  83 0 3 7.99999999999999
3  164 165CN 24 0 3 7.99999999999999
0

0101000
+222 68 -322 68 *
Ed
 1e-07 1 1 0
1  84 0 0 6.28318530717959
2  166 24 44 0 6.28318530717959
2  167 35 26 0 6.28318530717959
0

0101100
+222 0 -222 0 *
Wi

0101100
-321 0 +221 44 +220 0 -221 44 *
Fa
0  1e-07 24 44

0101000
+219 0 *
Ve
1e-07
-3.2 -36 40
0 0

0101101
*
Ed
 1e-07 1 1 0
1  85 0 3 7.99999999999999
3  168 169CN 25 0 3 7.99999999999999
0

0101000
+217 69 -319 69 *
Ed
 1e-07 1 1 0
1  86 0 0 6.28318530717959
2  170 25 50 0 6.28318530717959
2  171 35 26 0 6.28318530717959
0

0101100
+217 0 -217 0 *
Wi

0101100
-318 0 +216 50 +215 0 -216 50 *
Fa
0  1e-07 25 50

0101000
+214 0 *
Ve
1e-07
-1.15 -36 33.5
0 0

0101101
*
Ed
 1e-07 1 1 0
1  87 0 3 7.99999999999999
3  172 173CN 26 0 3 7.99999999999999
0

0101000
+212 70 -316 70 *
Ed
 1e-07 1 1 0
1  88 0 0 6.28318530717959
2  174 26 56 0 6.28318530717959
2  175 35 26 0 6.28318530717959
0

0101100
+212 0 -212 0 *
Wi

0101100
-315 0 +211 56 +210 0 -211 56 *
Fa
0  1e-07 26 56

0101000
+209 0 *
Ve
1e-07
5.35 -36 40
0 0

0101101
*
Ed
 1e-07 1 1 0
1  89 0 3 7.99999999999999
3  176 177CN 27 0 3 7.99999999999999
0

0101000
+207 71 -313 71 *
Ed
 1e-07 1 1 0
1  90 0 0 6.28318530717959
2  178 27 62 0 6.28318530717959
2  179 35 26 0 6.28318530717959
0

0101100
+207 0 -207 0 *
Wi

0101100
-312 0 +206 62 +205 0 -206 62 *
Fa
0  1e-07 27 62

0101000
+204 0 *
Ed
 1e-07 1 1 0
1  91 0 0 4.5
2  180 28 0 0 4.5
2  181 29 0 0 4.5
4 G1 28 0 29 0
0

0101000
+286 0 -268 0 *
Wi

0101100
-285 0 +271 0 -202 0 +267 0 *
Fa
0  1e-07 28 0

0101000
+201 0 *
Ve
1.96456277004693e-07
-9.8466571564386 -12 65.2000000000002
0 0

0101101
*
Ed
 1.5e-07 1 1 0
1  92 0 0 1.6533428435614
2  182 29 0 0 1.6533428435614
2  183 30 0 0 1.6533428435614
0

0101000
+284 0 -199 0 *
Ve
1.00000127897692e-07
-11.4535904429049 -16.5 69.9906158268015
0 0

0101101
*
Ed
 1e-07 1 1 0
1  93 0 0 0.999999908553282
2  184 29 0 0 0.999999908553282
2  185 36 0 0 0.999999908553282
0

0101000
+199 0 -197 0 *
Ed
 1e-07 1 1 0
1  94 0 0.0464095570951493 4.5
2  186 29 0 0.0464095570951493 4.5
2  187 33 0 0.0464095570951493 4.5
0

0101000
+197 0 -266 0 *
Wi

0101100
-198 0 -196 0 -195 0 -265 0 +202 0 +283 0 *
Fa
0  1e-07 29 0

0101000
+194 0 *
Ve
1.5e-07
-11.5 -12 71
0 0

0101101
*
Ed
 1.5e-07 1 1 0
1  95 0 1.5707963267949 2.12618398004845
2  188 30 0 1.5707963267949 2.12618398004845
2  189 36 0 1.5707963267949 2.12618398004845
0

0101000
+192 0 -199 0 *
Ve
1.5e-07
-11.5 -12 90
0 0

0101101
*
Ed
 1.5e-07 1 1 0
1  96 0 11 30
2  190 30 0 11 30
2  191 37 0 11 30
0

0101000
+192 0 -190 0 *
Ve
1.5e-07
-0.500000000000002 -12 101
0 0

0101101
*
Ed
 1.5e-07 1 1 0
1  97 0 4.71238898038469 6.28318530717959
2  192 30 0 4.71238898038469 6.28318530717959
2  193 38 0 4.71238898038469 6.28318530717959
0

0101000
+190 0 -188 0 *
Ve
1.5e-07
0.500000000000002 -12 101
0 0

0101101
*
Ed
 1.5e-07 1 1 0
1  98 0 11 12
2  194 30 0 11 12
2  195 39 0 11 12
0

0101000
+188 0 -186 0 *
Ve
1.5e-07
11.5 -12 90
0 0

0101101
*
Ed
 1.5e-07 1 1 0
1  99 0 4.71238898038469 6.28318530717959
2  196 30 0 4.71238898038469 6.28318530717959
2  197 40 0 4.71238898038469 6.28318530717959
0

0101000
+184 0 -186 0 *
Ve
1.5e-07
11.5 -12 71
0 0

0101101
*
Ed
 1.5e-07 1 1 0
1  100 0 11 30
2  198 30 0 11 30
2  199 41 0 11 30
0

0101000
+182 0 -184 0 *
Ve
1.5e-07
0.500000000000002 -12 60
0 0

0101101
*
Ed
 1.5e-07 1 1 0
1  101 0 1.5707963267949 3.14159265358979
2  200 30 0 1.5707963267949 3.14159265358979
2  201 42 0 1.5707963267949 3.14159265358979
0

0101000
+182 0 -180 0 *
Ve
1.5e-07
-0.500000000000002 -12 60
0 0

0101101
*
Ed
 1.5e-07 1 1 0
1  102 0 11 12
2  202 30 0 11 12
2  203 43 0 11 12
0

0101000
+178 0 -180 0 *
Ve
1.8350938526063e-07
-9.58625335328043 -12 64.8
0 0

0101101
*
Ed
 1.5e-07 1 1 0
1  103 0 2.16957780332515 3.14159265358979
2  204 30 0 2.16957780332515 3.14159265358979
2  205 34 0 2.16957780332515 3.14159265358979
0

0101000
+176 0 -178 0 *
Ed
 1.5e-07 1 1 0
1  104 0 0 1.91374664671957
2  206 30 0 0 1.91374664671957
2  207 31 0 0 1.91374664671957
0

0101000
+282 0 -176 0 *
Wi

0101100
+198 0 -191 0 +189 0 +187 0 +185 0 -183 0 -181 0 +179 0 -177 0 -175 0 
-174 0 +281 0 *
Fa
0  1.5e-07 30 0

0101000
+173 0 *
Ed
 1.15695640102541e-07 1 1 0
1  105 0 0 0.99999977993822
2  208 31 0 0 0.99999977993822
2  209 34 0 0 0.99999977993822
0

0101000
+176 0 -262 0 *
Ed
 1e-07 1 1 0
1  106 0 0 4.5
2  210 31 0 0 4.5
2  211 32 0 0 4.5
4 G1 31 0 32 0
0

0101000
+280 0 -260 0 *
Wi

0101100
-174 0 -171 0 -259 0 +170 0 +279 0 *
Fa
0  1e-07 31 0

0101000
+169 0 *
Wi

0101100
-277 0 +253 0 -170 0 +257 0 *
Fa
0  1e-07 32 0

0101000
+167 0 *
Ve
1e-07
-0.500000000000002 -16.5 60
0 0

0101101
*
Ve
1e-07
0.500000000000002 -16.5 60
0 0

0101101
*
Ed
 1e-07 1 1 0
1  107 0 11 12
2  212 33 0 11 12
2  213 43 0 11 12
0

0101000
+165 0 -164 0 *
Ve
1e-07
11.5 -16.5 71
0 0

0101101
*
Ed
 1e-07 1 1 0
1  108 0 1.5707963267949 3.14159265358979
2  214 33 0 1.5707963267949 3.14159265358979
2  215 42 0 1.5707963267949 3.14159265358979
0

0101000
+162 0 -164 0 *
Ve
1e-07
11.5 -16.5 90
0 0

0101101
*
Ed
 1e-07 1 1 0
1  109 0 11 30
2  216 33 0 11 30
2  217 41 0 11 30
0

0101000
+162 0 -160 0 *
Ve
1e-07
0.500000000000002 -16.5 101
0 0

0101101
*
Ed
 1e-07 1 1 0
1  110 0 4.71238898038469 6.28318530717959
2  218 33 0 4.71238898038469 6.28318530717959
2  219 40 0 4.71238898038469 6.28318530717959
0

0101000
+160 0 -158 0 *
Ve
1e-07
-0.500000000000002 -16.5 101
0 0

0101101
*
Ed
 1e-07 1 1 0
1  111 0 11 12
2  220 33 0 11 12
2  221 39 0 11 12
0

0101000
+156 0 -158 0 *
Ve
1e-07
-11.5 -16.5 90
0 0

0101101
*
Ed
 1e-07 1 1 0
1  112 0 4.71238898038469 6.28318530717959
2  222 33 0 4.71238898038469 6.28318530717959
2  223 38 0 4.71238898038469 6.28318530717959
0

0101000
+154 0 -156 0 *
Ve
1e-07
-11.5 -16.5 71
0 0

0101101
*
Ed
 1e-07 1 1 0
1  113 0 11 30
2  224 33 0 11 30
2  225 37 0 11 30
0

0101000
+152 0 -154 0 *
Ed
 1e-07 1 1 0
1  114 0 1.5707963267949 1.66268779232623
2  226 33 0 1.5707963267949 1.66268779232623
2  227 36 0 1.5707963267949 1.66268779232623
0

0101000
+152 0 -197 0 *
Ed
 1e-07 1 1 0
1  115 0 2.50940740490905 3.14159265358979
2  228 33 0 2.50940740490905 3.14159265358979
2  229 34 0 2.50940740490905 3.14159265358979
0

0101000
+264 0 -165 0 *
Wi

0101100
-163 0 +161 0 -159 0 -157 0 +155 0 +153 0 +151 0 -150 0 -195 0 -263 0 
-149 0 *
Fa
0  1e-07 33 0

0101000
+148 0 *
Ed
 1e-07 1 1 0
1  116 0 0 4.5
2  230 34 0 0 4.5
2  231 43 0 0 4.5
4 G1 34 0 43 0
0

0101000
+165 0 -178 0 *
Wi

0101100
-261 0 +171 0 -175 0 +146 0 +149 0 *
Fa
0  1e-07 34 0

0101000
+145 0 *
Wi

0101100
+233 26 *
Wi

0101100
-220 0 *
Wi

0101100
-205 0 *
Wi

0101100
-215 0 *
Wi

0101100
-225 0 *
Wi

0101100
-210 0 *
Fa
0  1e-07 35 26

0101000
+143 0 +142 0 +141 0 +140 0 +139 0 +138 0 *
Ed
 1e-07 1 1 0
1  117 0 -0 4.5
2  232 36 0 -0 4.5
2  233 37 0 -0 4.5
4 G1 36 0 37 0
0

0101000
+152 0 -192 0 *
Wi

0101100
-136 0 -191 0 -196 0 +150 0 *
Fa
0  1e-07 36 0

0101000
+135 0 *
Ed
 1e-07 1 1 0
1  118 0 -0 4.5
2  234 37 0 -0 4.5
2  235 38 0 -0 4.5
4 G1 37 0 38 0
0

0101000
+154 0 -190 0 *
Wi

0101100
-151 0 +136 0 -133 0 +189 0 *
Fa
0  1e-07 37 0

0101000
+132 0 *
Ed
 1e-07 1 1 0
1  119 0 0 4.5
2  236 38 0 0 4.5
2  237 39 0 0 4.5
4 G1 38 0 39 0
0

0101000
+156 0 -188 0 *
Wi

0101100
+153 0 -133 0 +130 0 -187 0 *
Fa
0  1e-07 38 0

0101000
+129 0 *
Ed
 1e-07 1 1 0
1  120 0 0 4.5
2  238 39 0 0 4.5
2  239 40 0 0 4.5
4 G1 39 0 40 0
0

0101000
+158 0 -186 0 *
Wi

0101100
-185 0 -130 0 +127 0 +155 0 *
Fa
0  1e-07 39 0

0101000
+126 0 *
Ed
 1e-07 1 1 0
1  121 0 -0 4.5
2  240 40 0 -0 4.5
2  241 41 0 -0 4.5
4 G1 40 0 41 0
0

0101000
+160 0 -184 0 *
Wi

0101100
+157 0 -124 0 +127 0 -183 0 *
Fa
0  1e-07 40 0

0101000
+123 0 *
Ed
 1e-07 1 1 0
1  122 0 -0 4.5
2  242 41 0 -0 4.5
2  243 42 0 -0 4.5
4 G1 41 0 42 0
0

0101000
+162 0 -182 0 *
Wi

0101100
-159 0 +121 0 -124 0 +181 0 *
Fa
0  1e-07 41 0

0101000
+120 0 *
Ed
 1e-07 1 1 0
1  123 0 0 4.5
2  244 42 0 0 4.5
2  245 43 0 0 4.5
4 G1 42 0 43 0
0

0101000
+164 0 -180 0 *
Wi

0101100
+161 0 -121 0 +118 0 -179 0 *
Fa
0  1e-07 42 0

0101000
+117 0 *
Wi

0101100
-177 0 -146 0 +118 0 +163 0 *
Fa
0  1e-07 43 0

0101000
+115 0 *
Sh

0101100
-408 0 +362 0 -357 0 +310 0 +307 0 +304 0 -301 0 -298 7 +295 0 +292 7 
-289 0 +274 0 -269 0 +254 0 +251 0 -248 0 +244 0 -241 0 -238 0 +236 0 
+231 0 -228 0 -223 0 -218 0 -213 0 -208 0 -203 0 +200 0 +193 0 +172 0 
-168 0 -166 0 -147 0 -144 0 -137 0 -134 0 -131 0 +128 0 +125 0 -122 0 
+119 0 +116 0 -114 0 *
So

0100000
+113 0 *
Ve
1e-07
6 -52.5 83.8
0 0

0101101
*
Ve
1.5e-07
6 -36.5 83.8
0 0

0101101
*
Ed
 1e-07 1 1 0
1  124 0 0 16
2  246 44 0 0 16
2  247 45 0 0 16
0

0101000
+111 78 -110 78 *
Ve
1.5e-07
6 -36.5 96.2
0 0

0101101
*
Ed
 1.5e-07 1 1 0
1  125 0 -12.4 0
2  248 44 0 -12.4 0
2  249 46 0 -12.4 0
0

0101000
+108 78 -110 78 *
Ve
1e-07
6 -52.5 96.2
0 0

0101101
*
Ed
 1e-07 1 1 0
1  126 0 0 16
2  250 44 0 0 16
2  251 47 0 0 16
0

0101000
+106 78 -108 78 *
Ed
 1e-07 1 1 0
1  127 0 0 12.4
2  252 44 0 0 12.4
2  253 48 0 0 12.4
0

0101000
-106 78 +111 78 *
Wi

0101100
-109 0 +107 0 +105 0 +104 0 *
Fa
0  1e-07 44 0

0101000
+103 0 *
Ve
1e-07
10.7 -36.5 96.2
0 0

0101101
*
Ed
 1e-07 1 1 0
1  128 0 0 4.7
2  254 46 0 0 4.7
2  255 47 0 0 4.7
0

0101000
+101 78 -108 78 *
Ve
1e-07
10.7 -36.5 83.8
0 0

0101101
*
Ed
 1e-07 1 1 0
1  129 0 0 4.7
2  256 46 0 0 4.7
2  257 45 0 0 4.7
0

0101000
+99 78 -110 78 *
Ed
 1e-07 1 1 0
1  130 0 0 12.4
2  258 46 0 0 12.4
2  259 49 0 0 12.4
0

0101000
-101 78 +99 78 *
Wi

0101100
-100 0 -107 0 +98 0 -97 0 *
Fa
0  1e-07 46 0

0101000
+96 0 *
Ve
1e-07
-17 -52.5 96.2
0 0

0101101
*
Ed
 1e-07 1 1 0
1  131 0 0 23
2  260 48 0 0 23
2  261 47 0 0 23
0

0101000
-94 78 +106 78 *
Ve
1e-07
-17 -52.5 83.8
0 0

0101101
*
Ed
 1e-07 1 1 0
1  132 0 0 12.4
2  262 48 0 0 12.4
2  263 50 0 0 12.4
0

0101000
-94 78 +92 78 *
Ed
 1e-07 1 1 0
1  133 0 0 23
2  264 48 0 0 23
2  265 45 0 0 23
0

0101000
-92 78 +111 78 *
Wi

0101100
-104 0 -93 0 +91 0 +90 0 *
Fa
0  1e-07 48 0

0111000
+89 0 *
Ve
1.5e-07
-17 -36.5 83.8
0 0

0101101
*
Ed
 1e-07 1 1 0
1  134 0 0 16
2  266 50 0 0 16
2  267 45 0 0 16
0

0101000
+92 78 -87 78 *
Ve
1.5e-07
-17 -36.5 96.2
0 0

0101101
*
Ed
 1.5e-07 1 1 0
1  135 0 -12.4 0
2  268 50 0 -12.4 0
2  269 51 0 -12.4 0
0

0101000
+85 78 -87 78 *
Ed
 1e-07 1 1 0
1  136 0 0 16
2  270 50 0 0 16
2  271 47 0 0 16
0

0101000
+94 78 -85 78 *
Wi

0101100
-86 0 +84 0 +83 0 +91 0 *
Fa
0  1e-07 50 0

0101000
+82 0 *
Ve
1e-07
10.7 -34 83.8
0 0

0101101
*
Ed
 1e-07 1 1 0
1  137 0 0 2.5
2  272 49 0 0 2.5
2  273 45 0 0 2.5
0

0101000
-80 78 +99 78 *
Ve
1e-07
10.7 -34 96.2
0 0

0101101
*
Ed
 1e-07 1 1 0
1  138 0 0 12.4
2  274 49 0 0 12.4
2  275 52 0 0 12.4
0

0101000
-78 78 +80 78 *
Ed
 1e-07 1 1 0
1  139 0 0 2.5
2  276 49 0 0 2.5
2  277 47 0 0 2.5
0

0101000
-78 78 +101 78 *
Wi

0101100
-79 0 -77 0 +76 0 +97 0 *
Fa
0  1e-07 49 0

0111000
+75 0 *
Ve
1e-07
-21.7 -36.5 96.2
0 0

0101101
*
Ed
 1e-07 1 1 0
1  140 0 27.7 32.4
2  278 51 0 27.7 32.4
2  279 47 0 27.7 32.4
0

0101000
+85 78 -73 78 *
Ve
1e-07
-21.7 -36.5 83.8
0 0

0101101
*
Ed
 1e-07 1 1 0
1  141 0 0 12.4
2  280 51 0 0 12.4
2  281 53 0 0 12.4
0

0101000
-73 78 +71 78 *
Ed
 1e-07 1 1 0
1  142 0 27.7 32.4
2  282 51 0 27.7 32.4
2  283 45 0 27.7 32.4
0

0101000
+87 78 -71 78 *
Wi

0101100
-72 0 +70 0 +69 0 +84 0 *
Fa
0  1e-07 51 0

0101000
+68 0 *
Ve
1.5e-07
6 -34 96.2
0 0

0101101
*
Ed
 1e-07 1 1 0
1  143 0 0 4.7
2  284 52 0 0 4.7
2  285 47 0 0 4.7
0

0101000
+78 78 -66 78 *
Ve
1.5e-07
6 -34 83.8
0 0

0101101
*
Ed
 1.5e-07 1 1 0
1  144 0 -12.4 0
2  286 52 0 -12.4 0
2  287 54 0 -12.4 0
0

0101000
+66 78 -64 78 *
Ed
 1e-07 1 1 0
1  145 0 0 4.7
2  288 52 0 0 4.7
2  289 45 0 0 4.7
0

0101000
+80 78 -64 78 *
Wi

0101100
-65 0 -63 0 +62 0 -77 0 *
Fa
0  1e-07 52 0

0101000
+61 0 *
Ve
1e-07
-21.7 -34 83.8
0 0

0101101
*
Ed
 1e-07 1 1 0
1  146 0 0 2.5
2  290 53 0 0 2.5
2  291 45 0 0 2.5
0

0101000
-59 78 +71 78 *
Ve
1e-07
-21.7 -34 96.2
0 0

0101101
*
Ed
 1e-07 1 1 0
1  147 0 0 12.4
2  292 53 0 0 12.4
2  293 55 0 0 12.4
0

0101000
-57 78 +59 78 *
Ed
 1e-07 1 1 0
1  148 0 0 2.5
2  294 53 0 0 2.5
2  295 47 0 0 2.5
0

0101000
-57 78 +73 78 *
Wi

0101100
-58 0 -56 0 +55 0 +70 0 *
Fa
0  1e-07 53 0

0111000
+54 0 *
Ve
1.5e-07
-17 -34 96.2
0 0

0101101
*
Ed
 1e-07 1 1 0
1  149 0 27.7 32.4
2  296 55 0 27.7 32.4
2  297 47 0 27.7 32.4
0

0101000
+52 78 -57 78 *
Ve
1.5e-07
-17 -34 83.8
0 0

0101101
*
Ed
 1e-07 1 1 0
1  150 0 27.7 32.4
2  298 55 0 27.7 32.4
2  299 45 0 27.7 32.4
0

0101000
+50 78 -59 78 *
Ed
 1.5e-07 1 1 0
1  151 0 -12.4 0
2  300 55 0 -12.4 0
2  301 56 0 -12.4 0
0

0101000
+52 78 -50 78 *
Wi

0101100
-51 0 +56 0 +49 0 +48 0 *
Fa
0  1e-07 55 0

0101000
+47 0 *
Ve
1e-07
-17 -30 83.8
0 0

0101101
*
Ed
 1e-07 1 1 0
1  152 0 18.5 22.5
2  302 56 0 18.5 22.5
2  303 45 0 18.5 22.5
0

0101000
+50 78 -45 78 *
Ve
1e-07
-17 -30 96.2
0 0

0101101
*
Ed
 1e-07 1 1 0
1  153 0 0 12.4
2  304 56 0 0 12.4
2  305 57 0 0 12.4
0

0101000
-43 78 +45 78 *
Ed
 1e-07 1 1 0
1  154 0 18.5 22.5
2  306 56 0 18.5 22.5
2  307 47 0 18.5 22.5
0

0101000
+52 78 -43 78 *
Wi

0101100
-44 0 -42 0 +41 0 -48 0 *
Fa
0  1e-07 56 0

0101000
+40 0 *
Ve
1e-07
6 -30 96.2
0 0

0101101
*
Ve
1e-07
6 -30 83.8
0 0

0101101
*
Ed
 1e-07 1 1 0
1  155 0 0 12.4
2  308 57 0 0 12.4
2  309 54 0 0 12.4
0

0101000
-38 78 +37 78 *
Ed
 1e-07 1 1 0
1  156 0 0 23
2  310 57 0 0 23
2  311 47 0 0 23
0

0101000
-43 78 +38 78 *
Ed
 1e-07 1 1 0
1  157 0 0 23
2  312 57 0 0 23
2  313 45 0 0 23
0

0101000
-45 78 +37 78 *
Wi

0101100
-36 0 -35 0 +34 0 +42 0 *
Ve
1e-07
-5.9 -30 90
0 0

0101101
*
Ed
 1e-07 1 1 0
1  158 0 0 6.28318530717959
2  314 57 0 0 6.28318530717959
2  315 58 0 0 6.28318530717959
0

0101000
+32 78 -32 78 *
Wi

0101100
-31 0 *
Fa
0  1e-07 57 0

0101000
+33 0 +30 0 *
Ed
 1e-07 1 1 0
1  159 0 18.5 22.5
2  316 54 0 18.5 22.5
2  317 45 0 18.5 22.5
0

0101000
+64 78 -37 78 *
Ed
 1e-07 1 1 0
1  160 0 18.5 22.5
2  318 54 0 18.5 22.5
2  319 47 0 18.5 22.5
0

0101000
+66 78 -38 78 *
Wi

0101100
-28 0 -36 0 +27 0 -63 0 *
Fa
0  1e-07 54 0

0101000
+26 0 *
Ve
1e-07
-5.9 -26 90
0 0

0101101
*
Ed
 1e-07 1 1 0
1  161 0 0 6.28318530717959
2  320 58 0 0 6.28318530717959
2  321 59 0 0 6.28318530717959
0

0101000
+24 78 -24 78 *
Ed
 1e-07 1 1 0
1  162 0 0 4
3  322 323CN 58 0 0 4
0

0101000
+32 78 -24 78 *
Wi

0101100
-23 0 +22 0 +31 0 -22 0 *
Fa
0  1e-07 58 0

0101000
+21 0 *
Ve
1e-07
-9 -26 90
0 0

0101101
*
Ed
 1e-07 1 1 0
1  163 0 0 6.28318530717959
2  324 59 0 0 6.28318530717959
2  325 60 0 0 6.28318530717959
0

0101000
+19 78 -19 78 *
Wi

0101100
+18 0 *
Wi

0101100
-23 0 *
Fa
0  1e-07 59 0

0101000
+17 0 +16 0 *
Ve
1e-07
-9 -24 90
0 0

0101101
*
Ed
 1e-07 1 1 0
1  164 0 0 6.28318530717959
2  326 60 0 0 6.28318530717959
2  327 61 0 0 6.28318530717959
0

0101000
+14 78 -14 78 *
Ed
 1e-07 1 1 0
1  165 0 0 2
3  328 329CN 60 0 0 2
0

0101000
-14 78 +19 78 *
Wi

0101100
-13 0 +12 0 +18 0 -12 0 *
Fa
0  1e-07 60 0

0111000
+11 0 *
Wi

0101100
+13 0 *
Fa
0  1e-07 61 0

0111000
+9 0 *
Wi

0101100
+86 0 +69 0 +58 0 -49 0 +44 0 -34 0 -28 0 -62 0 -79 0 +98 0 
-109 0 +90 0 *
Fa
0  1e-07 45 0

0101000
+7 0 *
Wi

0101100
-83 0 -93 0 +105 0 -100 0 +76 0 +65 0 +27 0 +35 0 -41 0 +51 0 
-55 0 -72 0 *
Fa
0  1e-07 47 0

0101000
+5 0 *
Sh

0101100
-102 0 -95 0 -88 0 +81 0 -74 0 -67 0 +60 0 +53 0 +46 0 +39 0 
+29 0 -25 0 +20 0 -15 0 +10 0 +8 0 +6 0 +4 0 *
So

0100000
+3 0 *
Co

1100000
+112 0 +2 77 *

+1 1 