DBRep_DrawableShape

CASCADE Topology V1, (c) Matra-Datavision
Locations 78
1
              1               0               0              -0 
              0               1               0             -30 
              0               0               1            -114 
1
             -1 -1.22464679914735e-16               0               0 
1.22464679914735e-16              -1               0               0 
              0               0               1               0 
1
              1               0               0               0 
              0               1               0               0 
              0               0               1               0 
1
              1               0               0               0 
              0 1.11022302462516e-16               1               0 
              0              -1 1.11022302462516e-16               0 
1
              1               0               0               0 
              0               1               0               0 
              0               0               1               0 
1
              1               0               0               0 
              0               1               0              30 
              0               0               1             138 
2  2 1 3 1 4 1 5 1 6 1 0
2  6 -1 5 -1 4 -1 3 -1 2 -1 0
1
             -1 -1.22464679914735e-16               0               0 
1.22464679914735e-16              -1               0               0 
              0               0               1               0 
1
              1               0               0               0 
              0               1               0               0 
              0               0               1               0 
1
              1               0               0               0 
              0 1.11022302462516e-16               1               0 
              0              -1 1.11022302462516e-16               0 
1
              1               0               0               0 
              0               1               0               0 
              0               0               1               0 
1
              1               0               0               0 
              0               1               0              30 
              0               0               1             138 
2  9 1 10 1 11 1 12 1 13 1 0
1
             -1 -1.22464679914735e-16               0               0 
1.22464679914735e-16              -1               0               0 
              0               0               1               0 
1
              1               0               0               0 
              0               1               0               0 
              0               0               1               0 
1
              1               0               0               0 
              0 1.11022302462516e-16               1               0 
              0              -1 1.11022302462516e-16               0 
1
              1               0               0               0 
              0               1               0               0 
              0               0               1               0 
1
              1               0               0               0 
              0               1               0              30 
              0               0               1             138 
2  15 1 16 1 17 1 18 1 19 1 0
1
             -1 -1.22464679914735e-16               0               0 
1.22464679914735e-16              -1               0               0 
              0               0               1               0 
1
              1               0               0               0 
              0               1               0               0 
              0               0               1               0 
1
              1               0               0               0 
              0 1.11022302462516e-16              -1               0 
              0               1 1.11022302462516e-16               0 
1
              1               0               0               0 
              0               1               0               0 
              0               0               1               0 
1
              1               0               0               0 
              0               1               0              30 
              0               0               1              90 
2  21 1 22 1 23 1 24 1 25 1 0
1
             -1 -1.22464679914735e-16               0               0 
1.22464679914735e-16              -1               0               0 
              0               0               1               0 
1
              1               0               0               0 
              0               1               0               0 
              0               0               1               0 
1
              1               0               0               0 
              0 1.11022302462516e-16               1               0 
              0              -1 1.11022302462516e-16               0 
1
              1               0               0               0 
              0               1               0               0 
              0               0               1               0 
1
              1               0               0               0 
              0               1               0              30 
              0               0               1             138 
2  27 1 28 1 29 1 30 1 31 1 0
1
             -1 -1.22464679914735e-16               0               0 
1.22464679914735e-16              -1               0               0 
              0               0               1               0 
1
              1               0               0               0 
              0               1               0               0 
              0               0               1               0 
1
              1               0               0               0 
              0 1.11022302462516e-16              -1               0 
              0               1 1.11022302462516e-16               0 
1
              1               0               0               0 
              0               1               0               0 
              0               0               1               0 
1
              1               0               0               0 
              0               1               0              30 
              0               0               1              90 
2  33 1 34 1 35 1 36 1 37 1 0
1
             -1 -1.22464679914735e-16               0               0 
1.22464679914735e-16              -1               0               0 
              0               0               1               0 
1
              1               0               0               0 
              0               1               0               0 
              0               0               1               0 
1
              1               0               0               0 
              0 1.11022302462516e-16              -1               0 
              0               1 1.11022302462516e-16               0 
1
              1               0               0               0 
              0               1               0               0 
              0               0               1               0 
1
              1               0               0               0 
              0               1               0              30 
              0               0               1              90 
2  39 1 40 1 41 1 42 1 43 1 0
1
             -1 -1.22464679914735e-16               0               0 
1.22464679914735e-16              -1               0               0 
              0               0               1               0 
1
              1               0               0               0 
              0               1               0               0 
              0               0               1               0 
1
              1               0               0               0 
              0 1.11022302462516e-16              -1               0 
              0               1 1.11022302462516e-16               0 
1
              1               0               0               0 
              0               1               0               0 
              0               0               1               0 
1
              1               0               0               0 
              0               1               0              30 
              0               0               1              90 
2  45 1 46 1 47 1 48 1 49 1 0
1
             -1 -1.22464679914735e-16               0               0 
1.22464679914735e-16              -1               0               0 
              0               0               1               0 
1
              1               0               0               0 
              0               1               0               0 
              0               0               1               0 
1
              1               0               0               0 
              0 1.11022302462516e-16              -1               0 
              0               1 1.11022302462516e-16               0 
1
              1               0               0               0 
              0               1               0               0 
              0               0               1               0 
1
              1               0               0               0 
              0               1               0              30 
              0               0               1              90 
2  51 1 52 1 53 1 54 1 55 1 0
1
             -1 -1.22464679914735e-16               0               0 
1.22464679914735e-16              -1               0               0 
              0               0               1               0 
1
              1               0               0               0 
              0               1               0               0 
              0               0               1               0 
1
              1               0               0               0 
              0 1.11022302462516e-16              -1               0 
              0               1 1.11022302462516e-16               0 
1
              1               0               0               0 
              0               1               0               0 
              0               0               1               0 
1
              1               0               0               0 
              0               1               0              30 
              0               0               1              90 
2  57 1 58 1 59 1 60 1 61 1 0
2  13 -1 12 -1 11 -1 10 -1 9 -1 0
2  19 -1 18 -1 17 -1 16 -1 15 -1 0
2  25 -1 24 -1 23 -1 22 -1 21 -1 0
2  31 -1 30 -1 29 -1 28 -1 27 -1 0
2  37 -1 36 -1 35 -1 34 -1 33 -1 0
2  43 -1 42 -1 41 -1 40 -1 39 -1 0
2  49 -1 48 -1 47 -1 46 -1 45 -1 0
2  55 -1 54 -1 53 -1 52 -1 51 -1 0
2  61 -1 60 -1 59 -1 58 -1 57 -1 0
1
             -1 -1.22464679914735e-16               0               0 
1.22464679914735e-16              -1               0               0 
              0               0               1               0 
1
              1               0               0               0 
              0               1               0               0 
              0               0               1               0 
1
              1               0               0               0 
              0 1.11022302462516e-16               1               0 
              0              -1 1.11022302462516e-16               0 
1
              1               0               0               0 
              0               1               0               0 
              0               0               1               0 
1
              1               0               0               0 
              0               1               0              30 
              0               0               1             138 
2  72 1 73 1 74 1 75 1 76 1 0
2  76 -1 75 -1 74 -1 73 -1 72 -1 0
Curve2ds 339
1 0 4.5 1 0 
1 -39.124138881929298 -7.9129087979604238 0 1 
1 10.999999999999998 0 0 1 
1 1.5707963267948966 0 0 1 
1 0 4.5 1 0 
1 -39.124138881929298 -7.9129087979604238 0 1 
1 0 0 1 0 
1 39.586290447162625 -8.3818497583695315 0 1 
1 12.000000000000002 0 0 1 
1 1.5707963267948966 0 0 1 
8 0.050000000000000711 3.0000005999999999
1 11.5 5 0 -1 
2 -28.124138881929298 4.0870912020395771 1 0 -0 1 11
1 -1.5707963267948966 4.5 1 0 
1 -39.124138881929298 15.087091202039577 1 0 
1 0 -4.5 1 0 
1 8.8758611180707021 15.287091202039576 -1.2246467991473532e-16 -1 
1 4.5 0 0 1 
1 8.8758611180707021 15.287091202039576 1 -1.2246467991473532e-16 
1 4.5 0 0 -1 
1 30.875861118070702 15.287091202039573 -1.2246467991473532e-16 -1 
1 17.199999999999996 2.25 -1 1.3596310734468911e-32 
1 8.8758611180707021 -19.112908797960422 1 -1.2246467991473532e-16 
1 4.5 0 0 -1 
1 8.8758611180707021 15.287091202039576 -1.2246467991473532e-16 -1 
1 4.5 0 0 1 
1 -39.124138881929298 -7.9129087979604238 1 0 
1 31.041349809885929 2.2644423320658973 -1 0 
2 -5.0041388819292933 -5.0329087979604248 0 -1 1 0 2.879999999999999
1 0 4.5 1 0 
1 -2.1241388819292979 -7.9129087979604238 0 1 
8 2.879999999999999 4.5
1 0 4.5 1 0 
1 -23.624138881929298 -3.4129087979604238 -1 0 
8 -21.500000000000004 -15.499999999999996
1 -15.5 -4.5 -1 -0 
1 -8.1241388819292979 -7.9129087979604238 0 1 
8 2.879999999999999 4.5
1 0 4.5 1 0 
2 -5.2441388819293024 -5.0329087979604248 0 -1 1 0 2.879999999999999
1 6.2831853071795862 4.5 -1 0 
1 -39.124138881929298 -7.9129087979604238 1 0 
1 31.041349809885929 2.2644423320658973 -1 0 
2 -28.124138881929298 3.0870912020395749 1 0 0 -1 11
1 -1.5707963267948966 4.5 1 0 
2 19.875861118070702 -15.912908797960423 -1.2246467991473532e-16 -1 1 -1.2246467991473532e-16 1.1499999999999999
1 6.679274664138223e-65 12.500000000000007 1 0 
8 -19.406454398980213 5.1935456010197889
1 12.875861118070702 5.1935456010197871 1.2246467991473532e-16 1 
8 -19.406454398980213 5.1935456010197889
1 17.000000000000007 5.1935456010197889 1.3596310734468911e-32 -1 
8 6.4379305590353528 20.437930559035351
1 6.4379305590353511 -14.21290879796042 1 -1.2246467991473532e-16 
8 6.4379305590353528 20.437930559035351
1 17.000000000000007 6.4379305590353528 1.1102230246251565e-16 -1 
8 -19.406454398980213 5.1935456010197889
1 26.875861118070702 5.1935456010197862 1.2246467991473532e-16 1 
8 -19.406454398980213 5.1935456010197889
1 17.000000000000007 5.1935456010197889 1.3596310734468911e-32 -1 
8 6.4379305590353528 20.437930559035351
1 6.4379305590353511 10.387091202039578 1 -1.2246467991473532e-16 
8 6.4379305590353528 20.437930559035351
1 17.000000000000007 6.4379305590353528 1.1102230246251565e-16 -1 
2 -28.124138881929298 3.5870912020395762 1.2246467991473532e-16 -1 -1 -1.2246467991473532e-16 11
1 6.679274664138223e-65 0.5 1 0 
2 -28.124138881929298 3.5870912020395762 1.2246467991473532e-16 -1 -1 -1.2246467991473532e-16 11
1 6.679274664138223e-65 0.5 1 0 
2 19.875861118070702 12.087091202039577 -1.2246467991473532e-16 -1 1 -1.2246467991473532e-16 1.1499999999999999
1 6.679274664138223e-65 12.500000000000007 1 0 
1 -1.5707963267948966 0 1 0 
2 28.586290447162625 2.6181502416304667 -1 0 -0 -1 11
1 0 0 0 1 
1 20.041349809885929 6.7644423320658973 0 -1 
2 28.586290447162625 3.6181502416304694 -1 0 0 1 11
1 -1.5707963267948966 0 1 0 
1 39.586290447162625 -8.3818497583695315 -1 0 
1 31.041349809885929 6.7644423320658973 -1 0 
1 39.586290447162625 14.618150241630468 -1 0 
1 0 0 1 0 
1 -8.4137095528373749 14.81815024163047 1.2246467991473532e-16 -1 
1 0 0 0 1 
1 -8.4137095528373749 14.81815024163047 1.2246467991473532e-16 -1 
1 0 0 0 1 
1 -8.4137095528373749 -19.581849758369533 -1 -1.2246467991473532e-16 
1 0 0 0 -1 
1 -8.4137095528373749 14.81815024163047 -1 -1.2246467991473532e-16 
1 0 0 0 -1 
1 -30.413709552837375 14.818150241630466 1.2246467991473532e-16 -1 
1 17.199999999999996 -2.25 -1 1.3596310734468911e-32 
2 -19.413709552837375 -16.381849758369533 1.2246467991473532e-16 -1 -1 -1.2246467991473532e-16 1.1499999999999999
1 6.679274664138223e-65 8.0000000000000071 1 0 
8 -4.9590751208152355 19.640924879184766
1 -26.413709552837375 4.9590751208152319 1.2246467991473532e-16 -1 
8 -4.9590751208152355 19.640924879184766
1 12.500000000000007 4.9590751208152355 -1.3596310734468911e-32 1 
8 -20.20685477641868 -6.2068547764186821
1 -6.2068547764186945 -14.681849758369529 1 1.2246467991473532e-16 
8 -20.20685477641868 -6.2068547764186821
1 12.500000000000007 6.2068547764186821 -1.1102230246251565e-16 1 
8 -4.9590751208152355 19.640924879184766
1 -12.413709552837375 4.9590751208152337 1.2246467991473532e-16 -1 
8 -4.9590751208152355 19.640924879184766
1 12.500000000000007 4.9590751208152355 -1.3596310734468911e-32 1 
8 -20.20685477641868 -6.2068547764186821
1 -6.2068547764186945 9.9181502416304692 1 1.2246467991473532e-16 
8 -20.20685477641868 -6.2068547764186821
1 12.500000000000007 6.2068547764186821 -1.1102230246251565e-16 1 
2 28.586290447162625 -3.3818497583695319 -1.2246467991473532e-16 -1 1 -1.2246467991473532e-16 1.1499999999999999
1 6.679274664138223e-65 7.9999999999999929 1 0 
2 -19.413709552837375 11.618150241630468 1.2246467991473532e-16 -1 -1 -1.2246467991473532e-16 1.1499999999999999
1 6.679274664138223e-65 8.0000000000000071 1 0 
2 22.086290447162625 3.1181502416304689 -1.2246467991473532e-16 -1 1 -1.2246467991473532e-16 1.1499999999999999
1 6.679274664138223e-65 7.9999999999999929 1 0 
2 28.586290447162625 3.1181502416304681 -1.2246467991473532e-16 -1 1 -1.2246467991473532e-16 3.2000000000000002
1 6.679274664138223e-65 7.9999999999999929 1 0 
2 35.086290447162625 3.1181502416304672 -1.2246467991473532e-16 -1 1 -1.2246467991473532e-16 1.1499999999999999
1 6.679274664138223e-65 7.9999999999999929 1 0 
2 28.586290447162625 9.6181502416304685 -1.2246467991473532e-16 -1 1 -1.2246467991473532e-16 1.1499999999999999
1 6.679274664138223e-65 7.9999999999999929 1 0 
1 0 0 0 1 
1 11 0 0 -1 
8 -4.5000000000000036 -3.5527136788005009e-15
1 48 3.5527136788005009e-15 -1.1102230246251565e-16 1 
8 -4.5000000000000036 -3.5527136788005009e-15
1 -3.5527136788005009e-15 0.20000000000000107 -1 0 
1 0 0 1 0 
1 0 0 1 0 
1 0 -22 1 0 
1 17.199999999999996 -2.25 0 1 
1 -17.199999999999999 -2.25 0 1 
1 0 -22 1 0 
1 0 0 1 0 
1 0 34.399999999999999 1 0 
8 -4.5000000000000036 -3.5527136788005009e-15
1 -3.5527136788005009e-15 23.200000000000003 -1 0 
1 -16.958650190114071 6.7644423320659008 1.1102230246251565e-16 1 
1 -3.0786501901140753 6.7644423320658973 0 -1 
1 0 0 0 1 
1 0.04134980988592929 -19.3555576679341 -1 0 
1 0 0 0 1 
1 -2.8386501901140662 6.7644423320658973 0 -1 
1 0 0 0 1 
1 0 26.119999999999997 1 0 
1 0 0 1 0 
8 -5.999999999062311e-07 1.6200005999999973
1 1.0377299179771655 24.5 0 1 
8 -5.999999999062311e-07 1.6200005999999973
1 0.51309033281523508 0 0 1 
1 0 24.5 1 0 
2 3.1200000000000045 2.879999999999999 0 -1 1 0 2.8799999999999999
1 1.5707963267948966 0 0 1 
1 2.879999999999999 0 0 1 
8 2.879999999999999 4.5
1 0 24.5 1 0 
8 2.879999999999999 4.5
1 6 0 0 1 
1 4.5 0 0 1 
1 6 0 0 -1 
8 -6.0000000000000044 0
1 0 -24.5 -1 -0 
8 -6.0000000000000044 0
1 0 4.5 -1 0 
8 -5.999999999062311e-07 4.5000005999999999
1 2.1258803253505789 -24.5 0 -1 
8 -5.999999999062311e-07 4.5000005999999999
1 0.93861107811415145 0 0 1 
2 2.8799999999999955 -26.119999999999997 1 0 0 -1 2.8799999999999999
1 -1.5707963267948966 4.5 1 0 
1 0 0 0 -1 
1 4.5 0 0 1 
1 2.879999999999999 0 0 1 
1 1.5707963267948966 0 0 1 
1 0 26.119999999999997 1 0 
1 1.5707963267948966 0 0 1 
8 4.7123889803846897 6.2831853071795862
1 6.2831853071795862 26.119999999999997 -1 -0 
8 4.7123889803846897 6.2831853071795862
1 0 -6.2831853071795862 0 1 
1 6.2831853071795862 -0 0 1 
1 0 -0 0 1 
1 0 24.600000000000001 1 0 
1 0 0 1 0 
1 0 0 1 0 
1 0 0 1 0 
1 0 -14 1 0 
1 0 24.600000000000001 1 0 
1 0 0 1 0 
1 0 -14 1 0 
1 6.2831853071795862 -0 0 1 
1 0 -0 0 1 
1 0 0 1 0 
2 0 0 1 0 -0 1 11
1 6.2831853071795862 -0 0 1 
1 0 -0 0 1 
1 6.2831853071795862 -0 0 1 
1 0 -0 0 1 
1 6.679274664138223e-65 3 1 0 
2 6.5 7.9602041944577955e-16 1 0 -0 1 1.1499999999999999
1 6.2831853071795862 -0 0 1 
1 0 -0 0 1 
1 6.679274664138223e-65 3 1 0 
2 3.6977854932234928e-32 -6.5 1 0 -0 1 1.1499999999999999
1 6.2831853071795862 -0 0 1 
1 0 -0 0 1 
1 6.679274664138223e-65 3 1 0 
2 0 -0 1 0 -0 1 3.2000000000000002
1 6.2831853071795862 -0 0 1 
1 0 -0 0 1 
1 6.679274664138223e-65 3 1 0 
2 -3.6977854932234928e-32 6.5 1 0 -0 1 1.1499999999999999
1 6.2831853071795862 -0 0 1 
1 0 -0 0 1 
1 6.679274664138223e-65 3 1 0 
2 -6.5 -7.9602041944577955e-16 1 0 -0 1 1.1499999999999999
1 0 2.8799999999999955 1 0 
1 0 0 1 0 
8 4.7123889803846897 6.2831853071795862
1 6.2831853071795862 3.1200000000000045 -1 -0 
8 4.7123889803846897 6.2831853071795862
1 0 -6.2831853071795862 0 1 
1 1.5707963267948966 0 0 1 
1 -19.2956957154191 -8.5065975712958473 1 0 
7 0 0  7 50 9  1.5707963267946223 -1.4106051160605839  1.542536803840495 -1.4056087229712626  1.5150177763320301 -1.4002071101624878  1.488360309037086 -1.3943824169198253  1.4626841780021311 -1.3881231577351976  1.4380983271503676 -1.3814279253054063  1.4146913248798634 -1.3743090935306554  1.3678718070815432 -1.3584433780574405  1.344743039145359 -1.3496002642573137  1.3232199805907483 -1.340307021169751  1.3033047097860779 -1.3306155002809894  1.2849406413693969 -1.3205837916549037  1.2680362478873679 -1.3102704530814644  1.2407998906122015 -1.2918032715797849  1.2298757111355343 -1.2837472047620941  1.2196687497822847 -1.2755810835219774  1.2101290402525755 -1.267323409901417  1.2012063049510349 -1.2589903842889636  1.1928521167692625 -1.2505956464741756  1.1689295365084942 -1.224792349712102  1.1550561965332553 -1.2072260536370201  1.1430032615838306 -1.189539724329201  1.1324567174166209 -1.1717985287830535  1.1231709125608014 -1.154047544663398  1.1149521559759434 -1.1363150998338578  1.0946486474623822 -1.0871551332348277  1.0845360121362317 -1.0558209269063559  1.0764223264973563 -1.0247133701707767  1.0698268633132257 -0.99388221626909168  1.0644024695807381 -0.96335448235466603  1.0599098804924731 -0.93313697160958176  1.0519513065642361 -0.86952271234836898  1.0486880779018246 -0.83621708052805732  1.046120638797573 -0.80329936664708257  1.0440879522855364 -0.77075845352132555  1.0424772559096609 -0.73857884286133413  1.0411999907206044 -0.70674136421906464  1.0392391759719839 -0.64547804411453558  1.0385259162592131 -0.61601965562240968  1.0379966354120718 -0.58682862722725493  1.0376104297910975 -0.55788708751825788  1.0373367939790803 -0.52917738154361849  1.0371521548737352 -0.5006816034560696  1.036750865943453 -0.40256708067537517  1.0368855868789932 -0.33396402377344736  1.0371490257412448 -0.26626767637051563  1.0374228448514242 -0.1992469220402322  1.0376271072720205 -0.13268257326268218  1.0377299179771675 -0.066354257295219599  1.0377299179771675 0 
 0 8 0.04461440493199386 6 0.094220642248799585 6 0.13151558633718302 6 0.20816507694511549 6 0.3444139966338679 6 0.49788665846805635 6 0.64271787523200141 6 1 8
7 0 0  7 50 9  0.74042515046062618 4.4631267896948046  0.73867571954386602 4.4608315462386958  0.7368420219613131 4.4582671354082271  0.73492079840542701 4.4554020652894124  0.73291054020159585 4.4522014306339406  0.7308123022598052 4.448631423571916  0.72863051602631235 4.4446638443245838  0.72386458887252803 4.4354069468451227  0.72126179364792098 4.4300180927945574  0.71857698522549174 4.4240883705724006  0.71582379326736756 4.4176038475692492  0.7130167098317749 4.4105613923777351  0.71016989057100999 4.4029677294110128  0.70513527538660059 4.3887267742216212  0.70295885363251998 4.3823110166945138  0.70077148041286785 4.3755955553038053  0.69857738774320821 4.3685863039261745  0.6963802135302144 4.3612900004339403  0.69418296519291567 4.3537134511778799  0.68747680222901841 4.3297278727737734  0.68297682220311695 4.3124406776954967  0.67850690254132739 4.2940508055566244  0.67408086981436921 4.2746146513360825  0.66970821750979337 4.2541885418557444  0.66539480571318443 4.2328218879657973  0.65358672611754232 4.1709613613620409  0.64623141814052598 4.1285404231403415  0.63909783058353886 4.0835207993445355  0.63219742034917736 4.0361333990548536  0.62553621229693235 3.9865902158163053  0.61911585688530724 3.9350751643832727  0.60597252288044001 3.8216533907840349  0.59931598048210577 3.7592743159532906  0.59296462584820553 3.6948276831156206  0.58691633454509162 3.6285223782752665  0.58116777271414854 3.5605453831424696  0.57571471019505294 3.49106003987752  0.56568066120749394 3.3533379028615249  0.56106823080373025 3.2852562888596006  0.55671119937830649 3.2160784196698531  0.55260582763933852 3.1459129846293692  0.54874850306562772 3.0748583029995369  0.54513574702208145 3.0030023634544962  0.53344705313813967 2.7513774995045743  0.52660059975398454 2.5679864337536666  0.52117064517844125 2.3813592391910161  0.51712396238010272 2.1924564969807907  0.51443546420804831 2.0021259208158213  0.51309033281520688 1.8111002610102298  0.51309033281520688 1.6199999999999974 
 0 8 0.04461440493199386 6 0.094220642248799585 6 0.13151558633718302 6 0.20816507694511549 6 0.3444139966338679 6 0.49788665846805635 6 0.64271787523200141 6 1 8
8 4.7123889803846897 6.2831853071795862
1 1.5707963267948966 -6.2831853071795862 0 1 
8 4.7123889803846897 6.2831853071795862
1 -4.7123889803846897 2.879999999999999 1 0 
1 0 -1.5707963267948966 1 0 
1 0 0 0 1 
1 11 0 0 -1 
1 -1.5707963267948966 4.5 1 0 
2 -8.2956957154191002 -0.38659757129584849 1 0 0 -1 11
7 0 0  4 5 2  0.79857654864060079 4.4999999999999973  0.7841139229810643 4.4999999999999973  0.76956850639758867 4.4942956631917985  0.75498734081190433 4.4822323304029705  0.74042506960486187 4.46312668361211 
 0 5 1 5
7 0 0  4 5 2  0 3.3250016286646611  0.038541884854922097 3.211036138467513  0.078067762540351707 3.0985581896943275  0.11860143737976946 2.9880604702414213  0.16019144165925514 2.8799993999999991 
 0 5 1 5
1 -1.5707963267948966 0 1 0 
2 11 10.999999999999998 1 0 0 -1 11
1 0 0 0 1 
1 0 0 1 0 
2 11 12.000000000000002 1 0 -0 1 11
1 -1.5707963267948966 0 1 0 
1 0 23 1 0 
1 0 0 1 0 
2 28 12.000000000000002 1 0 0 -1 11
1 -4.7123889803846897 0 1 0 
1 39 0 0 1 
1 0 0 1 0 
2 28 10.999999999999998 1 0 -0 1 11
1 -4.7123889803846897 0 1 0 
1 0 0 1 0 
1 0 0 1 0 
2 11 10.999999999999998 1 0 0 -1 11
1 -1.5707963267948966 0 1 0 
7 0 0  5 6 2  0.83037117633425384 4.4999999999999973  0.85246422839567171 4.4999999999999973  0.87437987760008229 4.488334740862185  0.8960596063800621 4.4667862549048172  0.91747291739168846 4.4367929299144544  0.93861114572649018 4.3995148593711715 
 0 6 1 6
7 0 0  5 6 2  0 3.5793800798046558  0.056925049383635615 3.7587756625433695  0.11167304104752744 3.9412585642819047  0.16447310830600922 4.126023874299289  0.21550321435518177 4.312417422757072  0.26493575148662873 4.5000005999999999 
 0 6 1 6
1 -1.5707963267948966 4.5 1 0 
2 -8.2956957154191002 -0.38659757129584849 1 0 0 -1 11
1 1.5707963267948966 0 0 1 
1 10.999999999999998 0 0 1 
8 4.7123889803846897 6.2831853071795862
1 6.2831853071795862 2.879999999999999 -1 -0 
8 4.7123889803846897 6.2831853071795862
1 1.5707963267948966 -6.2831853071795862 0 1 
1 0 0 0 1 
1 -16.415695715419105 -11.386597571295846 0 1 
1 0 -1.5707963267948966 1 0 
1 -19.2956957154191 -11.386597571295846 0 1 
1 0 4.5 1 0 
1 -16.175695715419096 -11.386597571295846 0 1 
1 0 0 0 1 
1 -19.2956957154191 -11.386597571295846 1 0 
1 0 -4.5 1 0 
2 8.7043042845808998 -0.38659757129584849 1 0 -0 1 11
1 -4.7123889803846897 4.5 1 0 
1 19.7043042845809 -11.386597571295846 0 1 
1 0 4.5 1 0 
2 8.7043042845808998 0.61340242870415418 1 0 0 -1 11
1 -4.7123889803846897 4.5 1 0 
1 -19.2956957154191 11.613402428704154 1 0 
1 0 -4.5 1 0 
2 -8.2956957154191002 0.61340242870415418 1 0 -0 1 11
1 -1.5707963267948966 4.5 1 0 
1 28 0 0 -1 
1 0 0 0 1 
1 12.000000000000002 0 0 1 
1 1.5707963267948966 0 0 1 
1 0 0 0 1 
1 11 0 0 -1 
1 28 0 0 -1 
1 0 0 0 1 
1 1.5707963267948966 0 0 1 
1 12.000000000000002 0 0 1 
1 10.999999999999998 0 0 1 
1 1.5707963267948966 0 0 1 
1 0 0 1 0 
1 12.277322404371587 -11.5 -1 0 
8 -12.4 0
1 16 0 0 1 
8 -12.4 0
1 4.6999999999999993 0 0 -1 
1 0 -12.4 1 0 
1 -12.277322404371578 -11.500000000000002 1 0 
1 0 0 0 -1 
1 0 0 0 1 
1 0 12.4 1 0 
1 3.7226775956284222 -16.200000000000003 0 1 
1 0 0 1 0 
1 -3.7226775956284133 -16.199999999999999 0 1 
1 0 0 0 1 
1 0 0 0 -1 
1 0 12.4 1 0 
1 -12.277322404371578 -11.500000000000002 0 1 
1 23 0 0 1 
1 0 0 0 -1 
1 0 0 1 0 
1 12.277322404371587 -11.5 0 1 
1 0 0 1 0 
1 12.277322404371587 11.5 -1 0 
8 -12.4 0
1 16 0 0 1 
8 -12.4 0
1 27.699999999999999 0 0 -1 
1 0 -12.4 1 0 
1 -12.277322404371578 11.499999999999998 1 0 
1 0 0 1 0 
1 -3.7226775956284133 -16.199999999999999 -1 0 
1 2.5 0 0 -1 
1 0 0 0 1 
1 0 -12.4 1 0 
1 3.7226775956284222 -16.200000000000003 1 0 
1 0 12.4 1 0 
1 3.7226775956284222 -16.200000000000003 0 1 
1 32.399999999999999 0 0 1 
1 0 0 0 -1 
1 0 0 1 0 
1 -3.7226775956284133 -16.199999999999999 0 1 
1 0 12.4 1 0 
1 6.2226775956284222 -16.200000000000003 0 1 
8 -12.4 0
1 4.6999999999999993 0 0 -1 
8 -12.4 0
1 18.5 0 0 1 
1 0 0 1 0 
1 -6.2226775956284133 -16.199999999999999 0 1 
1 0 0 1 0 
1 -3.7226775956284133 16.199999999999999 -1 0 
1 2.5 0 0 -1 
1 32.399999999999999 0 0 1 
1 0 -12.4 1 0 
1 3.7226775956284222 16.199999999999996 1 0 
1 0 12.4 1 0 
1 6.2226775956284222 -16.200000000000003 0 1 
1 0 0 1 0 
1 -6.2226775956284133 -16.199999999999999 0 1 
8 -12.4 0
1 27.699999999999999 0 0 -1 
8 -12.4 0
1 18.5 0 0 1 
1 0 0 1 0 
1 12.277322404371587 11.5 -1 0 
1 22.5 0 0 -1 
1 23 0 0 1 
1 0 -12.4 1 0 
1 -12.277322404371578 11.499999999999998 1 0 
1 0 0 0 1 
1 22.5 0 0 -1 
1 0 12.4 1 0 
1 10.222677595628422 -11.500000000000002 0 1 
1 0 0 1 0 
1 -10.222677595628413 -11.5 0 1 
2 6 6.2000000000000002 1 0 -0 1 5.9000000000000004
1 0 0 1 0 
1 0 0 1 0 
1 12.277322404371587 -11.5 -1 0 
1 0 -12.4 1 0 
1 -12.277322404371578 -11.500000000000002 1 0 
1 0 4 1 0 
2 0 0 1 0 -0 1 5.9000000000000004
1 6.2831853071795862 -0 0 1 
1 0 -0 0 1 
2 0 0 1 0 -0 1 9
1 0 0 1 0 
1 0 2 1 0 
2 0 0 1 0 -0 1 9
1 6.2831853071795862 -0 0 1 
1 0 -0 0 1 
Curves 169
1 -11.5 23.5 79 1 0 -0 
1 -0.500000000000002 19 79 -0 1 0 
1 -11.5 23.5 79 1 0 -0 
1 -11.5 19 79 1 0 -0 
1 0.500000000000002 19 79 -0 1 0 
1 0 24 79 0 -1 1.1102230246251565e-16 
8 1.5707963267948966 3.1415926535897931
2 0.50000000000000133 23.5 90 -0 1 0 0 0 1 1 0 -0 11
1 11.5 23.5 79 0 0 1 
1 -11.699999999999999 -11 -6.5 1 0 -0 
1 -11.699999999999999 -11 -6.5 -0 1 0 
1 11.699999999999998 23.5 149 -1 1.3596310734468911e-32 -1.2246467991473532e-16 
1 22.699999999999999 -11 -6.5 -0 1 0 
1 -11.699999999999999 -11 -6.5 1 0 -0 
1 -11.5 23.5 79 0 0 1 
2 -8.620000000000001 23.5 113.12 -0 1 0 -1 -0 0 0 0 1 2.8799999999999999
1 -11.5 23.5 116 1 0 -0 
1 -7 23.5 94.5 -0 0 -1 
1 -11.5 23.5 110 1 0 -0 
2 -8.620000000000001 23.5 112.88 -0 1 0 -1 -0 0 0 0 1 2.8799999999999999
1 -11.5 23.5 79 0 0 1 
8 1.5707963267948966 3.1415926535897931
2 -0.50000000000000133 23.5 90 0 -1 -0 0 0 1 -1 -0 0 11
2 -19.5 23.500000000000007 138 0 1 1.1102230246251565e-16 -1 1.3596310734468911e-32 -1.2246467991473532e-16 -1.2246467991473532e-16 -1.1102230246251565e-16 1 1.1499999999999999
1 1.6064543989802114 23.500000000000007 131 1 -0 1.2246467991473532e-16 
1 -17.799999999999997 23.500000000000007 124.56206944096465 -1.2246467991473532e-16 0 1 
1 1.6064543989802098 23.500000000000007 145 1 -0 1.2246467991473532e-16 
1 6.8000000000000007 23.500000000000007 124.56206944096465 -1.2246467991473532e-16 0 1 
2 0 23.5 90 0 -1 1.1102230246251565e-16 -1 1.3596310734468911e-32 1.2246467991473532e-16 -1.2246467991473532e-16 -1.1102230246251565e-16 -1 11
2 0 23.5 90 0 -1 1.1102230246251565e-16 -1 1.3596310734468911e-32 1.2246467991473532e-16 -1.2246467991473532e-16 -1.1102230246251565e-16 -1 11
2 8.5 23.500000000000007 138 0 1 1.1102230246251565e-16 -1 1.3596310734468911e-32 -1.2246467991473532e-16 -1.2246467991473532e-16 -1.1102230246251565e-16 1 1.1499999999999999
8 1.5707963267948966 3.1415926535897931
2 -0.50000000000000133 19 90 0 -1 -0 0 0 1 -1 -0 0 11
1 -11.500000000000002 19 90 -0 1 0 
8 1.5707963267948966 3.1415926535897931
2 0.50000000000000133 19 90 -0 1 0 0 0 1 1 0 -0 11
1 -11.5 19 79 0 0 1 
1 11.5 19 79 0 0 1 
1 -11.699999999999999 -11 -11 1 0 -0 
1 -11.699999999999999 -11 -11 1 0 -0 
1 22.699999999999999 -11 -11 -0 1 0 
1 -11.699999999999999 -11 -11 -0 1 0 
1 11.699999999999998 19 149 -1 1.3596310734468911e-32 -1.2246467991473532e-16 
2 -19.5 19.000000000000007 138 0 1 1.1102230246251565e-16 -1 1.3596310734468911e-32 -1.2246467991473532e-16 -1.2246467991473532e-16 -1.1102230246251565e-16 1 1.1499999999999999
1 1.8409248791847639 19.000000000000007 145 -1 0 -1.2246467991473532e-16 
1 -17.799999999999997 19.000000000000007 124.79314522358132 1.2246467991473532e-16 0 -1 
1 1.8409248791847657 19.000000000000007 131 -1 0 -1.2246467991473532e-16 
1 6.8000000000000016 19.000000000000007 124.79314522358132 1.2246467991473532e-16 0 -1 
2 -6.5 19.000000000000007 90 0 -1 1.1102230246251565e-16 -1 1.3596310734468911e-32 1.2246467991473532e-16 -1.2246467991473532e-16 -1.1102230246251565e-16 -1 1.1499999999999999
2 8.5 19.000000000000007 138 0 1 1.1102230246251565e-16 -1 1.3596310734468911e-32 -1.2246467991473532e-16 -1.2246467991473532e-16 -1.1102230246251565e-16 1 1.1499999999999999
2 7.9602041944577955e-16 19.000000000000007 96.5 0 -1 1.1102230246251565e-16 -1 1.3596310734468911e-32 1.2246467991473532e-16 -1.2246467991473532e-16 -1.1102230246251565e-16 -1 1.1499999999999999
2 0 19.000000000000007 90 0 -1 1.1102230246251565e-16 -1 1.3596310734468911e-32 1.2246467991473532e-16 -1.2246467991473532e-16 -1.1102230246251565e-16 -1 3.2000000000000002
2 -7.9602041944577955e-16 19.000000000000007 83.5 0 -1 1.1102230246251565e-16 -1 1.3596310734468911e-32 1.2246467991473532e-16 -1.2246467991473532e-16 -1.1102230246251565e-16 -1 1.1499999999999999
2 6.5 19.000000000000007 90 0 -1 1.1102230246251565e-16 -1 1.3596310734468911e-32 1.2246467991473532e-16 -1.2246467991473532e-16 -1.1102230246251565e-16 -1 1.1499999999999999
1 11.500000000000002 19 90 -0 1 0 
1 11.5 18.999999999999996 127 0 -1 -1.1102230246251565e-16 
1 -11.699999999999999 -11 -11 0 0 1 
1 -11.699999999999999 11 -11 0 0 1 
1 22.699999999999999 11 -11 0 0 1 
1 22.699999999999999 -11 -11 0 0 1 
1 -11.5 18.999999999999996 127 0 -1 -1.1102230246251565e-16 
1 -11.5 19 113.12 -0 1 0 
1 -11.5 45.119999999999997 110 0 0 1 
1 -11.5 19 112.88 -0 1 0 
2 -8.620000000000001 45.119999999999997 113.12 -0 1 0 -1 -0 0 0 0 1 2.8799999999999999
1 -10.0835488370727 43.5 115.60040819251654 -0 1 0 
2 -8.620000000000001 43.5 113.12 -0 1 0 -1 -0 0 0 0 1 2.8799999999999999
1 -8.620000000000001 19 116 -0 1 0 
1 -11.5 43.5 116 1 0 -0 
1 -7 19 116 -0 1 0 
1 -7 43.5 110 -0 0 -1 
1 -7 43.5 112.12588032535058 -0 1 0 
8 1.5707963267948966 3.1415926535897931
2 -7 45.119999999999997 112.88 -1 -0 0 0 0 1 -0 1 0 2.8799999999999999
1 -7 19 110 -0 1 0 
1 -8.620000000000001 19 110 -0 1 0 
1 -11.5 45.119999999999997 110 1 0 -0 
2 -8.620000000000001 45.119999999999997 112.88 0 1 -0 -1 0 0 0 0 1 2.8799999999999999
1 20.649999999999999 -2.8166876380389037e-16 -19 0 0 1 
1 17.800000000000001 -7 -23.5 0 0 1 
1 -6.7999999999999998 -7 -23.5 0 0 1 
1 17.800000000000001 7 -23.5 0 0 1 
1 -6.7999999999999998 7 -23.5 0 0 1 
1 11 -2.6942229581241772e-15 6 0 0 1 
2 0 0 6 0 0 1 1 0 -0 -0 1 0 11
1 -7.3499999999999996 -2.8166876380389116e-16 -19 0 0 1 
1 7.6500000000000004 -2.8166876380389135e-16 3 0 0 1 
2 -6.5 24 90 0 -1 1.1102230246251565e-16 -1 1.3596310734468911e-32 1.2246467991473532e-16 -1.2246467991473532e-16 -1.1102230246251565e-16 -1 1.1499999999999999
1 1.1499999999999999 -6.5 3 0 0 1 
2 7.9602041944577955e-16 24 96.5 0 -1 1.1102230246251565e-16 -1 1.3596310734468911e-32 1.2246467991473532e-16 -1.2246467991473532e-16 -1.1102230246251565e-16 -1 1.1499999999999999
1 3.2000000000000002 -7.8377395145430609e-16 3 0 0 1 
2 0 24 90 0 -1 1.1102230246251565e-16 -1 1.3596310734468911e-32 1.2246467991473532e-16 -1.2246467991473532e-16 -1.1102230246251565e-16 -1 3.2000000000000002
1 1.1499999999999999 6.5 3 0 0 1 
2 -7.9602041944577955e-16 24 83.5 0 -1 1.1102230246251565e-16 -1 1.3596310734468911e-32 1.2246467991473532e-16 -1.2246467991473532e-16 -1.1102230246251565e-16 -1 1.1499999999999999
1 -5.3499999999999996 -2.8166876380389116e-16 3 0 0 1 
2 6.5 24 90 0 -1 1.1102230246251565e-16 -1 1.3596310734468911e-32 1.2246467991473532e-16 -1.2246467991473532e-16 -1.1102230246251565e-16 -1 1.1499999999999999
2 -8.620000000000001 45.119999999999997 112.88 -0 -0 -1 -1 0 0 0 1 -0 2.8799999999999999
2 -8.620000000000001 45.119999999999997 113.12 0 0 1 -1 -0 0 0 -1 0 2.8799999999999999
1 -8.620000000000001 48 110 0 0 1 
7 0 0  7 50 9  -8.6200000000001271 47.963126789694805 113.57938007980478  -8.6329818619100429 47.960831546238694 113.59358545884889  -8.6465600036315831 47.958267135408228 113.60850161188965  -8.6607536613115546 47.955402065289412 113.62415940475229  -8.6755680582069026 47.952201430633941 113.64057635204964  -8.6909890220063932 47.948631423571918 113.65774941840671  -8.7069776021522411 47.94466384432458 113.67564781968565  -8.7417964849945946 47.935406946845127 113.71484025333636  -8.7607516155448355 47.930018092794562 113.73629786679271  -8.7802370754429369 47.924088370572406 113.75849069839296  -8.800146360217683 47.917603847569247 113.78131230310498  -8.8203684629498742 47.910561392377737 113.80464745539622  -8.8407968729259956 47.902967729411003 113.82838184757949  -8.8767822290692386 47.888726774221631 113.87047796972762  -8.8922928566771642 47.88231101669453 113.88871469760547  -8.9078349009310323 47.875595555303804 113.90708281258185  -8.923377397960456 47.868586303926172 113.92554728820414  -8.9388941133636735 47.861290000433932 113.9440776484383  -8.9543636793618671 47.853713451177882 113.96264838532973  -9.0014326319065425 47.82972787277378 114.01944804141888  -9.0328157802059739 47.812440677695506 114.05772852388974  -9.0637877047113751 47.79405080555663 114.09591816059692  -9.0942570052151961 47.774614651336087 114.13389312812637  -9.1241656927845813 47.754188541855747 114.17156402466705  -9.1534825291031403 47.732821887965805 114.20887145154809  -9.2332368776383742 47.670961361362039 114.31139151730061  -9.2823377952200126 47.628540423140343 114.37570173601712  -9.3294135109466989 47.583520799344534 114.43848759122963  -9.3744456431012164 47.536133399054854 114.49959625858315  -9.4174531508470629 47.486590215816307 114.55892422752032  -9.4584820490805122 47.435075164383271 114.61640993393645  -9.5416527519540146 47.321653390784036 114.73466833263993  -9.5832663475294684 47.259274315953284 114.79491907634204  -9.6225168552574107 47.194827683115626 114.85272017758257  -9.6594905403062654 47.128522378275264 114.90803506502827  -9.6942758211371256 47.060545383142475 114.96084415921746  -9.7269606636309565 46.991060039877524 115.01114188197094  -9.7865736198442193 46.853337902861526 115.10403340085597  -9.8137200428705587 46.785256288859607 115.14689807357861  -9.8391407793741994 46.716078419669849 115.18752961141647  -9.8629014408026823 46.645912984629362 115.22593346443425  -9.88506251228271 46.574858302999537 115.26211756909927  -9.9056795315343287 46.503002363454492 115.29609186793161  -9.9719793481486079 46.251377499504571 115.40625550824512  -10.010052743178711 46.067986433753667 115.47123972818422  -10.039809599193585 45.881359239191021 115.52303139207876  -10.061768697679264 45.692456496980789 115.56175184059721  -10.076285727480261 45.502125920815821 115.58751702342381  -10.083548837072554 45.311100261010232 115.60040819251662  -10.083548837072554 45.119999999999997 115.60040819251662 
 0 8 0.04461440493199386 6 0.094220642248799585 6 0.13151558633718302 6 0.20816507694511549 6 0.3444139966338679 6 0.49788665846805635 6 0.64271787523200141 6 1 8
2 -8.620000000000001 45.119999999999997 113.12 1 0 6.123233995736766e-17 -6.123233995736766e-17 -0 1 0 -1 0 2.8799999999999999
1 -11.500000000000002 43.5 121 -0 1 0 
8 1.5707963267948966 3.1415926535897931
2 -0.50000000000000133 48 121 0 -1 -0 0 0 1 -1 -0 0 11
7 0 0  4 5 2  -8.174998371335338 48 113.12  -8.2889638615324852 48 113.23100062838218  -8.4014418103056752 47.994295663191799 113.34483423496104  -8.5119395297585765 47.982232330402972 113.46113508541508  -8.6200005999999991 47.96312668361211 113.57938073635363 
 0 5 1 5
8 1.5707963267948966 3.1415926535897931
2 -0.50000000000000133 43.5 121 0 -1 -0 0 0 1 -1 -0 0 11
1 -11.5 43.5 110 1 0 -0 
8 1.5707963267948966 3.1415926535897931
2 0.50000000000000133 43.5 121 -0 1 0 0 0 1 1 0 -0 11
1 11.5 43.5 110 0 0 1 
8 4.7123889803846897 6.2831853071795862
2 0.50000000000000133 43.5 138 0 -1 -0 0 0 1 -1 -0 0 11
1 -11.5 43.5 149 1 0 -0 
8 4.7123889803846897 6.2831853071795862
2 -0.50000000000000133 43.5 138 -0 1 0 0 0 1 1 0 -0 11
1 -11.5 43.5 110 0 0 1 
8 1.5707963267948966 3.1415926535897931
2 -0.50000000000000133 43.5 121 0 -1 -0 0 0 1 -1 -0 0 11
7 0 0  5 6 2  -7.9206199201953442 48 112.88  -7.7412243374566305 48 112.71605585777513  -7.5587414357180966 47.988334740862179 112.55838242544932  -7.3739761257007066 47.966786254904818 112.40742138265109  -7.1875825772429298 47.936792929914454 112.26327835736366  -6.999999400000001 47.899514859371173 112.12587988587039 
 0 6 1 6
8 1.5707963267948966 3.1415926535897931
2 -0.50000000000000133 48 121 0 -1 -0 0 0 1 -1 -0 0 11
1 -0.500000000000002 43.5 110 -0 1 0 
2 -8.620000000000001 45.119999999999997 112.88 1 6.123233995736766e-17 -0 -6.123233995736766e-17 1 0 0 0 1 2.8799999999999999
1 -11.5 48 112.88 1 0 -0 
1 -11.5 48 110 1 0 -0 
1 -11.5 48 113.12 1 0 -0 
1 -11.5 48 110 0 0 1 
8 4.7123889803846897 6.2831853071795862
2 -0.50000000000000133 48 138 -0 1 0 0 0 1 1 0 -0 11
1 -11.5 48 149 1 0 -0 
8 4.7123889803846897 6.2831853071795862
2 0.50000000000000133 48 138 0 -1 -0 0 0 1 -1 -0 0 11
1 11.5 48 110 0 0 1 
8 1.5707963267948966 3.1415926535897931
2 0.50000000000000133 48 121 -0 1 0 0 0 1 1 0 -0 11
1 -11.500000000000002 43.5 138 -0 1 0 
1 0.500000000000002 43.5 110 -0 1 0 
1 11.500000000000002 43.5 121 -0 1 0 
1 11.500000000000002 43.5 138 -0 1 0 
1 0.500000000000002 43.5 149 -0 1 0 
1 -0.500000000000002 43.5 149 -0 1 0 
1 -6 -6.2000000000000002 -22.5 0 0 1 
1 -6 -6.2000000000000002 -6.5 0 -1 0 
1 -6 6.2000000000000002 -22.5 0 0 1 
1 -6 -6.2000000000000002 -22.5 -0 1 0 
1 -10.699999999999999 6.2000000000000002 -6.5 1 0 -0 
1 -10.699999999999999 -6.2000000000000002 -6.5 1 0 -0 
1 -10.699999999999999 -6.2000000000000002 -6.5 -0 1 0 
1 -6 6.2000000000000002 -22.5 1 0 -0 
1 17 -6.2000000000000002 -22.5 -0 1 0 
1 -6 -6.2000000000000002 -22.5 1 0 -0 
1 17 -6.2000000000000002 -22.5 0 0 1 
1 17 -6.2000000000000002 -6.5 0 -1 0 
1 17 6.2000000000000002 -22.5 0 0 1 
1 -10.699999999999999 -6.2000000000000002 -6.5 0 0 1 
1 -10.699999999999999 -6.2000000000000002 -4 -0 1 0 
1 -10.699999999999999 6.2000000000000002 -6.5 0 0 1 
1 -10.699999999999999 6.2000000000000002 -6.5 1 0 -0 
1 21.699999999999999 -6.2000000000000002 -6.5 -0 1 0 
1 -10.699999999999999 -6.2000000000000002 -6.5 1 0 -0 
1 -10.699999999999999 6.2000000000000002 -4 1 0 -0 
1 -6 -6.2000000000000002 -4 0 -1 0 
1 -10.699999999999999 -6.2000000000000002 -4 1 0 -0 
1 21.699999999999999 -6.2000000000000002 -6.5 0 0 1 
1 21.699999999999999 -6.2000000000000002 -4 -0 1 0 
1 21.699999999999999 6.2000000000000002 -6.5 0 0 1 
1 -10.699999999999999 6.2000000000000002 -4 1 0 -0 
1 -10.699999999999999 -6.2000000000000002 -4 1 0 -0 
1 17 -6.2000000000000002 -4 0 -1 0 
1 17 -6.2000000000000002 -22.5 0 0 1 
1 17 -6.2000000000000002 0 -0 1 0 
1 17 6.2000000000000002 -22.5 0 0 1 
1 -6 -6.2000000000000002 0 -0 1 0 
1 -6 6.2000000000000002 0 1 0 -0 
1 -6 -6.2000000000000002 0 1 0 -0 
2 0 0 0 0 0 1 1 0 -0 -0 1 0 5.9000000000000004
1 -6 -6.2000000000000002 -22.5 0 0 1 
1 -6 6.2000000000000002 -22.5 0 0 1 
2 0 0 4 0 0 1 1 0 -0 -0 1 0 5.9000000000000004
1 5.9000000000000004 -1.4450832229938768e-15 0 0 0 1 
2 0 0 4 0 0 1 1 0 -0 -0 1 0 9
2 0 0 6 0 0 1 1 0 -0 -0 1 0 9
1 9 -2.2043642384652358e-15 4 0 0 1 
Polygon3D 0
PolygonOnTriangulations 0
Surfaces 64
1 -11.5 19 79 0 0 1 1 0 -0 -0 1 0 
1 -3.5870912020395762 23.500000000000007 118.1241388819293 0 1 0 0 -0 1 1 0 -0 
2 -0.50000000000000133 19 90 -0 1 0 -1 -0 0 -0 -0 -1 11
1 -3.1181502416304681 19.000000000000007 118.58629044716263 -0 -1 -0 0 0 -1 1 -0 0 
2 0.50000000000000133 19 90 -0 1 0 1 0 -0 -0 0 -1 11
1 11.5 19 79 1 0 -0 0 0 1 0 -1 0 
1 -11.699999999999999 -11 -11 -0 1 0 0 0 1 1 0 -0 
1 -11.699999999999999 -11 -11 1 0 -0 0 0 1 0 -1 0 
1 -5.4999999999999991 21.25 149.00000000000003 0 0 1 1 0 -0 -0 1 0 
1 22.699999999999999 -11 -11 1 0 -0 0 0 1 0 -1 0 
1 -11.699999999999999 -11 -11 -0 1 0 0 0 1 1 0 -0 
1 -11.499999999999996 25.764442332065897 110.04134980988593 -1 -0 -0 0 0 -1 0 -1 0 
2 -8.620000000000001 19 113.12 -0 1 0 -1 -0 0 0 0 1 2.8799999999999999
1 -11.5 19 116 0 0 1 1 0 -0 -0 1 0 
1 -7 19 110 1 0 -0 0 0 1 0 -1 0 
1 -11.5 19 110 0 0 1 1 0 -0 -0 1 0 
2 -8.620000000000001 19 112.88 -0 1 0 -1 -0 0 -0 -0 -1 2.8799999999999999
2 19.5 0 -19 0 0 1 1 0 -0 -0 1 0 1.1499999999999999
1 -6.7999999999999998 -7 -23.5 -0 1 0 0 0 1 1 0 -0 
1 17.800000000000001 -7 -23.5 1 0 -0 0 0 1 0 -1 0 
1 -6.7999999999999998 7 -23.5 -0 1 0 0 0 1 1 0 -0 
1 -6.7999999999999998 -7 -23.5 1 0 -0 0 0 1 0 -1 0 
2 0 0 6 0 0 1 1 0 -0 -0 1 0 11
2 -8.5 0 -19 0 0 1 1 0 -0 -0 1 0 1.1499999999999999
2 6.5 0 3 0 0 1 1 0 -0 -0 1 0 1.1499999999999999
2 0 -6.5 3 0 0 1 1 0 -0 -0 1 0 1.1499999999999999
2 0 0 3 0 0 1 1 0 -0 -0 1 0 3.2000000000000002
2 0 6.5 3 0 0 1 1 0 -0 -0 1 0 1.1499999999999999
2 -6.5 0 3 0 0 1 1 0 -0 -0 1 0 1.1499999999999999
2 -8.620000000000001 45.119999999999997 110 0 0 1 -1 -0 0 -0 1 -0 2.8799999999999999
4 -8.620000000000001 45.119999999999997 113.12 0 -1 -0 -1 -0 0 0 -0 1 2.8799999999999999
2 -0.50000000000000133 43.5 121 -0 1 0 -1 -0 0 -0 -0 -1 11
1 -11.5 43.5 110 -0 1 0 0 0 1 1 0 -0 
2 -0.50000000000000133 43.5 121 -0 1 0 -1 -0 0 -0 -0 -1 11
2 -11.5 45.119999999999997 112.88 1 0 -0 0 1 0 -0 0 -1 2.8799999999999999
4 -8.620000000000001 45.119999999999997 112.88 0 0 1 -1 0 0 -0 1 -0 2.8799999999999999
1 0 0 6 0 0 1 1 0 -0 -0 1 0 
1 -0.11340242870415287 48.000000000000007 129.2956957154191 0 1 0 0 -0 1 1 0 -0 
2 -11.5 45.119999999999997 113.12 1 0 -0 0 1 0 0 -0 1 2.8799999999999999
1 -11.5 43.5 110 1 0 -0 0 0 1 0 -1 0 
1 -11.5 43.5 110 0 0 1 1 0 -0 -0 1 0 
2 0.50000000000000133 43.5 121 -0 1 0 1 0 -0 -0 0 -1 11
1 11.5 43.5 110 1 0 -0 0 0 1 0 -1 0 
2 0.50000000000000133 43.5 138 -0 1 0 1 0 -0 0 -0 1 11
1 -11.5 43.5 149 0 0 1 1 0 -0 -0 1 0 
2 -0.50000000000000133 43.5 138 -0 1 0 -1 -0 0 0 0 1 11
1 -6 -6.2000000000000002 -22.5 1 0 -0 0 0 1 0 -1 0 
1 5.5 -6.1999999999999993 -10.222677595628413 -0 -1 -0 0 0 -1 1 -0 0 
1 -10.699999999999999 -6.2000000000000002 -6.5 0 0 1 1 0 -0 -0 1 0 
1 5.5000000000000018 6.2000000000000028 -10.222677595628422 0 1 0 0 -0 1 1 0 -0 
1 -6 -6.2000000000000002 -22.5 0 0 1 1 0 -0 -0 1 0 
1 -10.699999999999999 -6.2000000000000002 -6.5 1 0 -0 0 0 1 0 -1 0 
1 17 -6.2000000000000002 -22.5 1 0 -0 0 0 1 0 -1 0 
1 -10.699999999999999 -6.2000000000000002 -6.5 0 0 1 1 0 -0 -0 1 0 
1 -10.699999999999999 -6.2000000000000002 -4 0 0 1 1 0 -0 -0 1 0 
1 21.699999999999999 -6.2000000000000002 -6.5 1 0 -0 0 0 1 0 -1 0 
1 -6 -6.2000000000000002 -22.5 1 0 -0 0 0 1 0 -1 0 
1 -10.699999999999999 -6.2000000000000002 -4 0 0 1 1 0 -0 -0 1 0 
1 17 -6.2000000000000002 -22.5 1 0 -0 0 0 1 0 -1 0 
1 -6 -6.2000000000000002 0 0 0 1 1 0 -0 -0 1 0 
2 0 0 0 0 0 1 1 0 -0 -0 1 0 5.9000000000000004
1 0 0 4 0 0 1 1 0 -0 -0 1 0 
2 0 0 4 0 0 1 1 0 -0 -0 1 0 9
1 0 0 6 0 0 1 1 0 -0 -0 1 0 
Triangulations 0

TShapes 435
Ve
1.5e-07
-0.500000000000002 23.5 79
0 0

0101101
*
Ve
1.5e-07
0 23.5 79
0 0

0101101
*
Ed
 1.5e-07 1 1 0
1  1 0 11 11.5
2  1 1 0 11 11.5
2  2 2 0 11 11.5
0

0101000
+435 0 -434 0 *
Ve
1.5e-07
-0.500000000000002 19 79
0 0

0101101
*
Ed
 1e-07 1 1 0
1  2 0 0 4.5
2  3 1 0 0 4.5
2  4 3 0 0 4.5
4 G1 1 0 3 0
0

0101000
+432 0 -435 0 *
Ve
1.5e-07
0.500000000000002 23.5 79
0 0

0101101
*
Ed
 1.5e-07 1 1 0
1  3 0 11.5 12
2  5 1 0 11.5 12
2  6 2 0 11.5 12
0

0101000
+434 0 -430 0 *
Ve
1.5e-07
0.500000000000002 19 79
0 0

0101101
*
Ed
 1.5e-07 1 1 0
1  4 0 11 12
2  7 1 0 11 12
2  8 4 0 11 12
0

0101000
+432 0 -428 0 *
Ed
 1e-07 1 1 0
1  5 0 0 4.5
2  9 1 0 0 4.5
2  10 5 0 0 4.5
4 G1 1 0 5 0
0

0101000
+428 0 -430 0 *
Wi

0101100
-433 0 -431 0 -429 0 +427 0 +426 0 *
Ve
1.00000002020667e-07
-2.02066721859313e-15 21 79
0 0

0101101
*
Ed
 1e-07 1 1 0
1  6 0 0.5 3
2  11 1 0 0.5 3
0

0101000
+434 0 -424 0 *
Wi

0101000
i423 0 *
Fa
0  1e-07 1 0

0101000
+425 0 +422 0 *
Ve
1.5e-07
11.5 23.5 90
0 0

0101101
*
Ed
 1.5e-07 1 1 0
1  7 0 1.5707963267949 3.14159265358979
2  12 2 0 1.5707963267949 3.14159265358979
2  13 5 0 1.5707963267949 3.14159265358979
0

0101000
+420 0 -430 0 *
Ve
1.5e-07
11.5 23.5 127
0 0

0101101
*
Ed
 1.5e-07 1 1 0
1  8 0 11 48
2  14 2 0 11 48
2  15 6 0 11 48
0

0101000
+420 0 -418 0 *
Ve
1.5e-07
11.7 23.5 127
0 0

0101101
*
Ed
 1.5e-07 1 1 0
1  9 0 0 0.200000000000001
2  16 2 8 0 0.200000000000001
2  17 7 0 0 0.200000000000001
0

0101000
+416 8 -418 8 *
Ve
1.5e-07
11.7 23.5 149
0 0

0101101
*
Ed
 1.5e-07 1 1 0
1  10 0 0 22
2  18 2 8 0 22
2  19 8 0 0 22
0

0101000
-414 8 +416 8 *
Ve
1.5e-07
-22.7 23.5 149
0 0

0101101
*
Ed
 1e-07 1 1 0
1  11 0 0 34.4
2  20 2 0 0 34.4
2  21 9 0 0 34.4
0

0101000
+414 0 -412 0 *
Ve
1.5e-07
-22.7 23.5 127
0 0

0101101
*
Ed
 1.5e-07 1 1 0
1  12 0 0 22
2  22 2 8 0 22
2  23 10 0 0 22
0

0101000
-412 8 +410 8 *
Ve
1.5e-07
-11.5 23.5 127
0 0

0101101
*
Ed
 1.5e-07 1 1 0
1  13 0 23.2 34.4
2  24 2 8 23.2 34.4
2  25 11 0 23.2 34.4
0

0101000
+408 8 -410 8 *
Ve
1.5e-07
-11.5 23.5 113.12
0 0

0101101
*
Ed
 1.5e-07 1 1 0
1  14 0 34.12 48
2  26 2 0 34.12 48
2  27 12 0 34.12 48
0

0101000
+406 0 -408 0 *
Ve
1.5e-07
-8.62 23.5 116
0 0

0101101
*
Ed
 1.5e-07 1 1 0
1  15 0 0 1.5707963267949
2  28 2 0 0 1.5707963267949
2  29 13 0 0 1.5707963267949
0

0101000
+406 0 -404 0 *
Ve
1.5e-07
-7 23.5 116
0 0

0101101
*
Ed
 1.5e-07 1 1 0
1  16 0 2.88 4.5
2  30 2 0 2.88 4.5
2  31 14 0 2.88 4.5
0

0101000
+404 0 -402 0 *
Ve
1.5e-07
-7 23.5 110
0 0

0101101
*
Ed
 1.5e-07 1 1 0
1  17 0 -21.5 -15.5
2  32 2 0 -21.5 -15.5
2  33 15 0 -21.5 -15.5
0

0101000
+402 0 -400 0 *
Ve
1.5e-07
-8.62 23.5 110
0 0

0101101
*
Ed
 1.5e-07 1 1 0
1  18 0 2.88 4.5
2  34 2 0 2.88 4.5
2  35 16 0 2.88 4.5
0

0101000
+398 0 -400 0 *
Ve
1.5e-07
-11.5 23.5 112.88
0 0

0101101
*
Ed
 1.5e-07 1 1 0
1  19 0 4.71238898038469 6.28318530717959
2  36 2 0 4.71238898038469 6.28318530717959
2  37 17 0 4.71238898038469 6.28318530717959
0

0101000
+398 0 -396 0 *
Ve
1.5e-07
-11.5 23.5 90
0 0

0101101
*
Ed
 1.5e-07 1 1 0
1  20 0 11 33.88
2  38 2 0 11 33.88
2  39 12 0 11 33.88
0

0101000
+394 0 -396 0 *
Ed
 1.5e-07 1 1 0
1  21 0 1.5707963267949 3.14159265358979
2  40 2 0 1.5707963267949 3.14159265358979
2  41 3 0 1.5707963267949 3.14159265358979
0

0101000
+394 0 -435 0 *
Wi

0101100
-433 0 -429 0 +419 0 -417 0 +415 7 -413 7 -411 0 +409 7 +407 7 +405 0 
-403 0 -401 0 -399 0 +397 0 -395 0 +393 0 -392 0 *
Ve
1.5e-07
-20.65 23.5 138
0 0

0101101
*
Ed
 1.5e-07 1 1 0
1  22 0 0 6.28318530717959
2  42 2 0 0 6.28318530717959
2  43 18 14 0 6.28318530717959
0

0101100
+390 0 -390 0 *
Wi

0101100
-389 0 *
Ve
2.00000003552714e-07
-17.8 23.5 131
0 0

0101101
*
Ve
2.00000000888178e-07
6.8 23.5 131
0 0

0101101
*
Ed
 2e-07 1 1 0
1  23 0 -19.4064543989802 5.19354560101979
2  44 2 0 -19.4064543989802 5.19354560101979
2  45 19 20 -19.4064543989802 5.19354560101979
0

0101000
+387 0 -386 0 *
Ve
2.00000003552714e-07
-17.8 23.5 145
0 0

0101101
*
Ed
 2e-07 1 1 0
1  24 0 6.43793055903535 20.4379305590354
2  46 2 0 6.43793055903535 20.4379305590354
2  47 20 20 6.43793055903535 20.4379305590354
0

0101000
+387 0 -384 0 *
Ve
2.00000000888178e-07
6.8 23.5 145
0 0

0101101
*
Ed
 2e-07 1 1 0
1  25 0 -19.4064543989802 5.19354560101979
2  48 2 0 -19.4064543989802 5.19354560101979
2  49 21 20 -19.4064543989802 5.19354560101979
0

0101000
+384 0 -382 0 *
Ed
 2e-07 1 1 0
1  26 0 6.43793055903535 20.4379305590354
2  50 2 0 6.43793055903535 20.4379305590354
2  51 22 20 6.43793055903535 20.4379305590354
0

0101000
+386 0 -382 0 *
Wi

0101100
+385 0 -383 0 -381 0 +380 0 *
Ve
1e-07
-11 23.5 90
0 0

0101101
*
Ed
 1e-07 1 1 0
1  27 0 0 1.5707963267949
2  52 2 0 0 1.5707963267949
2  53 23 26 0 1.5707963267949
0

0101000
+378 0 -434 0 *
Ed
 1e-07 1 1 0
1  28 0 1.5707963267949 6.28318530717959
2  54 2 0 1.5707963267949 6.28318530717959
2  55 23 26 1.5707963267949 6.28318530717959
0

0101000
+434 0 -378 0 *
Wi

0101100
+377 0 +376 0 *
Ve
1.5e-07
7.35 23.5 138
0 0

0101101
*
Ed
 1.5e-07 1 1 0
1  29 0 0 6.28318530717959
2  56 2 0 0 6.28318530717959
2  57 24 32 0 6.28318530717959
0

0101100
+374 0 -374 0 *
Wi

0101100
-373 0 *
Fa
0  1.5e-07 2 0

0101000
+391 0 +388 0 +379 0 +375 0 +372 0 *
Ve
1.5e-07
-11.5 19 90
0 0

0101101
*
Ed
 1.5e-07 1 1 0
1  30 0 1.5707963267949 3.14159265358979
2  58 3 0 1.5707963267949 3.14159265358979
2  59 4 0 1.5707963267949 3.14159265358979
0

0101000
+370 0 -432 0 *
Ed
 1.5e-07 1 1 0
1  31 0 -0 4.5
2  60 3 0 -0 4.5
2  61 12 0 -0 4.5
0

0101000
+370 0 -394 0 *
Wi

0101100
+369 0 -368 0 +431 0 -392 0 *
Fa
0  1e-07 3 0

0101000
+367 0 *
Ve
1.5e-07
11.5 19 90
0 0

0101101
*
Ed
 1.5e-07 1 1 0
1  32 0 1.5707963267949 3.14159265358979
2  62 4 0 1.5707963267949 3.14159265358979
2  63 5 0 1.5707963267949 3.14159265358979
0

0101000
+365 0 -428 0 *
Ve
1.5e-07
-11.5 19 127
0 0

0101101
*
Ed
 1.5e-07 1 1 0
1  33 0 11 48
2  64 4 0 11 48
2  65 12 0 11 48
0

0101000
+370 0 -363 0 *
Ve
1.5e-07
11.5 19 127
0 0

0101101
*
Ed
 1.5e-07 1 1 0
1  34 0 11 48
2  66 4 0 11 48
2  67 6 0 11 48
0

0101000
+365 0 -361 0 *
Ve
1.5e-07
-22.7 19 127
0 0

0101101
*
Ed
 1.5e-07 1 1 0
1  35 0 23.2 34.4
2  68 4 8 23.2 34.4
2  69 11 0 23.2 34.4
0

0101000
+363 8 -359 8 *
Ve
1.5e-07
11.7 19 127
0 0

0101101
*
Ed
 1.5e-07 1 1 0
1  36 0 0 0.200000000000001
2  70 4 8 0 0.200000000000001
2  71 7 0 0 0.200000000000001
0

0101000
+357 8 -361 8 *
Ve
1.5e-07
-22.7 19 149
0 0

0101101
*
Ed
 1.5e-07 1 1 0
1  37 0 0 22
2  72 4 8 0 22
2  73 10 0 0 22
0

0101000
-355 8 +359 8 *
Ve
1.5e-07
11.7 19 149
0 0

0101101
*
Ed
 1.5e-07 1 1 0
1  38 0 0 22
2  74 4 8 0 22
2  75 8 0 0 22
0

0101000
-353 8 +357 8 *
Ed
 1e-07 1 1 0
1  39 0 0 34.4
2  76 4 0 0 34.4
2  77 9 0 0 34.4
0

0101000
+353 0 -355 0 *
Wi

0101100
+427 0 +369 0 -364 0 -362 0 +360 0 -358 7 -356 7 -354 7 +352 7 +351 0 
*
Ve
1.5e-07
-20.65 19 138
0 0

0101101
*
Ed
 1.5e-07 1 1 0
1  40 0 0 6.28318530717959
2  78 4 0 0 6.28318530717959
2  79 18 14 0 6.28318530717959
0

0101100
+349 0 -349 0 *
Wi

0101100
+348 0 *
Ve
2e-07
6.8 19 145
0 0

0101101
*
Ve
2e-07
-17.8 19 145
0 0

0101101
*
Ed
 2e-07 1 1 0
1  41 0 -4.95907512081524 19.6409248791848
2  80 4 0 -4.95907512081524 19.6409248791848
2  81 21 20 -4.95907512081524 19.6409248791848
0

0101000
+346 0 -345 0 *
Ve
2.00000003552714e-07
-17.8 19 131
0 0

0101101
*
Ed
 2e-07 1 1 0
1  42 0 -20.2068547764187 -6.20685477641868
2  82 4 0 -20.2068547764187 -6.20685477641868
2  83 20 20 -20.2068547764187 -6.20685477641868
0

0101000
+345 0 -343 0 *
Ve
2e-07
6.8 19 131
0 0

0101101
*
Ed
 2e-07 1 1 0
1  43 0 -4.95907512081524 19.6409248791848
2  84 4 0 -4.95907512081524 19.6409248791848
2  85 19 20 -4.95907512081524 19.6409248791848
0

0101000
+341 0 -343 0 *
Ed
 2e-07 1 1 0
1  44 0 -20.2068547764187 -6.20685477641868
2  86 4 0 -20.2068547764187 -6.20685477641868
2  87 22 20 -20.2068547764187 -6.20685477641868
0

0101000
+346 0 -341 0 *
Wi

0101100
-344 0 -342 0 +340 0 +339 0 *
Ve
1.5e-07
-7.65 19 90
0 0

0101101
*
Ed
 1.5e-07 1 1 0
1  45 0 0 6.28318530717959
2  88 4 0 0 6.28318530717959
2  89 25 38 0 6.28318530717959
0

0101100
+337 0 -337 0 *
Wi

0101100
-336 0 *
Ve
1.5e-07
7.35 19 138
0 0

0101101
*
Ed
 1.5e-07 1 1 0
1  46 0 0 6.28318530717959
2  90 4 0 0 6.28318530717959
2  91 24 32 0 6.28318530717959
0

0101100
+334 0 -334 0 *
Wi

0101100
+333 0 *
Ve
1.5e-07
-1.15 19 96.5
0 0

0101101
*
Ed
 1.5e-07 1 1 0
1  47 0 0 6.28318530717959
2  92 4 0 0 6.28318530717959
2  93 26 44 0 6.28318530717959
0

0101100
+331 0 -331 0 *
Wi

0101100
-330 0 *
Ve
1.5e-07
-3.2 19 90
0 0

0101101
*
Ed
 1.5e-07 1 1 0
1  48 0 0 6.28318530717959
2  94 4 0 0 6.28318530717959
2  95 27 50 0 6.28318530717959
0

0101100
+328 0 -328 0 *
Wi

0101100
-327 0 *
Ve
1.5e-07
-1.15 19 83.5
0 0

0101101
*
Ed
 1.5e-07 1 1 0
1  49 0 0 6.28318530717959
2  96 4 0 0 6.28318530717959
2  97 28 56 0 6.28318530717959
0

0101100
+325 0 -325 0 *
Wi

0101100
-324 0 *
Ve
1.5e-07
5.35 19 90
0 0

0101101
*
Ed
 1.5e-07 1 1 0
1  50 0 0 6.28318530717959
2  98 4 0 0 6.28318530717959
2  99 29 62 0 6.28318530717959
0

0101100
+322 0 -322 0 *
Wi

0101100
-321 0 *
Fa
0  1.5e-07 4 0

0101000
+350 0 +347 0 +338 0 +335 0 +332 0 +329 0 +326 0 +323 0 +320 0 *
Ed
 1e-07 1 1 0
1  51 0 -0 4.5
2  100 5 0 -0 4.5
2  101 6 0 -0 4.5
4 G1 5 0 6 0
0

0101000
+365 0 -420 0 *
Wi

0101100
+364 0 -318 0 +426 0 -419 0 *
Fa
0  1e-07 5 0

0101000
+317 0 *
Ed
 1.5e-07 1 1 0
1  52 0 -4.5 -3.5527136788005e-15
2  102 6 0 -4.5 -3.5527136788005e-15
2  103 7 7 -4.5 -3.5527136788005e-15
0

0101000
+418 0 -361 0 *
Wi

0101100
-360 0 +315 0 +417 0 +318 0 *
Fa
0  1e-07 6 0

0101000
+314 0 *
Ed
 1e-07 1 1 0
1  53 0 0 4.5
2  104 7 0 0 4.5
2  105 8 0 0 4.5
0

0101000
-416 8 +357 8 *
Wi

0101100
-356 7 +315 0 +415 7 +312 7 *
Fa
0  1e-07 7 7

0101000
+311 0 *
Ed
 1.5e-07 1 1 0
1  54 0 0 4.5
2  106 8 0 0 4.5
2  107 9 8 0 4.5
0

0101000
-414 8 +353 8 *
Wi

0101100
-312 0 -413 0 +309 0 +352 0 *
Fa
0  1e-07 8 0

0111000
+308 0 *
Ed
 1.5e-07 1 1 0
1  55 0 0 4.5
2  108 9 8 0 4.5
2  109 10 0 0 4.5
0

0101000
-412 8 +355 8 *
Wi

0101000
+411 0 -306 7 -351 0 +309 7 *
Fa
0  1.5e-07 9 0

0111000
+305 0 *
Ed
 1e-07 1 1 0
1  56 0 0 4.5
2  110 10 0 0 4.5
2  111 11 0 0 4.5
0

0101000
-410 8 +359 8 *
Wi

0101100
-303 0 -409 0 +306 0 +354 0 *
Fa
0  1e-07 10 0

0111000
+302 0 *
Ed
 1.5e-07 1 1 0
1  57 0 -4.5 -3.5527136788005e-15
2  112 11 7 -4.5 -3.5527136788005e-15
2  113 12 0 -4.5 -3.5527136788005e-15
0

0101000
+408 0 -363 0 *
Wi

0101100
-358 7 -303 7 +407 7 -300 0 *
Fa
0  1e-07 11 7

0101000
+299 0 *
Ve
1.5e-07
-11.5 45.12 113.12
0 0

0101101
*
Ed
 1.5e-07 1 1 0
1  58 0 4.5 26.12
2  114 12 0 4.5 26.12
2  115 13 0 4.5 26.12
0

0101000
+406 0 -297 0 *
Ve
1.5e-07
-11.5 45.12 112.88
0 0

0101101
*
Ed
 1.5e-07 1 1 0
1  59 0 2.88 3.12
2  116 12 0 2.88 3.12
2  117 30 0 2.88 3.12
0

0101000
+295 0 -297 0 *
Ed
 1.5e-07 1 1 0
1  60 0 4.5 26.12
2  118 12 0 4.5 26.12
2  119 17 0 4.5 26.12
0

0101000
+396 0 -295 0 *
Wi

0101100
+362 0 -300 0 -405 0 +296 0 -294 0 -293 0 -393 0 -368 0 *
Fa
0  1.5e-07 12 0

0101000
+292 0 *
Ve
1.00000168781945e-07
-10.0835488370726 45.12 115.600408192517
0 0

0101101
*
Ed
 1e-07 1 1 0
1  61 0 0 1.03772991797722
2  120 13 0 0 1.03772991797722
2  121 31 0 0 1.03772991797722
4 G1 13 0 31 0
0

0101000
+297 0 -290 0 *
Ve
1.00000214174424e-07
-10.0835488370726 43.5 115.600408192516
0 0

0101101
*
Ed
 1e-07 1 1 0
1  62 0 0 1.62
2  122 13 0 0 1.62
2  123 32 0 0 1.62
0

0101000
+288 0 -290 0 *
Ve
1.5e-07
-8.62 43.5 116
0 0

0101101
*
Ed
 1e-07 1 1 0
1  63 0 1.03772991797716 1.5707963267949
2  124 13 0 1.03772991797716 1.5707963267949
2  125 33 0 1.03772991797716 1.5707963267949
0

0101000
+288 0 -286 0 *
Ed
 1e-07 1 1 0
1  64 0 4.5 24.5
2  126 13 0 4.5 24.5
2  127 14 0 4.5 24.5
4 G1 13 0 14 0
0

0101000
+404 0 -286 0 *
Wi

0101100
+403 0 -296 0 -289 0 +287 0 -285 0 +284 0 *
Fa
0  1e-07 13 0

0101000
+283 0 *
Ve
1.5e-07
-7 43.5 116
0 0

0101101
*
Ed
 1.5e-07 1 1 0
1  65 0 2.88 4.5
2  128 14 0 2.88 4.5
2  129 33 0 2.88 4.5
0

0101000
+286 0 -281 0 *
Ed
 1e-07 1 1 0
1  66 0 4.5 24.5
2  130 14 0 4.5 24.5
2  131 15 0 4.5 24.5
0

0101000
+402 0 -281 0 *
Wi

0101100
+401 0 -284 0 -280 0 +279 0 *
Fa
0  1e-07 14 0

0101000
+278 0 *
Ve
1.50000001776357e-07
-7 43.5 112.125880325351
0 0

0101101
*
Ed
 1.5e-07 1 1 0
1  67 0 -6 -2.12588032535058
2  132 15 0 -6 -2.12588032535058
2  133 33 0 -6 -2.12588032535058
0

0101000
+281 0 -276 0 *
Ve
1.00000099475983e-07
-7 47.899514978608 112.12588032535
0 0

0101101
*
Ed
 1e-07 1 1 0
1  68 0 0 4.39951497860805
2  134 15 0 0 4.39951497860805
2  135 34 0 0 4.39951497860805
0

0101000
+276 0 -274 0 *
Ve
1e-07
-7 45.12 110
0 0

0101101
*
Ed
 1e-07 1 1 0
1  69 0 1.83573192016757 3.14159265358979
2  136 15 0 1.83573192016757 3.14159265358979
2  137 35 0 1.83573192016757 3.14159265358979
0

0101000
+274 0 -272 0 *
Ed
 1e-07 1 1 0
1  70 0 4.5 26.12
2  138 15 0 4.5 26.12
2  139 16 0 4.5 26.12
0

0101000
+400 0 -272 0 *
Wi

0101100
+399 0 -279 0 -275 0 -273 0 -271 0 +270 0 *
Fa
0  1e-07 15 0

0101000
+269 0 *
Ve
1e-07
-8.62 45.12 110
0 0

0101101
*
Ed
 1e-07 1 1 0
1  71 0 4.5 26.12
2  140 16 0 4.5 26.12
2  141 17 0 4.5 26.12
4 G1 16 0 17 0
0

0101000
+398 0 -267 0 *
Ed
 1e-07 1 1 0
1  72 0 2.88 4.5
2  142 16 0 2.88 4.5
2  143 35 0 2.88 4.5
4 G1 16 0 35 0
0

0101000
+267 0 -272 0 *
Wi

0101100
+397 0 -266 0 -265 0 +270 0 *
Fa
0  1e-07 16 0

0101000
+264 0 *
Ed
 1e-07 1 1 0
1  73 0 4.71238898038469 6.28318530717959
2  144 17 0 4.71238898038469 6.28318530717959
2  145 36 0 4.71238898038469 6.28318530717959
4 G1 17 0 36 0
0

0101000
+267 0 -295 0 *
Wi

0101100
-395 0 -293 0 +262 0 +266 0 *
Fa
0  1e-07 17 0

0101000
+261 0 *
Ed
 1e-07 1 1 0
1  74 0 8.00000000000001 12.5
3  146 147CN 18 0 8.00000000000001 12.5
0

0101000
+349 63 -390 63 *
Wi

0101100
-389 0 +259 14 +348 0 -259 14 *
Fa
0  1e-07 18 14

0101000
+258 0 *
Ed
 1e-07 1 1 0
1  75 0 12.5 17
2  148 19 0 12.5 17
2  149 20 0 12.5 17
0

0101000
+343 64 -387 64 *
Ed
 1e-07 1 1 0
1  76 0 12.5 17
2  150 19 0 12.5 17
2  151 22 0 12.5 17
0

0101000
+341 64 -386 64 *
Wi

0101100
-256 20 -385 0 +255 20 -340 0 *
Fa
0  1e-07 19 20

0101000
+254 0 *
Ed
 1e-07 1 1 0
1  77 0 12.5 17
2  152 20 0 12.5 17
2  153 21 0 12.5 17
0

0101000
+345 64 -384 64 *
Wi

0101100
-256 20 -383 0 +252 20 -342 0 *
Fa
0  1e-07 20 20

0101000
+251 0 *
Ed
 1e-07 1 1 0
1  78 0 12.5 17
2  154 21 0 12.5 17
2  155 22 0 12.5 17
0

0101000
+346 64 -382 64 *
Wi

0101100
-252 20 -381 0 +249 20 -344 0 *
Fa
0  1e-07 21 20

0101000
+248 0 *
Wi

0101100
-255 20 -380 0 +249 20 -339 0 *
Fa
0  1e-07 22 20

0101000
+246 0 *
Ve
1e-07
-11 24 90
0 0

0101101
*
Ed
 1e-07 1 1 0
1  79 0 0 0.5
3  156 157CN 23 0 0 0.5
0

0101000
+244 65 -378 65 *
Ed
 1e-07 1 1 0
1  80 0 0 6.28318530717959
2  158 23 0 0 6.28318530717959
2  159 37 0 0 6.28318530717959
0

0101000
+244 65 -244 65 *
Wi

0101100
-377 0 -376 0 +243 26 +242 26 -243 26 *
Fa
0  1e-07 23 26

0101000
+241 0 *
Ed
 1e-07 1 1 0
1  81 0 8.00000000000001 12.5
3  160 161CN 24 0 8.00000000000001 12.5
0

0101000
+334 66 -374 66 *
Wi

0101100
-373 0 +239 32 +333 0 -239 32 *
Fa
0  1e-07 24 32

0101000
+238 0 *
Ve
1e-07
-7.65 24 90
0 0

0101101
*
Ed
 1e-07 1 1 0
1  82 0 3 7.99999999999999
3  162 163CN 25 0 3 7.99999999999999
0

0101000
+236 67 -337 67 *
Ed
 1e-07 1 1 0
1  83 0 0 6.28318530717959
2  164 25 38 0 6.28318530717959
2  165 37 26 0 6.28318530717959
0

0101100
+236 0 -236 0 *
Wi

0101100
-336 0 +235 38 +234 0 -235 38 *
Fa
0  1e-07 25 38

0101000
+233 0 *
Ve
1e-07
-1.15 24 96.5
0 0

0101101
*
Ed
 1e-07 1 1 0
1  84 0 3 7.99999999999999
3  166 167CN 26 0 3 7.99999999999999
0

0101000
+231 68 -331 68 *
Ed
 1e-07 1 1 0
1  85 0 0 6.28318530717959
2  168 26 44 0 6.28318530717959
2  169 37 26 0 6.28318530717959
0

0101100
+231 0 -231 0 *
Wi

0101100
-330 0 +230 44 +229 0 -230 44 *
Fa
0  1e-07 26 44

0101000
+228 0 *
Ve
1e-07
-3.2 24 90
0 0

0101101
*
Ed
 1e-07 1 1 0
1  86 0 3 7.99999999999999
3  170 171CN 27 0 3 7.99999999999999
0

0101000
+226 69 -328 69 *
Ed
 1e-07 1 1 0
1  87 0 0 6.28318530717959
2  172 27 50 0 6.28318530717959
2  173 37 26 0 6.28318530717959
0

0101100
+226 0 -226 0 *
Wi

0101100
-327 0 +225 50 +224 0 -225 50 *
Fa
0  1e-07 27 50

0101000
+223 0 *
Ve
1e-07
-1.15 24 83.5
0 0

0101101
*
Ed
 1e-07 1 1 0
1  88 0 3 7.99999999999999
3  174 175CN 28 0 3 7.99999999999999
0

0101000
+221 70 -325 70 *
Ed
 1e-07 1 1 0
1  89 0 0 6.28318530717959
2  176 28 56 0 6.28318530717959
2  177 37 26 0 6.28318530717959
0

0101100
+221 0 -221 0 *
Wi

0101100
-324 0 +220 56 +219 0 -220 56 *
Fa
0  1e-07 28 56

0101000
+218 0 *
Ve
1e-07
5.35 24 90
0 0

0101101
*
Ed
 1e-07 1 1 0
1  90 0 3 7.99999999999999
3  178 179CN 29 0 3 7.99999999999999
0

0101000
+216 71 -322 71 *
Ed
 1e-07 1 1 0
1  91 0 0 6.28318530717959
2  180 29 62 0 6.28318530717959
2  181 37 26 0 6.28318530717959
0

0101100
+216 0 -216 0 *
Wi

0101100
-321 0 +215 62 +214 0 -215 62 *
Fa
0  1e-07 29 62

0101000
+213 0 *
Ve
1e-07
-8.62 48 112.88
0 0

0101101
*
Ed
 1e-07 1 1 0
1  92 0 0 1.5707963267949
2  182 30 0 0 1.5707963267949
2  183 36 0 0 1.5707963267949
4 G1 30 0 36 0
0

0101000
+295 0 -211 0 *
Ve
1e-07
-8.62 48 113.12
0 0

0101101
*
Ed
 1e-07 1 1 0
1  93 0 4.71238898038469 6.28318530717959
2  184 30 0 4.71238898038469 6.28318530717959
2  185 31 0 4.71238898038469 6.28318530717959
4 G1 30 0 31 0
0

0101000
+209 0 -297 0 *
Ed
 1e-07 1 1 0
1  94 0 2.88 3.12
2  186 30 0 2.88 3.12
2  187 38 0 2.88 3.12
0

0101000
+211 0 -209 0 *
Wi

0101100
-294 0 +210 0 +208 0 +207 0 *
Fa
0  1e-07 30 0

0101000
+206 0 *
Ve
1.04482208676193e-07
-8.62 47.9631267896945 113.579380079805
0 0

0101101
*
Ed
 1e-07 1 1 0
1  95 0 0 1
2  188 31 0 0 1
2  189 32 0 0 1
0

0101000
+204 0 -290 0 *
Ed
 1e-07 1 1 0
1  96 0 4.71238898038469 4.87258019111906
2  190 31 0 4.71238898038469 4.87258019111906
2  191 39 0 4.71238898038469 4.87258019111906
4 G1 31 0 39 0
0

0101000
+209 0 -204 0 *
Ed
 1e-07 1 1 1
2  192 31 0 0 1.5707963267949
0

0101000
+209 0 -209 0 *
Wi

0101100
-208 0 -289 0 +203 0 +202 0 +201 0 *
Fa
0  1e-07 31 0

0101000
+200 0 *
Ve
1e-07
-11.5 43.5 121
0 0

0101101
*
Ve
1e-07
-11.5 48 121
0 0

0101101
*
Ed
 1e-07 1 1 0
1  97 0 -0 4.5
2  193 32 0 -0 4.5
2  194 40 0 -0 4.5
4 G1 32 0 40 0
0

0101000
+198 0 -197 0 *
Ve
1.04482688431182e-07
-8.17499837133592 48 113.12
0 0

0101101
*
Ed
 1e-07 1 1 0
1  98 0 1.5707963267949 2.36937287543544
2  195 32 0 1.5707963267949 2.36937287543544
2  196 38 0 1.5707963267949 2.36937287543544
0

0101000
+197 0 -195 0 *
Ed
 1.04482036965782e-07 1 1 0
1  99 0 0 0.999998611896402
2  197 32 0 0 0.999998611896402
2  198 39 0 0 0.999998611896402
0

0101000
+195 0 -204 0 *
Ed
 1e-07 1 1 0
1  100 0 1.5707963267949 2.08388665961015
2  199 32 0 1.5707963267949 2.08388665961015
2  200 33 0 1.5707963267949 2.08388665961015
0

0101000
+198 0 -288 0 *
Wi

0101100
-196 0 -194 0 -193 0 -203 0 +287 0 +192 0 *
Fa
0  1e-07 32 0

0101000
+191 0 *
Ve
1e-07
-0.500000000000002 43.5 110
0 0

0101101
*
Ve
1e-07
0.500000000000002 43.5 110
0 0

0101101
*
Ed
 1e-07 1 1 0
1  101 0 11 12
2  201 33 0 11 12
2  202 41 0 11 12
0

0101000
+189 0 -188 0 *
Ve
1e-07
11.5 43.5 121
0 0

0101101
*
Ed
 1e-07 1 1 0
1  102 0 1.5707963267949 3.14159265358979
2  203 33 0 1.5707963267949 3.14159265358979
2  204 42 0 1.5707963267949 3.14159265358979
0

0101000
+186 0 -188 0 *
Ve
1e-07
11.5 43.5 138
0 0

0101101
*
Ed
 1e-07 1 1 0
1  103 0 11 28
2  205 33 0 11 28
2  206 43 0 11 28
0

0101000
+186 0 -184 0 *
Ve
1e-07
0.500000000000002 43.5 149
0 0

0101101
*
Ed
 1e-07 1 1 0
1  104 0 4.71238898038469 6.28318530717959
2  207 33 0 4.71238898038469 6.28318530717959
2  208 44 0 4.71238898038469 6.28318530717959
0

0101000
+184 0 -182 0 *
Ve
1e-07
-0.500000000000002 43.5 149
0 0

0101101
*
Ed
 1e-07 1 1 0
1  105 0 11 12
2  209 33 0 11 12
2  210 45 0 11 12
0

0101000
+180 0 -182 0 *
Ve
1e-07
-11.5 43.5 138
0 0

0101101
*
Ed
 1e-07 1 1 0
1  106 0 4.71238898038469 6.28318530717959
2  211 33 0 4.71238898038469 6.28318530717959
2  212 46 0 4.71238898038469 6.28318530717959
0

0101000
+178 0 -180 0 *
Ed
 1e-07 1 1 0
1  107 0 11 28
2  213 33 0 11 28
2  214 40 0 11 28
0

0101000
+198 0 -178 0 *
Ed
 1e-07 1 1 0
1  108 0 2.50940740490905 3.14159265358979
2  215 33 0 2.50940740490905 3.14159265358979
2  216 34 0 2.50940740490905 3.14159265358979
0

0101000
+276 0 -189 0 *
Wi

0101100
-187 0 +185 0 -183 0 -181 0 +179 0 +177 0 +176 0 -192 0 -285 0 -280 0 
-275 0 -175 0 *
Fa
0  1e-07 33 0

0101000
+174 0 *
Ve
1.00000106596212e-07
-7.92061992019544 48 112.88
0 0

0101101
*
Ed
 1e-07 1 1 0
1  109 0 0 0.999999360283832
2  217 34 0 0 0.999999360283832
2  218 35 0 0 0.999999360283832
0

0101000
+172 0 -274 0 *
Ve
1e-07
-0.500000000000002 48 110
0 0

0101101
*
Ed
 1e-07 1 1 0
1  110 0 2.40116750312914 3.14159265358979
2  219 34 0 2.40116750312914 3.14159265358979
2  220 38 0 2.40116750312914 3.14159265358979
0

0101000
+172 0 -170 0 *
Ed
 1e-07 1 1 0
1  111 0 0 4.5
2  221 34 0 0 4.5
2  222 41 0 0 4.5
4 G1 34 0 41 0
0

0101000
+189 0 -170 0 *
Wi

0101100
-273 0 +171 0 -169 0 +168 0 +175 0 *
Fa
0  1e-07 34 0

0101000
+167 0 *
Ed
 1e-07 1 1 0
1  112 0 4.71238898038469 6.28318530717959
2  223 35 0 4.71238898038469 6.28318530717959
2  224 36 0 4.71238898038469 6.28318530717959
4 G1 35 0 36 0
0

0101000
+267 0 -211 0 *
Ed
 1e-07 1 1 0
1  113 0 2.88 3.57938007980456
2  225 35 0 2.88 3.57938007980456
2  226 38 0 2.88 3.57938007980456
0

0101000
+211 0 -172 0 *
Wi

0101100
-165 0 -164 0 -171 0 -271 0 +265 0 *
Fa
0  1e-07 35 0

0101000
+163 0 *
Ed
 1e-07 1 1 1
2  227 36 0 0 1.5707963267949
0

0101000
+267 0 -267 0 *
Wi

0101100
-262 0 +161 0 +165 0 -210 0 *
Fa
0  1e-07 36 0

0101000
+160 0 *
Wi

0101100
+242 26 *
Wi

0101100
-229 0 *
Wi

0101100
-214 0 *
Wi

0101100
-224 0 *
Wi

0101100
-234 0 *
Wi

0101100
-219 0 *
Fa
0  1e-07 37 26

0101000
+158 0 +157 0 +156 0 +155 0 +154 0 +153 0 *
Ve
1e-07
0.500000000000002 48 110
0 0

0101101
*
Ed
 1e-07 1 1 0
1  114 0 11 12
2  228 38 0 11 12
2  229 41 0 11 12
0

0101000
+170 0 -151 0 *
Ed
 1e-07 1 1 0
1  115 0 2.88 3.32500162866408
2  230 38 0 2.88 3.32500162866408
2  231 39 0 2.88 3.32500162866408
0

0101000
+209 0 -195 0 *
Ve
1e-07
-11.5 48 138
0 0

0101101
*
Ed
 1e-07 1 1 0
1  116 0 11 28
2  232 38 0 11 28
2  233 40 0 11 28
0

0101000
+197 0 -148 0 *
Ve
1e-07
-0.500000000000002 48 149
0 0

0101101
*
Ed
 1e-07 1 1 0
1  117 0 4.71238898038469 6.28318530717959
2  234 38 0 4.71238898038469 6.28318530717959
2  235 46 0 4.71238898038469 6.28318530717959
0

0101000
+148 0 -146 0 *
Ve
1e-07
0.500000000000002 48 149
0 0

0101101
*
Ed
 1e-07 1 1 0
1  118 0 11 12
2  236 38 0 11 12
2  237 45 0 11 12
0

0101000
+146 0 -144 0 *
Ve
1e-07
11.5 48 138
0 0

0101101
*
Ed
 1e-07 1 1 0
1  119 0 4.71238898038469 6.28318530717959
2  238 38 0 4.71238898038469 6.28318530717959
2  239 44 0 4.71238898038469 6.28318530717959
0

0101000
+142 0 -144 0 *
Ve
1e-07
11.5 48 121
0 0

0101101
*
Ed
 1e-07 1 1 0
1  120 0 11 28
2  240 38 0 11 28
2  241 43 0 11 28
0

0101000
+140 0 -142 0 *
Ed
 1e-07 1 1 0
1  121 0 1.5707963267949 3.14159265358979
2  242 38 0 1.5707963267949 3.14159265358979
2  243 42 0 1.5707963267949 3.14159265358979
0

0101000
+140 0 -151 0 *
Wi

0101100
-150 0 -169 0 -164 0 +207 0 +149 0 -194 0 +147 0 +145 0 +143 0 -141 0 
-139 0 +138 0 *
Fa
0  1e-07 38 0

0101000
+137 0 *
Wi

0101100
-149 0 -193 0 +202 0 *
Fa
0  1e-07 39 0

0101000
+135 0 *
Ed
 1e-07 1 1 0
1  122 0 -0 4.5
2  244 40 0 -0 4.5
2  245 46 0 -0 4.5
4 G1 40 0 46 0
0

0101000
+178 0 -148 0 *
Wi

0101100
-176 0 +196 0 -133 0 +147 0 *
Fa
0  1e-07 40 0

0101000
+132 0 *
Ed
 1e-07 1 1 0
1  123 0 0 4.5
2  246 41 0 0 4.5
2  247 42 0 0 4.5
4 G1 41 0 42 0
0

0101000
+188 0 -151 0 *
Wi

0101100
-150 0 -168 0 +130 0 +187 0 *
Fa
0  1e-07 41 0

0101000
+129 0 *
Ed
 1e-07 1 1 0
1  124 0 -0 4.5
2  248 42 0 -0 4.5
2  249 43 0 -0 4.5
4 G1 42 0 43 0
0

0101000
+186 0 -140 0 *
Wi

0101100
+185 0 -127 0 +130 0 -138 0 *
Fa
0  1e-07 42 0

0101000
+126 0 *
Ed
 1e-07 1 1 0
1  125 0 -0 4.5
2  250 43 0 -0 4.5
2  251 44 0 -0 4.5
4 G1 43 0 44 0
0

0101000
+184 0 -142 0 *
Wi

0101100
-183 0 +127 0 -124 0 +139 0 *
Fa
0  1e-07 43 0

0101000
+123 0 *
Ed
 1e-07 1 1 0
1  126 0 0 4.5
2  252 44 0 0 4.5
2  253 45 0 0 4.5
4 G1 44 0 45 0
0

0101000
+182 0 -144 0 *
Wi

0101100
+181 0 -124 0 +121 0 -141 0 *
Fa
0  1e-07 44 0

0101000
+120 0 *
Ed
 1e-07 1 1 0
1  127 0 0 4.5
2  254 45 0 0 4.5
2  255 46 0 0 4.5
4 G1 45 0 46 0
0

0101000
+180 0 -146 0 *
Wi

0101100
-143 0 -118 0 +121 0 +179 0 *
Fa
0  1e-07 45 0

0101000
+117 0 *
Wi

0101100
+177 0 -133 0 +118 0 -145 0 *
Fa
0  1e-07 46 0

0101000
+115 0 *
Sh

0101100
-421 0 +371 0 -366 0 +319 0 +316 0 +313 0 -310 0 -307 7 +304 0 +301 7 
-298 0 +291 0 +282 0 +277 0 +268 0 -263 0 -260 0 -257 0 +253 0 -250 0 
-247 0 +245 0 +240 0 -237 0 -232 0 -227 0 -222 0 -217 0 -212 0 -205 0 
-199 0 -190 0 -173 0 -166 0 -162 0 -159 0 -152 0 +136 0 +134 0 -131 0 
-128 0 +125 0 +122 0 -119 0 +116 0 +114 0 *
So

0100000
+113 0 *
Ve
1e-07
6 7.5 131.8
0 0

0101101
*
Ve
1.5e-07
6 23.5 131.8
0 0

0101101
*
Ed
 1e-07 1 1 0
1  128 0 0 16
2  256 47 0 0 16
2  257 48 0 0 16
0

0101000
+111 78 -110 78 *
Ve
1.5e-07
6 23.5 144.2
0 0

0101101
*
Ed
 1.5e-07 1 1 0
1  129 0 -12.4 0
2  258 47 0 -12.4 0
2  259 49 0 -12.4 0
0

0101000
+108 78 -110 78 *
Ve
1e-07
6 7.5 144.2
0 0

0101101
*
Ed
 1e-07 1 1 0
1  130 0 0 16
2  260 47 0 0 16
2  261 50 0 0 16
0

0101000
+106 78 -108 78 *
Ed
 1e-07 1 1 0
1  131 0 0 12.4
2  262 47 0 0 12.4
2  263 51 0 0 12.4
0

0101000
-106 78 +111 78 *
Wi

0101100
-109 0 +107 0 +105 0 +104 0 *
Fa
0  1e-07 47 0

0101000
+103 0 *
Ve
1e-07
10.7 23.5 144.2
0 0

0101101
*
Ed
 1e-07 1 1 0
1  132 0 0 4.7
2  264 49 0 0 4.7
2  265 50 0 0 4.7
0

0101000
+101 78 -108 78 *
Ve
1e-07
10.7 23.5 131.8
0 0

0101101
*
Ed
 1e-07 1 1 0
1  133 0 0 4.7
2  266 49 0 0 4.7
2  267 48 0 0 4.7
0

0101000
+99 78 -110 78 *
Ed
 1e-07 1 1 0
1  134 0 0 12.4
2  268 49 0 0 12.4
2  269 52 0 0 12.4
0

0101000
-101 78 +99 78 *
Wi

0101100
-100 0 -107 0 +98 0 -97 0 *
Fa
0  1e-07 49 0

0101000
+96 0 *
Ve
1e-07
-17 7.5 144.2
0 0

0101101
*
Ed
 1e-07 1 1 0
1  135 0 0 23
2  270 51 0 0 23
2  271 50 0 0 23
0

0101000
-94 78 +106 78 *
Ve
1e-07
-17 7.5 131.8
0 0

0101101
*
Ed
 1e-07 1 1 0
1  136 0 0 12.4
2  272 51 0 0 12.4
2  273 53 0 0 12.4
0

0101000
-94 78 +92 78 *
Ed
 1e-07 1 1 0
1  137 0 0 23
2  274 51 0 0 23
2  275 48 0 0 23
0

0101000
-92 78 +111 78 *
Wi

0101100
-104 0 -93 0 +91 0 +90 0 *
Fa
0  1e-07 51 0

0111000
+89 0 *
Ve
1.5e-07
-17 23.5 131.8
0 0

0101101
*
Ed
 1e-07 1 1 0
1  138 0 0 16
2  276 53 0 0 16
2  277 48 0 0 16
0

0101000
+92 78 -87 78 *
Ve
1.5e-07
-17 23.5 144.2
0 0

0101101
*
Ed
 1.5e-07 1 1 0
1  139 0 -12.4 0
2  278 53 0 -12.4 0
2  279 54 0 -12.4 0
0

0101000
+85 78 -87 78 *
Ed
 1e-07 1 1 0
1  140 0 0 16
2  280 53 0 0 16
2  281 50 0 0 16
0

0101000
+94 78 -85 78 *
Wi

0101100
-86 0 +84 0 +83 0 +91 0 *
Fa
0  1e-07 53 0

0101000
+82 0 *
Ve
1e-07
10.7 26 131.8
0 0

0101101
*
Ed
 1e-07 1 1 0
1  141 0 0 2.5
2  282 52 0 0 2.5
2  283 48 0 0 2.5
0

0101000
-80 78 +99 78 *
Ve
1e-07
10.7 26 144.2
0 0

0101101
*
Ed
 1e-07 1 1 0
1  142 0 0 12.4
2  284 52 0 0 12.4
2  285 55 0 0 12.4
0

0101000
-78 78 +80 78 *
Ed
 1e-07 1 1 0
1  143 0 0 2.5
2  286 52 0 0 2.5
2  287 50 0 0 2.5
0

0101000
-78 78 +101 78 *
Wi

0101100
-79 0 -77 0 +76 0 +97 0 *
Fa
0  1e-07 52 0

0111000
+75 0 *
Ve
1e-07
-21.7 23.5 144.2
0 0

0101101
*
Ed
 1e-07 1 1 0
1  144 0 27.7 32.4
2  288 54 0 27.7 32.4
2  289 50 0 27.7 32.4
0

0101000
+85 78 -73 78 *
Ve
1e-07
-21.7 23.5 131.8
0 0

0101101
*
Ed
 1e-07 1 1 0
1  145 0 0 12.4
2  290 54 0 0 12.4
2  291 56 0 0 12.4
0

0101000
-73 78 +71 78 *
Ed
 1e-07 1 1 0
1  146 0 27.7 32.4
2  292 54 0 27.7 32.4
2  293 48 0 27.7 32.4
0

0101000
+87 78 -71 78 *
Wi

0101100
-72 0 +70 0 +69 0 +84 0 *
Fa
0  1e-07 54 0

0101000
+68 0 *
Ve
1.5e-07
6 26 144.2
0 0

0101101
*
Ed
 1e-07 1 1 0
1  147 0 0 4.7
2  294 55 0 0 4.7
2  295 50 0 0 4.7
0

0101000
+78 78 -66 78 *
Ve
1.5e-07
6 26 131.8
0 0

0101101
*
Ed
 1.5e-07 1 1 0
1  148 0 -12.4 0
2  296 55 0 -12.4 0
2  297 57 0 -12.4 0
0

0101000
+66 78 -64 78 *
Ed
 1e-07 1 1 0
1  149 0 0 4.7
2  298 55 0 0 4.7
2  299 48 0 0 4.7
0

0101000
+80 78 -64 78 *
Wi

0101100
-65 0 -63 0 +62 0 -77 0 *
Fa
0  1e-07 55 0

0101000
+61 0 *
Ve
1e-07
-21.7 26 131.8
0 0

0101101
*
Ed
 1e-07 1 1 0
1  150 0 0 2.5
2  300 56 0 0 2.5
2  301 48 0 0 2.5
0

0101000
-59 78 +71 78 *
Ve
1e-07
-21.7 26 144.2
0 0

0101101
*
Ed
 1e-07 1 1 0
1  151 0 0 12.4
2  302 56 0 0 12.4
2  303 58 0 0 12.4
0

0101000
-57 78 +59 78 *
Ed
 1e-07 1 1 0
1  152 0 0 2.5
2  304 56 0 0 2.5
2  305 50 0 0 2.5
0

0101000
-57 78 +73 78 *
Wi

0101100
-58 0 -56 0 +55 0 +70 0 *
Fa
0  1e-07 56 0

0111000
+54 0 *
Ve
1.5e-07
-17 26 144.2
0 0

0101101
*
Ed
 1e-07 1 1 0
1  153 0 27.7 32.4
2  306 58 0 27.7 32.4
2  307 50 0 27.7 32.4
0

0101000
+52 78 -57 78 *
Ve
1.5e-07
-17 26 131.8
0 0

0101101
*
Ed
 1e-07 1 1 0
1  154 0 27.7 32.4
2  308 58 0 27.7 32.4
2  309 48 0 27.7 32.4
0

0101000
+50 78 -59 78 *
Ed
 1.5e-07 1 1 0
1  155 0 -12.4 0
2  310 58 0 -12.4 0
2  311 59 0 -12.4 0
0

0101000
+52 78 -50 78 *
Wi

0101100
-51 0 +56 0 +49 0 +48 0 *
Fa
0  1e-07 58 0

0101000
+47 0 *
Ve
1e-07
-17 30 131.8
0 0

0101101
*
Ed
 1e-07 1 1 0
1  156 0 18.5 22.5
2  312 59 0 18.5 22.5
2  313 48 0 18.5 22.5
0

0101000
+50 78 -45 78 *
Ve
1e-07
-17 30 144.2
0 0

0101101
*
Ed
 1e-07 1 1 0
1  157 0 0 12.4
2  314 59 0 0 12.4
2  315 60 0 0 12.4
0

0101000
-43 78 +45 78 *
Ed
 1e-07 1 1 0
1  158 0 18.5 22.5
2  316 59 0 18.5 22.5
2  317 50 0 18.5 22.5
0

0101000
+52 78 -43 78 *
Wi

0101100
-44 0 -42 0 +41 0 -48 0 *
Fa
0  1e-07 59 0

0101000
+40 0 *
Ve
1e-07
6 30 144.2
0 0

0101101
*
Ve
1e-07
6 30 131.8
0 0

0101101
*
Ed
 1e-07 1 1 0
1  159 0 0 12.4
2  318 60 0 0 12.4
2  319 57 0 0 12.4
0

0101000
-38 78 +37 78 *
Ed
 1e-07 1 1 0
1  160 0 0 23
2  320 60 0 0 23
2  321 50 0 0 23
0

0101000
-43 78 +38 78 *
Ed
 1e-07 1 1 0
1  161 0 0 23
2  322 60 0 0 23
2  323 48 0 0 23
0

0101000
-45 78 +37 78 *
Wi

0101100
-36 0 -35 0 +34 0 +42 0 *
Ve
1e-07
-5.9 30 138
0 0

0101101
*
Ed
 1e-07 1 1 0
1  162 0 0 6.28318530717959
2  324 60 0 0 6.28318530717959
2  325 61 0 0 6.28318530717959
0

0101000
+32 78 -32 78 *
Wi

0101100
-31 0 *
Fa
0  1e-07 60 0

0101000
+33 0 +30 0 *
Ed
 1e-07 1 1 0
1  163 0 18.5 22.5
2  326 57 0 18.5 22.5
2  327 48 0 18.5 22.5
0

0101000
+64 78 -37 78 *
Ed
 1e-07 1 1 0
1  164 0 18.5 22.5
2  328 57 0 18.5 22.5
2  329 50 0 18.5 22.5
0

0101000
+66 78 -38 78 *
Wi

0101100
-28 0 -36 0 +27 0 -63 0 *
Fa
0  1e-07 57 0

0101000
+26 0 *
Ve
1e-07
-5.9 34 138
0 0

0101101
*
Ed
 1e-07 1 1 0
1  165 0 0 6.28318530717959
2  330 61 0 0 6.28318530717959
2  331 62 0 0 6.28318530717959
0

0101000
+24 78 -24 78 *
Ed
 1e-07 1 1 0
1  166 0 0 4
3  332 333CN 61 0 0 4
0

0101000
+32 78 -24 78 *
Wi

0101100
-23 0 +22 0 +31 0 -22 0 *
Fa
0  1e-07 61 0

0101000
+21 0 *
Ve
1e-07
-9 34 138
0 0

0101101
*
Ed
 1e-07 1 1 0
1  167 0 0 6.28318530717959
2  334 62 0 0 6.28318530717959
2  335 63 0 0 6.28318530717959
0

0101000
+19 78 -19 78 *
Wi

0101100
+18 0 *
Wi

0101100
-23 0 *
Fa
0  1e-07 62 0

0101000
+17 0 +16 0 *
Ve
1e-07
-9 36 138
0 0

0101101
*
Ed
 1e-07 1 1 0
1  168 0 0 6.28318530717959
2  336 63 0 0 6.28318530717959
2  337 64 0 0 6.28318530717959
0

0101000
+14 78 -14 78 *
Ed
 1e-07 1 1 0
1  169 0 0 2
3  338 339CN 63 0 0 2
0

0101000
-14 78 +19 78 *
Wi

0101100
-13 0 +12 0 +18 0 -12 0 *
Fa
0  1e-07 63 0

0111000
+11 0 *
Wi

0101100
+13 0 *
Fa
0  1e-07 64 0

0111000
+9 0 *
Wi

0101100
+86 0 +69 0 +58 0 -49 0 +44 0 -34 0 -28 0 -62 0 -79 0 +98 0 
-109 0 +90 0 *
Fa
0  1e-07 48 0

0101000
+7 0 *
Wi

0101100
-83 0 -93 0 +105 0 -100 0 +76 0 +65 0 +27 0 +35 0 -41 0 +51 0 
-55 0 -72 0 *
Fa
0  1e-07 50 0

0101000
+5 0 *
Sh

0101100
-102 0 -95 0 -88 0 +81 0 -74 0 -67 0 +60 0 +53 0 +46 0 +39 0 
+29 0 -25 0 +20 0 -15 0 +10 0 +8 0 +6 0 +4 0 *
So

0100000
+3 0 *
Co

1100000
+112 0 +2 77 *

+1 1 